<svg width="226" height="163" viewBox="0 0 226 163" fill="none" xmlns="http://www.w3.org/2000/svg">
<g clip-path="url(#clip0_248_16517)">
<path opacity="0.3" d="M168.23 45.4434C168.23 45.4434 167.127 41.307 166.002 41.2984C164.877 41.2897 152.679 43.4642 151.997 43.6378C151.315 43.8114 148.947 47.2576 148.947 47.2576C148.947 47.2576 160.042 47.8305 164.647 46.1942C169.251 44.5579 168.226 45.4434 168.226 45.4434H168.23Z" fill="#231F20"/>
<path d="M162.939 41.5023C162.401 41.5978 167.366 42.0058 167.045 45.5913C166.98 46.3206 165.711 45.83 165.711 45.83H168.983C168.983 45.83 166.923 41.8192 166.463 41.5587C166.002 41.2983 162.939 41.5023 162.939 41.5023Z" fill="#231F20"/>
<path d="M162.118 42.3489C160.88 42.5138 159.646 42.6917 158.417 42.8871L157.075 43.1388C155.489 43.3905 153.912 43.6857 152.331 43.9635C151.631 44.0893 150.932 44.2543 150.241 44.3975C149.355 44.5928 148.465 44.7881 147.565 44.94C147.283 44.9878 147.309 44.9227 147.518 44.7838C147.731 44.6536 148.126 44.4192 148.625 44.2412C150.385 43.6075 152.17 43.0737 154.029 42.7742C155.137 42.5919 156.271 42.2968 157.396 42.0754C158.634 41.8324 159.881 41.6154 161.123 41.4027C161.888 41.2725 162.657 41.1553 163.425 41.0381L163.869 40.9686C164.029 40.9469 164.19 40.9339 164.346 40.9296C164.659 40.9209 164.963 40.9383 165.254 40.9513L165.684 40.9643H165.893C165.954 40.96 166.036 40.96 166.127 40.9643C166.462 40.9426 166.888 41.0902 167.157 41.3636C167.574 41.8063 167.687 42.3011 167.835 42.7265C167.969 43.1605 168.104 43.5642 168.278 43.9331C168.347 44.1023 168.452 44.2326 168.53 44.3845C168.812 44.9444 168.925 45.1136 168.869 45.4131C168.855 45.4782 168.856 45.5564 168.838 45.6128C168.808 45.7083 168.712 45.7386 168.551 45.6996C168.473 45.6779 168.373 45.6432 168.265 45.5867C168.16 45.526 168.052 45.4392 167.926 45.335C167.565 45.0268 167.305 44.6015 167.135 44.1805C166.953 43.7595 166.831 43.3298 166.718 42.9478C166.614 42.5702 166.471 42.223 166.375 42.1492C166.362 42.1405 166.358 42.1232 166.349 42.1188C166.336 42.1188 166.327 42.1188 166.323 42.1101C166.323 42.0884 166.266 42.1058 166.245 42.0841C166.214 42.0711 166.14 42.0841 166.088 42.0754C166.071 42.0754 166.067 42.0754 166.041 42.0754H165.949L165.771 42.0841C165.076 42.0841 164.485 42.0147 163.999 42.0884L162.135 42.3792V42.3532L162.118 42.3489Z" fill="#231F20"/>
<path opacity="0.3" d="M79.2741 138.04C78.8224 138.157 80.9292 141.668 80.9292 141.668C80.9292 141.668 96.8935 139.337 105.799 138.04L101.529 135.553L79.209 137.002L79.2741 138.04Z" fill="#231F20"/>
<path d="M79.2037 139.299L100.402 136.083C100.402 136.083 78.9865 136.191 78.8171 136.599C78.6476 137.007 79.208 139.299 79.208 139.299H79.2037Z" fill="#231F20"/>
<path d="M87.0148 139.919C88.8133 139.632 90.616 139.363 92.4145 139.103C93.0704 139.003 93.722 138.873 94.378 138.79C96.6977 138.499 99.0261 138.248 101.35 138.013C102.384 137.918 103.422 137.801 104.443 137.684C105.103 137.61 105.764 137.54 106.433 137.527C106.767 137.519 107.097 137.501 107.432 137.519C107.766 137.558 108.101 137.592 108.44 137.631C108.857 137.688 108.796 137.801 108.453 137.996C108.279 138.096 108.04 138.217 107.753 138.352C107.61 138.417 107.458 138.491 107.288 138.552C107.123 138.608 106.945 138.656 106.758 138.686C106.428 138.747 106.107 138.795 105.777 138.864L105.286 138.964L104.791 139.033L102.805 139.311C101.48 139.511 100.142 139.624 98.7915 139.736C97.1755 139.862 95.5248 140.21 93.8871 140.466C92.0887 140.748 90.2859 141.021 88.4918 141.329C87.3841 141.512 86.2851 141.711 85.1817 141.915C84.4997 142.05 83.8046 142.167 83.127 142.319C82.7881 142.393 82.4406 142.458 82.1105 142.545L81.6109 142.671L81.3503 142.74L80.994 142.853C80.7986 142.883 80.6031 142.94 80.4119 142.953C80.2121 142.918 80.0731 142.766 79.9515 142.614C79.6952 142.271 79.504 141.733 79.3998 141.481L79.0392 140.557C78.809 139.953 78.5744 139.35 78.3442 138.747C78.2399 138.486 78.1357 138.23 78.0271 137.97C77.6709 136.993 77.6796 136.651 77.8837 136.299C77.9315 136.221 77.9706 136.125 78.0227 136.065C78.1878 135.865 78.6179 136.156 79.0566 136.859C79.5953 137.775 79.9688 138.777 80.3555 139.758C80.5423 140.249 80.7247 140.743 80.9158 141.195L80.9332 141.238H80.9419C80.9419 141.238 80.9463 141.234 80.9463 141.23C80.8116 141.269 81.2894 141.13 81.5544 141.056C83.3746 140.561 85.1643 140.188 86.9801 139.871L86.9888 139.91L87.0148 139.919Z" fill="#231F20"/>
<path opacity="0.3" d="M54.4395 55.6131C54.4395 55.6131 61.2335 75.3875 62.0849 79.6454C62.7409 82.9397 59.2222 54.6191 59.2222 54.6191L54.4438 55.6131H54.4395Z" fill="#231F20"/>
<path d="M55.6255 62.3142L57.6368 67.5269C57.8801 68.1606 58.1538 68.7856 58.384 69.4237C59.1833 71.685 59.9348 73.9636 60.6385 76.2597C60.9556 77.2753 61.2684 78.2996 61.5508 79.3196C61.9417 80.6217 62.2328 81.9672 62.3501 83.33C62.3848 83.7554 62.2588 83.7163 62.0373 83.3995C61.8244 83.0783 61.4639 82.4923 61.1946 81.7675C60.9513 81.1251 60.7428 80.4784 60.5256 79.8317L59.8566 77.8916C59.4526 76.5808 59.0486 75.2657 58.6446 73.9419C58.1668 72.3534 57.4761 70.7692 56.8723 69.1806C56.212 67.4358 55.5387 65.691 54.848 63.9505C54.4222 62.8785 53.9965 61.8108 53.5665 60.7387C53.2363 59.9314 52.9322 59.1067 52.6238 58.2864C52.4674 57.8611 52.3284 57.4835 52.1764 57.006C52.0895 56.7109 51.9896 56.4027 52.0417 56.1467C52.0634 56.0859 52.0678 56.0034 52.1243 55.9644C52.1677 55.9123 52.2372 55.8906 52.2937 55.8559C52.4197 55.7951 52.55 55.73 52.6977 55.6866C53.0626 55.5911 53.4231 55.4956 53.7837 55.4001C54.1051 55.3133 54.4222 55.2178 54.7394 55.1223C55.3692 54.9314 55.9904 54.7187 56.6073 54.493C56.881 54.3975 57.1373 54.2803 57.4109 54.1848C58.4057 53.7855 58.7489 53.7421 59.0703 53.8723C59.1442 53.9027 59.2354 53.9244 59.2875 53.9635C59.3788 54.0286 59.3397 54.1458 59.192 54.3064C59.0443 54.467 58.7836 54.6666 58.4187 54.8706C57.324 55.4262 56.1468 55.8645 54.9392 56.2291C54.4092 56.3854 53.8792 56.546 53.3449 56.7022C53.3449 56.7022 53.3449 56.7066 53.3449 56.7109C53.3449 56.7109 53.3449 56.7109 53.3449 56.7152L53.5057 57.1319C53.8445 57.9739 54.2181 58.8333 54.583 59.6883L55.6386 62.2925L55.6082 62.3056L55.6255 62.3142Z" fill="#231F20"/>
<path d="M48.9918 121.533C48.9918 121.533 51.1335 119.689 52.7885 117.176C52.7885 117.176 57.3541 114.58 59.083 114.029C60.8119 113.478 57.2846 113.369 57.2846 113.369L52.3715 115.643L47.6191 120.778L48.9918 121.533Z" fill="#231F20"/>
<path d="M47.6403 106.39C47.6403 106.39 55.7375 106.941 60.6419 104.246L58.5481 106.98C58.5481 106.98 51.9973 109.316 48.2007 107.176C46.5413 106.238 47.6446 106.395 47.6446 106.395L47.6403 106.39Z" fill="#231F20"/>
<path d="M57.2852 54.9837C57.2852 54.9837 61.3685 73.4604 61.1817 76.2512C61.0384 78.4301 61.3816 72.4665 61.3816 72.4665L59.2182 54.6191L57.2852 54.9837Z" fill="#231F20"/>
<path opacity="0.2" d="M145.477 93.8292C145.477 93.8292 144.026 92.1104 145.477 89.1113C146.928 86.1078 159.273 80.6911 161.007 80.7909C162.74 80.8907 165.081 82.4142 165.081 82.4142L150.772 91.5028C150.772 91.5028 150.19 90.5306 149.139 91.5939C148.088 92.6573 148.083 93.2693 148.083 93.2693L145.481 93.8292H145.477Z" fill="#231F20"/>
<path opacity="0.2" d="M161.402 91.6242C161.402 91.6242 164.92 94.0678 165.568 96.1859C166.215 98.304 166.892 98.725 164.938 99.4194C164.938 99.4194 158.591 98.1086 154.173 93.9506C149.751 89.7883 150.19 90.5348 149.138 91.5982C148.087 92.6616 148.543 95.0314 149.516 97.1928C150.489 99.35 160.329 107.575 164.612 109.402C168.895 111.229 173.869 114.163 177.474 113.378C181.08 112.592 182.557 112.367 182.557 112.367C182.557 112.367 190.524 123.378 190.498 124.48C190.472 125.583 198.339 112.87 197.839 111.507C197.34 110.144 190.259 108.573 187.053 102.926C183.852 97.2796 176.432 88.7336 174.62 87.4315C172.809 86.1251 171.623 85.7388 171.623 85.7388L161.402 91.6416V91.6242Z" fill="#231F20"/>
<path d="M141.684 85.1534L139.642 65.9302C139.642 65.9302 130.211 67.3929 126.671 73.9337C123.131 80.4746 124.086 86.2255 124.086 86.2255L141.684 85.1491V85.1534Z" fill="#231F20"/>
<path d="M139.13 85.5177L133.196 86.0299C132.475 86.095 131.754 86.1991 131.033 86.2599C128.483 86.4682 125.924 86.6418 123.366 86.7721C122.232 86.8415 121.09 86.9153 119.964 86.9978C118.518 87.0498 117.058 87.2755 115.603 86.9587C115.151 86.8632 115.212 86.7243 115.59 86.4726C115.781 86.3511 116.046 86.1601 116.372 86.0255C116.533 85.9561 116.706 85.878 116.893 85.8302C117.08 85.7912 117.276 85.7608 117.484 85.7521C120.403 85.5568 123.327 85.4309 126.294 85.3267C128.07 85.2747 129.904 85.0142 131.711 84.8406L137.688 84.2764C138.917 84.1679 140.147 84.0594 141.376 83.9509C143.24 83.8033 145.112 83.6557 146.963 83.5125C147.684 83.4604 148.396 83.391 149.104 83.3128C149.817 83.2477 150.525 83.1826 151.237 83.1175C151.55 83.0915 151.858 83.0524 152.175 83.0437C152.471 83.0351 152.714 83.0307 152.918 83.0394C153.122 83.0524 153.287 83.0871 153.426 83.1262C153.561 83.1653 153.67 83.213 153.761 83.2738C153.852 83.3432 153.922 83.4257 153.982 83.5082C154.039 83.5863 154.117 83.6514 154.148 83.7165C154.26 83.8901 153.783 84.2503 152.936 84.3719C150.416 84.6583 147.766 84.8276 145.099 85.049C143.118 85.2095 141.124 85.3658 139.13 85.5568V85.5221V85.5177Z" fill="#231F20"/>
<path d="M123.774 78.1696C124.309 76.2425 125.204 74.4152 126.381 72.805C127.554 71.1904 129 69.8015 130.612 68.647C131.793 67.818 133.049 67.0888 134.382 66.5463C135.56 66.0732 136.772 65.7086 138.01 65.4482C139.248 65.2008 140.503 65.0619 141.759 65.0315C144.274 64.9534 146.793 65.357 149.165 66.1817C151.263 66.9369 153.257 68.035 154.943 69.4847C156.024 70.4135 157.015 71.4725 157.797 72.6748C157.983 72.9786 158.162 73.2911 158.34 73.5993C158.513 73.9118 158.652 74.2416 158.809 74.5628C158.978 74.8753 159.056 75.2312 159.156 75.5741C159.261 75.9127 159.33 76.2642 159.4 76.6114C159.56 77.4795 159.413 77.384 158.939 76.7851C158.818 76.6332 158.674 76.4552 158.513 76.2555C158.322 76.0646 158.144 75.8389 157.931 75.6088C157.732 75.3701 157.536 75.1097 157.336 74.8319C157.141 74.5541 156.932 74.259 156.719 73.9552C156.546 73.6774 156.341 73.417 156.142 73.1566L155.851 72.7616L155.533 72.3883L155.216 72.0151L154.873 71.6635C154.647 71.4248 154.417 71.1947 154.169 70.9821C153.201 70.101 152.115 69.3501 150.946 68.7338C148.605 67.5142 145.981 66.7633 143.266 66.568C141.641 66.4508 139.964 66.581 138.322 66.9282C136.685 67.2885 135.09 67.8701 133.605 68.6166C130.351 70.2746 127.571 72.9743 126.055 76.3293C125.568 77.3493 125.238 78.4431 124.978 79.5455C124.726 80.6523 124.626 81.7938 124.6 82.9309C124.578 86.3815 125.577 89.8711 127.428 92.7791C128.153 93.9032 129.009 94.9276 129.956 95.839C130.425 96.3034 130.938 96.7114 131.446 97.1281L132.245 97.6967C132.51 97.892 132.797 98.0439 133.075 98.2218L133.44 98.4475L133.822 98.6429C134.078 98.7687 134.326 98.912 134.587 99.0378C135.56 99.4979 136.216 99.7583 136.654 100.014C136.876 100.136 137.054 100.227 137.193 100.34C137.332 100.453 137.436 100.566 137.527 100.683C137.61 100.791 137.727 100.904 137.771 100.991C137.845 101.139 137.649 101.195 137.219 101.199C137.002 101.208 136.733 101.178 136.407 101.126C136.09 101.056 135.725 100.961 135.316 100.835C132.936 100.01 130.664 98.5951 128.783 96.7201C127.849 95.7783 126.998 94.7409 126.263 93.6168C125.538 92.4883 124.925 91.2817 124.426 90.0273C123.705 88.1567 123.262 86.1732 123.127 84.1636C123.001 82.154 123.214 80.1141 123.744 78.1653H123.783L123.774 78.1696Z" fill="#231F20"/>
<path d="M143.917 104.624C143.925 104.963 143.951 105.305 143.986 105.674C143.986 105.813 144.021 105.944 144.012 106.082C143.986 106.577 143.938 107.068 143.904 107.541C143.895 107.754 143.904 107.962 143.921 108.17C143.934 108.305 143.93 108.435 143.921 108.57C143.925 108.704 143.834 108.839 143.782 108.978C143.739 109.065 143.669 109.056 143.547 108.991C143.487 108.96 143.404 108.913 143.317 108.861C143.274 108.835 143.23 108.804 143.187 108.774C143.165 108.756 143.148 108.739 143.122 108.726C143.113 108.709 143.1 108.691 143.096 108.674C143.048 108.544 142.991 108.413 142.952 108.283C142.93 108.153 142.913 108.023 142.9 107.888C142.874 107.628 142.87 107.363 142.891 107.094C142.926 106.773 142.8 106.46 142.744 106.143C142.709 105.97 142.692 105.787 142.687 105.605L142.661 105.036C142.661 104.802 142.652 104.568 142.648 104.337C142.639 103.986 142.665 103.639 142.635 103.296C142.618 103.031 142.526 102.775 142.474 102.514C142.461 102.458 142.44 102.401 142.435 102.341C142.422 102.232 142.444 102.163 142.518 102.111C142.553 102.085 142.592 102.063 142.639 102.05C142.7 102.033 142.774 102.019 142.839 102.006L142.991 101.976C143.091 101.954 143.439 102.037 143.521 102.189C143.752 102.645 143.817 103.122 143.865 103.591C143.899 103.942 143.912 104.285 143.951 104.624H143.921H143.917Z" fill="#231F20"/>
<path d="M140.858 82.0498C140.715 80.0663 140.554 78.0785 140.381 76.0949C140.328 75.3701 140.237 74.6496 140.189 73.9248C140.016 71.3683 139.829 68.8076 139.607 66.2511C139.512 65.1183 139.381 63.9811 139.255 62.857C139.095 61.416 138.96 59.9577 139.008 58.4993C139.017 58.0436 139.086 58.1 139.242 58.4689C139.381 58.8422 139.685 59.5193 139.855 60.3396L140.207 62.5315C140.298 63.265 140.385 64.0028 140.476 64.7363C140.646 66.2077 140.802 67.6878 140.919 69.1765C141.054 70.9603 141.341 72.8006 141.54 74.6192L141.697 76.121L141.818 77.6271L142.044 80.6392C142.127 81.8762 142.214 83.1132 142.296 84.3459C142.405 86.2209 142.513 88.1002 142.618 89.9622C142.722 91.4075 142.822 92.8268 142.922 94.2548C142.944 94.5716 142.97 94.8798 142.974 95.1966C142.991 95.7869 142.974 96.1775 142.9 96.451C142.87 96.5899 142.831 96.694 142.778 96.7852C142.718 96.8763 142.644 96.9458 142.579 97.0065C142.518 97.063 142.466 97.1411 142.427 97.1715C142.327 97.2843 141.975 96.8026 141.888 95.9475C141.649 93.4084 141.48 90.7391 141.284 88.0525C141.145 86.0559 140.997 84.0507 140.828 82.0542H140.858V82.0498Z" fill="#231F20"/>
<path d="M186.054 117.849C186.176 118.031 179.786 126.26 182.067 129.68C183.826 132.315 190.49 124.472 190.49 124.472L186.05 117.849H186.054Z" fill="#231F20"/>
<path d="M147.023 93.6908C147.054 94.0771 147.184 96.1954 148.07 97.1895C148.957 98.1835 150.104 97.1895 150.104 97.1895L148.088 92.6577L147.023 93.6908Z" fill="#231F20"/>
<path d="M177.265 75.5126C177.265 75.5126 179.142 77.1012 177.713 78.7548C175.871 80.8773 154.39 92.8652 153.295 93.0084C152.2 93.1517 155.458 94.5579 155.458 94.5579C155.458 94.5579 179.229 82.2618 180.415 79.701C182.413 75.3824 177.265 75.5126 177.265 75.5126Z" fill="#231F20"/>
<path d="M149.126 96.1865C149.126 96.1865 141.432 100.939 140.798 100.948C140.164 100.957 141.194 102.649 141.194 102.649L150.364 97.7056L149.126 96.1865Z" fill="#231F20"/>
<path opacity="0.3" d="M9.55664 140.571C9.55664 140.571 12.7976 141.873 14.0184 139.607C15.1002 137.598 11.8505 135.974 11.8505 135.974L9.55664 140.571Z" fill="#231F20"/>
<path opacity="0.3" d="M23.2927 145.974C22.6888 145.852 22.0415 146 21.5288 146.525C20.6382 147.436 20.799 149.125 21.7939 149.902C23.0364 150.874 25.1435 149.681 25.1304 148.153C25.1217 147.05 24.2615 146.169 23.2927 145.974Z" fill="#231F20"/>
<path opacity="0.3" d="M14.4604 148.803C13.9347 148.699 13.3743 148.825 12.9268 149.281C12.1534 150.071 12.2925 151.538 13.157 152.215C14.2388 153.057 16.0678 152.024 16.0548 150.696C16.0461 149.741 15.3032 148.973 14.4604 148.803Z" fill="#231F20"/>
<path opacity="0.3" d="M31.9123 152.931C31.9123 152.931 29.4881 152.35 28.5062 153.7C27.5244 155.05 27.7416 157.745 30.2093 158.418C30.2093 158.418 31.8254 155.045 31.9123 152.931Z" fill="#231F20"/>
<path d="M13.418 131.82C13.418 131.82 16.2503 137.289 25.1294 142.419C27.1277 143.574 14.9862 132.124 14.6908 130.227C14.3954 128.331 13.418 131.82 13.418 131.82Z" fill="#231F20"/>
<path d="M23.8926 140.44C23.8926 140.44 31.6119 145.896 33.3365 145.084C35.3912 144.117 26.0602 135.974 26.0602 135.974L23.8926 140.445V140.44Z" fill="#231F20"/>
<path d="M113.135 60.435C113.135 60.435 113.869 60.8647 114.79 60.6173C115.711 60.3699 121.228 58.1042 126.197 48.5469C126.197 48.5469 132.209 47.2795 133.925 45.8515C135.641 44.4236 135.38 43.5034 135.38 43.5034C135.38 43.5034 126.375 47.7352 125.55 47.3142C124.729 46.8932 120.559 54.4497 118.678 56.2466C117.222 57.6355 113.139 60.435 113.139 60.435H113.135Z" fill="#231F20"/>
<path d="M147.092 39.541C147.092 39.541 148.378 37.4575 149.312 37.7874C150.246 38.1173 149.942 40.0489 148.808 40.6653C147.675 41.286 146.819 41.1168 147.092 39.541Z" fill="#231F20"/>
<path d="M154.287 31.6154C154.287 31.6154 155.807 34.3107 156.111 32.8394C156.415 31.368 155.737 27.9478 155.199 27.2838C154.66 26.6197 156.459 26.0381 156.459 26.0381C156.459 26.0381 157.823 33.473 156.954 35.2005C156.085 36.9279 154.73 35.9774 154.63 34.7361C154.53 33.4947 153.73 32.0234 153.73 32.0234L154.282 31.6154H154.287Z" fill="#231F20"/>
<path d="M150.389 13.9545C150.689 14.3278 156.571 22.735 156.883 28.6204C157.196 34.5016 156.862 36.0337 156.862 36.0337C156.862 36.0337 165.432 33.308 168.286 31.637C171.14 29.9659 178.643 25.2827 179.312 24.853C179.981 24.4234 178.634 21.5718 175.749 19.9789C172.865 18.386 172.991 18.0171 173.604 15.3825C174.216 12.7479 174.225 9.56214 171.371 8.70276C168.517 7.84338 167.852 5.96836 168.595 4.49266C169.338 3.01695 159.264 9.13679 159.016 9.25832C158.769 9.37984 150.385 13.9545 150.385 13.9545H150.389Z" fill="#231F20"/>
<path d="M33.3492 103.912C30.4648 107.245 27.7715 110.752 25.2085 114.359C24.305 115.696 23.3971 117.028 22.5196 118.382C19.3745 123.122 16.4423 128.013 13.8533 133.083C12.7195 135.34 11.6118 137.627 10.6735 139.949C10.3694 140.692 10.0349 141.429 9.76122 142.185C9.4832 142.94 9.20953 143.699 8.91848 144.446C8.29729 145.935 7.84985 147.48 7.233 148.968C6.85942 149.902 6.66393 149.711 6.6509 148.812C6.64656 148.365 6.66828 147.736 6.77688 146.994C6.88982 146.256 7.03318 145.383 7.35898 144.502C9.53967 138.2 12.4328 132.176 15.8733 126.442C16.8724 124.71 17.9584 122.979 18.9966 121.212C19.5179 120.331 20.0869 119.472 20.6299 118.599C21.1816 117.731 21.716 116.855 22.3067 116.017L24.2138 113.235L26.199 110.505C26.8506 109.589 27.55 108.708 28.2407 107.818C28.9314 106.933 29.6134 106.034 30.3475 105.179C31.238 104.12 32.1025 103.035 33.0495 102.019L34.4396 100.474C34.9044 99.9577 35.4039 99.4759 35.8861 98.9768L36.9895 97.8483C37.3631 97.4794 37.7628 97.1322 38.1494 96.7719L39.3179 95.7042C39.7132 95.3526 40.1433 95.0401 40.5516 94.7059C40.9686 94.3804 41.3683 94.0419 41.8027 93.725C42.2501 93.4125 42.7193 93.1261 43.2058 92.8917C44.1789 92.4099 45.2171 92.08 46.2683 91.8717C47.9017 91.5462 49.5481 91.4811 51.1684 91.5592C52.793 91.633 54.3916 91.8544 55.9772 92.1495C56.6766 92.284 57.3586 92.4099 58.0493 92.5705C58.6922 92.7224 59.2178 92.857 59.6609 92.9785C60.0997 93.1044 60.4429 93.2346 60.7252 93.3431C61.29 93.5601 61.594 93.7641 61.8329 93.9898C61.9415 94.0896 62.0979 94.1894 62.1587 94.2719C62.3933 94.5236 61.2204 94.6669 59.3221 94.3153C56.5332 93.7511 53.7096 93.1608 50.8513 93.0349C49.4308 92.9785 48.0059 93.0349 46.6376 93.2997C45.2779 93.5731 43.9747 94.0419 42.8626 94.8058L42.5499 95.0184L42.2327 95.2745L41.5985 95.7823C41.1772 96.1252 40.7427 96.4507 40.3301 96.811C39.5264 97.5619 38.7011 98.2824 37.9148 99.0593C37.1459 99.8535 36.3596 100.635 35.6038 101.442L33.384 103.925L33.3536 103.903L33.3492 103.912Z" fill="#231F20"/>
<path d="M53.9833 114.173C55.5211 113.522 57.0415 112.966 58.5402 112.367C60.0346 111.764 61.5159 111.152 62.8973 110.419C63.4012 110.149 63.8834 109.854 64.3178 109.524C64.7522 109.199 65.1518 108.847 65.4168 108.483C65.6557 108.157 65.7513 107.862 65.7079 107.58C65.6688 107.307 65.4212 106.907 65.1649 106.695C64.8999 106.473 64.5393 106.352 64.1006 106.33C63.6618 106.313 63.184 106.365 62.6974 106.452C60.7383 106.847 58.7227 107.58 56.6375 108.001C54.7913 108.387 52.8496 108.596 50.9512 108.34C48.5273 108.04 46.1033 107.029 44.4439 105.249C43.9747 104.642 44.0399 104.737 44.6611 104.958C44.8218 105.006 44.9999 105.08 45.2128 105.149C45.4343 105.206 45.6559 105.306 45.9035 105.401C46.1467 105.505 46.403 105.614 46.6854 105.718C46.9634 105.822 47.2414 105.961 47.5455 106.07C48.5968 106.495 49.6697 106.842 50.7905 106.981C51.9026 107.133 53.0407 107.12 54.1745 106.99C55.3126 106.881 56.4594 106.656 57.6106 106.373C58.7618 106.091 59.9216 105.748 61.1249 105.449C61.8504 105.275 62.5975 105.097 63.4142 105.024C63.614 104.998 63.8356 105.006 64.0441 104.998C64.2613 105.006 64.4828 105.024 64.7044 105.058C65.1562 105.145 65.6297 105.314 66.0206 105.627C66.2204 105.77 66.3768 105.961 66.5332 106.139C66.6592 106.339 66.8025 106.508 66.8981 106.742C67.1327 107.176 67.1892 107.767 67.0806 108.261C66.9763 108.778 66.7157 109.182 66.4507 109.529C66.3117 109.698 66.1727 109.867 66.0206 110.006C65.8729 110.158 65.7165 110.293 65.5602 110.419C64.1744 111.53 62.6584 112.242 61.151 112.932C59.6349 113.604 58.0971 114.195 56.5811 114.798C55.6471 115.171 54.7175 115.54 53.8313 115.961C53.3969 116.174 52.9538 116.387 52.6237 116.66C52.5411 116.729 52.4586 116.79 52.3761 116.868L52.1198 117.124C51.9503 117.289 51.7766 117.476 51.6028 117.654C50.5603 118.761 49.4656 119.88 48.2666 120.87C47.0633 121.855 45.7905 122.767 44.4178 123.496C42.3023 124.65 40.0217 125.475 37.6325 125.809C37.1112 125.922 36.5899 125.935 36.0556 125.979C35.5604 125.996 35.1477 126.044 34.8045 126C34.4613 125.966 34.1833 125.931 33.9618 125.87C33.7359 125.809 33.5621 125.74 33.4188 125.657C33.2754 125.566 33.1712 125.462 33.0756 125.354C32.9887 125.258 32.8758 125.167 32.828 125.089C32.7498 124.954 32.9105 124.85 33.2667 124.703C33.6229 124.546 34.1573 124.486 34.8306 124.477C36.8375 124.338 38.8531 124.017 40.7862 123.353C42.7237 122.697 44.5612 121.703 46.2293 120.445C47.476 119.516 48.6228 118.444 49.7392 117.281L50.5907 116.391C50.7297 116.243 50.8861 116.087 51.0468 115.931L51.2814 115.696C51.3682 115.614 51.4812 115.527 51.5811 115.445C51.9938 115.089 52.4108 114.889 52.8018 114.685C53.1971 114.481 53.5837 114.308 53.9703 114.138L53.992 114.173H53.9833Z" fill="#231F20"/>
<path d="M25.157 135.735C25.4307 135.11 25.7087 134.489 26.0041 133.869C26.1127 133.643 26.1735 133.4 26.3038 133.178C26.7295 132.401 27.2117 131.646 27.7113 130.917C27.9241 130.587 28.137 130.257 28.3325 129.923C28.4671 129.715 28.5931 129.498 28.7321 129.289C28.8885 129.094 29.0188 128.877 29.3012 128.782C29.4793 128.725 29.5531 128.812 29.6617 129.059C29.7139 129.181 29.7921 129.355 29.8225 129.511C29.8485 129.663 29.8268 129.802 29.7573 129.915C29.2578 130.726 28.7886 131.538 28.2326 132.341C27.8937 132.818 27.7243 133.413 27.4897 133.96C27.2248 134.563 26.9554 135.171 26.7122 135.791C26.5558 136.173 26.4081 136.555 26.2691 136.946C26.0606 137.536 25.8347 138.122 25.6479 138.721C25.5045 139.185 25.4654 139.672 25.3351 140.136C25.3047 140.236 25.2873 140.34 25.2352 140.435C25.0571 140.796 24.9181 140.882 24.6314 140.874C24.5662 140.874 24.5011 140.874 24.4402 140.869C24.2404 140.843 24.1188 140.631 24.0797 140.318C24.0102 139.849 24.0276 139.394 24.1188 138.96C24.1926 138.517 24.3012 138.079 24.4142 137.64C24.614 136.998 24.8746 136.364 25.1136 135.722L25.1483 135.735H25.157Z" fill="#231F20"/>
<path d="M23.2057 138.999C24.6305 140.241 26.1466 141.386 27.7582 142.363C28.349 142.719 28.9702 143.001 29.5783 143.305C30.2473 143.635 30.9337 143.934 31.6157 144.138C31.9545 144.238 32.2934 144.312 32.5974 144.338C32.9319 144.347 33.0275 144.351 33.1578 144.242C33.2273 144.182 33.2751 144.104 33.3012 144.004C33.3359 143.882 33.3446 143.713 33.3272 143.535C33.2968 143.175 33.1665 142.762 33.0101 142.367C32.6192 141.408 32.0023 140.497 31.3768 139.62C30.9771 139.051 30.5427 138.505 30.1213 137.936L29.8086 137.506L29.5392 137.042C29.3611 136.729 29.1917 136.408 29.0353 136.07C28.8485 135.627 29.0962 135.583 29.5349 135.727C29.7564 135.796 30.0432 135.909 30.3559 136.065C30.5123 136.143 30.6774 136.235 30.8381 136.343C30.9163 136.399 30.9988 136.456 31.0814 136.512C31.1509 136.582 31.2204 136.656 31.2812 136.734C32.1761 137.827 33.097 138.947 33.8224 140.262C34.1873 140.922 34.5349 141.603 34.7694 142.411C34.8824 142.819 34.9736 143.257 34.9562 143.769C34.9519 143.9 34.9432 144.025 34.9128 144.169L34.8694 144.377C34.8476 144.455 34.8216 144.529 34.7912 144.603C34.6869 144.906 34.4871 145.163 34.2786 145.393C34.196 145.458 34.1135 145.531 34.0266 145.588C33.8659 145.688 33.6921 145.766 33.5097 145.818C33.3359 145.87 33.1144 145.9 32.9797 145.905C32.6756 145.922 32.402 145.896 32.1457 145.857C31.6287 145.783 31.1639 145.649 30.7078 145.501C29.7999 145.202 28.9485 144.824 28.1361 144.39C26.3638 143.426 24.7217 142.285 23.1753 141.039C22.2239 140.271 21.316 139.455 20.4385 138.604C19.1093 137.315 17.8929 135.913 16.7678 134.459C15.8947 133.331 15.0389 132.207 14.3178 130.965C14.1571 130.692 14.0137 130.419 13.8791 130.132C13.6401 129.594 13.5229 129.216 13.4968 128.934C13.4794 128.648 13.5489 128.457 13.6619 128.283C13.714 128.205 13.7618 128.109 13.8183 128.057C13.9138 127.966 14.0528 128.014 14.2266 128.166C14.4003 128.318 14.6306 128.57 14.8304 128.921C15.1388 129.442 15.4994 129.937 15.8165 130.458C16.1423 130.974 16.4855 131.486 16.8417 131.994C17.5541 133.01 18.3317 134.008 19.1657 134.967C20.4038 136.391 21.7504 137.741 23.21 138.969L23.1883 138.999H23.2057Z" fill="#231F20"/>
<path d="M32.9228 152.853C32.7056 153.682 32.4928 154.52 32.2278 155.344C32.1366 155.648 32.0801 155.956 31.9715 156.256C31.5979 157.311 31.1548 158.335 30.703 159.342C30.5076 159.793 30.3382 160.253 30.1644 160.705C29.9255 161.278 29.743 161.885 29.2348 162.337C29.0654 162.471 28.9698 162.397 28.8264 162.154C28.67 161.903 28.4615 161.486 28.5441 161.143C28.6353 160.848 28.7265 160.548 28.8134 160.253C28.909 159.962 29.0436 159.685 29.1609 159.398C29.3955 158.83 29.6561 158.27 29.9298 157.706C30.2686 157.033 30.4033 156.265 30.6162 155.535C30.8334 154.728 31.0723 153.921 31.2721 153.096C31.3981 152.593 31.5197 152.08 31.6327 151.568C31.8021 150.791 31.9976 150.01 32.1366 149.229C32.2582 148.621 32.3103 148.009 32.4233 147.402C32.445 147.267 32.4754 147.137 32.5188 147.007C32.5623 146.885 32.6057 146.79 32.6448 146.712C32.6926 146.633 32.7578 146.577 32.8142 146.534C32.9272 146.442 33.0445 146.408 33.1835 146.39C33.2486 146.382 33.3095 146.369 33.3659 146.369C33.544 146.369 33.67 146.62 33.7699 147.02C33.7786 147.297 33.8177 147.588 33.8003 147.862C33.7873 148.139 33.7612 148.413 33.7352 148.691C33.6961 149.246 33.6005 149.802 33.4832 150.353C33.3225 151.178 33.1357 152.011 32.9532 152.853H32.9142H32.9228Z" fill="#231F20"/>
<path d="M117.874 56.0856C119.985 53.7852 121.901 51.2201 123.717 48.5725L124.36 47.622L124.525 47.3789L124.612 47.2574L124.746 47.0707C124.85 46.9405 124.946 46.8016 125.081 46.7148L125.189 46.6671C125.202 46.6107 125.259 46.6324 125.294 46.6107C125.372 46.5846 125.45 46.5716 125.524 46.5412L126.271 46.4501C126.466 46.424 126.666 46.4067 126.866 46.3719C130.806 45.7643 134.624 43.9414 137.392 40.9943C138.647 39.7139 139.603 38.1514 140.35 36.5455C140.862 35.5212 141.219 34.4231 141.558 33.3293L141.775 32.496L142.031 31.667L142.222 30.8206C142.292 30.5385 142.383 30.2607 142.461 29.9786C142.683 29.2755 142.709 29.371 142.796 30.009C142.887 30.6427 143.117 31.8579 142.822 33.2295C142.752 33.529 142.709 33.8371 142.617 34.1323L142.344 35.022L142.066 35.9118C141.953 36.2026 141.827 36.4891 141.71 36.7755C141.592 37.0663 141.462 37.3484 141.332 37.6349C141.201 37.917 141.028 38.1818 140.876 38.4552L140.402 39.2669C140.246 39.536 140.041 39.7834 139.863 40.0394C138.408 42.0881 136.501 43.8155 134.329 45.0742C133.035 45.7903 131.688 46.4761 130.246 46.9405C129.894 47.0794 129.529 47.1749 129.164 47.2791C128.799 47.3789 128.439 47.5004 128.065 47.5655C127.696 47.6437 127.322 47.7261 126.953 47.7956L125.963 47.9301C125.963 47.9301 125.936 47.9301 125.928 47.9301C125.893 47.9301 125.867 47.9518 125.845 47.9779L125.771 48.0733L125.433 48.5638L124.751 49.5707C124.294 50.2435 123.834 50.9206 123.36 51.5847C122.409 52.9171 121.44 54.2409 120.359 55.4823C119.694 56.2505 119.003 56.997 118.265 57.7002C117.522 58.4033 116.736 59.0717 115.837 59.6229C115.155 60.0266 114.399 60.3955 113.526 60.4693C112.648 60.5344 111.718 60.2306 111.128 59.4667C111.063 59.3625 110.989 59.267 110.941 59.1542L110.819 58.8156C110.776 58.5856 110.745 58.3512 110.763 58.1342C110.785 57.6915 110.893 57.2878 111.032 56.9102C111.31 56.155 111.684 55.4779 112.07 54.8182C113.282 52.7869 114.59 50.8989 115.611 48.8893C115.837 48.451 116.019 48.0082 116.236 47.5699C116.975 45.9205 117.005 45.3997 117.383 45.0178C117.453 44.931 117.518 44.8051 117.574 44.7487C117.67 44.6532 117.757 44.7921 117.883 45.1697C118 45.5429 118 46.1549 117.839 46.8884C117.718 47.4266 117.561 47.9648 117.366 48.477C117.175 48.9978 116.918 49.4796 116.671 49.9657C116.158 50.9293 115.585 51.8538 115.003 52.7652C114.42 53.6723 113.825 54.5708 113.282 55.4692C113.017 55.9163 112.765 56.3677 112.553 56.8147C112.344 57.2574 112.183 57.7088 112.14 58.0734C111.923 58.9198 113.117 59.4536 114.351 58.8677C114.976 58.6073 115.585 58.1559 116.167 57.6741C116.749 57.1837 117.301 56.6324 117.835 56.0595L117.865 56.0812L117.874 56.0856Z" fill="#231F20"/>
<path d="M145.116 17.8563C141.741 19.6359 138.374 21.4197 135.042 23.2687C133.826 23.9415 132.636 24.6576 131.428 25.3434C127.184 27.7696 122.953 30.2436 119.013 33.1082C117.284 34.3886 115.585 35.7731 114.234 37.3617C114.03 37.6221 113.804 37.8739 113.613 38.1386C113.439 38.4164 113.253 38.6725 113.083 38.9633C112.749 39.5579 112.44 40.1612 112.149 40.7732C111.571 42.0015 111.089 43.2602 110.594 44.5319C110.247 45.3131 110.103 45.1829 109.969 44.3843C109.899 43.985 109.886 43.4294 109.938 42.761C110.008 42.1013 110.207 41.3504 110.533 40.5865C110.824 39.9095 111.146 39.2497 111.493 38.603L111.758 38.1213C111.854 37.9607 111.971 37.7914 112.075 37.6265L112.401 37.1317L112.762 36.6846C113.73 35.504 114.825 34.5188 115.955 33.6073C118.209 31.7714 120.62 30.2002 123.079 28.7158C126.024 26.945 129.052 25.0613 132.097 23.3251C135.446 21.4197 138.83 19.5881 142.223 17.7695C144.312 16.6584 146.402 15.543 148.491 14.4318C151.654 12.7435 154.838 11.0724 157.944 9.345C160.359 8.00384 162.674 6.59324 165.007 5.18698C165.52 4.87448 166.019 4.56632 166.536 4.25382C167.496 3.67655 168.144 3.32065 168.63 3.12099C169.125 2.9387 169.46 2.90832 169.755 2.93436C169.89 2.94304 170.051 2.93002 170.138 2.94738C170.285 2.9821 170.185 3.15572 169.912 3.48992C169.638 3.82846 169.156 4.27986 168.461 4.72691C164.386 7.47867 159.864 9.97 155.32 12.4483C151.932 14.2582 148.53 16.0812 145.133 17.8954L145.112 17.865L145.116 17.8563Z" fill="#231F20"/>
<path d="M156.744 24.0894C157.179 25.6649 157.5 27.2665 157.718 28.8854C157.791 29.4757 157.904 30.0617 157.935 30.6606C157.996 31.7153 158.009 32.7743 157.865 33.8594C157.791 34.402 157.691 34.9402 157.444 35.5261L157.34 35.7431C157.292 35.8169 157.235 35.895 157.175 35.9862C157.118 36.0773 157.036 36.1294 156.962 36.1989L156.853 36.2987L156.723 36.3725C156.558 36.4723 156.332 36.5374 156.11 36.5504C155.884 36.5504 155.658 36.507 155.489 36.4202C154.872 36.099 154.599 35.652 154.312 35.244C154.043 34.8273 153.821 34.402 153.643 33.9723C153.404 33.4211 153.182 32.8698 153.004 32.3013L152.878 31.8759L152.804 31.4375C152.757 31.1424 152.731 30.8472 152.722 30.5478C152.722 30.1702 152.857 30.1875 153.156 30.4219C153.304 30.5391 153.521 30.6997 153.721 30.908C153.825 31.0122 153.93 31.125 154.034 31.2466C154.086 31.3073 154.129 31.3724 154.186 31.4375C154.221 31.507 154.255 31.5808 154.286 31.6545C154.503 32.1841 154.729 32.7049 154.972 33.204C155.094 33.4514 155.224 33.6902 155.35 33.9245C155.463 34.1633 155.589 34.3846 155.715 34.5799C155.837 34.7709 155.976 34.9445 156.054 35.0096C156.071 35.0226 156.089 35.04 156.089 35.04C156.089 35.04 156.089 35.0617 156.08 35.0747L156.071 35.0964C156.058 35.1268 156.049 35.1615 156.045 35.2006C156.023 35.2787 156.062 35.2787 155.993 35.1138C155.976 35.0834 156.006 35.1008 156.01 35.0964L156.041 35.0877C156.041 35.0877 156.041 35.0877 156.071 35.066C156.093 35.04 156.119 34.9922 156.145 34.9532C156.201 34.8837 156.241 34.7579 156.293 34.658L156.406 34.2935C156.566 33.6771 156.601 32.974 156.584 32.2752C156.571 31.5721 156.493 30.8603 156.419 30.1571C156.249 28.6033 155.967 27.0495 155.572 25.5217C155.333 24.5798 155.055 23.6467 154.725 22.7309C154.234 21.342 153.673 19.9661 152.961 18.69C152.414 17.6918 151.736 16.802 151.054 15.9253C150.915 15.7256 150.758 15.5433 150.611 15.3437C150.476 15.157 150.372 15.0008 150.289 14.8619C150.211 14.723 150.181 14.5841 150.146 14.4713C150.085 14.2456 150.094 14.0806 150.146 13.9114C150.168 13.8332 150.181 13.7464 150.207 13.6857C150.302 13.4904 150.693 13.6596 151.319 14.0633C151.697 14.4322 152.088 14.8055 152.444 15.2178C152.791 15.6345 153.1 16.0815 153.413 16.5373C154.021 17.4531 154.551 18.434 155.029 19.4366C155.737 20.9296 156.301 22.4922 156.762 24.0764L156.727 24.0894H156.744Z" fill="#231F20"/>
<path d="M165.533 32.1446C166.749 31.5977 167.948 30.9857 169.138 30.352C169.573 30.1177 169.981 29.8442 170.411 29.6098C171.931 28.7722 173.447 27.9171 174.946 27.023C175.615 26.6367 176.271 26.2157 176.914 25.7947C177.757 25.2782 178.573 24.714 179.542 24.4015C179.837 24.293 179.833 24.3667 179.69 24.6228C179.594 24.7834 179.49 24.9614 179.386 25.148C179.32 25.2522 179.255 25.3737 179.168 25.4779C179.077 25.5777 178.982 25.6732 178.869 25.7643C178.473 26.0812 178.087 26.411 177.683 26.7105C177.27 26.997 176.849 27.2791 176.427 27.5525C175.589 28.1124 174.703 28.6116 173.795 29.0847C172.713 29.6532 171.666 30.3737 170.58 30.9901C169.39 31.6758 168.169 32.3182 166.936 32.9345C166.558 33.1298 166.167 33.2991 165.785 33.4814C165.402 33.6637 165.016 33.846 164.625 34.0109C164.038 34.2713 163.443 34.5274 162.839 34.7488C162.54 34.8616 162.24 34.9875 161.936 35.096C161.632 35.2045 161.328 35.3087 161.023 35.4128C160.559 35.5951 160.085 35.7427 159.616 35.9076C159.151 36.0856 158.669 36.2158 158.183 36.3417C157.97 36.3937 157.761 36.4719 157.54 36.5109C156.71 36.6151 156.432 36.524 156.236 36.1941C156.193 36.116 156.136 36.0422 156.11 35.9684C156.024 35.708 156.328 35.4476 156.871 35.2826C158.482 34.8312 160.15 34.3321 161.823 33.6941C162.44 33.4423 163.065 33.221 163.678 32.9432L164.603 32.5439L165.515 32.1099L165.533 32.1402V32.1446Z" fill="#231F20"/>
<path d="M152.206 28.8599C151.563 29.1854 150.937 29.5413 150.316 29.919C150.094 30.0622 149.89 30.2358 149.669 30.3747C149.278 30.6264 148.878 30.8738 148.491 31.1386C148.092 31.3903 147.705 31.6551 147.319 31.9285C146.984 32.1759 146.663 32.4494 146.363 32.7315C145.959 33.0787 145.581 33.452 145.064 33.682C144.908 33.7558 144.821 33.6343 144.799 33.4042C144.786 33.1829 144.777 32.7922 144.96 32.5275C145.134 32.3105 145.32 32.0978 145.507 31.8895C145.698 31.6855 145.915 31.5118 146.128 31.3296C146.554 30.9693 147.01 30.6394 147.492 30.3443C148.074 29.9971 148.596 29.5327 149.169 29.1551C149.795 28.7341 150.451 28.3521 151.107 27.9745C151.515 27.7531 151.923 27.5274 152.336 27.3191C152.957 26.9892 153.609 26.7071 154.226 26.3903C154.712 26.1516 155.159 25.8477 155.642 25.5917C155.746 25.5352 155.846 25.4658 155.954 25.4181C156.376 25.2705 156.545 25.3182 156.745 25.6003C156.789 25.6655 156.841 25.7262 156.88 25.7957C157.001 26.0214 156.91 26.2861 156.654 26.4944C155.889 27.0804 155.012 27.4537 154.152 27.8964C153.513 28.2219 152.857 28.5301 152.232 28.8946L152.214 28.8686L152.206 28.8599Z" fill="#231F20"/>
<path d="M148.578 29.0155C148.395 27.249 148.078 25.4738 147.609 23.742C147.44 23.1083 147.21 22.4963 147.005 21.8757C146.649 20.7819 146.236 19.7055 145.763 18.6682C145.276 17.6439 144.72 16.6239 143.965 15.8383C143.639 15.478 143.248 15.2089 142.848 15.031C142.44 14.8574 142.053 14.8617 141.645 15.0093C141.132 15.2089 140.654 15.6039 140.233 16.0596C140.02 16.2853 139.825 16.5371 139.634 16.7888C139.451 17.0492 139.225 17.288 139.034 17.5571C138.786 17.8869 138.687 17.7914 138.661 17.3791C138.647 17.1708 138.652 16.8843 138.704 16.5414C138.765 16.2029 138.921 15.8426 139.16 15.4867C139.608 14.8834 140.133 14.2584 140.945 13.8765C141.341 13.6812 141.819 13.5553 142.314 13.5683C142.561 13.577 142.818 13.6117 143.026 13.6855C143.252 13.7463 143.474 13.82 143.656 13.9286C144.434 14.3279 145.007 14.8878 145.485 15.4694C145.95 16.0596 146.358 16.676 146.68 17.3183C147.483 18.8418 148.222 20.439 148.752 22.0797C149.329 23.8809 149.751 25.7255 150.033 27.5918C150.207 28.742 150.32 29.9009 150.363 31.0641C150.402 31.9452 150.381 32.8393 150.276 33.729C150.172 34.6188 150.011 35.5173 149.642 36.3897C149.508 36.7282 149.316 37.0581 149.099 37.3749C148.969 37.5225 148.86 37.6787 148.678 37.8437C148.5 38.0086 148.252 38.1041 148.035 38.1779C147.192 38.4166 146.323 38.2603 145.633 37.8306C145.337 37.6397 145.055 37.4357 144.825 37.1752C143.991 36.1987 144.073 35.7256 144.295 35.361C144.342 35.2785 144.369 35.1917 144.408 35.144C144.49 34.9964 145.038 35.2525 145.498 35.7516C146.206 36.4938 147.201 36.6848 147.644 36.5155C147.644 36.5155 147.648 36.4982 147.653 36.4938C147.661 36.4678 147.74 36.3766 147.8 36.3159C147.905 36.1379 148.026 35.9686 148.113 35.7429C148.3 35.3133 148.443 34.7924 148.526 34.2455C148.795 32.6136 148.734 30.8037 148.534 29.0328L148.574 29.0241L148.578 29.0155Z" fill="#231F20"/>
<path d="M149.829 40.2917C149.638 40.5782 149.403 40.8213 149.125 41.0253C148.843 41.2207 148.508 41.39 148.104 41.4334C147.817 41.4681 147.5 41.4594 147.231 41.3335C146.74 41.1121 146.458 40.6607 146.345 40.2744C146.227 39.8794 146.223 39.4974 146.279 39.1284C146.34 38.8028 146.444 38.4816 146.614 38.1995C146.718 38.0172 146.853 37.8348 147.044 37.6959C147.248 37.5701 147.522 37.5397 147.743 37.6091C147.883 37.6612 147.83 37.7567 147.752 37.9043C147.713 37.9781 147.674 38.0736 147.661 38.1734C147.644 38.2689 147.652 38.3731 147.652 38.4295C147.587 38.5728 147.496 38.7898 147.474 39.0069C147.465 39.2109 147.392 39.454 147.4 39.697C147.4 39.8446 147.461 39.9662 147.535 40.04C147.609 40.1094 147.683 40.1355 147.761 40.1572C147.913 40.2179 148.243 40.1007 148.486 39.8229C148.634 39.658 148.747 39.467 148.808 39.2413C148.903 38.9027 148.877 38.5467 148.704 38.3471C148.604 38.2168 148.347 38.2602 148.226 38.334C148.2 38.3514 148.187 38.3818 148.165 38.3774C148.126 38.3774 148.095 38.3557 148.035 38.3427C147.969 38.321 147.874 38.308 147.743 38.2906C147.683 38.282 147.622 38.2863 147.561 38.2819C147.461 38.2733 147.383 38.2385 147.326 38.1344C147.266 38.0345 147.253 37.8652 147.339 37.6786C147.465 37.4008 147.704 37.1837 147.974 37.0882C148.239 36.9797 148.525 36.945 148.83 36.9884C149.125 37.0275 149.468 37.1837 149.716 37.4312C149.937 37.6439 150.111 37.913 150.202 38.1865C150.32 38.5988 150.311 38.9852 150.242 39.3324C150.172 39.6797 150.05 40.0009 149.864 40.3091L149.833 40.2917H149.829Z" fill="#231F20"/>
<path d="M156.163 83.5128C154.985 84.0076 153.821 84.5415 152.666 85.0884C152.244 85.2924 151.84 85.5267 151.423 85.7351C149.951 86.4599 148.452 87.1804 147.084 88.0398L146.658 88.3436C146.532 88.4564 146.445 88.5172 146.336 88.6518C146.132 88.9209 145.954 89.216 145.798 89.5242C145.607 89.9191 145.433 90.3271 145.276 90.7394L145.055 91.3601C145.024 91.4643 144.977 91.5641 144.925 91.6683C144.872 91.7681 144.842 91.8723 144.777 91.9764C144.594 92.2282 144.516 92.2021 144.282 91.9157C144.16 91.7724 144.051 91.5641 143.951 91.3037C143.873 91.0476 143.869 90.7568 143.947 90.4703C144.095 89.9625 144.247 89.4547 144.521 88.999C144.651 88.7689 144.79 88.5432 144.946 88.3262C145.024 88.2177 145.107 88.1092 145.19 88.0007C145.285 87.8922 145.342 87.7967 145.485 87.6752C145.607 87.5667 145.754 87.4278 145.867 87.354L146.197 87.137C146.419 86.9851 146.632 86.8766 146.853 86.7507C147.283 86.499 147.718 86.2776 148.156 86.0606C149.208 85.5484 150.233 84.9104 151.284 84.3635C152.444 83.7646 153.617 83.2003 154.798 82.6448C155.528 82.3062 156.262 81.9807 156.997 81.6552C157.557 81.4121 158.122 81.1777 158.699 80.9607C158.982 80.8479 159.29 80.7567 159.581 80.6526C159.894 80.5658 160.22 80.4703 160.533 80.4312C161.514 80.2836 162.518 80.275 163.491 80.4876C163.704 80.5354 163.917 80.5744 164.121 80.6569C164.499 80.8132 164.729 80.9477 164.864 81.0953C164.994 81.2515 165.042 81.3947 165.046 81.564C165.046 81.6421 165.063 81.7203 165.055 81.7854C165.037 81.8939 164.937 81.9546 164.777 81.985C164.612 82.0111 164.381 82.0241 164.121 81.972C163.339 81.8592 162.6 81.7073 161.853 81.7203C161.484 81.7203 161.115 81.7507 160.75 81.8114L160.476 81.8635L160.229 81.9373C160.076 81.9764 159.881 82.0545 159.69 82.1239C158.556 82.5449 157.348 83.0354 156.18 83.5606L156.163 83.5302V83.5128Z" fill="#231F20"/>
<path d="M189.168 103.877C191.123 106.156 193.395 108.144 195.989 109.663C196.458 109.945 196.927 110.227 197.426 110.453L198.942 111.191C202.496 112.97 206.032 114.793 209.533 116.681C211.093 117.514 212.661 118.348 214.207 119.177C215.198 119.715 216.197 120.249 217.161 120.848C218.134 121.429 219.094 122.054 219.876 122.918C220.341 123.482 220.232 123.456 219.581 123.343C219.251 123.296 218.825 123.183 218.291 123.079C217.774 122.944 217.257 122.679 216.701 122.371C212.796 120.093 208.769 117.918 204.733 115.687C202.313 114.35 199.698 113.165 197.157 111.911C196.81 111.737 196.449 111.564 196.101 111.369L195.068 110.765L194.038 110.162L193.065 109.472C192.744 109.242 192.413 109.016 192.096 108.777L191.184 108.009C190.884 107.749 190.567 107.506 190.28 107.232L189.433 106.399C188.717 105.735 188.108 104.975 187.453 104.255C187.144 103.882 186.844 103.5 186.54 103.122C186.232 102.749 185.936 102.367 185.654 101.972C183.895 99.6324 182.37 97.1454 180.68 94.8363C179.36 93.0481 177.961 91.3814 176.375 89.9101C176.045 89.5628 175.659 89.3024 175.311 88.9769C174.659 88.3736 174.208 88.0177 173.934 87.6965C173.795 87.5402 173.699 87.397 173.634 87.2581C173.582 87.1019 173.556 86.9543 173.534 86.8198C173.517 86.6939 173.465 86.5637 173.456 86.4856C173.395 86.2642 174.281 86.2989 175.42 87.0932C177.062 88.2998 178.608 89.7495 179.959 91.3684C181.314 92.983 182.544 94.7104 183.73 96.4379C185.498 98.9943 187.183 101.568 189.186 103.838L189.16 103.868L189.168 103.877Z" fill="#231F20"/>
<path d="M164.564 81.6633C166.367 80.5652 168.174 79.4714 169.999 78.395L172.749 76.7978C173.674 76.2726 174.595 75.7518 175.59 75.27C175.781 75.1832 175.941 75.0921 176.159 75.0096C176.38 74.9315 176.61 74.836 176.828 74.7926C177.262 74.6927 177.727 74.645 178.205 74.6797C178.682 74.7144 179.178 74.8447 179.616 75.0877C180.055 75.3264 180.424 75.6606 180.711 76.0252C180.837 76.1858 180.95 76.3551 181.054 76.52C181.146 76.6763 181.241 76.8325 181.332 77.0105C181.506 77.3534 181.697 77.8134 181.671 78.3386C181.649 78.8551 181.458 79.2588 181.28 79.5973C181.093 79.9358 180.894 80.2397 180.694 80.5261C180.603 80.6607 180.433 80.8647 180.303 80.9992C180.164 81.1338 180.025 81.277 179.886 81.3855C179.603 81.6286 179.321 81.8369 179.034 82.0409C178.461 82.4489 177.879 82.8135 177.288 83.1737C174.934 84.5843 172.531 85.8473 170.125 87.106C167.987 88.2171 165.85 89.3543 163.756 90.4915C161.054 91.9455 158.431 93.5384 155.642 94.8144C154.769 95.2094 154.821 95.0575 155.385 94.4281C155.677 94.1243 156.05 93.6252 156.602 93.1868C157.145 92.7267 157.805 92.2363 158.565 91.7719C164.03 88.6512 169.647 85.8734 175.164 82.8916C175.98 82.4402 176.797 81.9628 177.583 81.4463C177.974 81.1902 178.357 80.9211 178.717 80.639C178.891 80.5001 179.069 80.3525 179.217 80.2093C179.286 80.1355 179.377 80.0617 179.425 79.9923C179.482 79.9185 179.534 79.8664 179.603 79.7579C179.86 79.3759 180.116 78.981 180.238 78.6381C180.355 78.2909 180.338 78.1172 180.164 77.744C180.081 77.5747 179.955 77.3664 179.842 77.1884C179.729 77.0191 179.603 76.8629 179.469 76.7327C179.195 76.4679 178.882 76.29 178.53 76.2032C178.144 76.1077 177.709 76.1207 177.266 76.2205C177.153 76.2422 177.045 76.2726 176.949 76.316C176.849 76.3594 176.754 76.3811 176.645 76.4289L175.959 76.7457C175.033 77.2145 174.104 77.7179 173.187 78.2388C171.345 79.2804 169.525 80.3699 167.709 81.468C165.472 82.8178 163.244 84.185 161.024 85.5652C157.683 87.6442 154.356 89.7146 151.041 91.8413C151.002 91.8674 150.963 91.8847 150.924 91.9108C150.681 92.0453 150.394 92.0583 150.125 92.0193C150.003 92.0019 149.908 91.9802 149.816 91.9628C149.725 91.9455 149.695 91.9411 149.638 91.9368C149.417 91.9064 149.239 92.0844 149.165 92.2753C149.03 92.5444 148.995 92.9698 148.635 93.4255C148.544 93.5297 148.426 93.6252 148.322 93.6946L148.088 93.8509L147.614 94.1677C146.354 95.0054 145.095 95.8344 143.822 96.6504C143.261 97.0106 142.718 97.3709 142.149 97.7268C140.034 99.0375 139.326 99.3674 138.67 99.337C138.522 99.3283 138.34 99.3457 138.235 99.311C137.87 99.1981 138.6 98.4255 140.112 97.4056C143.418 95.2181 146.849 92.9437 150.342 90.6347C151.463 89.9142 152.601 89.1807 153.739 88.4428C157.319 86.1555 160.933 83.8899 164.556 81.6416L164.582 81.672L164.564 81.6633Z" fill="#231F20"/>
<path d="M138.444 98.8596L138.513 98.8206C138.553 98.8076 138.596 98.7989 138.635 98.7902L138.696 98.7815H138.726L138.744 98.7772C138.744 98.7685 138.752 98.864 138.748 98.8249H138.757L139.039 98.8466C139.13 98.8466 139.226 98.8814 139.321 98.9161C139.417 98.9421 139.508 99.0072 139.604 99.0593C139.695 99.1114 139.791 99.1765 139.882 99.2416C139.973 99.3067 140.064 99.3675 140.147 99.4543L140.399 99.693C140.486 99.7581 140.577 99.8753 140.616 99.9187C140.816 100.157 141.016 100.413 141.159 100.713C141.237 100.861 141.298 101.017 141.35 101.173L141.393 101.29C141.393 101.29 141.393 101.308 141.393 101.316V101.36C141.407 101.399 141.393 101.464 141.393 101.52L141.376 101.607C141.376 101.607 141.428 101.594 141.45 101.585C141.502 101.559 141.546 101.533 141.593 101.52L141.737 101.477C141.737 101.477 141.867 101.42 141.945 101.386L142.215 101.26L143.292 100.748C144.009 100.4 144.725 100.049 145.438 99.6886C146.072 99.3675 146.68 99.0029 147.293 98.6557C147.684 98.43 148.07 98.1912 148.466 97.9699C148.883 97.7833 149.317 97.6313 149.79 97.5532C150.138 97.5966 150.086 97.5836 149.99 97.9091C149.89 98.2216 149.686 98.7555 149.304 99.1287C148.93 99.4022 148.531 99.6279 148.14 99.8709C147.744 100.11 147.353 100.348 146.941 100.561C146.124 100.991 145.29 101.399 144.43 101.772C143.917 101.993 143.413 102.262 142.91 102.54L141.941 103.087C141.524 103.321 141.055 103.582 140.716 103.578C140.568 103.591 140.442 103.578 140.329 103.547C140.277 103.539 140.19 103.499 140.19 103.456L140.134 103.335L139.964 102.983C139.943 102.961 139.943 102.9 139.938 102.844L139.925 102.679C139.925 102.566 139.899 102.466 139.912 102.341L139.834 101.867L139.747 101.672C139.682 101.546 139.612 101.416 139.534 101.282L139.404 101.091C139.382 101.06 139.356 101.03 139.33 100.995C139.313 100.973 139.304 100.965 139.291 100.943C139.239 100.878 139.182 100.817 139.113 100.756C139.069 100.717 139.026 100.678 138.974 100.644C138.948 100.626 138.922 100.604 138.896 100.6C138.87 100.609 138.852 100.635 138.835 100.652C138.757 100.735 138.674 100.826 138.592 100.921L138.526 100.995L138.409 101.138L138.166 101.438L137.11 102.775C136.91 103.031 136.698 103.308 136.533 103.573C136.502 103.625 136.472 103.673 136.45 103.721C136.437 103.747 136.428 103.769 136.42 103.795C136.398 103.829 136.467 103.816 136.493 103.821C136.641 103.816 136.784 103.777 136.919 103.738C137.188 103.66 137.406 103.565 137.575 103.495C137.614 103.478 137.649 103.46 137.679 103.443C137.679 103.439 137.74 103.421 137.784 103.404L137.927 103.361C138.283 103.265 138.526 103.217 138.709 103.265C138.896 103.326 139.026 103.452 139.135 103.617C139.187 103.69 139.248 103.756 139.278 103.821C139.334 103.933 139.3 104.051 139.195 104.216C139.096 104.381 138.922 104.55 138.67 104.632L138.105 104.836C138.044 104.862 137.827 104.91 137.658 104.958L137.115 105.092C136.75 105.179 136.389 105.249 136.033 105.301C135.707 105.327 135.399 105.327 135.16 105.283C134.912 105.244 134.756 105.14 134.66 104.984L134.621 104.923V104.914H134.612C134.526 104.966 134.73 104.841 134.708 104.854L134.691 104.836L134.665 104.815L134.578 104.732C134.552 104.706 134.517 104.68 134.491 104.645C134.473 104.606 134.465 104.567 134.456 104.519C134.426 104.341 134.469 104.081 134.66 103.769C134.838 103.456 135.099 103.139 135.247 102.805C135.399 102.558 135.555 102.297 135.729 102.041C135.772 101.976 135.816 101.915 135.864 101.85L135.942 101.742L136.081 101.551L136.654 100.795L137.236 100.045L137.788 99.3284C137.879 99.2025 137.975 99.081 138.083 98.9942C138.192 98.9117 138.305 98.8683 138.405 98.8076L138.418 98.851L138.444 98.8596Z" fill="#231F20"/>
<path d="M186.848 117.649C187.152 118.187 187.452 118.725 187.769 119.255C187.882 119.45 188.025 119.624 188.138 119.815C188.534 120.501 188.933 121.191 189.328 121.876C189.507 122.18 189.711 122.471 189.915 122.749C190.163 123.122 190.423 123.487 190.601 123.912C190.658 124.047 190.54 124.107 190.349 124.103C190.163 124.094 189.876 124.034 189.676 123.856L189.172 123.369C189.016 123.2 188.881 123.014 188.738 122.831C188.46 122.462 188.203 122.08 187.999 121.659C187.747 121.16 187.369 120.722 187.061 120.249C186.718 119.728 186.388 119.198 186.057 118.673L185.445 117.701C185.137 117.211 184.85 116.698 184.52 116.23C184.268 115.861 183.946 115.548 183.686 115.184C183.629 115.106 183.564 115.032 183.512 114.949C183.342 114.624 183.355 114.476 183.521 114.281C183.56 114.237 183.59 114.185 183.633 114.151C183.768 114.025 183.985 114.059 184.216 114.224C184.902 114.715 185.371 115.396 185.858 116.069C186.036 116.321 186.209 116.577 186.379 116.837L186.865 117.632L186.839 117.649H186.848Z" fill="#231F20"/>
<path d="M192.336 123.5C191.159 124.95 189.917 126.352 188.509 127.615C187.992 128.075 187.501 128.561 186.928 128.973C186.429 129.338 185.903 129.681 185.325 129.971C184.76 130.267 184.117 130.51 183.388 130.562C183.21 130.588 183.014 130.562 182.823 130.544C182.632 130.54 182.441 130.458 182.254 130.397C181.889 130.258 181.572 130.023 181.324 129.733C180.825 129.138 180.686 128.435 180.621 127.806C180.534 126.677 180.655 125.605 180.829 124.568C180.942 123.904 181.046 123.244 181.198 122.593L181.446 121.629L181.572 121.152C181.615 120.991 181.68 120.839 181.728 120.679C181.863 120.284 181.898 120.332 182.024 120.701C182.176 121.069 182.354 121.773 182.315 122.549C182.306 122.723 182.302 122.892 182.284 123.062L182.224 123.565L182.106 124.563C182.032 125.223 181.985 125.874 181.932 126.499C181.898 127.12 181.906 127.74 182.041 128.235C182.176 128.726 182.402 129.051 182.797 129.181C182.823 129.194 182.849 129.208 182.879 129.216L182.975 129.225C183.04 129.225 183.101 129.251 183.179 129.247C183.331 129.229 183.479 129.229 183.644 129.168C183.727 129.142 183.805 129.129 183.887 129.099L184.135 128.99C184.3 128.93 184.465 128.821 184.63 128.734C185.29 128.348 185.912 127.827 186.515 127.302C187.18 126.721 187.819 126.087 188.431 125.427C189.048 124.772 189.656 124.099 190.234 123.396C190.946 122.536 191.637 121.651 192.289 120.74C193.27 119.355 194.217 117.931 195.012 116.447C195.62 115.288 196.111 114.099 196.554 112.905C196.654 112.645 196.75 112.389 196.85 112.124C197.058 111.647 197.176 111.33 197.349 111.13C197.545 110.939 197.714 110.844 197.892 110.77C197.975 110.739 198.053 110.687 198.114 110.67C198.218 110.644 198.279 110.744 198.353 110.97C198.392 111.082 198.422 111.23 198.457 111.404C198.501 111.582 198.448 111.755 198.427 111.963C198.049 114.42 196.906 116.729 195.594 118.886C194.617 120.492 193.527 122.033 192.367 123.522L192.332 123.5H192.336Z" fill="#231F20"/>
<path d="M193.413 137.471C194.751 138.1 196.128 138.673 197.523 139.207C198.035 139.398 198.557 139.554 199.069 139.741C200.876 140.405 202.688 141.091 204.517 141.738C205.329 142.028 206.146 142.315 206.954 142.601C207.983 142.979 209.06 143.339 209.951 144.073C210.229 144.298 210.125 144.35 209.803 144.333C209.495 144.29 208.913 144.32 208.326 144.151C207.292 143.817 206.219 143.534 205.151 143.231C204.087 142.905 203.031 142.528 201.975 142.128C200.711 141.651 199.352 141.282 198.044 140.813C196.606 140.301 195.181 139.745 193.778 139.138C192.914 138.764 192.058 138.365 191.211 137.948C189.929 137.315 188.683 136.59 187.484 135.813C186.554 135.201 185.629 134.602 184.786 133.843C184.604 133.673 184.404 133.526 184.239 133.33C184.082 133.157 183.956 133.005 183.861 132.87C183.765 132.736 183.73 132.597 183.696 132.488C183.635 132.263 183.665 132.093 183.757 131.915C183.796 131.837 183.83 131.746 183.878 131.685C184.039 131.486 184.452 131.642 184.921 132.037C185.572 132.666 186.298 133.244 187.058 133.808C187.818 134.372 188.631 134.906 189.482 135.401C190.737 136.143 192.062 136.82 193.422 137.428L193.409 137.462L193.413 137.471Z" fill="#231F20"/>
<path d="M57.7756 51.5803C57.7061 50.9466 57.6409 50.3129 57.5931 49.6619C57.5671 49.3364 57.5497 49.0108 57.541 48.6636V48.5117C57.5366 48.4422 57.541 48.3641 57.541 48.2947C57.5497 48.1471 57.541 47.9995 57.5757 47.8606C57.5888 47.7174 57.6279 47.5829 57.6757 47.4527C57.7321 47.3311 57.8451 47.2356 57.9102 47.1185L58.6183 46.6584C58.6748 46.6193 58.7399 46.5803 58.8008 46.5542L58.9745 46.4935L59.2395 46.4066C59.6001 46.2721 59.9259 46.2244 60.269 46.1419C60.9424 46.0117 61.5983 45.9336 62.2499 45.8771C64.852 45.6688 67.3889 45.7079 69.9301 45.7686C71.7807 45.812 73.6312 45.8381 75.4731 45.9205C81.9717 46.2157 88.4443 46.6063 94.9256 46.7061C97.8013 46.7495 100.69 46.6974 103.535 46.5629C105.364 46.5065 107.193 46.3719 109.022 46.2461C110.846 46.0855 112.671 45.9726 114.508 45.9292C115.655 45.9075 115.521 46.0073 114.595 46.3849C114.13 46.5672 113.475 46.8797 112.658 47.1228C112.25 47.2487 111.811 47.3962 111.333 47.5091C110.855 47.6002 110.347 47.6827 109.817 47.7435C107.936 47.9561 106.051 48.1211 104.165 48.2339C103.223 48.299 102.276 48.312 101.333 48.3381C100.39 48.3641 99.4434 48.3641 98.5007 48.3728C94.7214 48.3815 90.9465 48.2556 87.1585 48.0516C82.632 47.8042 77.9231 47.6697 73.3054 47.5004C70.7685 47.4093 68.2316 47.3311 65.7121 47.3615C64.4523 47.3789 63.1926 47.4179 61.9632 47.5525C61.3507 47.6176 60.7425 47.7087 60.1691 47.8476C60.0214 47.8737 59.8868 47.9214 59.7564 47.9648L59.5566 48.0299C59.5045 48.0473 59.461 48.056 59.435 48.0733L59.2438 48.1688C59.183 48.2122 59.1917 48.299 59.183 48.3641C59.183 48.4075 59.183 48.4509 59.1787 48.4943V48.7374C59.1917 48.924 59.2004 49.1107 59.2134 49.3016C59.2395 49.6836 59.2743 50.0655 59.3134 50.4518C59.3872 51.2244 59.4784 51.997 59.5696 52.7739L60.1604 57.4267C60.4602 59.7791 60.7643 62.1359 61.064 64.4884C61.1509 65.0743 61.1682 65.6733 61.2377 66.2592L61.4419 68.0257C61.5722 69.2019 61.7026 70.3782 61.8329 71.5457C62.2325 75.1872 62.6582 78.7593 62.8016 82.4052C62.832 83.2081 62.8624 83.9937 62.8494 84.8097C62.7234 87.8349 62.2803 88.8071 61.8372 89.3583C61.7286 89.4842 61.6113 89.6491 61.5245 89.7099C61.3724 89.8097 61.355 89.5623 61.3681 89.0328C61.3811 88.4946 61.3985 87.67 61.4245 86.6153C61.4245 85.0354 61.3854 83.4208 61.3073 81.7888C61.2247 80.1569 61.0944 78.5032 60.9467 76.8366C60.799 75.1699 60.6296 73.4945 60.4385 71.8061C60.2343 70.1221 60.0171 68.4337 59.7912 66.7453C59.7521 66.1116 59.5001 65.504 59.448 64.8703L59.2048 62.9823C59.0397 61.7236 58.8746 60.4606 58.7052 59.1975C58.375 56.6715 58.0275 54.1454 57.7278 51.5933L57.7669 51.5803H57.7756Z" fill="#231F20"/>
<path d="M159.026 47.3314C157.067 47.4747 155.108 47.5918 153.149 47.6353C152.432 47.6656 151.72 47.7047 151.003 47.709C148.479 47.6917 145.96 47.5919 143.453 47.3314C142.341 47.2316 141.225 47.1361 140.121 47.0363C139.413 46.9625 138.705 46.9061 137.997 46.8236C137.645 46.7715 137.298 46.6891 136.95 46.6153C136.603 46.5458 136.264 46.3983 135.921 46.2941C135.495 46.1422 135.569 46.0771 135.964 45.9469C136.199 45.8687 136.477 45.7776 136.781 45.6821C137.115 45.5953 137.497 45.5519 137.901 45.5562C140.755 45.8036 143.596 45.9903 146.476 46.2029C146.907 46.2377 147.341 46.2637 147.78 46.2811C148.218 46.2811 148.662 46.2811 149.105 46.2811C149.991 46.2811 150.881 46.2246 151.763 46.2073C152.736 46.1856 153.705 46.1248 154.678 46.0858C155.647 46.012 156.62 45.9729 157.588 45.8731C158.783 45.7733 159.978 45.6517 161.168 45.5128C162.072 45.4 162.975 45.2828 163.874 45.17C164.773 45.0354 165.673 44.9052 166.563 44.7359C167.945 44.4798 169.278 44.1239 170.629 43.7941C170.929 43.7246 171.216 43.6335 171.515 43.5684C172.08 43.4772 172.458 43.4469 172.736 43.4859C173.018 43.538 173.192 43.6335 173.344 43.7767C173.414 43.8418 173.501 43.8982 173.548 43.9633C173.627 44.0719 173.561 44.1934 173.379 44.3496C173.197 44.5059 172.906 44.7099 172.506 44.8531C171.919 45.1005 171.307 45.2741 170.686 45.4304C170.065 45.591 169.435 45.7429 168.8 45.8904C167.528 46.1639 166.224 46.4113 164.917 46.6196C162.971 46.9365 161.003 47.1795 159.035 47.3792L159.026 47.3401V47.3314Z" fill="#231F20"/>
<path d="M174.546 62.9483C174.598 61.5204 174.602 60.0794 174.576 58.6384C174.563 58.1132 174.511 57.5881 174.503 57.0629C174.472 55.2052 174.407 53.3432 174.381 51.4769C174.368 50.6479 174.307 49.8189 174.285 48.9986C174.268 48.4734 174.233 47.9439 174.229 47.4144C174.207 46.8848 174.285 46.3553 174.329 45.8258C174.368 45.496 174.459 45.535 174.615 45.8084C174.694 45.943 174.794 46.1383 174.902 46.3684C174.954 46.4855 175.011 46.6114 175.063 46.746C175.089 46.8154 175.106 46.8848 175.141 46.9543C175.154 47.0281 175.167 47.1019 175.18 47.1757C175.319 48.2434 175.502 49.3024 175.58 50.3745C175.654 51.4465 175.728 52.5229 175.706 53.608C175.693 54.9101 175.858 56.2512 175.919 57.5794C175.988 59.0421 176.023 60.5091 176.027 61.9761C176.023 62.8789 176.014 63.786 175.98 64.6888C175.953 66.0603 175.806 67.4319 175.715 68.7904C175.662 69.3156 175.636 69.8407 175.61 70.3659C175.58 70.8911 175.523 71.4076 175.467 71.9284C175.445 72.1585 175.423 72.3842 175.38 72.6142C175.341 72.8269 175.302 73.0005 175.258 73.1481C175.211 73.2913 175.145 73.4041 175.089 73.4953C174.972 73.6776 174.846 73.7687 174.685 73.8295C174.611 73.8599 174.537 73.8989 174.472 73.912C174.259 73.9554 174.116 73.5691 174.051 72.931C174.086 72.0066 174.059 71.056 174.146 70.1142C174.172 69.6411 174.207 69.1637 174.246 68.6862C174.272 68.2088 174.303 67.7314 174.333 67.2496C174.39 65.8216 174.507 64.3893 174.511 62.9483H174.55H174.546Z" fill="#231F20"/>
<path d="M173.444 122.414C173.357 121.581 173.27 120.743 173.2 119.905C173.174 119.597 173.101 119.298 173.092 118.99C173.053 117.9 173.07 116.811 173.118 115.721C173.135 115.24 173.127 114.754 173.153 114.276C173.179 113.968 173.196 113.66 173.231 113.352C173.296 113.048 173.431 112.748 173.544 112.458C173.622 112.275 173.7 112.314 173.822 112.492C173.935 112.67 174.169 112.987 174.269 113.33C174.412 114.532 174.378 115.7 174.33 116.928C174.291 117.662 174.456 118.408 174.534 119.155C174.617 119.975 174.699 120.8 174.808 121.624C174.873 122.132 174.938 122.64 175.012 123.148C175.134 123.916 175.22 124.697 175.372 125.452C175.481 126.043 175.698 126.607 175.816 127.193C175.842 127.323 175.881 127.445 175.898 127.579C175.911 127.701 175.907 127.805 175.898 127.892C175.885 127.978 175.855 128.057 175.824 128.117C175.763 128.243 175.681 128.321 175.568 128.391C175.516 128.421 175.468 128.46 175.42 128.482C175.268 128.551 175.06 128.382 174.821 128.061C174.286 127.08 174.061 125.999 173.813 124.901C173.626 124.09 173.535 123.248 173.405 122.414L173.439 122.405L173.444 122.414Z" fill="#231F20"/>
<path d="M106.944 133.916C109.763 133.564 112.578 133.178 115.402 132.783L119.646 132.206C121.058 132.019 122.522 131.854 123.968 131.785C126.08 131.672 128.178 131.616 130.267 131.655C137.635 131.82 144.933 132.445 152.239 132.657C155.48 132.757 158.738 132.731 161.939 132.553C166.049 132.301 170.132 131.715 174.016 130.535C175.245 130.188 175.128 130.266 174.233 130.973C174.016 131.169 173.725 131.347 173.399 131.572C173.082 131.833 172.674 132.011 172.235 132.219C171.796 132.436 171.305 132.631 170.775 132.809C170.51 132.905 170.237 132.996 169.954 133.074C169.667 133.143 169.376 133.209 169.077 133.274C166.948 133.695 164.807 133.933 162.665 134.085C160.528 134.237 158.39 134.302 156.253 134.294C151.983 134.294 147.73 134.077 143.469 133.812C138.373 133.495 133.069 133.321 127.891 133.365C126.471 133.386 125.046 133.417 123.638 133.521C122.231 133.612 120.832 133.781 119.412 133.981L110.889 135.188C107.383 135.674 103.873 136.121 100.354 136.511C95.0242 137.097 89.642 137.501 84.3075 137.623C82.2354 137.67 80.1764 137.675 78.1217 137.605C76.0669 137.545 74.0122 137.393 71.9532 137.071C71.7273 137.037 71.5014 137.006 71.2755 136.972L70.6022 136.841C70.1547 136.75 69.703 136.676 69.2555 136.542C68.8385 136.42 68.4606 136.312 68.113 136.212C67.7655 136.108 67.4571 135.973 67.1747 135.869C66.8924 135.756 66.6404 135.661 66.4145 135.552C66.193 135.435 65.9932 135.331 65.8194 135.222C65.4762 135.001 65.2026 134.84 65.0114 134.632C64.8203 134.432 64.6813 134.25 64.5727 134.077C64.4728 133.916 64.3251 133.742 64.2816 133.63C64.1426 133.265 65.4415 133.716 67.696 134.38C71.0843 135.309 74.7594 135.656 78.4909 135.782C80.3588 135.834 82.2441 135.843 84.1468 135.787C86.0451 135.748 87.9522 135.665 89.8635 135.552C95.5412 135.209 101.249 134.606 106.931 133.855L106.944 133.899V133.916Z" fill="#231F20"/>
<path d="M64.2516 129.221C64.2298 129.52 64.2038 129.82 64.1821 130.119C64.1734 130.232 64.2081 130.345 64.1994 130.458C64.156 130.866 64.0865 131.291 63.9692 131.699C63.9431 131.79 63.9344 131.881 63.917 131.973L63.8562 132.246C63.8258 132.359 63.8041 132.476 63.7606 132.589C63.6955 132.693 63.5825 132.784 63.4782 132.871C63.4044 132.923 63.3262 132.884 63.2002 132.789C63.0829 132.693 62.8613 132.528 62.7658 132.394C62.7267 132.285 62.7136 132.19 62.6919 132.09C62.6745 131.994 62.6354 131.895 62.6528 131.803C62.6702 131.621 62.7049 131.43 62.7788 131.23C62.8787 130.983 62.7962 130.727 62.7918 130.462C62.7918 130.163 62.7918 129.859 62.7962 129.559C62.8005 129.368 62.8092 129.177 62.8135 128.986C62.8135 128.695 62.8483 128.405 62.8222 128.118C62.8048 127.897 62.6919 127.671 62.6832 127.445C62.6832 127.397 62.6658 127.345 62.6702 127.298C62.6702 127.206 62.7353 127.146 62.8049 127.111C62.844 127.094 62.8874 127.076 62.9395 127.068C63.0047 127.059 63.0829 127.055 63.1524 127.05L63.3218 127.037C63.4391 127.028 63.7867 127.124 63.8779 127.254C63.9735 127.35 64.017 127.441 64.0778 127.536C64.1386 127.628 64.1907 127.723 64.2038 127.814C64.2429 127.996 64.2646 128.183 64.2733 128.37C64.2907 128.648 64.2733 128.93 64.2907 129.221H64.2559H64.2516Z" fill="#231F20"/>
<path d="M129.777 107.775C129.777 107.775 129.773 107.775 129.769 107.775C129.756 107.796 129.743 107.801 129.73 107.792C129.395 107.74 129.061 107.753 128.722 107.727C128.383 107.71 128.04 107.692 127.679 107.688C127.323 107.679 126.958 107.688 126.602 107.714C126.25 107.753 125.889 107.714 125.563 107.935C125.55 107.94 125.541 107.966 125.528 107.966C125.528 107.966 125.524 107.966 125.52 107.974C125.498 108.039 125.502 108.274 125.528 108.5C125.555 108.725 125.602 108.955 125.637 109.012C125.637 109.016 125.641 109.02 125.646 109.02C125.659 109.02 125.672 109.038 125.685 109.042C125.715 109.06 125.746 109.09 125.772 109.099H125.854C126.176 109.133 126.484 109.081 126.793 109.077C127.101 109.068 127.401 109.073 127.714 109.086C128.022 109.099 128.344 109.125 128.67 109.151C128.995 109.164 129.321 109.224 129.651 109.198C129.664 109.19 129.677 109.198 129.686 109.22C129.686 109.224 129.69 109.224 129.695 109.224C129.725 109.159 129.769 108.782 129.782 108.5C129.795 108.217 129.795 107.84 129.769 107.77L129.777 107.775Z" fill="#242021"/>
<path d="M122.909 108.074C122.909 108.074 122.905 108.074 122.9 108.078C122.887 108.1 122.874 108.108 122.857 108.104C122.457 108.113 122.066 108.195 121.671 108.239L120.485 108.395L119.299 108.551C118.908 108.621 118.504 108.599 118.126 108.825C118.113 108.829 118.1 108.855 118.087 108.855C118.087 108.855 118.082 108.855 118.078 108.864C118.052 108.929 118.056 109.163 118.082 109.389C118.108 109.615 118.165 109.845 118.2 109.901C118.2 109.906 118.208 109.91 118.208 109.91C118.221 109.91 118.243 109.927 118.256 109.932C118.291 109.949 118.326 109.979 118.36 109.988H118.456C118.843 110.01 119.221 109.936 119.599 109.901L120.737 109.775L121.875 109.649C122.253 109.597 122.635 109.589 123.013 109.502C123.026 109.493 123.044 109.502 123.057 109.519C123.057 109.519 123.066 109.524 123.066 109.519C123.087 109.445 123.07 109.068 123.039 108.79C123.009 108.512 122.935 108.139 122.896 108.074H122.909Z" fill="#242021"/>
<path d="M115.976 109.055C115.976 109.055 115.972 109.055 115.967 109.059C115.959 109.081 115.946 109.094 115.928 109.085C115.568 109.116 115.224 109.216 114.872 109.268C114.521 109.333 114.173 109.394 113.825 109.446C113.478 109.502 113.126 109.55 112.77 109.593C112.418 109.654 112.053 109.624 111.714 109.836C111.701 109.841 111.692 109.867 111.679 109.867C111.679 109.867 111.675 109.867 111.671 109.875C111.649 109.941 111.649 110.175 111.671 110.401C111.692 110.626 111.74 110.856 111.775 110.913C111.775 110.917 111.779 110.922 111.784 110.922C111.797 110.922 111.814 110.939 111.827 110.943C111.857 110.961 111.892 110.991 111.923 111H112.014C112.366 111.034 112.713 110.969 113.065 110.939C113.417 110.904 113.769 110.861 114.117 110.813C114.468 110.765 114.816 110.713 115.164 110.657C115.511 110.592 115.859 110.566 116.198 110.461C116.211 110.453 116.224 110.457 116.241 110.474C116.241 110.474 116.245 110.479 116.25 110.474C116.267 110.401 116.219 110.027 116.167 109.75C116.115 109.472 116.019 109.107 115.98 109.042L115.976 109.055Z" fill="#242021"/>
<path d="M109.226 109.828C109.226 109.828 109.221 109.828 109.217 109.828C109.208 109.85 109.195 109.858 109.182 109.85C108.852 109.837 108.535 109.897 108.209 109.919L107.236 110.01L106.263 110.101C105.941 110.149 105.611 110.101 105.298 110.31C105.285 110.314 105.276 110.34 105.263 110.336C105.263 110.336 105.259 110.336 105.255 110.345C105.233 110.41 105.229 110.644 105.242 110.87C105.255 111.095 105.294 111.326 105.324 111.386C105.324 111.391 105.329 111.395 105.333 111.395C105.346 111.395 105.359 111.412 105.372 111.417C105.398 111.438 105.429 111.469 105.455 111.477H105.537C105.854 111.525 106.167 111.469 106.484 111.456L107.427 111.395L108.37 111.334C108.683 111.304 109 111.313 109.312 111.247C109.326 111.239 109.339 111.247 109.352 111.265C109.352 111.265 109.356 111.269 109.36 111.265C109.382 111.195 109.365 110.818 109.339 110.536C109.312 110.253 109.256 109.88 109.226 109.815V109.828Z" fill="#242021"/>
<path d="M103.518 109.967C103.518 109.967 103.518 109.967 103.514 109.967C103.505 109.988 103.496 109.997 103.483 109.988C103.227 109.958 102.975 110.001 102.719 110.006L101.954 110.041L101.19 110.075C100.933 110.106 100.677 110.041 100.425 110.227C100.416 110.227 100.408 110.258 100.399 110.253C100.399 110.253 100.399 110.253 100.395 110.262C100.373 110.323 100.36 110.557 100.364 110.783C100.368 111.009 100.386 111.243 100.408 111.304C100.408 111.308 100.412 111.312 100.412 111.312C100.421 111.312 100.434 111.334 100.442 111.338C100.464 111.36 100.486 111.391 100.507 111.404L100.573 111.412C100.82 111.473 101.072 111.434 101.32 111.443L102.067 111.434L102.814 111.425C103.062 111.412 103.314 111.443 103.562 111.395C103.57 111.386 103.579 111.395 103.592 111.417C103.592 111.421 103.592 111.421 103.596 111.417C103.614 111.347 103.609 110.969 103.596 110.687C103.583 110.405 103.544 110.028 103.523 109.962L103.518 109.967Z" fill="#242021"/>
<path d="M116.017 98.2C116.017 98.2 116.012 98.2 116.008 98.2044C115.999 98.2261 115.986 98.2391 115.973 98.2304C115.613 98.2608 115.269 98.3606 114.917 98.4127C114.565 98.4778 114.218 98.5386 113.87 98.5907C113.523 98.6471 113.171 98.6949 112.815 98.7383C112.463 98.7991 112.098 98.7687 111.759 98.9814C111.746 98.9857 111.737 99.0118 111.724 99.0118C111.724 99.0118 111.72 99.0118 111.716 99.0204C111.694 99.0855 111.694 99.32 111.716 99.5457C111.737 99.7714 111.785 100.001 111.82 100.058C111.82 100.062 111.824 100.067 111.828 100.067C111.841 100.067 111.859 100.084 111.872 100.088C111.902 100.106 111.937 100.136 111.967 100.145H112.059C112.411 100.179 112.758 100.114 113.11 100.084C113.462 100.049 113.814 100.006 114.161 99.958C114.513 99.9103 114.861 99.8582 115.208 99.8018C115.556 99.7367 115.904 99.7106 116.242 99.6064C116.256 99.5978 116.269 99.6021 116.286 99.6195C116.286 99.6195 116.295 99.6238 116.295 99.6195C116.312 99.5457 116.264 99.1724 116.212 98.8946C116.16 98.6168 116.064 98.2521 116.025 98.187L116.017 98.2Z" fill="#242021"/>
<path d="M109.261 98.9686C109.261 98.9686 109.256 98.9686 109.252 98.9686C109.243 98.9903 109.23 98.999 109.217 98.9903C108.891 98.9773 108.57 99.0381 108.244 99.0598L107.271 99.1509L106.298 99.2421C105.976 99.2898 105.646 99.2421 105.333 99.4504C105.32 99.4548 105.312 99.4808 105.299 99.4765C105.299 99.4765 105.294 99.4765 105.29 99.4851C105.268 99.5503 105.264 99.7847 105.277 100.01C105.29 100.236 105.329 100.466 105.359 100.527C105.359 100.531 105.364 100.536 105.368 100.536C105.381 100.536 105.394 100.553 105.407 100.557C105.433 100.575 105.464 100.609 105.49 100.618H105.572C105.889 100.666 106.202 100.609 106.519 100.596L107.462 100.536L108.405 100.475C108.718 100.444 109.035 100.453 109.348 100.388C109.361 100.379 109.374 100.388 109.387 100.405C109.387 100.405 109.391 100.41 109.395 100.405C109.417 100.336 109.4 99.9583 109.374 99.6761C109.348 99.394 109.291 99.0207 109.261 98.9556V98.9686Z" fill="#242021"/>
<path d="M103.553 99.1113C103.553 99.1113 103.553 99.1113 103.549 99.1113C103.54 99.133 103.532 99.1417 103.519 99.133C103.262 99.1026 103.01 99.146 102.754 99.1503L101.989 99.1851L101.225 99.2198C100.968 99.2502 100.712 99.1851 100.46 99.3717C100.451 99.3717 100.443 99.4021 100.434 99.3978C100.434 99.3978 100.434 99.3978 100.43 99.4064C100.408 99.4672 100.395 99.7016 100.399 99.9273C100.404 100.153 100.421 100.387 100.443 100.448C100.443 100.453 100.447 100.457 100.447 100.457C100.456 100.457 100.469 100.479 100.477 100.483C100.499 100.505 100.521 100.535 100.543 100.548L100.608 100.557C100.855 100.618 101.107 100.578 101.355 100.587L102.102 100.578L102.85 100.57C103.097 100.557 103.349 100.587 103.597 100.539C103.606 100.531 103.614 100.539 103.627 100.561C103.627 100.565 103.627 100.565 103.632 100.561C103.649 100.492 103.645 100.114 103.632 99.8319C103.619 99.5497 103.579 99.172 103.558 99.1069L103.553 99.1113Z" fill="#242021"/>
<path d="M149.022 92.8179C148.992 93.1348 149.044 93.5211 149.148 93.9117C149.261 94.3067 149.418 94.706 149.604 95.1053C149.978 95.9039 150.478 96.6765 151.008 97.4317C152.081 98.9378 153.353 100.331 154.717 101.629C155.717 102.575 156.794 103.439 157.875 104.289C159.791 105.791 161.833 107.124 163.961 108.326C166.081 109.532 168.314 110.531 170.643 111.243C172.706 111.872 174.865 112.223 177.002 112.28C177.345 112.297 177.689 112.28 178.032 112.28C178.375 112.267 178.718 112.284 179.061 112.245C179.748 112.184 180.434 112.158 181.112 112.041C182.484 111.902 183.814 111.564 185.208 111.425C186.094 111.377 185.994 111.425 185.347 111.863C185.186 111.98 184.987 112.106 184.761 112.263C184.704 112.302 184.643 112.336 184.583 112.388C184.517 112.423 184.457 112.458 184.387 112.493C184.252 112.566 184.113 112.636 183.961 112.692C183.657 112.818 183.323 112.944 182.962 113.065C182.78 113.122 182.593 113.183 182.406 113.243C182.211 113.283 182.011 113.317 181.802 113.348C178.892 113.812 175.886 113.803 172.975 113.235C172.246 113.118 171.533 112.918 170.812 112.744C170.108 112.527 169.391 112.336 168.705 112.067C167.311 111.577 165.973 110.96 164.67 110.283C161.568 108.656 158.44 106.763 155.677 104.476C154.161 103.222 152.723 101.863 151.412 100.379C150.108 98.89 148.892 97.2971 148.075 95.4091C147.802 94.7407 147.567 94.0376 147.524 93.2563C147.506 92.8657 147.541 92.4533 147.667 92.0497C147.815 91.6417 148.049 91.2728 148.393 90.9733C148.679 90.7172 149.105 90.6131 149.452 90.6261C149.791 90.6391 150.082 90.7129 150.352 90.8084C150.89 91.0037 151.359 91.2641 151.816 91.5375C153.406 92.5011 154.843 93.6035 156.303 94.6713C157.758 95.739 159.209 96.8023 160.738 97.6834C161.559 98.1522 162.402 98.5689 163.262 98.8119C163.688 98.9248 164.122 99.0029 164.517 98.9768C164.908 98.9638 165.278 98.8162 165.512 98.6166C165.586 98.5515 165.63 98.469 165.643 98.3649C165.66 98.252 165.651 98.0957 165.621 97.9352C165.556 97.6053 165.412 97.2537 165.234 96.9152C164.978 96.4291 164.643 95.982 164.309 95.5219C163.666 94.6756 163.149 94.2112 162.819 93.8553C162.498 93.4777 162.311 93.239 162.159 93.0089C162.089 92.9004 161.976 92.7962 161.933 92.7225C161.855 92.6053 162.054 92.5619 162.515 92.64C162.967 92.7225 163.666 92.9785 164.344 93.5688C164.739 93.8943 165.104 94.2502 165.447 94.6365C165.617 94.8318 165.786 95.0272 165.942 95.2398C166.094 95.4525 166.233 95.6782 166.368 95.9082C166.629 96.377 166.868 96.8761 167.011 97.4794C167.076 97.7833 167.124 98.1218 167.072 98.5211C167.02 98.9204 166.802 99.4152 166.429 99.6973C166.264 99.8145 166.19 99.8796 166.055 99.9534C165.934 100.027 165.808 100.088 165.677 100.14C165.417 100.244 165.147 100.314 164.891 100.344C164.365 100.409 163.875 100.366 163.418 100.27C162.511 100.079 161.72 99.7321 160.964 99.3501C159.465 98.5775 158.119 97.6444 156.798 96.6982C155.421 95.7129 154.088 94.6843 152.737 93.7424C152.398 93.5081 152.059 93.278 151.72 93.061C151.377 92.8483 151.021 92.666 150.677 92.5011C150.334 92.3405 149.987 92.206 149.704 92.1452C149.565 92.1105 149.435 92.0974 149.392 92.1061C149.374 92.1061 149.374 92.1061 149.361 92.1061C149.205 92.258 149.083 92.4881 149.057 92.8223H149.018L149.022 92.8179Z" fill="#231F20"/>
<path opacity="0.2" d="M88.5088 78.2305C88.5088 78.2305 85.1422 112.102 70.3899 122.38C67.6705 124.272 63.9043 124.55 60.416 124.55C60.416 124.55 74.1648 132.988 76.0371 129.485C77.9094 125.978 83.1178 100.041 83.6 99.4155C84.0822 98.7905 88.5044 78.2305 88.5044 78.2305H88.5088Z" fill="#231F20"/>
<path d="M84.0435 97.3795L82.0844 104.854L81.3806 107.584C80.5162 110.782 79.6256 113.972 78.7134 117.154C78.3181 118.569 77.9184 119.993 77.5231 121.394C77.0062 123.196 76.5414 125.019 75.8637 126.772C75.577 127.293 75.6118 127.223 75.6074 126.707C75.6074 126.19 75.6943 125.27 75.9984 124.233C77.0279 120.552 78.0879 116.889 79.1608 113.187C79.8124 110.978 80.3728 108.643 80.9766 106.364L82.9401 98.8378C83.3398 97.2927 83.7394 95.7475 84.1391 94.2024C84.7429 91.863 85.351 89.5105 85.9505 87.1884C86.1764 86.2813 86.398 85.3872 86.6152 84.4931C86.8454 83.6033 87.0713 82.7136 87.3015 81.8195C87.4058 81.4289 87.5057 81.0426 87.6099 80.6476C87.8141 79.9141 87.9531 79.4367 88.0747 79.1068C88.2007 78.7769 88.3006 78.5946 88.3962 78.4514C88.4396 78.3863 88.4831 78.2952 88.5135 78.2604C88.5613 78.1997 88.5569 78.3212 88.5309 78.599C88.5048 78.8768 88.444 79.3064 88.318 79.849C87.9531 81.4592 87.5839 83.1086 87.2059 84.7839C86.7933 86.4506 86.3762 88.139 85.9592 89.8317C85.325 92.3447 84.6908 94.8665 84.0565 97.3882H84.0392L84.0435 97.3795Z" fill="#231F20"/>
<path d="M88.5083 78.2305L89.8593 77.9614C90.4718 77.9614 80.3763 120.505 77.9393 127.94C77.7308 128.569 76.041 129.485 76.041 129.485L88.5083 78.2305Z" fill="#231F20"/>
<path d="M74.0996 125.713L76.4847 127.037L76.8931 125.579L74.508 124.55L74.0996 125.713Z" fill="#231F20"/>
<path d="M76.8926 116.138L79.2734 117.458L79.6861 116.004L77.301 114.971L76.8926 116.138Z" fill="#231F20"/>
<path d="M80.0332 104.771L82.4183 106.095L82.8267 104.636L80.4416 103.607L80.0332 104.771Z" fill="#231F20"/>
<path d="M82.6875 93.1912L85.0683 94.5108L85.4767 93.0566L83.0959 92.0278L82.6875 93.1912Z" fill="#231F20"/>
<path d="M74.7988 120.791L77.8791 122.38L78.2875 120.926L75.2072 119.628L74.7988 120.791Z" fill="#231F20"/>
<path d="M77.9395 110.484L81.0197 112.072L81.4324 110.618L78.3478 109.316L77.9395 110.484Z" fill="#231F20"/>
<path d="M80.5898 98.6555L83.6744 100.244L84.0828 98.7901L81.0026 97.4922L80.5898 98.6555Z" fill="#231F20"/>
<path d="M73.2443 86.7417C70.9377 88.3042 68.6353 89.8667 66.3504 91.4553C65.5163 92.0326 64.7127 92.6576 63.8786 93.2348C60.9421 95.2791 58.0099 97.3277 55.1341 99.4502C53.857 100.392 52.6059 101.382 51.3896 102.376C50.612 103.022 49.8388 103.673 49.0395 104.298C48.6442 104.615 48.2489 104.928 47.8449 105.236L47.2324 105.687C47.0239 105.835 46.7849 105.939 46.5721 106.078C46.0291 106.408 45.9596 106.199 46.1855 105.639C46.3071 105.366 46.4418 104.936 46.7198 104.554C46.9891 104.155 47.3366 103.73 47.771 103.339C49.3088 101.937 50.9508 100.665 52.5972 99.3981C54.2436 98.1307 55.9378 96.9154 57.6754 95.7479C59.7475 94.3459 61.8022 92.7487 63.8873 91.273C66.181 89.6497 68.492 88.0568 70.803 86.4596C72.2235 85.4787 73.6483 84.4978 75.0688 83.5212C77.2148 82.0281 79.3868 80.5481 81.4806 79.016C83.1053 77.8224 84.6344 76.5637 86.2025 75.331C86.5457 75.0576 86.8802 74.7885 87.2277 74.5151C87.875 74.0159 88.3268 73.7165 88.6917 73.5689C88.8698 73.4908 89.0262 73.4474 89.1652 73.43C89.3129 73.4213 89.4519 73.4387 89.5822 73.4647C89.6995 73.4908 89.8341 73.4908 89.9167 73.5255C90.173 73.6036 89.8819 74.3284 88.9827 75.1401C86.3111 77.5359 83.266 79.7668 80.1904 81.9587C77.9055 83.5863 75.5771 85.1792 73.2704 86.7851L73.2443 86.7547V86.7417Z" fill="#231F20"/>
<path d="M57.7803 123.591L62.0982 125.344C62.6239 125.557 63.1669 125.731 63.6838 125.956C65.5257 126.742 67.3415 127.593 69.1442 128.469C69.9479 128.847 70.7515 129.242 71.5552 129.607C72.0677 129.854 72.589 130.088 73.0886 130.357C73.5838 130.64 74.053 130.978 74.5047 131.334C74.7828 131.56 74.596 131.772 74.1876 131.89C73.7793 132.002 73.132 132.05 72.5456 131.811C70.4909 130.883 68.4448 129.928 66.4075 128.838C65.1868 128.192 63.8228 127.736 62.5109 127.206C61.0687 126.625 59.6265 126.048 58.1756 125.479L55.491 124.446C54.1313 123.938 52.7673 123.404 51.4033 122.94C50.339 122.58 49.2704 122.298 48.2061 121.963C47.9715 121.89 47.7369 121.833 47.5023 121.746C46.6553 121.382 46.4294 121.169 46.3903 120.731C46.3816 120.635 46.3555 120.535 46.3599 120.453C46.3729 120.188 46.829 120.045 47.4936 120.171C49.4571 120.544 51.425 121.208 53.3972 121.916C54.8611 122.436 56.325 123.001 57.789 123.548L57.7759 123.587L57.7803 123.591Z" fill="#231F20"/>
<path d="M85.1417 97.0974L82.961 105.492C82.696 106.512 82.4702 107.545 82.1878 108.56C81.193 112.145 80.1635 115.717 79.1296 119.285C78.6691 120.869 78.2434 122.471 77.8177 124.051C77.5484 125.066 77.2747 126.086 77.001 127.102C76.862 127.61 76.7056 128.113 76.5319 128.612L76.2712 129.359C76.1757 129.606 76.0497 129.841 75.9237 130.079C75.5588 130.657 75.5762 130.57 75.4806 129.967C75.346 129.35 75.2721 128.27 75.5719 127.098C76.6839 122.961 77.8134 118.834 79.0558 114.693C79.8073 112.219 80.385 109.589 81.0366 107.028C81.7577 104.211 82.4788 101.394 83.1999 98.5775C83.63 96.8413 84.0601 95.1009 84.4901 93.3647C85.1287 90.7302 85.776 88.0826 86.3711 85.461C86.6013 84.4411 86.8055 83.4254 87.0053 82.4098C87.2008 81.3942 87.4006 80.3829 87.6352 79.3759C87.7351 78.9332 87.822 78.4948 87.9349 78.0478C88.1348 77.2188 88.3042 76.6849 88.4736 76.316C88.6387 75.9514 88.7864 75.7518 88.9645 75.6042C89.047 75.5391 89.1295 75.4436 89.199 75.4089C89.4249 75.2917 89.4597 76.0122 89.338 77.2622C88.895 80.9515 88.1043 84.7709 87.2269 88.5904C86.5709 91.4246 85.8715 94.2632 85.1765 97.0931H85.1374L85.1417 97.0974Z" fill="#231F20"/>
<path d="M71.971 106.825C73.1309 104.086 74.2343 101.339 75.1204 98.526C75.2768 98.0572 75.4028 97.5841 75.5331 97.1111L75.746 96.3298L75.7677 96.2604C75.7807 96.1996 75.8198 96.1345 75.8198 96.0694C75.7807 96.013 75.7112 96.052 75.6591 96.0607C75.5375 96.0998 75.4376 96.1432 75.2812 96.2213C74.4602 96.664 73.6391 97.1588 72.8268 97.6579C71.2021 98.6605 69.5905 99.7022 67.9876 100.757C66.5627 101.69 65.1553 102.667 63.7608 103.63C62.866 104.247 61.9754 104.876 61.0675 105.484C60.6158 105.792 60.151 106.078 59.6775 106.347L58.965 106.751C58.7218 106.877 58.4611 106.972 58.2005 107.068C57.5228 107.263 57.5967 107.207 57.9485 106.686C58.2787 106.13 58.965 105.262 59.9859 104.55C63.6392 102.072 67.2621 99.5156 71.0892 97.1631C72.1014 96.5425 73.1179 95.8914 74.1734 95.2577L74.5731 95.0234L74.8815 94.8498C74.9945 94.789 75.1031 94.7239 75.216 94.6675C75.6591 94.4331 76.1239 94.2291 76.4932 94.1857C76.6799 94.1596 76.845 94.164 76.9971 94.1987C77.0753 94.2161 77.1491 94.2378 77.2316 94.2855C77.3142 94.3289 77.3924 94.4157 77.4184 94.4765C77.4532 94.5242 77.4445 94.6327 77.4532 94.7152L77.4706 94.9756L77.5053 95.4965C77.4401 95.7569 77.375 96.0173 77.3142 96.2777L77.2186 96.6683C77.1882 96.7899 77.1448 96.9505 77.1274 97.0069C76.719 98.4696 76.2542 99.9192 75.7547 101.347C75.2464 102.775 74.7034 104.19 74.1387 105.588C73.4437 107.311 72.7139 109.017 72.0101 110.722C71.5801 111.768 71.15 112.814 70.7373 113.865C70.5332 114.39 70.329 114.915 70.1335 115.445L69.8425 116.234L69.4949 117.237L69.243 117.662L69.1778 117.767C69.1257 117.749 69.0996 117.788 69.0649 117.793C68.9954 117.814 68.9128 117.801 68.8303 117.797C68.4958 117.767 68.1135 117.602 67.7617 117.48C66.7278 117.107 65.7287 116.755 64.7165 116.421C63.7044 116.091 62.7009 115.761 61.6887 115.431C61.2413 115.293 60.8069 115.158 60.3595 115.015C58.7001 114.503 58.2048 114.234 57.8964 113.886C57.8269 113.804 57.727 113.721 57.6922 113.652C57.5619 113.431 58.3178 113.366 59.6253 113.561C60.4768 113.717 61.3282 113.908 62.184 114.121C62.6097 114.229 63.0354 114.342 63.4654 114.451C63.8912 114.572 64.3125 114.707 64.7382 114.846C65.5853 115.119 66.4324 115.41 67.2751 115.705L67.905 115.926L68.2178 116.035C68.2917 116.061 68.2699 116.052 68.2743 116.052C68.2786 116.052 68.2743 116.043 68.2743 116.043L68.3264 115.887L68.5566 115.241C69.5862 112.376 70.8025 109.594 71.9363 106.82L71.9754 106.833L71.971 106.825Z" fill="#231F20"/>
<path d="M200.046 126.85C199.455 127.618 198.847 128.374 198.195 129.094C197.952 129.355 197.748 129.641 197.492 129.893C196.61 130.778 195.637 131.59 194.573 132.254C194.334 132.397 194.103 132.558 193.864 132.697C193.621 132.831 193.378 132.966 193.135 133.1C192.818 133.265 192.479 133.387 192.149 133.521C191.814 133.647 191.449 133.695 191.102 133.751C190.88 133.777 190.88 133.612 191.01 133.395C191.145 133.178 191.393 132.896 191.732 132.749L192.6 132.271C192.878 132.089 193.169 131.937 193.452 131.763C193.725 131.573 194.003 131.39 194.286 131.204C194.551 131 194.829 130.8 195.116 130.613C195.441 130.366 195.758 130.088 196.058 129.789C196.345 129.476 196.64 129.172 196.918 128.851C197.227 128.5 197.544 128.161 197.835 127.788C198.135 127.428 198.426 127.059 198.704 126.681C199.056 126.221 199.386 125.743 199.72 125.266C200.207 124.533 200.693 123.79 201.11 123.018C201.427 122.414 201.679 121.794 201.962 121.182C202.023 121.047 202.07 120.908 202.153 120.783C202.444 120.309 202.6 120.188 202.852 120.179C202.909 120.179 202.97 120.166 203.022 120.175C203.191 120.197 203.226 120.47 203.139 120.887C202.887 122.124 202.279 123.274 201.636 124.407C201.158 125.249 200.619 126.065 200.068 126.868L200.042 126.85H200.046Z" fill="#231F20"/>
</g>
<defs>
<clipPath id="clip0_248_16517">
<rect width="225.185" height="162.556" fill="white" transform="translate(0.408203 0.147949)"/>
</clipPath>
</defs>
</svg>
