<svg width="212" height="161" viewBox="0 0 212 161" fill="none" xmlns="http://www.w3.org/2000/svg">
<path d="M65.6786 28.0326C65.3309 28.4295 65.0301 28.8652 64.7822 29.3311C64.5197 29.8158 64.2842 30.3148 64.0769 30.8256L64.1406 30.512V30.6688L64.0769 30.8305L64.0083 30.9971C63.9251 31.1931 63.5185 32.0898 63.5185 32.1976C63.5185 32.1976 63.3471 32.5847 63.1707 32.9865L62.7446 33.9665C62.7103 34.0351 62.294 34.9906 61.765 35.9657C61.3663 36.6995 60.9281 37.4111 60.4522 38.0972C60.2013 38.4499 59.9176 38.7781 59.6049 39.0772C59.3991 39.2683 59.1885 39.4594 59.0073 39.6064L58.5909 39.925C58.493 40.0132 58.1354 39.533 58.204 39.4644L58.6399 39.0233C58.7771 38.8665 58.924 38.7244 59.071 38.5774C59.4393 38.169 59.7674 37.726 60.0506 37.2544C60.275 36.8986 60.4762 36.5287 60.6531 36.147C60.8245 35.7452 60.9763 35.3336 61.1429 34.9171L61.3437 34.3291C61.5298 33.7852 61.7062 33.2364 61.8727 32.6778C62.0393 32.1192 62.1617 31.6194 62.3625 31.0951C62.4605 30.806 62.5781 30.5169 62.6858 30.2278L62.627 30.5169V30.3748L62.6858 30.2229C62.8768 29.7329 63.0875 29.2723 63.3226 28.8019C63.534 28.3562 63.7814 27.9285 64.0622 27.523C64.2455 27.2871 64.4452 27.0644 64.6598 26.8566C64.8165 26.6998 65.1153 26.8027 65.4239 26.9889C65.5487 27.1286 65.6372 27.2969 65.6816 27.4789C65.7261 27.6609 65.725 27.8511 65.6786 28.0326Z" fill="#221F1F"/>
<path d="M82.6306 36.6317C80.833 32.3736 77.4043 28.1155 75.5822 23.97C71.6636 23.3379 64.2674 27.6206 62.4943 29.4826C56.5332 35.7154 55.0687 40.1205 54.1429 41.9629C53.3445 41.8061 45.2038 41.6003 46.1001 49.1268C46.5214 52.6548 50.4105 53.5809 53.9813 53.8504C55.4507 57.2412 57.9929 61.5287 61.9261 63.9052C62.0159 63.9422 62.0928 64.0049 62.1468 64.0857C62.2009 64.1664 62.2298 64.2613 62.2298 64.3585C62.2298 64.4556 62.2009 64.5506 62.1468 64.6313C62.0928 64.712 62.0159 64.7748 61.9261 64.8117C55.9307 67.0657 51.1158 67.8841 44.8707 65.4438C38.1259 62.8223 34.7315 54.4237 33.0269 51.9737C32.8751 51.7581 23.8575 52.3853 20.7325 50.6262C19.2231 49.7886 17.9223 48.6207 16.9274 47.2097C15.9325 45.7986 15.2692 44.1809 14.9869 42.4774C14.3502 38.1997 17.005 33.9122 20.8647 31.9914C25.9148 29.5022 31.435 33.6378 33.3698 34.8922C33.4726 34.9363 36.1323 28.8554 36.3479 28.3752C40.5456 18.9818 47.403 13.4742 57.4933 11.8327C77.9578 8.52517 85.9516 29.12 82.6306 36.6317Z" fill="#221F1F"/>
<path d="M18.4402 34.8928C16.481 36.941 15.3789 39.8614 15.8932 42.6299C16.1599 44.0479 16.7126 45.3966 17.5177 46.5938C18.3228 47.791 19.3634 48.8114 20.5758 49.5928C20.8614 49.7764 21.1593 49.9401 21.4673 50.0828C21.785 50.2197 22.1125 50.3327 22.4469 50.421C23.1588 50.6055 23.882 50.743 24.6119 50.8326C26.1195 51.0077 27.635 51.1058 29.1525 51.1266C29.9166 51.1266 30.6808 51.1266 31.4547 51.1266H32.4833C32.5681 51.1217 32.6532 51.1217 32.738 51.1266H32.9976L33.2278 51.2001L33.3258 51.2589L33.3748 51.2883C33.3748 51.2883 33.3748 51.3373 33.4139 51.254L33.5511 51.4353L33.8303 51.7979L33.9674 51.9792C34.0015 52.0217 34.031 52.0677 34.0556 52.1164C34.8589 53.4884 35.5593 54.8359 36.3577 56.1393C37.4682 58.0391 38.8018 59.7993 40.3302 61.3823C41.0872 62.1491 41.9173 62.84 42.8086 63.4452C43.0291 63.5922 43.2642 63.7196 43.4895 63.8568C43.7138 64.0004 43.9478 64.1281 44.1899 64.239C44.6678 64.4751 45.1583 64.6845 45.6594 64.8662C48.4416 65.9436 51.4425 66.3336 54.4075 66.003C55.9016 65.8166 57.3767 65.5002 58.8158 65.0573C59.1783 64.9446 59.5408 64.8368 59.8983 64.7143L60.7261 64.435L60.9563 64.3566C60.9904 64.3515 61.0223 64.3369 61.0484 64.3143C61.0744 64.2917 61.0934 64.2622 61.1033 64.2292C61.1105 64.1984 61.1093 64.1663 61.0998 64.1361C61.0904 64.1059 61.0729 64.0788 61.0494 64.0577C60.9991 64.019 60.9468 63.983 60.8927 63.9499L60.829 63.9058H60.7996L60.7408 63.8617L60.3588 63.5775C60.0992 63.3962 59.869 63.1855 59.6192 62.9846C59.1396 62.5726 58.6818 62.1359 58.2477 61.6763C57.3899 60.7656 56.6131 59.7818 55.9259 58.7363C55.2443 57.6967 54.6291 56.6148 54.0842 55.4974L53.6924 54.6742L53.5993 54.4586C53.5855 54.4222 53.5674 54.3877 53.5454 54.3557H53.4328H53.1977L52.7323 54.3018C52.4237 54.2675 52.1152 54.2136 51.8066 54.1646C50.5334 53.9763 49.3012 53.5737 48.1623 52.9739C47.569 52.649 47.0395 52.219 46.5998 51.7048C46.1598 51.1688 45.8377 50.546 45.6545 49.877C45.5153 49.2332 45.4495 48.5757 45.4585 47.917C45.4647 47.2549 45.5552 46.5963 45.7279 45.957C46.1043 44.6542 46.9327 43.5284 48.0644 42.7818C48.9613 42.2073 49.9583 41.8067 51.0033 41.6009C51.5153 41.4943 52.0341 41.4239 52.556 41.3902C52.8156 41.3902 53.0801 41.3608 53.3397 41.3608H53.6042H53.7854C53.8275 41.2998 53.862 41.234 53.8883 41.1648L54.0352 40.8463L54.4369 39.979C54.7063 39.3959 54.9855 38.8177 55.2892 38.2493C55.8922 37.1135 56.5561 36.011 57.2778 34.9467C58.7181 32.8406 60.3302 30.8575 62.0976 29.0176C62.9524 28.2179 63.89 27.5116 64.8945 26.9106C65.8665 26.3033 66.8686 25.7456 67.8971 25.2397C68.9341 24.7354 70.0024 24.2984 71.0956 23.9314C72.2138 23.5371 73.3839 23.3092 74.5684 23.2552C74.7311 23.2373 74.8954 23.2373 75.0582 23.2552L75.7537 23.3091H75.9203H75.9643V23.3483L75.9986 23.4267L76.1456 23.7354L76.3905 24.2646C76.6256 24.7546 76.8803 25.2446 77.1448 25.7346C77.6738 26.7146 78.2469 27.6701 78.8298 28.6257C79.9906 30.5465 81.2054 32.4624 82.2144 34.5057C82.8414 35.7895 82.9638 36.4118 82.8218 36.4265C82.6797 36.4412 82.2389 35.8728 81.5483 34.9124L78.6828 30.9385C77.2631 29.0331 76.0111 27.0084 74.9406 24.8869L74.8965 24.7938H74.7986H74.392C74.1123 24.8012 73.8338 24.8323 73.5593 24.8869C73.2722 24.9276 72.9876 24.9848 72.7071 25.0584C71.5423 25.3573 70.4064 25.7591 69.3126 26.2589C68.1968 26.7558 67.1122 27.3204 66.0651 27.9494C65.042 28.5345 64.0847 29.2277 63.2095 30.0173C61.4879 31.8348 59.9215 33.7935 58.5269 35.8728C57.8308 36.8852 57.1915 37.9354 56.6117 39.0186C56.3227 39.5625 56.0533 40.1162 55.7888 40.6748L55.392 41.5274L55.0932 42.1644L54.6916 42.9925L53.9128 42.8896L53.5356 42.8651H53.3446C53.1046 42.8651 52.8548 42.8651 52.6344 42.8651C52.1615 42.8977 51.6917 42.9648 51.2286 43.066C50.3323 43.2414 49.4818 43.6 48.7305 44.1195C48.0242 44.6166 47.4915 45.3226 47.2072 46.1383C46.9245 47.0102 46.8342 47.933 46.9427 48.8431C46.9774 49.6874 47.3269 50.488 47.9223 51.0874C48.6072 51.6957 49.4186 52.1443 50.2979 52.4006C51.2464 52.6838 52.2186 52.8806 53.2026 52.9886L53.4083 53.0131L53.7315 53.0425L54.3732 53.1013C54.5104 53.0719 54.5104 53.2287 54.5642 53.312L54.6916 53.6011L54.9463 54.1744C55.1569 54.6399 55.3773 55.1005 55.6075 55.5513C56.3476 57.0238 57.2372 58.4162 58.2624 59.7065C58.7753 60.3544 59.3352 60.9637 59.9375 61.5293C60.2314 61.8184 60.5498 62.0781 60.8682 62.3427C61.0298 62.4701 61.2013 62.5877 61.358 62.7151L61.4805 62.8082L61.5441 62.8523H61.5882L61.647 62.8915L62.1074 63.1953L62.4944 63.5628C62.6231 63.6672 62.7156 63.8095 62.7589 63.9695C62.8149 64.1313 62.833 64.3039 62.8118 64.4738C62.7905 64.6437 62.7306 64.8065 62.6364 64.9495C62.5728 65.0867 62.3768 65.1357 62.2201 65.219L61.7303 65.4493L61.2404 65.6796L60.9955 65.7923C60.9221 65.8266 60.8731 65.8364 60.8094 65.8609C59.869 66.1794 58.9187 66.4881 57.944 66.7429C55.9786 67.2846 53.948 67.5534 51.9094 67.5416C49.8579 67.5018 47.8244 67.1482 45.8798 66.493C45.39 66.3313 44.9246 66.1598 44.4495 65.9687C43.9744 65.7776 43.4699 65.5571 43.0389 65.2974C42.1362 64.7964 41.2876 64.2036 40.5065 63.5285C38.028 61.4264 36.2059 58.7559 34.6287 56.0413C34.2319 55.3602 33.8499 54.6791 33.4727 53.998C33.2866 53.6599 33.0956 53.3218 32.9045 53.018L32.7674 52.7828L32.689 52.6603L32.6106 52.5427C32.5794 52.5247 32.5437 52.5162 32.5078 52.5182H32.1012H30.3526C29.5689 52.5182 28.7852 52.5035 28.0015 52.4741C26.4145 52.4334 24.8321 52.2861 23.2649 52.0331C22.4521 51.8985 21.6569 51.6733 20.8942 51.3618C20.6934 51.2792 20.4986 51.1826 20.3113 51.0727L19.7872 50.7542C19.4493 50.5287 19.1162 50.2936 18.8076 50.0387C17.5108 49.0297 16.4404 47.7594 15.6658 46.31C14.8911 44.8607 14.4296 43.2646 14.3111 41.6254C14.2662 39.5898 14.829 37.5869 15.9275 35.8728C16.9805 34.15 18.4689 32.7353 20.2428 31.7715C20.6913 31.5316 21.1561 31.3236 21.6338 31.1492C21.8739 31.0708 22.1237 31.0169 22.3735 30.9483C22.62 30.8796 22.8726 30.8353 23.1278 30.816C24.1322 30.6775 25.1531 30.714 26.1451 30.9238C27.1218 31.1124 28.0734 31.4133 28.9811 31.8205C29.8786 32.2137 30.7476 32.6689 31.582 33.1827C31.8955 33.3787 32.209 33.5698 32.5127 33.7756L33.0809 34.1529C33.1201 34.1529 33.1592 34.2215 33.1984 34.2166C33.225 34.1779 33.2479 34.1369 33.267 34.0941L33.3943 33.8393L33.7911 32.9818L35.574 29.0128C36.7114 26.2946 38.1929 23.7338 39.9824 21.3932C43.6271 16.7031 48.7655 13.4007 54.5446 12.0342C56.7384 11.4689 58.9865 11.1404 61.2502 11.0542C63.5166 10.977 65.7818 11.2396 67.9705 11.8333C72.3783 13.0629 76.2702 15.686 79.0649 19.3107C80.3017 20.8777 81.3383 22.5929 82.1507 24.4165C83.2729 26.8408 83.8769 29.4727 83.9239 32.1439C83.9783 33.3477 83.7237 34.5454 83.1842 35.6229C83.0305 35.9467 82.8363 36.2496 82.6063 36.5245C82.4789 36.6617 82.4348 36.5784 82.4593 36.3138C82.4832 36.1375 82.5159 35.9625 82.5573 35.7895C82.5573 35.5641 82.6259 35.2995 82.6748 34.9859C82.87 33.047 82.7375 31.089 82.283 29.194C81.3942 25.4008 79.5513 21.8975 76.9293 19.0167C74.296 16.0824 70.8391 14.011 67.0105 13.073C65.0866 12.6124 63.1098 12.4114 61.1327 12.4752C59.1172 12.5609 57.1153 12.8481 55.1569 13.3327C53.1934 13.7999 51.2878 14.4835 49.475 15.3711C47.674 16.2739 45.9938 17.4 44.474 18.7227C44.1801 18.9579 43.9107 19.2127 43.6413 19.4773C43.3719 19.7419 43.0976 19.9918 42.8429 20.2662C42.3531 20.8248 41.8192 21.3589 41.3735 21.9616C40.4291 23.1373 39.5791 24.3858 38.8313 25.6954C38.0839 27.0269 37.4086 28.3976 36.8084 29.8017C36.1716 31.2276 35.5397 32.6535 34.8785 34.0843L34.4866 34.9124C34.4093 35.0832 34.3176 35.2472 34.2123 35.4024L34.1389 35.5102C34.1063 35.5251 34.0716 35.535 34.036 35.5396L33.8352 35.5935L33.6588 35.6376H33.5756C33.5756 35.7307 33.5119 35.4416 33.6148 35.8385H33.5266L33.1152 35.8042C33.0466 35.8042 32.9878 35.8042 32.9094 35.765L32.6694 35.6082L32.1796 35.2848L31.5722 34.883L31.0824 34.5792C30.7591 34.3734 30.4359 34.1872 30.1028 34.001C28.8371 33.2584 27.4664 32.7116 26.0373 32.3791C24.6812 32.0533 23.2602 32.123 21.9424 32.58C21.2879 32.8338 20.6649 33.1627 20.086 33.56C19.4966 33.9655 18.9501 34.4302 18.4549 34.9467L18.4402 34.8928Z" fill="#221F1F"/>
<path d="M85.6139 49.1523C85.5007 51.2677 85.134 53.362 84.5216 55.39L84.1543 56.4876L83.9681 57.0364L83.7281 57.5656C83.4568 58.1925 83.1426 58.7999 82.7877 59.3835C82.4569 59.9787 82.0802 60.5472 81.6611 61.0838C80.8632 62.1765 79.9556 63.1847 78.9524 64.0924C78.0795 64.9071 77.1622 65.6726 76.2045 66.3856C74.9702 67.2676 73.6281 68.1447 72.0558 68.424C71.566 68.5073 71.566 68.1545 71.8648 67.738C72.2614 67.1996 72.7802 66.763 73.3783 66.464C74.664 65.7945 75.8756 64.9914 76.9931 64.0679C78.1437 63.1406 79.2092 62.1125 80.1769 60.9956C80.4561 60.6575 80.7353 60.3047 81.0096 59.9421C81.2839 59.5795 81.4995 59.1728 81.7101 58.7808C81.8227 58.5799 81.9452 58.3888 82.0431 58.183L82.3223 57.5558C82.4987 57.1344 82.724 56.7326 82.8611 56.2965C83.5838 54.4086 84.042 52.4299 84.2228 50.4165L84.311 49.4855C84.311 49.1718 84.311 48.8582 84.3404 48.5446L84.3649 47.6087L84.3257 46.6679C84.3257 45.7173 84.1934 44.7716 84.0955 43.8259C83.9975 42.8802 83.8065 41.9394 83.5763 41.0231C83.2261 39.6131 82.7726 38.2308 82.2195 36.8875C82.097 36.5935 81.9648 36.3093 81.8423 36.0104C81.3966 34.9128 81.3035 34.5404 81.5288 34.1582C81.5687 34.0683 81.6179 33.9829 81.6758 33.9034C81.8766 33.6829 82.2734 34.0455 82.7044 34.8491C83.9521 37.3489 84.8063 40.0264 85.2368 42.7871C85.5955 44.8903 85.7334 47.0253 85.6482 49.1572L85.6139 49.1523Z" fill="#221F1F"/>
<path d="M81.2196 85.6671C80.7298 84.3441 80.1714 83.026 79.5591 81.7471C79.3485 81.2571 79.0693 80.8259 78.8538 80.3604C78.0554 78.714 77.2129 77.0774 76.2773 75.4947C75.8708 74.7891 75.4006 74.1128 74.9401 73.4464C74.2964 72.627 73.7073 71.766 73.1768 70.869C72.8731 70.2859 74.3719 70.2173 75.0871 71.212C76.3504 72.9696 77.4614 74.8318 78.408 76.7785C78.9811 77.9496 79.6767 79.106 80.2693 80.2967C80.5926 80.9533 80.8914 81.6197 81.2 82.2812C81.5086 82.9427 81.7927 83.6189 82.0572 84.3L82.547 85.5495L83.0368 86.8137C83.2768 87.4507 83.4776 88.1024 83.703 88.7443C83.9283 89.3862 84.1193 90.0379 84.325 90.6798C84.4818 91.1698 84.6532 91.6598 84.8148 92.1498L85.3047 93.6198C85.3781 93.8354 85.4516 94.051 85.5055 94.2764C85.7112 95.1095 85.6867 95.3937 85.383 95.6436C85.3191 95.7031 85.2503 95.7572 85.1773 95.8053C84.9275 95.9376 84.6385 95.6484 84.4279 95.0653C83.8058 93.3454 83.2768 91.5128 82.6597 89.6753C82.4441 88.9991 82.1698 88.3278 81.9641 87.6516C81.7584 86.9754 81.4743 86.309 81.1951 85.6475L81.2196 85.6671Z" fill="#221F1F"/>
<path d="M75.4314 73.6039C75.2208 72.9619 72.889 70.345 72.2179 69.6197C69.842 67.0665 74.9269 66.0766 76.4798 65.023C76.4897 65.0163 76.5017 65.0135 76.5136 65.0151C76.5254 65.0167 76.5363 65.0225 76.5441 65.0316C76.5519 65.0406 76.5562 65.0522 76.5561 65.0641C76.5559 65.0761 76.5515 65.0876 76.5435 65.0965C75.8796 65.9662 75.4117 66.9692 75.1718 68.0368C74.9433 69.8938 75.0311 71.7762 75.4314 73.6039Z" fill="#221F1F"/>
<path d="M81.7977 108.315C80.2339 106.092 78.8373 103.757 77.6196 101.327C77.0024 100.132 76.4097 98.9214 75.8366 97.7111L74.9697 95.9128C74.8276 95.6139 74.6807 95.3248 74.5337 95.0455L74.0439 94.1537C72.7998 91.7723 71.6242 89.386 70.3164 87.0878C69.0613 84.7892 67.5672 82.6294 65.8591 80.6443C65.2373 79.9349 64.5679 79.2686 63.8557 78.65C63.5128 78.3266 63.1259 78.0571 62.7634 77.7631C62.401 77.4691 61.9993 77.2731 61.6221 77.0036C60.1197 76.0586 58.3106 75.7304 56.5721 76.0873C55.0712 76.5078 53.7646 77.4404 52.8789 78.7235C51.9678 80.0504 51.3806 81.5726 51.1646 83.1678C50.9441 84.8289 50.7874 86.5685 50.5915 88.2639L50.0331 93.3893C49.2886 100.22 48.5195 107.047 47.726 113.871C47.0158 119.928 46.3105 126.019 45.5513 132.001C45.0614 135.863 44.5716 139.729 43.9643 143.58C43.6655 145.511 43.3422 147.437 42.9846 149.352C42.6301 151.29 42.149 153.201 41.5446 155.076C41.4028 155.523 41.1965 155.947 40.9323 156.335C40.7364 156.585 40.5796 156.663 40.5453 156.604C40.4719 156.467 40.6678 155.884 40.7902 154.87C41.0939 152.851 41.4907 149.127 42.2009 144.727C43.4499 136.921 44.4394 129.047 45.4141 121.172C46.3888 113.298 47.2999 105.375 48.2453 97.4367C48.5098 95.0586 48.7775 92.6608 49.0485 90.2435C49.1824 89.0315 49.3114 87.818 49.4355 86.6027L49.6265 84.775L49.7245 83.8636C49.7245 83.5598 49.7882 83.2511 49.8421 82.9277C50.008 81.6314 50.3957 80.3733 50.9882 79.2086C51.5788 78.0162 52.4132 76.9611 53.4373 76.1118C54.4953 75.2564 55.771 74.7133 57.1207 74.5438C58.4533 74.4094 59.7985 74.6029 61.0393 75.1073C63.7039 76.298 65.7023 78.2678 67.4902 80.3552C68.3674 81.4147 69.1851 82.5221 69.9392 83.6725C70.6789 84.8191 71.3695 85.9903 72.0259 87.1761C73.3337 89.5526 74.5239 91.9683 75.7828 94.335C76.4195 95.5649 76.9681 96.785 77.5608 97.9855C78.1535 99.186 78.7412 100.387 79.3731 101.567C80.9209 104.458 82.6108 107.31 84.7905 109.706C85.3247 110.303 85.9098 110.852 86.5391 111.348C87.1508 111.832 87.8266 112.23 88.5474 112.529C89.2435 112.812 90.0009 112.912 90.7467 112.818C91.4792 112.717 92.1632 112.394 92.7059 111.892C93.1374 111.501 93.5087 111.049 93.808 110.549C94.1265 110.036 94.4034 109.499 94.6358 108.942C95.1256 107.82 95.4832 106.634 95.8652 105.434C96.6228 103.042 97.3625 100.646 98.0841 98.2452C99.5291 93.4383 100.905 88.6216 102.38 83.8587C104.672 76.4597 107.111 69.2224 110.476 62.2986C111.236 60.7845 111.946 59.2851 112.798 57.7955C113.862 55.7995 115.114 53.9094 116.536 52.1507C117.515 51.0188 118.25 50.4749 118.941 50.1907C119.228 50.057 119.545 49.9965 119.861 50.0143C120.165 50.1221 119.734 50.2054 118.999 50.9698C117.872 52.2373 116.87 53.6108 116.007 55.0711C114.198 58.0072 112.574 61.0527 111.143 64.19C109.673 67.3408 108.36 70.5944 107.141 73.9166C104.692 80.5757 102.693 87.4946 100.656 94.4428C99.8964 97.0251 99.1372 99.6074 98.3437 102.19L97.1339 106.056C96.7457 107.392 96.2712 108.701 95.7134 109.976C95.4108 110.649 95.0398 111.289 94.6064 111.887C94.152 112.539 93.5746 113.097 92.9068 113.528C92.2068 113.989 91.397 114.254 90.5605 114.298C89.7569 114.353 88.9506 114.238 88.1947 113.96C87.4814 113.706 86.8059 113.356 86.1865 112.921C85.5869 112.508 85.0233 112.046 84.5015 111.539C83.5 110.557 82.5855 109.489 81.7683 108.349L81.7977 108.315Z" fill="#221F1F"/>
<path d="M112.612 100.151C112.157 102.959 111.657 105.776 111.006 108.57C110.371 111.378 109.523 114.133 108.468 116.811C107.694 118.782 106.741 120.678 105.622 122.476C104.614 124.056 103.452 125.533 102.155 126.886C100.868 128.278 99.3643 129.453 97.7021 130.365C96.0222 131.277 94.1703 131.828 92.2651 131.982C90.3758 132.125 88.476 131.936 86.6518 131.423C83.4863 130.496 80.5039 129.031 77.8351 127.092C74.3982 124.697 71.3446 121.794 68.7784 118.482C67.9947 117.439 68.4013 117.355 69.3662 117.968C70.8625 119.002 72.2581 120.175 73.5345 121.471C76.4295 124.394 79.7773 126.829 83.4484 128.684C85.2597 129.578 87.1975 130.188 89.194 130.492C91.178 130.777 93.2008 130.61 95.111 130.002C96.2687 129.621 97.3669 129.078 98.3731 128.39C99.3962 127.666 100.34 126.837 101.19 125.916C102.936 124.054 104.419 121.962 105.598 119.697C108.233 114.739 109.59 109.158 110.609 103.567C111.236 100.137 111.73 96.638 112.274 93.1589C113.087 87.8914 114.057 82.5749 115.703 77.5083C116.192 75.5523 116.544 73.5646 116.756 71.5596C117.02 69.5457 117.246 67.5367 117.554 65.5179C117.687 64.6261 117.809 63.7539 117.976 62.8572C118.607 59.5399 119.195 58.4472 119.876 57.9572C120.018 57.8464 120.173 57.7526 120.337 57.6779C120.537 57.6289 120.518 57.9425 120.337 58.4521C120.155 58.9617 119.964 59.8829 119.734 61.0687C119.034 64.5624 118.652 68.2717 118.127 72.03C118 72.9708 117.858 73.9165 117.701 74.8672C117.55 75.8589 117.339 76.8407 117.069 77.8072C116.491 79.6398 115.987 81.4283 115.561 83.2854C114.277 88.7832 113.553 94.4623 112.661 100.137L112.612 100.151Z" fill="#221F1F"/>
<path d="M114.361 60.9221C113.822 60.4321 113.813 60.1626 113.896 59.9421C114.186 59.1629 114.523 58.402 114.905 57.6636C115.243 57.0315 115.645 56.4386 116.027 55.8359C116.669 54.7788 117.374 53.761 118.138 52.7881C118.363 52.499 118.628 52.2246 118.853 51.9453C119.078 51.666 119.308 51.3965 119.553 51.1319C119.593 51.0878 119.622 51.0241 119.681 51.0045C119.842 50.9555 120.073 51.1564 120.17 51.4014C120.17 51.4553 120.229 51.5386 120.21 51.5582C120.028 51.7542 120.161 52.1805 119.965 52.3569C119.63 52.7367 119.332 53.1468 119.073 53.5819C118.958 53.7518 118.834 53.9153 118.701 54.0719C118.535 54.2679 118.334 54.4394 118.172 54.6452C117.45 55.6252 116.795 56.6533 116.213 57.7224C115.419 59.1336 114.773 60.5399 114.743 60.6036C114.626 60.721 114.498 60.8276 114.361 60.9221Z" fill="#221F1F"/>
<path d="M116.447 61.6628C115.83 61.3295 115.757 61.0747 115.796 60.8689C115.926 60.1773 116.111 59.4973 116.349 58.8351C116.55 58.2667 116.839 57.7325 117.099 57.1885C117.531 56.2411 118.022 55.3213 118.568 54.4344C118.725 54.1698 118.916 53.9444 119.058 53.665C119.2 53.3857 119.382 53.175 119.548 52.9103C119.573 52.8662 119.587 52.8074 119.636 52.7878C119.774 52.7339 120.028 52.9054 120.156 53.1211C120.18 53.1701 120.234 53.2387 120.224 53.2583C120.097 53.4445 120.307 53.8218 120.161 53.9934C119.92 54.3445 119.718 54.7208 119.558 55.1156C119.484 55.2676 119.395 55.412 119.293 55.5468C119.171 55.7233 119.019 55.885 118.897 56.0663C118.384 56.9412 117.941 57.8556 117.574 58.8008C117.084 60.0505 116.717 61.2903 116.697 61.3491C116.624 61.461 116.54 61.566 116.447 61.6628Z" fill="#221F1F"/>
<path d="M77.7827 110.074C77.3663 110.618 76.9157 111.147 76.5141 111.705C76.1124 112.264 75.7304 112.847 75.3532 113.425C75.0985 113.861 74.8634 114.317 74.6185 114.753C73.71 116.297 72.9239 117.909 72.2674 119.575C72.1155 119.945 71.983 120.323 71.8706 120.707C71.753 121.089 71.6404 121.466 71.5522 121.853C71.2975 122.833 71.1751 123.848 70.8469 124.793C70.7538 125.078 70.3914 125.004 70.0779 124.671C69.8925 124.471 69.7568 124.23 69.682 123.968C69.6071 123.706 69.595 123.429 69.6468 123.162C70.1034 121.042 70.8501 118.996 71.8657 117.081L72.7425 115.322L73.1735 114.425C73.34 114.136 73.5017 113.847 73.6633 113.558L74.207 112.617L74.8144 111.71L75.4218 110.809C75.6324 110.515 75.8626 110.231 76.083 109.941L76.901 108.888L77.7876 107.908L78.4586 107.153C78.684 106.899 78.9485 106.663 79.1787 106.443C79.6685 105.977 80.1289 105.463 80.6481 105.037C81.04 104.698 81.4122 104.346 81.7845 103.988L82.3429 103.444C82.5339 103.273 82.7396 103.121 82.9405 102.954C83.1413 102.787 83.2882 102.665 83.4744 102.528C84.1601 102.038 84.454 101.945 84.792 102.165C84.8746 102.209 84.9532 102.26 85.0271 102.317C85.2475 102.523 85.1055 102.925 84.6646 103.336C84.0181 103.959 83.2931 104.493 82.6417 105.144C82.3037 105.453 81.9608 105.762 81.6131 106.061C81.2653 106.36 80.9567 106.717 80.6334 107.041C80.1436 107.531 79.6538 107.996 79.1983 108.511L78.5125 109.29C78.2745 109.544 78.052 109.812 77.8464 110.093L77.7827 110.074Z" fill="#221F1F"/>
<path d="M91.2178 143.527L91.7076 146.751C91.7664 147.143 91.8643 147.525 91.9231 147.917C92.1239 149.304 92.3101 150.691 92.5256 152.067C92.6236 152.68 92.7607 153.288 92.9027 153.885C93.1387 154.639 93.3027 155.413 93.3926 156.198C93.3926 156.688 92.0407 156.379 91.8349 155.473C91.4765 153.886 91.2261 152.277 91.0855 150.656C91.0072 149.676 90.7574 148.696 90.5957 147.716L90.1059 144.467L89.7875 142.468C89.621 141.464 89.4691 140.449 89.2634 139.46C89.1067 138.685 88.8716 137.946 88.6707 137.191C88.6266 137.024 88.5728 136.863 88.5385 136.701C88.3964 136.074 88.4454 135.858 88.7638 135.657C88.8373 135.613 88.9058 135.559 88.9793 135.525C89.234 135.417 89.5034 135.633 89.6651 136.079C90.1323 137.449 90.4878 138.855 90.728 140.283C90.9337 141.356 91.1051 142.444 91.2913 143.522L91.2178 143.527Z" fill="#221F1F"/>
<path d="M73.5359 153.174C70.4405 153.711 67.3108 154.027 64.1706 154.12L62.4562 154.188C61.888 154.188 61.315 154.188 60.7468 154.188C56.7334 154.078 52.7344 153.659 48.7854 152.934C47.0368 152.62 45.2783 152.307 43.5542 151.954C42.4472 151.719 41.3304 151.503 40.2332 151.219C39.1463 150.953 38.0751 150.626 37.0249 150.239C36.9616 150.218 36.9008 150.19 36.8437 150.156L36.78 150.102C36.78 150.102 36.78 150.077 36.8094 150.063C36.8138 150.043 36.8138 150.023 36.8094 150.004V149.969C36.8052 149.913 36.7954 149.857 36.78 149.803C36.7359 149.607 36.7016 149.528 36.7163 149.553C36.7255 149.593 36.737 149.632 36.7506 149.671C36.7506 149.7 36.7506 149.729 36.7506 149.671V149.631C36.7551 149.572 36.7773 149.516 36.8143 149.47C36.9364 149.348 37.0812 149.251 37.2404 149.185C38.2391 148.795 39.3377 148.74 40.3704 149.029C44.7506 150.176 49.1858 151.101 53.6591 151.802C56.4186 152.171 59.2031 152.318 61.986 152.243C65.0559 152.237 68.1216 152.014 71.1603 151.577C72.1007 151.464 73.0216 151.263 73.9571 151.087C74.8927 150.91 75.8037 150.68 76.7295 150.479C79.5088 149.79 82.228 148.877 84.8605 147.75C85.8646 147.26 86.8638 146.829 87.7994 146.28L89.2198 145.471C89.7096 145.197 90.1407 144.888 90.6011 144.604C91.0615 144.32 91.3946 144.08 91.811 143.835C93.2804 142.855 93.8437 142.639 94.4658 142.855C94.6088 142.895 94.7482 142.947 94.8821 143.011C95.2593 143.252 94.8184 143.933 93.7457 144.766C90.3918 147.291 86.6808 149.302 82.7346 150.734C79.7397 151.813 76.6615 152.645 73.531 153.223L73.5359 153.174Z" fill="#221F1F"/>
<path d="M123.672 48.2453C123.796 58.5941 123.915 68.943 124.03 79.2918C124.085 83.0681 124.142 86.8428 124.201 90.6158L124.294 99.4358L124.338 103.846L124.363 106.056V106.546C124.363 106.605 124.363 106.668 124.363 106.732C124.368 106.764 124.383 106.794 124.405 106.818C124.426 106.842 124.454 106.86 124.485 106.869C124.547 106.881 124.61 106.881 124.671 106.869L146.409 103.067C152.223 102.043 158.062 100.974 163.822 99.916C171.219 98.5489 178.639 97.1034 186.065 95.9225C190.694 95.1826 185.085 97.6081 176.558 99.1614C161.437 101.91 146.316 104.551 131.034 107.129L124.559 108.241C124.389 108.284 124.211 108.293 124.038 108.266C123.865 108.239 123.699 108.177 123.55 108.084C123.405 107.987 123.284 107.86 123.194 107.711C123.105 107.562 123.049 107.395 123.03 107.222C123.02 107.031 123.02 106.84 123.03 106.649V106.266V105.58C123.03 104.674 123.006 103.763 122.991 102.846C122.967 101.019 122.937 99.181 122.908 97.3435C122.849 93.6636 122.795 89.9935 122.741 86.3086C122.611 75.8814 122.482 65.4541 122.354 55.0269C122.276 48.6111 122.196 42.1954 122.114 35.7796L122.07 32.9425L149.255 31.938C156.744 31.6342 164.082 31.252 171.483 30.9041L176.347 30.6689C182.44 30.4092 184.385 30.4337 185.707 30.7669C186 30.8181 186.29 30.8868 186.574 30.9727C187.167 31.2471 184.693 31.5901 180.236 31.8498C167.011 32.6142 153.051 33.1924 139.038 33.7314L123.525 34.3047L123.716 48.211L123.672 48.2453Z" fill="#221F1F"/>
<path d="M184.669 72.1329C184.635 68.9871 184.61 65.8413 184.571 62.6906C184.571 61.544 184.507 60.3974 184.498 59.2606C184.463 55.2132 184.449 51.1657 184.409 47.1232C184.409 45.3249 184.331 43.5217 184.267 41.7332C184.184 39.4449 184.037 37.1517 184.12 34.8732C184.174 33.4473 185.482 35.226 185.556 37.8622C185.693 42.5319 185.747 47.2016 185.678 51.9203C185.639 54.7379 185.766 57.6681 185.81 60.5542C185.853 63.7196 185.892 66.8883 185.928 70.0602C185.951 72.0202 185.978 73.9803 186.011 75.9403C186.06 78.8803 186.089 81.8644 186.178 84.7946C186.246 87.0731 186.393 89.3026 186.501 91.5566C186.53 92.0466 186.565 92.5366 186.584 93.0266C186.648 94.8789 186.584 95.4767 186.236 95.8785C186.17 95.9763 186.092 96.0667 186.006 96.148C185.737 96.3293 185.516 95.5796 185.384 94.2271C185.056 90.2042 184.919 85.9559 184.816 81.6929C184.738 78.5275 184.694 75.3229 184.635 72.1672L184.669 72.1329Z" fill="#221F1F"/>
<path d="M119.892 79.1352L119.848 67.3751C119.825 65.9443 119.804 64.5152 119.784 63.0876L119.76 47.9613C119.76 45.7268 119.696 43.4777 119.637 41.258C119.608 40.278 119.574 39.298 119.544 38.318L119.505 36.848L119.471 35.1379C120.103 34.5695 120.318 34.3784 120.685 34.0599C121.053 33.7414 121.376 33.4719 121.724 33.1828C122.336 32.6928 122.532 32.9084 122.351 33.5062C122.213 33.9078 122.027 34.2911 121.797 34.6479C121.655 34.8684 121.494 35.1036 121.308 35.3437C121.214 35.4662 121.121 35.5887 121.019 35.7112C120.979 35.7504 120.989 35.7504 120.989 35.7553V35.8729C120.989 36.0493 120.989 36.2257 120.989 36.4119C121.107 42.2331 121.141 48.0495 121.038 53.9246C120.979 57.4379 121.102 61.0884 121.131 64.7046L121.205 76.5529C121.205 79.0029 121.239 81.4186 121.259 83.8441C121.293 87.524 121.312 91.2236 121.391 94.879C121.454 97.7161 121.601 100.499 121.709 103.307C121.734 103.91 121.758 104.503 121.788 105.11C121.788 105.154 121.788 105.194 121.788 105.223L122.096 105.541L122.503 105.973C122.743 106.237 122.934 106.463 123.081 106.659C123.312 106.941 123.466 107.279 123.526 107.639C123.554 107.776 123.569 107.915 123.57 108.055C123.512 108.423 122.679 107.923 121.425 106.781C121.141 106.517 120.97 106.37 120.392 105.801C120.333 104.537 120.269 103.253 120.205 101.96C120.163 100.77 120.117 99.5667 120.068 98.3482C119.995 95.9227 119.946 93.4482 119.907 90.9982C119.858 87.0487 119.814 83.0846 119.765 79.1303L119.892 79.1352Z" fill="#221F1F"/>
<path d="M111.57 59.1038L107.799 62.0438C107.343 62.4015 106.917 62.7935 106.457 63.1463L101.558 66.8654C100.843 67.4191 100.158 68.0169 99.4816 68.6147C98.6612 69.4324 97.7639 70.1692 96.8023 70.8148C96.1753 71.1921 95.8226 69.3448 96.8415 68.4824C98.6341 66.9347 100.513 65.4902 102.469 64.1557C103.65 63.3521 104.742 62.3476 105.898 61.4411L109.675 58.501L111.996 56.6733C113.162 55.7374 114.343 54.8211 115.464 53.8558C116.336 53.1061 117.13 52.2927 117.953 51.5087C118.139 51.3323 118.305 51.151 118.491 50.9844C119.192 50.3621 119.495 50.2592 119.961 50.4944C120.065 50.5378 120.165 50.5903 120.26 50.6512C120.553 50.8619 120.446 51.3274 119.985 51.8468C118.545 53.3971 116.995 54.8415 115.347 56.1686C114.122 57.1927 112.858 58.1874 111.614 59.1969L111.57 59.1038Z" fill="#221F1F"/>
<path d="M95.5435 72.6231C95.4233 72.4702 95.294 72.3245 95.1565 72.187C95.132 72.1625 95.0683 72.0056 95.0438 72.0007C95.0115 71.8976 94.9739 71.7962 94.9311 71.6969C94.8578 71.4482 94.761 71.207 94.6421 70.9765C94.5882 70.9765 94.5197 70.6286 94.4805 70.5796C94.6208 70.4331 94.7732 70.2986 94.9361 70.1777C95.0046 70.1996 95.0646 70.2424 95.1075 70.3002C95.2024 70.4306 95.309 70.5519 95.4259 70.6629L95.6366 70.7609L95.7296 70.8099L95.9795 70.9618C96.0675 70.9957 96.1527 71.0367 96.2342 71.0843C96.3366 71.1623 96.4347 71.2458 96.5281 71.3343C96.582 71.3833 96.6555 71.4176 96.7045 71.4715C96.7535 71.5254 96.7045 71.5646 96.7486 71.6038C96.6255 71.7872 96.4771 71.9522 96.3077 72.0939C96.0802 72.3067 95.8227 72.485 95.5435 72.6231Z" fill="#221F1F"/>
<path d="M131.583 156.531L103.305 156.355C99.8767 156.355 96.4186 156.355 92.9801 156.355C80.8522 156.276 68.7243 156.164 56.5965 156.095C51.2085 156.061 45.8205 156.095 40.4668 156.095C33.6094 156.129 26.7127 156.252 19.8602 156.07C15.5841 155.958 21.0064 154.316 28.912 154.297C42.9257 154.267 56.9246 154.341 71.0363 154.576C79.4807 154.718 88.2778 154.645 96.9182 154.679C106.421 154.718 115.925 154.764 125.43 154.816C131.279 154.845 137.127 154.872 142.976 154.894C151.832 154.924 160.732 154.978 169.519 154.953C176.376 154.953 183.053 154.816 189.807 154.743C191.277 154.743 192.746 154.694 194.25 154.684C199.814 154.654 201.597 154.767 202.777 155.223C203.047 155.307 203.311 155.41 203.566 155.531C204.1 155.884 201.832 156.173 197.762 156.276C185.683 156.58 172.948 156.629 160.158 156.629C150.661 156.629 141.124 156.59 131.602 156.565C131.587 156.556 131.587 156.541 131.583 156.531Z" fill="#221F1F"/>
<path d="M149.668 111.28C149.38 115.118 149.093 118.953 148.806 122.785C148.708 124.186 148.654 125.588 148.546 126.984C148.169 131.918 147.762 136.848 147.4 141.777C147.233 143.968 147.121 146.187 147.018 148.343C146.886 151.136 146.842 153.949 146.494 156.727C146.273 158.462 144.77 156.154 144.946 152.94C145.259 147.231 145.671 141.542 146.249 135.789C146.597 132.359 146.739 128.778 146.984 125.264C147.251 121.4 147.529 117.535 147.816 113.671C147.988 111.289 148.164 108.913 148.306 106.536C148.551 102.93 148.82 99.3137 149.011 95.7563C149.158 92.9731 149.202 90.2388 149.296 87.485C149.296 86.8774 149.296 86.2845 149.345 85.672C149.452 83.4082 149.609 82.6977 150.094 82.242C150.192 82.1291 150.302 82.0273 150.422 81.9382C150.785 81.7422 151.015 82.683 151.02 84.3441C151.02 89.2785 150.765 94.4627 150.456 99.6665C150.226 103.533 149.967 107.413 149.697 111.284L149.668 111.28Z" fill="#221F1F"/>
<path d="M166.252 109.412C166.732 113.273 167.214 117.135 167.697 120.996C167.873 122.402 168.103 123.804 168.275 125.21C168.887 130.179 169.475 135.147 170.097 140.106C170.371 142.311 170.7 144.516 171.033 146.697C171.459 149.494 171.973 152.287 172.184 155.115C172.316 156.874 170.381 154.889 169.916 151.66C169.083 145.942 168.358 140.214 167.78 134.412C167.437 130.943 166.864 127.361 166.404 123.828C165.901 119.944 165.411 116.057 164.934 112.166C164.626 109.77 164.322 107.379 164.009 104.988C163.519 101.366 163.073 97.7257 162.539 94.1389C162.128 91.3508 161.628 88.6312 161.168 85.8823C161.07 85.2747 160.952 84.6867 160.859 84.0742C160.511 81.8055 160.526 81.0656 160.908 80.5168C160.981 80.3864 161.068 80.2648 161.168 80.1542C161.486 79.8847 161.902 80.7716 162.235 82.418C163.215 87.318 163.999 92.5072 164.734 97.7306C165.277 101.606 165.782 105.507 166.301 109.402L166.252 109.412Z" fill="#221F1F"/>
<path d="M63.973 29.841C63.973 30.0224 64.1101 30.7231 64.1836 31.4189C64.2571 32.1147 64.3109 32.8007 64.3158 32.9281C64.3207 33.0555 64.3158 33.9669 64.3158 34.06C64.3158 34.1531 64.1836 35.4467 64.1542 35.6966C64.06 36.3147 63.9291 36.9266 63.7623 37.5292C63.5716 38.2016 63.3259 38.8571 63.0276 39.4892C62.8764 39.8204 62.682 40.1302 62.4496 40.4104C62.2124 40.6975 61.9519 40.9647 61.6708 41.2091C61.5925 41.2875 61.2055 40.8367 61.2496 40.773C61.2937 40.7093 61.4553 40.5133 61.5582 40.3908C61.661 40.2683 61.7443 40.1164 61.8472 39.989C62.1002 39.6255 62.3075 39.2321 62.4643 38.8179C62.5845 38.4983 62.6826 38.1709 62.7582 37.8379C62.817 37.49 62.8513 37.1323 62.8758 36.7795L62.9101 36.2895C62.9101 35.7995 62.9394 35.3585 62.9101 34.893C62.8807 34.4275 62.8317 34.0257 62.7974 33.5896C62.7435 32.9526 62.6994 32.3156 62.6113 31.6786C62.5623 31.3209 62.4888 30.9632 62.4251 30.6006C62.3909 30.3899 62.4251 30.1693 62.3811 29.9537C62.337 29.7381 62.626 29.6548 62.9639 29.5176C63.1454 29.4691 63.337 29.4738 63.5159 29.5311C63.6948 29.5884 63.8535 29.696 63.973 29.841Z" fill="#221F1F"/>
<path d="M24.1674 67.8112H24.2506C24.2506 67.8112 24.2506 67.8112 24.329 67.8112C24.5837 67.8112 24.8188 67.8112 25.0882 67.8504C25.3576 67.8896 25.578 67.8994 25.867 67.9484C26.2981 68.017 26.7144 68.115 27.1259 68.2081C27.1259 68.5952 27.1552 69.0019 27.1993 69.3645C27.1993 69.585 27.2483 69.7614 27.2777 69.9623C27.3414 70.3543 27.4148 70.7512 27.4981 71.1481L27.7626 72.3339C27.7861 72.453 27.8257 72.5684 27.8802 72.6769C27.9145 72.5593 27.9438 72.4417 27.9781 72.3437C28.0075 72.2653 28.0516 72.133 28.0957 72.0007L28.1251 71.8978L28.2035 71.6038L28.3749 70.9717L29.0361 68.4237C29.4737 66.725 29.8982 65.0198 30.3097 63.3081C30.6721 61.794 31.0003 60.2553 31.2893 58.7363C31.6909 56.7763 32.024 54.8163 32.5775 52.9004C32.9253 51.7048 33.8314 53.508 33.3563 55.7571C32.5089 59.7408 31.5783 63.7001 30.4762 67.6593C30.197 68.6393 29.9374 69.6879 29.6876 70.7218C29.5553 71.2559 29.4231 71.79 29.2859 72.329C29.0655 73.162 28.8696 74.0048 28.6247 74.8329L28.321 75.3474C28.2453 75.4379 28.1617 75.5216 28.0712 75.5973L27.9781 75.6757L27.9341 75.7198C27.9341 75.7198 27.8802 75.7198 27.8704 75.7198C27.7968 75.6825 27.7292 75.6347 27.6696 75.5777C27.5913 75.4998 27.5208 75.4144 27.4589 75.3229C27.3657 75.2133 27.2882 75.0913 27.2287 74.9603C27.068 74.562 26.9306 74.1546 26.8173 73.7402C26.6899 73.3041 26.5675 72.8533 26.4597 72.4074L26.347 71.9174L26.2491 71.496C26.1903 71.2118 26.1315 70.9276 26.0776 70.6434C26.0238 70.3592 25.9797 70.0652 25.9405 69.7761V69.5556V69.4576V69.2763C25.8463 69.2387 25.7474 69.2139 25.6466 69.2028C25.4262 69.1685 25.1911 69.1391 24.9658 69.1195L24.3192 69.0901C23.9757 69.088 23.6323 69.1043 23.2906 69.1391C23.1783 69.1514 23.0649 69.1514 22.9526 69.1391C22.8666 69.1378 22.7817 69.1195 22.7028 69.0852C22.6433 69.0646 22.5859 69.0384 22.5314 69.0068H22.4922L22.5657 68.9529V68.8647C22.4285 68.6736 22.6244 68.1983 22.8302 67.7818L23.32 66.7381L23.7363 65.9002C24.8874 63.5972 26.0727 61.2991 27.165 59.0058C28.0369 57.2222 28.8255 55.4435 29.6435 53.6599L29.908 53.0719C30.0109 52.8416 30.1186 52.6113 30.2264 52.381L30.2656 52.2977L30.5938 51.9988C30.7137 51.9173 30.8398 51.8452 30.9709 51.7832C31.1864 51.7832 31.4607 51.8077 31.5783 51.8224C31.6958 51.8371 31.8036 51.8518 31.9065 51.8665C32.0728 51.894 32.2366 51.9349 32.3963 51.989C32.6225 52.0532 32.8219 52.189 32.9645 52.3761C33.0403 52.4573 33.1001 52.552 33.1408 52.6554C33.1408 52.7975 33.0575 52.8857 32.7636 52.9445C32.328 53.0138 31.887 53.0433 31.446 53.0327H31.353C31.353 53.0327 31.2942 53.0327 31.2844 53.0621C31.282 53.0898 31.282 53.1177 31.2844 53.1454C31.2723 53.1871 31.2575 53.228 31.2403 53.2679L31.1228 53.5423L30.8779 54.1009L30.388 55.2181L29.2859 57.4329C28.5708 58.9372 27.8165 60.4513 27.0769 61.9655L25.2303 65.6699L24.3143 67.5221L24.2555 67.6348V67.6887C24.2555 67.6887 24.2261 67.7328 24.2555 67.723L24.1674 67.8112Z" fill="#221F1F"/>
<path d="M70.3613 39.9695C70.6111 40.8271 70.0478 41.8513 69.0092 41.3613C67.9707 40.8712 67.6964 38.7248 68.8035 38.1073C69.5922 37.6662 70.1458 39.2442 70.3613 39.9695Z" fill="#221F1F"/>
<path d="M69.9553 37.4115C70.0361 37.5573 70.1081 37.7079 70.1709 37.8623C70.2199 38.0142 70.2738 38.1662 70.308 38.3132C70.3423 38.4602 70.3962 38.519 70.4158 38.6268C70.4623 39.0076 70.4623 39.3927 70.4158 39.7735C70.4041 39.9367 70.4041 40.1005 70.4158 40.2636C70.4158 40.3763 70.4158 40.4939 70.4158 40.6066C70.4027 40.7276 70.3451 40.8394 70.2542 40.9203C70.1905 40.9791 69.8819 40.837 69.583 40.685C69.2842 40.5331 68.9952 40.391 69.005 40.3371C69.0384 40.0514 69.1092 39.7713 69.2156 39.504C69.2989 39.2982 69.1911 39.112 69.152 38.9208C69.1147 38.7089 69.0539 38.5018 68.9707 38.3034C68.9245 38.1872 68.8618 38.0782 68.7845 37.9799C68.7415 37.9107 68.6851 37.8508 68.6187 37.8037C68.5522 37.7566 68.4771 37.7232 68.3975 37.7055C68.3416 37.71 68.2877 37.7285 68.2408 37.7594C68.1973 37.801 68.1564 37.8452 68.1183 37.8917C68.1183 37.8917 68.0889 37.9407 68.0693 37.9603C68.0497 37.9799 67.9371 37.9603 67.7215 37.681L67.5697 37.4899C67.4031 37.2792 67.3394 37.0537 67.4423 36.9067C67.6095 36.6732 67.8605 36.5133 68.1428 36.4608C68.3053 36.4382 68.4702 36.4382 68.6327 36.4608C68.7902 36.4915 68.9445 36.5375 69.0932 36.598C69.4615 36.7756 69.7748 37.05 69.9994 37.3919L69.9553 37.4115Z" fill="#221F1F"/>
<path d="M79.9083 37.6612C80.1582 38.5188 79.5948 39.543 78.5563 39.048C77.5178 38.5531 77.2532 36.4017 78.3603 35.7941C79.149 35.3824 79.6977 36.931 79.9083 37.6612Z" fill="#221F1F"/>
<path d="M79.5311 34.996C79.6757 35.2911 79.7858 35.6019 79.8594 35.9222C79.8838 36.0349 79.9426 36.1329 79.9622 36.2407C80.0038 36.6317 80.0038 37.0259 79.9622 37.4168C79.95 37.5898 79.95 37.7634 79.9622 37.9363C79.9622 38.049 79.9622 38.1715 79.9622 38.2891C79.9527 38.4154 79.8948 38.533 79.8006 38.6175C79.7369 38.6812 79.4283 38.5342 79.1294 38.3823C78.8306 38.2303 78.5416 38.0833 78.5563 38.0294C78.5888 37.7265 78.6579 37.4287 78.762 37.1424C78.7985 36.9343 78.7747 36.72 78.6935 36.5249C78.6546 36.2985 78.5922 36.0768 78.5073 35.8634C78.4618 35.7356 78.401 35.6138 78.3261 35.5007C78.2085 35.3586 78.0811 35.192 77.9244 35.1773C77.7676 35.1626 77.7039 35.2606 77.6402 35.3439C77.6221 35.3626 77.6072 35.3841 77.5961 35.4076C77.5276 35.4713 77.4639 35.4076 77.2483 35.1234L77.0965 34.9323C76.9299 34.7215 76.8711 34.4961 76.9838 34.3442C77.0762 34.2233 77.1928 34.123 77.326 34.0496C77.4593 33.9763 77.6063 33.9314 77.7578 33.9178C78.098 33.8793 78.4416 33.9515 78.7375 34.1237C79.0798 34.3355 79.3629 34.6305 79.5605 34.9813L79.5311 34.996Z" fill="#221F1F"/>
<path d="M72.986 37.5196C74.1149 38.5327 75.1314 39.6646 76.0179 40.8957C76.5787 41.5167 77.0427 42.2188 77.3943 42.9782C77.8303 44.2571 76.6449 45.7663 75.8906 46.663C75.631 46.9766 76.787 46.8345 76.9878 46.5944C77.6686 45.781 78.7119 44.5413 78.7462 43.4339C78.7462 42.5911 78.1585 41.861 77.698 41.2093C76.6822 39.6951 75.481 38.314 74.1224 37.0982C73.8579 36.8777 72.7754 37.3432 72.986 37.5196Z" fill="#221F1F"/>
<path d="M71.4198 53.9292C72.0615 53.6743 72.2134 53.6498 72.2869 53.7184C72.5367 53.9292 72.7767 54.1203 73.0119 54.3016C73.1977 54.4631 73.3977 54.6074 73.6095 54.7329C73.9722 54.9008 74.3846 54.927 74.7656 54.8064C74.8829 54.7725 74.9975 54.7299 75.1085 54.679C75.2129 54.6108 75.3113 54.5337 75.4024 54.4486C75.4024 54.4486 75.4024 54.4045 75.4563 54.4192C75.6164 54.5496 75.741 54.7181 75.8188 54.9093C75.8188 54.9583 75.8727 55.0318 75.8629 55.0416C75.7747 55.1102 75.8923 55.5023 75.76 55.5611C75.6278 55.6199 75.5396 55.6885 75.422 55.762C75.3124 55.8487 75.1922 55.9211 75.0644 55.9776C74.9582 56.0197 74.8455 56.043 74.7313 56.0462C74.5844 56.0411 74.4384 56.0214 74.2953 55.9874C74.0519 55.9761 73.8105 55.9383 73.5752 55.8747C73.1926 55.765 72.8315 55.591 72.5073 55.3601C72.0727 55.0476 71.6963 54.6611 71.3953 54.2183C71.3918 54.1213 71.4001 54.0242 71.4198 53.9292Z" fill="#221F1F"/>
<path d="M66.4529 31.1492C66.8662 31.2276 67.2737 31.3341 67.6727 31.4677C67.8147 31.5167 67.9666 31.5314 68.1087 31.5853C68.5962 31.8032 69.0634 32.0639 69.5048 32.3645C69.6982 32.4943 69.8995 32.6122 70.1073 32.7173C70.2347 32.7958 70.3768 32.8546 70.5041 32.9379C70.6322 33.026 70.7352 33.1459 70.803 33.2858C70.8813 33.4671 69.8232 34.2414 69.6518 34.0944C69.2407 33.8115 68.851 33.4986 68.4859 33.1584C68.2226 32.9769 67.9264 32.8487 67.6139 32.7811C67.2781 32.6569 66.9345 32.5554 66.5852 32.4772C66.3685 32.4306 66.1493 32.3962 65.9287 32.3743C65.5941 32.3252 65.2542 32.3252 64.9196 32.3743C64.6704 32.4351 64.4346 32.5414 64.224 32.6879C64.175 32.7124 64.1358 32.7516 64.0868 32.7712C63.9154 32.8595 63.8272 32.8007 63.6459 32.4968L63.5235 32.2861C63.4561 32.196 63.4217 32.0854 63.4262 31.973C63.4306 31.8606 63.4736 31.7531 63.548 31.6686C64.002 31.2828 64.5739 31.0633 65.1694 31.0462C65.5995 31.0208 66.0309 31.0373 66.4578 31.0953L66.4529 31.1492Z" fill="#221F1F"/>
<path d="M77.1302 31.0464C76.96 31.1343 76.7963 31.2342 76.6403 31.3454C76.5864 31.3895 76.557 31.4532 76.4933 31.4924C76.2834 31.6362 76.0882 31.8004 75.9104 31.9824C75.8415 32.066 75.7944 32.1653 75.7732 32.2716C75.7438 32.4039 75.7977 32.5411 75.6312 32.6293C75.3927 32.6163 75.1586 32.5599 74.9404 32.4627C74.6367 32.3451 74.3575 32.1588 74.3869 32.0363C74.4376 31.8327 74.5282 31.6412 74.6535 31.473C74.7788 31.3047 74.9363 31.163 75.1168 31.0562C75.3323 30.9386 75.4254 30.7279 75.6067 30.5662C75.7878 30.4097 75.9793 30.2656 76.1798 30.1349L76.5423 29.9046C76.7236 29.787 76.9195 29.689 77.0861 29.5566C77.2118 29.4315 77.328 29.2971 77.4339 29.1548C77.4573 29.1216 77.4835 29.0904 77.5123 29.0617C77.6347 28.9735 77.7229 29.0323 77.8895 29.341L78.0021 29.5518C78.1046 29.7229 78.1525 29.9212 78.1393 30.1202C78.0542 30.3763 77.8805 30.5935 77.6494 30.7328L77.1596 31.0513L77.1302 31.0464Z" fill="#221F1F"/>
<path d="M72.0176 76.9006C72.2282 76.5233 73.6685 77.4201 74.0751 77.8513C74.4817 78.2826 75.3732 79.4538 74.7119 79.9488C74.2367 80.3065 70.9791 78.7873 72.0176 76.9006Z" fill="#221F1F"/>
<path d="M73.9169 79.1792L74.0541 79.2478C74.0835 79.2478 74.0982 79.2478 74.0933 79.2478C74.1071 79.2658 74.1258 79.2794 74.1472 79.287C74.1568 79.2968 74.1682 79.3046 74.1808 79.3099C74.1934 79.3152 74.207 79.3179 74.2207 79.3179C74.2343 79.3179 74.2479 79.3152 74.2605 79.3099C74.2731 79.3046 74.2846 79.2968 74.2941 79.287C74.2941 79.2478 74.2941 79.1988 74.2941 79.1596C74.2964 79.1384 74.2964 79.1171 74.2941 79.0959C74.2763 79.0384 74.2534 78.9826 74.2256 78.9293C74.1681 78.798 74.1026 78.6703 74.0296 78.547C73.9561 78.4147 73.8728 78.2873 73.7896 78.155C73.7195 78.0523 73.6354 77.9599 73.5397 77.8806C73.34 77.7099 73.1174 77.568 72.8784 77.4591C72.7342 77.3923 72.5852 77.3366 72.4326 77.2925L72.2563 77.2337C72.2318 77.2337 72.2073 77.2337 72.2171 77.2337C72.2269 77.2337 72.1877 77.0965 72.2171 77.0965C72.2157 77.0602 72.2019 77.0256 72.1779 76.9984C72.1195 76.9748 72.0695 76.9341 72.0346 76.8817C71.9996 76.8292 71.9813 76.7675 71.9819 76.7044C71.9904 76.6098 72.032 76.5213 72.0995 76.4545C72.1599 76.3823 72.2351 76.3238 72.32 76.283C72.3887 76.2424 72.4648 76.2158 72.5438 76.2049C72.6229 76.194 72.7033 76.1988 72.7804 76.2193C73.1841 76.3601 73.5616 76.5671 73.8973 76.8318C74.0715 76.9609 74.2353 77.1035 74.3872 77.2582L74.5048 77.3905L74.5783 77.4836C74.5994 77.5092 74.6175 77.5371 74.6321 77.5669L74.7644 77.8217C74.8722 78.0374 75.0044 78.2383 75.1269 78.4637C75.3048 78.7487 75.4153 79.0705 75.4502 79.4046C75.4619 79.5905 75.4223 79.7761 75.336 79.9411C75.2496 80.1061 75.1197 80.2443 74.9604 80.3406C74.789 80.4068 74.6059 80.4374 74.4224 80.4306C74.2388 80.4239 74.0585 80.3799 73.8924 80.3014C73.8008 80.2685 73.7108 80.2309 73.623 80.1887C73.5446 80.1544 73.4712 80.1152 73.3977 80.076C73.2507 79.9927 73.1086 79.9094 72.9764 79.8163C72.5539 79.5351 72.1841 79.1818 71.884 78.7725C71.6088 78.4333 71.4385 78.0211 71.3941 77.5865C71.3843 77.4838 71.3843 77.3805 71.3941 77.2778C71.4676 76.8955 71.6145 76.8269 71.884 76.8906C71.9477 76.8906 72.0113 76.92 72.0701 76.9445C72.1572 76.9767 72.2333 77.0329 72.2897 77.1066C72.3461 77.1804 72.3804 77.2686 72.3885 77.3611C72.4001 77.5592 72.4571 77.7521 72.5551 77.9247C72.6643 78.1241 72.803 78.3058 72.9666 78.4637C73.252 78.7527 73.583 78.9928 73.9463 79.1743L73.9169 79.1792Z" fill="#221F1F"/>
<path d="M78.9285 88.876C78.6885 88.3566 76.9004 86.6414 76.2195 87.6558C75.955 88.0527 76.3665 88.5281 76.5134 88.9446C76.8466 89.8905 78.228 90.7285 78.6689 90.4932C78.9824 90.3217 79.0363 89.1015 78.9285 88.876Z" fill="#221F1F"/>
<path d="M76.5332 90.1508C76.3311 89.9248 76.1658 89.6685 76.0434 89.3912L75.9601 89.1657L75.9209 89.0383C75.8866 88.9501 75.8425 88.8423 75.7886 88.7198L75.7249 88.5777C75.6955 88.5091 75.6711 88.4405 75.6466 88.367C75.5926 88.2282 75.5692 88.0794 75.578 87.9308C75.587 87.7277 75.6589 87.5325 75.7837 87.3721C75.8997 87.2088 76.0557 87.078 76.2366 86.9922C76.4176 86.9064 76.6175 86.8685 76.8174 86.8821C76.9169 86.8868 77.0156 86.9033 77.1113 86.9311C77.1871 86.9521 77.2609 86.9799 77.3317 87.0144C77.4645 87.0704 77.5924 87.1376 77.7138 87.2153C77.9734 87.3819 78.2037 87.5486 78.4437 87.7054C78.7844 87.9086 79.0507 88.2162 79.203 88.5826C79.252 88.7394 78.9777 88.7982 78.7132 88.8619C78.4486 88.9256 78.1792 88.9991 78.0714 88.8619C77.8657 88.6561 77.6403 88.4454 77.4199 88.2591C77.3156 88.1678 77.206 88.0827 77.0917 88.0043C77.0378 87.9553 76.9937 87.9406 76.9447 87.9014C76.8957 87.8622 76.9104 87.8573 76.8761 87.8377C76.8606 87.8251 76.8426 87.8161 76.8233 87.8113C76.8039 87.8064 76.7838 87.8058 76.7642 87.8096C76.7446 87.8133 76.7261 87.8212 76.7099 87.8329C76.6937 87.8445 76.6802 87.8595 76.6704 87.8769C76.6402 87.9287 76.6314 87.9902 76.6459 88.0484V88.1072C76.6459 88.1072 76.6802 88.1954 76.6998 88.2444C76.7194 88.2934 76.7929 88.4601 76.8467 88.5973C76.9006 88.7345 76.9153 88.8129 76.9545 88.906C76.9915 88.9954 77.0375 89.0808 77.0917 89.1608C77.2339 89.3778 77.4091 89.5713 77.6109 89.7342L77.851 89.9155L78.0763 90.0478C78.1295 90.0821 78.1895 90.1043 78.2521 90.1127C78.3148 90.1212 78.3785 90.1158 78.4388 90.0969C78.4725 90.0613 78.4975 90.0186 78.5119 89.9718C78.5264 89.9251 78.5298 89.8756 78.5221 89.8273C78.5245 89.7832 78.5245 89.7391 78.5221 89.695V89.4696C78.5221 89.4059 78.5221 89.3373 78.5221 89.2736C78.5221 89.0285 78.5564 89.004 78.8209 88.8962C78.8801 88.8673 78.9374 88.8345 78.9924 88.7982C79.0349 88.7644 79.0875 88.746 79.1418 88.746C79.1961 88.746 79.2487 88.7644 79.2912 88.7982C79.391 88.8659 79.4638 88.9665 79.4969 89.0824C79.5808 89.355 79.6141 89.6407 79.5949 89.9253C79.5973 90.1464 79.5469 90.3648 79.4481 90.5625C79.3493 90.7602 79.2048 90.9315 79.0267 91.0623C78.8964 91.1178 78.7599 91.1573 78.6201 91.1799C78.4711 91.1912 78.3212 91.1829 78.1743 91.1554L77.8363 91.0525L77.6697 90.9789L77.5571 90.9251C77.4272 90.8535 77.3012 90.775 77.1799 90.6898C76.9452 90.5196 76.7286 90.3258 76.5332 90.1116V90.1508Z" fill="#221F1F"/>
<path d="M132.876 44.0217C132.911 44.0217 132.832 44.0217 133.293 43.9629C133.753 43.9041 134.165 43.8698 134.601 43.8257C136.036 43.6934 137.476 43.5856 138.916 43.4827C143.128 43.174 147.346 42.9143 151.558 42.6546C160.117 42.1319 168.674 41.6419 177.229 41.1846C178.65 41.1062 179.576 39.4696 177.611 39.5774C168.857 40.0641 160.105 40.5704 151.357 41.0964C147.13 41.3561 142.903 41.6207 138.681 41.9343C136.721 42.0813 134.395 41.9735 132.489 42.5762C130.824 43.1054 131.172 44.5754 132.876 44.0462V44.0217Z" fill="#221F1F"/>
<path d="M134.209 51.3568C146.944 50.0485 159.729 50.0583 172.415 48.4413C173.816 48.2649 174.751 46.5548 172.787 46.8047C160.106 48.4217 147.317 48.4119 134.581 49.7202C133.171 49.8623 132.245 51.5577 134.214 51.3568H134.209Z" fill="#221F1F"/>
<path d="M8.21309 21.1042C13.4247 18.9923 15.9424 13.3769 13.0672 8.27599C12.7733 7.75659 11.0197 8.40829 11.2255 8.76599C13.6354 13.0486 12.3276 18.6052 7.54204 20.526C6.33709 21.016 7.45877 21.3884 8.21309 21.0797V21.1042Z" fill="#221F1F"/>
<path d="M15.6291 19.7969C17.8336 18.1483 19.458 15.842 20.2681 13.2106C20.4298 12.6813 18.6075 12.9263 18.436 13.4801C17.7011 15.92 16.2104 18.0633 14.179 19.6009C13.3854 20.2037 15.2225 20.0909 15.6486 19.7969H15.6291Z" fill="#221F1F"/>
<path d="M128.154 24.3877C128.923 22.7852 130.687 21.8443 132.303 21.3052C132.587 21.2121 133.126 20.9377 132.911 20.5897C132.695 20.2418 131.759 20.5652 131.519 20.6436C129.408 21.3444 127.042 22.6039 126.043 24.716C125.817 25.2061 127.865 24.9953 128.154 24.3877Z" fill="#221F1F"/>
<path d="M133.444 28.4936C135.002 26.2641 136.966 24.7255 139.812 24.8676C140.757 24.9166 142.021 23.5299 140.581 23.4564C136.633 23.2555 133.655 25.1567 131.446 28.327C130.824 29.2237 132.984 29.1796 133.459 28.4936H133.444Z" fill="#221F1F"/>
<path d="M107.769 31.8157L108.636 31.3649L107.538 31.4482C107.658 31.5223 107.747 31.6364 107.79 31.7701C107.833 31.9038 107.827 32.0485 107.773 32.1783C107.734 32.2813 107.739 32.2715 107.651 32.3352C107.401 32.5067 107.514 32.7468 107.773 32.7958C108.13 32.8387 108.49 32.7421 108.778 32.5263C108.914 32.4433 109.028 32.3282 109.109 32.1911C109.191 32.054 109.238 31.8991 109.246 31.7397C109.255 31.5803 109.224 31.4214 109.157 31.2766C109.089 31.1318 108.988 31.0057 108.861 30.9091C108.686 30.8305 108.494 30.7973 108.303 30.8128C108.112 30.8282 107.928 30.8917 107.769 30.9973L106.901 31.4482C106.71 31.5462 106.475 31.8255 106.764 31.9627C106.933 32.0081 107.109 32.0184 107.282 31.9932C107.454 31.9679 107.62 31.9075 107.769 31.8157Z" fill="#221F1F"/>
<path d="M121.194 78.0916C121.194 74.4361 121.194 70.7856 121.194 67.1351C121.194 65.8023 121.145 64.4695 121.15 63.1416C121.15 58.4425 121.213 53.7482 121.218 49.054C121.218 46.9715 121.179 44.8792 121.12 42.8114C121.047 40.1556 120.89 37.4949 121.032 34.839C121.125 33.1828 122.795 35.2556 122.854 38.3181C122.957 43.7375 122.957 49.1569 122.8 54.6302C122.702 57.8986 122.825 61.2992 122.835 64.6459C122.835 68.3209 122.835 71.9959 122.835 75.6807C122.835 77.9446 122.835 80.2084 122.835 82.4722C122.835 85.9022 122.835 89.3322 122.918 92.7622C122.972 95.4033 123.129 97.9954 123.236 100.602C123.261 101.18 123.305 101.744 123.32 102.322C123.378 104.473 123.271 105.159 122.83 105.63C122.74 105.743 122.638 105.847 122.526 105.938C122.178 106.149 121.875 105.277 121.752 103.704C121.38 99.0342 121.262 94.1048 121.199 89.1558C121.145 85.4808 121.14 81.8058 121.111 78.1063L121.194 78.0916Z" fill="#221F1F"/>
<path d="M158.165 82.2812C157.146 82.3792 156.127 82.4723 155.109 82.5801C154.741 82.6193 154.379 82.7124 154.007 82.7467C152.694 82.8643 151.381 82.9525 150.088 83.0799C149.509 83.1454 148.935 83.2452 148.369 83.3788C147.658 83.6142 146.913 83.7268 146.165 83.712C145.675 83.6532 145.964 81.6932 146.801 81.5364C148.302 81.2446 149.828 81.1051 151.357 81.1199C152.29 81.0674 153.22 80.9545 154.139 80.7818C155.162 80.6642 156.186 80.5564 157.21 80.4437C157.842 80.3751 158.474 80.3114 159.101 80.2281C160.051 80.1105 161.011 80.0125 161.946 79.8312C162.671 79.694 163.367 79.4392 164.072 79.2383C164.229 79.1942 164.376 79.1305 164.538 79.0962C165.125 78.9639 165.336 79.0668 165.547 79.5617C165.6 79.6717 165.648 79.7846 165.689 79.8998C165.746 80.0909 165.727 80.2968 165.636 80.4742C165.544 80.6515 165.388 80.7864 165.199 80.8504C163.933 81.3721 162.604 81.7263 161.246 81.9039C160.232 82.0705 159.203 82.1881 158.185 82.3302L158.165 82.2812Z" fill="#221F1F"/>
</svg>
