<svg width="236" height="173" viewBox="0 0 236 173" fill="none" xmlns="http://www.w3.org/2000/svg">
<path opacity="0.3" d="M128.725 58.6066L142.543 49.4097L156.361 59.2236C156.361 59.2236 140.747 73.2935 128.725 58.6066Z" fill="#231F20"/>
<path d="M21.6297 126.727L21.802 117.921C21.802 116.85 21.802 115.779 21.802 114.713C21.8655 110.938 21.9607 107.167 21.9743 103.397C21.9743 101.723 21.9516 100.039 21.8927 98.3788C21.8655 97.3171 21.7884 96.2464 21.7929 95.1801C21.7929 94.6447 21.7929 94.1093 21.8156 93.574C21.8383 93.0386 21.9108 92.5032 21.9652 91.9723C22.0559 91.3008 22.2826 91.3825 22.6226 91.936C22.8453 92.3053 23.0437 92.6888 23.2164 93.0839C23.4212 93.6172 23.5524 94.1759 23.6063 94.7446C23.6471 95.289 23.7242 95.8335 23.7378 96.3779L23.7831 98.0159C23.8103 99.1048 23.833 100.198 23.8421 101.292C23.8421 103.479 23.7877 105.67 23.6834 107.871C23.561 110.507 23.6562 113.243 23.629 115.933C23.5806 118.892 23.5338 121.85 23.4885 124.808C23.4613 126.623 23.4325 128.438 23.4023 130.253C23.3706 133.007 23.3207 135.779 23.3661 138.51C23.4069 140.634 23.5519 142.716 23.7015 144.799L23.8149 146.16C23.8755 146.764 23.8664 147.373 23.7877 147.975C23.7353 148.292 23.5919 148.587 23.3751 148.823C23.3 148.923 23.2165 149.015 23.1258 149.1C22.9852 149.2 22.8356 149.1 22.6724 148.783C22.4249 148.338 22.2591 147.852 22.1828 147.349C22.0105 146.401 21.9244 145.439 21.8428 144.477C21.7612 143.515 21.7113 142.53 21.6615 141.55C21.5753 139.581 21.5481 137.594 21.5391 135.602C21.5391 132.644 21.5708 129.672 21.5935 126.709L21.6297 126.727Z" fill="#231F20"/>
<path d="M21.2044 36.2874C21.2044 35.5705 21.2406 34.8537 21.2406 34.1322C21.2406 33.8736 21.2044 33.6105 21.2089 33.3473C21.2089 32.4399 21.2452 31.4961 21.2361 30.5705C21.231 30.1596 21.2053 29.7493 21.159 29.341C21.1206 29.0794 21.0979 28.8158 21.091 28.5515C21.0842 28.4185 21.0842 28.2852 21.091 28.1522C21.1118 28.0134 21.1499 27.8777 21.2044 27.7484C21.2724 27.576 21.4265 27.5987 21.6577 27.7484C21.7936 27.8309 21.9252 27.9203 22.0521 28.0161C22.1758 28.1161 22.2647 28.2527 22.306 28.4063C22.3783 28.6636 22.4194 28.9286 22.4284 29.1958C22.4284 29.4635 22.4647 29.7266 22.4737 29.9988C22.4909 30.5411 22.4697 31.0839 22.4103 31.6232C22.3862 32.2858 22.3983 32.9492 22.4465 33.6105C22.4465 34.3364 22.4465 35.0669 22.4465 35.7974L22.4239 37.1585C22.4239 37.8391 22.3921 38.5197 22.4239 39.1958C22.4239 39.7175 22.5281 40.2348 22.578 40.752C22.578 40.8654 22.6143 40.9789 22.6188 41.0923C22.6386 41.2505 22.6034 41.4107 22.5191 41.546C22.429 41.6429 22.3123 41.7108 22.1836 41.7411C22.1156 41.7411 22.0521 41.7865 21.9932 41.8001C21.9408 41.8073 21.8874 41.8024 21.8371 41.7859C21.7869 41.7694 21.741 41.7417 21.703 41.7048C21.5843 41.6136 21.4958 41.4887 21.4492 41.3464C21.2491 40.4087 21.1563 39.4512 21.1726 38.4925V36.3282L21.2044 36.2874Z" fill="#231F20"/>
<path d="M135.403 25.6023C126.218 25.5691 117.035 25.5691 107.853 25.6023L97.8072 25.6976C85.996 25.7309 74.1878 25.7868 62.3826 25.8655C57.1464 25.9109 51.8786 26.0107 46.6787 26.1241L36.6506 26.3646C33.3049 26.4145 29.9592 26.4326 26.618 26.3646C24.5236 26.2557 24.8046 25.9109 26.5636 25.4844C29.4654 24.8249 32.4248 24.4526 35.3994 24.3727C49.0361 24.0325 62.6682 23.8283 76.4273 23.8827C84.651 23.9145 93.2012 23.6967 101.624 23.6286C110.879 23.553 120.133 23.5092 129.387 23.4971H146.474C155.088 23.4971 163.765 23.5742 172.315 23.6196C178.97 23.6604 185.498 23.6196 192.09 23.733C193.541 23.733 194.964 23.7829 196.433 23.8419C197.793 23.8873 198.917 23.978 199.865 24.0597C200.318 24.1005 200.771 24.1414 201.148 24.1913C201.524 24.2412 201.887 24.3002 202.2 24.3682C202.713 24.4723 203.219 24.6103 203.714 24.7811C204.059 24.9274 204.388 25.1115 204.693 25.3301C204.935 25.4767 205.164 25.6437 205.377 25.8292C205.586 26.0742 205.124 26.1876 204.158 26.2239C203.682 26.2239 203.056 26.2557 202.304 26.2602C201.926 26.2602 201.523 26.2511 201.093 26.233L199.706 26.1967C193.876 25.9971 187.842 25.9698 181.726 25.9109L163.189 25.7793C153.95 25.7248 144.665 25.6795 135.399 25.684L135.403 25.6023Z" fill="#231F20"/>
<path d="M208.945 129.609L208.863 121.469C208.863 120.48 208.782 119.491 208.773 118.502C208.746 115.008 208.773 111.514 208.773 108.021C208.773 106.469 208.718 104.913 208.669 103.375C208.623 102.389 208.604 101.4 208.61 100.407C208.626 99.4154 208.694 98.4249 208.814 97.44C208.882 96.823 209.149 96.9046 209.462 97.44C209.653 97.7843 209.818 98.1422 209.956 98.5108C210.042 98.7331 210.124 98.9645 210.196 99.2322L210.301 99.627C210.301 99.7631 210.332 99.8992 210.341 100.044L210.437 101.551L210.482 102.304V103.057L210.509 106.079C210.509 108.093 210.486 110.117 210.441 112.15C210.369 114.577 210.541 117.104 210.591 119.591C210.63 122.313 210.672 125.047 210.718 127.794L210.772 132.848C210.799 135.403 210.772 137.966 210.749 140.507C210.749 142.485 210.772 144.427 210.618 146.406C210.577 146.859 210.559 147.272 210.482 147.721C210.432 148.071 210.358 148.417 210.26 148.756C210.197 148.997 210.102 149.229 209.979 149.445C209.909 149.593 209.807 149.722 209.679 149.823C209.552 149.925 209.403 149.996 209.244 150.031C209.119 150.072 208.99 150.098 208.859 150.108C208.669 150.108 208.564 149.913 208.528 149.613C208.511 149.434 208.511 149.253 208.528 149.073C208.528 148.865 208.573 148.62 208.605 148.347C208.798 146.642 208.906 144.928 208.927 143.211C208.968 141.433 208.981 139.618 208.981 137.794C208.981 135.072 208.959 132.349 208.909 129.627L208.945 129.609Z" fill="#231F20"/>
<path d="M208.773 44.8724C208.818 43.9649 208.868 43.0121 208.881 42.0865C208.881 41.7463 208.845 41.4105 208.854 41.0748C208.894 39.8871 208.869 38.6981 208.782 37.5131C208.736 36.9822 208.65 36.4423 208.578 35.9023C208.526 35.5569 208.498 35.2081 208.496 34.8588C208.504 34.5055 208.557 34.1548 208.655 33.8152C208.709 33.5975 208.918 33.6292 209.167 33.8152C209.307 33.9236 209.436 34.0452 209.552 34.1782C209.622 34.2534 209.686 34.3338 209.743 34.4187C209.775 34.4595 209.793 34.5049 209.824 34.5503C209.839 34.5949 209.851 34.6403 209.861 34.6864L209.942 35.1809L209.988 35.4305L210.01 35.6755L210.101 36.6782C210.172 37.3852 210.199 38.0958 210.183 38.8062C210.151 39.6682 210.278 40.5484 210.273 41.415C210.273 42.3724 210.251 43.3207 210.214 44.2689L210.142 46.0158C210.119 46.9005 210.056 47.7853 210.06 48.6564C210.06 49.337 210.146 50.0176 210.192 50.68C210.192 50.8297 210.228 50.9749 210.228 51.1337C210.228 51.6873 210.142 51.8597 209.743 51.964C209.658 51.9939 209.572 52.0182 209.484 52.0366C209.203 52.0775 208.931 51.8461 208.863 51.4423C208.67 50.2091 208.6 48.9597 208.655 47.7127L208.736 44.8951L208.773 44.8724Z" fill="#231F20"/>
<path d="M132.112 155.961L106.92 156.187L97.7302 156.31C86.9314 156.373 76.1342 156.395 65.3385 156.373H50.9719C47.9163 156.373 44.8563 156.373 41.7916 156.31C40.2593 156.278 38.7225 156.228 37.1901 156.137C35.6393 156.075 34.0944 155.909 32.566 155.638C32.138 155.584 31.7341 155.409 31.4009 155.135C31.3767 155.112 31.3576 155.085 31.3451 155.054C31.3326 155.024 31.3269 154.991 31.3284 154.958C31.3371 154.92 31.3559 154.886 31.3828 154.858C31.4372 154.817 31.478 154.776 31.5097 154.749C31.5414 154.722 31.546 154.699 31.5505 154.708C31.555 154.717 31.5913 154.804 31.7228 154.822C32.0401 154.844 32.3589 154.837 32.6748 154.799C35.3508 154.548 38.0391 154.451 40.7263 154.509C46.9371 154.654 53.1661 154.663 59.4087 154.686L78.1864 154.745C85.7029 154.781 93.5277 154.572 101.216 154.459L126.604 154.091L142.217 153.855C150.096 153.724 158.016 153.615 165.841 153.429C171.921 153.284 177.878 153.02 183.893 152.83C185.217 152.789 186.514 152.73 187.851 152.707C192.802 152.612 194.397 152.771 195.454 153.365C195.698 153.478 195.928 153.62 196.138 153.787C196.351 154.023 195.975 154.182 195.087 154.323C193.733 154.503 192.371 154.611 191.006 154.645C180.28 155.098 168.947 155.362 157.568 155.552L132.153 155.965L132.112 155.961Z" fill="#231F20"/>
<path d="M105.704 77.1586L105.631 68.2974C105.631 67.2221 105.568 66.1468 105.563 65.0669L105.532 53.6786C105.532 51.9907 105.491 50.2984 105.45 48.6287C105.359 46.4709 105.41 44.3095 105.604 42.1586C105.677 41.4735 105.799 41.5915 105.971 42.1586C106.25 43.0831 106.446 44.0306 106.556 44.9898L106.674 46.6278L106.728 47.449L106.756 48.2702C106.778 49.3682 106.806 50.4617 106.833 51.5597C106.878 53.7557 106.892 55.9562 106.833 58.1659C106.787 60.811 106.923 63.5606 106.964 66.2648C107.01 69.2381 107.052 72.213 107.091 75.1894C107.118 77.0043 107.144 78.8343 107.168 80.6794C107.218 83.4517 107.245 86.2375 107.336 88.9871C107.404 91.1241 107.558 93.2203 107.671 95.3391C107.671 95.7929 107.735 96.2466 107.748 96.732C107.812 98.4698 107.748 99.0369 107.34 99.4135C107.268 99.5028 107.188 99.5849 107.1 99.6585C106.846 99.8219 106.543 99.1232 106.443 97.8437C106.103 94.0733 105.953 90.0896 105.844 86.0923C105.781 83.1205 105.717 80.135 105.659 77.154L105.704 77.1586Z" fill="#231F20"/>
<path d="M116.19 69.9495L116.086 60.9568C116.086 59.8633 116.022 58.7698 116.013 57.6764C115.995 53.8198 115.995 49.9646 116.013 46.1111C116.013 44.4005 116.013 42.6809 116.013 40.9795C115.938 38.7828 116.063 36.5838 116.385 34.4096C116.562 33.6973 116.662 33.8652 116.757 34.4368C116.82 34.7318 116.888 35.1356 116.983 35.6301L117.115 36.4287L117.174 36.8824L117.196 37.3361L117.269 38.9967L117.314 39.827V40.6573C117.314 41.7674 117.326 42.8791 117.351 43.9922C117.373 46.2154 117.382 48.4477 117.328 50.6936C117.274 53.3751 117.41 56.1655 117.459 58.9105C117.505 61.9353 117.553 64.9601 117.605 67.9849L117.7 73.5566C117.759 76.3696 117.799 79.1963 117.899 81.9867C117.976 84.16 118.13 86.2834 118.244 88.4295C118.266 88.8832 118.303 89.3642 118.316 89.8406C118.366 91.6146 118.285 92.1863 117.863 92.5629C117.786 92.6503 117.702 92.7322 117.614 92.8079C117.355 92.9622 117.074 92.2589 116.983 90.9703C116.671 87.1546 116.503 83.1119 116.38 79.0511C116.308 76.0384 116.231 73.0076 116.158 69.9767L116.19 69.9495Z" fill="#231F20"/>
<path d="M81.9755 104.056L72.827 104.033C71.7117 104.033 70.601 104.078 69.4903 104.065L57.7033 103.938C55.9624 103.938 54.2125 103.938 52.4853 103.938C50.2639 103.938 48.0379 103.983 45.812 103.788C45.1184 103.733 45.2226 103.52 45.812 103.307C46.7643 103.015 47.7537 102.862 48.7497 102.853C53.2832 102.722 57.7894 102.704 62.3501 102.767C65.0702 102.812 67.9217 102.69 70.7144 102.649L79.9309 102.576L85.6023 102.522C88.4629 102.49 91.3417 102.472 94.1796 102.4C96.392 102.341 98.5544 102.186 100.74 102.086C101.22 102.064 101.687 102.023 102.177 102.014C103.99 101.964 104.566 102.077 104.942 102.508C105.035 102.598 105.118 102.697 105.191 102.803C105.341 103.139 104.629 103.393 103.324 103.502C99.4339 103.824 95.3175 103.956 91.183 104.019L81.9528 104.092L81.9755 104.056Z" fill="#231F20"/>
<path d="M164.022 95.6254L153.305 95.5483H149.397L135.615 95.4167C133.58 95.4167 131.535 95.4167 129.509 95.4439C126.906 95.4666 124.309 95.5574 121.688 95.3804C120.863 95.3214 121.004 95.0537 121.688 94.8042C122.8 94.4554 123.959 94.2794 125.125 94.2824C130.42 94.2234 135.724 94.178 141.069 94.2824C144.27 94.3459 147.597 94.237 150.866 94.2143L161.66 94.169H168.306C171.656 94.1463 175.025 94.169 178.352 94.0828C180.941 94.0329 183.475 93.8877 186.032 93.7878C186.594 93.7878 187.147 93.7243 187.714 93.7107C189.817 93.6563 190.498 93.7652 190.946 94.1917C191.058 94.2771 191.159 94.3762 191.246 94.4866C191.45 94.8178 190.593 95.0946 189.056 95.2035C184.491 95.5211 179.667 95.5982 174.83 95.6572L164.017 95.6889L164.022 95.6254Z" fill="#231F20"/>
<path d="M194.42 47.9214C194.524 46.3878 194.628 44.8542 194.71 43.3206C194.737 42.7626 194.71 42.1999 194.751 41.6419C194.86 39.6727 194.946 37.7036 194.982 35.7435C194.982 34.8724 194.955 33.9967 194.869 33.1392C194.764 32.0457 194.597 30.9477 194.415 29.9314C194.356 29.6092 194.551 29.5412 194.869 29.7408C195.076 29.8781 195.259 30.05 195.408 30.249C195.592 30.51 195.727 30.802 195.807 31.111C196.026 32.2644 196.164 33.4319 196.22 34.6047C196.251 35.1854 196.27 35.7617 196.265 36.3424C196.26 36.9232 196.265 37.4994 196.211 38.0802C196.12 39.464 196.179 40.9023 196.138 42.3134C196.093 43.8651 196.02 45.4168 195.952 46.964L195.816 49.827C195.753 51.2653 195.667 52.7172 195.653 54.1509C195.653 55.2625 195.721 56.356 195.762 57.4586C195.762 57.699 195.798 57.935 195.803 58.18C195.803 59.0874 195.712 59.3732 195.286 59.5411C195.2 59.5899 195.11 59.6324 195.018 59.6682C194.737 59.7498 194.433 59.3732 194.365 58.7108C194.161 56.6698 194.105 54.6166 194.198 52.5675C194.243 51.0157 194.311 49.464 194.393 47.9123L194.42 47.9214Z" fill="#231F20"/>
<path d="M135.012 35.2264C132.789 36.4655 130.883 38.2034 129.444 40.3037C128.004 42.404 127.071 44.8095 126.716 47.3316C126.307 50.8288 127.059 54.3637 128.856 57.3906C129.701 58.7991 130.773 60.0579 132.029 61.1156C133.306 62.161 134.728 63.0154 136.25 63.6519C136.626 63.8198 137.03 63.9241 137.415 64.0648L138.005 64.2644L138.612 64.4051C139.016 64.4913 139.415 64.6002 139.823 64.6682L141.065 64.8361C141.43 64.88 141.798 64.9012 142.166 64.8996C142.534 64.8996 142.905 64.9359 143.272 64.8996C144.011 64.8702 144.747 64.7929 145.476 64.6682C145.838 64.6002 146.201 64.5457 146.559 64.4686L147.625 64.1691L148.151 64.0194L148.663 63.8152L149.683 63.4114C151.378 62.6151 152.922 61.5313 154.248 60.2082C154.561 59.8633 154.901 59.5457 155.196 59.1828L156.039 58.0711C156.583 57.3135 157.054 56.5052 157.444 55.6574C157.693 55.131 157.861 54.9178 157.984 54.9813C158.106 55.0448 158.169 55.3761 158.12 55.916C158.039 56.6557 157.843 57.3782 157.539 58.0575C157.339 58.5147 157.096 58.9521 156.814 59.3643C156.525 59.8553 156.181 60.3119 155.789 60.7254L155.25 61.2926C155.079 61.4899 154.89 61.6721 154.688 61.837L153.486 62.8352L152.181 63.6973C151.964 63.8419 151.737 63.9693 151.501 64.0784L150.807 64.4368C147.044 66.259 142.772 66.7393 138.698 65.798C136.668 65.3577 134.737 64.5438 133.004 63.3978C131.96 62.7106 130.988 61.9202 130.103 61.0385C127.413 58.3055 125.743 54.73 125.374 50.9114C125.122 48.1399 125.557 45.3488 126.639 42.7853C127.708 40.2313 129.353 37.9593 131.445 36.1474C132.732 35.0392 134.171 34.1224 135.72 33.4251C137.272 32.7274 138.921 32.2729 140.611 32.0775C143.161 31.7946 145.741 32.0702 148.173 32.8852C150.602 33.6975 152.798 35.0861 154.574 36.9323C155.943 38.3352 157.069 39.9558 157.907 41.7282C158.751 43.4911 159.319 45.3732 159.593 47.3089C159.643 47.7399 159.688 48.1664 159.738 48.5929C159.788 49.0194 159.738 49.4505 159.761 49.886C159.766 50.2591 159.745 50.6322 159.697 51.0022C159.661 51.3379 159.629 51.6404 159.602 51.9096C159.493 52.4632 159.38 52.9033 159.276 53.2708C159.199 53.5683 159.078 53.8528 158.918 54.1147C158.719 54.4409 158.467 54.7322 158.174 54.9768C158.002 55.0766 157.952 54.7953 158.02 54.2372C158.043 53.9559 158.124 53.6111 158.183 53.1937C158.242 52.7762 158.296 52.2862 158.373 51.7418C158.69 48.4079 158.071 45.0518 156.587 42.0503C155.123 38.9743 152.691 36.4639 149.665 34.9042C147.373 33.8018 144.858 33.2458 142.316 33.2799C139.774 33.32 137.281 33.992 135.062 35.2354L135.012 35.2264Z" fill="#231F20"/>
<path d="M140.49 42.1726C140.49 41.4194 140.53 40.6617 140.535 39.904C140.535 39.6273 140.503 39.3505 140.508 39.0737C140.508 38.1027 140.544 37.1227 140.535 36.1472C140.535 35.6935 140.512 35.2806 140.48 34.8541C140.403 34.3056 140.386 33.7502 140.431 33.198C140.458 33.0211 140.685 33.0302 140.925 33.1617C141.061 33.2309 141.18 33.3295 141.273 33.4503C141.366 33.5712 141.432 33.7113 141.464 33.8605C141.64 34.9796 141.693 36.1146 141.623 37.2452C141.578 37.9303 141.673 38.6336 141.691 39.3278C141.714 40.0946 141.718 40.8614 141.723 41.6282V43.0574C141.723 43.7697 141.723 44.4866 141.723 45.1944C141.745 45.7479 141.841 46.2833 141.904 46.8278C141.926 46.946 141.936 47.066 141.936 47.1862C141.933 47.282 141.924 47.3775 141.909 47.4721C141.887 47.5409 141.853 47.6053 141.809 47.6626C141.731 47.7622 141.625 47.8364 141.505 47.8759C141.449 47.9003 141.391 47.9215 141.333 47.9394C141.161 47.9802 140.97 47.7987 140.802 47.4857C140.648 47.0051 140.558 46.5062 140.535 46.002C140.49 45.5029 140.471 44.9948 140.458 44.4821C140.458 43.7243 140.458 42.9621 140.458 42.2135L140.49 42.1726Z" fill="#231F20"/>
<path d="M143.949 41.4326C143.949 40.7021 143.976 39.9716 143.949 39.2366C143.949 38.9689 143.917 38.7012 143.917 38.4335V35.5932C143.917 35.1713 143.917 34.7493 143.881 34.3319C143.831 33.7962 143.831 33.2569 143.881 32.7212C143.922 32.3854 144.566 32.7983 144.625 33.4063C144.734 34.4931 144.77 35.586 144.733 36.6776C144.706 37.3355 144.788 38.0388 144.815 38.6921C144.838 39.4362 144.856 40.1803 144.856 40.9244V42.2856C144.856 42.9798 144.829 43.674 144.811 44.3636C144.811 44.899 144.847 45.4253 144.856 45.9607C144.865 46.077 144.865 46.1938 144.856 46.3101C144.854 46.4705 144.809 46.6275 144.724 46.7638C144.667 46.8499 144.583 46.914 144.484 46.9453C144.442 46.9671 144.398 46.9838 144.353 46.9952C144.226 47.027 144.099 46.8364 144.004 46.5143C143.929 46.0402 143.897 45.5603 143.908 45.0805C143.908 44.595 143.908 44.105 143.908 43.615C143.908 42.8845 143.908 42.1495 143.908 41.4145L143.949 41.4326Z" fill="#231F20"/>
<path d="M134.477 49.536L132.342 49.5133C132.084 49.5133 131.825 49.5405 131.562 49.536L128.806 49.477C128.398 49.477 127.99 49.477 127.586 49.5087C127.065 49.5564 126.54 49.5427 126.022 49.4679C125.859 49.4361 125.882 49.2501 126.022 49.055C126.099 48.9369 126.198 48.8357 126.315 48.7577C126.432 48.6797 126.564 48.6264 126.702 48.6013C127.225 48.5431 127.75 48.5143 128.275 48.5151C128.806 48.5151 129.332 48.5151 129.867 48.5559C130.506 48.5968 131.168 48.5287 131.821 48.5106L133.974 48.4879H135.302C135.973 48.4879 136.662 48.4879 137.315 48.4606C137.832 48.4606 138.34 48.3608 138.857 48.3154C138.97 48.3154 139.079 48.2837 139.197 48.2837C139.618 48.2837 139.754 48.3472 139.836 48.6467C139.857 48.7121 139.873 48.7788 139.886 48.8463C139.922 49.0732 139.745 49.2637 139.432 49.3C138.504 49.4497 137.566 49.521 136.626 49.5133H134.482L134.477 49.536Z" fill="#231F20"/>
<path d="M152.811 52.6898L150.862 51.4829C150.621 51.3377 150.376 51.2061 150.141 51.0564C149.311 50.521 148.491 49.972 147.675 49.4184C147.312 49.1734 146.94 48.9284 146.573 48.697C146.091 48.4107 145.635 48.0812 145.213 47.7125C144.954 47.4811 145.634 47.2996 146.169 47.6263C147.126 48.2116 148.087 48.7832 149.021 49.4411C149.579 49.8359 150.222 50.1399 150.834 50.4847C151.505 50.8613 152.167 51.256 152.829 51.6462L154.053 52.3676C154.674 52.7261 155.291 53.1072 155.912 53.4566C156.397 53.7333 156.896 53.9602 157.385 54.2188C157.494 54.2733 157.603 54.3232 157.707 54.3867C158.097 54.6226 158.183 54.7542 158.12 55.0219C158.12 55.0809 158.097 55.1489 158.079 55.2034C158.006 55.3894 157.757 55.4302 157.453 55.2987C156.535 54.8846 155.644 54.4149 154.783 53.8921L152.811 52.717V52.6898Z" fill="#231F20"/>
<path d="M145.45 52.3676L143.373 50.9474C143.201 50.8295 143.029 50.716 142.856 50.6117L142.725 50.5255C142.725 50.5255 142.689 50.4937 142.671 50.4937C142.65 50.5017 142.63 50.5123 142.612 50.5255L142.426 50.6344L141.882 50.9611C141.356 51.2787 140.844 51.6235 140.313 51.9366L134.719 55.2578C133.898 55.7569 133.078 56.2787 132.271 56.7868C131.254 57.4811 130.194 58.11 129.097 58.6698C128.748 58.8376 128.716 58.6698 128.898 58.3567C129.021 58.1454 129.162 57.945 129.319 57.7578C129.522 57.4997 129.764 57.2747 130.036 57.0908C131.074 56.3785 132.103 55.6616 133.168 54.9901C134.234 54.3186 135.317 53.6834 136.419 53.0618C137.734 52.3177 139.035 51.4239 140.349 50.6026L141.433 49.9311L141.972 49.5954L142.385 49.3413L142.607 49.2188L142.661 49.187L142.716 49.2142L142.834 49.2732C142.983 49.3504 143.137 49.4229 143.287 49.5092L143.591 49.6906C143.781 49.8041 143.958 49.9266 144.139 50.04C144.502 50.2714 144.856 50.4937 145.214 50.7478L147.811 52.5309L151.715 55.2533C152.726 55.952 153.755 56.5781 154.766 57.2587C154.988 57.413 155.219 57.5536 155.432 57.7124C155.726 57.9234 155.99 58.1738 156.217 58.4565C156.332 58.6234 156.384 58.8264 156.362 59.0282C156.367 59.1022 156.367 59.1765 156.362 59.2505C156.334 59.3458 156.217 59.3503 156.013 59.3186C155.736 59.2604 155.473 59.1512 155.237 58.9964C153.424 57.8848 151.543 56.5826 149.666 55.285C148.274 54.3231 146.878 53.3386 145.472 52.3903L145.45 52.3676Z" fill="#231F20"/>
<path d="M159.992 77.5397H154.302C153.613 77.5397 152.942 77.5941 152.23 77.5987L144.913 77.6486C143.83 77.6486 142.742 77.6939 141.672 77.7302C140.286 77.8255 138.896 77.8255 137.51 77.7302C137.057 77.6894 137.147 77.4535 137.51 77.2221C138.067 76.9174 138.689 76.7509 139.323 76.7366C142.121 76.6368 144.931 76.5188 147.774 76.5642C149.469 76.5642 151.237 76.4598 152.969 76.4099L158.7 76.2738L162.231 76.2057L167.567 76.0968C168.927 76.0515 170.287 75.938 171.647 75.8791C171.951 75.8791 172.246 75.8382 172.554 75.8337C172.957 75.8061 173.361 75.8459 173.751 75.9516C173.859 75.9806 173.96 76.0313 174.048 76.1008C174.136 76.1702 174.209 76.2568 174.263 76.3555C174.32 76.4366 174.368 76.5232 174.408 76.6141C174.499 76.8954 174.032 77.1222 173.225 77.2039C170.822 77.3854 168.274 77.4444 165.713 77.4761L159.983 77.5487L159.992 77.5397Z" fill="#231F20"/>
<path d="M73.6205 130.131H67.795C67.0878 130.131 66.3805 130.185 65.6733 130.185L58.1749 130.208C57.0688 130.208 55.9535 130.249 54.8519 130.29C53.4317 130.392 52.0061 130.392 50.5859 130.29C50.1325 130.244 50.2187 129.977 50.5859 129.718C51.1437 129.371 51.7836 129.178 52.4401 129.16C55.3052 129.056 58.1885 128.933 61.099 129.001C62.8353 129.033 64.6442 128.897 66.4213 128.851L72.3148 128.724L75.9416 128.661C77.755 128.624 79.6001 128.615 81.4135 128.556C82.8189 128.511 84.2016 128.379 85.6025 128.311C85.9107 128.311 86.2145 128.266 86.5092 128.262C86.923 128.229 87.3393 128.272 87.7377 128.389C87.8519 128.424 87.9576 128.482 88.0481 128.56C88.1386 128.638 88.212 128.734 88.2636 128.842C88.3201 128.935 88.3686 129.032 88.4087 129.133C88.4994 129.459 88.0188 129.718 87.1937 129.813C84.7366 130.026 82.1298 130.085 79.4868 130.117L73.616 130.176L73.6205 130.131Z" fill="#231F20"/>
<path d="M161.049 82.2587C160.07 82.2269 159.086 82.2042 158.107 82.1906C157.749 82.1906 157.391 82.2224 157.033 82.2133C155.772 82.1906 154.507 82.1543 153.243 82.1543C152.68 82.1543 152.118 82.1543 151.561 82.1997C150.843 82.2746 150.12 82.2746 149.403 82.1997C149.176 82.1634 149.212 81.9229 149.403 81.6779C149.513 81.5286 149.652 81.4033 149.811 81.3097C149.971 81.2161 150.148 81.1561 150.332 81.1335C151.053 81.0745 151.778 81.02 152.508 80.9883C153.238 80.9565 153.973 80.9883 154.711 81.0291C155.596 81.0881 156.525 80.9883 157.409 80.9747C158.397 80.9747 159.39 80.9747 160.383 80.9747H162.196C163.103 80.9747 164.05 80.9974 164.971 80.9747C165.687 80.9747 166.39 80.8748 167.106 80.8476C167.265 80.8386 167.423 80.8386 167.582 80.8476C168.18 80.8975 168.366 81.0291 168.448 81.3694C168.471 81.445 168.488 81.5224 168.498 81.6008C168.52 81.8594 168.258 82.0545 167.849 82.1135C166.574 82.2791 165.287 82.3473 164.001 82.3177C163.017 82.3177 162.029 82.2905 161.04 82.2859L161.049 82.2587Z" fill="#231F20"/>
<path d="M78.4399 137.935C77.4607 137.903 76.4769 137.876 75.4977 137.867C75.1395 137.867 74.7814 137.894 74.4233 137.889C73.163 137.867 71.8981 137.83 70.6333 137.826C70.0711 137.826 69.509 137.826 68.9513 137.876C68.2339 137.948 67.5109 137.948 66.7934 137.876C66.5667 137.839 66.603 137.599 66.7934 137.349C66.901 137.203 67.0366 137.081 67.1923 136.988C67.348 136.895 67.5207 136.834 67.7001 136.809C68.4209 136.746 69.1463 136.691 69.8762 136.664C70.6061 136.637 71.3405 136.664 72.0795 136.705C72.9635 136.76 73.8928 136.664 74.7769 136.651C75.7652 136.651 76.758 136.651 77.7508 136.651H79.5642C80.4709 136.651 81.4184 136.673 82.3387 136.651C83.055 136.651 83.7577 136.555 84.474 136.528C84.625 136.52 84.7763 136.52 84.9273 136.528C85.5257 136.578 85.7161 136.71 85.7932 137.05C85.8163 137.127 85.833 137.206 85.8431 137.286C85.8658 137.54 85.6028 137.74 85.1948 137.794C83.9187 137.959 82.6322 138.029 81.3459 138.003C80.3621 138.003 79.3738 137.971 78.3855 137.971L78.4399 137.935Z" fill="#231F20"/>
<path d="M181.318 34.314C180.13 34.2823 178.943 34.255 177.75 34.2414C177.32 34.2414 176.884 34.2732 176.449 34.2641C174.921 34.2414 173.389 34.2006 171.861 34.196C171.181 34.196 170.501 34.196 169.826 34.246C168.957 34.3186 168.083 34.3186 167.214 34.246C166.942 34.2142 166.983 33.9692 167.214 33.7242C167.511 33.4105 167.913 33.2168 168.343 33.1797C169.223 33.1162 170.107 33.0617 170.991 33.0345C171.875 33.0073 172.763 33.0345 173.656 33.0754C174.722 33.1343 175.833 33.0391 176.921 33.0254H180.52H182.737C183.857 33.0254 185.004 33.0527 186.096 33.0254C186.958 33.0254 187.81 32.9256 188.676 32.8939C188.866 32.8939 189.052 32.8712 189.247 32.8939C189.963 32.9347 190.204 33.0799 190.308 33.4202C190.336 33.4955 190.359 33.5729 190.376 33.6516C190.408 33.9102 190.095 34.1053 189.605 34.1552C188.049 34.3233 186.483 34.396 184.918 34.373L181.332 34.3458L181.318 34.314Z" fill="#231F20"/>
<g opacity="0.4">
<path d="M181 36.9953C181.412 37.0225 181.83 37.0271 182.251 37.0225C182.405 37.0225 182.559 36.9817 182.705 36.9817H184.364C184.61 36.9788 184.855 36.9621 185.099 36.9318C185.414 36.8615 185.74 36.8615 186.055 36.9318C186.155 36.959 186.137 37.1814 186.055 37.4082C185.974 37.6351 185.838 37.862 185.67 37.862C185.057 37.9756 184.432 38.0091 183.811 37.9618C183.421 37.9607 183.031 37.991 182.646 38.0526C182.215 38.0798 181.775 38.0934 181.34 38.1025H180.528C180.116 38.1025 179.703 38.0571 179.286 38.0481C178.964 38.0481 178.638 38.0753 178.298 38.0481C178.222 38.0548 178.146 38.0548 178.071 38.0481C177.794 37.9981 177.744 37.8484 177.799 37.5353C177.799 37.4672 177.799 37.3992 177.835 37.3356C177.858 37.2313 177.908 37.1347 177.98 37.0552C178.051 36.9757 178.142 36.916 178.243 36.8819C178.751 36.8297 179.263 36.8297 179.771 36.8819C180.166 36.8819 180.569 36.9318 180.986 36.9272L181 36.9953Z" fill="#231F20"/>
</g>
<g opacity="0.4">
<path d="M74.3194 64.1965C74.732 64.2237 75.1537 64.2282 75.5753 64.2237C75.7295 64.2237 75.8791 64.1829 76.0287 64.1829H77.6882C77.9352 64.1798 78.182 64.1631 78.4272 64.133C78.7407 64.0626 79.0658 64.0626 79.3793 64.133C79.4791 64.1602 79.4655 64.3825 79.3793 64.6094C79.2932 64.8363 79.1617 65.0632 78.9939 65.0632C78.3827 65.1762 77.7596 65.2112 77.1396 65.1676C76.7479 65.1627 76.3565 65.1916 75.9698 65.2538C75.5164 65.281 75.1038 65.2946 74.664 65.3037H73.8524C73.4398 65.3037 73.0272 65.2583 72.6146 65.2492C72.2927 65.2492 71.9617 65.281 71.6262 65.2492C71.5508 65.2561 71.4749 65.2561 71.3995 65.2492C71.1184 65.1993 71.0686 65.0496 71.123 64.7365C71.123 64.6684 71.123 64.6003 71.1592 64.5368C71.1841 64.4331 71.2344 64.3373 71.3057 64.2581C71.377 64.1788 71.4669 64.1187 71.5673 64.083C72.0753 64.0309 72.5873 64.0309 73.0952 64.083C73.4942 64.083 73.8978 64.133 74.3103 64.1284L74.3194 64.1965Z" fill="#231F20"/>
</g>
<path d="M70.2895 43.2069C68.0724 41.1922 65.1888 45.6573 67.891 46.7645C70.7338 47.9306 72.5837 42.9392 69.1469 43.0617" fill="#231F20"/>
<path d="M69.7951 47.5229C69.3215 47.6873 68.8123 47.7202 68.3215 47.6182C67.8508 47.5238 67.4094 47.3185 67.0339 47.0192C66.7317 46.7925 66.4941 46.4906 66.3447 46.1435C66.1321 45.5538 66.15 44.9055 66.3946 44.3284C66.594 43.8126 66.9181 43.3542 67.3377 42.9943C67.7038 42.6548 68.1475 42.4102 68.6299 42.2819C68.9583 42.1958 69.3034 42.1958 69.6319 42.2819C69.9506 42.3705 70.2321 42.5599 70.4344 42.8219C70.5613 42.9807 70.3482 43.1395 70.0807 43.2756C69.8521 43.3963 69.603 43.4732 69.3462 43.5025C69.0447 43.4495 68.7343 43.511 68.4757 43.675C68.1323 43.8877 67.8348 44.1669 67.6006 44.4963C67.459 44.7037 67.3817 44.9484 67.3785 45.1996C67.3731 45.4179 67.4331 45.6329 67.5508 45.8168C67.7143 46.0336 67.9306 46.205 68.179 46.3146C68.4273 46.4242 68.6996 46.4684 68.9699 46.443C69.3312 46.4009 69.6689 46.2415 69.9311 45.9892C70.147 45.8019 70.3194 45.5696 70.4361 45.3085C70.5528 45.0475 70.611 44.7641 70.6067 44.4781C70.5934 44.2882 70.5149 44.1086 70.3845 43.9699C70.2566 43.8555 70.0998 43.7786 69.9311 43.7476L69.6999 43.7113C69.3961 43.6523 69.2827 43.6069 69.1921 43.2257C69.1921 43.144 69.1422 43.0669 69.1286 42.9988C69.1193 42.926 69.126 42.852 69.1482 42.7821C69.1705 42.7121 69.2077 42.6478 69.2574 42.5938C69.3071 42.5398 69.368 42.4972 69.4358 42.4692C69.5036 42.4412 69.5767 42.4284 69.65 42.4316C69.9797 42.3904 70.3144 42.4309 70.6248 42.5496C70.9947 42.6967 71.311 42.9532 71.5316 43.2847C71.7467 43.6156 71.8703 43.9976 71.8898 44.3919C71.9083 44.7437 71.8622 45.0959 71.7538 45.431C71.6063 45.9026 71.3554 46.3352 71.0193 46.6971C70.6818 47.0723 70.2587 47.3603 69.786 47.5365L69.7951 47.5229Z" fill="#231F20"/>
<path d="M81.061 43.2069C78.8439 41.1922 75.9603 45.6573 78.6625 46.7645C81.5053 47.9306 83.3552 42.9392 79.9184 43.0617" fill="#231F20"/>
<path d="M80.5714 47.5229C80.0962 47.6872 79.5856 47.7202 79.0933 47.6182C78.6226 47.5238 78.1812 47.3185 77.8057 47.0192C77.5118 46.7908 77.2834 46.4886 77.1437 46.1435C76.9297 45.5543 76.9459 44.9061 77.189 44.3284C77.3885 43.8126 77.7125 43.3542 78.1321 42.9943C78.4982 42.6548 78.9419 42.4102 79.4243 42.2819C79.7527 42.1958 80.0978 42.1958 80.4263 42.2819C80.745 42.3705 81.0265 42.5599 81.2288 42.8219C81.3558 42.9807 81.1427 43.1395 80.8751 43.2756C80.6465 43.3963 80.3974 43.4732 80.1406 43.5025C79.8391 43.4495 79.5287 43.511 79.2701 43.675C78.9272 43.8867 78.631 44.1662 78.3996 44.4963C78.2546 44.7023 78.1755 44.9476 78.1729 45.1996C78.1675 45.4179 78.2275 45.6329 78.3452 45.8168C78.5094 46.034 78.7265 46.2055 78.9757 46.3151C79.2248 46.4247 79.4979 46.4687 79.7689 46.443C80.1285 46.3996 80.4643 46.2404 80.7255 45.9892C80.9414 45.8019 81.1138 45.5696 81.2305 45.3085C81.3472 45.0475 81.4054 44.7641 81.4011 44.4781C81.3921 44.2871 81.313 44.1061 81.1789 43.9699C81.0574 43.8591 80.9088 43.7825 80.7482 43.7476L80.517 43.7113C80.2177 43.6523 80.0998 43.6069 80.0092 43.2257C80.0092 43.144 79.9593 43.0669 79.9457 42.9988C79.9364 42.926 79.9431 42.852 79.9653 42.7821C79.9876 42.7121 80.0248 42.6478 80.0745 42.5938C80.1242 42.5398 80.1851 42.4972 80.2529 42.4692C80.3207 42.4412 80.3938 42.4284 80.4671 42.4316C80.7968 42.3904 81.1315 42.4309 81.4419 42.5496C81.8118 42.6967 82.1281 42.9532 82.3487 43.2847C82.5638 43.6156 82.6874 43.9976 82.7069 44.3919C82.7254 44.7437 82.6793 45.0959 82.5709 45.431C82.4234 45.9026 82.1725 46.3352 81.8364 46.6971C81.4989 47.0723 81.0758 47.3603 80.6031 47.5365L80.5714 47.5229Z" fill="#231F20"/>
<path d="M45.7211 61.8144C46.0838 61.4923 46.4147 61.22 46.8091 60.907C47.2056 60.6098 47.6189 60.3356 48.0468 60.0857C48.8582 59.6048 49.6697 59.1783 50.4812 58.77C52.1042 57.9397 53.7272 57.1638 55.2958 56.3335C55.867 56.025 56.4201 55.7028 56.946 55.3625C57.4363 55.0641 57.8924 54.7127 58.306 54.3144C58.4012 54.1919 58.4148 54.1874 58.4284 54.1193C58.442 54.0513 58.4284 53.9469 58.4284 53.8698C58.4332 53.7806 58.4332 53.6913 58.4284 53.6021C58.4069 53.4403 58.3496 53.2852 58.2607 53.1484C58.0229 52.8407 57.6947 52.6154 57.3222 52.5041C56.3562 52.2218 55.3468 52.1188 54.3437 52.2001C53.2838 52.2593 52.2311 52.4111 51.1975 52.6538C50.6808 52.7788 50.1709 52.9302 49.6697 53.1075C49.4249 53.1937 49.1801 53.289 48.9534 53.3888L48.6316 53.5522L48.278 53.7564C46.4646 54.7999 44.624 55.7799 42.7471 56.6375C41.5367 57.191 40.3126 57.7128 39.0659 58.1665C37.8124 58.6086 36.5292 58.9619 35.2261 59.2237C34.4146 59.387 34.4418 59.0377 35.0085 58.5159C35.9127 57.7479 36.9375 57.1347 38.0414 56.701C40.5081 55.7942 42.9156 54.7334 45.2496 53.525C45.8344 53.221 46.4102 52.9124 46.9904 52.5903L47.8971 52.0912C48.2404 51.9134 48.5965 51.7618 48.9625 51.6375C50.3085 51.1885 51.7021 50.8977 53.1152 50.7709C54.473 50.6068 55.8476 50.6419 57.1953 50.8752C57.5644 50.9567 57.9244 51.0753 58.2697 51.2291C58.6538 51.395 59.0029 51.632 59.2988 51.9279C59.6174 52.2518 59.8483 52.6515 59.9698 53.0894L60.0423 53.4115L60.0695 53.7337C60.0808 53.8362 60.0808 53.9397 60.0695 54.0422V54.387C60.0394 54.5419 59.9954 54.6938 59.9381 54.8407C59.8781 54.9779 59.802 55.1074 59.7114 55.2264C59.6411 55.3256 59.5638 55.4196 59.4802 55.5077C59.4074 55.5919 59.3286 55.6708 59.2444 55.7436C58.9456 56.0179 58.6258 56.2682 58.2879 56.4923C56.7288 57.4874 55.1121 58.3889 53.4461 59.1919C51.8277 60.0177 50.182 60.8072 48.686 61.7191C48.4548 61.8643 48.2326 62.0095 48.0286 62.1729C47.8246 62.3362 47.6206 62.4995 47.4121 62.6765C46.9904 63.0304 46.587 63.3934 46.2062 63.7699C45.8294 64.1338 45.4907 64.5352 45.1952 64.9678C44.8857 65.4544 44.5482 65.9225 44.1842 66.3698C43.6192 67.0329 43.0136 67.6602 42.3708 68.2482C41.7081 68.8386 40.9883 69.3614 40.222 69.809C38.7125 70.6767 37.1055 71.3621 35.4346 71.8507C32.8937 72.6329 30.2544 73.0485 27.5962 73.0848C27.016 73.0848 26.4402 73.0848 25.8509 73.0485C25.0812 73.0112 24.3194 72.8755 23.5841 72.6447C23.2168 72.5357 22.8972 72.3054 22.6774 71.9914C22.5865 71.8844 22.506 71.7689 22.4372 71.6465C22.3011 71.3153 23.2169 71.1157 24.7039 71.22C26.9746 71.3585 29.2535 71.2612 31.5041 70.9296C33.7749 70.5935 35.9819 69.9159 38.0504 68.9197C38.8062 68.5509 39.5309 68.1215 40.2174 67.6356C40.3806 67.5131 40.5484 67.3952 40.7071 67.2681C40.8657 67.1411 41.0063 67.0231 41.1604 66.8734C41.4823 66.5739 41.7996 66.2745 42.0988 65.966C42.3913 65.6705 42.6682 65.3601 42.9285 65.0358C43.1823 64.7228 43.3818 64.4006 43.6719 63.9923C43.9585 63.5642 44.28 63.1605 44.633 62.7854C44.9776 62.4179 45.3312 62.0776 45.6848 61.7645L45.7211 61.8144Z" fill="#231F20"/>
<path d="M28.6892 38.5612C29.7964 37.5208 31.0338 36.6286 32.3704 35.9069C33.0691 35.5389 33.8066 35.2498 34.5691 35.0449C35.3365 34.8471 36.1251 34.7435 36.9175 34.7363C38.416 34.7385 39.9095 34.9105 41.3693 35.249C42.8019 35.5621 44.1619 35.8933 45.5628 36.2336C47.5893 36.7327 49.6429 37.2136 51.6331 37.8035C53.4057 38.3253 55.1692 38.8879 56.9146 39.5503C57.785 39.877 58.6509 40.2354 59.5032 40.6438C60.3958 41.0479 61.2374 41.5566 62.0102 42.1592C62.2213 42.3309 62.4156 42.5223 62.5905 42.7309C62.8008 42.972 62.9638 43.2506 63.0711 43.5521C63.1956 43.9045 63.2051 44.2874 63.0983 44.6456C62.991 44.9662 62.8163 45.2602 62.586 45.5076C62.1863 45.9088 61.699 46.2117 61.1625 46.3924C60.6883 46.564 60.1976 46.6856 59.6982 46.7554C58.7347 46.9043 57.7553 46.9195 56.7877 46.8007C55.881 46.6918 54.9743 46.5693 54.0313 46.4015C53.0695 46.2431 52.1241 45.9971 51.207 45.6664C50.7536 45.494 50.3003 45.2808 49.8741 45.0721L48.6773 44.4641C48.5919 44.4357 48.4997 44.4357 48.4143 44.4641L47.9111 44.514C47.5666 44.5503 47.213 44.582 46.8639 44.6093C46.1657 44.6592 45.4676 44.6909 44.7649 44.6909C43.5691 44.6865 42.3752 44.5955 41.1925 44.4187C40.8933 44.3824 40.5986 44.328 40.2858 44.2735C39.973 44.2191 39.6965 44.1646 39.4063 44.092C39.1162 44.0194 38.8215 43.9559 38.5314 43.8697L38.078 43.7381L37.865 43.6701L37.7562 43.6383C37.7562 43.6383 37.729 43.6383 37.7244 43.6111C37.6329 43.6086 37.5429 43.6339 37.466 43.6837C37.2847 43.7744 37.0852 43.8924 36.8857 44.0058C36.4868 44.2281 36.0697 44.4595 35.639 44.6456C34.7684 45.0456 33.8365 45.2957 32.8827 45.3851C32.6363 45.4231 32.3856 45.4231 32.1392 45.3851C31.985 45.3534 31.917 45.3125 31.9261 45.2626C31.9352 45.2127 32.2661 45.0403 32.7739 44.8089C33.4443 44.5308 34.0864 44.189 34.6915 43.788C35.0633 43.543 35.4577 43.2708 35.8748 42.9623L36.5593 42.4768L36.7769 42.3407C36.8974 42.2661 37.0249 42.2038 37.1577 42.1546C37.2211 42.1214 37.2905 42.1014 37.3617 42.0957C37.4305 42.0819 37.5002 42.0728 37.5703 42.0684C37.6428 42.0684 37.7108 42.1002 37.7834 42.0684H37.8922H37.9466H37.9919C37.9919 42.0684 37.9919 42.0367 37.9919 42.1047V42.0684H38.0463L38.2956 42.1365L38.4543 42.1773L38.7762 42.259C38.9893 42.3135 39.2295 42.3588 39.4245 42.3951L40.0728 42.5448L40.7256 42.6628C41.5968 42.8148 42.4764 42.9148 43.3595 42.9623C44.2444 43.0099 45.1312 43.0099 46.0161 42.9623C46.4695 42.935 46.9228 42.9033 47.3762 42.8579L48.0653 42.7899H48.2511C48.3536 42.7782 48.457 42.7782 48.5594 42.7899C48.6722 42.7905 48.7846 42.8026 48.8949 42.8262H48.9765H49.0173L49.176 42.8851L50.0827 43.3389C50.3456 43.475 50.604 43.6066 50.8579 43.7245C51.3476 43.9604 51.8536 44.1605 52.3721 44.3234C53.4673 44.6334 54.5841 44.8609 55.7132 45.004L56.5882 45.122C56.8647 45.1537 57.2048 45.2036 57.4224 45.2218C57.9633 45.2541 58.506 45.2435 59.0454 45.19C59.5652 45.1412 60.0778 45.0332 60.5731 44.8679C60.7807 44.7921 60.9797 44.6947 61.167 44.5775C61.3076 44.4595 61.4526 44.3461 61.4889 44.2372C61.5154 44.2047 61.5327 44.1657 61.539 44.1242C61.5454 44.0827 61.5406 44.0403 61.5252 44.0013C61.4379 43.8167 61.3164 43.6504 61.167 43.5113C60.7387 43.1237 60.2635 42.7914 59.7526 42.5222C58.6356 41.9273 57.4746 41.4192 56.2799 41.0022C53.8545 40.122 51.3339 39.4187 48.8269 38.7336C47.4669 38.3661 46.0615 38.0213 44.6697 37.6855C43.2779 37.3498 41.8771 37.0095 40.5034 36.7372C39.1633 36.4505 37.7926 36.3331 36.4233 36.3879C35.1055 36.5147 33.8355 36.9482 32.7149 37.6537C31.2599 38.5578 29.9281 39.6467 28.7527 40.8933C27.5421 42.141 26.4353 43.4854 25.4432 44.9133C22.3559 49.2418 19.5225 53.8289 16.603 58.2753C14.3362 61.7372 12.1556 65.1719 9.5262 68.3751L8.6195 69.4051C8.31123 69.7363 8.00748 70.0766 7.67654 70.4033C6.82577 71.2884 5.85705 72.0518 4.79778 72.6719C4.61644 72.7671 4.46231 72.8579 4.30817 72.9259C4.15403 72.994 4.01349 73.0348 3.88202 73.0757C3.66569 73.155 3.43692 73.1949 3.20653 73.1936C3.03455 73.2077 2.8617 73.2077 2.68972 73.1936C2.50384 73.1528 2.68972 72.9486 3.19293 72.6356C3.91299 72.1 4.59608 71.5164 5.23753 70.8887C6.49368 69.5925 7.65569 68.2082 8.71471 66.7463C9.83447 65.2898 10.9089 63.7608 11.9697 62.2091C14.105 59.1056 16.1813 55.857 18.2667 52.6174C19.8172 50.2036 21.3767 47.7808 23.0042 45.3579C23.8248 44.1556 24.668 42.9623 25.5883 41.7962C26.0416 41.2154 26.5358 40.6347 27.0571 40.0766C27.5785 39.5185 28.0908 39.0194 28.6439 38.5113L28.6892 38.5612Z" fill="#231F20"/>
<path d="M55.6183 47.1411C55.1942 47.2042 54.8103 47.4275 54.5455 47.7651C54.2807 48.1027 54.1552 48.5289 54.1946 48.9562C54.3306 50.195 56.0626 51.1025 57.1644 51.225C60.0389 51.6062 62.8726 47.5949 55.6183 47.1411Z" fill="#231F20"/>
<path d="M60.6552 50.4167C60.3531 50.8629 59.9386 51.2213 59.4537 51.4559C59.0135 51.6794 58.5351 51.818 58.0437 51.8643C57.6876 51.9187 57.3252 51.9187 56.9691 51.8643C56.3887 51.7297 55.8373 51.4915 55.3414 51.1609C54.8304 50.8401 54.4006 50.4052 54.0855 49.8904C53.9325 49.6419 53.8339 49.3637 53.7964 49.0743C53.7589 48.7849 53.7832 48.4907 53.8679 48.2114C53.9788 47.8677 54.1718 47.5562 54.4301 47.3039C54.7 47.0366 55.0616 46.8825 55.4412 46.8728C55.6905 46.8728 55.6225 47.1042 55.5182 47.3266C55.4398 47.5601 55.3443 47.7876 55.2326 48.0072C55.1152 48.1529 55.033 48.3237 54.9923 48.5064C54.9748 48.5884 54.9657 48.672 54.9651 48.7559C54.9538 48.8266 54.9538 48.8986 54.9651 48.9692C55.0832 49.3876 55.3308 49.7578 55.6724 50.0265C56.1721 50.4373 56.7867 50.683 57.4316 50.7298C58.1212 50.7825 58.8041 50.5644 59.3359 50.1218C59.4848 50.0176 59.6047 49.877 59.684 49.7134C59.7634 49.5498 59.7996 49.3686 59.7893 49.187C59.7031 48.6969 59.0548 48.2568 58.3883 48.0707C57.8472 47.9381 57.2898 47.8846 56.7334 47.9119C56.6109 47.9119 56.4885 47.9119 56.3661 47.9119C56.2037 47.9108 56.0456 47.8602 55.9127 47.7667C55.8036 47.639 55.737 47.4804 55.7223 47.313C55.7223 47.2267 55.6815 47.1451 55.6724 47.0634C55.6643 46.9958 55.6715 46.9273 55.6935 46.8629C55.7155 46.7984 55.7517 46.7398 55.7994 46.6913C55.9134 46.5528 56.0752 46.4621 56.2527 46.4372C56.826 46.3423 57.412 46.3561 57.9802 46.478C58.6215 46.5936 59.2362 46.8258 59.7938 47.1632C60.3168 47.4644 60.7275 47.9279 60.9636 48.4837C61.0936 48.812 61.1373 49.1682 61.0905 49.5183C61.0447 49.8406 60.9319 50.1497 60.7595 50.4258L60.6552 50.4167Z" fill="#231F20"/>
<path d="M74.4237 60.2987L71.0191 60.217C70.6066 60.217 70.194 60.217 69.7769 60.217C68.3171 60.1716 66.8574 60.1217 65.3976 60.099C64.7493 60.099 64.101 60.099 63.4573 60.1217C62.6297 60.1754 61.7993 60.1678 60.9729 60.099C60.71 60.0673 60.7462 59.8676 60.9729 59.6453C61.2738 59.3779 61.655 59.2183 62.0564 59.1916C62.8951 59.1326 63.7383 59.0781 64.5816 59.0509C65.4248 59.0237 66.268 59.0509 67.1203 59.0963C68.1403 59.1507 69.1966 59.0645 70.2348 59.0509H75.7793C76.8492 59.0509 77.9191 59.0736 78.9799 59.0509C79.8004 59.0282 80.6119 58.9284 81.4325 58.874C81.6093 58.874 81.7906 58.8377 81.9765 58.8377C82.652 58.815 82.9059 58.9647 83.0011 59.3322C83.0302 59.4147 83.0514 59.4998 83.0645 59.5863C83.0872 59.8631 82.8061 60.0899 82.3483 60.1489C80.8598 60.3153 79.3622 60.3866 77.8646 60.3622L74.4237 60.2987Z" fill="#231F20"/>
<path d="M74.4232 85.6524C72.8591 86.9863 71.286 88.3248 69.6857 89.6406C69.1009 90.1215 68.5387 90.6342 67.9312 91.097C67.4507 91.46 66.9611 91.8184 66.4397 92.1587C66.1722 92.3311 65.9184 92.4899 65.5874 92.6623C65.3911 92.798 65.1656 92.8851 64.9292 92.9167C64.6928 92.9482 64.4523 92.9233 64.2274 92.8438L63.833 92.6306C63.7015 92.5489 63.6289 92.4899 63.5473 92.4355C63.3841 92.322 63.2255 92.2086 63.094 92.0861C62.7948 91.8502 62.5092 91.6097 62.2281 91.3647C61.6705 90.8792 61.1265 90.3801 60.587 89.8856L57.9349 87.5217C57.3818 87.0135 56.8197 86.5144 56.2802 85.9927C55.736 85.4697 55.2314 84.9071 54.7705 84.3094C54.4804 83.9282 54.7161 83.7967 55.2239 83.8556C55.9314 83.9572 56.6002 84.2419 57.1642 84.6814C58.3066 85.6841 59.4854 86.646 60.5779 87.6987C61.6705 88.7513 62.7903 89.7903 63.901 90.7567C64.046 90.8792 64.1956 91.0108 64.3543 91.1152L64.5492 91.2603L64.6263 91.3193C64.6503 91.3337 64.6777 91.3413 64.7056 91.3413C64.7336 91.3413 64.761 91.3337 64.785 91.3193C64.8698 91.2886 64.9505 91.2474 65.0253 91.1968C65.3205 91.0195 65.6065 90.8271 65.8821 90.6206C66.4533 90.1986 67.02 89.7132 67.5867 89.2594C69.187 87.9754 70.7601 86.6369 72.3196 85.2803L73.7613 84.0235L74.4866 83.3928L74.94 83.0026C75.1001 82.8461 75.2918 82.7255 75.5021 82.6487C75.5719 82.6081 75.6539 82.5936 75.7333 82.6079C75.8117 82.6295 75.8889 82.6553 75.9645 82.685C76.1241 82.7444 76.2762 82.822 76.4179 82.9164C76.767 83.1252 76.9075 83.2295 77.1251 83.3702L78.3219 84.205L80.6884 85.8747C81.917 86.7231 83.1682 87.4809 84.4013 88.3021C84.6688 88.4836 84.9454 88.6469 85.2128 88.8375C85.5803 89.0709 85.9092 89.3602 86.1875 89.695C86.329 89.9121 86.3855 90.1738 86.3462 90.43C86.3451 90.5364 86.336 90.6426 86.319 90.7476C86.2737 90.8974 86.1195 90.9382 85.8657 90.9291C85.5101 90.9003 85.1674 90.7834 84.8683 90.5888C82.6015 89.2685 80.3348 87.6714 78.0681 86.0789L76.776 85.2531L76.1504 84.7994L75.8421 84.5907L75.7832 84.5498H75.7605L75.62 84.6723L74.4232 85.7068V85.6524Z" fill="#231F20"/>
<path d="M131.999 127.635L131.972 122.458C131.972 121.832 131.917 121.206 131.913 120.575V113.937C131.913 112.953 131.867 111.963 131.827 110.988C131.799 110.362 131.754 109.736 131.74 109.105C131.729 108.473 131.761 107.841 131.836 107.213C131.881 106.823 132.13 106.877 132.407 107.213C132.772 107.69 133.001 108.258 133.069 108.856C133.209 111.401 133.3 113.955 133.237 116.537C133.191 118.08 133.314 119.681 133.354 121.26L133.45 126.464L133.504 129.672C133.536 131.287 133.554 132.916 133.613 134.522C133.658 135.77 133.79 136.991 133.862 138.229C133.862 138.506 133.907 138.774 133.912 139.051C133.955 139.421 133.921 139.796 133.812 140.153C133.743 140.351 133.6 140.513 133.413 140.607C133.334 140.659 133.251 140.705 133.164 140.743C132.887 140.825 132.652 140.403 132.534 139.677C132.28 137.499 132.148 135.18 132.08 132.871C132.044 131.138 132.012 129.4 131.976 127.662L131.999 127.635Z" fill="#231F20"/>
<path d="M153.759 141.024C152.185 141.024 150.611 141.024 149.04 141.024C148.464 141.024 147.893 141.074 147.317 141.079L141.242 141.11C140.336 141.11 139.429 141.169 138.549 141.224C137.405 141.342 136.252 141.36 135.104 141.278C134.741 141.242 134.782 140.97 135.077 140.679C135.485 140.294 136.006 140.051 136.564 139.985C137.144 139.917 137.729 139.885 138.314 139.858L140.068 139.79C141.242 139.754 142.416 139.754 143.6 139.79C145.014 139.84 146.478 139.717 147.925 139.69C149.511 139.663 151.098 139.649 152.694 139.64H155.627H160.07C161.212 139.64 162.336 139.536 163.479 139.513C163.728 139.513 163.978 139.513 164.231 139.513C165.174 139.545 165.478 139.667 165.637 140.071C165.679 140.153 165.713 140.238 165.741 140.325C165.805 140.579 165.401 140.852 164.735 140.87C162.749 141.001 160.655 141.033 158.515 141.047L153.764 141.079L153.759 141.024Z" fill="#231F20"/>
<path d="M213.56 71.4742C211.704 68.2701 210.142 64.905 208.891 61.4198C208.437 60.1403 208.011 58.8744 207.648 57.5904C206.356 53.0532 205.422 48.4615 203.89 44.0786C203.226 42.1405 202.42 40.2539 201.478 38.4343C201.168 37.8916 200.807 37.3796 200.399 36.9053C199.99 36.4449 199.534 36.0283 199.039 35.6621C197.996 34.9329 196.862 34.3426 195.666 33.9062C194.909 33.6067 195.086 33.3708 195.848 33.2891C196.363 33.2494 196.881 33.2768 197.389 33.3708C198.129 33.4941 198.84 33.7508 199.488 34.1285C200.787 34.9073 201.87 35.9992 202.639 37.3046C202.843 37.6176 203.006 37.9398 203.183 38.2664L203.636 39.2011C203.945 39.8227 204.203 40.4624 204.484 41.0976C205.503 43.6512 206.327 46.2781 206.95 48.9561C207.734 52.1321 208.641 55.408 209.607 58.5749C210.12 60.3149 210.725 62.0263 211.42 63.702C212.1 65.3807 212.903 67.0141 213.737 68.6339C214.793 70.6076 215.908 72.5631 217.151 74.4279C218.996 77.2805 221.072 79.9771 223.357 82.4905C224.227 83.466 225.17 84.3417 226.122 85.2128C227.074 86.084 228.076 86.8825 229.123 87.6266L229.799 88.1257C230.03 88.28 230.252 88.4252 230.506 88.5794C230.959 88.8653 231.299 89.1148 231.59 89.3372C231.88 89.5595 232.138 89.7047 232.329 89.8589C232.625 90.067 232.862 90.3484 233.018 90.6756C233.08 90.7919 233.131 90.9134 233.172 91.0386C233.24 91.3744 232.351 91.1702 230.905 90.4669C228.782 89.257 226.805 87.8077 225.012 86.1475C223.186 84.4504 221.477 82.6313 219.898 80.7029C217.549 77.8016 215.428 74.7239 213.551 71.4969L213.56 71.4742Z" fill="#231F20"/>
<path d="M193.713 71.2695C192.792 70.1568 191.639 69.2587 190.335 68.6379C188.97 68.0074 187.526 67.5647 186.042 67.3221C184.922 67.1134 183.775 66.9727 182.592 66.6914C181.542 66.457 180.518 66.1165 179.537 65.6751C178.467 65.217 177.531 64.4941 176.816 63.5744C176.636 63.3289 176.484 63.0641 176.363 62.7849C176.208 62.4839 176.113 62.1557 176.082 61.8185C176.043 61.4198 176.123 61.0185 176.313 60.666C176.496 60.3474 176.751 60.0756 177.057 59.872C177.558 59.5478 178.117 59.3215 178.702 59.205C179.23 59.0868 179.764 59.0049 180.303 58.96C182.145 58.8284 183.995 58.8284 185.838 58.96C187.003 59.0462 188.164 59.1506 189.324 59.323C189.9 59.4138 190.48 59.5045 191.052 59.6497C191.337 59.7223 191.623 59.7994 191.904 59.8856C192.185 59.9718 192.457 60.1306 192.743 60.2395C193.096 60.3802 193.25 60.5617 193.196 60.666C193.141 60.7704 192.906 60.8384 192.579 60.9246C191.58 61.2587 190.52 61.3702 189.474 61.2513C188.331 61.1061 187.207 60.9927 186.042 60.911C184.877 60.8294 183.775 60.7205 182.624 60.6978C181.525 60.6552 180.425 60.7129 179.337 60.8702C178.891 60.9348 178.459 61.0727 178.059 61.2785C177.962 61.3277 177.877 61.3973 177.809 61.4827C177.768 61.5281 177.746 61.6188 177.768 61.7867C177.829 62.0353 177.925 62.2738 178.054 62.4945L178.294 62.8484C178.385 62.9618 178.498 63.0617 178.598 63.1706C179.07 63.6017 179.613 63.9472 180.203 64.1914C181.499 64.7039 182.848 65.0721 184.224 65.2894L186.572 65.7159C187.386 65.8659 188.189 66.0628 188.98 66.3058C190.598 66.7842 192.11 67.5664 193.436 68.6107C194.24 69.2703 194.953 70.033 195.558 70.8793C195.712 71.0834 195.843 71.3058 195.989 71.519C196.057 71.6234 196.129 71.7413 196.197 71.8684L196.374 72.2041C196.601 72.6578 196.827 73.0798 197.049 73.5018C198.369 76.0994 200.223 78.3879 202.49 80.2168C204.248 81.5342 206.266 82.4622 208.41 82.9391C208.864 83.0616 209.344 83.1115 209.816 83.2068C210.287 83.3021 210.623 83.3384 210.935 83.3883C211.192 83.431 211.446 83.487 211.697 83.5562C211.873 83.5968 212.043 83.6577 212.205 83.7377C212.328 83.8139 212.442 83.9037 212.545 84.0054C212.635 84.0916 212.753 84.1687 212.808 84.2322C212.862 84.2958 212.753 84.4364 212.404 84.5907C211.885 84.7732 211.335 84.8518 210.786 84.8221C208.581 84.8074 206.406 84.3071 204.416 83.3566C202.369 82.3527 200.531 80.9667 199.003 79.2731C197.875 78.0301 196.883 76.6703 196.043 75.2168C195.621 74.4999 195.236 73.7558 194.873 73.0526C194.547 72.4141 194.144 71.8183 193.672 71.2785L193.713 71.2695Z" fill="#231F20"/>
<path d="M217.386 98.6473C216.71 97.7399 216.071 96.8325 215.436 95.925C215.2 95.5938 214.947 95.2853 214.72 94.9495C213.926 93.7699 213.178 92.563 212.403 91.3833C212.059 90.857 211.673 90.3579 211.293 89.8679C210.768 89.268 210.289 88.6295 209.86 87.9577C209.615 87.504 210.844 87.327 211.46 88.0394C212.52 89.3018 213.478 90.6459 214.325 92.0593C214.829 92.9123 215.477 93.7063 216.057 94.523C216.696 95.4305 217.336 96.3379 218.002 97.1909C218.415 97.7308 218.827 98.2662 219.262 98.7789C219.909 99.576 220.602 100.334 221.339 101.048C221.633 101.306 221.942 101.542 222.245 101.778C222.549 102.014 222.889 102.232 223.202 102.431C223.338 102.527 223.483 102.613 223.624 102.704C224.145 103.053 224.249 103.248 224.149 103.647C224.122 103.734 224.109 103.833 224.077 103.915C223.964 104.196 223.624 104.242 223.17 104.024C221.819 103.325 220.603 102.391 219.58 101.265C218.791 100.44 218.061 99.5639 217.363 98.6791L217.386 98.6473Z" fill="#231F20"/>
<path d="M18.6884 80.6609C19.5361 79.7036 20.4111 78.7598 21.2996 77.8342C21.6215 77.4939 21.9207 77.131 22.2562 76.8043C23.4452 75.6381 24.7147 74.5571 26.0553 73.5693C26.6537 73.1155 27.2657 72.6936 27.8959 72.2898L28.5305 71.9177C28.7527 71.8134 28.9839 71.6909 29.206 71.6047C29.4459 71.5092 29.6951 71.4392 29.9495 71.3959C30.0765 71.3733 30.2079 71.3551 30.3349 71.3415C30.4618 71.3279 30.6023 71.3415 30.7383 71.3415C31.0738 71.3733 30.9831 71.7226 30.7701 72.0765C30.656 72.2578 30.5271 72.4293 30.3847 72.5892C30.3151 72.6683 30.2359 72.7384 30.149 72.7979C30.0634 72.8641 29.9687 72.9176 29.8679 72.9567C29.0832 73.2809 28.3379 73.6934 27.6465 74.1863C26.9076 74.6854 26.1777 75.239 25.4342 75.797C24.5559 76.5274 23.7344 77.3237 22.977 78.1791C22.0975 79.0865 21.2362 80.0212 20.3975 80.974C19.8807 81.5593 19.3684 82.1536 18.8697 82.7571C18.1171 83.6645 17.351 84.5947 16.6619 85.552C16.1179 86.2916 15.6827 87.0856 15.1795 87.8478C15.0661 88.0157 14.9709 88.1881 14.853 88.3515C14.3997 88.964 14.1685 89.0956 13.7605 88.9731C13.6659 88.9525 13.5734 88.9237 13.4839 88.8869C13.2074 88.7462 13.1983 88.3651 13.4431 87.8796C14.2236 86.3728 15.1514 84.9472 16.2131 83.6237C16.9928 82.6028 17.8225 81.6092 18.6566 80.6201L18.6884 80.6609Z" fill="#231F20"/>
<path d="M193.7 82.1908V80.4304C193.7 80.2171 193.654 80.0084 193.659 79.7906C193.659 79.0329 193.722 78.2707 193.736 77.522C193.736 77.1817 193.736 76.8414 193.713 76.5102C193.652 76.0786 193.666 75.6396 193.754 75.2126C193.79 75.0765 194.031 75.0946 194.275 75.2126C194.52 75.3306 194.783 75.5211 194.819 75.7571C194.887 76.179 194.942 76.6055 194.978 77.032C195.004 77.4678 194.992 77.9051 194.942 78.3387C194.933 78.875 194.956 79.4113 195.01 79.9449L195.041 81.7189V82.8169C195.041 83.3705 195.041 83.9286 195.082 84.4821C195.082 84.9086 195.209 85.3351 195.205 85.7752C195.205 85.875 195.205 85.9703 195.205 86.0701C195.203 86.2129 195.155 86.3514 195.069 86.4649C195.025 86.5058 194.974 86.5377 194.918 86.5588C194.862 86.5798 194.802 86.5895 194.742 86.5874C194.676 86.5918 194.609 86.5918 194.543 86.5874C194.435 86.5736 194.333 86.5272 194.252 86.4542C194.171 86.3812 194.114 86.2852 194.089 86.179C193.855 85.46 193.722 84.7116 193.695 83.9558C193.668 83.375 193.663 82.7897 193.641 82.2044L193.7 82.1908Z" fill="#231F20"/>
<path d="M196.586 42.8163L196.255 46.7274C196.214 47.1811 196.21 47.6802 196.169 48.1521C196.028 49.8308 195.87 51.5051 195.743 53.1838C195.688 53.9279 195.657 54.6766 195.634 55.4161C195.66 56.3669 195.594 57.3181 195.439 58.2564C195.385 58.5513 195.19 58.5105 194.986 58.2564C194.684 57.8927 194.503 57.4438 194.469 56.9724C194.469 56.0014 194.496 55.0259 194.541 54.055C194.587 53.084 194.7 52.1085 194.818 51.133C194.967 49.9669 194.972 48.7464 195.054 47.5486C195.144 46.2328 195.249 44.917 195.357 43.6012L195.557 41.1738C195.647 39.9488 195.765 38.7192 195.833 37.4987C195.888 36.555 195.879 35.6203 195.91 34.6766C195.91 34.4679 195.91 34.2637 195.933 34.055C195.974 33.2746 196.137 33.025 196.454 32.9116C196.521 32.8794 196.591 32.8536 196.663 32.8345C196.772 32.8118 196.858 32.8889 196.939 33.0386C197.039 33.2398 197.084 33.4634 197.071 33.6875C197.107 35.3481 197.021 37.1131 196.908 38.8735C196.813 40.1847 196.722 41.5051 196.627 42.8163H196.586Z" fill="#231F20"/>
<path d="M194.601 81.4291C194.623 81.0297 194.601 80.6304 194.601 80.222C194.601 80.0723 194.555 79.9271 194.551 79.7683C194.551 79.2328 194.519 78.6928 194.487 78.1528C194.47 77.9152 194.438 77.6788 194.392 77.445C194.312 77.1494 194.291 76.8412 194.329 76.5374C194.329 76.4421 194.519 76.433 194.705 76.4875C194.801 76.5058 194.892 76.5461 194.971 76.605C195.05 76.664 195.114 76.7402 195.158 76.8278C195.321 77.4192 195.405 78.0295 195.408 78.6429C195.44 79.0232 195.499 79.4007 195.585 79.7728C195.648 80.1967 195.685 80.624 195.698 81.0524C195.698 81.3156 195.698 81.5833 195.698 81.8465C195.698 82.2458 195.675 82.6406 195.698 83.0354C195.729 83.3405 195.777 83.6435 195.843 83.9429C195.858 84.0087 195.869 84.0754 195.875 84.1426C195.875 84.3922 195.807 84.4648 195.471 84.5011C195.394 84.5056 195.317 84.5056 195.24 84.5011C195.134 84.5178 195.025 84.5 194.929 84.4501C194.834 84.4003 194.757 84.3211 194.709 84.2243C194.55 83.7001 194.49 83.1506 194.533 82.6043C194.533 82.2005 194.564 81.7966 194.533 81.3973L194.601 81.4291Z" fill="#231F20"/>
<path d="M144.547 33.4381V46.9998L157.744 55.0534C159.054 51.3238 161.556 41.1015 151.637 35.6795C151.637 35.6795 147.203 32.9118 144.547 33.4381Z" fill="#231F20"/>
<path d="M165.046 96.4646L155.267 96.5145L151.7 96.5644L139.124 96.5916C137.265 96.5916 135.397 96.6279 133.552 96.6597C131.181 96.696 128.796 96.7686 126.425 96.6869C124.952 96.637 126.824 95.8883 129.549 95.8384C134.386 95.7568 139.223 95.6842 144.106 95.7069C147.026 95.7069 150.063 95.6116 153.046 95.5662L162.897 95.4256L168.958 95.3439C172.019 95.294 175.092 95.2577 178.13 95.176C180.492 95.1125 182.804 94.9855 185.138 94.8856L186.671 94.8176C188.593 94.7586 189.21 94.8176 189.627 95.1442C189.725 95.2066 189.816 95.2796 189.899 95.362C190.08 95.607 189.305 95.8158 187.899 95.8974C183.738 96.1697 179.336 96.2785 174.92 96.3511L165.051 96.4873L165.046 96.4646Z" fill="#231F20"/>
<path d="M82.5055 105.018L74.0959 105.095C73.0713 105.095 72.0467 105.158 71.0267 105.158H60.2098C58.6095 105.158 57.0001 105.186 55.4134 105.222C53.3733 105.245 51.3333 105.29 49.2841 105.177C48.6495 105.14 48.7356 104.954 49.2841 104.759C50.1638 104.476 51.0802 104.323 52.0042 104.305C56.1569 104.147 60.3141 104.088 64.5121 104.097C67.0236 104.097 69.6349 103.979 72.219 103.915L80.6875 103.756L85.901 103.652C88.5304 103.593 91.1735 103.543 93.7847 103.452C95.8157 103.375 97.8014 103.221 99.8097 103.112C100.263 103.089 100.685 103.053 101.134 103.035C101.72 102.999 102.308 103.012 102.892 103.076C103.191 103.104 103.47 103.236 103.681 103.448C103.768 103.522 103.844 103.607 103.908 103.702C104.049 103.997 103.4 104.21 102.199 104.319C98.6265 104.628 94.841 104.773 91.0465 104.886L82.5599 105.049L82.5055 105.018Z" fill="#231F20"/>
<path d="M106.507 77.1677L106.625 69.0371V66.0697L106.815 55.6342C106.842 54.0915 106.842 52.5353 106.815 51.0017C106.815 49.0326 106.815 47.0498 106.983 45.0807C107.028 44.4636 107.119 44.5453 107.25 45.0807C107.468 45.9347 107.61 46.8061 107.676 47.685C107.794 49.6995 107.79 51.7095 107.785 53.7286C107.781 55.7476 107.754 57.7667 107.681 59.7948C107.599 62.2222 107.645 64.7494 107.627 67.2313C107.596 69.9536 107.568 72.685 107.54 75.4254L107.518 80.4345C107.518 82.9799 107.463 85.5343 107.477 88.0615C107.477 90.0261 107.559 91.9499 107.599 93.8918C107.599 94.3183 107.599 94.7358 107.636 95.1668C107.636 96.7639 107.586 97.2721 107.296 97.6169C107.242 97.6975 107.181 97.7734 107.114 97.8437C106.928 97.9935 106.706 97.3447 106.661 96.1741C106.475 92.7076 106.448 89.0461 106.443 85.3755C106.443 82.6532 106.471 79.9082 106.484 77.1723L106.507 77.1677Z" fill="#231F20"/>
<path d="M219.571 91.6734C220.108 91.2681 220.611 90.8205 221.076 90.3349C221.244 90.1534 221.371 89.9356 221.53 89.7496C222.121 89.0844 222.648 88.3643 223.103 87.599C223.289 87.2516 223.441 86.8869 223.556 86.51C223.633 86.265 223.692 86.02 223.769 85.7796C223.827 85.5308 223.928 85.2942 224.068 85.0808C224.159 84.9402 224.522 85.0536 224.812 85.2805C225.102 85.5073 225.374 85.8703 225.292 86.1879C224.985 87.2876 224.459 88.3138 223.746 89.2051C223.534 89.4745 223.336 89.7547 223.153 90.0445C222.972 90.3408 222.774 90.6257 222.559 90.8975C222.083 91.4894 221.556 92.039 220.986 92.54C220.623 92.8349 220.269 93.1389 219.879 93.4021L219.426 93.706L218.973 93.9783C218.678 94.1734 218.352 94.314 218.066 94.4955C217.589 94.7751 217.092 95.0192 216.579 95.226C216.469 95.2784 216.353 95.3194 216.234 95.3485C215.781 95.4302 215.613 95.3485 215.473 95.0082C215.436 94.9323 215.406 94.8534 215.382 94.7723C215.35 94.6389 215.364 94.4987 215.42 94.3738C215.477 94.2489 215.574 94.1464 215.695 94.0826C216.447 93.6017 217.159 93.1752 217.921 92.7759C218.484 92.4445 219.021 92.0699 219.526 91.6552L219.571 91.6734Z" fill="#231F20"/>
<path d="M225.355 96.9999C225.214 96.8948 225.081 96.7795 224.956 96.655L224.707 96.4146C224.571 96.2648 224.421 96.1151 224.29 95.9608C224.018 95.6569 223.768 95.3483 223.524 95.0534L222.83 94.146C222.625 93.8797 222.406 93.6252 222.173 93.3837C221.972 93.1701 221.752 92.9757 221.515 92.803L221.425 92.7485V92.7168V92.6532C221.452 92.5716 221.479 92.5126 221.497 92.4354L221.542 92.2403C221.542 92.1859 221.542 92.1178 221.542 92.0861C221.542 91.891 221.465 91.8864 221.57 91.9636C221.645 92.0129 221.73 92.0468 221.819 92.0634C221.967 92.106 222.119 92.1333 222.272 92.1451H222.304V92.2267C222.308 92.2861 222.316 92.3452 222.327 92.4037C222.351 92.5459 222.383 92.6971 222.422 92.8574L222.454 92.9754L222.485 93.057C222.502 93.1182 222.525 93.1775 222.553 93.234C222.616 93.3893 222.687 93.5408 222.766 93.6877C223.22 94.5951 223.886 95.4799 224.448 96.41C224.847 97.1088 226.158 99.0598 226.08 100.04C226.102 100.302 226.07 100.566 225.985 100.816C225.91 101.096 225.752 101.348 225.532 101.537C225.311 101.706 225.039 101.795 224.761 101.791C224.494 101.794 224.229 101.751 223.977 101.664C223.325 101.414 222.724 101.05 222.2 100.589C222.05 100.471 221.901 100.348 221.746 100.221L221.529 100.031L221.42 99.9354L221.348 99.8674L220.853 99.3184C220.155 98.6242 219.493 97.9118 218.827 97.1995L217.952 96.2558L217.739 96.0334L217.635 95.9291L217.589 95.8837L217.653 95.7975C217.675 95.7703 217.703 95.7294 217.721 95.7113C217.739 95.7138 217.757 95.7138 217.775 95.7113C217.81 95.6939 217.842 95.6709 217.87 95.6432C217.924 95.5939 217.957 95.5256 217.961 95.4527V95.3755C218.097 96.6686 217.997 95.734 218.029 96.0198C218.016 96.0008 218.006 95.9791 218.002 95.9563C217.997 95.9244 217.986 95.8937 217.97 95.8656C217.879 95.7249 217.898 95.8066 218.011 95.8247C218.011 95.8247 218.106 95.8565 218.147 95.8565C218.147 95.8565 218.147 95.8928 218.147 95.9109C218.158 95.9772 218.175 96.0425 218.197 96.106C218.257 96.2723 218.332 96.4331 218.419 96.587C218.612 96.9346 218.827 97.2695 219.063 97.5897C220.309 99.2821 221.864 100.816 223.174 102.508C223.578 103.025 223.356 103.193 222.662 103.084C222.219 102.996 221.788 102.855 221.379 102.662C220.847 102.396 220.363 102.043 219.947 101.619C219.121 100.803 218.363 99.9211 217.68 98.9826C217.308 98.4847 216.976 97.9583 216.687 97.4082C216.5 97.0573 216.364 96.6814 216.284 96.2921C216.258 96.1421 216.243 95.9905 216.238 95.8383C216.238 95.7385 216.238 95.6387 216.27 95.5343C216.302 95.43 216.27 95.4391 216.297 95.3846C216.324 95.3302 216.338 95.2621 216.361 95.1986C216.41 95.0729 216.472 94.9528 216.547 94.8402C216.637 94.7257 216.737 94.6194 216.846 94.5225C216.943 94.4424 217.05 94.3739 217.163 94.3184C217.26 94.2681 217.362 94.2286 217.467 94.2004L217.73 94.146H217.798H217.866C217.964 94.1348 218.063 94.1348 218.16 94.146C218.361 94.1826 218.55 94.2649 218.714 94.3864L218.763 94.4273C218.89 94.5407 218.931 94.5906 218.995 94.6496L219.298 94.9717L219.87 95.5933L220.989 96.8093C221.361 97.2086 221.737 97.6033 222.123 97.9844L222.662 98.5153C222.701 98.5739 222.743 98.63 222.789 98.6832C222.926 98.8579 223.103 98.9966 223.306 99.087C223.36 99.1071 223.42 99.1071 223.474 99.087C223.497 99.0751 223.517 99.0585 223.534 99.0381C223.55 99.0178 223.562 98.9943 223.569 98.969C223.602 98.8672 223.594 98.7564 223.546 98.6605C223.501 98.5607 223.451 98.4608 223.397 98.3656L223.311 98.2204L223.188 98.0253L222.168 96.3964C221.769 95.7431 221.366 95.0942 220.994 94.3637C220.79 93.9673 220.638 93.5465 220.541 93.1115C220.484 92.8879 220.445 92.6604 220.423 92.4309C220.411 92.289 220.411 92.1463 220.423 92.0044C220.435 91.7792 220.501 91.5602 220.613 91.3647C220.706 91.2012 220.841 91.0651 221.003 90.9699C221.088 90.9195 221.179 90.8813 221.275 90.8565C221.356 90.8349 221.44 90.8227 221.524 90.8202C221.74 90.8108 221.954 90.8528 222.15 90.9427C222.387 91.0466 222.609 91.1808 222.812 91.342C223.137 91.6044 223.44 91.8927 223.719 92.204C223.995 92.499 224.263 92.8166 224.498 93.1115C224.734 93.4064 224.952 93.6968 225.192 93.9781C225.432 94.2594 225.772 94.6541 226.099 94.9627L226.298 95.1578C226.337 95.1979 226.378 95.2358 226.42 95.2712C226.503 95.3507 226.592 95.4221 226.688 95.4844C226.874 95.6315 227.11 95.6999 227.345 95.675C227.462 95.6468 227.57 95.589 227.658 95.5071C227.738 95.4193 227.78 95.3037 227.776 95.185C227.712 94.8232 227.556 94.484 227.323 94.2004C226.917 93.656 226.483 93.1334 226.022 92.6351L225.31 91.8547C225.187 91.7186 225.069 91.587 224.938 91.4236C224.815 91.2648 224.703 91.0981 224.603 90.9246C224.407 90.6037 224.23 90.2719 224.072 89.9309C223.971 89.715 223.882 89.4939 223.805 89.2685C223.722 89.04 223.66 88.8046 223.619 88.5652C223.544 88.2229 223.544 87.8685 223.619 87.5262C223.66 87.3585 223.736 87.2015 223.843 87.0655C223.949 86.9294 224.083 86.8174 224.235 86.7367C224.565 86.5966 224.921 86.5301 225.279 86.5419C225.637 86.5536 225.988 86.6433 226.307 86.8048C226.645 86.9652 226.969 87.1518 227.277 87.3629C227.518 87.5217 227.731 87.685 227.962 87.8438C228.415 88.1614 228.828 88.479 229.249 88.7512C229.597 88.9861 229.962 89.1939 230.342 89.3728C230.726 89.5518 231.134 89.677 231.552 89.7449C231.818 89.7991 232.076 89.8876 232.319 90.008C232.45 90.0625 232.613 90.0942 232.731 90.1532C232.926 90.253 232.958 90.489 232.704 90.852C232.529 91.0844 232.294 91.2647 232.024 91.3737C231.649 91.546 231.239 91.6253 230.827 91.6051C230.215 91.5391 229.62 91.3558 229.077 91.0652C228.595 90.8173 228.132 90.5353 227.69 90.2213C227.264 89.9264 226.869 89.6269 226.484 89.3501L226.203 89.1505L226.062 89.0552L225.972 88.9962C225.899 88.9509 225.926 88.9962 225.908 88.969H225.886C225.876 88.969 225.867 88.972 225.859 88.9776C225.851 88.9831 225.846 88.991 225.843 89.0001C225.839 89.0091 225.839 89.0188 225.842 89.0279C225.845 89.037 225.851 89.045 225.858 89.0507L225.904 89.1369L226.044 89.4227C226.144 89.6133 226.253 89.8039 226.366 89.9808L226.493 90.1714L226.683 90.3892C227.137 90.9019 227.708 91.4781 228.225 92.0861L228.615 92.5398L228.805 92.7848L228.9 92.9118L228.955 92.9799L229.036 93.0933C229.469 93.6578 229.801 94.2935 230.016 94.9717C230.191 95.5228 230.17 96.1177 229.957 96.655C229.844 96.9198 229.68 97.1602 229.476 97.3628C229.263 97.5617 229.02 97.7256 228.755 97.8483C228.232 98.0893 227.641 98.1438 227.082 98.0026C226.43 97.8206 225.827 97.4933 225.319 97.0452L225.355 96.9999Z" fill="#231F20"/>
<path d="M12.5101 80.5069C11.7759 79.7046 11.0959 78.8543 10.4745 77.9616C10.2478 77.644 9.98944 77.3445 9.78543 77.0133C9.06412 75.8425 8.41171 74.6305 7.8315 73.3835C7.56856 72.8345 7.28295 72.2946 7.03815 71.7365C6.86489 71.3801 6.71349 71.0134 6.5848 70.6385C6.42959 70.2232 6.37672 69.7765 6.43066 69.3364C6.53946 68.9235 6.79334 69.2048 7.06988 69.3727C7.40444 69.5125 7.68007 69.7643 7.84964 70.085C8.10805 70.7338 8.46166 71.3917 8.75633 72.0678C9.05101 72.7438 9.39102 73.4289 9.70836 74.1322C10.1427 74.9599 10.651 75.7465 11.2271 76.4824C11.8155 77.324 12.4512 78.1314 13.1311 78.9008C13.5454 79.3815 13.989 79.8361 14.4594 80.2619C15.1429 80.8983 15.9273 81.4166 16.7806 81.7955C17.5453 82.0711 18.3678 82.146 19.1697 82.0133C19.6865 81.9861 19.8724 82.0133 20.1127 82.2765C20.1671 82.3309 20.2306 82.3808 20.2714 82.4307C20.4028 82.585 20.2714 82.9253 19.7908 83.2066C19.0484 83.5794 18.2036 83.6958 17.3881 83.5378C16.5835 83.4173 15.812 83.1332 15.1213 82.703C14.1526 82.1015 13.2658 81.3771 12.4829 80.5478L12.5101 80.5069Z" fill="#231F20"/>
<path d="M123.112 29.5636L101.977 29.4048H94.2699C85.203 29.3368 76.136 29.2596 67.0962 29.2369C63.0751 29.2369 59.0357 29.2369 55.0463 29.3095L47.3394 29.4275C44.7734 29.4502 42.2075 29.482 39.6325 29.4547C38.0321 29.4094 38.2407 29.2233 39.5871 28.9466C41.8323 28.5398 44.1062 28.3122 46.3873 28.266C56.8597 28.0663 67.3184 28.0482 77.8678 28.1843C84.1784 28.266 90.7474 28.1843 97.2031 28.2297L118.51 28.3204L131.617 28.3703C138.231 28.3703 144.877 28.4021 151.442 28.3703C156.546 28.3295 161.547 28.2115 166.592 28.1026L169.911 28.0255C171.983 27.9847 173.352 27.9801 174.313 28.0255C174.982 28.0433 175.645 28.1579 176.28 28.3658C176.48 28.427 176.677 28.4981 176.87 28.5791C177.074 28.697 176.752 28.8104 175.999 28.933C174.855 29.0996 173.701 29.1965 172.545 29.2233C163.523 29.5636 154.008 29.6544 144.437 29.6771L123.103 29.6271L123.112 29.5636Z" fill="#231F20"/>
<g opacity="0.4">
<path d="M123.275 150.081L103.165 150.235L95.8297 150.308L69.9889 150.353L58.5283 150.403L51.2022 150.435C48.7632 150.435 46.3196 150.435 43.8851 150.331C42.3619 150.276 42.5704 150.063 43.8579 149.845C45.9959 149.522 48.1561 149.371 50.3181 149.391H80.2391C86.2414 149.391 92.4795 149.287 98.6268 149.224L118.878 148.997L131.345 148.833C137.633 148.734 143.957 148.643 150.2 148.484C155.05 148.361 159.806 148.166 164.603 147.976L167.776 147.849C171.72 147.704 172.98 147.749 173.837 148.048C174.031 148.103 174.221 148.172 174.404 148.257C174.794 148.498 173.189 148.756 170.297 148.91C161.724 149.364 152.675 149.591 143.59 149.777C136.844 149.904 130.066 149.995 123.303 150.09L123.275 150.081Z" fill="#231F20"/>
</g>
<path d="M26.3687 126.17V119.999L26.3324 117.731V109.795C26.3324 108.624 26.3052 107.445 26.2689 106.279C26.1737 104.782 26.1919 103.281 26.3233 101.787C26.3732 101.333 26.5047 101.379 26.7042 101.787C26.8313 102.049 26.9434 102.319 27.0396 102.594C27.1612 102.973 27.2358 103.364 27.2618 103.761C27.4431 106.814 27.434 109.863 27.3479 112.948C27.2935 114.79 27.3751 116.705 27.3887 118.588L27.4159 124.804V128.629C27.4159 130.562 27.4386 132.504 27.4884 134.418C27.5292 135.907 27.629 137.368 27.7061 138.838L27.7559 139.804C27.8013 141.016 27.6652 141.406 27.4295 141.669C27.3837 141.732 27.3321 141.792 27.2754 141.846C27.1892 141.905 27.1076 141.81 27.0215 141.592C26.8981 141.27 26.8189 140.932 26.7858 140.589C26.5273 137.957 26.4593 135.181 26.3959 132.395C26.3687 130.326 26.3415 128.243 26.3143 126.17H26.3687Z" fill="#231F20"/>
<path d="M203.99 126.769L204.116 120.925V118.797L204.311 111.279C204.311 110.172 204.311 109.051 204.311 107.948C204.263 106.528 204.31 105.106 204.452 103.693C204.493 103.239 204.647 103.311 204.824 103.693C204.935 103.943 205.029 104.2 205.105 104.464C205.15 104.623 205.195 104.8 205.236 104.986C205.236 105.076 205.277 105.172 205.295 105.267V105.571C205.372 107.018 205.354 108.466 205.331 109.913C205.309 111.36 205.259 112.817 205.186 114.278C205.1 116.025 205.146 117.84 205.114 119.627L205.014 125.526C205.014 126.732 204.973 127.944 204.951 129.155C204.928 130.97 204.892 132.821 204.901 134.641C204.901 136.052 204.978 137.436 205.023 138.833L205.055 139.741C205.055 140.889 205.001 141.251 204.71 141.492C204.654 141.554 204.59 141.609 204.52 141.655C204.316 141.76 204.112 141.288 204.067 140.448C203.885 137.948 203.867 135.317 203.872 132.676C203.894 130.716 203.912 128.747 203.931 126.778L203.99 126.769Z" fill="#231F20"/>
<path d="M84.8495 11.6055C84.7452 12.3316 84.047 13.103 83.2762 12.4632C82.6506 11.9459 83.3896 10.6027 84.1332 10.6481C84.7407 10.6662 84.9311 11.1246 84.8495 11.6055Z" fill="#231F20"/>
<path opacity="0.6" d="M60.1934 19.6407C60.0891 20.3667 59.3908 21.1381 58.6201 20.4983C57.9944 19.981 58.7334 18.6379 59.4725 18.6833C60.0709 18.7014 60.2568 19.1597 60.1934 19.6407Z" fill="#231F20"/>
<path d="M179.6 162.654C179.5 163.385 178.797 164.156 178.026 163.516C177.401 162.994 178.14 161.651 178.883 161.701C178.998 161.702 179.111 161.73 179.214 161.782C179.317 161.834 179.406 161.909 179.475 162.001C179.544 162.093 179.592 162.2 179.613 162.313C179.635 162.426 179.63 162.543 179.6 162.654Z" fill="#231F20"/>
<path opacity="0.4" d="M95.8548 17.4823C95.7912 17.9369 95.3461 18.4325 94.86 18.0279C94.4603 17.7005 94.9282 16.8459 95.4006 16.8686C95.4763 16.8637 95.5521 16.878 95.6209 16.9099C95.6898 16.9419 95.7495 16.9907 95.7947 17.0517C95.8398 17.1127 95.869 17.1841 95.8795 17.2593C95.89 17.3346 95.8815 17.4112 95.8548 17.4823Z" fill="#231F20"/>
<path opacity="0.4" d="M149.818 160.871C149.75 161.326 149.309 161.826 148.818 161.417C148.419 161.09 148.891 160.235 149.359 160.258C149.433 160.258 149.506 160.276 149.572 160.31C149.638 160.343 149.696 160.392 149.74 160.451C149.784 160.51 149.815 160.579 149.828 160.652C149.841 160.725 149.838 160.8 149.818 160.871Z" fill="#231F20"/>
<path opacity="0.7" d="M159.454 163.712C159.391 164.166 158.946 164.666 158.455 164.257C158.06 163.93 158.528 163.075 159 163.098C159.377 163.116 159.495 163.407 159.454 163.712Z" fill="#231F20"/>
<path opacity="0.4" d="M49.4094 15.8352C49.3458 16.2898 48.9006 16.7899 48.41 16.3807C48.0149 16.0534 48.4827 15.2033 48.9551 15.2215C49.0289 15.2228 49.1013 15.2411 49.1668 15.2749C49.2324 15.3087 49.2893 15.3572 49.3332 15.4164C49.3771 15.4757 49.4068 15.5443 49.42 15.6169C49.4332 15.6895 49.4295 15.7642 49.4094 15.8352Z" fill="#231F20"/>
<path d="M122.809 151.142C116.218 151.242 109.627 151.312 103.039 151.351L95.8305 151.428C87.368 151.449 78.8949 151.422 70.4113 151.346L59.1411 151.242L55.5415 151.206L51.9419 151.129C49.5392 151.083 47.1364 150.983 44.7473 150.816C43.2558 150.716 43.4689 150.507 44.7473 150.33C45.618 150.212 46.494 150.138 47.3722 150.108C48.4557 150.072 49.7296 150.058 51.1078 150.081C60.8774 150.317 70.6516 150.385 80.5164 150.48C86.4099 150.53 92.5528 150.43 98.5868 150.366C105.218 150.294 111.853 150.205 118.493 150.099C122.573 150.029 126.654 149.951 130.734 149.863C136.913 149.722 143.128 149.568 149.262 149.346C154.031 149.164 158.701 148.892 163.411 148.633L166.507 148.456C170.379 148.234 171.617 148.252 172.469 148.538C172.661 148.589 172.849 148.654 173.031 148.733C173.416 148.969 171.848 149.255 169.005 149.468C160.587 150.09 151.692 150.43 142.766 150.707C136.133 150.897 129.469 151.042 122.818 151.16L122.809 151.142Z" fill="#231F20"/>
<path d="M129.007 40.3712C129.724 39.4183 130.519 38.526 131.382 37.7033C131.704 37.413 131.999 37.0908 132.339 36.8186C133.524 35.8475 134.84 35.0472 136.247 34.4411C136.877 34.1916 137.502 33.9284 138.155 33.7424C138.36 33.6732 138.569 33.6157 138.781 33.57C138.989 33.509 139.201 33.4635 139.416 33.4338L140.068 33.3794C140.286 33.3794 140.522 33.3794 140.721 33.3794C140.921 33.3794 140.952 33.6017 140.748 33.8331C140.463 34.1121 140.115 34.3176 139.733 34.432C138.945 34.6069 138.17 34.8343 137.412 35.1126C136.655 35.4075 135.911 35.7478 135.168 36.1244C134.277 36.6213 133.454 37.2313 132.72 37.9393C131.877 38.6993 131.101 39.5296 130.399 40.4211C129.96 40.9692 129.557 41.5452 129.193 42.1453C128.626 43.0402 128.163 43.996 127.81 44.9946C127.559 45.7478 127.417 46.5332 127.388 47.3267V47.8304C127.388 48.0534 127.362 48.2757 127.311 48.4928C127.28 48.6277 127.203 48.7478 127.094 48.8331C127.048 48.8794 126.999 48.9233 126.949 48.9647C126.862 49.0191 126.772 48.9874 126.667 48.8739C126.529 48.7029 126.432 48.5028 126.382 48.2886C126.198 47.4761 126.198 46.6329 126.382 45.8204C126.537 45.0098 126.793 44.2218 127.143 43.4747C127.65 42.3692 128.268 41.3186 128.989 40.3395L129.007 40.3712Z" fill="#231F20"/>
<g opacity="0.4">
<path d="M25.6191 126.7L25.6781 120.734V118.56L25.7823 110.892C25.7823 109.758 25.7823 108.624 25.7823 107.494C25.7 106.046 25.7333 104.594 25.8821 103.152C25.941 102.698 26.0725 102.762 26.2629 103.152C26.3881 103.407 26.4986 103.669 26.5938 103.937C26.7062 104.303 26.7762 104.68 26.8024 105.062C26.9429 108.011 26.9021 110.96 26.8024 113.937C26.7298 115.72 26.8024 117.567 26.7797 119.381L26.7389 125.389V129.086C26.7389 130.951 26.7389 132.825 26.7389 134.676C26.7389 136.115 26.8477 137.526 26.9066 138.946L26.9474 139.885C26.9792 141.056 26.8432 141.428 26.6029 141.7C26.5534 141.759 26.5004 141.815 26.4442 141.868C26.3581 141.927 26.2765 141.836 26.1949 141.623C26.0728 141.312 25.9979 140.985 25.9728 140.652C25.737 138.111 25.7007 135.43 25.6735 132.734V126.718L25.6191 126.7Z" fill="#231F20"/>
</g>
<g opacity="0.4">
<path d="M204.747 126.737L204.969 121.242L205.005 119.237C205.092 116.882 205.196 114.527 205.25 112.172C205.277 111.129 205.273 110.076 205.25 109.037C205.25 108.375 205.25 107.703 205.25 107.036C205.25 106.369 205.336 105.702 205.382 105.035C205.422 104.618 205.577 104.672 205.753 105.035C205.866 105.27 205.961 105.513 206.039 105.761C206.09 105.909 206.136 106.073 206.175 106.251L206.234 106.519L206.257 106.8C206.343 108.161 206.32 109.522 206.297 110.884C206.275 112.245 206.22 113.606 206.139 114.99C206.044 116.632 206.075 118.343 206.025 120.022L205.835 125.566C205.79 126.7 205.749 127.835 205.704 128.973C205.645 130.693 205.563 132.422 205.536 134.132C205.509 135.462 205.536 136.764 205.568 138.075C205.568 138.365 205.568 138.647 205.568 138.942C205.568 140.022 205.49 140.362 205.196 140.589C205.134 140.643 205.069 140.693 205.001 140.738C204.797 140.838 204.602 140.394 204.548 139.6C204.407 137.245 204.452 134.767 204.516 132.286C204.573 130.437 204.634 128.589 204.697 126.741L204.747 126.737Z" fill="#231F20"/>
</g>
<g opacity="0.4">
<path d="M123.515 30.353L103.065 30.0989L95.6115 30.049C86.8483 29.9401 78.0851 29.8221 69.3174 29.7677C65.4322 29.7677 61.5198 29.7677 57.6663 29.7949L50.2224 29.8992C47.7425 29.8992 45.2627 29.9446 42.7875 29.8992C41.2415 29.8493 41.4274 29.6633 42.7421 29.3865C44.9088 28.987 47.104 28.7624 49.3066 28.715C59.4389 28.5335 69.5576 28.5608 79.7625 28.7377C85.8645 28.8421 92.2159 28.8148 98.4585 28.8648L119.059 29.0553L131.752 29.1551C138.149 29.1914 144.578 29.2368 150.924 29.2096C155.861 29.1824 160.703 29.0735 165.581 28.9691L168.786 28.8965C170.795 28.8602 172.118 28.8602 173.048 28.8965C173.696 28.9183 174.337 29.0345 174.952 29.2413C175.146 29.3017 175.337 29.3729 175.523 29.4546C175.718 29.5726 175.405 29.686 174.68 29.8085C173.572 29.9731 172.454 30.0686 171.334 30.0943C162.612 30.4301 153.404 30.4982 144.165 30.4755C137.301 30.4755 130.41 30.3983 123.529 30.3484L123.515 30.353Z" fill="#231F20"/>
</g>
<path opacity="0.3" d="M136.414 117.304L136.65 138.207H141.043V117.304H136.414Z" fill="#231F20" stroke="#231F20" stroke-width="0.703704" stroke-miterlimit="10"/>
<path d="M144.787 121.719L145.027 138.084H149.416V121.719H144.787Z" fill="#231F20"/>
<path opacity="0.3" d="M152.643 128.071L152.878 138.085H157.271V128.071H152.643Z" fill="#231F20"/>
<path d="M7.32771 86.3834C7.07209 85.9455 6.97899 85.4314 7.06477 84.9315C7.16653 84.3185 7.4001 83.7348 7.74932 83.221C8.20267 82.5086 8.93256 81.6874 9.46298 80.9524L9.78032 80.4987C9.81411 80.4452 9.84006 80.3871 9.85739 80.3262C9.87069 80.2819 9.87352 80.235 9.86565 80.1893C9.85779 80.1437 9.83944 80.1005 9.81205 80.0631C9.74405 79.9905 9.63525 80.0177 9.55818 80.0313L9.41311 80.0676L9.32697 80.0994C9.2771 80.1221 9.25444 80.1266 9.14563 80.1811C8.80109 80.3489 8.44294 80.5395 8.0712 80.7301C7.69945 80.9206 7.32317 81.1157 6.88796 81.2927C6.59605 81.4148 6.29216 81.5061 5.98127 81.5649C5.67434 81.6097 5.36103 81.5705 5.07457 81.4515C4.67958 81.2851 4.35437 80.9868 4.15428 80.6076C3.97493 80.2355 3.90572 79.8199 3.9548 79.4097C3.99072 79.0605 4.07147 78.7174 4.19508 78.3889C4.29769 78.1154 4.4142 77.8473 4.54415 77.5858C4.82523 77.0186 5.13351 76.4787 5.45085 75.9524C5.76819 75.4261 6.07647 74.8998 6.31674 74.4188C6.44269 74.1742 6.5114 73.9041 6.51769 73.629C6.52397 73.3539 6.46766 73.0809 6.35301 72.8308C6.31672 72.7528 6.26317 72.684 6.19641 72.6298C6.12964 72.5755 6.05142 72.5372 5.96767 72.5177C5.72387 72.4871 5.47634 72.5232 5.25138 72.6221C4.9023 72.7673 4.64389 72.4451 4.79803 71.8644C4.86595 71.6668 4.9762 71.4864 5.12108 71.3359C5.26595 71.1855 5.44194 71.0685 5.63672 70.9932C5.78098 70.9327 5.93408 70.8959 6.09007 70.8843C6.17766 70.8797 6.26543 70.8797 6.35301 70.8843C6.44368 70.8843 6.53888 70.9116 6.63409 70.9342C6.82947 70.9818 7.01719 71.0566 7.1917 71.1566C7.36316 71.2627 7.51627 71.396 7.64505 71.5513C8.05033 72.0481 8.28552 72.662 8.31601 73.3027C8.33297 73.5848 8.31776 73.8679 8.27067 74.1466C8.25008 74.2832 8.21978 74.4181 8.18 74.5504L8.1256 74.75C8.0984 74.8226 8.06666 74.9088 8.03493 74.9724C7.94114 75.1884 7.83519 75.399 7.71759 75.603L7.41384 76.1293L6.84263 77.0867C6.47232 77.6852 6.15237 78.3135 5.88606 78.9651C5.85886 79.0377 5.83166 79.1103 5.81353 79.1783C5.79539 79.2464 5.77273 79.3371 5.76819 79.3054C5.74924 79.3362 5.73545 79.3699 5.72739 79.4052C5.7164 79.4495 5.71732 79.4959 5.73006 79.5398C5.7428 79.5836 5.76691 79.6233 5.79993 79.6547C5.82444 79.6728 5.85232 79.6857 5.88192 79.6927C5.91151 79.6997 5.94222 79.7007 5.9722 79.6956C6.00533 79.6995 6.03881 79.6995 6.07194 79.6956H6.09914L6.16261 79.6684C6.21222 79.6502 6.26067 79.629 6.30768 79.6048C6.72059 79.4046 7.12307 79.1835 7.51358 78.9424L8.15733 78.5704L8.32507 78.4751L8.56081 78.348C8.71495 78.2618 8.91896 78.1665 9.09576 78.0849C9.83925 77.7718 10.5555 77.6538 11.1494 77.9851C11.8385 78.3889 11.9745 79.2282 11.9065 80.0177C11.8548 80.4337 11.7273 80.8366 11.5302 81.2065L11.3761 81.4923L11.2537 81.6874C11.231 81.7282 11.2174 81.7419 11.2129 81.7555L11.1812 81.7918L11.1268 81.8644C10.8729 82.1956 10.5102 82.5359 10.2201 82.9941C10.1208 83.1387 10.0528 83.3026 10.0206 83.4751C10.0059 83.5608 10.0092 83.6486 10.0302 83.733C10.0513 83.8173 10.0897 83.8964 10.143 83.9651C10.1838 84.0286 10.2155 84.1194 10.2881 84.1511C10.3206 84.1668 10.3562 84.1749 10.3923 84.1749C10.4284 84.1749 10.4641 84.1668 10.4966 84.1511C10.6314 84.0943 10.7544 84.0127 10.8593 83.9106C11.2038 83.5976 11.5212 83.221 11.9111 82.8353L12.0561 82.6947C12.1468 82.6175 12.2329 82.5313 12.3463 82.436C12.6019 82.2154 12.8854 82.0293 13.1895 81.8825C13.4714 81.7471 13.7851 81.6922 14.0962 81.7237C14.4088 81.7681 14.6926 81.9304 14.8895 82.1774C15.0451 82.3698 15.1718 82.5838 15.2658 82.8126C15.2658 82.8762 15.3293 82.9215 15.3293 82.9941C15.3602 83.0498 15.3874 83.1074 15.4109 83.1665C15.4554 83.2841 15.4799 83.4084 15.4834 83.5341C15.488 83.795 15.4529 84.0551 15.3792 84.3054C15.3293 84.4324 15.293 84.5685 15.2386 84.6956L15.089 85.054C14.7762 85.7845 14.4226 86.456 14.1325 87.1048C14.069 87.2455 14.0191 87.3816 13.9738 87.5086C13.9406 87.6029 13.9163 87.7002 13.9012 87.799H13.8106H13.738C13.6438 87.7893 13.5485 87.797 13.457 87.8217C13.4134 87.8247 13.3713 87.8388 13.3346 87.8625C13.3607 87.8287 13.375 87.7873 13.3754 87.7446C13.4037 87.6689 13.4205 87.5893 13.4252 87.5086C13.4276 87.4693 13.4276 87.43 13.4252 87.3907C13.4228 87.368 13.4228 87.3452 13.4252 87.3226H13.4524C13.5295 87.3226 13.6927 87.3226 13.8151 87.3226C14.0605 87.3168 14.3005 87.3953 14.4951 87.5449C14.596 87.6101 14.6929 87.6813 14.7853 87.7582C14.9167 87.8943 14.9031 88.0849 14.7399 88.3072C14.637 88.4397 14.5147 88.5559 14.3773 88.652C14.1541 88.8093 13.9011 88.9189 13.6338 88.9742C13.5575 88.9901 13.4803 89.0007 13.4026 89.0059C13.2917 89.0059 13.181 88.9968 13.0716 88.9787C12.9074 88.9398 12.753 88.8671 12.6183 88.7654C12.4664 88.6452 12.3466 88.4894 12.2692 88.3117C12.2333 88.2348 12.2059 88.1542 12.1876 88.0712C12.1876 88.0077 12.1876 87.9533 12.1604 87.8943C12.1332 87.8353 12.1604 87.7763 12.1604 87.7219V87.5994C12.1686 87.4556 12.1898 87.3128 12.2239 87.1729C12.3254 86.7806 12.4573 86.3968 12.6183 86.025C12.7588 85.6892 12.9039 85.3671 13.0444 85.054C13.185 84.7409 13.3255 84.4188 13.4207 84.1738C13.4207 84.1239 13.3844 84.1239 13.3708 84.1284L13.253 84.2419L12.8495 84.6956L11.8657 85.7981C11.5667 86.1379 11.2489 86.4605 10.9137 86.7645C10.7794 86.8856 10.6387 86.9992 10.4921 87.1048C10.3709 87.1901 10.2453 87.2689 10.1158 87.3408C9.78292 87.5321 9.40205 87.6234 9.01869 87.6039C8.83413 87.5973 8.65189 87.5606 8.47921 87.495C8.34754 87.4492 8.22369 87.3834 8.112 87.2999C8.05101 87.2593 7.99339 87.2137 7.93973 87.1638C7.87548 87.1219 7.82501 87.0619 7.79466 86.9914C7.60784 86.8174 7.44337 86.6208 7.30504 86.4061L7.32771 86.3834Z" fill="#231F20"/>
</svg>
