<svg width="153" height="152" viewBox="0 0 153 152" fill="none" xmlns="http://www.w3.org/2000/svg">
<path d="M59.9422 89.8691L59.7697 91.3343C59.7697 91.3343 51.8038 91.2501 51.1543 91.0926C51.1543 91.0889 59.4395 90.6017 59.9422 89.8691Z" fill="#231F20"/>
<path d="M27.9791 111.843C29.1384 106.459 30.1547 101.039 31.2003 95.6183C31.5856 93.6368 31.9341 91.6517 32.3817 89.6776C32.752 87.9188 33.2136 86.1804 33.7649 84.4695C33.9144 84.0298 34.0871 83.5982 34.2822 83.1766C34.4856 82.7004 34.7755 82.2659 35.137 81.8947L35.3131 81.7409L35.4709 81.642L35.7827 81.4516C35.8855 81.3856 35.9882 81.3197 36.0946 81.2611L36.4321 81.1146C36.6533 81.0083 36.8843 80.9236 37.1219 80.8619C37.3541 80.7871 37.5922 80.732 37.8336 80.6971C38.7747 80.5565 39.733 80.58 40.666 80.7667C41.5759 80.9278 42.4417 81.1769 43.2892 81.382C44.0704 81.6196 44.8926 81.692 45.7033 81.5944C46.5398 81.3966 47.391 81.1329 48.2422 80.8839C49.7639 80.4045 51.3093 80.0035 52.8723 79.6826C53.6723 79.5317 54.4834 79.4472 55.2974 79.4299C56.1348 79.4091 56.969 79.5407 57.7592 79.8181C58.2729 79.9964 58.7603 80.2428 59.2084 80.5506C59.664 80.8741 60.0558 81.2789 60.3641 81.7446C60.9392 82.6758 61.2416 83.7491 61.2373 84.8431C61.2437 85.8798 61.1354 86.914 60.9144 87.9269C60.709 88.9231 60.4411 89.8974 60.221 90.857C60.0853 91.4576 60.0045 91.7103 59.9202 91.6847C59.8358 91.659 59.7624 91.3441 59.7477 90.7947C59.7 89.6959 59.9385 87.7145 60.0486 85.5499C60.1107 84.6415 59.96 83.7311 59.6083 82.891C59.2437 82.1247 58.6127 81.5169 57.8326 81.1805C57.0063 80.8136 56.1053 80.6455 55.202 80.6898C54.2289 80.7332 53.2615 80.8619 52.311 81.0743C50.3554 81.4845 48.433 82.1401 46.3857 82.6749C46.2537 82.7042 46.1326 82.7408 45.9932 82.7701L45.5162 82.8397C45.3624 82.8523 45.2078 82.8523 45.0539 82.8397C44.9056 82.8437 44.7572 82.8363 44.61 82.8177L44.1808 82.7701L43.7698 82.6932C43.4947 82.6456 43.2415 82.576 42.981 82.5174C41.9538 82.2573 40.9925 81.968 40.0276 81.8252C38.9126 81.6097 37.758 81.7481 36.7256 82.2207C36.474 82.3497 36.229 82.4915 35.9919 82.6456C35.8148 82.8036 35.6659 82.9907 35.5516 83.1986C35.2674 83.7218 35.0317 84.2698 34.8472 84.8358C34.1099 87.2413 33.5109 89.687 33.0531 92.1608C31.9525 97.596 30.9692 103.075 29.8539 108.529C29.1678 111.884 28.4414 115.235 27.6526 118.568C26.4492 123.618 25.0844 128.654 23.426 133.544C22.2051 137.33 20.7255 141.028 18.9977 144.612C18.8033 145.008 18.6308 145.396 18.4107 145.78C18.1906 146.165 18.0071 146.553 17.787 146.938C16.1617 149.798 15.3692 150.545 14.7602 150.966C14.6302 151.066 14.4942 151.158 14.353 151.241C14.1879 151.311 14.2686 151.054 14.5401 150.531L15.0721 149.567C15.2922 149.172 15.5563 148.718 15.8498 148.209C17.6195 145.096 19.1466 141.853 20.4176 138.507C21.7384 135.104 22.9161 131.584 23.9544 128.013C25.5026 122.706 26.794 117.293 27.9424 111.858L27.9791 111.843Z" fill="#231F20"/>
<path d="M34.6262 51.6976C34.6262 51.6976 34.0392 45.7167 39.2233 43.5155C44.4074 41.3143 54.7059 38.9044 58.6683 35.6191C62.6306 32.3338 66.2518 22.2691 60.7852 15.8414C60.7852 15.8414 52.2514 6.74732 37.5723 16.5263C37.5723 16.5263 31.1335 23.2837 28.2204 28.6529C28.2204 28.6529 14.6823 25.5801 9.14236 35.5898C3.60239 45.5995 4.6847 48.3537 5.94678 57.1621C5.94678 57.1621 6.48611 60.5463 4.54161 65.9705C2.59712 71.3947 -2.10635 82.9097 8.27651 88.5573C8.27651 88.5573 14.0219 94.1024 30.5355 89.2605C30.5355 89.2605 39.7076 86.2756 40.3166 77.5404C40.3399 77.1908 40.3264 76.8397 40.2763 76.493C40.0341 74.6031 38.8601 66.9704 36.3176 63.4067C36.3176 63.4067 31.6985 65.3698 28.7854 60.6671C27.3179 58.2718 27.461 55.6348 28.7487 53.1296C29.71 51.2471 31.46 50.456 34.6262 51.6976Z" fill="#231F20"/>
<path d="M57.7801 46.4936C57.8094 46.3727 57.8388 46.2518 57.8571 46.1273C57.8571 46.0833 57.8571 46.0467 57.8571 46.0028C57.8865 45.8489 57.9635 45.6877 57.9892 45.5339C58.0067 45.4704 58.0067 45.4033 57.9892 45.3398C57.9635 45.2628 57.9048 45.1933 57.9892 45.0944C58.2533 44.9983 58.5383 44.9743 58.8148 45.0248C58.8575 45.1003 58.8844 45.1838 58.8939 45.27C58.9034 45.3563 58.8952 45.4436 58.8698 45.5266C58.8295 45.6365 58.9029 45.728 58.9029 45.8306C58.9029 45.9332 58.9029 46.065 58.9029 46.1786C58.8992 46.2506 58.8992 46.3227 58.9029 46.3947C58.8983 46.501 58.9107 46.6073 58.9396 46.7097C58.9689 46.783 59.0606 46.8452 59.1267 46.9148C59.1267 46.9148 59.167 46.9405 59.1781 46.9588C59.1891 46.9771 59.1304 47.0577 58.8111 47.1383L58.602 47.1896C58.4329 47.2451 58.2529 47.259 58.0773 47.2298C57.9895 47.2083 57.9111 47.1587 57.8541 47.0886C57.7972 47.0186 57.7647 46.9318 57.7617 46.8416C57.7617 46.728 57.7617 46.6108 57.7617 46.4936H57.7801Z" fill="#231F20"/>
<path d="M56.0779 69.4497C57.1407 68.7337 58.055 67.8196 58.7708 66.7577C59.0093 66.3598 59.2177 65.9448 59.3946 65.5161C59.7354 64.761 59.9641 63.9602 60.0733 63.1391C60.2019 62.29 60.2778 61.4338 60.3008 60.5754C60.3228 59.8136 60.3008 59.0408 60.2604 58.279C60.2274 57.7918 60.198 57.2974 60.165 56.8139C60.1559 56.3189 60.1743 55.8237 60.22 55.3306C60.2531 55.0193 60.4218 55.0596 60.62 55.3123C60.8996 55.6891 61.0846 56.1275 61.1593 56.5905C61.373 58.6238 61.3521 60.6748 61.0969 62.7033C60.9978 63.3186 60.9135 63.9486 60.7594 64.5858C60.6073 65.2252 60.3871 65.8465 60.1026 66.4391C59.4534 67.7125 58.5435 68.8355 57.4317 69.7354C57.0986 70.0116 56.7508 70.2696 56.3898 70.5082L55.8504 70.8744L55.2854 71.193C54.1443 71.808 52.9433 72.305 51.701 72.6764C50.7565 72.9824 49.7963 73.2379 48.8246 73.4418C48.6118 73.4748 48.399 73.5114 48.1789 73.5371C47.3644 73.6506 47.0782 73.4492 46.9131 73.2514C46.8697 73.2101 46.8304 73.1647 46.7957 73.1159C46.7553 73.039 46.814 72.9694 46.9535 72.8778C47.1479 72.7494 47.3643 72.6576 47.5918 72.6068C49.2962 72.2689 50.9737 71.8074 52.6108 71.226C53.8317 70.7756 54.9905 70.1726 56.0596 69.4314L56.0779 69.4497Z" fill="#231F20"/>
<path d="M64.5291 52.4671C64.5568 52.8085 64.5066 53.1516 64.3823 53.4708C64.2592 53.7616 64.0852 54.0283 63.8686 54.2583C63.7325 54.4213 63.5786 54.5687 63.4099 54.6979C62.8387 55.0788 62.2073 55.3611 61.5423 55.533L60.7167 55.7894C60.3721 55.9238 60.0042 55.9885 59.6343 55.9799C59.5169 55.9799 59.5022 55.7967 59.5609 55.6136C59.5839 55.5115 59.6286 55.4156 59.6919 55.3321C59.7552 55.2487 59.8356 55.1798 59.9278 55.1301C60.5956 54.903 61.2524 54.7308 61.9019 54.5147C62.2798 54.374 62.6209 54.1498 62.8999 53.859C63.1994 53.6058 63.4006 53.2559 63.4686 52.8701C63.4956 52.6308 63.4562 52.3889 63.3549 52.1704C63.1811 51.7941 62.9179 51.4659 62.588 51.2144C62.3112 51.028 62.0115 50.8778 61.6964 50.7675C61.6267 50.7382 61.557 50.7236 61.4909 50.6906C61.2414 50.5807 61.2047 50.4562 61.2781 50.1705C61.2781 50.1045 61.3075 50.0349 61.3295 49.9727C61.3625 49.8704 61.4318 49.7838 61.5245 49.7292C61.6171 49.6745 61.7265 49.6556 61.8322 49.676C62.5674 49.8212 63.2326 50.2081 63.7218 50.7748C64.1759 51.2427 64.4678 51.8435 64.5548 52.4891L64.5291 52.4671Z" fill="#231F20"/>
<path d="M61.7315 49.0386C61.5608 49.6409 61.281 50.207 60.906 50.7087C60.5166 51.2191 60.0144 51.6327 59.4385 51.9174C59.1715 52.0481 58.8971 52.1631 58.6167 52.2616C58.3426 52.3588 58.0633 52.4408 57.7802 52.507C57.2045 52.6482 56.6111 52.7037 56.0191 52.6718C55.1435 52.6351 54.2904 52.3835 53.5353 51.9393C52.6752 51.4017 51.9276 50.7027 51.334 49.881C51.0368 49.4854 50.7653 49.0752 50.5122 48.665C50.3362 48.3321 50.1286 48.0169 49.8921 47.7238C49.5578 47.7947 49.2301 47.894 48.9125 48.0204L47.6981 48.4599C46.5425 48.8775 45.3831 49.317 44.2091 49.6832C43.4515 49.927 42.6795 50.1239 41.8977 50.2729C41.0871 50.4688 40.237 50.4255 39.4506 50.1484C39.2011 50.0312 39.135 49.9066 39.1681 49.881C39.2011 49.8554 39.3442 49.881 39.5533 49.881C39.8251 49.8838 40.0962 49.853 40.3604 49.7894C40.687 49.7162 41.0649 49.6246 41.4868 49.544C42.8958 49.214 44.2808 48.7894 45.6326 48.2731L47.7092 47.5113L48.7658 47.1451L49.3088 46.9656L49.4555 46.9217C49.5348 46.8958 49.6157 46.875 49.6977 46.8594C49.854 46.8224 50.016 46.8162 50.1746 46.8411C50.5415 46.962 50.7947 47.4564 50.9084 47.5919C51.3698 48.4227 51.925 49.1981 52.5631 49.903C53.1762 50.5831 53.9454 51.1046 54.8047 51.4229C55.7478 51.7378 56.7656 51.7532 57.7178 51.4669C57.9666 51.3969 58.2116 51.3137 58.4516 51.2178C58.6823 51.1325 58.9056 51.0284 59.1193 50.9065C59.5273 50.6603 59.8727 50.3231 60.1282 49.9213C60.774 48.9177 60.895 47.5956 60.8033 46.332C60.7301 45.354 60.548 44.3873 60.2603 43.4496C60.1226 42.9854 59.9497 42.5324 59.743 42.0944C59.6945 41.9939 59.6406 41.8961 59.5816 41.8014C59.5439 41.7381 59.491 41.6852 59.4275 41.6476C59.2606 41.5581 59.074 41.5116 58.8845 41.5121C58.1547 41.556 57.4376 41.7231 56.7639 42.0065C56.0521 42.2666 55.333 42.5523 54.5846 42.7976C54.2544 42.9039 53.9279 43.0137 53.5793 43.0943C53.1166 43.2233 52.6337 43.2643 52.1558 43.2152C51.9148 43.197 51.6901 43.0868 51.5284 42.9075C51.4664 42.8461 51.4121 42.7772 51.367 42.7024C51.29 42.4717 51.7816 42.4094 52.6144 42.2007C53.8692 41.926 55.1239 41.3509 56.5071 40.8565C56.8556 40.7356 57.2115 40.6148 57.6077 40.5159C58.0213 40.4003 58.4478 40.3375 58.8772 40.3291C59.145 40.3287 59.4113 40.3707 59.666 40.4536C59.9939 40.5563 60.2846 40.7523 60.5025 41.0177C60.645 41.2126 60.7679 41.4212 60.8693 41.6403C60.9611 41.8271 61.0418 42.0065 61.1152 42.1897C61.5399 43.2614 61.833 44.3805 61.9883 45.5226C62.0718 46.1022 62.1 46.6884 62.0727 47.2733C62.0514 47.8772 61.9616 48.4768 61.8049 49.0606L61.7315 49.0386Z" fill="#231F20"/>
<path d="M58.7245 12.9262C59.8577 13.6203 60.8599 14.508 61.6852 15.5486C62.4785 16.5787 63.1243 17.714 63.604 18.9218C63.8429 19.5201 64.0475 20.1316 64.2167 20.7531L64.4295 21.6907C64.5029 22.002 64.5323 22.3206 64.5836 22.6356C64.7615 23.9064 64.7837 25.1941 64.6497 26.4703C64.421 28.3356 63.8237 30.1369 62.8923 31.77C62.0598 33.1844 60.9943 34.4486 59.7407 35.5094C58.5111 36.5513 57.1553 37.4347 55.705 38.1391C54.2698 38.837 52.7757 39.4069 51.24 39.8422C49.7137 40.2817 48.1948 40.6333 46.6906 41.0472C44.027 41.7797 41.3634 42.6367 39.0961 44.1054C38.3704 44.5626 37.6963 45.0968 37.0855 45.6986C36.5127 46.3037 36.0739 47.0226 35.7978 47.8082C35.5124 48.599 35.3527 49.4294 35.3245 50.2694C35.3245 50.4819 35.3245 50.6906 35.3245 50.8994C35.3245 51.1082 35.3538 51.3169 35.3905 51.5257C35.4272 51.7345 35.4419 51.9396 35.4969 52.141L35.5666 52.4486L35.662 52.749C35.8235 53.2434 35.8968 53.4815 35.8125 53.4815C35.7281 53.4815 35.5079 53.3313 35.2254 52.9284C34.8269 52.3625 34.5576 51.7161 34.4366 51.0349C34.2495 50.0547 34.2909 49.0446 34.5577 48.0829C34.8088 47.1188 35.2531 46.2155 35.8638 45.4276L36.1023 45.1346C36.1867 45.0393 36.2784 44.9514 36.3701 44.8599C36.5388 44.6846 36.719 44.5206 36.9094 44.3691C37.2763 44.0468 37.6432 43.7794 38.0394 43.4938C39.6009 42.4629 41.2875 41.6347 43.0584 41.0289C44.8012 40.4062 46.5732 39.9301 48.3306 39.4686C50.0733 39.0517 51.7887 38.5282 53.467 37.9011C54.4623 37.5038 55.4262 37.0325 56.3507 36.491C57.276 35.9392 58.1481 35.3028 58.9556 34.5901C59.7464 33.8642 60.4562 33.055 61.0725 32.1765C61.6646 31.2883 62.1568 30.3376 62.5401 29.3417C62.9376 28.2459 63.1844 27.1013 63.2738 25.9392C63.3741 24.7693 63.3236 23.5913 63.1234 22.4342C62.9273 21.2744 62.5936 20.142 62.1292 19.061C61.655 17.9929 61.0271 16.9996 60.2654 16.1126C58.431 13.9151 55.5362 12.7761 52.6305 12.5124C50.3969 12.3218 48.1471 12.5075 45.9752 13.0618C43.7955 13.5892 41.7078 14.4412 39.7822 15.5889C36.7994 17.3652 34.3889 19.8521 32.3894 22.6173C32.1619 22.9176 31.9491 23.2216 31.7437 23.5329C31.5382 23.8443 31.3181 24.1482 31.12 24.4742C30.3459 25.6535 29.8652 26.452 29.4873 26.994C29.2404 27.3884 28.9277 27.7378 28.5628 28.0269C28.4463 28.1236 28.3237 28.213 28.1959 28.2942C28.0308 28.3675 28.0418 28.1258 28.1959 27.6093C28.4318 26.8333 28.7439 26.0825 29.1278 25.3679C29.855 23.9282 30.689 22.5448 31.6226 21.2292C32.6091 19.8912 33.7142 18.6446 34.9246 17.5044C37.4141 15.1494 40.3839 13.3591 43.6308 12.256C46.0607 11.4099 48.6152 10.9754 51.1886 10.9705C53.8334 10.9369 56.4404 11.6001 58.7465 12.8933L58.7245 12.9262Z" fill="#231F20"/>
<path d="M7.0073 88.7699C5.51829 87.8149 4.21343 86.6004 3.15501 85.1843C2.09499 83.7478 1.36473 82.096 1.01606 80.3461C0.693248 78.6287 0.640026 76.8717 0.858302 75.138C1.06595 73.4383 1.42446 71.7604 1.92961 70.124C2.63403 67.7543 3.55124 65.4579 4.43177 63.2238C4.61888 62.733 4.79865 62.2459 4.93807 61.7588C4.99677 61.517 5.07015 61.2753 5.11785 61.0263C5.16554 60.7772 5.2169 60.5318 5.24625 60.2937C5.37537 59.2814 5.38522 58.2575 5.27561 57.2429C5.07749 55.1845 4.51615 53.1188 4.17495 50.9689C3.78015 48.7902 3.7665 46.5597 4.13459 44.3764C4.50636 42.2102 5.20009 40.1116 6.19282 38.1501C7.05395 36.4034 8.12988 34.7708 9.39573 33.2899C10.037 32.5602 10.7298 31.8772 11.4686 31.2462C12.2121 30.6161 13.0033 30.0442 13.835 29.5358C15.9878 28.2344 18.3971 27.4136 20.8976 27.1295C22.1457 26.9848 23.4064 26.9848 24.6545 27.1295C25.2829 27.1968 25.9041 27.3193 26.511 27.4958C27.1295 27.6601 27.7257 27.8987 28.2867 28.2063C28.9948 28.6238 29.1892 29.0047 29.1012 29.045C29.0131 29.0853 28.9361 29.045 28.7673 28.9791C28.5985 28.9132 28.3417 28.8509 28.0335 28.7813C27.187 28.6137 26.328 28.517 25.4653 28.492C24.2706 28.438 23.0737 28.4539 21.8809 28.5396C19.5377 28.7192 17.258 29.3853 15.1876 30.4953C13.1173 31.6054 11.302 33.1348 9.85801 34.9856C6.92292 38.6994 5.04814 43.4095 5.16554 48.211C5.21323 51.0678 6.22951 53.9869 6.55971 57.1293C6.75207 58.728 6.65514 60.3481 6.27353 61.9126C6.06802 62.6762 5.81436 63.4261 5.51408 64.1577L4.67758 66.293C3.4742 69.3878 2.4249 72.5596 2.10938 75.8156C1.94069 77.4257 2.04488 79.0526 2.41757 80.6281C2.61189 81.4034 2.89375 82.1542 3.25773 82.8659C3.35312 83.0381 3.43384 83.2322 3.54391 83.3897L3.8741 83.8951L4.2043 84.4005L4.57118 84.8694C5.85656 86.4185 7.45737 87.677 9.26732 88.5612C11.0879 89.448 13.0284 90.0649 15.0274 90.3924C16.5478 90.658 18.0884 90.7904 19.6318 90.788C20.4023 90.788 21.1764 90.7587 21.9432 90.6855C22.71 90.6122 23.4841 90.5097 24.2546 90.4181C25.0251 90.3265 25.7845 90.1654 26.5403 90.0079C27.2961 89.8504 28.0482 89.6709 28.7783 89.4292C29.5084 89.1875 30.2458 88.9458 30.9539 88.6784C31.658 88.3861 32.3452 88.0547 33.0122 87.6858C33.5275 87.4014 34.0271 87.0896 34.5091 86.7519C34.7439 86.5834 34.9677 86.3856 35.1988 86.2135C35.3125 86.1219 35.4299 86.0377 35.5363 85.9425L35.8555 85.6421C36.2778 85.2487 36.6748 84.8292 37.0442 84.3859L37.5579 83.6937C37.734 83.4666 37.8624 83.2066 38.0202 82.9612C39.1593 80.96 39.7538 78.6959 39.7445 76.3942C39.7452 75.3807 39.6729 74.3685 39.5281 73.3653C39.2529 71.4791 38.9264 70.2558 38.7393 69.3842C38.6475 68.9483 38.5778 68.6004 38.5411 68.2854C38.5215 68.027 38.5215 67.7674 38.5411 67.5089C38.531 67.3088 38.531 67.1084 38.5411 66.9083C38.5852 66.6885 38.809 66.9266 39.1869 67.5602C39.7151 68.5453 40.1181 69.5923 40.3866 70.677C40.9819 72.8387 41.2223 75.0824 41.0983 77.3209C40.967 79.6792 40.24 81.966 38.9851 83.9684C38.3422 84.974 37.5645 85.8871 36.6737 86.6823L36.3435 86.9826L35.9766 87.2573C35.7418 87.4368 35.5107 87.6236 35.2722 87.7994L34.5384 88.2865L34.1715 88.5282L33.7826 88.7407C31.7223 89.8576 29.5118 90.6729 27.219 91.1616L26.588 91.3081L25.9533 91.4216L24.6839 91.645C23.829 91.7513 22.9888 91.8831 22.1157 91.9564C20.3862 92.112 18.6463 92.112 16.9169 91.9564C13.4682 91.6341 9.99376 90.7001 7.01097 88.7846L7.0073 88.7699Z" fill="#231F20"/>
<path d="M28.7528 55.2283C28.5356 56.3905 28.6164 57.5887 28.9876 58.7114C29.0574 58.9128 29.1491 59.1069 29.2298 59.3011C29.3105 59.4952 29.4352 59.6673 29.5233 59.8614C29.9011 60.5181 30.3989 61.0983 30.9908 61.5718C31.6011 62.0575 32.2984 62.4229 33.0454 62.6486C33.721 62.8525 34.4235 62.9537 35.1293 62.9489C36.0342 62.9186 36.9356 62.8206 37.8259 62.6559C38.1084 62.6193 38.1451 62.8281 37.9653 63.1064C37.8487 63.2786 37.7035 63.4297 37.5361 63.5533C37.3129 63.7055 37.0645 63.8171 36.8023 63.8829C35.7856 64.1062 34.7348 64.1286 33.7095 63.9488C32.6598 63.7845 31.6583 63.3946 30.7744 62.8061C30.2449 62.4436 29.7532 62.0288 29.3068 61.5682C28.8597 61.0943 28.4884 60.5545 28.2062 59.9676C28.0704 59.6417 27.9347 59.3084 27.8393 58.9824C27.7439 58.6564 27.6632 58.3158 27.5971 57.9789C27.4663 57.2986 27.4232 56.6044 27.4687 55.9132C27.5211 55.0488 27.7588 54.2057 28.1658 53.441C28.324 53.1538 28.5082 52.8816 28.7161 52.6279L29.028 52.2617L29.3729 51.9211C29.8467 51.472 30.3987 51.1133 31.0018 50.8626C31.4784 50.6667 31.9843 50.5516 32.4987 50.522C33.0212 50.5063 33.5421 50.5857 34.036 50.7564C34.2533 50.8265 34.4624 50.9198 34.6597 51.0347C34.8159 51.1209 34.9612 51.2255 35.0926 51.346C35.1873 51.4215 35.269 51.5118 35.3348 51.6134C35.4125 51.7619 35.4396 51.9316 35.4118 52.0969C35.4048 52.1624 35.3926 52.2274 35.3751 52.291C35.3384 52.3825 35.2357 52.4008 35.0743 52.3825C34.8647 52.3519 34.6615 52.2876 34.4726 52.1921C33.8453 51.8626 33.145 51.6963 32.4364 51.7086C31.7371 51.7637 31.0715 52.0308 30.5286 52.4741L30.2167 52.7415L29.9195 53.0455L29.6407 53.3714C29.5526 53.4813 29.4793 53.5948 29.3986 53.7047C29.0994 54.1723 28.8904 54.6915 28.7822 55.2356L28.7528 55.2283Z" fill="#231F20"/>
<path d="M68.9592 90.1179C67.4476 90.4841 65.925 90.8076 64.3914 91.0884C63.8338 91.1873 63.2908 91.3119 62.7111 91.3815C60.7257 91.656 58.7242 91.7991 56.7199 91.81C56.2759 91.81 55.832 91.81 55.3881 91.81C54.9441 91.81 54.5002 91.7807 54.0599 91.7367C53.4949 91.6964 52.9299 91.6305 52.3649 91.5463C51.8066 91.4391 51.2553 91.2985 50.7139 91.1251C50.3764 91.0189 50.4461 90.9529 50.7543 90.9273C50.9633 90.9153 51.1727 90.9153 51.3817 90.9273C51.6385 90.9273 51.9393 90.9273 52.2549 90.9493C53.3756 91.072 54.5028 91.1271 55.6302 91.1141C56.7566 91.1141 57.8939 91.0628 59.0349 90.9969C60.4343 90.8738 61.8249 90.6659 63.1991 90.3743C64.7204 90.1032 66.2344 89.7858 67.7411 89.422C68.6657 89.1986 69.5755 88.9569 70.5074 88.6895C71.8943 88.2903 73.2847 87.8727 74.6386 87.3929C75.6915 87.0267 76.6931 86.5762 77.7131 86.155C77.9369 86.0634 78.1533 85.9609 78.3808 85.873C79.2283 85.5434 79.5255 85.5067 79.8043 85.6935C79.8708 85.7281 79.9325 85.7712 79.9878 85.8217C80.1418 85.9865 79.8593 86.2759 79.254 86.5762C77.3972 87.4793 75.4725 88.2361 73.4975 88.8397C72.008 89.3194 70.4928 89.7406 68.9702 90.1325L68.9592 90.1179Z" fill="#231F20"/>
<path d="M89.5891 74.933C88.6499 75.6655 87.718 76.4456 86.7972 77.2221C86.4596 77.5078 86.1478 77.8154 85.8139 78.1048C84.6399 79.1156 83.4842 80.1448 82.3909 81.2399C81.8992 81.7197 81.4443 82.2398 81.004 82.7562C80.4427 83.4264 79.9364 84.137 79.331 84.7706C79.1402 84.9683 79.0228 84.8475 79.0118 84.5508C79.0072 84.1211 79.1353 83.7003 79.3787 83.3459C80.4574 81.8708 81.6965 80.5196 83.0733 79.3171C83.8988 78.5846 84.6839 77.7788 85.5131 77.0353C86.4278 76.2149 87.3585 75.4177 88.305 74.6437C88.8872 74.1553 89.4779 73.6841 90.0771 73.2299C90.9797 72.5267 91.9115 71.8601 92.8581 71.2119C93.5919 70.7064 94.2853 70.1864 95.0301 69.7139C95.1952 69.6077 95.3493 69.5015 95.5217 69.4063C96.1491 69.04 96.4096 69.04 96.6664 69.2121C96.728 69.2476 96.7858 69.2894 96.8388 69.3367C96.9856 69.4868 96.8168 69.8018 96.3912 70.0875C95.1255 70.9555 93.79 71.8162 92.4839 72.7611C91.5153 73.4607 90.5504 74.1895 89.6148 74.9587L89.5891 74.933Z" fill="#231F20"/>
<path d="M105.3 78.5146C106.497 81.3818 107.051 84.4758 106.922 87.5794L106.859 88.4035L106.232 88.9638C105.957 89.2056 105.689 89.4583 105.418 89.7146C104.875 90.2164 104.339 90.7402 103.8 91.2529L100.586 94.3844C99.0191 95.908 97.4672 97.4536 95.8675 98.9442C94.4514 100.259 93.0168 101.552 91.5309 102.801L90.3973 103.72L89.2489 104.617C88.849 104.903 88.4308 105.171 88.0235 105.449L87.3595 105.815C87.1393 105.94 86.9155 106.061 86.7027 106.156C84.971 106.987 83.2357 107.848 81.4416 108.599C80.5464 108.965 79.6365 109.331 78.701 109.624C77.7684 109.92 76.8205 110.164 75.8613 110.357C74.1773 110.705 72.4749 110.987 70.7726 111.225C69.0702 111.463 67.3568 111.613 65.6362 111.704C63.436 111.833 61.2296 111.812 59.0322 111.642C56.8244 111.48 54.6493 111.017 52.5677 110.265C51.2762 109.789 51.5294 109.683 52.6814 109.837C53.8188 110.06 55.9137 110.203 58.3498 110.474C62.7011 110.899 67.1184 110.551 71.477 109.946C73.6518 109.66 75.8052 109.231 77.9232 108.661C80.0201 107.984 82.0653 107.156 84.0428 106.185L85.8772 105.317C86.1781 105.167 86.5009 105.024 86.7651 104.863C87.0527 104.715 87.3319 104.551 87.6016 104.372L88.4234 103.812L89.2269 103.2C89.7662 102.801 90.2762 102.347 90.8082 101.922C92.8848 100.157 94.888 98.2593 96.8655 96.3658C99.0411 94.2891 101.184 92.1685 103.356 90.0699C103.899 89.5449 104.449 89.0249 105.007 88.5097L105.715 87.8724C105.732 87.7596 105.742 87.6458 105.744 87.5318V86.9824C105.772 85.5061 105.63 84.0315 105.322 82.5874C104.513 79.0196 102.887 75.6875 100.571 72.8523C100.141 72.3103 99.6929 71.7853 99.2282 71.2775L98.8613 70.9112L98.4211 70.4131C98.3366 70.3277 98.2604 70.2345 98.1936 70.1347C98.162 70.0497 98.141 69.9612 98.1312 69.871C98.1327 69.8601 98.1327 69.849 98.1312 69.8381C98.1298 69.8321 98.1298 69.8258 98.1312 69.8198H98.0578L98.1092 69.7612L98.2119 69.6476L98.4174 69.4132L98.887 69.0836C98.9787 69.0213 99.0044 68.9957 99.0631 68.9517L99.2209 68.8345C99.4263 68.6734 99.6354 68.5196 99.8409 68.3548C100.248 68.0251 100.655 67.6955 101.052 67.3512C101.851 66.6663 102.629 65.9595 103.396 65.2379C104.926 63.7986 106.404 62.3079 107.824 60.777C108.6 60.0021 109.415 59.2686 110.268 58.5795C111.109 57.8847 111.993 57.2449 112.917 56.6639C113.383 56.3716 113.864 56.1039 114.359 55.8619C114.861 55.6135 115.382 55.4065 115.918 55.2429C116.472 55.0702 117.047 54.9717 117.628 54.9499C118.241 54.9301 118.852 55.0478 119.414 55.2942C119.543 55.3431 119.666 55.4057 119.781 55.4809C119.895 55.5505 120.027 55.6238 120.119 55.6897C120.313 55.8289 120.511 55.9607 120.702 56.1072C121.091 56.3893 121.472 56.6896 121.843 57.0156C122.455 57.5304 122.985 58.1341 123.417 58.8065C123.589 59.0984 123.713 59.4163 123.784 59.7478C123.822 59.9296 123.83 60.1163 123.81 60.3008C123.792 60.4697 123.739 60.633 123.655 60.7806C123.515 61.0294 123.286 61.2163 123.013 61.3044C122.802 61.3711 122.579 61.3874 122.36 61.352C122.094 61.3015 121.847 61.1742 121.652 60.9857C121.515 60.8578 121.402 60.7065 121.318 60.5389C121.289 60.4437 121.348 60.418 121.472 60.44C121.665 60.488 121.862 60.5211 122.06 60.5389C122.183 60.5488 122.306 60.5389 122.426 60.5096C122.522 60.4871 122.606 60.4296 122.661 60.3485C122.683 60.3007 122.694 60.2489 122.694 60.1965C122.694 60.144 122.683 60.0922 122.661 60.0445C122.588 59.8302 122.485 59.6268 122.357 59.4401C121.821 58.7224 121.182 58.088 120.46 57.5576C120.093 57.2683 119.726 56.9936 119.323 56.7225C119.004 56.501 118.643 56.3476 118.262 56.2721C117.413 56.1649 116.551 56.2797 115.76 56.6053C114.883 56.9392 114.044 57.3627 113.254 57.8689C111.614 58.9314 110.087 60.1586 108.698 61.5315L107.663 62.6302L106.592 63.729C105.875 64.4615 105.149 65.1793 104.412 65.8825C103.6 66.6614 102.767 67.4245 101.914 68.1716C101.483 68.5452 101.047 68.9115 100.604 69.2704C100.384 69.4572 100.149 69.6366 99.9253 69.8051L99.6061 70.0505H99.5878C99.5878 70.0505 99.5878 70.0505 99.5878 70.0725C99.9216 70.4387 100.252 70.7794 100.575 71.1493C101.217 71.8818 101.826 72.6472 102.409 73.442C103.554 75.0379 104.514 76.758 105.271 78.5696L105.3 78.5146Z" fill="#231F20"/>
<path d="M121.502 62.9351C121.199 62.3102 120.83 61.7195 120.401 61.1732C120.243 60.9681 120.052 60.807 119.884 60.6092C119.588 60.2838 119.259 59.9892 118.904 59.7301C118.577 59.4822 118.189 59.3266 117.781 59.2795C117.491 59.2575 116.989 59.4187 116.563 59.4517C116.284 59.481 116.016 59.5176 115.77 59.5396C115.525 59.5616 115.279 59.5689 115.037 59.5945C114.879 59.5945 114.827 59.4407 114.904 59.2282C114.957 59.0801 115.044 58.9464 115.158 58.8382C115.272 58.73 115.41 58.6503 115.561 58.6055C115.841 58.544 116.126 58.5084 116.413 58.4993C116.659 58.4804 116.904 58.4486 117.146 58.4041L117.242 58.3858L117.381 58.3674L117.664 58.3418C117.843 58.3464 118.022 58.3623 118.199 58.3894C118.365 58.4407 118.533 58.4883 118.687 58.5506C118.842 58.6129 118.981 58.6934 119.117 58.7777C119.736 59.1628 120.308 59.6203 120.819 60.1403C121.348 60.7025 121.819 61.316 122.225 61.9718C122.481 62.3819 122.696 62.8162 122.867 63.2684C122.929 63.4369 122.991 63.6091 123.043 63.7849C123.094 63.9607 123.135 64.1219 123.179 64.349C123.259 64.8252 123.278 65.3453 122.925 65.653C122.364 66.0816 121.414 65.5761 120.999 65.3746C120.893 65.316 120.775 65.2684 120.673 65.1988C120.592 65.1481 120.516 65.0905 120.445 65.0267C120.396 64.9771 120.358 64.917 120.335 64.8508C120.314 64.796 120.305 64.7373 120.309 64.6787C120.32 64.6088 120.337 64.5402 120.361 64.4736C120.383 64.415 120.394 64.3527 120.412 64.3087C120.494 64.2171 120.603 64.154 120.723 64.129C120.843 64.1039 120.968 64.1181 121.08 64.1695L121.704 64.4479C121.916 64.5432 122.071 64.6018 122.071 64.5651C122.074 64.5624 122.076 64.559 122.078 64.5552C122.08 64.5514 122.08 64.5473 122.08 64.5432C122.08 64.539 122.08 64.5349 122.078 64.5311C122.076 64.5273 122.074 64.5239 122.071 64.5212C122.071 64.4882 122.071 64.4479 122.034 64.3563C121.993 64.2062 121.946 64.0487 121.894 63.8875C121.795 63.5687 121.673 63.2577 121.527 62.9571L121.502 62.9351Z" fill="#231F20"/>
<path d="M116.676 65.6192C116.81 65.5132 116.953 65.4177 117.101 65.3335C117.19 65.2969 117.274 65.2492 117.362 65.2199C117.451 65.1934 117.542 65.1738 117.633 65.1613C117.818 65.1475 118.002 65.1755 118.174 65.2434C118.346 65.3113 118.499 65.4173 118.624 65.5532C118.662 65.5788 118.697 65.6097 118.727 65.6448L118.771 65.6888L118.859 65.7767L119.046 65.9378C119.172 66.0416 119.304 66.137 119.442 66.2235C119.7 66.3916 119.984 66.5153 120.282 66.5897C120.349 66.6047 120.416 66.6157 120.484 66.6227C120.509 66.626 120.533 66.626 120.558 66.6227C120.609 66.6155 120.657 66.591 120.693 66.5531C120.72 66.5134 120.731 66.4649 120.723 66.4176C120.727 66.3872 120.727 66.3564 120.723 66.326C120.697 66.2528 120.686 66.1795 120.653 66.099C120.536 65.7769 120.388 65.4667 120.213 65.1723C119.862 64.5443 119.434 63.9623 118.94 63.44C118.736 63.2142 118.497 63.0237 118.231 62.8759C117.969 62.7409 117.684 62.6541 117.391 62.6196C116.989 62.5828 116.583 62.5828 116.181 62.6196C115.748 62.6406 115.313 62.6308 114.882 62.5903C114.603 62.5536 114.651 62.3815 114.882 62.1837C115.192 61.9025 115.572 61.7101 115.982 61.627C116.455 61.5582 116.933 61.5398 117.41 61.5721C117.948 61.6067 118.472 61.7646 118.94 62.0335C119.366 62.2991 119.751 62.6247 120.084 63.0005C120.402 63.3486 120.689 63.7236 120.943 64.1212C121.263 64.6093 121.54 65.1239 121.772 65.6595C121.803 65.731 121.83 65.8044 121.853 65.8792C121.889 65.9676 121.916 66.0597 121.933 66.1539L121.999 66.4872C121.999 66.5934 121.999 66.7033 121.999 66.8095C121.985 67.0214 121.907 67.2241 121.776 67.3917C121.645 67.5594 121.468 67.6844 121.266 67.7508C121.166 67.7841 121.064 67.8098 120.961 67.8277L120.646 67.857C120.464 67.8568 120.283 67.8371 120.106 67.7984C119.809 67.7298 119.523 67.6213 119.255 67.4761C118.995 67.3428 118.749 67.1833 118.521 66.9999C118.404 66.9157 118.305 66.8132 118.195 66.7216C118.142 66.6743 118.092 66.6242 118.044 66.5714C118.005 66.5351 117.968 66.4959 117.934 66.4542C117.895 66.398 117.836 66.3577 117.769 66.3407C117.686 66.3353 117.603 66.3585 117.534 66.4066L117.476 66.4469L117.38 66.5165C117.314 66.5641 117.252 66.6264 117.186 66.6776C116.921 66.9181 116.669 67.1737 116.434 67.4431C115.662 68.2685 114.801 69.0055 113.866 69.6406C113.132 70.1562 112.316 70.5427 111.451 70.7833C111.26 70.8423 111.064 70.8815 110.864 70.9005C110.707 70.9165 110.548 70.9165 110.391 70.9005C110.282 70.9004 110.174 70.8818 110.072 70.8456C109.933 70.7847 109.816 70.6824 109.738 70.5526C109.706 70.5044 109.676 70.4542 109.65 70.4024C109.621 70.3182 109.679 70.2486 109.804 70.168C109.97 70.061 110.154 69.9852 110.347 69.9446C110.692 69.864 111.026 69.7432 111.356 69.648C111.685 69.5326 112.006 69.3956 112.317 69.2377C112.954 68.9023 113.551 68.4969 114.097 68.0291C114.519 67.6629 114.922 67.2966 115.329 66.8681C115.531 66.6593 115.755 66.4652 115.979 66.2564C116.203 66.0477 116.408 65.8096 116.691 65.5825L116.676 65.6192Z" fill="#231F20"/>
<path d="M58.5554 130.98C58.6361 129.761 58.7058 128.534 58.7535 127.318C58.7719 126.871 58.7535 126.42 58.7755 125.973C58.8379 124.399 58.9003 122.816 58.9333 121.238C58.9333 120.535 58.9333 119.831 58.9333 119.136L58.9113 117.791C58.9113 117.345 58.9553 116.894 59.0067 116.447C59.0434 116.169 59.1938 116.205 59.3736 116.447C59.6103 116.801 59.7565 117.207 59.7992 117.63C59.8432 118.542 59.8615 119.461 59.8725 120.366C59.8835 121.271 59.8358 122.197 59.7808 123.12C59.7184 124.219 59.7808 125.369 59.7515 126.497C59.7331 127.735 59.6928 128.977 59.6414 130.218L59.5277 132.507C59.469 133.665 59.3772 134.822 59.3075 135.972C59.2488 136.862 59.2488 137.741 59.1975 138.628C59.1975 138.822 59.1975 139.016 59.1718 139.21C59.0911 139.942 58.9627 140.155 58.6802 140.276C58.6177 140.307 58.5527 140.333 58.4857 140.353C58.2729 140.397 58.1188 140.082 58.1188 139.547C58.0931 137.972 58.2105 136.335 58.3059 134.683C58.394 133.46 58.4857 132.225 58.5444 130.991L58.5554 130.98Z" fill="#231F20"/>
<path d="M45.5888 131.845C43.5832 131.607 41.5995 131.212 39.6563 130.662L38.596 130.365C38.2291 130.255 37.8916 130.145 37.543 130.025C35.1005 129.156 32.7732 127.994 30.6125 126.563L29.8788 126.091L29.178 125.593C28.7011 125.274 28.2608 124.904 27.8022 124.567C26.6321 123.684 25.5825 122.652 24.68 121.498C24.3975 121.132 24.5919 121.055 25.0065 121.19C25.6207 121.42 26.1886 121.757 26.6832 122.187C28.827 124.128 31.1854 125.818 33.7127 127.226C35.2878 128.07 36.9449 128.751 38.6583 129.259C40.5397 129.86 42.4675 130.304 44.4221 130.589C45.6267 130.775 46.8404 130.897 48.058 130.955C49.9007 131.055 51.7487 131.005 53.5833 130.805C54.9745 130.63 56.3498 130.346 57.696 129.955C57.9932 129.874 58.2794 129.772 58.5729 129.684C59.6736 129.358 60.0404 129.292 60.367 129.497C60.4479 129.537 60.5253 129.583 60.5981 129.636C60.7852 129.812 60.4073 130.182 59.5892 130.515C57.1604 131.49 54.4234 131.925 51.6865 132.072C49.647 132.171 47.6029 132.105 45.5741 131.874L45.5888 131.845Z" fill="#231F20"/>
<path d="M58.5181 130.255C58.5181 130.255 58.8849 133.405 53.8072 134.09C49.7715 134.628 37.8661 132.581 33.3387 134.995C28.8113 137.408 21.492 147.345 20.395 148.678C18.9054 150.487 14.4111 151.432 15.2806 150.11C16.1501 148.788 23.198 136.298 23.9207 130.794C24.6435 125.289 26.4889 123.15 26.4889 123.15C26.4889 123.15 33.7936 129.226 38.6622 130.255C38.6549 130.255 49.9439 133.207 58.5181 130.255Z" fill="#231F20"/>
<path d="M98.9079 2.38893C100.023 2.42311 101.14 2.42922 102.258 2.40724C102.665 2.40724 103.068 2.35963 103.476 2.3523C104.91 2.29736 106.348 2.26074 107.783 2.13255C108.418 2.07761 109.049 1.97506 109.672 1.89082C110.072 1.8249 110.472 1.75531 110.868 1.67473C111.261 1.60137 111.648 1.50227 112.028 1.37807C112.251 1.29383 112.266 1.35609 112.105 1.52823C111.828 1.79091 111.496 1.98861 111.132 2.10691C110.329 2.3844 109.505 2.59511 108.667 2.73687C107.833 2.87059 106.993 2.96227 106.15 3.01156C105.141 3.07748 104.092 3.1837 103.061 3.2423C101.927 3.29724 100.79 3.32287 99.6526 3.32654C98.9556 3.32654 98.2548 3.32654 97.5541 3.3009C96.4974 3.2716 95.4334 3.20567 94.3805 3.13242C93.5623 3.07382 92.7515 3.05185 91.926 2.92732C91.7422 2.90721 91.5597 2.87664 91.3794 2.83576C91.1322 2.77846 90.899 2.67264 90.6933 2.52444C90.5875 2.42887 90.5187 2.29924 90.4988 2.15819C90.4862 2.10293 90.4801 2.04639 90.4805 1.98971C90.4805 1.90914 90.5685 1.87251 90.7043 1.85054C90.8841 1.82082 91.0675 1.82082 91.2473 1.85054C92.5754 2.04099 94.0613 2.16918 95.5509 2.25341C96.6515 2.31934 97.7852 2.35597 98.9079 2.37428V2.38893Z" fill="#231F20"/>
<path d="M112.615 18.3613C112.38 19.46 112.086 20.5185 111.756 21.5806L111.433 22.5402L111.374 22.7124L111.345 22.8003C111.327 22.8222 111.345 22.8772 111.297 22.8662L110.931 22.9211L110.358 22.9944C109.819 23.0603 109.283 23.1372 108.744 23.2141L106.385 23.5804C103.604 23.9869 100.786 24.3935 97.9281 24.2763C96.666 24.2103 95.4112 24.0968 94.1785 23.932C92.5874 23.7362 91.0217 23.3715 89.508 22.8442C89.0421 22.6611 89.1412 22.5915 89.5741 22.6245C89.7869 22.6245 90.0841 22.6721 90.4399 22.7197C90.7958 22.7673 91.2141 22.8149 91.658 22.8882C92.4505 23.02 93.2466 23.1116 94.0428 23.1958C94.8389 23.2801 95.6387 23.3789 96.4385 23.4375C98.034 23.5749 99.6383 23.5749 101.234 23.4375C103.167 23.2874 105.163 22.9028 107.137 22.5732C108.238 22.3937 109.313 22.2069 110.413 22.0678L110.582 22.0494C110.615 22.0165 110.622 21.9506 110.644 21.9029C110.714 21.6832 110.813 21.4012 110.886 21.1485C111.037 20.6284 111.187 20.1046 111.312 19.5772C111.626 18.275 111.871 16.9571 112.046 15.629C112.322 13.6145 112.451 11.5825 112.431 9.54921C112.396 7.99798 112.273 6.44996 112.064 4.91244C112.027 4.57549 111.958 4.24586 111.917 3.90525C111.793 2.63801 111.785 2.23147 112.013 1.91283C112.052 1.84068 112.097 1.77205 112.149 1.70773C112.303 1.5539 112.574 2.04102 112.813 2.9713C112.987 3.66758 113.122 4.37313 113.216 5.08458C113.324 5.80244 113.403 6.53495 113.455 7.2821C113.543 8.7712 113.553 10.2639 113.484 11.7541C113.372 13.9895 113.089 16.2131 112.637 18.4052L112.615 18.3613Z" fill="#231F20"/>
<path d="M103.347 25.1954C102.246 25.3052 101.124 25.3931 100.005 25.4371C99.5937 25.4371 99.1864 25.4774 98.7755 25.4701C97.3368 25.4318 95.9024 25.2935 94.4829 25.0562C93.8556 24.961 93.2209 24.8657 92.6008 24.7522C91.802 24.6066 91.0148 24.4034 90.2454 24.1442C89.7685 23.9721 90.4435 23.9538 91.3461 24.082C91.7497 24.1479 92.1569 24.1992 92.5605 24.2578C92.964 24.3164 93.3676 24.3896 93.7712 24.4445C94.582 24.5618 95.3928 24.6643 96.2147 24.7595C97.2122 24.8702 98.2166 24.9057 99.2194 24.8657C100.32 24.8328 101.421 24.7449 102.54 24.6277C103.222 24.5581 103.901 24.4738 104.58 24.3823C105.611 24.2394 106.645 24.0929 107.665 23.9171C108.454 23.778 109.224 23.5985 110.006 23.452C110.178 23.419 110.347 23.3824 110.523 23.3531C111.173 23.2762 111.389 23.3055 111.55 23.4557C111.589 23.4837 111.625 23.5156 111.657 23.5509C111.734 23.6534 111.488 23.8146 111.026 23.9428C109.597 24.3093 108.148 24.5894 106.686 24.7815C105.585 24.9463 104.462 25.0892 103.343 25.2137L103.347 25.1954Z" fill="#231F20"/>
<path d="M92.143 10.6771C92.044 11.6769 91.9192 12.6695 91.7761 13.6584C91.7248 14.0246 91.6844 14.3909 91.622 14.7571C91.3946 16.0244 91.1121 17.2769 90.8112 18.5259C90.6828 19.0826 90.5544 19.6246 90.426 20.1923C90.2776 20.9103 90.0487 21.6094 89.7436 22.2763C89.6445 22.4851 89.4978 22.3972 89.395 22.1591C89.265 21.8371 89.2368 21.483 89.3143 21.1446C89.6115 19.7308 89.9637 18.3244 90.3196 16.8887C90.5126 16.0083 90.6584 15.1183 90.7562 14.2224C90.8956 13.2408 91.0277 12.2556 91.1231 11.2704C91.1818 10.6624 91.2442 10.0544 91.2772 9.43912C91.3425 8.51885 91.3548 7.59558 91.3139 6.67391C91.2951 6.32277 91.2559 5.97302 91.1965 5.62642C91.1378 5.28581 91.1011 4.93787 91.013 4.60824C90.98 4.46174 90.9396 4.3189 90.914 4.16874C90.7966 3.62668 90.7855 3.45454 90.9763 3.2531C91.0093 3.20915 91.0387 3.16154 91.0644 3.13224C91.1378 3.04067 91.4313 3.19084 91.6147 3.61569C91.8783 4.24727 92.0619 4.90919 92.1614 5.58613C92.2237 5.92675 92.2311 6.26737 92.2604 6.61164C92.2898 6.95592 92.2971 7.29654 92.2934 7.64082V8.40629L92.2604 9.16809C92.2421 9.67719 92.2017 10.1826 92.165 10.688L92.143 10.6771Z" fill="#231F20"/>
<path d="M114.652 11.1757C114.575 12.1682 114.454 13.1571 114.318 14.1423L114.164 15.2191C113.944 16.479 113.658 17.7243 113.331 18.9586C113.184 19.5043 113.038 20.0573 112.895 20.5957C112.699 21.2902 112.466 21.9736 112.197 22.6431C112.029 23.0606 111.999 22.449 112.164 21.6395L112.403 20.5701L112.667 19.5116C112.841 18.8035 113.011 18.093 113.177 17.38C113.375 16.523 113.511 15.6183 113.628 14.7283C113.771 13.7504 113.874 12.7689 113.955 11.7983C113.995 11.1903 114.039 10.5824 114.05 9.96705C114.076 9.04775 114.083 8.13578 114.021 7.2055C113.981 6.49497 113.856 5.80641 113.768 5.11053C113.749 4.96037 113.713 4.8102 113.694 4.65638C113.639 4.08136 113.672 3.89457 113.823 3.74441C113.853 3.70987 113.886 3.67801 113.922 3.64918C114.028 3.57593 114.179 3.79568 114.289 4.21321C114.61 5.50444 114.765 6.83112 114.751 8.16142C114.751 8.66319 114.751 9.16862 114.751 9.67405C114.751 10.1795 114.707 10.6776 114.674 11.183L114.652 11.1757Z" fill="#231F20"/>
<path d="M136.612 1.80668C137.713 1.80668 138.847 1.80668 139.962 1.75907C140.369 1.75907 140.777 1.6968 141.184 1.67849C142.615 1.59792 144.057 1.52833 145.487 1.37084C146.122 1.30858 146.753 1.19137 147.377 1.09615C147.773 1.02656 148.173 0.945985 148.569 0.861747C148.96 0.781327 149.346 0.677366 149.725 0.550432C149.952 0.466194 149.967 0.528457 149.806 0.700596C149.529 0.964489 149.199 1.16563 148.837 1.29026C148.038 1.58029 147.217 1.80685 146.383 1.96783C145.553 2.11067 144.713 2.22055 143.869 2.29014C142.861 2.37437 141.819 2.50256 140.784 2.57947C139.65 2.66005 138.513 2.70766 137.379 2.7333C136.678 2.7333 135.978 2.75161 135.277 2.7333C134.217 2.7333 133.153 2.67836 132.096 2.62709C131.274 2.58314 130.463 2.57581 129.634 2.45861C129.451 2.43976 129.268 2.41041 129.088 2.37071C128.838 2.31863 128.602 2.2151 128.394 2.06672C128.289 1.97039 128.219 1.84134 128.196 1.70047C128.185 1.64617 128.179 1.59102 128.178 1.53565C128.178 1.45508 128.269 1.41479 128.405 1.39281C128.584 1.36629 128.766 1.36629 128.945 1.39281C130.273 1.57228 131.759 1.67483 133.252 1.73343C134.352 1.77372 135.486 1.79203 136.612 1.78837V1.80668Z" fill="#231F20"/>
<path d="M150.647 17.8375C150.433 18.9498 150.161 20.0501 149.832 21.1338L149.502 22.1337L149.443 22.3095L149.414 22.3974C149.414 22.4304 149.359 22.3974 149.33 22.4267L148.963 22.4816L148.412 22.5512C147.869 22.6245 147.312 22.7124 146.78 22.8039C145.984 22.9395 145.191 23.1116 144.391 23.2544C141.577 23.7489 138.723 24.2983 135.803 24.2287C134.515 24.1811 133.234 24.0565 131.98 23.8954C130.353 23.692 128.754 23.3125 127.21 22.7637C126.733 22.5769 126.843 22.5073 127.273 22.5439C127.489 22.5439 127.793 22.5952 128.157 22.6428C128.52 22.6904 128.942 22.738 129.397 22.8149C130.2 22.9504 131.015 23.042 131.826 23.1262C132.636 23.2105 133.451 23.3094 134.265 23.368C134.673 23.3973 135.08 23.4192 135.487 23.4376C135.894 23.4559 136.287 23.4376 136.69 23.4376C137.498 23.4119 138.316 23.346 139.134 23.2508C141.093 23.0347 143.111 22.5695 145.114 22.1776C146.215 21.9652 147.315 21.7528 148.449 21.5953L148.644 21.5733C148.68 21.5733 148.673 21.533 148.688 21.5147L148.713 21.4342L148.831 21.0679C148.871 20.9397 148.919 20.8079 148.952 20.676C149.099 20.1449 149.245 19.6102 149.359 19.0718C149.655 17.7425 149.874 16.3974 150.016 15.043C150.236 12.9827 150.312 10.9096 150.243 8.8387C150.17 7.2571 150.017 5.68019 149.785 4.11403C149.744 3.76975 149.675 3.43646 149.627 3.08852C149.495 1.79565 149.487 1.37812 149.711 1.05948C149.75 0.984572 149.795 0.913449 149.847 0.847051C150.001 0.693225 150.273 1.18767 150.518 2.1326C150.697 2.84005 150.838 3.55647 150.94 4.27885C151.053 5.01135 151.143 5.74386 151.212 6.47637C151.329 7.97434 151.37 9.49796 151.34 11.0252C151.289 13.3038 151.063 15.5751 150.665 17.8192L150.647 17.8375Z" fill="#231F20"/>
<path d="M141.313 24.5952C140.183 24.7454 139.05 24.8736 137.909 24.9615C137.49 24.9798 137.076 25.0274 136.657 25.0237C135.183 25.0174 133.71 24.8949 132.255 24.6575C131.613 24.5586 130.967 24.4634 130.336 24.3498C129.52 24.2023 128.715 23.9954 127.929 23.7309C127.445 23.5587 128.131 23.5441 129.059 23.6759C129.474 23.7419 129.885 23.7968 130.299 23.8554C130.714 23.914 131.121 23.9873 131.532 24.0422C132.358 24.1631 133.19 24.2619 134.023 24.3572C135.039 24.4696 136.063 24.4941 137.083 24.4304C138.209 24.3718 139.336 24.2436 140.458 24.0861C141.151 23.9909 141.843 23.8859 142.535 23.7712C143.577 23.5917 144.63 23.4049 145.665 23.2035C146.468 23.0423 147.246 22.8372 148.046 22.6797C148.222 22.6431 148.39 22.6028 148.57 22.5735C149.234 22.482 149.458 22.5149 149.623 22.6614C149.662 22.6894 149.698 22.7213 149.73 22.7566C149.807 22.8592 149.557 23.0203 149.088 23.1522C147.693 23.5477 146.2 23.8298 144.685 24.1008C143.562 24.2986 142.429 24.467 141.295 24.6465L141.313 24.5952Z" fill="#231F20"/>
<path d="M129.84 10.3913C129.745 11.4095 129.622 12.4228 129.473 13.4312C129.422 13.7974 129.385 14.1637 129.319 14.5299C129.095 15.8228 128.813 17.0937 128.512 18.3756L128.127 20.075C127.978 20.8077 127.748 21.5214 127.441 22.2029C127.338 22.4154 127.195 22.3238 127.092 22.0857C126.963 21.757 126.936 21.3971 127.015 21.0529C127.312 19.6135 127.664 18.1742 128.02 16.7091C128.212 15.8114 128.356 14.9043 128.453 13.9915C128.593 12.988 128.721 11.9845 128.82 10.9773C128.879 10.3583 128.941 9.73568 128.974 9.11671C129.041 8.17817 129.054 7.23662 129.014 6.29656C128.996 5.93811 128.957 5.58102 128.897 5.2271C128.835 4.87916 128.802 4.52023 128.714 4.18328C128.681 4.03312 128.64 3.89028 128.615 3.73645C128.497 3.18341 128.486 3.00394 128.673 2.80617C128.71 2.76222 128.736 2.71094 128.765 2.68164C128.838 2.59008 129.132 2.7439 129.315 3.17975C129.581 3.82314 129.765 4.49749 129.862 5.18681C129.924 5.55307 129.932 5.88269 129.961 6.23064C129.99 6.57858 129.994 6.93018 129.994 7.28178V8.05824L129.972 8.82737C129.972 9.34745 129.913 9.86387 129.877 10.3766L129.84 10.3913Z" fill="#231F20"/>
<path d="M152.46 10.4653C152.412 11.4798 152.317 12.487 152.21 13.4942L152.089 14.593C151.909 15.8822 151.66 17.1568 151.355 18.4203C151.22 18.9807 151.095 19.5447 150.952 20.0978C150.768 20.81 150.539 21.5097 150.266 22.1928C150.097 22.6176 150.071 21.995 150.236 21.1782L150.456 20.0795C150.537 19.7132 150.633 19.347 150.706 18.9807C150.864 18.2482 151.01 17.5157 151.157 16.7832C151.33 15.9042 151.436 14.9812 151.524 14.0693C151.638 13.073 151.711 12.0695 151.766 11.0623C151.792 10.4433 151.818 9.82438 151.818 9.20541C151.818 8.26781 151.818 7.32287 151.737 6.39625C151.686 5.66374 151.557 4.97152 151.462 4.26465C151.44 4.10716 151.403 3.957 151.385 3.79951C151.326 3.21351 151.359 3.02306 151.509 2.87289C151.539 2.83822 151.571 2.80521 151.605 2.774C151.711 2.70075 151.865 2.92417 151.972 3.34902C152.299 4.65993 152.469 6.00494 152.478 7.35583C152.478 7.86492 152.504 8.37768 152.478 8.89044C152.452 9.40319 152.456 9.91228 152.438 10.425L152.46 10.4653Z" fill="#231F20"/>
<path d="M134.967 34.1616C136.067 34.2788 137.19 34.3704 138.305 34.429C138.712 34.4546 139.12 34.429 139.527 34.4656C140.965 34.5169 142.403 34.5865 143.842 34.5645C144.48 34.5645 145.118 34.5059 145.749 34.4693C146.153 34.4363 146.556 34.396 146.956 34.3484C147.355 34.3063 147.751 34.239 148.141 34.147C148.373 34.0847 148.38 34.147 148.204 34.3045C147.905 34.541 147.558 34.7108 147.188 34.8026C146.364 35.0143 145.525 35.1601 144.678 35.2384C143.838 35.3043 142.994 35.3373 142.147 35.3227C141.134 35.3227 140.081 35.341 139.046 35.3227C137.913 35.2934 136.775 35.2347 135.642 35.1505C134.941 35.0992 134.244 35.0406 133.547 34.9674C132.494 34.8612 131.437 34.7147 130.391 34.5608C129.581 34.44 128.774 34.3557 127.959 34.1616C127.776 34.1273 127.596 34.0808 127.42 34.0225C127.177 33.9457 126.953 33.8212 126.759 33.6562C126.66 33.5475 126.603 33.4074 126.598 33.2606C126.592 33.2046 126.592 33.1482 126.598 33.0922C126.598 33.0153 126.697 32.9823 126.833 32.975C127.014 32.9612 127.196 32.9773 127.372 33.0226C128.674 33.3266 130.149 33.5646 131.628 33.7551C132.729 33.9016 133.848 34.0261 134.967 34.1213V34.1616Z" fill="#231F20"/>
<path d="M147.697 50.3131C147.436 51.335 147.121 52.3422 146.769 53.3384C146.581 53.8365 146.402 54.3309 146.181 54.8034L145.749 55.8069C145.749 55.8069 145.749 55.8362 145.73 55.8435H145.602H145.429H145.085H144.659C143.925 55.8802 143.162 55.9571 142.41 56.0157C139.757 56.2208 137.079 56.4845 134.382 56.4515C133.179 56.4614 131.977 56.3535 130.794 56.1292C129.314 55.7919 127.852 55.3799 126.414 54.8949C125.962 54.7484 126.047 54.6715 126.465 54.6715C127.138 54.7004 127.808 54.7837 128.468 54.9206C129.22 55.0817 129.976 55.2246 130.721 55.3564C131.453 55.5097 132.197 55.6028 132.944 55.6348C134.47 55.6894 135.997 55.6637 137.519 55.5579C139.354 55.4553 141.284 55.1916 143.191 55.0195C143.712 54.9755 144.241 54.9389 144.769 54.9133H144.949H145.096L145.125 54.8473L145.158 54.7777L145.228 54.6166L145.378 54.2503C145.763 53.2922 146.096 52.3141 146.376 51.3203C146.726 50.0941 147.014 48.8509 147.238 47.5955C147.588 45.6954 147.815 43.7747 147.917 41.8453C147.987 40.351 147.917 38.886 147.869 37.4173C147.847 37.0914 147.829 36.7764 147.807 36.4504C147.807 35.2381 147.832 34.8499 148.086 34.5679C148.133 34.5024 148.186 34.4411 148.243 34.3848C148.408 34.2529 148.61 34.751 148.783 35.6337C149.153 38.4052 149.169 41.2124 148.83 43.9879C148.613 46.1015 148.246 48.1969 147.73 50.2582L147.697 50.3131Z" fill="#231F20"/>
<path d="M138.7 57.2025C137.724 57.2501 136.745 57.2794 135.765 57.2904C135.398 57.2904 135.05 57.3161 134.69 57.2904C133.424 57.2916 132.162 57.1627 130.922 56.9059L129.301 56.4957C128.615 56.3162 127.94 56.0964 127.265 55.8913C127.055 55.8254 127.099 55.7705 127.298 55.7448C127.618 55.7225 127.939 55.7397 128.255 55.7961C129.693 56.0195 131.047 56.5286 132.456 56.6348C133.333 56.7115 134.214 56.7347 135.094 56.7044C136.066 56.7044 137.042 56.6458 138.029 56.5909C138.631 56.5543 139.232 56.514 139.83 56.4664C140.74 56.3968 141.665 56.3272 142.556 56.232C143.257 56.1587 143.943 56.0452 144.637 55.9719C144.791 55.9719 144.941 55.9316 145.095 55.9206C145.671 55.9023 145.862 55.9573 145.99 56.1184C146.022 56.1511 146.05 56.1866 146.075 56.2246C146.133 56.3345 145.906 56.47 145.495 56.5506C144.226 56.7808 142.945 56.9374 141.657 57.0194C140.685 57.1 139.698 57.1586 138.722 57.2208L138.7 57.2025Z" fill="#231F20"/>
<path d="M127.669 39.9336C127.537 40.6661 127.397 41.3987 127.218 42.1312C127.155 42.3949 127.122 42.6659 127.052 42.9259C126.814 43.8489 126.531 44.7572 126.267 45.6692C126.143 46.0684 126.058 46.4823 125.948 46.8851C125.836 47.4118 125.671 47.9259 125.456 48.4197C125.383 48.5736 125.229 48.504 125.09 48.3208C124.931 48.0921 124.866 47.8121 124.906 47.5371C125.105 46.4695 125.386 45.4189 125.746 44.3946C125.931 43.7539 126.079 43.1034 126.19 42.4461C126.337 41.7136 126.491 41.0104 126.623 40.2889C126.704 39.8457 126.781 39.4026 126.836 38.9557C126.935 38.2836 126.99 37.6059 127.001 36.9267C126.982 36.4146 126.928 35.9043 126.84 35.3994C126.821 35.2895 126.796 35.1833 126.781 35.0735C126.726 34.6706 126.748 34.5387 126.953 34.3886L127.06 34.297C127.144 34.2274 127.405 34.341 127.537 34.6633C127.722 35.1412 127.846 35.6409 127.904 36.1502C127.938 36.6624 127.938 37.1763 127.904 37.6885C127.867 38.4467 127.768 39.2011 127.658 39.9446L127.669 39.9336Z" fill="#231F20"/>
<path d="M149.921 44.2774C149.778 45.2809 149.587 46.2735 149.385 47.266L149.161 48.3648C148.861 49.6284 148.49 50.8773 148.061 52.1079C147.877 52.6536 147.694 53.2067 147.503 53.7414C147.253 54.432 146.959 55.1061 146.623 55.7594C146.413 56.1696 146.447 55.547 146.689 54.7449L147.012 53.6828C147.125 53.3165 147.254 52.9832 147.36 52.628C147.588 51.9248 147.8 51.2142 148.02 50.4964C148.274 49.643 148.468 48.731 148.644 47.8337C148.853 46.8485 149.011 45.856 149.169 44.8634C149.253 44.2481 149.338 43.6328 149.396 43.0321C149.488 42.0982 149.569 41.1569 149.583 40.2266C149.583 39.4941 149.539 38.7909 149.51 38.0767C149.51 37.9229 149.484 37.7691 149.477 37.6079C149.477 37.0219 149.525 36.8315 149.69 36.6996C149.722 36.6659 149.758 36.6352 149.796 36.6081C149.91 36.5458 150.042 36.7802 150.119 37.216C150.319 38.5494 150.36 39.9019 150.24 41.2448C150.211 41.7551 150.167 42.2642 150.108 42.7721C150.06 43.2812 149.994 43.7903 149.925 44.2957L149.921 44.2774Z" fill="#231F20"/>
<path d="M94.9195 33.7146C96.0202 33.8318 97.1429 33.9234 98.2582 33.9856C98.6655 34.0076 99.0727 33.9856 99.4799 34.0186C100.914 34.0735 102.356 34.1395 103.795 34.1212C104.433 34.1212 105.071 34.0589 105.699 34.0223C106.106 33.993 106.509 33.949 106.909 33.9014C107.307 33.8602 107.701 33.7941 108.091 33.7036C108.326 33.6377 108.333 33.7036 108.157 33.8611C107.856 34.0969 107.508 34.2655 107.137 34.3556C106.315 34.5673 105.477 34.713 104.631 34.7914C103.787 34.8598 102.943 34.8878 102.1 34.8756C101.087 34.8756 100.034 34.894 98.9993 34.8756C97.862 34.8463 96.7283 34.7877 95.591 34.7072C94.8939 34.6559 94.1968 34.5948 93.4997 34.524C92.4431 34.4142 91.3901 34.2677 90.3445 34.1138C89.53 33.993 88.7229 33.9087 87.9084 33.7183C87.7274 33.6818 87.5486 33.6353 87.3727 33.5791C87.1298 33.5034 86.905 33.3787 86.7123 33.2128C86.6129 33.1045 86.5557 32.9642 86.5509 32.8173C86.5455 32.7625 86.5455 32.7073 86.5509 32.6525C86.5692 32.5719 86.6536 32.5426 86.7894 32.5316C86.9705 32.5198 87.1524 32.5358 87.3287 32.5792C88.6311 32.8832 90.1023 33.1249 91.5846 33.3117C92.6852 33.4582 93.8042 33.5828 94.9232 33.678L94.9195 33.7146Z" fill="#231F20"/>
<path d="M107.37 50.9981C107.054 52.087 106.679 53.158 106.247 54.2065L105.825 55.1697L105.748 55.3418L105.711 55.4261C105.711 55.4554 105.653 55.4261 105.627 55.4261L105.26 55.4481L104.706 55.4664C104.16 55.4883 103.606 55.5213 103.055 55.5616C102.252 55.6239 101.448 55.7191 100.637 55.785C97.7868 56.0121 94.8957 56.2868 91.9936 55.9425C90.7169 55.774 89.4584 55.5323 88.222 55.2503C86.6248 54.8946 85.0711 54.3665 83.5883 53.6754C83.1333 53.4446 83.2434 53.3861 83.6727 53.463C83.8891 53.4996 84.1863 53.5619 84.5422 53.6461C84.8981 53.7303 85.3163 53.8146 85.7602 53.9318C86.549 54.1442 87.3525 54.298 88.1523 54.4738C88.9521 54.6496 89.752 54.8071 90.5554 54.9426C90.959 55.0122 91.3626 55.0708 91.7661 55.1258C92.1697 55.1807 92.5586 55.221 92.9659 55.2393C93.773 55.2869 94.5912 55.2979 95.413 55.2832C97.3868 55.2539 99.4487 54.9793 101.47 54.7778C102.589 54.6716 103.712 54.5654 104.846 54.5141H105.025C105.062 54.5141 105.058 54.4775 105.073 54.4592L105.11 54.3823L105.26 54.016C105.315 53.8878 105.374 53.7633 105.418 53.6498C105.616 53.1333 105.811 52.6206 105.976 52.0895C106.398 50.792 106.744 49.4713 107.014 48.134C107.426 46.1039 107.698 44.0481 107.828 41.9809C107.92 40.3841 107.883 38.8128 107.828 37.2196C107.828 36.8717 107.781 36.5311 107.77 36.1831C107.77 34.8829 107.792 34.4691 108.045 34.1687C108.091 34.0988 108.142 34.0326 108.199 33.971C108.368 33.8354 108.592 34.3555 108.746 35.3151C108.855 36.0373 108.927 36.7647 108.962 37.4943C109.009 38.2268 109.028 38.9703 109.021 39.7248C108.999 41.2264 108.892 42.7464 108.72 44.2663C108.452 46.5295 108.012 48.7689 107.403 50.9651L107.37 50.9981Z" fill="#231F20"/>
<path d="M97.0521 56.8733C95.9514 56.9026 94.8508 56.9099 93.7281 56.8733C93.3209 56.8513 92.9173 56.8513 92.51 56.8074C91.0918 56.6408 89.6877 56.3703 88.3092 55.998C87.6965 55.8441 87.0838 55.6903 86.4748 55.5218C85.7005 55.3008 84.9428 55.0255 84.2074 54.6978C83.7525 54.4817 84.4202 54.5256 85.3081 54.738C85.7006 54.8406 86.0969 54.9285 86.4895 55.0237C86.882 55.1189 87.2709 55.2288 87.6672 55.324C88.4523 55.5145 89.2484 55.6903 90.0446 55.8624C91.0167 56.069 92.0048 56.1915 92.998 56.2287C94.0987 56.2873 95.1993 56.2763 96.3 56.2287C96.9787 56.2067 97.6611 56.1774 98.3362 56.1371C99.3671 56.0712 100.398 56.0053 101.418 55.9027C102.211 55.8222 102.985 55.6976 103.766 55.6061C103.939 55.5841 104.107 55.5585 104.28 55.5401C104.929 55.5035 105.142 55.5401 105.292 55.705C105.327 55.7372 105.36 55.7715 105.391 55.8075C105.461 55.9174 105.208 56.0602 104.742 56.1738C103.305 56.4467 101.851 56.6253 100.391 56.7085C99.2901 56.7891 98.1674 56.844 97.0521 56.8879V56.8733Z" fill="#231F20"/>
<path d="M87.3671 41.6072C87.1715 42.6156 86.9501 43.6131 86.7031 44.5995C86.615 44.9658 86.5417 45.332 86.4426 45.6983C86.0977 46.9618 85.7088 48.2108 85.2759 49.4524C85.0925 50.0042 84.9115 50.556 84.7329 51.1078C84.5129 51.823 84.2152 52.512 83.845 53.1625C83.724 53.3603 83.5882 53.2577 83.5075 53.0087C83.4124 52.6698 83.4201 52.3104 83.5295 51.9758C83.9625 50.5694 84.4504 49.1703 84.942 47.7456C85.2188 46.8696 85.4491 45.9796 85.6318 45.0793C85.8666 44.0941 86.0904 43.1089 86.2958 42.1163C86.4132 41.5047 86.5307 40.893 86.626 40.285C86.7782 39.3561 86.8799 38.4195 86.9306 37.4795C86.9508 37.1221 86.9508 36.7638 86.9306 36.4064C86.9012 36.0402 86.9012 35.6959 86.8462 35.3516C86.8278 35.1978 86.8021 35.0513 86.7875 34.8975C86.7251 34.3334 86.7324 34.1649 86.9379 33.9745C86.9783 33.9342 87.0076 33.8866 87.0406 33.861C87.1213 33.7767 87.3892 33.9562 87.5396 34.4103C87.7465 35.075 87.8697 35.7627 87.9065 36.4577C87.9322 36.8239 87.9065 37.1572 87.9065 37.5052C87.9065 37.8531 87.8771 38.2047 87.8404 38.5527L87.7671 39.3291L87.6643 40.0983C87.5983 40.6147 87.5066 41.1238 87.4222 41.6329L87.3671 41.6072Z" fill="#231F20"/>
<path d="M109.989 43.8013C109.868 44.8049 109.706 45.8011 109.534 46.7936L109.343 47.8924C109.075 49.1633 108.741 50.4159 108.36 51.6538C108.184 52.1995 108.019 52.7526 107.831 53.291C107.592 53.9848 107.305 54.6615 106.973 55.3163C106.764 55.7229 106.797 55.1002 107.032 54.3018L107.34 53.2397C107.446 52.8734 107.571 52.5438 107.67 52.1849C107.879 51.4817 108.077 50.7675 108.275 50.0496C108.506 49.1889 108.672 48.2769 108.822 47.3796C109.002 46.3944 109.141 45.3982 109.266 44.402C109.332 43.7903 109.402 43.175 109.446 42.5707C109.519 41.6368 109.578 40.6992 109.578 39.7689C109.578 39.0364 109.519 38.3368 109.482 37.6263C109.482 37.4688 109.46 37.315 109.446 37.1575C109.446 36.5715 109.493 36.3847 109.658 36.2492C109.691 36.2166 109.727 36.1872 109.765 36.1613C109.875 36.099 110.007 36.3334 110.088 36.7656C110.292 38.0983 110.347 39.4495 110.253 40.7944C110.231 41.2998 110.201 41.8089 110.154 42.318C110.106 42.8271 110.062 43.3325 110.003 43.838L109.989 43.8013Z" fill="#231F20"/>
<path d="M120.066 56.6389C124.006 53.7089 127.55 50.2625 131.527 47.3764C132.235 46.86 131.549 45.6697 130.83 46.1897C126.853 49.0758 123.309 52.5149 119.372 55.4523C118.672 55.976 119.372 57.1663 120.066 56.6389Z" fill="#231F20"/>
<path d="M121.477 12.9888C121.139 12.9558 120.802 12.9558 120.457 12.9558C120.332 12.9558 120.211 12.9778 120.09 12.9778C119.65 12.9778 119.202 12.9778 118.762 12.9778C118.565 12.9893 118.369 13.0138 118.175 13.051C117.937 13.1204 117.689 13.1513 117.441 13.1426C117.279 13.1426 117.386 12.4943 117.672 12.432C118.185 12.3261 118.708 12.2843 119.231 12.3075C119.551 12.3075 119.874 12.2562 120.196 12.2489C120.519 12.2415 120.905 12.2489 121.261 12.2489L121.914 12.2855C122.248 12.2855 122.578 12.3441 122.904 12.3697C123.161 12.3954 123.414 12.3697 123.671 12.4174C123.727 12.4136 123.784 12.4136 123.84 12.4174C124.049 12.4613 124.104 12.5199 124.108 12.6921C124.108 12.7287 124.108 12.769 124.108 12.8056C124.098 12.869 124.065 12.9267 124.016 12.9678C123.967 13.0089 123.904 13.0307 123.84 13.0291C123.395 13.0602 122.949 13.0602 122.504 13.0291C122.171 13.0071 121.833 12.9778 121.495 12.9705L121.477 12.9888Z" fill="#231F20"/>
<path d="M124.873 13.4318C125.057 13.257 125.185 13.0312 125.24 12.7835C125.236 12.7085 125.217 12.6351 125.185 12.5674C125.014 12.2043 124.733 11.9044 124.381 11.7102C124.206 11.6029 124.025 11.5063 123.838 11.4209C123.572 11.3313 123.332 11.1764 123.141 10.9703C123.082 10.8971 123.203 10.7798 123.358 10.6919C123.512 10.604 123.691 10.5308 123.809 10.593C124.313 10.8165 124.782 11.11 125.203 11.4648C125.518 11.7126 125.77 12.0314 125.937 12.3952C126.011 12.6339 126.011 12.8891 125.937 13.1278C125.871 13.3359 125.771 13.5315 125.64 13.7065C125.491 13.8995 125.327 14.0796 125.148 14.245C124.891 14.4904 124.605 14.6992 124.337 14.9116C124.124 15.0728 123.93 15.256 123.717 15.4135C123.674 15.4517 123.627 15.486 123.578 15.516C123.394 15.6332 123.306 15.6222 123.181 15.516C123.152 15.4911 123.123 15.4641 123.097 15.4354C123.057 15.3802 123.039 15.3122 123.047 15.2445C123.054 15.1769 123.086 15.1144 123.137 15.0691C123.433 14.7081 123.762 14.3757 124.121 14.0765C124.376 13.8757 124.615 13.6552 124.836 13.4172L124.873 13.4318Z" fill="#231F20"/>
<path d="M117.522 43.853C117.889 43.8823 118.234 43.9226 118.582 43.9666C118.711 43.9666 118.839 43.9666 118.967 43.9995C119.415 44.0728 119.859 44.1754 120.299 44.2669C120.495 44.3036 120.692 44.3293 120.89 44.3439C121.14 44.347 121.388 44.3916 121.624 44.4757C121.774 44.5417 121.485 45.1094 121.195 45.0838C120.69 45.0401 120.19 44.9519 119.701 44.82C119.394 44.7581 119.082 44.7202 118.769 44.7065C118.428 44.6662 118.087 44.6259 117.742 44.6003C117.529 44.6003 117.32 44.571 117.107 44.5673C116.789 44.5568 116.47 44.5666 116.153 44.5966C115.912 44.6346 115.674 44.6897 115.441 44.7614L115.291 44.8054C115.1 44.8494 115.03 44.8054 114.946 44.6699C114.925 44.6369 114.907 44.6026 114.891 44.5673C114.869 44.5061 114.873 44.4389 114.9 44.38C114.928 44.3212 114.977 44.2754 115.038 44.2523C115.47 44.0204 115.946 43.8819 116.436 43.8457C116.803 43.8237 117.17 43.8457 117.536 43.8457L117.522 43.853Z" fill="#231F20"/>
<path d="M113.327 45.8341C113.202 45.6521 113.099 45.4567 113.019 45.2516C112.926 45.0193 112.892 44.7677 112.92 44.5191C112.935 44.3305 112.993 44.1479 113.088 43.9843C113.407 43.5536 113.846 43.2262 114.351 43.0429C114.54 42.9572 114.725 42.8619 114.905 42.7572C115.11 42.6179 115.326 42.4954 115.55 42.3909C115.62 42.3653 115.727 42.4971 115.771 42.6693C115.799 42.7545 115.802 42.8459 115.78 42.9328C115.758 43.0197 115.711 43.0985 115.646 43.1601C115.193 43.4339 114.72 43.6715 114.229 43.8707C113.993 43.9866 113.809 44.1865 113.712 44.4312C113.68 44.5551 113.674 44.6846 113.695 44.8109C113.717 44.9372 113.765 45.0575 113.837 45.1637C113.941 45.3412 114.064 45.507 114.204 45.6582C114.425 45.9042 114.67 46.1264 114.938 46.3212C115.148 46.4624 115.366 46.592 115.591 46.7095C115.638 46.7388 115.69 46.7571 115.738 46.7901C115.91 46.9036 115.943 46.9769 115.895 47.1564C115.887 47.195 115.876 47.2329 115.862 47.2699C115.815 47.3908 115.686 47.4384 115.521 47.3981C115.024 47.2759 114.559 47.0472 114.16 46.7278C113.847 46.4729 113.567 46.1801 113.327 45.856V45.8341Z" fill="#231F20"/>
<path d="M99.851 7.73272C100.335 7.73272 100.82 7.71075 101.319 7.68145C101.495 7.68145 101.667 7.63749 101.847 7.62651C102.471 7.58622 103.094 7.54593 103.722 7.48733C103.997 7.45803 104.276 7.41774 104.547 7.37379C104.896 7.29885 105.251 7.25836 105.607 7.25293C105.835 7.25293 105.629 7.81696 105.241 7.90852C104.852 8.00009 104.529 8.04404 104.166 8.09531C103.802 8.14659 103.432 8.15391 103.065 8.16124C102.625 8.16124 102.173 8.25646 101.726 8.29309C101.278 8.32971 100.735 8.36634 100.24 8.38831C99.9353 8.38831 99.6272 8.38831 99.3226 8.41029C98.8604 8.41029 98.3944 8.41029 97.9322 8.41029C97.5653 8.41029 97.2204 8.43593 96.8645 8.41029C96.7851 8.41575 96.7054 8.41575 96.626 8.41029C96.3362 8.36268 96.2592 8.2821 96.2115 8.13926C96.2007 8.10717 96.1933 8.07402 96.1895 8.04037C96.1895 7.93782 96.3069 7.86457 96.5196 7.82428C96.8315 7.78766 97.147 7.76935 97.4662 7.74737H98.4238C98.9044 7.74737 99.3887 7.74737 99.873 7.74737L99.851 7.73272Z" fill="#231F20"/>
<path d="M102.332 11.3147H101.459C101.353 11.3147 101.25 11.344 101.143 11.344C100.776 11.344 100.388 11.344 100.01 11.322C99.8428 11.3207 99.6761 11.3305 99.5106 11.3513C99.2986 11.3934 99.0804 11.3934 98.8684 11.3513C98.7363 11.3183 98.8684 10.7762 99.1216 10.7396C99.5437 10.6722 99.972 10.6525 100.399 10.681C100.662 10.6814 100.926 10.6655 101.187 10.6334L102.064 10.5894L102.607 10.5638C102.879 10.5638 103.154 10.5418 103.426 10.5088C103.638 10.4795 103.84 10.4136 104.053 10.3696C104.101 10.3696 104.145 10.344 104.193 10.3403C104.369 10.3403 104.427 10.3696 104.468 10.5674C104.468 10.6114 104.468 10.6553 104.49 10.703C104.502 10.7683 104.492 10.8357 104.461 10.8947C104.43 10.9537 104.381 11.0009 104.321 11.029C103.966 11.1543 103.596 11.2295 103.22 11.2524C102.934 11.278 102.64 11.289 102.351 11.311L102.332 11.3147Z" fill="#231F20"/>
<path d="M140.058 8.05864L138.378 8.11724C138.172 8.11724 137.97 8.15387 137.765 8.15387C137.031 8.15387 136.319 8.15387 135.597 8.12823C135.274 8.12823 134.951 8.12823 134.632 8.12823C134.208 8.16163 133.781 8.11693 133.373 7.99638C133.241 7.9451 133.311 7.81691 133.447 7.69971C133.516 7.63722 133.596 7.58649 133.682 7.54955C133.775 7.50032 133.88 7.47633 133.986 7.47996C134.771 7.50926 135.6 7.47996 136.43 7.52391C136.928 7.54589 137.442 7.48362 137.952 7.46531L139.636 7.39206L140.671 7.33346C141.192 7.29684 141.716 7.26753 142.234 7.20893C142.634 7.16132 143.022 7.06243 143.419 7.0075L143.679 6.96721C143.8 6.94127 143.925 6.94127 144.046 6.96721C144.12 7.00048 144.18 7.05713 144.218 7.12836C144.218 7.16132 144.263 7.19062 144.277 7.22358C144.292 7.25655 144.277 7.32614 144.222 7.38474C144.154 7.46172 144.065 7.51762 143.965 7.54589C143.612 7.65989 143.252 7.74923 142.887 7.81325C142.52 7.86819 142.153 7.91214 141.764 7.94877C141.203 8.00004 140.638 8.03301 140.073 8.06963L140.058 8.05864Z" fill="#231F20"/>
<path d="M139.116 11.124H137.916C137.769 11.124 137.622 11.124 137.479 11.124C136.962 11.124 136.445 11.0983 135.927 11.0727C135.7 11.0727 135.468 11.0727 135.245 11.0727C134.952 11.0959 134.659 11.0898 134.368 11.0544C134.184 11.0251 134.415 10.6441 134.735 10.6112C135.326 10.5567 135.921 10.5408 136.514 10.5636C136.881 10.5839 137.248 10.5839 137.615 10.5636H138.826H139.56C139.927 10.5636 140.316 10.5636 140.686 10.5636C140.98 10.5636 141.262 10.5269 141.548 10.5159C141.612 10.5123 141.676 10.5123 141.739 10.5159C141.974 10.5159 142.051 10.5672 142.106 10.6551C142.106 10.6771 142.132 10.6954 142.139 10.7137C142.147 10.732 142.066 10.8383 141.893 10.8822C141.373 11.0037 140.845 11.0857 140.312 11.1276C140.112 11.1521 139.911 11.1619 139.71 11.1569H139.105L139.116 11.124Z" fill="#231F20"/>
<path d="M97.462 39.9809C96.9741 39.9809 96.4788 40.0029 95.9945 39.9993C95.8147 39.9993 95.6276 40.0249 95.4515 39.9993C94.8086 39.9845 94.1675 39.9257 93.5327 39.8235L92.6815 39.7063L92.1385 39.6147C91.9583 39.5713 91.7844 39.5048 91.6212 39.4169C91.5185 39.362 91.5882 39.2045 91.7313 39.0726C91.7963 38.9983 91.8782 38.9406 91.9701 38.9043C92.062 38.868 92.1612 38.8541 92.2596 38.8639C92.9273 39.0031 93.6097 39.08 94.3178 39.1972C94.7535 39.2499 95.1932 39.2621 95.6313 39.2338C96.1155 39.2338 96.6035 39.2338 97.0988 39.2045L98.005 39.1679C98.4636 39.1422 98.9296 39.1422 99.3845 39.1129C99.7514 39.0946 100.089 39.0397 100.445 39.0177C100.526 39.0177 100.603 38.9994 100.68 39.0177C100.973 39.0177 101.068 39.08 101.124 39.2374C101.124 39.2741 101.153 39.3107 101.16 39.3473C101.182 39.4682 101.061 39.5671 100.852 39.6147C100.239 39.7429 99.601 39.8198 98.9516 39.9004C98.4673 39.9663 97.9757 39.9626 97.484 39.9993L97.462 39.9809Z" fill="#231F20"/>
<path d="M96.1578 42.8456L95.057 42.7613C94.9249 42.7613 94.7891 42.7613 94.6534 42.7613C94.18 42.7283 93.703 42.6661 93.2297 42.6185C93.0206 42.6001 92.8077 42.6001 92.5986 42.6001C92.3286 42.6246 92.0565 42.6086 91.7913 42.5525C91.6226 42.5086 91.8537 41.9811 92.1583 41.9664C92.7061 41.9415 93.255 41.9661 93.7984 42.0397C94.1287 42.0873 94.4736 42.0653 94.8112 42.08L95.9119 42.1423L96.5981 42.1789C96.943 42.2045 97.2916 42.2338 97.6365 42.2375C97.9043 42.2375 98.1685 42.2119 98.4327 42.2082C98.4914 42.2082 98.5501 42.2082 98.6088 42.2082C98.8253 42.2082 98.895 42.2631 98.9354 42.4023C98.9469 42.4335 98.9567 42.4653 98.9648 42.4976C98.9648 42.6038 98.8877 42.688 98.7263 42.7247C98.4914 42.7796 98.2493 42.8199 97.9924 42.8529C97.7356 42.8858 97.4971 42.8822 97.2585 42.8895C96.8916 42.8895 96.5247 42.8895 96.1578 42.8895V42.8456Z" fill="#231F20"/>
<path d="M95.3287 46.1529C95.2002 46.1309 95.0718 46.087 94.9361 46.0577C94.8884 46.0577 94.8407 46.0577 94.7893 46.0577C94.6162 46.013 94.4393 45.9848 94.2609 45.9734C94.1828 45.9708 94.1047 45.9807 94.0297 46.0027C93.9391 46.0523 93.8337 46.0679 93.7325 46.0467C93.6628 46.021 93.6078 45.4496 93.7325 45.4093C93.9559 45.3372 94.1954 45.3308 94.4224 45.391C94.5615 45.4038 94.7015 45.4038 94.8406 45.391C94.9939 45.4001 95.1461 45.4222 95.2956 45.4569L95.5672 45.5265L95.9745 45.6364C96.0772 45.6621 96.1873 45.6584 96.2937 45.6767H96.3671C96.4478 45.706 96.4661 45.75 96.4441 45.8745L96.4258 45.9624C96.419 46.0025 96.4019 46.0401 96.3762 46.0715C96.3504 46.103 96.3169 46.1272 96.279 46.1419C96.0958 46.1959 95.9048 46.2194 95.7139 46.2115L95.3213 46.1565L95.3287 46.1529Z" fill="#231F20"/>
<path d="M135.928 40.3182C136.412 40.3805 136.9 40.4245 137.396 40.4538C137.576 40.4538 137.763 40.4538 137.935 40.4538L139.843 40.549C140.125 40.549 140.412 40.549 140.69 40.549C141.056 40.506 141.425 40.506 141.791 40.549C142.015 40.5856 141.729 41.1386 141.321 41.1716C140.589 41.2294 139.853 41.2294 139.12 41.1716C138.673 41.124 138.21 41.1716 137.752 41.146C137.293 41.1203 136.743 41.0947 136.24 41.0471C135.928 41.0178 135.62 40.9812 135.308 40.9445C134.839 40.8859 134.373 40.7944 133.91 40.7211C133.543 40.6552 133.177 40.6259 132.828 40.5563C132.747 40.5563 132.667 40.5343 132.59 40.5124C132.3 40.4281 132.223 40.3475 132.223 40.1461C132.223 40.0985 132.223 40.0509 132.223 40.0069C132.252 39.8531 132.406 39.7725 132.615 39.7982C133.235 39.8641 133.855 39.9996 134.501 40.0948C134.978 40.1717 135.459 40.2413 135.947 40.2853L135.928 40.3182Z" fill="#231F20"/>
<path d="M136.427 45.0209C136.669 45.0763 136.914 45.1167 137.161 45.1418C137.249 45.1418 137.341 45.1418 137.429 45.1418C137.748 45.1638 138.071 45.1601 138.401 45.1418C138.548 45.1418 138.695 45.1418 138.841 45.1125C139.028 45.0869 139.217 45.0869 139.403 45.1125C139.52 45.1308 139.37 45.4055 139.168 45.4348C138.803 45.4876 138.436 45.5219 138.067 45.5374C137.84 45.5374 137.601 45.596 137.363 45.607C137.1 45.6253 136.836 45.6253 136.574 45.607C136.412 45.607 136.251 45.5814 136.093 45.5594C135.851 45.5264 135.616 45.4751 135.378 45.4495C135.139 45.4238 135.011 45.4238 134.827 45.4019C134.787 45.4055 134.746 45.4055 134.706 45.4019C134.559 45.3726 134.519 45.325 134.512 45.1931C134.512 45.1601 134.512 45.1308 134.512 45.1015C134.517 45.0517 134.539 45.0051 134.574 44.9697C134.61 44.9342 134.656 44.9122 134.706 44.9074C135.04 44.8492 135.381 44.8492 135.715 44.9074C135.961 44.9403 136.207 44.977 136.449 45.0283L136.427 45.0209Z" fill="#231F20"/>
<path d="M60.1728 61.6452C59.2481 61.5903 58.2391 61.6452 57.6703 60.7954C57.252 60.1581 56.2026 60.7551 56.6429 61.3962C57.4869 62.6818 58.7638 62.7551 60.1728 62.8357C60.9397 62.8796 60.936 61.6892 60.1728 61.6452Z" fill="#231F20"/>
<path d="M57.7587 37.9232C57.9422 37.8829 58.0596 38.0807 58.0706 38.3957C58.0587 38.5413 58.0094 38.6813 57.9275 38.8023C57.8321 38.8646 57.7477 38.9305 57.6743 38.9744C57.3556 39.0275 57.0441 39.1173 56.746 39.2418C56.5311 39.3373 56.3091 39.4157 56.0819 39.4763C55.6232 39.6081 55.1462 39.751 54.6765 39.9268C54.5696 39.9629 54.4588 39.9863 54.3463 39.9964C53.9514 40.0377 53.5699 40.1626 53.2272 40.3627C53.1721 40.392 53.1061 40.4103 53.0694 40.4909C52.7141 40.7486 52.3252 40.9569 51.9136 41.1099C51.5467 41.1612 51.2238 41.2784 50.8678 41.3553C50.8165 41.3553 50.7798 41.403 50.7064 41.3553C50.6514 41.3209 50.5878 41.3026 50.5229 41.3026C50.458 41.3026 50.3944 41.3209 50.3395 41.3553C50.1935 41.4097 50.0439 41.4537 49.8918 41.4872C49.7975 41.4901 49.7033 41.4778 49.613 41.4506C49.5249 41.4506 49.4442 41.2491 49.4515 41.2162C49.4772 41.1246 49.3781 41.0733 49.3268 41.0037C49.308 40.9804 49.2909 40.956 49.2754 40.9305C49.4463 40.5916 49.6516 40.2713 49.8882 39.9744C49.8882 39.9195 51.011 39.1979 51.1394 39.11C51.2097 39.0689 51.2892 39.0463 51.3705 39.044C51.4072 39.044 52.3245 38.469 52.3722 38.458C52.5716 38.3433 52.799 38.2862 53.029 38.2931C53.0755 38.2974 53.1221 38.2858 53.1611 38.2602C53.5155 38.1129 53.8845 38.0037 54.2619 37.9342C54.4527 37.8865 54.6288 37.8096 54.838 37.762C54.8757 37.7565 54.914 37.7565 54.9517 37.762C54.9979 37.7693 55.045 37.7693 55.0912 37.762C55.5498 37.6228 56.0489 37.6485 56.5405 37.5532C56.6616 37.5532 57.2193 37.6778 57.3624 37.6924C57.4652 37.7107 57.6963 37.9342 57.7587 37.9232Z" fill="#231F20"/>
<path d="M58.518 46.7209C58.54 46.8051 58.5583 46.4388 58.5473 46.1934C58.5339 45.9196 58.5045 45.6469 58.4593 45.3766C58.4529 45.3252 58.4406 45.2748 58.4226 45.2264C58.4188 45.2009 58.4188 45.175 58.4226 45.1494C58.4226 45.1494 58.4226 45.0908 58.4042 45.0982H58.2318L58.1033 45.1201L57.8465 45.1678L56.8264 45.3656C56.4983 45.4293 56.1738 45.51 55.8541 45.6073C55.4552 45.7551 55.0438 45.8667 54.6249 45.9406C54.4891 45.9406 54.4451 45.7795 54.4891 45.5744C54.5121 45.4546 54.562 45.3416 54.6351 45.2439C54.7082 45.1462 54.8026 45.0663 54.9111 45.0103C55.7282 44.6517 56.5936 44.4148 57.4796 44.307L57.7658 44.263L57.9052 44.2301L58.0887 44.1861C58.4042 44.0982 58.7271 43.9993 59.0537 43.9004C59.149 44.1216 59.2323 44.3478 59.3032 44.578C59.4171 44.9362 59.4982 45.304 59.5454 45.6769C59.5948 45.9919 59.6181 46.3105 59.6151 46.6293C59.6151 46.7099 59.6151 46.8857 59.5894 46.9956C59.5663 47.127 59.5344 47.2567 59.494 47.3838C59.4421 47.5946 59.3162 47.7797 59.139 47.9054C58.9619 48.0311 58.7454 48.0891 58.529 48.0688C58.4377 48.0676 58.3472 48.0515 58.2611 48.0212C58.1786 47.985 58.102 47.9369 58.0336 47.8783C57.9602 47.8227 57.8958 47.7559 57.8428 47.6805C57.7799 47.6077 57.7257 47.5278 57.6814 47.4425C57.5905 47.287 57.5132 47.124 57.4502 46.9553C57.2791 46.5333 57.1417 46.0985 57.0393 45.6549C57.0156 45.5546 56.9972 45.4531 56.9842 45.3509C56.9766 45.2681 56.9766 45.1847 56.9842 45.1018C56.9991 45.0395 57.0265 44.981 57.0649 44.9297C57.0969 44.8853 57.1399 44.8499 57.1897 44.8271C57.2501 44.8052 57.3129 44.7904 57.3768 44.7832C57.4293 44.7786 57.4821 44.7786 57.5346 44.7832C57.6242 44.7948 57.7077 44.8346 57.7731 44.8967C57.8199 44.9242 57.86 44.9617 57.8905 45.0066C57.9244 45.0499 57.9516 45.0981 57.9712 45.1494C58.0593 45.4681 58.1547 45.8088 58.2574 46.1384C58.3088 46.3033 58.3675 46.4608 58.4226 46.6146C58.4226 46.6549 58.4556 46.6879 58.4703 46.7209C58.4703 46.7209 58.4703 46.7685 58.507 46.7209H58.518Z" fill="#231F20"/>
<path d="M105.025 79.8513C104.904 79.3861 104.782 78.9173 104.628 78.4632C104.555 78.2324 104.485 78.0017 104.408 77.7746L104.151 77.0971C104.034 76.7638 103.865 76.4524 103.726 76.1301C103.495 75.5515 103.209 74.9984 102.952 74.4271C102.695 73.8557 102.372 73.3283 102.031 72.7936C101.734 72.3248 101.412 71.8724 101.066 71.4384L100.383 70.6254C100.152 70.3543 99.9102 70.0979 99.6864 69.8196C99.4039 69.4753 100.09 69.5669 100.743 70.1199C101.847 71.1405 102.77 72.3405 103.473 73.6689C103.906 74.4527 104.375 75.2621 104.757 76.0972C104.97 76.555 105.146 77.0275 105.336 77.4926C105.527 77.9577 105.681 78.4412 105.824 78.9247L106.089 79.8146L106.316 80.7156C106.54 81.6239 106.683 82.5469 106.833 83.4735C106.929 84.206 107.09 84.8873 107.142 85.6088C107.16 85.7668 107.17 85.9258 107.171 86.0849C107.149 86.6782 107.05 86.8687 106.804 86.9822C106.756 87.0136 106.704 87.0394 106.65 87.0591C106.477 87.1068 106.327 86.865 106.232 86.4512C105.96 85.2279 105.865 83.957 105.623 82.6824C105.535 82.2136 105.436 81.7411 105.336 81.2687C105.237 80.7962 105.131 80.3237 104.97 79.8586L105.025 79.8513Z" fill="#231F20"/>
<path d="M62.117 112.184C61.2731 112.167 60.4305 112.126 59.5891 112.06C59.2846 112.034 58.9764 112.023 58.6682 111.994C57.5883 111.878 56.5162 111.697 55.458 111.452L54.7536 111.287L54.0565 111.111C53.459 110.964 52.8758 110.764 52.3138 110.514C51.9469 110.357 52.5559 110.185 53.209 110.39C54.3794 110.756 55.5791 110.994 56.7971 111.24C57.5449 111.371 58.2994 111.461 59.0571 111.511C59.8936 111.58 60.7301 111.628 61.5703 111.646C62.0876 111.646 62.6049 111.646 63.1222 111.646C63.9074 111.646 64.6925 111.613 65.4703 111.554C66.072 111.507 66.6627 111.43 67.257 111.364L67.6459 111.316C68.1376 111.269 68.2953 111.287 68.4164 111.401C68.4439 111.424 68.4696 111.45 68.4934 111.478C68.5521 111.565 68.3577 111.668 68.0018 111.738C67.4735 111.847 66.9232 111.932 66.3692 112.005C65.8152 112.078 65.2392 112.111 64.6705 112.14C63.823 112.184 62.9681 112.188 62.1023 112.184H62.117Z" fill="#231F20"/>
</svg>
