<svg width="145" height="166" viewBox="0 0 145 166" fill="none" xmlns="http://www.w3.org/2000/svg">
<path d="M36.5224 152.207C31.6489 152.493 18.8346 150.654 17.0611 148.023C14.6516 144.453 29.8863 145.197 29.8863 145.197C29.8863 145.197 31.38 149.003 33.4878 150.215C34.5495 150.799 35.564 151.465 36.5224 152.207Z" fill="#231F20"/>
<path d="M94.1219 95.8569C94.1219 95.8569 96.6117 94.7502 95.3032 93.2588C93.9947 91.7674 88.9062 88.7266 88.9062 88.7266C88.9062 88.7266 96.0265 91.3465 96.8261 94.097C97.6257 96.8476 95.2741 96.8476 95.2741 96.8476L94.1219 95.8569Z" fill="#231F20"/>
<path d="M37.0971 91.6652C36.8318 92.0897 35.3418 90.3771 35.2509 90.2538C33.6519 88.0768 43.8604 84.9274 45.0633 84.7134C45.0633 84.7134 35.9778 86.3497 34.0444 88.534C32.111 90.7182 35.9305 92.7391 35.9305 92.7391C36.3707 92.441 36.7639 92.0791 37.0971 91.6652Z" fill="#231F20"/>
<path opacity="0.2" d="M52.1886 87.812C52.1886 87.812 38.4149 90.4099 37.1538 92.2821C35.8927 94.1542 55.5357 99.2121 59.1954 98.8601C62.855 98.5082 52.1886 87.812 52.1886 87.812Z" fill="#231F20"/>
<path d="M91.6779 104.234C91.6779 104.234 99.6441 102.648 100.287 101.121C100.931 99.5932 99.5787 100.065 99.5787 100.065L90.7402 102.967L91.6779 104.234Z" fill="#231F20"/>
<path d="M28.377 93.8096C29.0238 94.5507 29.7433 95.2253 30.5248 95.8233C32.8834 97.5177 46.1519 104.996 73.2414 105.685L75.531 105.529L74.4589 103.882C74.4589 103.882 43.7134 103.882 32.5272 95.7434L28.377 93.8096Z" fill="#231F20"/>
<path d="M70.2881 143.655C67.3596 142.235 64.5392 140.602 61.8494 138.771L60.3957 137.762C59.9087 137.425 59.4036 137.109 58.942 136.728L56.4998 134.769L54.1739 132.672C53.389 131.99 52.6621 131.221 51.9425 130.495L49.7983 128.256C48.5336 126.928 47.2544 125.611 45.9715 124.32C45.1429 123.495 44.3264 122.659 43.522 121.812C43.1223 121.388 42.7116 120.971 42.3264 120.532L41.178 119.207C40.7055 118.656 40.8691 118.623 41.4505 118.91C41.7449 119.051 42.141 119.273 42.6062 119.556C42.8352 119.701 43.0859 119.857 43.3331 120.042C43.5802 120.227 43.8273 120.437 44.0781 120.666L45.39 121.885L46.0442 122.498L46.6802 123.13L49.1987 125.669L54.1776 130.807C55.1843 131.801 56.2818 132.755 57.3866 133.71L59.1201 135.048C59.7016 135.495 60.2685 135.956 60.8755 136.358L62.8416 137.733C63.165 137.973 63.5103 138.176 63.8482 138.39L64.8695 139.025C66.2105 139.907 67.6424 140.632 69.0379 141.42L71.6982 142.719C72.5958 143.14 73.5153 143.506 74.4202 143.898C77.1914 145.022 80.0424 145.939 82.9497 146.641C85.1778 147.122 87.4384 147.438 89.713 147.588C90.2109 147.617 90.6979 147.631 91.1958 147.668C92.1189 147.7 92.7294 147.729 93.1583 147.791C93.4771 147.829 93.7836 147.937 94.0559 148.107C94.1551 148.158 94.2499 148.218 94.3394 148.284C94.4448 148.386 94.3067 148.491 93.976 148.622C93.465 148.825 92.9229 148.939 92.3733 148.959C91.3078 149.035 90.2388 149.051 89.1715 149.006L87.5579 148.876C87.0164 148.825 86.4677 148.734 85.9371 148.665C84.8468 148.531 83.782 148.281 82.699 148.074C82.1611 147.954 81.6269 147.809 81.0926 147.679C80.5584 147.548 80.0024 147.421 79.4899 147.243C76.3306 146.31 73.252 145.123 70.2845 143.695L70.2881 143.655Z" fill="#231F20"/>
<path d="M80.0812 104.35C80.0812 104.35 82.4108 105.612 83.7627 105.725C85.1146 105.837 84.8893 109.567 86.0341 108.932C87.2479 108.261 90.1117 105.685 89.8791 103.882C89.4939 100.867 91.9869 103.316 91.1656 106.102C90.8022 107.289 88.3055 106.93 87.9566 108.947C87.6077 110.964 88.9051 113.188 86.0159 113.475C83.9807 113.678 82.6215 112.572 81.8911 109.995C80.8517 106.335 77.8353 108.377 76.1017 106.102C74.0048 103.356 75.7056 103.882 75.7056 103.882L80.0812 104.35Z" fill="#231F20"/>
<path d="M16.4095 154.993C16.4095 154.993 19.7385 156.143 19.1279 157.021C18.5174 157.899 22.1116 157.779 23.3364 157.779C24.5611 157.779 27.1995 156.789 28.7296 158.012C30.2596 159.234 31.1972 159.38 27.9446 159.496C24.6919 159.612 17.7251 159.913 16.802 159.038C15.8789 158.164 18.2812 157.569 17.2381 157.021C16.1951 156.473 15.5264 156.433 13.1969 156.208C10.8673 155.983 8.7813 154.674 10.0387 154.51C11.2962 154.347 16.4095 154.993 16.4095 154.993Z" fill="#231F20"/>
<path d="M112.554 155.603C112.554 155.603 114.887 155.871 114.542 156.749C114.197 157.627 120.778 158.622 121.007 158.201C121.236 157.78 117.642 155.871 119.132 155.795C120.622 155.719 124.285 156.477 124.947 157.704C125.608 158.93 126.437 160.682 122.61 160.341C118.783 160 112.772 158.788 110.13 158.27C107.488 157.751 104.773 156.611 106.459 156.053C108.146 155.494 112.554 155.603 112.554 155.603Z" fill="#231F20"/>
<path d="M92.6937 148.506C90.6746 151.353 87.7849 153.469 84.4585 154.536C78.9781 156.234 64.9609 157.022 64.9609 157.022C64.9609 157.022 84.4295 157.054 89.2485 154.765C94.0674 152.475 94.3618 148.234 94.3618 148.234L92.6937 148.506Z" fill="#231F20"/>
<path d="M92.6934 139.01C98.9406 139.355 104.457 138.495 105.548 133.339L104.857 131.62C104.127 133.515 102.757 135.096 100.983 136.09C98.0865 137.635 92.6934 139.01 92.6934 139.01Z" fill="#231F20"/>
<path d="M28.5703 60.1939C28.5703 60.1939 29.5843 61.3368 30.173 60.8434C30.7618 60.3499 44.3974 52.6398 44.1575 52.0484C43.9749 51.644 43.7101 51.282 43.3798 50.9854C42.6647 51.3811 42.0048 51.869 41.4173 52.4367C40.5487 53.3147 40.2362 53.039 39.055 53.7102C37.8739 54.3814 36.7728 55.3429 35.8061 55.8872C34.8394 56.4314 33.4329 56.8305 32.7061 57.5852C31.9792 58.3399 32.5062 58.3435 31.2887 58.8769C30.0712 59.4102 28.5703 60.1939 28.5703 60.1939Z" fill="#231F20"/>
<path d="M48.273 68.4477C47.706 70.9878 42.821 72.9509 42.821 72.9509L41.3672 71.4776L48.273 67.0361V68.4477Z" fill="#231F20"/>
<path d="M40.2734 72.3484C40.2734 72.3484 43.2826 74.1408 45.1833 76.9237C47.084 79.7066 59.1968 98.8603 59.1968 98.8603L62.4349 99.5424C62.4349 99.5424 46.0191 74.9426 44.3438 73.2482C41.7998 70.7084 41.3564 71.4776 41.3564 71.4776L40.2734 72.3484Z" fill="#231F20"/>
<path d="M78.1632 32.7778C78.6321 33.4491 78.8356 34.5267 79.0427 35.2959C79.5934 37.2286 79.8109 39.2407 79.686 41.2462C79.5813 43.2158 78.9786 45.1269 77.9343 46.8011C76.357 49.1704 73.5732 49.8525 70.8984 50.0303C70.8984 50.0303 75.4667 51.3038 77.9016 48.325C80.3365 45.3462 81.2124 40.2448 80.3729 37.4946C79.8627 35.8262 79.1188 34.2382 78.1632 32.7778Z" fill="#231F20"/>
<path d="M74.3119 51.6279C71.4042 52.5823 67.7695 49.8644 67.7695 49.8644L67.9731 49.1387C67.9731 49.1387 72.1311 51.8275 74.3119 50.953V51.6279Z" fill="#231F20"/>
<path d="M60.2204 90.7836C60.2204 90.7836 61.5687 76.0201 64.1708 69.9935C66.7729 63.9669 68.3538 57.8243 68.034 57.1784L66.9692 56.2314C66.9692 56.2314 64.2326 65.9335 63.0333 68.0415C61.834 70.1495 59.0357 81.9886 58.8285 85.5008C58.6214 89.013 58.923 88.9041 58.923 88.9041L60.2204 90.7836Z" fill="#231F20"/>
<path d="M71.4883 58.7827C68.8277 58.9351 67.7773 58.086 67.7773 58.086L68.0063 56.7651L72.6768 57.8138V57.9916C72.6695 58.6775 72.168 58.7464 71.4883 58.7827Z" fill="#231F20"/>
<path d="M104.799 52.0447C104.694 52.1789 105.835 47.8898 104.799 48.5938C103.763 49.2978 105.86 45.1865 106.391 45.5203C106.922 45.8541 105.49 51.1883 104.799 52.0447Z" fill="#231F20"/>
<path d="M100.15 50.1544C100.15 50.1544 100.688 47.6143 99.1762 49.367C97.6642 51.1197 100.267 45.6549 101.481 45.0852C102.694 44.5155 102.393 45.7202 101.895 47.0846C101.432 48.1705 100.846 49.2004 100.15 50.1544Z" fill="#231F20"/>
<path d="M92.2275 47.2522C92.3111 47.0816 93.2743 42.0196 91.864 43.2824C90.4538 44.5452 89.0254 47.7493 89.0254 47.7493C89.0254 47.7493 93.2016 39.7299 94.1139 40.7024C95.0262 41.6749 92.2275 47.2522 92.2275 47.2522Z" fill="#231F20"/>
<path d="M82.2367 64.8492L80.0816 64.1562C80.0816 64.1562 78.3263 68.3759 79.6164 71.0064C80.9066 73.6369 82.9853 74.2719 82.9853 74.2719C82.9853 74.2719 73.0457 97.7323 72.7695 100.033L74.3104 100.065L85.1622 74.3227C85.3258 73.8946 84.1083 72.7371 83.7631 72.436C79.9362 69.098 82.2367 64.8492 82.2367 64.8492Z" fill="#231F20"/>
<path d="M99.5004 73.248C99.5004 73.248 95.6046 72.0144 91.6687 70.5449C86.5808 68.6546 81.9435 65.6576 81.3511 65.5415C80.2027 65.313 83.7643 65.1787 83.7643 65.1787C83.7643 65.1787 97.9704 72.4353 99.6931 72.2393C101.416 72.0434 99.5004 73.248 99.5004 73.248Z" fill="#231F20"/>
<path d="M50.3865 156.499C47.2408 155.969 44.1367 155.217 41.0974 154.249C39.5783 153.759 38.0774 153.204 36.6055 152.577C35.8786 152.261 35.1518 151.924 34.425 151.572C33.6426 151.185 32.9457 150.646 32.3753 149.986C31.5901 149.06 30.9426 148.027 30.4527 146.916C29.9688 145.84 29.5667 144.729 29.2498 143.593C28.7066 141.614 28.289 139.602 27.9996 137.57C27.7016 135.549 27.4836 133.525 27.3201 131.496C26.993 127.44 26.8585 123.38 26.7967 119.323C26.7458 115.724 26.7204 112.103 26.7204 108.537L26.6986 101.643V98.2105C26.6986 97.0712 26.6804 95.9246 26.5678 94.8216C26.4987 94.1323 26.4442 93.8964 26.5678 93.8638C26.615 93.8638 26.6986 93.9109 26.8076 94.0488C26.9447 94.2563 27.0569 94.4792 27.142 94.7128C27.5853 95.8992 27.9706 98.1524 28.0469 100.801C28.1523 110.184 27.8615 119.508 28.3231 128.902C28.4575 131.748 28.7365 134.585 29.159 137.403C29.5507 140.234 30.2464 143.015 31.2341 145.697C31.7492 147.125 32.5436 148.436 33.5709 149.554L33.9779 149.917L34.4141 150.236C34.5703 150.323 34.7193 150.414 34.8829 150.501L35.4135 150.759C36.1185 151.1 36.8381 151.416 37.5649 151.72C40.4849 152.913 43.4997 153.86 46.5778 154.55C50.3769 155.411 54.233 155.998 58.1165 156.306C63.999 156.793 69.913 156.76 75.7897 156.209C78.0574 155.984 80.2925 155.672 82.4948 155.247C84.6814 154.851 86.8334 154.285 88.931 153.553C89.8183 153.241 90.665 152.824 91.4532 152.312C91.7562 152.101 92.0215 151.841 92.2382 151.543C92.4671 151.256 92.6525 150.984 92.8197 150.733C93.0822 150.315 93.3153 149.878 93.5174 149.427C93.8409 148.702 94.0008 148.255 94.2152 147.885C94.3133 147.718 94.4006 147.482 94.4805 147.377C94.6113 147.196 94.7676 147.486 94.7858 148.212C94.76 149.329 94.4391 150.419 93.8554 151.372C93.5804 151.841 93.2654 152.285 92.9142 152.7C92.5148 153.137 92.0457 153.505 91.5259 153.788C90.582 154.304 89.59 154.727 88.564 155.051C86.5428 155.698 84.4783 156.201 82.3858 156.557C78.1547 157.277 73.8769 157.689 69.5861 157.79C63.1646 157.988 56.7389 157.57 50.3974 156.542L50.3865 156.499Z" fill="#231F20"/>
<path d="M99.9796 113.156L99.4708 118.776C99.4162 119.458 99.3835 120.144 99.3145 120.826C99.0722 123.245 98.8069 125.653 98.5186 128.05C98.3987 129.117 98.2787 130.191 98.1552 131.254C98.0861 131.936 97.9989 132.621 97.8935 133.304C97.7948 133.99 97.6454 134.668 97.4465 135.332C97.3302 135.745 97.1303 135.633 96.9922 135.234C96.9107 134.98 96.8619 134.716 96.8469 134.45C96.8274 134.097 96.8396 133.742 96.8832 133.391C97.2466 130.662 97.4974 127.89 97.8354 125.1C98.0352 123.431 98.097 121.682 98.1988 119.966L98.6676 114.32C98.7621 113.159 98.8566 111.995 98.9474 110.834C99.0855 109.074 99.26 107.307 99.3908 105.554C99.449 104.876 99.4926 104.197 99.5253 103.523C99.558 102.848 99.6234 102.173 99.6924 101.494C99.7324 101.197 99.7651 100.903 99.816 100.602C99.8508 100.366 99.8981 100.132 99.9577 99.9016C100.01 99.7393 100.076 99.5815 100.154 99.4299C100.239 99.2335 100.399 99.0785 100.597 98.9982C100.67 98.9604 100.747 98.93 100.826 98.9075C101.055 98.8784 101.157 99.3755 101.059 100.13C101.041 100.729 100.968 101.313 100.935 101.919C100.903 102.525 100.848 103.138 100.801 103.758C100.695 104.999 100.59 106.258 100.485 107.517C100.325 109.4 100.169 111.291 100.009 113.174L99.9796 113.156Z" fill="#231F20"/>
<path d="M77.153 104.524C74.1257 104.644 71.0947 104.662 68.0674 104.56C65.0401 104.459 62.0201 104.245 59.0182 103.867C57.928 103.755 56.8377 103.595 55.7474 103.443C54.6572 103.29 53.5669 103.109 52.4766 102.913C48.6496 102.202 44.8711 101.252 41.1633 100.068C40.2438 99.7528 39.3135 99.4661 38.4013 99.1287L35.672 98.0983C33.8297 97.4172 32.0546 96.567 30.3696 95.5585C29.6067 95.0877 28.9048 94.5247 28.28 93.8822C27.6206 93.2194 27.1329 92.4062 26.859 91.5129C26.5939 90.5959 26.6078 89.621 26.899 88.7119C27.2096 87.8399 27.7055 87.0453 28.3526 86.3825C29.1381 85.5559 30.0303 84.8372 31.0056 84.2455C31.9619 83.6557 32.966 83.1472 34.0075 82.7252C36.075 81.8558 38.2821 81.3642 40.5237 81.2739C41.2251 81.2921 41.5267 81.3864 41.5085 81.459C41.4904 81.5315 41.1451 81.6331 40.5927 81.8218C40.0403 82.0105 39.2553 82.2427 38.3395 82.5475C37.4237 82.8522 36.3697 83.2731 35.2322 83.6831C33.2334 84.4559 31.2891 85.4972 29.7809 86.8796C29.0578 87.5185 28.5025 88.3245 28.1637 89.2271C28.0313 89.6516 27.9819 90.0975 28.0183 90.5406C28.0552 90.9916 28.1785 91.4313 28.3817 91.8359C28.8637 92.7066 29.5357 93.4581 30.3478 94.0346C31.2104 94.6706 32.133 95.2211 33.1026 95.6782C34.0838 96.1571 35.105 96.5744 36.1444 96.9989L39.2699 98.1999C44.4317 100.003 49.7529 101.314 55.1623 102.115C56.6523 102.325 58.1424 102.557 59.6397 102.703C61.137 102.848 62.6415 102.993 64.1425 103.12C64.8948 103.174 65.647 103.2 66.3993 103.243C67.1516 103.287 67.9075 103.323 68.6598 103.33L70.9239 103.377H73.1844C76.8986 103.323 80.6128 103.098 84.3015 102.688C85.6971 102.514 87.0999 102.369 88.4845 102.144C89.8691 101.919 91.2538 101.665 92.613 101.338C93.9704 101.02 95.3057 100.614 96.6106 100.123C97.8976 99.6554 99.1133 99.0119 100.223 98.2107C101.054 97.6258 101.706 96.8218 102.106 95.8886C102.195 95.6645 102.263 95.4324 102.309 95.1956C102.343 94.9553 102.356 94.7126 102.349 94.47C102.33 93.9816 102.234 93.4992 102.066 93.0404C101.698 92.0955 101.147 91.2324 100.445 90.5006C99.7275 89.7613 98.9248 89.1097 98.0534 88.5595C97.2795 88.0589 96.4801 87.5987 95.6585 87.1808C94.1212 86.3717 93.06 85.8855 92.3513 85.4718C91.8387 85.2081 91.3763 84.8569 90.9849 84.4342C90.8541 84.2998 90.7327 84.1568 90.6214 84.006C90.5269 83.8137 90.8286 83.821 91.4537 84.006C92.4046 84.2818 93.3359 84.6212 94.2411 85.0219C95.1315 85.4065 96.0292 85.8202 96.9123 86.2882C97.8079 86.7662 98.6722 87.3006 99.4998 87.8883C100.357 88.5106 101.138 89.2316 101.826 90.0362C102.545 90.8883 103.086 91.8752 103.418 92.9389C103.458 93.0804 103.505 93.2146 103.534 93.3597L103.607 93.7951C103.65 94.093 103.669 94.394 103.661 94.6949C103.642 95.3063 103.51 95.9089 103.272 96.4728C102.791 97.5418 102.04 98.4672 101.092 99.1577C100.229 99.8171 99.2905 100.372 98.2969 100.812C97.3334 101.245 96.3442 101.618 95.335 101.93C92.3768 102.804 89.3458 103.412 86.2785 103.744L83.9999 104.016L81.714 104.23C80.9544 104.306 80.1912 104.361 79.428 104.404C78.6648 104.448 77.9016 104.509 77.1385 104.542L77.153 104.524Z" fill="#231F20"/>
<path d="M51.6985 97.5321C54.0826 97.9783 56.492 98.3448 58.9124 98.6822C61.3328 99.0197 63.7387 99.3317 66.1809 99.5385C67.9507 99.6909 69.7206 99.7598 71.4905 99.8251C74.6104 99.9456 77.7345 99.8935 80.8486 99.6691C83.9552 99.4499 87.0424 99.011 90.0868 98.3557C91.4236 98.0697 92.7295 97.6554 93.9863 97.1184C94.5831 96.8646 95.14 96.5261 95.6399 96.1134C95.8546 95.9279 96.0343 95.7055 96.1705 95.4567C96.2824 95.2427 96.322 94.9983 96.2832 94.7601C96.2151 94.4145 96.0614 94.0914 95.8361 93.8203L95.6399 93.5954L95.4182 93.3632C95.2728 93.2035 95.1129 93.0584 94.9603 92.9096C94.3341 92.3138 93.6662 91.7633 92.9615 91.2624C91.5334 90.2608 90.0333 89.3658 88.4732 88.5847C87.4992 88.0913 87.7682 87.8119 88.7785 87.8772C90.4142 88.0764 91.9756 88.6745 93.3249 89.6188C94.1157 90.1525 94.8675 90.7418 95.5745 91.3821C95.9379 91.7087 96.2723 92.0425 96.5993 92.398C96.7808 92.5898 96.9507 92.7921 97.1081 93.004C97.2903 93.2423 97.4429 93.5018 97.5624 93.7768C97.699 94.0883 97.7813 94.4209 97.8059 94.7601C97.8234 95.1206 97.7677 95.481 97.6423 95.8195C97.4054 96.3963 97.0237 96.9023 96.5339 97.289C95.727 97.9036 94.828 98.3873 93.87 98.7221C92.0989 99.3502 90.2743 99.8165 88.4187 100.115C86.6016 100.435 84.7554 100.66 82.9128 100.823C78.4181 101.244 73.8992 101.347 69.3899 101.131C66.9114 101.001 64.4401 100.768 61.9797 100.478C59.5194 100.188 57.0844 99.8288 54.635 99.4442C51.6158 98.9949 48.622 98.3894 45.6657 97.63C44.55 97.3325 43.4343 97.0096 42.3331 96.6359C41.2319 96.2622 40.1526 95.8667 39.0623 95.395C37.9931 94.9357 36.9497 94.4185 35.9369 93.8457C34.8893 93.2854 33.9294 92.5752 33.0876 91.7377C32.7315 91.3749 32.4609 90.9373 32.2954 90.4569C32.2057 90.1871 32.1796 89.9003 32.2191 89.6188C32.2417 89.4769 32.277 89.3372 32.3245 89.2015C32.3826 89.0745 32.4444 88.9512 32.5134 88.8387L32.7533 88.5194L33.0295 88.2509C33.1219 88.1666 33.2203 88.089 33.3239 88.0187C33.4147 87.9498 33.5056 87.8845 33.6001 87.8228C33.9635 87.5616 34.3487 87.3221 34.7339 87.0971C36.276 86.1967 37.9021 85.4482 39.5893 84.8621C40.3161 84.6009 41.043 84.3505 41.8207 84.1365C42.8124 83.8403 43.8276 83.6291 44.8553 83.5051C45.3304 83.4273 45.8174 83.4684 46.2726 83.6249C46.4281 83.6681 46.5781 83.7289 46.7196 83.8063C46.8795 83.926 46.6796 84.0965 46.189 84.2925C45.6984 84.4884 44.9098 84.717 43.9031 84.9855C42.3979 85.3726 40.9143 85.8389 39.4584 86.3824C37.993 86.9311 36.5787 87.6074 35.2318 88.4033C34.8975 88.5992 34.574 88.8133 34.2615 89.031L34.0289 89.2015L33.9708 89.2414L33.9053 89.3068C33.8179 89.3875 33.741 89.4789 33.6764 89.5789C33.6363 89.644 33.6115 89.7173 33.6039 89.7934C33.5964 89.8694 33.6063 89.9462 33.6328 90.0179C33.724 90.283 33.8673 90.5273 34.0544 90.7363C34.566 91.2658 35.1423 91.729 35.7697 92.115C36.4404 92.5384 37.1331 92.926 37.8448 93.2761C38.9097 93.8058 40.0254 94.2956 41.1338 94.7274C42.2423 95.1592 43.4197 95.522 44.5827 95.8703C46.9272 96.5398 49.3047 97.0884 51.7058 97.5139L51.6985 97.5321Z" fill="#231F20"/>
<path d="M75.3577 89.5899C74.9397 89.4956 74.5181 89.4049 74.0928 89.3287C73.9366 89.3033 73.7766 89.3287 73.624 89.2851C73.0751 89.1835 72.5336 89.0747 71.9666 89.0021C71.7252 88.9752 71.482 88.9691 71.2397 88.9839C70.925 89.0439 70.6008 89.0328 70.291 88.9513C70.0984 88.8714 70.3492 87.7502 70.7308 87.7429C71.3986 87.7299 72.0644 87.8205 72.7044 88.0114C73.1036 88.0914 73.5081 88.1424 73.9147 88.1639C74.3582 88.2292 74.798 88.309 75.2377 88.3961L76.0519 88.563L77.2804 88.8279C77.6002 88.8823 77.931 88.8896 78.2618 88.9331C78.3365 88.9369 78.4108 88.9478 78.4835 88.9658C78.7524 89.0384 78.8069 89.1436 78.7452 89.452C78.7452 89.521 78.7197 89.5899 78.6979 89.6589C78.6756 89.7594 78.6228 89.8506 78.5467 89.9201C78.4706 89.9895 78.3749 90.0339 78.2727 90.0471C77.7186 90.0478 77.1662 89.9857 76.6262 89.8621C76.2118 89.7859 75.7938 89.6915 75.3686 89.619L75.3577 89.5899Z" fill="#231F20"/>
<path d="M45.1835 89.4738C44.37 89.6429 43.5658 89.8536 42.774 90.1052C42.4869 90.1995 42.207 90.3192 41.9199 90.4208C40.9043 90.7669 39.9125 91.179 38.9508 91.6544C38.53 91.8737 38.1267 92.1248 37.7442 92.4055C37.28 92.789 36.7947 93.1464 36.2905 93.4758C36.1343 93.5629 35.9271 93.3416 35.8581 93.015C35.8125 92.8377 35.8158 92.6513 35.8676 92.4757C35.9195 92.3001 36.0179 92.1417 36.1524 92.0173C37.192 91.2068 38.3569 90.5707 39.6013 90.1342C40.3463 89.8766 41.055 89.4992 41.8145 89.2344C42.6378 88.9509 43.4747 88.7087 44.3222 88.5087C44.8455 88.3854 45.3652 88.2584 45.8921 88.1677C46.6844 87.9935 47.4912 87.9064 48.2798 87.7613C48.8976 87.6851 49.4937 87.5037 50.0969 87.4202C50.2314 87.3985 50.3622 87.3694 50.5003 87.3549C51.0091 87.3005 51.1763 87.3549 51.2962 87.6706C51.3276 87.7376 51.3543 87.8067 51.3762 87.8774C51.4343 88.1132 51.2381 88.3237 50.8819 88.418C50.355 88.5595 49.8171 88.643 49.272 88.7518C48.9994 88.8026 48.7232 88.8461 48.447 88.8861C48.1708 88.926 47.8982 88.984 47.6184 89.0276C47.2077 89.0965 46.7971 89.1618 46.39 89.2525C45.983 89.3432 45.5651 89.4049 45.1617 89.5138L45.1835 89.4738Z" fill="#231F20"/>
<path d="M53.0975 130.469C52.189 129.668 51.2804 128.869 50.4046 128.031L49.0817 126.79C48.642 126.373 48.2204 125.941 47.7879 125.517L46.5014 124.243C46.0726 123.815 45.6619 123.372 45.2403 122.937L43.9865 121.627L43.3723 120.989C43.1652 120.782 42.9544 120.579 42.7363 120.376C41.8714 119.559 40.9447 118.772 40.087 117.868C39.1713 116.96 38.4591 115.868 37.9973 114.665C37.5347 113.402 37.4977 112.024 37.8919 110.739C38.1067 110.078 38.4682 109.474 38.9495 108.972C39.4323 108.479 40.0128 108.092 40.6539 107.836C41.5855 107.474 42.5989 107.375 43.5831 107.55C44.5275 107.719 45.4328 108.06 46.2543 108.555C46.6687 108.799 47.0592 109.083 47.4209 109.4C47.7738 109.717 48.0974 110.066 48.3876 110.441C48.9654 111.167 49.4306 111.925 49.9212 112.618C50.1393 112.923 50.3609 113.213 50.5935 113.482C50.8357 113.749 51.0955 114 51.3713 114.233L53.1193 115.753C54.275 116.776 55.4743 117.749 56.6482 118.75C59.0395 120.702 61.4417 122.64 63.9348 124.457C68.8991 128.107 74.1106 131.485 79.6855 134.069C82.1525 135.233 84.7283 136.153 87.3755 136.815C88.6884 137.142 90.0251 137.364 91.3732 137.479C92.7042 137.606 94.0455 137.581 95.3708 137.403C95.796 137.363 96.2067 137.254 96.6246 137.185L97.2424 137.022C97.4459 136.968 97.6495 136.91 97.8493 136.837C98.65 136.572 99.418 136.218 100.139 135.781C100.859 135.352 101.521 134.833 102.109 134.236C102.697 133.684 103.141 132.996 103.399 132.233C103.637 131.463 103.689 130.647 103.551 129.853C103.411 129.029 103.167 128.227 102.825 127.465C102.478 126.681 102.078 125.922 101.625 125.194C101.171 124.468 100.72 123.717 100.204 123.017C98.9105 121.272 99.2013 121.402 100.499 122.738C101.415 123.657 102.253 124.651 103.003 125.709C103.516 126.445 103.95 127.233 104.296 128.06C104.707 129.047 104.902 130.109 104.867 131.177C104.84 131.692 104.746 132.202 104.587 132.694C104.421 133.183 104.194 133.65 103.911 134.083C103.629 134.497 103.305 134.882 102.945 135.23C102.779 135.404 102.603 135.569 102.418 135.723C102.236 135.883 102.054 136.042 101.862 136.184C101.102 136.777 100.266 137.265 99.3757 137.635C98.9396 137.835 98.4853 137.976 98.0347 138.132C97.8094 138.201 97.5768 138.256 97.3478 138.317C97.1189 138.379 96.8899 138.437 96.6537 138.473C94.813 138.822 92.931 138.899 91.0679 138.702C89.2354 138.507 87.4251 138.143 85.6602 137.613C84.777 137.374 83.9194 137.062 83.0544 136.768C82.1895 136.474 81.3463 136.13 80.5105 135.752C78.8314 135.048 77.2106 134.221 75.6043 133.379C72.4176 131.645 69.3354 129.726 66.3733 127.632C62.8263 125.139 59.3193 122.455 55.885 119.65C55.0309 118.942 54.1805 118.228 53.341 117.516L50.8152 115.339C50.6008 115.151 50.4046 114.977 50.1792 114.777C49.9594 114.573 49.7531 114.355 49.5614 114.124C49.1986 113.681 48.859 113.22 48.5438 112.742C47.9963 111.837 47.3369 111.004 46.5814 110.264C45.7248 109.537 44.7068 109.026 43.6122 108.772C42.5498 108.518 41.4299 108.687 40.4904 109.244C40.0239 109.511 39.6242 109.88 39.3214 110.324C39.0186 110.768 38.8206 111.274 38.7423 111.806C38.587 112.924 38.7758 114.063 39.2838 115.071C39.8393 116.096 40.56 117.023 41.4171 117.814C42.2675 118.656 43.1906 119.439 44.0701 120.314L46.5923 122.941C47.4281 123.815 48.3076 124.646 49.1617 125.502C49.685 126.032 50.2519 126.529 50.7789 127.041C51.3058 127.552 51.8692 128.064 52.4179 128.557C53.5336 129.541 54.6348 130.546 55.7905 131.482C56.9462 132.418 58.1018 133.358 59.2721 134.275C60.4423 135.193 61.6525 136.061 62.9063 136.884C64.7525 138.176 66.6786 139.355 68.6302 140.483C70.5818 141.612 72.6097 142.602 74.6666 143.513C78.7648 145.343 83.1087 146.565 87.5609 147.141C89.2708 147.342 90.9942 147.404 92.7142 147.326C93.5682 147.29 94.415 147.192 95.2581 147.072C96.0927 146.941 96.9181 146.756 97.7294 146.521C98.1292 146.394 98.5253 146.26 98.9069 146.1C99.2885 145.94 99.6664 145.737 100.048 145.567C100.43 145.396 100.775 145.153 101.138 144.939L101.651 144.576C101.825 144.467 101.991 144.345 102.149 144.213C103.454 143.206 104.473 141.875 105.103 140.353C105.358 139.679 105.541 138.979 105.648 138.267C105.762 137.547 105.817 136.819 105.812 136.09V135.589C105.812 135.427 105.801 135.267 105.779 135.11C105.757 134.953 105.746 134.8 105.746 134.653C105.728 134.504 105.71 134.355 105.696 134.214C105.659 133.924 105.63 133.655 105.579 133.423C105.528 133.191 105.467 132.937 105.405 132.697C105.147 131.779 104.889 131.039 104.678 130.433C104.26 129.214 104.017 128.521 103.842 127.93C103.756 127.667 103.654 127.411 103.537 127.16C103.486 127.015 103.537 127.001 103.744 127.128C104.056 127.362 104.324 127.65 104.536 127.977C105.434 129.33 106.116 130.813 106.561 132.374C106.68 132.77 106.776 133.172 106.848 133.579C106.891 133.978 106.964 134.37 106.989 134.773C107.015 135.175 107.055 135.578 107.048 135.988C107.048 136.191 107.048 136.394 107.048 136.598L107.011 137.211C106.915 138.898 106.419 140.538 105.564 141.996C104.71 143.455 103.52 144.689 102.094 145.599C101.916 145.715 101.749 145.842 101.567 145.962L101.018 146.267C100.657 146.477 100.283 146.664 99.899 146.829C99.7064 146.916 99.5356 147.007 99.3248 147.087L98.7434 147.337C98.3436 147.468 97.9402 147.595 97.5332 147.7C94.2805 148.509 90.9225 148.535 87.6335 148.168C84.3404 147.758 81.1015 146.993 77.9738 145.886C75.6573 145.06 73.3948 144.091 71.1996 142.983C70.1093 142.446 69.0191 141.844 67.947 141.253L66.3661 140.317C65.8318 140.008 65.3158 139.682 64.7997 139.348C62.7173 138.053 60.733 136.608 58.7669 135.15C56.8008 133.691 54.9219 132.12 53.0866 130.502L53.0975 130.469Z" fill="#231F20"/>
<path d="M79.7005 83.5886C79.0875 84.9408 78.4818 86.3026 77.8834 87.6741C77.669 88.1748 77.4909 88.69 77.2728 89.1871C76.4951 90.9432 75.7319 92.7029 75.0051 94.4807C74.6816 95.2681 74.4091 96.0808 74.1183 96.8718C73.7812 97.9063 73.3869 98.9214 72.9372 99.9123C72.7882 100.221 72.592 100.105 72.4684 99.7562C72.31 99.2579 72.3024 98.7241 72.4466 98.2215C73.0501 96.0745 73.8155 93.9762 74.7361 91.9446C75.2922 90.7182 75.7137 89.4048 76.2189 88.1131C76.7749 86.7126 77.3819 85.3266 77.9815 83.9442L79.1045 81.4044C79.3952 80.7658 79.6896 80.1236 79.9803 79.4814C80.2711 78.8392 80.5763 78.2043 80.8525 77.5657C81.3068 76.5752 81.6666 75.5629 82.15 74.5905C82.2554 74.3764 82.3389 74.1587 82.4552 73.9447C82.5988 73.6585 82.7865 73.3965 83.0113 73.1682C83.1588 73.0458 83.3466 72.9825 83.5382 72.9904C83.6204 72.983 83.7032 72.983 83.7854 72.9904C83.9089 73.0158 83.9671 73.1319 83.9816 73.3242C83.9918 73.5832 83.9434 73.8412 83.8399 74.0789C83.6618 74.5143 83.4946 74.9642 83.3202 75.4177C83.1457 75.8713 82.9568 76.3212 82.7714 76.7747C82.368 77.6745 81.9573 78.5889 81.5503 79.4996C80.9361 80.8565 80.3147 82.2244 79.7332 83.6031L79.7005 83.5886Z" fill="#231F20"/>
<path d="M86.5975 85.8713C86.0136 87.1025 85.4442 88.3397 84.8894 89.583C84.6895 90.0402 84.526 90.5082 84.3152 90.9618L82.1856 95.7837C81.8694 96.5094 81.5823 97.2351 81.277 97.9389C81.0844 98.3997 80.8881 98.8605 80.6628 99.3104C80.4525 99.7651 80.2096 100.204 79.936 100.624C79.7615 100.889 79.6489 100.773 79.6271 100.461C79.6108 100.005 79.6913 99.5513 79.8633 99.129L80.1431 98.4324C80.2303 98.1966 80.3176 97.9607 80.412 97.7285L80.9935 96.3316C81.386 95.4028 81.7785 94.4631 82.2037 93.5342C82.7125 92.424 83.1232 91.2157 83.592 90.0547C84.1081 88.7775 84.6399 87.5064 85.1874 86.2414C85.5218 85.4613 85.8706 84.6885 86.2232 83.912C86.7538 82.7401 87.3134 81.5827 87.8804 80.4289C88.3237 79.5327 88.6908 78.6147 89.1596 77.7403C89.2614 77.5444 89.3522 77.3521 89.4722 77.1634C89.9373 76.474 90.159 76.3071 90.5152 76.3507C90.5962 76.3546 90.6765 76.3667 90.755 76.387C90.9949 76.4668 90.9804 76.8586 90.7369 77.3811C90.646 77.577 90.5479 77.7621 90.4607 77.9653C90.3735 78.1685 90.2899 78.368 90.1881 78.5603C89.9919 78.9522 89.7883 79.3404 89.5957 79.7468L88.9779 80.9405C88.778 81.3468 88.5781 81.7568 88.3746 82.1668L87.477 84.0209L86.612 85.8822L86.5975 85.8713Z" fill="#231F20"/>
<path d="M98.5446 61.8699C99.5149 62.2146 100.489 62.5447 101.481 62.9583C101.728 63.0636 101.979 63.1724 102.23 63.303C102.506 63.4405 102.768 63.6059 103.011 63.7965C103.189 63.9333 103.334 64.108 103.436 64.3081C103.485 64.412 103.524 64.5201 103.553 64.631C103.574 64.7171 103.591 64.8043 103.603 64.8922C103.636 65.1961 103.636 65.5026 103.603 65.8065C103.539 66.6021 103.386 67.3882 103.149 68.1504C102.736 69.4462 102.183 70.6932 101.499 71.8694C100.819 73.0561 99.9923 74.1532 99.0388 75.1349C98.1976 76.0173 97.2301 76.7705 96.1678 77.3699C95.4761 77.752 94.7315 78.0295 93.9582 78.1935C93.1833 78.3571 92.3845 78.3743 91.6032 78.2443C91.1199 78.1572 91.2398 77.9286 91.6396 77.7254C92.2275 77.4552 92.8445 77.2532 93.4785 77.1232C94.8412 76.803 96.105 76.1553 97.16 75.2364C98.261 74.2862 99.2237 73.1871 100.02 71.971C101.024 70.4559 101.749 68.7737 102.161 67.0039C102.28 66.5389 102.356 66.064 102.39 65.5852C102.41 65.3823 102.407 65.1777 102.379 64.9757C102.371 64.9246 102.351 64.8762 102.321 64.8342C102.321 64.8124 102.291 64.8088 102.262 64.7797C102.226 64.7473 102.187 64.7181 102.146 64.6927C101.745 64.4341 101.317 64.2188 100.87 64.0505C100.402 63.8618 99.9183 63.6876 99.435 63.5135L95.8226 62.2508C94.0054 61.5977 92.1883 60.8648 90.4221 60.0739C89.052 59.4571 87.7001 58.8548 86.3954 58.1219C86.1046 57.9622 85.8212 57.8062 85.5413 57.6284C85.1586 57.4128 84.8076 57.1454 84.4983 56.8338C84.4208 56.7327 84.3573 56.6216 84.3093 56.5036C84.2784 56.4033 84.2589 56.2999 84.2512 56.1952C84.2512 56.1082 84.2148 56.0138 84.2148 55.9558C84.2148 55.8977 84.342 55.8505 84.6001 55.8687C84.9458 55.9144 85.2765 56.0385 85.5668 56.2315C87.8928 57.5581 90.3039 58.7301 92.7843 59.7401C94.6669 60.5093 96.6039 61.1914 98.57 61.8517L98.5446 61.8699Z" fill="#231F20"/>
<path d="M80.2891 64.0249C80.0188 64.9727 79.8435 65.945 79.7657 66.9275C79.7472 67.2901 79.7472 67.6534 79.7657 68.016C79.7737 69.2842 80.0681 70.5344 80.6271 71.6733C80.8841 72.1772 81.2107 72.6425 81.5974 73.0556C82.111 73.5723 82.656 74.057 83.2292 74.507C83.4036 74.663 83.2909 74.7972 83.0256 74.8371C82.6407 74.8897 82.2503 74.7922 81.9354 74.565C80.5446 73.6275 79.5434 72.2165 79.1189 70.5957C78.843 69.6368 78.6784 68.6495 78.6282 67.6531C78.6136 66.5712 78.7246 65.4913 78.9589 64.4348C79.1043 63.7926 79.286 63.1577 79.4895 62.5373C79.8099 61.6015 80.1799 60.6835 80.598 59.787C80.9105 59.094 81.194 58.3938 81.5465 57.7153C81.6265 57.5665 81.6919 57.4141 81.7791 57.269C82.1098 56.732 82.3061 56.6195 82.6368 56.6994C82.7146 56.7139 82.7912 56.7345 82.8657 56.761C83.0983 56.8626 83.1165 57.1819 82.9311 57.5738C82.3824 58.7457 81.7827 59.9467 81.263 61.2021C80.8731 62.1251 80.5489 63.0744 80.2927 64.043L80.2891 64.0249Z" fill="#231F20"/>
<path d="M106.3 55.9879L105.573 57.6605C105.489 57.8637 105.424 58.0778 105.337 58.2809C105.021 59.0066 104.69 59.7032 104.352 60.4107C104.207 60.7264 104.065 61.0457 103.934 61.365C103.771 61.7806 103.552 62.1724 103.283 62.5297C103.196 62.6385 103.094 62.5623 103.025 62.3918C102.937 62.1837 102.925 61.9509 102.993 61.7351C103.134 61.3181 103.301 60.9098 103.491 60.5123C103.669 60.106 103.854 59.7069 104.061 59.3041C104.284 58.8028 104.478 58.2891 104.643 57.7657L105.275 56.0604L105.664 55.0082C105.849 54.4749 106.064 53.9451 106.234 53.4082C106.369 52.9873 106.449 52.5591 106.576 52.1419C106.605 52.0476 106.623 51.9569 106.656 51.8661C106.783 51.5251 106.889 51.4453 107.15 51.4707C107.209 51.4711 107.267 51.4772 107.325 51.4888C107.517 51.5287 107.612 51.7246 107.579 51.9859C107.523 52.378 107.445 52.7668 107.347 53.1506C107.234 53.5315 107.099 53.9125 106.961 54.2935C106.761 54.8631 106.525 55.4255 106.303 55.9915L106.3 55.9879Z" fill="#231F20"/>
<path d="M106.633 44.5089C106.736 44.4862 106.843 44.4862 106.946 44.5089C107.08 44.5481 107.197 44.6328 107.276 44.7483C107.428 45.058 107.493 45.4026 107.465 45.7461C107.459 46.0089 107.434 46.2708 107.389 46.5298L107.316 46.958C107.291 47.1031 107.251 47.2519 107.218 47.397L107.116 47.836L107.036 48.1154L106.898 48.6088C106.76 49.0841 106.633 49.5594 106.477 50.0275C105.917 51.6711 105.285 53.2929 104.66 54.8858L103.831 57.0192C103.486 57.936 103.087 58.8313 102.635 59.7005C102.486 59.9726 102.396 59.8819 102.377 59.5953C102.365 59.1499 102.429 58.7056 102.566 58.2818C103.144 56.3806 103.889 54.552 104.627 52.6906C105.074 51.6022 105.412 50.3867 105.757 49.222L106.037 48.2605L106.23 47.5349C106.324 47.2391 106.373 46.9309 106.375 46.6205C106.374 46.5682 106.363 46.5165 106.342 46.4681C106.295 46.4681 106.27 46.5044 106.237 46.5298C106.179 46.5959 106.124 46.665 106.073 46.7366C105.968 46.8818 105.863 47.0487 105.75 47.2301L105.626 47.4369L105.397 47.836L104.943 48.6487C104.634 49.1966 104.336 49.7372 104.056 50.3032C103.617 51.1668 103.253 52.0448 102.861 52.9156C102.766 53.1043 102.686 53.2784 102.588 53.4816C102.225 54.1819 102.068 54.3705 101.832 54.4576C101.785 54.483 101.735 54.5037 101.683 54.5193C101.607 54.5193 101.574 54.4504 101.574 54.2907C101.578 54.0615 101.616 53.8341 101.687 53.6159C101.814 53.195 101.945 52.7741 102.09 52.3532C102.236 51.9323 102.428 51.5296 102.61 51.1196C102.973 50.296 103.366 49.476 103.777 48.6596C103.933 48.3585 104.085 48.0537 104.249 47.7562L104.801 46.7983C105.139 46.2323 105.477 45.6554 105.808 45.191C105.941 44.993 106.099 44.8126 106.277 44.654C106.383 44.566 106.507 44.5017 106.64 44.4653L106.633 44.5089Z" fill="#231F20"/>
<path d="M99.0063 47.625C99.4243 46.9791 99.8531 46.3369 100.307 45.7056C100.641 45.2382 101.005 44.7934 101.398 44.374C101.669 44.0296 102.057 43.7951 102.488 43.7137C102.588 43.7036 102.689 43.7173 102.782 43.7536C102.885 43.7979 102.972 43.8711 103.033 43.964C103.104 44.1092 103.15 44.2648 103.171 44.4248C103.175 44.6148 103.15 44.8043 103.098 44.9872L103.026 45.2738L102.924 45.5786C102.862 45.7854 102.79 45.9813 102.717 46.1773L102.535 46.6562L102.401 47.019L101.848 48.3869L100.722 51.1045C100.398 51.9136 100.071 52.7227 99.7477 53.5245L99.1081 55.0484C98.9082 55.5673 98.6356 56.0571 98.3812 56.5542C98.2177 56.8589 98.1632 56.7864 98.1741 56.4743C98.1804 56.2644 98.1974 56.0549 98.225 55.8466C98.225 55.716 98.2613 55.5781 98.2867 55.433L98.3304 55.2081C98.3558 55.1355 98.3776 55.0629 98.403 54.9867C98.7665 53.92 99.1481 52.8533 99.5515 51.7975C99.9549 50.7416 100.391 49.6931 100.834 48.6445C101.085 48.0458 101.314 47.429 101.532 46.805L101.776 46.0793C101.808 45.9777 101.845 45.8725 101.874 45.7709C101.874 45.7383 101.874 45.7237 101.899 45.6983C101.927 45.6319 101.935 45.5587 101.921 45.4879C101.885 45.4117 101.805 45.4661 101.761 45.4879C101.657 45.5693 101.562 45.6618 101.478 45.7637L101.336 45.9342L101.016 46.3623C100.794 46.6707 100.58 46.9828 100.366 47.2984C99.8422 48.0749 99.337 48.8695 98.8501 49.6749C98.1232 50.894 97.3964 52.1313 96.7349 53.3867C96.2298 54.3627 95.7937 55.3532 95.3612 56.3473C95.2667 56.565 95.1831 56.7827 95.0741 56.9968C94.9446 57.2852 94.7927 57.563 94.6198 57.8277C94.5274 57.9592 94.4021 58.0642 94.2564 58.1325C94.2025 58.1597 94.1466 58.1827 94.0892 58.2014C94.0093 58.2014 93.9766 58.1288 93.9766 57.951C93.9868 57.6919 94.0332 57.4354 94.1147 57.1891C94.4176 56.2261 94.793 55.2873 95.2376 54.3808C95.6701 53.452 96.1462 52.5304 96.6368 51.6161C97.3637 50.2591 98.1559 48.9203 98.9736 47.6032L99.0063 47.625Z" fill="#231F20"/>
<path d="M96.4824 47.1969C96.0681 47.8826 95.661 48.5756 95.2758 49.2795C95.1341 49.5371 95.0214 49.8056 94.8833 50.0669C94.3963 50.9776 93.9093 51.881 93.4551 52.8171C93.2479 53.2271 93.0916 53.6552 92.8954 54.0689C92.6733 54.6144 92.4071 55.1411 92.0995 55.6435C91.9941 55.7995 91.8887 55.7197 91.8197 55.5202C91.7285 55.2457 91.7197 54.9506 91.7942 54.6712C92.1244 53.5172 92.5853 52.4046 93.168 51.3549C93.5132 50.72 93.7603 50.0088 94.0656 49.3339C94.3891 48.6083 94.7343 47.8572 95.0905 47.1243C95.3122 46.6744 95.5266 46.2245 95.7628 45.7819C96.1262 45.107 96.4896 44.4467 96.8349 43.7718C97.0929 43.2421 97.3001 42.6833 97.609 42.1826C97.6744 42.0665 97.7289 41.9504 97.8052 41.8198C98.096 41.4098 98.2813 41.3372 98.5757 41.4569C98.6439 41.4779 98.7107 41.5034 98.7756 41.5331C98.9791 41.6492 99.0154 41.9286 98.8991 42.2334C98.732 42.7015 98.5575 43.184 98.3649 43.6847C98.1723 44.1854 97.8997 44.6281 97.6381 45.0961L97.082 46.1556L96.8022 46.6889L96.5005 47.2114L96.4824 47.1969Z" fill="#231F20"/>
<path d="M90.9984 43.2571C91.4782 42.5314 91.9688 41.8311 92.4994 41.1381L92.6993 40.8769C92.7356 40.8297 92.7574 40.7971 92.8047 40.7427L92.9464 40.5794L93.2299 40.2528C93.2517 40.2274 93.2735 40.1984 93.2989 40.173L93.4043 40.0932L93.6115 39.9299C93.733 39.8195 93.8785 39.7388 94.0367 39.6941C94.1773 39.6487 94.3255 39.6314 94.4728 39.6433C94.6207 39.6541 94.7631 39.7042 94.8851 39.7884C95.0072 39.8726 95.1045 39.9879 95.1669 40.1222C95.2511 40.3112 95.2764 40.521 95.2396 40.7245L95.0688 41.2724L94.7235 42.3609L94.6472 42.604L94.5709 42.8035L94.4255 43.1881L94.1311 43.9609L93.5242 45.4957C93.1063 46.5153 92.6847 47.5312 92.2486 48.5398L91.1111 51.2429C90.8676 51.8162 90.6387 52.3894 90.4097 52.9627L90.0826 53.8154C89.9658 54.0875 89.8769 54.3707 89.8173 54.6607C89.7992 54.9837 89.7228 55.0236 89.5811 54.6607C89.492 54.2592 89.4772 53.8448 89.5375 53.438C89.5704 53.2642 89.6165 53.0932 89.6756 52.9264C90.5405 50.4991 91.5508 48.2097 92.5394 45.8622C92.841 45.1619 93.1063 44.4326 93.368 43.6852L94.0476 41.6679L94.2111 41.1962L94.2402 41.1055C94.2402 41.0874 94.2402 41.0692 94.2402 41.0474C94.2509 41.0095 94.2509 40.9693 94.2402 40.9313C94.2229 40.8965 94.1929 40.8697 94.1565 40.8562C94.12 40.8427 94.0797 40.8436 94.0439 40.8588C93.9691 40.8862 93.9019 40.931 93.8477 40.9894C93.8 41.0376 93.7552 41.0885 93.7132 41.1418L93.5606 41.3196L93.1753 41.813C92.9209 42.1504 92.6702 42.4987 92.4267 42.8471C91.8234 43.7033 91.2456 44.5886 90.6895 45.4812C89.8405 46.8292 89.0605 48.2194 88.3527 49.6465C87.8223 50.7347 87.3752 51.8614 87.0153 53.0171C86.9354 53.2675 86.8445 53.5106 86.7827 53.7646C86.5029 54.7007 86.4557 54.9837 86.2158 55.1796C86.1678 55.2264 86.1168 55.27 86.0632 55.3102C85.9868 55.3537 85.9287 55.2703 85.8924 55.078C85.8709 54.9582 85.8588 54.8369 85.856 54.7152C85.8481 54.544 85.859 54.3724 85.8887 54.2036C85.936 53.9242 85.9759 53.6412 86.0305 53.3582C86.085 53.0752 86.1722 52.8031 86.2413 52.5237C86.3103 52.2443 86.423 51.9794 86.5174 51.7037C86.6119 51.4279 86.7101 51.1558 86.8264 50.891C87.2625 49.8025 87.7785 48.7648 88.3237 47.7307C89.1377 46.1996 90.039 44.7084 90.9839 43.2462L90.9984 43.2571Z" fill="#231F20"/>
<path d="M88.157 66.8299C89.1746 67.327 90.1958 67.8131 91.2279 68.2812C91.5914 68.4481 91.9948 68.586 92.3727 68.7565C93.6992 69.3479 95.0366 69.9321 96.3704 70.4727C96.97 70.7085 97.5842 70.9226 98.1875 71.1076C98.9725 71.3616 99.7865 71.4958 100.524 71.895C100.757 72.0147 100.681 72.178 100.415 72.3303C100.248 72.4197 100.071 72.4891 99.8883 72.5372C99.7791 72.5676 99.6671 72.5871 99.5539 72.5952C99.4313 72.5949 99.3092 72.579 99.1905 72.548C97.5305 72.1273 95.9153 71.5465 94.3679 70.8137C93.4412 70.3711 92.4309 70.0373 91.4605 69.6309C90.403 69.181 89.3527 68.7093 88.3133 68.2268L86.3908 67.3233L83.5016 65.9228C82.7566 65.56 81.9934 65.277 81.2447 64.9323C81.0766 64.8662 80.9138 64.7874 80.7577 64.6964C80.1872 64.3336 80.0309 64.1413 80.06 63.8293C80.06 63.764 80.06 63.695 80.06 63.6406C80.0854 63.4737 80.4234 63.4084 80.9104 63.5572C81.6216 63.7705 82.3144 64.0411 82.9819 64.3663C83.6615 64.6783 84.352 65.0049 85.0388 65.335C86.0637 65.8176 87.0849 66.3292 88.1207 66.8081L88.157 66.8299Z" fill="#231F20"/>
<path d="M84.3521 62.1133C84.4257 61.9398 84.5082 61.7702 84.5993 61.6052C84.6283 61.5472 84.6429 61.4782 84.6756 61.4202C84.7919 61.2133 84.9155 61.0138 85.0209 60.8106C85.0683 60.72 85.1037 60.6236 85.1263 60.5239C85.1363 60.3934 85.1815 60.268 85.2571 60.161C85.3189 60.0921 85.8169 60.3461 85.7805 60.5057C85.7111 60.7779 85.5874 61.0334 85.4171 61.2569C85.332 61.3977 85.2625 61.5474 85.2099 61.7032L84.9809 62.1931C84.9337 62.2911 84.8864 62.389 84.8464 62.4906C84.7826 62.6418 84.7327 62.7985 84.6974 62.9587C84.692 63.0215 84.692 63.0846 84.6974 63.1474C84.7048 63.2089 84.7048 63.271 84.6974 63.3325C84.6974 63.3615 84.6974 63.3869 84.6974 63.4123C84.6792 63.5139 84.6284 63.543 84.5302 63.5611H84.4648C84.4253 63.5626 84.3863 63.5514 84.3536 63.5292C84.3209 63.507 84.2962 63.4749 84.2831 63.4377C84.1629 63.1944 84.1357 62.9158 84.2067 62.6539C84.2456 62.4634 84.2966 62.2755 84.3594 62.0915L84.3521 62.1133Z" fill="#231F20"/>
<path d="M87.5496 62.8641C87.6113 62.7334 87.6986 62.6137 87.764 62.5012C87.7931 62.454 87.804 62.4032 87.8331 62.3597C87.9276 62.2 88.0293 62.044 88.1202 61.8843C88.1597 61.8129 88.1914 61.7375 88.2147 61.6593C88.2324 61.5562 88.2776 61.4597 88.3455 61.3799C88.3964 61.3291 88.7417 61.5723 88.709 61.6847C88.644 61.8877 88.5444 62.078 88.4146 62.2472C88.3466 62.3621 88.2906 62.4837 88.2474 62.6101C88.1856 62.7371 88.1202 62.8641 88.0548 62.9947L87.9239 63.2233C87.8579 63.3409 87.7985 63.462 87.7458 63.5862C87.7058 63.6805 87.684 63.7821 87.6513 63.8765C87.6424 63.8977 87.6351 63.9195 87.6295 63.9418C87.5932 64.018 87.5423 64.0252 87.466 64.0144H87.4151C87.3855 64.0048 87.3596 63.9865 87.3408 63.9618C87.322 63.9372 87.3111 63.9074 87.3097 63.8765C87.2931 63.68 87.3179 63.4822 87.3824 63.2959C87.4296 63.158 87.4878 63.0274 87.5423 62.8931L87.5496 62.8641Z" fill="#231F20"/>
<path d="M89.8952 64.2713C89.9497 64.177 90.0078 64.0863 90.0624 63.9883C90.0805 63.952 90.0842 63.9085 90.1023 63.8722L90.3313 63.5093C90.3611 63.4511 90.3819 63.3887 90.3931 63.3242C90.4149 63.2444 90.3931 63.1464 90.4985 63.0956C90.6039 63.0448 91.0255 63.3424 91.0001 63.4222C90.9516 63.5768 90.8683 63.7183 90.7566 63.8359C90.6976 63.9192 90.6545 64.0127 90.6294 64.1117C90.5821 64.2133 90.5312 64.3185 90.4767 64.4201L90.3858 64.6124C90.3386 64.7104 90.2732 64.8011 90.2332 64.8991C90.1932 64.9971 90.2041 65.0733 90.1605 65.1458C90.1542 65.1638 90.1457 65.1809 90.1351 65.1966C90.0914 65.2511 90.0478 65.2511 89.9424 65.1966L89.8734 65.164C89.808 65.1311 89.7583 65.0737 89.7352 65.0043C89.693 64.8582 89.7019 64.702 89.7607 64.5616C89.7939 64.4623 89.8365 64.3663 89.8879 64.275L89.8952 64.2713Z" fill="#231F20"/>
<path d="M95.8574 67.0656L95.9845 66.877C95.9845 66.8552 95.9845 66.8262 96.0136 66.8045C96.0681 66.7247 96.1335 66.6485 96.1843 66.5687C96.2073 66.5331 96.2187 66.4913 96.217 66.449C96.217 66.3946 96.1989 66.3293 96.2752 66.3003C96.3515 66.2713 96.8419 66.5107 96.831 66.5687C96.8199 66.6246 96.7978 66.6777 96.766 66.725C96.7342 66.7723 96.6933 66.8129 96.6458 66.8444C96.584 66.8879 96.5876 66.9604 96.5549 67.0221C96.5222 67.0838 96.4823 67.149 96.4459 67.2107C96.4096 67.2724 96.3987 67.2905 96.3805 67.3304C96.3624 67.3703 96.3188 67.4537 96.297 67.5154C96.2915 67.5697 96.2915 67.6243 96.297 67.6786C96.297 67.6786 96.297 67.704 96.297 67.7149C96.297 67.7258 96.2461 67.7584 96.1117 67.7149L96.0245 67.6931C95.946 67.6765 95.8741 67.6374 95.8174 67.5807C95.7844 67.5337 95.7613 67.4806 95.7494 67.4245C95.7375 67.3684 95.7372 67.3105 95.7484 67.2542C95.773 67.1847 95.8021 67.1169 95.8356 67.0511L95.8574 67.0656Z" fill="#231F20"/>
<path d="M70.2071 85.6567C70.5705 83.5958 70.814 81.5168 71.032 79.4306C71.1229 78.6686 71.141 77.903 71.2174 77.1411C71.4597 74.4513 71.6389 71.7531 71.7552 69.0464C71.8134 67.8455 71.8316 66.6372 71.8534 65.4435C71.8397 63.9022 71.9405 62.362 72.155 60.8356C72.224 60.3567 72.3839 60.4401 72.5184 60.8574C72.7227 61.5193 72.8292 62.2075 72.8346 62.9001C72.8346 64.4566 72.7837 66.0168 72.7474 67.5842C72.711 69.1516 72.6274 70.7227 72.5075 72.301C72.373 74.1877 72.3294 76.1615 72.1804 78.1062C72.0278 80.2324 71.7698 82.3513 71.4754 84.463C71.3882 85.1124 71.261 85.7583 71.1592 86.4077C71.0575 87.0572 70.9521 87.703 70.7958 88.3452C70.4324 90.2973 69.9417 92.242 69.393 94.1505L68.757 96.3529C68.5147 97.0785 68.2652 97.7981 68.0083 98.5117C67.9069 98.831 67.7856 99.1436 67.6449 99.4478C67.5105 99.7308 67.3905 99.9666 67.2815 100.173C67.1818 100.328 67.07 100.475 66.9472 100.612C66.8137 100.783 66.6435 100.922 66.4493 101.019C66.3857 101.055 66.3202 101.088 66.253 101.117C66.1658 101.117 66.1513 101.019 66.1731 100.779C66.215 100.426 66.2843 100.077 66.3802 99.7344C66.8963 98.5153 67.2997 97.1946 67.7721 95.9102C68.1355 94.5786 68.6007 93.2543 68.906 91.8756L69.2876 90.3517L69.6001 88.806C69.7019 88.2872 69.8255 87.7756 69.909 87.2568L70.1598 85.6966L70.2071 85.6567Z" fill="#231F20"/>
<path d="M59.9012 75.6246C60.3773 73.9374 60.9042 72.2684 61.4494 70.6103C61.6456 70.0044 61.8128 69.3948 62.0308 68.7962C62.7577 66.6736 63.5863 64.5873 64.3931 62.5011C64.7565 61.5759 65.0872 60.6325 65.4143 59.7073C65.8104 58.5063 66.2792 57.3235 66.748 56.1661C66.8934 55.8033 67.0351 55.8904 67.1115 56.2641C67.2003 56.8459 67.1619 57.4401 66.9988 58.0056C66.6645 59.2683 66.1884 60.4692 65.7523 61.6847C65.3162 62.9002 64.8437 64.1048 64.3604 65.313C63.7862 66.7643 63.3064 68.3027 62.8049 69.8084C62.2489 71.4666 61.7146 73.1283 61.2277 74.8046C60.9224 75.835 60.6413 76.8715 60.3845 77.914C59.9847 79.4855 59.668 81.0769 59.436 82.6816C59.2854 83.9043 59.2247 85.1364 59.2543 86.3679C59.2543 86.6364 59.2724 86.9013 59.2761 87.1698C59.2761 88.1712 59.2761 88.4868 59.0326 88.7336C58.9877 88.791 58.9391 88.8456 58.8872 88.8968C58.7382 89.0166 58.5056 88.6211 58.3639 87.8519L58.2331 86.992C58.2076 86.7053 58.2004 86.4115 58.1895 86.1176C58.1895 85.5334 58.1895 84.942 58.2331 84.3542C58.3115 83.1636 58.4608 81.9787 58.6801 80.8058C58.9926 79.0606 59.4069 77.3335 59.8721 75.6246H59.9012Z" fill="#231F20"/>
<path d="M75.6159 55.8002C75.5584 56.2349 75.4071 56.6521 75.1725 57.0229C75.1083 57.1234 75.0353 57.2181 74.9545 57.3059C74.8672 57.393 74.7764 57.4764 74.6855 57.5562C74.488 57.6994 74.2665 57.8063 74.0314 57.8719C73.8295 57.9347 73.6209 57.9736 73.4099 57.988C73.2137 58.0098 73.0247 58.017 72.8321 58.0207C72.4584 58.0269 72.0846 58.0112 71.7127 57.9735C71.1756 57.9328 70.6416 57.8589 70.1137 57.7522C69.1856 57.557 68.2824 57.2588 67.4207 56.8632C66.5141 56.4873 65.7204 55.8835 65.1166 55.1108C64.848 54.7272 64.7 54.2725 64.6914 53.8046C64.7083 53.3653 64.8005 52.9321 64.964 52.5238C65.1419 51.9964 65.4126 51.5049 65.7635 51.0725C65.9481 50.8411 66.178 50.6497 66.4392 50.5099C66.7004 50.3702 66.9874 50.2851 67.2826 50.2598C67.646 50.2598 67.5733 50.4448 67.3444 50.6552C67.1154 50.8657 66.8211 51.156 66.5012 51.5079C66.1953 51.8514 65.9562 52.2488 65.7962 52.6798C65.7054 52.9017 65.6301 53.1296 65.5709 53.3619C65.5382 53.4853 65.5345 53.5688 65.5127 53.6667C65.5054 53.7597 65.5054 53.8531 65.5127 53.9461C65.5743 54.3644 65.7784 54.7488 66.0906 55.0346C66.439 55.3727 66.8299 55.6642 67.2535 55.9017C68.3749 56.4745 69.5896 56.8431 70.8405 56.9902C71.5228 57.0997 72.214 57.1446 72.9047 57.1245C73.2212 57.1246 73.5359 57.0781 73.8387 56.9866C74.0929 56.8824 74.3034 56.6941 74.4348 56.4532C74.609 56.1032 74.7046 55.7193 74.7146 55.3285C74.7374 54.9102 74.7167 54.4907 74.6528 54.0767C74.6023 53.7537 74.5282 53.4347 74.4311 53.1225C74.4311 53.0935 74.4093 53.0644 74.3984 53.0318C74.3875 52.9991 74.3984 52.9991 74.3766 52.9919H74.3294C74.2684 53.0098 74.2066 53.0243 74.144 53.0354L73.8278 53.0826C73.7043 53.0971 73.5831 53.108 73.4644 53.1152C72.9794 53.1414 72.493 53.1256 72.0107 53.0681C70.9405 52.9742 69.8988 52.6735 68.9434 52.1828C68.7307 52.0758 68.5255 51.9546 68.3293 51.8199C67.6024 51.2829 67.4861 50.9927 67.5443 50.6952C67.5605 50.6238 67.5678 50.5506 67.5661 50.4775C67.5661 50.4448 67.537 50.4194 67.5661 50.3976C67.5951 50.3759 67.6242 50.3541 67.7078 50.3976C67.7785 50.3967 67.8488 50.409 67.915 50.4339C68.1266 50.5227 68.3277 50.6347 68.5146 50.7677C69.224 51.25 70.0053 51.6174 70.8296 51.8562C71.6746 52.0917 72.5515 52.1933 73.4281 52.1574C73.5335 52.1574 73.6352 52.1574 73.7334 52.1283C73.8781 52.1122 74.0214 52.0855 74.1622 52.0485C74.2182 52.0314 74.2752 52.018 74.333 52.0086L74.4856 52.034C74.5719 52.0541 74.6551 52.0858 74.7328 52.1283L74.8309 52.1719L74.8999 52.0413L74.9254 52.0666L74.9763 52.1102L75.078 52.2009L75.1289 52.2481L75.1689 52.317C75.2613 52.5349 75.3414 52.7578 75.4087 52.9846C75.4495 53.1195 75.4835 53.2563 75.5105 53.3946C75.5688 53.652 75.6125 53.9124 75.6413 54.1747C75.7121 54.7118 75.7121 55.2558 75.6413 55.7929L75.6159 55.8002Z" fill="#231F20"/>
<path d="M78.4328 48.648C77.2559 49.9047 75.6733 50.7075 73.9627 50.9156C72.3018 51.1384 70.6114 50.9129 69.0674 50.2625C67.9254 49.8082 66.9025 49.0997 66.0764 48.1908C64.6227 46.5726 64.0485 44.1199 64.8735 42.0735C65.2409 41.1008 65.7163 40.1722 66.2908 39.3051C66.8614 38.4344 67.4974 37.647 68.1261 36.8561C69.2592 35.4955 70.2836 34.0482 71.1898 32.5275C72.2982 30.5973 72.9015 28.3695 72.3745 26.2361C72.2146 25.5757 72.3927 25.5757 72.7561 26.1055C72.8685 26.263 72.9681 26.4292 73.0541 26.6025C73.1377 26.8093 73.2213 27.0452 73.3085 27.3282C73.3303 27.3935 73.3521 27.4624 73.3703 27.5314L73.403 27.7527C73.4248 27.9015 73.4466 28.0575 73.4648 28.2171C73.502 28.5567 73.4922 28.8998 73.4357 29.2367C73.2306 30.4548 72.8189 31.629 72.2183 32.7089C71.6408 33.7563 70.9861 34.7593 70.2594 35.7095C69.5544 36.6565 68.8057 37.5599 68.1116 38.4743C67.7482 38.9351 67.4138 39.385 67.1085 39.8566C66.8033 40.3283 66.5089 40.8181 66.2509 41.308C65.9282 41.894 65.6839 42.5198 65.524 43.1693C65.4512 43.4818 65.4218 43.8029 65.4368 44.1235C65.4367 44.2885 65.4476 44.4534 65.4695 44.6169C65.4834 44.782 65.5102 44.9458 65.5495 45.1068C65.854 46.4155 66.6154 47.5731 67.6973 48.3722C68.9056 49.2844 70.3434 49.8445 71.8512 49.9904C73.3526 50.1819 74.8765 49.9029 76.2123 49.1922C77.8513 48.325 78.8762 46.6198 79.4358 44.8383C79.6464 44.151 79.8043 43.4487 79.9083 42.7375C80.0065 42.0232 80.0575 41.3033 80.0609 40.5823C80.0776 39.1469 79.8616 37.7182 79.4213 36.3517C78.6747 34.2619 77.6932 32.2633 76.4957 30.3941C76.2377 29.9841 75.9651 29.5959 75.6853 29.1968C75.1729 28.4711 74.8022 28.0103 74.5696 27.6838C74.4072 27.4539 74.2638 27.2112 74.1408 26.9581C74.0927 26.8698 74.0368 26.786 73.9736 26.7078C73.9445 26.6497 73.9736 26.6134 74.0499 26.5989C74.1956 26.5848 74.3424 26.6099 74.4751 26.6715C74.9933 26.8908 75.449 27.2349 75.8016 27.6729C77.1527 29.2884 78.2933 31.0683 79.196 32.9702C79.6762 33.94 80.0867 34.9427 80.4243 35.9708C80.7688 37.0295 80.9836 38.1259 81.064 39.2362C81.1312 40.0597 81.1312 40.8872 81.064 41.7107C81.0118 42.5358 80.8902 43.355 80.7005 44.1598C80.5128 44.9767 80.2374 45.771 79.8792 46.529C79.5249 47.3097 79.0531 48.0316 78.48 48.6697L78.4328 48.648Z" fill="#231F20"/>
<path d="M74.4452 31.4184C74.5045 31.0587 74.5288 30.6942 74.5179 30.3298C74.5179 30.1955 74.4852 30.0649 74.4707 29.9306C74.436 29.4501 74.3508 28.9745 74.2163 28.5118C74.1841 28.4095 74.1465 28.309 74.1036 28.2106L73.9546 27.9276C73.7954 27.7079 73.6579 27.4734 73.5439 27.2273C73.5184 27.1438 73.6674 27.0313 73.8601 26.9805C73.9527 26.9462 74.053 26.9383 74.1499 26.9575C74.2468 26.9767 74.3364 27.0224 74.4089 27.0894C74.7996 27.5965 75.0503 28.1971 75.1358 28.8312C75.1758 29.194 75.3066 29.5569 75.3466 29.9524C75.3902 30.3698 75.3902 30.7906 75.3466 31.2079C75.3272 31.4649 75.2933 31.7205 75.2449 31.9736C75.194 32.1623 75.1467 32.3365 75.0886 32.536C75.0304 32.7356 74.965 32.8989 74.8887 33.084C74.8123 33.269 74.7833 33.367 74.7324 33.5085C74.6815 33.65 74.5979 33.777 74.5252 33.9113C74.4936 33.9707 74.4558 34.0267 74.4125 34.0782C74.249 34.2669 74.1545 34.2923 73.9982 34.2234C73.9633 34.2099 73.9293 34.1941 73.8964 34.1762C73.8457 34.1324 73.8103 34.0736 73.7953 34.0084C73.7803 33.9432 73.7864 33.8749 73.8128 33.8133C73.9 33.5847 73.9328 33.3343 74.0127 33.1203C74.0927 32.9062 74.1617 32.6848 74.209 32.4526C74.2946 32.1128 74.3625 31.7688 74.4125 31.422L74.4452 31.4184Z" fill="#231F20"/>
<path d="M76.5542 31.2766C76.6033 31.0453 76.6144 30.8075 76.5869 30.5726C76.5702 30.4855 76.5484 30.3995 76.5215 30.315C76.4442 29.99 76.3218 29.6773 76.158 29.3861C76.0839 29.2562 75.9961 29.1346 75.8963 29.0232C75.7471 28.884 75.624 28.7194 75.5329 28.5369C75.482 28.4136 75.9908 28.1741 76.1798 28.3374C76.5205 28.6301 76.7807 29.0048 76.9358 29.426C77.0158 29.6945 77.1793 29.9304 77.2448 30.217C77.327 30.5219 77.3553 30.8387 77.3284 31.1532C77.3153 31.3426 77.2873 31.5307 77.2448 31.7157C77.1724 31.9858 77.0801 32.2502 76.9685 32.5067C76.8886 32.699 76.8449 32.9095 76.765 33.1055C76.7468 33.149 76.7359 33.1925 76.7141 33.2361C76.6305 33.3885 76.5542 33.4066 76.3834 33.3413C76.3438 33.329 76.305 33.3145 76.267 33.2978C76.2094 33.2717 76.1612 33.2283 76.1293 33.1737C76.0974 33.1191 76.0833 33.0559 76.089 32.993C76.1498 32.6527 76.2336 32.3169 76.3397 31.9878C76.3671 31.8651 76.4011 31.744 76.4415 31.625C76.467 31.5125 76.4997 31.3963 76.5142 31.2621L76.5542 31.2766Z" fill="#231F20"/>
<path d="M72.5774 51.5007C71.9835 51.4418 71.3974 51.3201 70.8292 51.1378C70.6256 51.0689 70.4112 51.0326 70.2149 50.9455C69.8667 50.8055 69.528 50.6431 69.2009 50.4593C69.0337 50.3758 68.8774 50.2778 68.7175 50.1835L68.4812 50.0347L68.3722 49.9549C68.3011 49.9 68.2271 49.8491 68.1505 49.8025C68.1323 49.8025 68.1505 49.8025 68.1287 49.8315V49.8787L68.1105 49.9766C68.1002 50.0245 68.0929 50.073 68.0887 50.1218C68.0828 50.1845 68.0706 50.2465 68.0523 50.3069C68.0053 50.505 67.9307 50.6955 67.8306 50.8729C67.6961 51.0943 66.8892 50.5101 67.0128 50.0746L67.2673 49.211C67.369 48.8772 67.4744 48.5433 67.5798 48.2095L68.1904 48.6667L68.772 49.084L68.9137 49.1747L68.9973 49.2328L69.1354 49.3307L69.4117 49.5303C69.826 49.7838 70.2721 49.9815 70.7383 50.1182C71.2413 50.2966 71.7596 50.429 72.2867 50.5137C72.6116 50.5603 72.9398 50.5798 73.268 50.5717C73.389 50.5804 73.5105 50.5804 73.6315 50.5717C73.766 50.5717 73.8423 50.5536 74.0676 50.5173C74.4311 50.4484 74.7946 50.3359 75.1398 50.2706C75.1108 50.55 75.0999 50.8149 75.089 51.1052V51.5515V51.8744C75.089 51.9615 75.089 52.0486 75.089 52.1393C75.0672 52.4659 74.9908 52.5603 74.7255 52.6002C74.6658 52.6142 74.605 52.6227 74.5438 52.6256C74.3439 52.6256 74.1803 52.4841 74.1621 52.2373C74.1112 51.9216 74.1294 51.341 74.0858 51.4789C74.0804 51.4753 74.0741 51.4734 74.0676 51.4734C74.0612 51.4734 74.0548 51.4753 74.0495 51.4789H73.984C73.8277 51.4789 73.6751 51.5261 73.5188 51.5333C73.2113 51.5497 72.9031 51.5497 72.5956 51.5333L72.5774 51.5007Z" fill="#231F20"/>
<path d="M47.6969 57.4325C48.3983 58.7713 49.0815 60.1065 49.7175 61.4925C49.7975 61.6667 49.8738 61.8554 49.9501 62.0295C49.9925 62.135 50.0289 62.2429 50.0591 62.3524C50.0944 62.464 50.1211 62.578 50.1391 62.6935C50.1735 62.9204 50.1808 63.1506 50.1609 63.3792L50.1282 63.713L50.0555 64.0287C49.8351 64.8174 49.4649 65.5564 48.9652 66.2057C48.2915 67.1237 47.5053 67.9537 46.6248 68.6765C45.096 69.9375 43.3794 70.9524 41.5369 71.6844C40.6024 72.057 39.6262 72.3153 38.6295 72.4536C37.6121 72.6084 36.5724 72.5214 35.5949 72.1996C35.377 72.1163 35.1646 72.0194 34.9589 71.9093C34.7591 71.7969 34.5701 71.6517 34.3775 71.5211C34.1849 71.3905 34.014 71.2054 33.8723 71.0349C33.7306 70.8644 33.5888 70.6721 33.4544 70.5088C32.9347 69.8086 32.455 69.101 31.9752 68.3972C30.7723 66.583 29.5403 64.7507 28.5118 62.8241C28.1993 62.2182 28.3774 62.2146 28.8498 62.5955C29.6017 63.2268 30.2536 63.9681 30.7832 64.7943L32.633 67.5663C33.2472 68.477 33.8614 69.4312 34.501 70.2585C34.6493 70.4407 34.8121 70.6106 34.988 70.7664C35.1718 70.9064 35.369 71.0279 35.5768 71.1293C35.7897 71.2371 36.0124 71.3246 36.2418 71.3905C36.3618 71.4231 36.4817 71.4413 36.6053 71.4703C36.7245 71.4992 36.8462 71.5174 36.9687 71.5247C37.482 71.5809 37.9999 71.5809 38.5132 71.5247C39.0424 71.4545 39.5658 71.3466 40.0796 71.2018C41.3603 70.8333 42.5834 70.2887 43.7138 69.5836C44.8614 68.8804 45.9278 68.053 46.8937 67.1164C47.4201 66.6143 47.8938 66.06 48.3074 65.4619C48.718 64.8999 49.0098 64.2605 49.1651 63.5824C49.2228 63.2728 49.2104 62.9542 49.1288 62.65C49.084 62.4853 49.0244 62.325 48.9507 62.171L48.7218 61.6631C48.4019 60.9882 48.064 60.3134 47.7223 59.6421C46.8756 57.9949 46.0033 56.3549 45.0621 54.7657C44.8804 54.4682 44.6987 54.167 44.5133 53.8804L44.3716 53.6627L44.2444 53.4813C44.1968 53.402 44.1367 53.3309 44.0663 53.2709C43.9774 53.3028 43.8911 53.3416 43.8083 53.387L43.3467 53.6155L42.4127 54.0909C41.1698 54.7476 39.9342 55.4224 38.7204 56.1118C36.8342 57.2003 35.0244 58.3105 33.2145 59.4607L32.0261 60.2589C30.5397 61.2059 30.0491 61.4635 29.5948 61.4708C29.4934 61.4815 29.391 61.4815 29.2896 61.4708C29.0352 61.4163 29.5258 60.8467 30.5833 60.0739C33.8802 57.7972 37.3043 55.7099 40.8391 53.8224C41.5042 53.4595 42.1729 53.0967 42.8525 52.7339L43.3976 52.4545C43.5684 52.3747 43.7392 52.284 43.9064 52.2259L43.9718 52.2041H44.03C44.0696 52.2058 44.1088 52.2131 44.1463 52.2259L44.248 52.2586H44.2989H44.3207C44.3643 52.088 44.3207 52.2114 44.3425 52.1751L44.368 52.1933L44.7532 52.4908C44.883 52.6137 44.9966 52.7527 45.0912 52.9044C45.2111 53.0713 45.3165 53.2346 45.4219 53.4015C46.2577 54.7149 46.9882 56.0429 47.7114 57.3926L47.6969 57.4325Z" fill="#231F20"/>
<path d="M39.9977 50.4419L39.358 49.0339L39.1145 48.5259C38.8383 47.9272 38.5584 47.3248 38.2567 46.737C38.1259 46.4757 37.9805 46.2217 37.8388 45.9677C37.6498 45.6448 37.4535 45.3254 37.279 44.9952C37.17 44.7884 37.468 44.9517 37.7115 45.3109C38.133 45.9533 38.5165 46.6197 38.8601 47.3067C39.0673 47.7204 39.3071 48.1377 39.5289 48.555L40.2558 49.9375L40.6956 50.783C40.9209 51.2075 41.1499 51.6357 41.3971 52.0457C41.5933 52.3614 41.8187 52.6517 42.0404 52.942L42.1894 53.1344C42.3675 53.3775 42.382 53.4791 42.2657 53.6315C42.2367 53.6678 42.2112 53.7041 42.1821 53.7367C42.0804 53.8347 41.9168 53.7948 41.7678 53.6206C41.3337 53.0806 40.9675 52.4896 40.6774 51.8607C40.4448 51.3926 40.2267 50.9172 40.0014 50.4491L39.9977 50.4419Z" fill="#231F20"/>
<path d="M37.5075 50.6439C37.235 50.0344 36.9769 49.4611 36.6753 48.8769C36.5663 48.6665 36.4354 48.4669 36.3119 48.2529C35.9266 47.5272 35.5305 46.7616 35.1307 46.0178C34.9527 45.6877 34.7673 45.3648 34.5711 45.0418C34.3144 44.6357 34.0954 44.207 33.9169 43.7611C33.8115 43.4781 34.393 43.6087 34.6765 44.0695C35.1635 44.9003 35.6686 45.7167 36.1302 46.5875C36.4027 47.11 36.7589 47.6107 37.0642 48.1295C37.3694 48.6484 37.7219 49.2833 38.0272 49.8783C38.2089 50.2412 38.3906 50.604 38.5905 50.9668C38.8813 51.5074 39.1684 52.0553 39.4773 52.5887C39.7171 53.0023 39.9933 53.3869 40.2441 53.7969C40.2986 53.8876 40.3604 53.9747 40.4113 54.069C40.5494 54.4318 40.5239 54.5878 40.3459 54.7511C40.3102 54.7882 40.2726 54.8233 40.2332 54.8563C40.106 54.947 39.8916 54.8563 39.7026 54.6495C39.5617 54.4939 39.4397 54.3222 39.3392 54.1379C39.2265 53.9602 39.1175 53.7751 39.0121 53.5901C38.8013 53.2272 38.5978 52.8354 38.3906 52.4472C38.0854 51.8666 37.7849 51.2752 37.4894 50.6729L37.5075 50.6439Z" fill="#231F20"/>
<path d="M35.9411 52.168C35.7158 51.5948 35.4687 51.0251 35.1961 50.47C35.1016 50.2632 34.9817 50.0709 34.8836 49.8677C34.5201 49.142 34.1567 48.4418 33.7569 47.7415C33.5789 47.4331 33.3935 47.1284 33.2009 46.8308C32.9469 46.4526 32.7128 46.0614 32.4995 45.6589C32.3687 45.4049 32.8266 45.5428 33.1319 45.9709C33.6714 46.7312 34.17 47.5197 34.6255 48.3329C34.8945 48.8228 35.2252 49.3089 35.5123 49.8096C35.7994 50.3104 36.1228 50.9235 36.399 51.4932C36.5698 51.856 36.7297 52.2188 36.886 52.5599C37.1259 53.1041 37.3294 53.6484 37.5474 54.2108C37.7146 54.6353 37.9109 55.0489 38.0744 55.4734C38.1155 55.5646 38.1518 55.6579 38.1834 55.7528C38.2346 55.878 38.2546 56.0137 38.2416 56.1483C38.2067 56.2449 38.1384 56.326 38.049 56.3768C38.0071 56.4084 37.9634 56.4374 37.9181 56.4639C37.8795 56.4807 37.8373 56.4875 37.7954 56.4837C37.7535 56.4799 37.7132 56.4656 37.6783 56.4421C37.5748 56.3855 37.493 56.2962 37.4457 56.1882C37.1132 55.4465 36.822 54.687 36.5735 53.9132C36.3772 53.3327 36.1628 52.7486 35.9266 52.1753L35.9411 52.168Z" fill="#231F20"/>
<path d="M33.0595 53.7896C32.8596 53.2598 32.6525 52.7301 32.4163 52.2076C32.3327 52.019 32.22 51.8448 32.1364 51.6525C31.8275 50.9849 31.544 50.2992 31.1988 49.6424C31.0498 49.3486 30.8826 49.0656 30.7154 48.7862C30.4826 48.4386 30.2749 48.0748 30.094 47.6977C30.0431 47.578 30.1376 47.538 30.283 47.578C30.4835 47.6347 30.6598 47.7558 30.7845 47.9226C31.3137 48.6076 31.7842 49.3358 32.1909 50.0996C32.4272 50.5604 32.747 51.003 32.9941 51.4747C33.2412 51.9464 33.5283 52.5197 33.7718 53.053L34.2079 54.0435C34.4114 54.5515 34.6186 55.0558 34.8221 55.5602C34.9893 55.9448 35.1855 56.2858 35.3963 56.6813C35.4399 56.7611 35.4872 56.841 35.5235 56.9244C35.5858 57.0345 35.6089 57.1624 35.5889 57.2872C35.5421 57.3935 35.4617 57.4814 35.36 57.5376C35.3055 57.5739 35.2546 57.6138 35.2001 57.6428C35.1085 57.688 35.0029 57.6958 34.9057 57.6646C34.7906 57.6355 34.6907 57.5643 34.6259 57.465C34.2311 56.8181 33.9012 56.1339 33.641 55.4223C33.4338 54.8926 33.2485 54.3338 33.0341 53.8222L33.0595 53.7896Z" fill="#231F20"/>
<path d="M30.783 54.2106L29.9544 52.3964C29.8526 52.1787 29.729 51.9683 29.6273 51.7506L28.5588 49.4285C28.3953 49.0911 28.2172 48.7536 28.0355 48.4271C27.8029 48.0098 27.5594 47.5926 27.3595 47.1572C27.3014 47.0193 27.3922 46.9867 27.5449 47.0411C27.7607 47.1294 27.9453 47.2797 28.0755 47.4729C28.6335 48.2897 29.1315 49.1458 29.5655 50.0344C29.809 50.5787 30.1397 51.1011 30.4195 51.6381L31.3354 53.4196L31.8914 54.5081C32.1785 55.0596 32.4547 55.622 32.76 56.159C32.9998 56.5726 33.2833 56.9536 33.5522 57.349C33.6143 57.4332 33.6701 57.5217 33.7194 57.6139C33.8975 57.9586 33.8939 58.1001 33.7194 58.2888C33.6823 58.3337 33.6422 58.3761 33.5995 58.4158C33.4541 58.5355 33.2361 58.4702 33.0398 58.2525C32.8865 58.0955 32.7455 57.9269 32.6182 57.7481C32.4947 57.5667 32.3784 57.3853 32.2548 57.1894C32.0331 56.8084 31.826 56.4129 31.6261 56.0102C31.3245 55.4152 31.0446 54.8092 30.7539 54.1961L30.783 54.2106Z" fill="#231F20"/>
<path d="M28.7416 56.4127C28.4872 55.8685 28.2219 55.3242 27.9384 54.7945C27.8366 54.6022 27.7131 54.4317 27.6113 54.2248C27.2479 53.5282 26.9208 52.8243 26.5574 52.135C26.3938 51.8302 26.2194 51.5327 26.045 51.2351C25.8126 50.8596 25.6027 50.4707 25.4162 50.0705C25.3617 49.9435 25.438 49.9217 25.5689 49.9798C25.7543 50.0744 25.9139 50.2126 26.0341 50.3825C26.5563 51.1112 27.0415 51.8656 27.4877 52.6429C27.7458 53.1218 28.1019 53.5645 28.3818 54.0398C28.6616 54.5151 29.0032 55.0956 29.3012 55.629L29.8391 56.6231C30.108 57.1275 30.3588 57.6463 30.6313 58.1434C30.8421 58.5316 31.1002 58.8872 31.3109 59.2754C31.3618 59.3589 31.4127 59.4387 31.4563 59.5258C31.5268 59.6396 31.5563 59.7739 31.5399 59.9067C31.5156 60.0092 31.4549 60.0995 31.3691 60.1607C31.3255 60.2006 31.2855 60.2405 31.2419 60.2732C31.0929 60.3712 30.8785 60.3022 30.6895 60.1063C30.4466 59.7949 30.2268 59.4663 30.0317 59.123C29.8391 58.7602 29.6683 58.3974 29.4975 58.0345C29.2394 57.4939 28.985 56.9461 28.7125 56.4091L28.7416 56.4127Z" fill="#231F20"/>
<path d="M25.9752 57.45C25.6772 56.9324 25.3853 56.4099 25.0994 55.8826C24.9904 55.6903 24.8668 55.5198 24.7687 55.3166C24.4052 54.6381 24.0927 53.9342 23.762 53.2412C23.6166 52.9328 23.4531 52.6317 23.2932 52.3378C23.0656 51.9675 22.8768 51.5748 22.7299 51.1659C22.6463 50.9046 23.3113 50.9554 23.5694 51.3763C24.0182 52.1302 24.4282 52.9064 24.7977 53.702C25.0194 54.1846 25.332 54.6381 25.6009 55.1062C25.8698 55.5742 26.1933 56.1366 26.5022 56.6446C26.6912 56.9566 26.8656 57.2723 27.08 57.577C27.378 58.0451 27.676 58.5168 28.0104 58.9558C28.2721 59.2932 28.5592 59.6052 28.8354 59.9245C28.8986 59.9926 28.9581 60.064 29.0134 60.1386C29.2133 60.4252 29.2279 60.5522 29.1079 60.7373C29.0855 60.7799 29.0587 60.82 29.028 60.857C28.9262 60.9767 28.7336 60.9441 28.5228 60.7808C27.8973 60.2774 27.3595 59.6742 26.931 58.9957C26.5894 58.4986 26.2732 57.9798 25.9571 57.4646L25.9752 57.45Z" fill="#231F20"/>
<path d="M37.8557 43.5693C37.7357 43.435 37.6158 43.3116 37.4922 43.181L37.1906 42.8799C37.1906 42.8799 37.1652 42.8581 37.1542 42.8581H37.0707H36.9398C36.7618 42.8581 36.5764 42.8363 36.4201 42.8327C35.7603 42.8072 35.1055 42.9575 34.5231 43.2681C34.3002 43.385 34.0863 43.5184 33.8834 43.6672L33.5673 43.8958L33.4074 44.0119L33.2148 44.1425C32.762 44.4068 32.2719 44.6012 31.7611 44.7194C31.3408 44.8114 30.9391 44.9733 30.5727 45.1984C30.398 45.3195 30.2371 45.4594 30.093 45.6156L29.6169 46.1091C29.4358 46.2962 29.2388 46.4674 29.0281 46.6206C28.8089 46.7701 28.5721 46.8919 28.3231 46.9835C27.4618 47.2991 26.6041 47.3463 25.9136 47.6837C25.0034 48.1624 24.2333 48.8687 23.6785 49.7337C23.4859 50.0022 23.4205 49.9224 23.4569 49.614C23.5314 49.1075 23.7285 48.6268 24.0311 48.2135C24.2138 47.9728 24.4168 47.7482 24.638 47.5422C24.7506 47.437 24.8706 47.339 25.0014 47.2447C25.1304 47.158 25.2638 47.0781 25.4012 47.0052C25.932 46.7393 26.497 46.5476 27.0802 46.4356C27.5569 46.3451 28.0158 46.1785 28.4394 45.9422C28.8523 45.6364 29.2345 45.2913 29.5805 44.9117C29.7178 44.7828 29.8622 44.6617 30.013 44.5489C30.1699 44.4343 30.3365 44.3336 30.5109 44.2477C30.8409 44.0995 31.1824 43.9781 31.5321 43.8849C31.8374 43.7977 32.1352 43.6861 32.4225 43.5511C32.5496 43.4862 32.6712 43.411 32.7859 43.3262L33.1966 43.0286C34.1403 42.2627 35.3321 41.8678 36.5473 41.9184C36.7436 41.9184 36.9326 41.9184 37.1252 41.9474L37.5177 41.9801C37.6231 42.0635 37.7503 42.1615 37.8375 42.2377C38.5043 42.8911 39.1283 43.5868 39.7055 44.3203C40.5886 45.4088 41.3954 46.5517 42.1658 47.7055C42.7796 48.5855 43.3462 49.4975 43.863 50.4376C43.9757 50.648 44.0883 50.8512 44.1828 51.0725C44.2773 51.2939 44.3246 51.4571 44.3755 51.6023C44.4086 51.7276 44.4341 51.8548 44.4518 51.9832C44.4626 52.0712 44.4626 52.1601 44.4518 52.2481C44.4378 52.3191 44.4133 52.3876 44.3791 52.4513C44.3536 52.5057 44.3355 52.571 44.3137 52.6037C44.2592 52.7053 43.9321 52.4404 43.6522 51.878C43.1689 51.0834 42.7182 50.2562 42.1986 49.4398C41.6789 48.6235 41.1374 47.8143 40.5668 47.0161C39.7153 45.8285 38.8019 44.6865 37.8302 43.5947L37.8557 43.5693Z" fill="#231F20"/>
<path d="M36.7843 72.44H36.7625L36.737 72.4145H36.7188C36.7315 72.3544 36.7473 72.2949 36.7661 72.2363C36.7661 72.2363 36.788 72.2545 36.7952 72.28C36.8025 72.3054 36.7952 72.28 36.8135 72.2982L36.8353 72.32H36.8572C36.8572 72.32 36.8572 72.32 36.8572 72.36C36.8585 72.3769 36.8585 72.3939 36.8572 72.4109C36.8533 72.4183 36.8476 72.4245 36.8406 72.429C36.8335 72.4335 36.8254 72.436 36.8171 72.4363H36.7952L36.7843 72.44Z" fill="#231F20"/>
<path d="M50.8522 87.8335C49.9363 86.1862 49.035 84.5354 48.1156 82.9099C47.7776 82.3185 47.3887 81.7525 47.0544 81.1683C46.4475 80.1343 45.8297 79.1111 45.1791 78.1097C44.5714 77.1159 43.8494 76.1966 43.0277 75.3703C42.3008 74.6455 41.4614 74.0427 40.5419 73.5852C39.9629 73.2987 39.3533 73.0784 38.7248 72.9285C38.4195 72.8414 38.1069 72.8051 37.7908 72.7435L37.3183 72.6927L36.835 72.602C36.4243 72.5149 36.4388 72.3806 36.7804 72.0867C37.0472 71.8442 37.366 71.6658 37.7125 71.5652C38.0589 71.4646 38.4238 71.4444 38.7793 71.5062L39.3607 71.6078C39.5497 71.6477 39.7242 71.7058 39.924 71.7529C40.2996 71.855 40.6646 71.9923 41.0143 72.1629C41.7043 72.4892 42.3573 72.8881 42.9623 73.353C44.1458 74.2651 45.1679 75.3689 45.9859 76.6185L46.3494 77.1736L46.691 77.7251L47.3924 78.8136C47.8576 79.5392 48.33 80.2867 48.7588 81.0413C49.7146 82.6922 50.605 84.3685 51.5099 86.0302C52.066 87.0534 52.6002 88.0766 53.1962 89.0816C54.0575 90.6127 54.9915 92.1185 55.9473 93.5879C56.6924 94.7272 57.4919 95.8012 58.266 96.9042C58.4368 97.1473 58.604 97.3831 58.7639 97.6298C59.349 98.5696 59.4689 98.9106 59.3017 99.2952C59.2784 99.377 59.2493 99.457 59.2145 99.5347C59.1164 99.7234 58.6112 99.502 58.1242 98.8634C57.739 98.3918 57.3356 97.9274 56.9758 97.4121C56.616 96.8969 56.249 96.4071 55.8856 95.8919C55.1587 94.8578 54.4755 93.7948 53.785 92.7244C52.7565 91.1388 51.7825 89.459 50.834 87.8262L50.8522 87.8335Z" fill="#231F20"/>
<path d="M57.0151 86.7456C55.8667 85.0089 54.734 83.2588 53.6171 81.4955C53.2137 80.846 52.7776 80.2219 52.3851 79.5688C51.691 78.4187 51.0114 77.2613 50.3681 76.0784C50.0447 75.487 49.7249 74.892 49.4269 74.2861C49.1091 73.6831 48.8252 73.0629 48.5765 72.4284C48.0972 71.2786 47.8502 70.0455 47.8496 68.8001C47.8638 68.0107 47.9748 67.2259 48.1803 66.4635C48.4093 65.6544 48.849 65.0122 49.0707 64.3664C49.1943 63.9636 49.3723 64.0035 49.5032 64.4534C49.5674 64.7575 49.5809 65.0701 49.5432 65.3786C49.5017 65.7617 49.4386 66.142 49.3542 66.5179C49.3178 66.6667 49.2997 66.859 49.2633 67.0368C49.227 67.2146 49.1906 67.3996 49.1543 67.5701C49.0904 67.9192 49.048 68.2718 49.0271 68.626C48.981 69.3246 49.0373 70.0262 49.1943 70.7086C49.367 71.4141 49.6029 72.1026 49.8993 72.7658C50.0447 73.1069 50.2155 73.4516 50.379 73.7999C50.5426 74.1482 50.6988 74.4965 50.8769 74.8376C51.6837 76.4993 52.7485 78.103 53.7443 79.7321C54.8346 81.51 55.9757 83.2697 57.1205 85.0222L59.2574 88.2441C60.3477 89.8623 61.438 91.5095 62.5282 93.0878C63.3895 94.3251 64.2799 95.5079 65.1449 96.7161C65.3339 96.9882 65.5265 97.2458 65.7118 97.518C66.3987 98.5411 66.544 98.9148 66.4387 99.2849C66.4248 99.3695 66.4017 99.4522 66.3696 99.5316C66.2497 99.7421 65.8317 99.4155 65.3011 98.6971C63.7094 96.571 62.0958 94.2779 60.4967 91.9558C59.3047 90.236 58.1272 88.4908 56.9497 86.7528L57.0151 86.7456Z" fill="#231F20"/>
<path d="M67.2566 53.7616L67.3366 53.6126C67.3366 53.5945 67.3366 53.5727 67.3585 53.5545C67.3803 53.5363 67.4385 53.4273 67.4713 53.3692C67.4848 53.3406 67.4934 53.3099 67.4967 53.2784C67.4967 53.2384 67.4967 53.1912 67.5404 53.1658C67.5841 53.1403 67.857 53.2748 67.8461 53.3184C67.8249 53.4023 67.7793 53.4781 67.7151 53.5363C67.675 53.5763 67.6714 53.6308 67.6496 53.6744L67.5695 53.827L67.5222 53.9214C67.4986 53.9673 67.4779 54.0146 67.4604 54.0631C67.4568 54.1042 67.4568 54.1455 67.4604 54.1866V54.212C67.4604 54.2447 67.4276 54.2484 67.3585 54.212H67.3112C67.2896 54.2089 67.269 54.2011 67.2507 54.1892C67.2325 54.1773 67.2171 54.1615 67.2056 54.143C67.1841 54.0658 67.1841 53.9841 67.2056 53.9069C67.2056 53.8524 67.2493 53.8015 67.2711 53.7507L67.2566 53.7616Z" fill="#231F20"/>
<path d="M68.8275 54.2268L68.9295 54.0305C68.9295 54.005 68.9295 53.9796 68.9586 53.9578C69.0096 53.8778 69.0678 53.8014 69.1188 53.7251C69.1417 53.6926 69.1567 53.6553 69.1625 53.616C69.1625 53.5651 69.1625 53.507 69.2353 53.4815C69.3082 53.4561 69.6286 53.6778 69.5995 53.7251C69.5696 53.8193 69.511 53.9019 69.432 53.9614C69.3774 54.0014 69.3774 54.0632 69.3555 54.1177C69.3337 54.1722 69.2973 54.234 69.2681 54.2922C69.239 54.3504 69.2353 54.3649 69.2244 54.4013C69.1964 54.4562 69.1767 54.515 69.1662 54.5758C69.1688 54.623 69.1787 54.6696 69.1953 54.7139C69.1953 54.7139 69.1953 54.7357 69.1953 54.743C69.1953 54.7503 69.1662 54.7902 69.0642 54.7939H68.995C68.9651 54.7978 68.9346 54.7954 68.9057 54.7866C68.8768 54.7778 68.8502 54.7629 68.8275 54.743C68.7644 54.6542 68.7348 54.5461 68.7438 54.4376C68.7468 54.3627 68.7629 54.2889 68.7911 54.2195L68.8275 54.2268Z" fill="#231F20"/>
<path d="M72.4909 54.8829C72.4944 54.8357 72.4944 54.7884 72.4909 54.7412C72.4909 54.7412 72.4909 54.7121 72.4909 54.694C72.4946 54.6286 72.4946 54.5631 72.4909 54.4978C72.4856 54.472 72.4714 54.4489 72.4508 54.4324C72.4217 54.4106 72.3708 54.4033 72.4072 54.3416C72.4435 54.2798 72.9166 54.0219 72.953 54.0655C72.9826 54.1036 73.0019 54.1487 73.0089 54.1965C73.0159 54.2442 73.0105 54.2929 72.993 54.3379C72.9712 54.4033 73.0148 54.4397 73.0221 54.4905C73.0275 54.5485 73.0275 54.6069 73.0221 54.6649C73.0221 54.7012 73.0221 54.7376 73.0221 54.7703C73.0166 54.821 73.0166 54.8721 73.0221 54.9228C73.0444 54.96 73.0713 54.9942 73.1022 55.0246C73.1022 55.0246 73.1204 55.0246 73.124 55.05C73.1276 55.0754 73.0985 55.0972 72.9639 55.1263L72.8693 55.1445C72.7925 55.1605 72.7132 55.1605 72.6364 55.1445C72.5974 55.136 72.5607 55.1193 72.5287 55.0955C72.4967 55.0716 72.4701 55.0413 72.4508 55.0064C72.429 54.9701 72.4508 54.9228 72.4508 54.8793L72.4909 54.8829Z" fill="#231F20"/>
<path d="M70.949 39.6179C70.7227 40.0014 70.5212 40.3989 70.3457 40.8081C70.2861 40.9599 70.2352 41.115 70.193 41.2725C69.9944 41.8165 69.8959 42.3918 69.9023 42.9708C69.9094 43.2304 69.9385 43.489 69.9895 43.7437L70.1058 44.2299C70.1603 44.3896 70.2039 44.5492 70.2439 44.7162C70.2657 44.8214 70.2039 44.8359 70.1058 44.7815C69.9537 44.6959 69.828 44.5704 69.7424 44.4186C69.5729 44.0871 69.4447 43.7361 69.3607 43.3735C69.3149 43.1909 69.2941 43.0029 69.2989 42.8147C69.2886 42.6267 69.2983 42.4382 69.328 42.2523C69.3646 41.7986 69.4302 41.3477 69.5243 40.9024C69.5897 40.6629 69.6697 40.427 69.7569 40.1948C69.8517 39.9668 69.9585 39.744 70.0767 39.5271C70.2148 39.255 70.3748 39.001 70.5311 38.7433C70.7746 38.3623 71.0399 37.9922 71.3089 37.6366C71.516 37.3608 71.6905 37.0633 71.9049 36.7947C71.9507 36.7358 72.0005 36.68 72.054 36.6278C72.2611 36.4319 72.3593 36.3992 72.501 36.4464C72.5332 36.4539 72.5647 36.4636 72.5955 36.4754C72.6864 36.5226 72.6791 36.6677 72.5955 36.8637L72.4102 37.2955C72.3338 37.4298 72.2539 37.5604 72.1739 37.691C72.0213 37.9559 71.8541 38.2172 71.6941 38.4784C71.4325 38.8413 71.1853 39.2296 70.9672 39.6215L70.949 39.6179Z" fill="#231F20"/>
<path d="M73.002 41.7551C72.8535 42.0659 72.7319 42.3889 72.6385 42.7203C72.6021 42.8437 72.5949 42.9671 72.5658 43.0832C72.4602 43.5178 72.4125 43.9643 72.424 44.4113C72.4326 44.6117 72.4593 44.8109 72.504 45.0064C72.5549 45.2568 72.6421 45.4963 72.6785 45.7575C72.7039 45.9172 72.3514 45.8265 72.2278 45.5326C72.0292 45.0046 71.945 44.4407 71.9806 43.8779C71.9806 43.7037 71.9988 43.5368 72.0061 43.3662C72.0127 43.1945 72.0321 43.0235 72.0642 42.8546C72.1337 42.4827 72.2383 42.1182 72.3768 41.766C72.4568 41.5483 72.5513 41.3378 72.6458 41.1346C72.802 40.8225 72.9729 40.525 73.1364 40.2238C73.2636 39.9952 73.3618 39.7521 73.4999 39.5235C73.529 39.4727 73.5544 39.4255 73.5871 39.3747C73.7071 39.1969 73.7761 39.1606 73.8997 39.1896C73.9283 39.1918 73.9564 39.1979 73.9833 39.2078C74.0705 39.2404 74.0851 39.3566 74.0342 39.5053C73.8692 39.9466 73.6762 40.3768 73.4563 40.7935C73.2964 41.1056 73.1655 41.4285 73.0201 41.7442L73.002 41.7551Z" fill="#231F20"/>
<path d="M33.0845 64.2752C33.1526 64.4916 33.2805 64.6843 33.4535 64.8313C33.6264 64.9783 33.8374 65.0736 34.0622 65.1062C34.3051 65.1361 34.5505 65.0757 34.7517 64.9365C34.9528 64.7973 35.0955 64.589 35.1526 64.3514C35.2008 64.1777 35.1779 63.992 35.089 63.8352C35 63.6783 34.8523 63.5632 34.6783 63.515C34.5043 63.4669 34.3183 63.4898 34.1612 63.5786C34.0041 63.6674 33.8887 63.8149 33.8405 63.9886C33.8114 64.0974 33.8696 63.9341 33.8987 63.9015C33.9277 63.8688 34.0222 63.7963 34.0041 63.8071C33.9859 63.818 34.0041 63.8071 34.0913 63.7709H34.2076C34.0949 63.7709 34.353 63.7999 34.2694 63.7709C34.1567 63.7418 34.2476 63.7709 34.2694 63.7709C34.3276 63.7963 34.3312 63.7963 34.2694 63.7709L34.3494 63.8325C34.3331 63.8126 34.3148 63.7944 34.2948 63.7781C34.3566 63.8616 34.3712 63.8797 34.3457 63.8362C34.3203 63.7926 34.3457 63.8144 34.3748 63.9087C34.3232 63.7368 34.207 63.5913 34.0506 63.5028C33.8942 63.4142 33.7095 63.3894 33.5352 63.4334C33.3627 63.4834 33.2165 63.5985 33.1276 63.7543C33.0387 63.9101 33.0141 64.0944 33.0591 64.268L33.0845 64.2752Z" fill="#231F20"/>
<path d="M43.0056 59.1303C43.0048 59.2991 43.0419 59.466 43.1143 59.6186C43.1866 59.7712 43.2923 59.9056 43.4236 60.012C43.5649 60.11 43.7266 60.1749 43.8965 60.2019C44.0664 60.2289 44.2402 60.2173 44.405 60.1681C44.5788 60.1189 44.7262 60.0034 44.8153 59.8465C44.9045 59.6896 44.9281 59.504 44.8811 59.3298C44.8287 59.1584 44.7124 59.0135 44.5562 58.9251C44.4 58.8366 44.2158 58.8114 44.0415 58.8545C43.8925 58.8908 44.1724 58.8545 44.0415 58.8545C44.1578 58.8726 44.1796 58.8762 44.1106 58.8545C44.1633 58.868 44.212 58.8941 44.2523 58.9307C44.2996 58.9742 44.3068 58.9778 44.2523 58.9307C44.2948 58.9621 44.3255 59.0068 44.3395 59.0577C44.3614 59.1157 44.365 59.1194 44.3395 59.0577C44.3395 59.1665 44.3395 59.1811 44.3395 59.1012C44.327 58.9294 44.2497 58.7686 44.1233 58.6513C43.9969 58.534 43.8307 58.4687 43.6581 58.4688C43.4855 58.4687 43.3192 58.534 43.1928 58.6513C43.0664 58.7686 42.9891 58.9294 42.9766 59.1012L43.0056 59.1303Z" fill="#231F20"/>
<path d="M77.1032 85.3375C76.8269 85.2213 76.5471 85.1125 76.2599 85.0181C76.1545 84.9819 76.0419 84.9855 75.9401 84.9492C75.5766 84.8294 75.195 84.677 74.817 84.5863C74.6492 84.545 74.4773 84.5231 74.3045 84.521C74.0817 84.5442 73.8566 84.5156 73.6466 84.4376C73.5812 84.4013 73.5921 84.1944 73.6466 83.9876C73.7012 83.7808 73.832 83.5703 73.9665 83.5558C74.4427 83.4986 74.9257 83.5481 75.3803 83.7009C75.6613 83.7718 75.9466 83.8239 76.2345 83.857C76.5434 83.9259 76.8524 84.013 77.1577 84.1037L77.721 84.2815C78.0082 84.365 78.2844 84.4775 78.5752 84.5428C78.8005 84.5936 79.0441 84.59 79.3021 84.6262C79.3557 84.625 79.4089 84.6349 79.4584 84.6553C79.6292 84.7532 79.6474 84.8657 79.5565 85.156C79.5393 85.2223 79.5186 85.2877 79.4947 85.352C79.4638 85.444 79.4134 85.5282 79.3469 85.599C79.2804 85.6697 79.1994 85.7253 79.1095 85.762C78.9134 85.8296 78.7035 85.847 78.4989 85.8128C78.3075 85.787 78.1197 85.7395 77.9391 85.6713C77.6629 85.5842 77.3903 85.4681 77.1032 85.3774V85.3375Z" fill="#231F20"/>
<path d="M91.6022 94.8763C91.1589 94.5643 90.6973 94.2631 90.2212 93.9874C90.0468 93.8894 89.8578 93.8169 89.6834 93.7189C89.0619 93.3561 88.4405 92.9932 87.7827 92.7247C87.4948 92.5978 87.197 92.4946 86.8923 92.4163C86.5071 92.3147 86.1037 92.224 85.7693 92.1079C85.6857 92.0753 85.6566 91.9084 85.7693 91.7451C85.8439 91.6487 85.9415 91.5726 86.0533 91.5237C86.1651 91.4749 86.2874 91.455 86.4089 91.4657C86.842 91.5262 87.2673 91.6332 87.6773 91.785C88.0839 91.9213 88.4788 92.09 88.8584 92.2893C89.3163 92.5288 89.8251 92.6848 90.3121 92.917C90.7991 93.1493 91.3333 93.454 91.8276 93.7515C92.1328 93.9366 92.4272 94.1398 92.7216 94.3393C93.1686 94.6477 93.5902 94.9924 94.0117 95.3371C94.3621 95.5921 94.6892 95.8774 94.9893 96.1898C95.0583 96.2631 95.1226 96.3406 95.182 96.422C95.3855 96.7485 95.3564 96.9154 95.1347 97.0751C95.0878 97.1166 95.0366 97.153 94.9821 97.1839C94.8935 97.2245 94.7944 97.2366 94.6987 97.2183C94.6029 97.2001 94.5153 97.1526 94.4478 97.0823C93.9754 96.6832 93.4739 96.2551 92.9106 95.8233C92.4963 95.5076 92.0529 95.192 91.5913 94.9053L91.6022 94.8763Z" fill="#231F20"/>
<path d="M43.213 113.174C43.0572 113.552 43.0182 113.969 43.1011 114.37C43.184 114.771 43.385 115.138 43.6782 115.424C44.2089 115.993 45.1321 116.334 45.7972 115.747C46.0912 115.437 46.278 115.041 46.3303 114.617C46.3827 114.193 46.2977 113.764 46.088 113.392C45.8888 113.08 45.6015 112.834 45.2625 112.686C44.9235 112.537 44.548 112.492 44.1834 112.557C43.9917 112.58 43.8078 112.647 43.6455 112.752C43.4833 112.856 43.347 112.996 43.2469 113.161C43.1468 113.326 43.0855 113.512 43.0677 113.704C43.0499 113.896 43.0759 114.089 43.1439 114.27C43.1963 114.441 43.3126 114.586 43.4688 114.675C43.625 114.763 43.8092 114.788 43.9835 114.745C44.1571 114.697 44.3045 114.582 44.3936 114.426C44.4828 114.269 44.5065 114.084 44.4597 113.911C44.4471 113.854 44.4301 113.798 44.4088 113.744C44.4597 113.834 44.4088 113.744 44.4088 113.863C44.3615 113.965 44.4415 113.682 44.4088 113.863C44.3034 114.106 44.3652 113.813 44.4088 113.863C44.2452 113.881 44.4524 113.914 44.4088 113.863C44.4451 113.863 44.6014 113.863 44.4088 113.863H44.5614C44.7214 113.863 44.4306 113.823 44.5869 113.863L44.7395 113.907C44.5651 113.849 44.9431 114.07 44.8122 113.95C44.8556 113.987 44.8946 114.028 44.9285 114.074C44.8377 113.95 44.9285 114.106 44.9467 114.128C44.9104 113.979 44.9467 114.19 44.9467 114.197C44.9758 114.4 44.9467 114.067 44.9467 114.288C44.951 114.419 44.9288 114.55 44.8813 114.673C44.9176 114.578 44.834 114.745 44.8304 114.752C44.8631 114.665 44.7759 114.752 44.8776 114.694C44.9794 114.636 44.8195 114.694 44.9867 114.669C44.9467 114.669 44.7868 114.669 44.9649 114.669C44.9249 114.669 44.7831 114.596 44.9176 114.669C44.8643 114.643 44.8132 114.613 44.765 114.578C44.6487 114.502 44.8159 114.636 44.7068 114.527C44.6581 114.483 44.612 114.436 44.5687 114.386C44.6305 114.455 44.5687 114.386 44.536 114.339C44.4986 114.284 44.4646 114.227 44.4342 114.168C44.4163 114.096 44.3932 114.026 44.3652 113.958C44.3652 114.03 44.3652 113.849 44.3652 113.827C44.3652 113.805 44.3652 113.783 44.3652 113.852C44.387 113.773 44.3906 113.776 44.3652 113.852C44.4508 113.696 44.4732 113.512 44.428 113.34C44.3827 113.167 44.2731 113.018 44.1216 112.924C43.9654 112.832 43.7794 112.807 43.6042 112.852C43.4291 112.898 43.2793 113.011 43.1875 113.167L43.213 113.174Z" fill="#231F20"/>
<path d="M88.4954 112.053C88.4671 112.358 88.3593 112.651 88.1828 112.902C88.0111 113.13 87.7916 113.318 87.5396 113.453C87.1258 113.67 86.6692 113.794 86.2022 113.816C85.3535 113.851 84.511 113.656 83.7636 113.254C83.2163 112.974 82.7325 112.585 82.3426 112.111C82.1777 111.897 82.0306 111.67 81.9029 111.432C81.7872 111.197 81.6876 110.955 81.6049 110.706C81.445 110.228 81.3505 109.763 81.2015 109.368C81.0775 108.983 80.8484 108.64 80.5401 108.377C80.4812 108.325 80.4151 108.281 80.3438 108.247C80.2493 108.221 80.173 108.181 80.0603 108.159C79.8532 108.109 79.6206 108.072 79.3916 108.036C78.5183 107.943 77.6622 107.729 76.8477 107.401C76.3206 107.151 75.8552 106.788 75.4849 106.338C75.3071 106.106 75.1571 105.854 75.0378 105.587C74.9771 105.457 74.9237 105.324 74.8779 105.188L74.7762 104.778C74.6999 104.415 74.8997 104.444 75.1687 104.651C75.507 104.951 75.8194 105.278 76.1027 105.631C76.666 106.356 77.5346 106.719 78.5303 106.933C79.0319 107.038 79.5515 107.085 80.1476 107.205L80.3729 107.256L80.6273 107.339C80.8143 107.409 80.9877 107.511 81.1397 107.641C81.3959 107.855 81.6134 108.111 81.783 108.399C82.1864 109.088 82.299 109.789 82.5316 110.369C82.7336 110.928 83.0736 111.427 83.5201 111.82C84.0147 112.253 84.6154 112.547 85.2609 112.673C85.8731 112.827 86.5208 112.748 87.078 112.452C87.198 112.378 87.29 112.267 87.3397 112.136C87.3889 111.98 87.4001 111.815 87.3724 111.653C87.2839 111.229 87.1624 110.811 87.009 110.405C86.8774 110.043 86.8038 109.662 86.7909 109.277C86.7938 109.052 86.8472 108.83 86.9472 108.627C87.0526 108.436 87.1903 108.264 87.3542 108.12C87.9939 107.586 88.7171 107.459 89.2949 107.18C89.5084 107.091 89.7061 106.969 89.88 106.817C90.0493 106.654 90.1982 106.471 90.3234 106.273C90.5617 105.888 90.6946 105.448 90.7086 104.996C90.707 104.803 90.6888 104.611 90.6541 104.422C90.5959 104.059 90.5087 103.845 90.5051 103.664C90.5046 103.492 90.5552 103.324 90.6505 103.181C90.6977 103.112 90.7341 103.029 90.7813 102.971C90.8285 102.913 90.9921 102.88 91.1447 102.971C91.3802 103.138 91.5559 103.376 91.6462 103.649C91.8517 104.188 91.918 104.769 91.8389 105.34C91.7524 105.934 91.5174 106.497 91.1556 106.977C91.0701 107.102 90.9779 107.224 90.8794 107.339C90.7781 107.453 90.6701 107.561 90.556 107.662C90.3122 107.865 90.042 108.033 89.7528 108.163C89.2368 108.395 88.7607 108.526 88.4081 108.715C88.1538 108.842 87.9684 108.994 87.9539 109.11C87.9456 109.173 87.9456 109.236 87.9539 109.299C87.9555 109.421 87.9714 109.543 88.0011 109.662C88.0629 109.955 88.1865 110.296 88.2991 110.674C88.4552 111.117 88.5255 111.586 88.5063 112.056L88.4954 112.053Z" fill="#231F20"/>
<path d="M71.2732 132.751C71.2732 132.657 71.2551 132.563 71.2478 132.468C71.2388 132.437 71.2315 132.406 71.226 132.374C71.226 132.254 71.226 132.138 71.2006 132.011C71.194 131.962 71.1753 131.914 71.1461 131.874C71.1134 131.819 71.0552 131.779 71.077 131.7C71.0988 131.62 71.5457 131.471 71.5929 131.554C71.6667 131.693 71.6947 131.852 71.6729 132.008C71.6726 132.096 71.6861 132.185 71.7128 132.269C71.7128 132.367 71.7346 132.458 71.7419 132.552C71.7492 132.646 71.7419 132.668 71.7419 132.722C71.7476 132.807 71.7647 132.889 71.7928 132.969C71.8224 133.026 71.8564 133.081 71.8945 133.132L71.9199 133.165C71.9199 133.212 71.9199 133.237 71.8327 133.292L71.7746 133.328C71.7494 133.347 71.7197 133.359 71.6885 133.362C71.6573 133.366 71.6256 133.362 71.5966 133.35C71.4713 133.277 71.377 133.161 71.3314 133.023C71.295 132.929 71.2732 132.831 71.2478 132.741L71.2732 132.751Z" fill="#231F20"/>
<path d="M75.5822 135.252C75.5822 135.129 75.6113 135.009 75.6185 134.889C75.6185 134.846 75.6185 134.806 75.6185 134.766C75.6378 134.615 75.6463 134.464 75.644 134.312C75.6412 134.247 75.6251 134.182 75.5967 134.123C75.5604 134.051 75.5022 133.989 75.5313 133.891C75.5604 133.793 76.0838 133.681 76.1419 133.786C76.2319 133.965 76.2624 134.169 76.2292 134.367C76.2247 134.481 76.2369 134.596 76.2655 134.708C76.2655 134.831 76.2655 134.954 76.2655 135.071C76.2655 135.187 76.2655 135.219 76.2655 135.292C76.2545 135.403 76.2545 135.515 76.2655 135.626L76.3455 135.865C76.3531 135.882 76.3592 135.899 76.3636 135.916C76.3636 135.985 76.3346 136.014 76.211 136.058L76.1274 136.083C76.0888 136.098 76.0473 136.103 76.0062 136.099C75.965 136.095 75.9256 136.08 75.8911 136.058C75.8136 136.006 75.747 135.94 75.6952 135.863C75.6435 135.785 75.6075 135.699 75.5895 135.608C75.5642 135.488 75.5496 135.367 75.5459 135.245L75.5822 135.252Z" fill="#231F20"/>
<path d="M80.6234 137.022L80.6016 136.732C80.6016 136.695 80.5798 136.666 80.5798 136.634C80.5798 136.51 80.5798 136.391 80.5798 136.271C80.5717 136.22 80.5544 136.171 80.5289 136.126C80.4962 136.068 80.4381 136.024 80.4744 135.945C80.5108 135.865 81.0085 135.749 81.0448 135.829C81.1066 135.968 81.1231 136.122 81.0921 136.271C81.0875 136.357 81.0999 136.444 81.1284 136.525L81.1611 136.801C81.1611 136.859 81.1611 136.913 81.1865 136.968C81.1984 137.051 81.2204 137.132 81.2519 137.211C81.2857 137.265 81.3246 137.316 81.3682 137.363L81.3972 137.396C81.419 137.439 81.3972 137.468 81.2846 137.537L81.2083 137.584C81.1768 137.607 81.1408 137.623 81.1026 137.631C81.0644 137.64 81.0249 137.64 80.9867 137.631C80.9171 137.603 80.8543 137.561 80.8029 137.506C80.7514 137.452 80.7125 137.387 80.6888 137.316C80.6585 137.221 80.6354 137.124 80.6198 137.026L80.6234 137.022Z" fill="#231F20"/>
<path d="M85.5956 139.025C85.6138 138.92 85.632 138.811 85.6429 138.706C85.6429 138.666 85.6247 138.633 85.6429 138.597C85.6662 138.462 85.6808 138.325 85.6865 138.187C85.6833 138.13 85.6645 138.075 85.632 138.027C85.592 137.962 85.5193 137.919 85.5702 137.821C85.6211 137.723 86.2971 137.505 86.3625 137.603C86.4111 137.685 86.4421 137.777 86.4533 137.872C86.4646 137.967 86.4559 138.063 86.4279 138.154C86.3952 138.271 86.457 138.365 86.4643 138.474C86.4716 138.583 86.4643 138.702 86.4643 138.818V139.025C86.4515 139.127 86.4515 139.229 86.4643 139.33C86.4968 139.407 86.5396 139.479 86.5915 139.544C86.6036 139.557 86.6135 139.572 86.6206 139.588C86.6388 139.646 86.5842 139.675 86.3843 139.726L86.2426 139.758C86.1249 139.799 85.9969 139.799 85.8791 139.758C85.8064 139.715 85.744 139.657 85.6962 139.588C85.6485 139.518 85.6166 139.439 85.6029 139.356C85.5771 139.25 85.5673 139.141 85.5738 139.033L85.5956 139.025Z" fill="#231F20"/>
<path d="M92.0379 139.678V139.388C92.0379 139.355 92.0125 139.326 92.0125 139.29C92.0125 139.167 92.0125 139.043 92.0125 138.927C92.0072 138.876 91.9898 138.826 91.9616 138.782C91.9253 138.724 91.8599 138.681 91.9071 138.597C91.9544 138.514 92.5611 138.362 92.6011 138.441C92.6671 138.578 92.6787 138.735 92.6338 138.88C92.6047 138.978 92.6592 139.054 92.6701 139.138C92.681 139.221 92.6883 139.326 92.6992 139.417C92.7101 139.508 92.6992 139.533 92.7173 139.588C92.7239 139.673 92.7422 139.757 92.7718 139.838C92.8042 139.896 92.8446 139.95 92.8917 139.997C92.8917 139.997 92.9135 140.016 92.9172 140.03C92.9208 140.045 92.9172 140.106 92.7718 140.179L92.681 140.226C92.6034 140.272 92.5115 140.287 92.423 140.269C92.3519 140.246 92.2867 140.207 92.2321 140.156C92.1775 140.104 92.1348 140.042 92.107 139.972C92.0731 139.88 92.0476 139.786 92.0307 139.689L92.0379 139.678Z" fill="#231F20"/>
<path d="M125.779 159.844C125.686 159.914 125.589 159.978 125.488 160.036C125.405 160.083 125.317 160.134 125.237 160.17C125.077 160.248 124.912 160.318 124.743 160.377C124.58 160.442 124.412 160.495 124.242 160.537C124.071 160.577 123.904 160.631 123.736 160.653C123.078 160.77 122.409 160.81 121.741 160.773C120.482 160.69 119.232 160.5 118.005 160.203C117.115 160.007 116.261 159.84 115.385 159.677C113.833 159.372 112.292 159.067 110.748 158.85C109.985 158.741 109.185 158.675 108.378 158.527C107.966 158.45 107.561 158.343 107.164 158.207C106.961 158.134 106.762 158.049 106.568 157.953L106.263 157.783C106.158 157.718 106.031 157.609 105.9 157.525C105.708 157.357 105.574 157.134 105.515 156.887C105.495 156.763 105.502 156.637 105.534 156.516C105.566 156.395 105.622 156.281 105.7 156.183C105.859 155.98 106.055 155.809 106.278 155.679C106.443 155.579 106.614 155.489 106.79 155.41C107.459 155.115 108.159 154.894 108.876 154.75C109.791 154.542 110.734 154.488 111.667 154.59C112.604 154.694 113.509 154.996 114.32 155.475C114.814 155.798 114.636 155.896 114.142 155.838L113.165 155.762L111.863 155.693C111.023 155.654 110.182 155.704 109.352 155.842C108.939 155.917 108.531 156.02 108.131 156.15C107.743 156.266 107.367 156.42 107.008 156.607L106.892 156.676H106.874C106.866 156.679 106.86 156.684 106.856 156.69C106.852 156.697 106.851 156.705 106.852 156.713C106.85 156.717 106.849 156.721 106.849 156.725C106.849 156.73 106.85 156.734 106.852 156.738C106.852 156.738 106.852 156.738 106.896 156.767C107.049 156.863 107.211 156.946 107.379 157.014C108.187 157.31 109.03 157.505 109.886 157.594C110.977 157.75 112.114 157.928 113.23 158.113C114.346 158.298 115.461 158.476 116.588 158.697C117.813 158.948 119.005 159.238 120.2 159.423C121.361 159.637 122.551 159.637 123.711 159.423C124.049 159.342 124.377 159.228 124.692 159.082C124.769 159.046 124.838 159.002 124.907 158.966C124.955 158.937 125.001 158.904 125.045 158.868C125.121 158.814 125.176 158.736 125.201 158.646C125.211 158.553 125.183 158.459 125.125 158.385C125.094 158.345 125.06 158.307 125.023 158.273C124.965 158.22 124.905 158.17 124.841 158.124C124.555 157.919 124.251 157.739 123.933 157.587C123.428 157.346 122.912 157.131 122.385 156.945C121.787 156.796 121.213 156.564 120.68 156.255C120.52 156.141 120.382 155.998 120.273 155.835C120.164 155.659 120.103 155.457 120.099 155.25C120.099 155.058 120.117 154.917 120.099 154.819C120.098 154.731 120.074 154.644 120.03 154.568C119.862 154.234 119.339 154.02 118.834 153.901C118.427 153.803 118.002 153.748 117.555 153.687C117.108 153.625 116.697 153.581 116.268 153.549C115.407 153.491 114.546 153.483 113.677 153.498L112.532 153.531C111.078 153.563 110.628 153.491 110.312 153.168C110.234 153.1 110.164 153.023 110.105 152.939C109.959 152.678 110.544 152.449 111.605 152.355C113.242 152.187 114.89 152.165 116.53 152.29C116.955 152.322 117.38 152.38 117.805 152.442C118.238 152.495 118.667 152.57 119.092 152.667C119.617 152.785 120.112 153.01 120.546 153.327C120.831 153.544 121.054 153.832 121.193 154.162C121.271 154.348 121.314 154.548 121.32 154.75C121.327 154.885 121.327 155.021 121.32 155.156C121.32 155.276 121.32 155.221 121.32 155.232C121.32 155.243 121.32 155.232 121.352 155.261C121.533 155.378 121.731 155.469 121.938 155.53C122.196 155.62 122.475 155.693 122.806 155.798C122.882 155.82 122.991 155.86 123.064 155.885L123.286 155.969L123.736 156.147C124.38 156.386 124.991 156.707 125.554 157.101C125.736 157.237 125.904 157.391 126.055 157.562C126.254 157.781 126.392 158.047 126.459 158.334C126.521 158.618 126.488 158.914 126.364 159.176C126.231 159.438 126.041 159.668 125.808 159.847L125.779 159.844Z" fill="#231F20"/>
<path d="M20.3899 160.076C19.8266 160.076 19.2196 160.134 18.5946 160.127C18.2753 160.128 17.9562 160.111 17.6388 160.076C17.47 160.057 17.3026 160.028 17.1372 159.989C16.9394 159.946 16.7469 159.882 16.563 159.797C16.3184 159.684 16.1152 159.497 15.9815 159.264C15.8606 159.028 15.8259 158.757 15.8834 158.498C15.9933 158.103 16.217 157.748 16.5267 157.478L16.5921 157.417C16.6048 157.406 16.6159 157.394 16.6248 157.381C16.6368 157.37 16.6452 157.356 16.6491 157.34C16.653 157.325 16.6521 157.308 16.6466 157.293C16.6329 157.263 16.6101 157.238 16.5812 157.221L16.5376 157.192L16.3777 157.116C15.6251 156.853 14.8306 156.73 14.0336 156.753C13.285 156.72 12.5145 156.731 11.7077 156.633C11.2949 156.589 10.8887 156.496 10.4975 156.357L10.2104 156.252L10.0505 156.187L9.83607 156.096C9.56473 155.984 9.31786 155.82 9.10923 155.614C9.01884 155.528 8.94901 155.423 8.90495 155.307C8.86089 155.191 8.84376 155.066 8.85483 154.942C8.8855 154.821 8.94104 154.707 9.01796 154.607C9.09489 154.508 9.19153 154.426 9.30184 154.365C9.55197 154.221 9.82285 154.116 10.105 154.053L10.3049 153.999L10.4575 153.974C10.5559 153.951 10.6554 153.934 10.7555 153.923C11.5402 153.825 12.3325 153.804 13.1214 153.857C13.8083 153.89 14.4842 153.941 15.1529 153.955C15.4749 153.974 15.7977 153.974 16.1196 153.955C16.4395 153.926 16.7665 153.876 17.0936 153.821C17.9757 153.625 18.8804 153.549 19.7829 153.596C20.0324 153.625 20.2769 153.688 20.5098 153.781C20.7812 153.888 21.0142 154.074 21.1785 154.315C21.2634 154.447 21.3203 154.595 21.3457 154.75C21.3638 154.877 21.3699 155.006 21.3638 155.135C21.345 155.324 21.345 155.515 21.3638 155.704C21.4038 155.893 21.422 155.995 21.3457 156.042C21.2693 156.089 21.1058 156.042 20.9314 155.831C20.8334 155.7 20.7618 155.551 20.7206 155.392C20.6801 155.234 20.6279 155.079 20.5643 154.928C20.4989 154.808 20.4335 154.83 20.3353 154.797L20.2445 154.775C20.2078 154.765 20.17 154.759 20.1318 154.757L20.0155 154.721L19.8847 154.696C19.5168 154.636 19.1423 154.63 18.7726 154.677C18.3729 154.717 17.9549 154.79 17.5225 154.866C17.09 154.942 16.6466 155.022 16.1596 155.069C15.6891 155.106 15.2164 155.106 14.7459 155.069C13.8446 155.015 12.9797 154.928 12.1365 154.913C11.7227 154.902 11.3085 154.92 10.8973 154.968C10.6855 154.986 10.4754 155.02 10.2685 155.069C10.2358 155.069 10.1959 155.106 10.1886 155.138C10.1854 155.155 10.1868 155.173 10.1925 155.19C10.1983 155.206 10.2082 155.221 10.2213 155.233C10.2767 155.284 10.3406 155.326 10.4103 155.356C10.4648 155.381 10.6065 155.436 10.7192 155.476C10.8318 155.516 10.959 155.552 11.0826 155.585C11.3207 155.648 11.5639 155.691 11.8095 155.712C12.8343 155.813 13.9427 155.712 15.0803 155.824C15.7394 155.867 16.3843 156.035 16.981 156.317C17.3771 156.528 17.8168 156.858 17.7914 157.326C17.7736 157.555 17.6773 157.77 17.5188 157.936C17.3516 158.128 17.2063 158.262 17.13 158.342C17.0488 158.416 16.978 158.5 16.9192 158.592C16.8809 158.644 16.8617 158.706 16.8647 158.77C16.8657 158.8 16.8734 158.83 16.8873 158.857C16.9011 158.884 16.9207 158.908 16.9446 158.926C17.0064 158.975 17.0766 159.012 17.1518 159.035C17.6917 159.164 18.2477 159.211 18.8017 159.177C19.1651 159.177 19.5285 159.14 19.892 159.118L21.0077 159.082C21.7345 159.082 22.4868 159.06 23.2246 159.064C24.3439 159.064 25.4669 159.097 26.5826 159.137C27.1386 159.137 27.7128 159.191 28.2434 159.198C28.4985 159.203 28.7537 159.189 29.0066 159.155C29.1653 159.149 29.3153 159.081 29.4245 158.966C29.452 158.912 29.4633 158.851 29.4568 158.79C29.4504 158.73 29.4265 158.672 29.3882 158.625C29.3557 158.572 29.3179 158.522 29.2755 158.476L29.1011 158.288C28.8229 158.024 28.5038 157.807 28.1562 157.645C27.4275 157.318 26.6484 157.115 25.8521 157.047C25.4887 157 25.1471 156.989 24.7836 156.967C23.439 156.923 23.0065 156.912 22.6794 156.604C22.6067 156.55 22.5122 156.506 22.4686 156.463C22.425 156.419 22.4941 156.307 22.7412 156.161C23.1114 155.983 23.5152 155.886 23.926 155.875C24.7328 155.802 25.5449 155.81 26.35 155.9C27.2147 156.01 28.0529 156.272 28.8249 156.677C29.0275 156.787 29.2241 156.908 29.4136 157.039L29.6898 157.272C29.7891 157.353 29.8815 157.443 29.966 157.54C30.0605 157.645 30.1514 157.754 30.2422 157.863C30.3536 158.013 30.4486 158.175 30.5257 158.346C30.6024 158.507 30.6443 158.682 30.6487 158.86C30.653 159.038 30.6198 159.215 30.5511 159.38C30.4734 159.543 30.3635 159.689 30.228 159.808C30.0925 159.928 29.9342 160.019 29.7625 160.076C29.5764 160.143 29.384 160.19 29.1883 160.218C29.0284 160.24 28.9266 160.247 28.8067 160.258C28.3755 160.277 27.9434 160.271 27.5129 160.24C25.1543 160.131 22.7557 160.044 20.3899 160.105V160.076Z" fill="#231F20"/>
<path opacity="0.2" d="M76.4339 90.174C74.0935 88.0733 70.2121 88.5341 70.2121 88.5341C70.2121 88.5341 68.3587 99.0561 67.5083 99.5423C66.6579 100.028 72.9596 100.424 74.3297 99.5423C75.6998 98.6606 76.4339 90.174 76.4339 90.174Z" fill="#231F20"/>
<path opacity="0.2" d="M80.209 99.5424C80.209 99.5424 83.6579 91.5965 84.1557 91.328C84.6536 91.0595 92.5944 94.3358 94.4188 97.1659C96.2432 99.9959 80.3071 100.337 80.3071 100.337" fill="#231F20"/>
<path d="M36.9153 16.9702C36.948 18.9878 33.5859 19.2055 33.5859 16.9702C33.5859 14.9418 36.6499 14.793 36.9007 16.7598C36.908 16.8323 36.9116 16.9013 36.9153 16.9702Z" fill="#231F20"/>
<path d="M89.8521 7.88508C89.8811 9.52888 87.1406 9.69942 87.1406 7.88508C87.1406 6.23403 89.6376 6.11791 89.8411 7.71816C89.8482 7.77352 89.8519 7.82927 89.8521 7.88508Z" fill="#231F20"/>
<path d="M98.1886 18.5336C98.214 19.8581 96.0078 20.0032 96.0078 18.5336C96.0078 17.1982 98.0214 17.1039 98.1886 18.3957C98.185 18.4284 98.1886 18.4755 98.1886 18.5336Z" fill="#231F20"/>
<path d="M54.1068 20.7106C54.1068 21.7262 52.4355 21.835 52.4355 20.7106C52.4355 19.6914 53.976 19.6224 54.0995 20.6054C54.1032 20.6453 54.1068 20.6816 54.1068 20.7106Z" fill="#231F20"/>
<path d="M110.594 28.7505C110.612 29.7226 108.988 29.8387 108.988 28.7505C108.988 27.7712 110.467 27.7022 110.587 28.6526C110.591 28.6851 110.593 28.7178 110.594 28.7505Z" fill="#231F20"/>
<path d="M46.8475 27.6044C46.8729 29.0559 44.4668 29.2046 44.4668 27.6044C44.4668 26.1529 46.6476 26.0513 46.8366 27.4556C46.8437 27.5049 46.8473 27.5546 46.8475 27.6044Z" fill="#231F20"/>
<path opacity="0.23" d="M72.5771 49.6825C69.6188 48.9315 67.9362 46.2864 67.8017 43.3076C67.6563 40.0422 70.3457 37.5677 72.1918 35.202C73.9835 32.9126 73.2312 29.063 73.2312 29.063C73.2312 29.063 69.8805 35.3254 68.2378 38.072C68.2378 38.072 64.6508 41.7293 64.967 43.7902C65.2832 45.851 66.984 49.4539 70.8981 50.0308C74.8121 50.6077 72.5771 49.6825 72.5771 49.6825Z" fill="#231F20"/>
<path opacity="0.23" d="M42.7108 53.5938C42.7108 53.5938 48.6528 61.4744 47.21 63.6623C45.7672 65.8502 43.1142 69.2063 34.5156 70.4544C34.5156 70.4544 35.6313 71.3978 37.9536 71.8731C40.2759 72.3484 47.9295 67.911 49.1361 65.1644C50.3427 62.4178 46.3632 56.3368 46.3632 56.3368L44.1827 52.8682L42.7108 53.5938Z" fill="#231F20"/>
<path opacity="0.23" d="M85.1621 66.2926C88.1603 67.8129 96.1084 70.418 97.8383 69.0428C99.0085 68.1067 100.073 63.985 99.6554 63.2158C99.6554 63.2158 102.199 63.7093 102.781 65.1642C103.362 66.6192 99.9098 71.9092 99.9098 71.9092L85.1621 66.2926Z" fill="#231F20"/>
</svg>
