<svg width="186" height="158" viewBox="0 0 186 158" fill="none" xmlns="http://www.w3.org/2000/svg">
<g clip-path="url(#clip0_248_16604)">
<path d="M147.115 124.132C147.145 124.275 163.534 122.646 165.439 120.172C167.345 117.698 154.691 117.108 154.691 117.108L147.115 124.132Z" fill="#231F20"/>
<path d="M72.4221 88.0517C73.5322 87.5337 74.691 87.1433 75.8612 86.8542C76.2887 86.7491 76.7125 86.6252 77.1475 86.5539C78.6777 86.2948 80.2191 86.216 81.7529 86.2385C82.4318 86.2535 83.1143 86.2648 83.7856 86.2948C84.2169 86.3173 84.652 86.3361 85.0833 86.3812C85.5145 86.4375 85.9383 86.5351 86.3471 86.6853C86.5984 86.7754 86.5571 86.8654 86.3096 86.9818C86.1859 87.0381 86.0171 87.1095 85.8108 87.1808C85.6083 87.2446 85.3795 87.2784 85.1358 87.2822C83.4256 87.1433 81.7229 87.0869 79.994 87.132C78.9589 87.1545 77.8976 87.3685 76.8738 87.6013C75.7449 87.8528 74.631 88.1944 73.5697 88.6524C72.9209 88.9452 72.2721 89.2531 71.672 89.6322C70.7494 90.1953 69.8681 90.8448 69.1105 91.6031C68.5367 92.2113 68.0342 92.8608 67.5841 93.5478C67.4829 93.6979 67.3854 93.8443 67.2729 93.9908C67.1716 94.1259 67.0928 94.2423 67.0178 94.3324C66.9391 94.4225 66.8603 94.4825 66.7928 94.5314C66.6541 94.629 66.5378 94.6627 66.399 94.6665C66.339 94.6665 66.2715 94.6815 66.219 94.674C66.0503 94.6515 66.0728 94.3324 66.2453 93.8181C66.8678 92.369 67.9667 91.0626 69.268 90.0152C70.2244 89.223 71.2932 88.5661 72.4033 88.0255L72.4183 88.048L72.4221 88.0517Z" fill="#231F20"/>
<path d="M38.877 111.898C39.9458 111.027 41.116 110.287 42.3536 109.694C42.8036 109.473 43.2536 109.255 43.7224 109.078C45.3763 108.467 47.1128 108.129 48.8454 107.997C49.6142 107.937 50.3868 107.9 51.1519 107.888L51.8869 107.881C52.1307 107.892 52.3782 107.903 52.622 107.926C52.8658 107.948 53.1096 107.963 53.3496 108.016C53.5896 108.069 53.8296 108.129 54.0659 108.192C54.3622 108.275 54.3134 108.35 54.0471 108.467C53.9121 108.523 53.7246 108.598 53.4996 108.677C53.3871 108.714 53.2671 108.763 53.1396 108.786C53.012 108.804 52.8808 108.816 52.742 108.819L52.0145 108.834C51.7707 108.842 51.5307 108.827 51.2906 108.827C50.8068 108.827 50.3268 108.827 49.8468 108.846C48.8829 108.879 47.9228 108.962 46.9627 109.105C45.8076 109.266 44.66 109.687 43.5724 110.152C42.3723 110.663 41.2285 111.32 40.1821 112.112C39.8633 112.356 39.5408 112.604 39.237 112.874C38.9258 113.133 38.637 113.418 38.3445 113.7C37.4781 114.567 36.683 115.524 35.993 116.538C35.7342 116.94 35.4792 117.337 35.2654 117.758L34.9354 118.381L34.6316 119.016C34.5416 119.203 34.4591 119.387 34.3616 119.571C34.1928 119.92 34.0691 120.146 33.949 120.284C33.8178 120.423 33.7015 120.483 33.5628 120.51C33.499 120.521 33.4315 120.547 33.379 120.547C33.289 120.547 33.244 120.461 33.2402 120.299C33.2402 120.138 33.2627 119.902 33.364 119.627C33.934 117.983 34.8416 116.354 35.9555 114.864C36.8068 113.771 37.7819 112.765 38.8507 111.875L38.8695 111.894L38.877 111.898Z" fill="#231F20"/>
<path d="M62.0173 109.222C62.0173 109.222 61.9835 109.218 61.9573 109.218L61.7847 109.259C61.691 109.274 61.5972 109.323 61.5034 109.353C61.1284 109.485 60.7645 109.687 60.4045 109.909C59.6768 110.352 59.0092 110.919 58.1502 111.373C57.8577 111.523 57.5051 111.651 57.1 111.659H56.8712L56.77 111.46C56.7362 111.392 56.71 111.309 56.7025 111.246C56.7025 111.185 56.7025 111.11 56.71 111.065C56.7212 111.02 56.7325 110.975 56.7475 110.93L56.7925 110.833C56.8562 110.716 56.9238 110.63 56.9913 110.551C57.1263 110.397 57.2613 110.269 57.4001 110.153C57.8914 109.736 58.4015 109.391 58.9117 109.045C59.1705 108.88 59.418 108.696 59.6881 108.554L60.0856 108.328C60.2094 108.246 60.3369 108.156 60.442 108.073L60.5245 108.625C60.1982 108.508 59.6806 108.636 59.2305 108.824C58.7691 109.015 58.3078 109.259 57.8427 109.503C57.6214 109.62 57.3963 109.74 57.1638 109.856C57.0438 109.913 56.9275 109.973 56.8 110.025C56.6687 110.074 56.5412 110.134 56.3311 110.13C56.2824 110.13 56.2111 110.112 56.1473 110.089C56.1136 110.07 56.0798 110.048 56.0498 110.022C56.0348 110.022 55.9486 109.898 55.9523 109.845C55.9486 109.815 55.9448 109.789 55.9486 109.759L55.9561 109.706C55.9636 109.669 55.9711 109.65 55.9823 109.624C56.0011 109.575 56.0198 109.541 56.0386 109.507C56.1136 109.376 56.1924 109.271 56.2711 109.166C56.4174 108.97 56.6349 108.715 56.665 108.674C56.755 108.561 56.845 108.456 56.9087 108.351C56.9238 108.328 56.9275 108.287 56.9012 108.264C56.8675 108.253 56.83 108.264 56.7962 108.276C56.7287 108.302 56.6687 108.328 56.6087 108.358L56.4324 108.441L56.3124 108.49L56.0798 108.58C55.7685 108.692 55.4272 108.764 55.0671 108.76C54.8383 108.749 54.7483 108.677 54.7633 108.64C54.7783 108.595 54.8908 108.561 55.0484 108.49C55.2059 108.418 55.4047 108.302 55.6372 108.144C55.7535 108.065 55.8848 107.994 56.0236 107.915C56.0648 107.885 56.2374 107.806 56.3911 107.724C56.5524 107.641 56.7212 107.555 56.89 107.483C57.1938 107.345 57.4526 107.285 57.5839 107.318C57.6589 107.33 57.7114 107.352 57.7602 107.378C57.8127 107.408 57.8539 107.435 57.9252 107.525C57.9402 107.547 57.9552 107.57 57.9665 107.589L57.974 107.604V107.611L57.9815 107.615C57.989 107.611 57.9027 107.667 57.9402 107.645L57.9515 107.679L57.9852 107.761C58.004 107.81 58.034 107.859 58.034 107.927C58.034 108.069 57.8952 108.302 57.6889 108.55L57.1 109.259C56.9988 109.383 56.8975 109.507 56.8075 109.624C56.7625 109.684 56.7212 109.744 56.6875 109.796C56.6687 109.823 56.6574 109.845 56.6462 109.864C56.6462 109.868 56.6349 109.883 56.6387 109.879C56.6162 109.868 56.5449 109.841 56.4962 109.83C56.4437 109.815 56.4212 109.804 56.3761 109.796C56.3311 109.796 56.3086 109.789 56.2861 109.789C56.2561 109.796 56.2486 109.796 56.2449 109.796H56.2411L56.3236 109.721V109.71C56.3311 109.699 56.3499 109.657 56.3461 109.635C56.3536 109.597 56.3649 109.533 56.3611 109.485C56.3499 109.413 56.3611 109.44 56.3649 109.436C56.3686 109.436 56.3724 109.436 56.3874 109.436C56.4099 109.432 56.4287 109.428 56.4587 109.421C56.6987 109.357 56.9875 109.181 57.2651 109.023C57.5464 108.861 57.8314 108.692 58.1315 108.531C58.4316 108.373 58.7429 108.231 59.0767 108.103C59.4105 107.983 59.7631 107.874 60.1794 107.87C60.3632 107.87 60.562 107.896 60.7608 107.979L61.3909 108.246L60.8545 108.617C60.6858 108.734 60.5282 108.813 60.3782 108.921L59.9356 109.244C59.6318 109.447 59.328 109.646 59.0279 109.853C58.7279 110.059 58.4353 110.273 58.1578 110.495C57.8877 110.709 57.5914 110.96 57.4526 111.167C57.4339 111.185 57.4489 111.215 57.4113 111.197C57.2801 111.167 57.2426 111.182 57.2313 111.185L57.115 110.915C57.4039 110.934 57.7677 110.769 58.1052 110.566C58.4466 110.359 58.7804 110.115 59.1254 109.871C59.8081 109.38 60.532 108.88 61.3797 108.576C61.4472 108.546 61.5184 108.531 61.5897 108.512L61.8335 108.448C62.036 108.388 62.2311 108.4 62.4261 108.385C62.5236 108.381 62.6212 108.37 62.7149 108.37L62.97 108.403C63.135 108.43 63.3338 108.433 63.4201 108.508C63.5288 108.576 63.6601 108.614 63.7501 108.704C63.7726 108.783 63.7351 108.831 63.7164 108.884C63.6939 108.933 63.6601 108.982 63.6226 109.03C63.4951 109.226 63.18 109.462 62.8387 109.676L62.4561 109.92L62.1598 110.1L61.6235 110.42L60.5507 111.05C59.8493 111.467 59.1367 111.91 58.5778 112.443C58.4991 112.522 58.4316 112.605 58.3828 112.676C58.364 112.706 58.3453 112.747 58.349 112.747C58.3678 112.747 58.2928 112.747 58.2965 112.747C58.2853 112.747 58.2703 112.747 58.259 112.747C58.2328 112.759 58.259 112.747 58.2665 112.744C58.274 112.736 58.2778 112.729 58.2815 112.725L58.1803 112.796C58.1953 112.762 58.2103 112.725 58.2178 112.691C58.2253 112.657 58.2253 112.605 58.2215 112.62C58.2178 112.62 58.2028 112.62 58.2103 112.62L58.2778 112.597C58.319 112.59 58.3828 112.556 58.4353 112.537C58.5441 112.492 58.6604 112.436 58.7729 112.379L59.4555 112.026C59.9131 111.79 60.3744 111.553 60.8508 111.339C61.1096 111.223 61.3646 111.107 61.631 111.005C62.6399 110.637 63.03 110.712 63.2775 110.848C63.3338 110.878 63.4051 110.904 63.4388 110.938C63.4951 110.99 63.4201 111.058 63.2513 111.152C63.1613 111.197 63.0562 111.253 62.9287 111.317C62.8012 111.384 62.6474 111.433 62.4786 111.505C61.8147 111.76 61.1471 112.06 60.4757 112.402C60.1382 112.575 59.7968 112.747 59.4555 112.92C59.283 113.006 59.1067 113.097 58.9192 113.183C58.8291 113.228 58.7279 113.269 58.6191 113.314C58.5741 113.337 58.4916 113.359 58.4203 113.378L58.364 113.393L58.334 113.401L58.2628 113.408C58.169 113.416 58.0677 113.404 57.9777 113.382L57.8802 113.359L57.7977 113.277C57.7189 113.202 57.6476 113.1 57.6064 113.003C57.5726 112.905 57.5539 112.777 57.5614 112.691C57.5689 112.62 57.5876 112.545 57.6101 112.477C57.6289 112.424 57.6514 112.383 57.6739 112.338C57.7639 112.173 57.8502 112.075 57.9365 111.978C58.1052 111.794 58.274 111.647 58.4466 111.505C58.7879 111.227 59.1404 110.983 59.4968 110.746C60.2657 110.239 61.0421 109.819 61.8072 109.38L61.9498 109.297H61.9535L61.9648 109.293L61.991 109.282C62.0285 109.267 61.9985 109.256 61.9798 109.256L62.0023 109.233L62.0173 109.222Z" fill="#231F20"/>
<path d="M55.8166 118.468L58.4831 118.509C58.8094 118.517 59.1357 118.498 59.462 118.509C60.6133 118.55 61.7684 118.644 62.9161 118.821C63.4261 118.907 63.9399 118.99 64.4387 119.132C65.0725 119.297 65.7476 119.553 66.1939 120.093C66.3326 120.255 66.2914 120.251 66.1038 120.225C65.9163 120.187 65.56 120.21 65.2338 120.108C64.93 120.041 64.6375 119.954 64.3374 119.876C64.0337 119.804 63.7261 119.748 63.4149 119.695C62.7923 119.571 62.1547 119.478 61.5022 119.384C60.7221 119.275 59.9008 119.297 59.0945 119.29L56.4167 119.275L54.7591 119.264C53.9227 119.256 53.0789 119.219 52.2388 119.155C51.5863 119.098 50.9337 119.072 50.2624 118.862C50.1161 118.806 49.9699 118.753 49.8236 118.674C49.6923 118.584 49.5836 118.52 49.5048 118.438C49.4298 118.351 49.3773 118.272 49.3436 118.205C49.2798 118.062 49.3023 117.942 49.3548 117.845C49.3811 117.799 49.4036 117.747 49.4336 117.717C49.4898 117.664 49.5761 117.668 49.6698 117.698C49.7186 117.713 49.7636 117.739 49.8161 117.766C49.8799 117.788 49.9436 117.814 50.0036 117.852C50.3937 118.055 50.9112 118.16 51.455 118.239C51.9988 118.314 52.5764 118.359 53.1652 118.389C54.0352 118.43 54.9278 118.445 55.8204 118.445V118.464L55.8166 118.468Z" fill="#231F20"/>
<path d="M68.9203 146.353C67.5889 147.017 66.1825 147.453 64.7799 147.858C64.2661 147.99 63.7486 148.121 63.231 148.238C63.0023 148.286 62.7735 148.343 62.5447 148.384L61.8547 148.493L60.4745 148.707C59.5519 148.819 58.6256 148.906 57.7068 149.007C56.8854 149.056 56.0641 149.138 55.2503 149.206C54.729 149.251 54.2039 149.262 53.6789 149.285C53.1539 149.304 52.6288 149.311 52.1038 149.255C51.7737 149.138 51.8187 149.18 52.0888 149.03C52.2238 148.947 52.415 148.879 52.6476 148.797C52.8801 148.714 53.1539 148.65 53.4501 148.628L55.0328 148.493C55.5578 148.425 56.0866 148.388 56.6154 148.339C57.673 148.275 58.7231 148.125 59.7845 148.031C60.422 147.978 61.0558 147.832 61.6971 147.712C62.3422 147.603 62.9723 147.419 63.6023 147.261C63.9473 147.168 64.2999 147.104 64.6374 146.991L65.6537 146.668L66.1638 146.507C66.3326 146.447 66.4938 146.375 66.6588 146.312L67.6489 145.914C68.4365 145.538 69.2278 145.163 69.9516 144.675L70.3717 144.412C70.5067 144.318 70.6342 144.213 70.7655 144.112C71.0242 143.909 71.2943 143.718 71.5455 143.5L72.2619 142.82C72.5019 142.595 72.6969 142.329 72.9182 142.088C73.2669 141.717 73.5182 141.274 73.807 140.864C73.9458 140.654 74.0508 140.425 74.1858 140.215C74.3133 139.997 74.4483 139.791 74.5608 139.562C74.6621 139.367 74.7596 139.168 74.8683 138.972C75.2696 138.244 75.4534 138.034 75.6897 137.94C75.7459 137.917 75.8022 137.887 75.8472 137.88C75.9972 137.857 75.9597 138.218 75.7872 138.833C75.4947 139.727 75.1196 140.639 74.5871 141.488C74.302 141.897 74.047 142.336 73.7057 142.715C73.5445 142.91 73.3795 143.109 73.2107 143.297C73.0419 143.489 72.8432 143.654 72.6594 143.83C72.1231 144.371 71.4968 144.806 70.8855 145.253C70.2404 145.647 69.6066 146.06 68.924 146.368L68.9128 146.349L68.9203 146.353Z" fill="#231F20"/>
<path d="M111.288 139.055C112.282 137.595 113.062 135.97 113.681 134.284C113.895 133.665 114.097 133.038 114.277 132.407C114.964 130.188 115.417 127.894 115.755 125.578C115.898 124.55 115.988 123.51 116.07 122.481C116.115 121.82 116.16 121.156 116.205 120.495C116.235 119.831 116.34 119.17 116.415 118.505C116.486 118.085 116.505 118.153 116.554 118.505C116.588 118.712 116.633 118.96 116.678 119.234C116.704 119.391 116.73 119.553 116.756 119.725C116.771 119.812 116.779 119.902 116.794 119.996C116.794 120.09 116.798 120.183 116.801 120.277C116.865 123.007 116.618 125.747 116.07 128.458C115.736 130.076 115.41 131.765 114.911 133.387C114.364 135.166 113.651 136.908 112.717 138.534C112.162 139.543 111.465 140.478 110.715 141.36C109.556 142.678 108.112 143.767 106.518 144.484C105.292 145.077 103.975 145.404 102.636 145.58C102.34 145.606 102.051 145.64 101.751 145.651C100.641 145.659 100.296 145.471 100.086 145.235C100.037 145.178 99.9736 145.126 99.9473 145.073C99.9061 144.987 99.9961 144.919 100.195 144.848C100.394 144.78 100.697 144.698 101.08 144.694C103.341 144.585 105.652 144.052 107.606 142.772C109.049 141.822 110.276 140.523 111.262 139.044L111.285 139.055H111.288Z" fill="#231F20"/>
<path d="M156.475 108.478C157.24 105.801 157.836 103.061 158.313 100.302C158.489 99.2954 158.624 98.278 158.782 97.2682C159.337 93.7018 159.734 90.1053 159.97 86.4976C160.075 84.8946 160.117 83.2841 160.135 81.6924C160.135 80.6712 160.143 79.6464 160.147 78.6215L160.184 77.0861C160.192 76.5755 160.24 76.0612 160.259 75.5469C160.293 74.9087 160.345 74.9875 160.499 75.5244C160.582 75.8172 160.687 76.1963 160.81 76.6356C160.923 77.0973 161.017 77.6454 161.073 78.2386C161.095 78.5014 161.122 78.7642 161.137 79.0269L161.159 79.8153L161.182 81.3958C161.193 82.4507 161.163 83.5018 161.125 84.5568C161.047 86.6628 160.9 88.7726 160.672 90.8824C160.398 93.4052 160.192 96.0368 159.824 98.6084C159.415 101.435 158.857 104.243 158.159 107.018C157.724 108.726 157.229 110.419 156.651 112.082C155.774 114.601 154.686 117.079 153.242 119.335C152.121 121.073 150.816 122.729 149.034 123.907C148.637 124.155 148.239 124.388 147.804 124.579C146.994 124.921 146.417 125.052 146.008 125.052C145.599 125.079 145.355 125.007 145.16 124.898C145.07 124.85 144.958 124.805 144.905 124.752C144.729 124.561 145.393 124.373 146.447 123.926C147.234 123.615 147.973 123.179 148.656 122.654C149.346 122.143 149.987 121.542 150.572 120.878C151.742 119.541 152.721 117.976 153.546 116.313C154.772 113.843 155.702 111.185 156.453 108.478H156.483H156.475Z" fill="#231F20"/>
<path d="M59.6392 113.344C59.3091 113.479 58.979 113.618 58.6527 113.764C58.5327 113.817 58.4239 113.888 58.3039 113.94C57.8801 114.124 57.4562 114.301 57.0361 114.496C56.8486 114.579 56.6686 114.673 56.4923 114.77C56.3798 114.834 56.2635 114.898 56.151 114.962C56.0309 115.014 55.9034 115.048 55.7721 115.082C55.6896 115.101 55.6671 115.041 55.6859 114.935C55.7084 114.834 55.7534 114.661 55.8622 114.545C56.2935 114.23 56.7323 113.929 57.2387 113.742C57.5388 113.621 57.8088 113.426 58.0976 113.272L59.0541 112.773L59.6504 112.472C59.9505 112.319 60.2656 112.18 60.5619 112.022C60.7907 111.898 60.9932 111.733 61.207 111.586C61.252 111.553 61.297 111.519 61.3495 111.493C61.5333 111.387 61.6421 111.459 61.7659 111.616C61.7959 111.654 61.8259 111.688 61.8521 111.725C61.9346 111.849 61.9159 112.011 61.8146 112.161C61.4808 112.521 61.0382 112.72 60.6181 112.931C60.2956 113.073 59.973 113.22 59.6504 113.362L59.6392 113.344Z" fill="#231F20"/>
<path d="M73.3203 143.579C73.3203 143.579 75.8893 145.542 84.4213 145.764C92.9534 145.989 99.4902 145.077 99.4902 145.077C99.4902 145.077 94.9298 143.586 94.9298 138.072C94.9298 132.557 97.36 128.499 96.5762 122.541C95.7924 116.583 95.3236 112.791 92.4471 110.944C89.5668 109.097 86.8516 109.401 85.0776 111.053C83.3037 112.705 81.2035 113.452 79.1709 122.541C77.1382 131.629 77.1832 136.438 75.5818 139.566C73.9804 142.693 73.3278 143.575 73.3278 143.575L73.3203 143.579Z" fill="#231F20"/>
<path d="M116.411 123.367C116.411 123.367 133.303 124.88 138.542 123.138C138.542 123.138 135.609 120.705 136.007 116.2C136.404 111.695 137.297 98.7774 134.968 93.7581C132.643 88.7389 131.559 87.4437 128.123 88.0819C124.692 88.7201 121.046 88.7614 118.264 98.1467C116.362 104.574 117.682 118.862 116.857 121.114C116.032 123.367 116.407 123.367 116.407 123.367H116.411Z" fill="#231F20"/>
<path d="M107.41 59.6934C108.411 58.8675 109.443 58.1054 110.433 57.3171C110.913 56.9229 111.427 56.5099 111.794 56.1195C111.835 56.0745 111.873 56.0294 111.895 55.9994L111.907 55.9806C111.948 56.0031 111.993 56.0256 112.038 56.0444C112.128 56.082 112.173 56.112 112.252 56.127C112.304 56.1458 112.357 56.1495 112.387 56.1458C112.462 56.1308 112.387 56.1345 112.368 56.2246C112.357 56.2509 112.345 56.2809 112.342 56.3072C112.342 56.3335 112.334 56.3635 112.323 56.4123C112.304 56.4912 112.312 56.5963 112.304 56.6563H112.128C111.884 56.6714 111.625 56.7314 111.367 56.8215C110.598 57.0956 109.863 57.6249 109.139 58.158C108.816 58.3945 108.501 58.6423 108.182 58.8975L107.706 59.2805L107.466 59.4757L107.204 59.6972C106.675 60.1477 106.09 60.5831 105.628 60.7446C105.407 60.8159 105.205 60.8572 105.013 60.8497C104.83 60.8497 104.593 60.7709 104.425 60.5681C104.278 60.3917 104.263 60.1289 104.256 59.9036C104.256 59.6709 104.305 59.4344 104.387 59.1904C104.552 58.7061 104.931 58.1768 105.385 57.7112C105.568 57.5235 105.703 57.3997 105.872 57.2495C106.034 57.1068 106.195 56.9717 106.36 56.8365C106.686 56.57 107.024 56.3222 107.361 56.082C107.961 55.654 108.569 55.241 109.135 54.8131C109.274 54.708 109.413 54.5991 109.533 54.4902C109.593 54.4377 109.649 54.3813 109.69 54.3363C109.713 54.3138 109.728 54.2912 109.731 54.28C109.754 54.295 109.81 54.3175 109.836 54.3288C109.863 54.3438 109.893 54.3513 109.923 54.3588C109.949 54.3663 109.96 54.3701 109.986 54.3701C110.02 54.3701 110.031 54.3626 110.024 54.3701L109.949 54.4226L109.945 54.4264L109.938 54.4339C109.938 54.4339 109.93 54.4452 109.926 54.4489C109.915 54.4639 109.885 54.5015 109.878 54.5315C109.878 54.5428 109.866 54.5653 109.851 54.5953C109.836 54.6291 109.848 54.6066 109.844 54.6141C109.836 54.6103 109.776 54.6066 109.716 54.6103C109.585 54.6216 109.431 54.6516 109.274 54.7004C108.464 54.9482 107.669 55.4212 106.926 55.9055C106.176 56.3973 105.501 56.9867 104.863 57.6099C104.481 58.0078 104.391 57.8877 104.518 57.3584C104.631 56.8215 105.103 55.913 105.996 55.196C106.78 54.5578 107.635 54.0322 108.633 53.6568C108.888 53.5667 109.15 53.4804 109.473 53.4316C109.645 53.4128 109.818 53.3903 110.091 53.4391C110.174 53.4578 110.245 53.4766 110.331 53.5141C110.436 53.5667 110.515 53.6042 110.62 53.7019C110.669 53.7507 110.718 53.7995 110.759 53.8558C110.808 53.9158 110.883 54.066 110.901 54.1674C110.928 54.28 110.931 54.4039 110.92 54.479C110.916 54.5203 110.909 54.5691 110.898 54.6066L110.871 54.6929C110.789 54.9107 110.71 55.0008 110.646 55.0834C110.583 55.1622 110.523 55.2223 110.466 55.2786C110.354 55.3875 110.253 55.4775 110.151 55.5639C109.949 55.7328 109.75 55.8792 109.555 56.0256C108.771 56.5963 108.01 57.1331 107.282 57.6887C107.099 57.8276 106.922 57.9665 106.75 58.1092L106.495 58.3269L106.285 58.5146C106.214 58.5634 106.124 58.6348 106.037 58.7586C105.989 58.83 105.947 58.9201 105.944 59.0139C105.929 59.1265 106.049 59.1453 106.112 59.1115C106.262 59.0552 106.409 58.9313 106.551 58.815L106.701 58.6948C106.761 58.6498 106.814 58.601 106.87 58.5559L107.207 58.2706L107.89 57.7C108.351 57.3246 108.831 56.9529 109.341 56.6188C109.904 56.2547 110.5 55.9093 111.194 55.6953C111.539 55.5902 111.91 55.5151 112.304 55.5264C112.327 55.5264 112.349 55.5264 112.402 55.5301C112.447 55.5376 112.477 55.5339 112.548 55.5564C112.634 55.5714 112.889 55.6765 112.983 55.9393C113.002 55.9956 113.013 56.0557 113.017 56.112C113.017 56.1645 113.017 56.1946 113.009 56.2359C112.998 56.326 112.979 56.356 112.964 56.4086C112.93 56.4949 112.893 56.555 112.863 56.6038C112.732 56.8028 112.612 56.9191 112.484 57.0468C111.993 57.531 111.494 57.9327 110.991 58.3457L109.503 59.5733C108.895 60.0763 108.295 60.5831 107.706 61.0975C107.125 61.6118 106.547 62.1449 106.09 62.723C105.966 62.8807 105.854 63.0458 105.775 63.2035C105.688 63.3574 105.673 63.5114 105.681 63.5264L105.467 63.4438C105.467 63.4438 105.493 63.3912 105.493 63.3199C105.501 63.3199 105.52 63.3199 105.557 63.3124C105.625 63.2974 105.718 63.2598 105.812 63.211C106 63.1134 106.199 62.9858 106.39 62.8506C106.776 62.5803 107.159 62.2762 107.541 61.9722C108.31 61.3678 109.064 60.7296 109.923 60.1927C110.324 59.9374 110.744 59.7084 111.175 59.502C111.228 59.4757 111.284 59.4494 111.337 59.4269L111.532 59.3405C111.689 59.273 111.843 59.2242 112 59.1678C112.315 59.059 112.63 58.9914 112.919 58.9576C113.2 58.9426 113.459 58.9576 113.669 59.059C113.722 59.0853 113.77 59.1228 113.823 59.1641C113.864 59.2129 113.936 59.2617 113.939 59.318L113.992 59.4869C114.003 59.5433 113.973 59.6146 113.962 59.6746C113.909 59.9337 113.838 60.1664 113.677 60.433C113.62 60.5606 113.497 60.6958 113.403 60.8309C113.309 60.9661 113.182 61.0975 113.054 61.2289L112.889 61.4053C112.833 61.4691 112.773 61.5179 112.743 61.548L112.514 61.7582C112.36 61.8933 112.207 62.0285 112.049 62.1561C110.864 63.1059 110.571 63.3274 110.196 63.44C110.118 63.4663 110.031 63.5339 109.96 63.5639C109.9 63.5864 109.859 63.5714 109.84 63.4963C109.821 63.425 109.818 63.2711 109.878 63.1247C109.979 62.7981 110.264 62.4076 110.658 61.9984C110.946 61.7019 111.235 61.4091 111.528 61.1087C111.67 60.9623 111.809 60.8159 111.944 60.6695C111.989 60.6207 111.993 60.6207 111.993 60.6132L112.004 60.5907C112.004 60.5907 112.019 60.5644 112.023 60.5531C112.045 60.5043 112.049 60.4705 112.034 60.4442C112.012 60.4142 111.937 60.4518 111.918 60.463C111.903 60.4705 111.892 60.478 111.884 60.4855L111.877 60.493C111.82 60.5156 111.708 60.5681 111.629 60.6057C111.277 60.7746 110.928 60.9661 110.59 61.18C110.249 61.394 109.934 61.6193 109.604 61.8746C109.274 62.1298 108.944 62.3964 108.61 62.6704C108.179 63.0196 107.751 63.3762 107.279 63.7253C107.039 63.9018 106.795 64.0745 106.495 64.2472C106.341 64.3298 106.18 64.4161 105.947 64.4912C105.82 64.525 105.696 64.5625 105.49 64.5625C105.298 64.5625 105.017 64.5099 104.781 64.3222L104.578 64.1646L104.5 63.9318C104.417 63.6803 104.421 63.4513 104.447 63.2598C104.477 63.0796 104.526 62.9257 104.578 62.8018C104.687 62.5428 104.811 62.3476 104.938 62.1674C105.19 61.807 105.456 61.5142 105.726 61.2289C106.266 60.6657 106.825 60.1664 107.387 59.6746L107.41 59.6972V59.6934Z" fill="#231F20"/>
<path d="M75.1079 92.7633L78.607 92.8384C79.0308 92.8459 79.4583 92.8309 79.8821 92.8496C81.3785 92.9097 82.8786 92.996 84.3712 93.0786C85.035 93.1124 85.7026 93.1462 86.3589 93.1612C86.7827 93.1725 87.2065 93.18 87.6303 93.2213C87.8403 93.2438 88.0541 93.2551 88.2641 93.3001C88.4741 93.3489 88.6804 93.394 88.8942 93.4428C89.1529 93.5104 89.1154 93.5667 88.8867 93.6793C88.7741 93.7356 88.6091 93.8107 88.4141 93.8933C88.3166 93.9308 88.2116 93.9834 88.0991 94.0096C87.9866 94.0322 87.8703 94.0509 87.7465 94.0585C86.0176 94.1598 84.3037 94.0585 82.5673 93.897C81.5322 93.7994 80.4484 93.8332 79.387 93.8107C78.2207 93.7882 77.0506 93.7656 75.8805 93.7581C75.1604 93.7544 74.4403 93.7506 73.7203 93.7581C72.6327 93.7694 71.5338 93.7806 70.4537 93.837C69.6136 93.8783 68.7923 93.9834 67.9672 94.066C67.7835 94.0847 67.6072 94.0997 67.4234 94.1073C67.2509 94.111 67.1122 94.111 66.9921 94.1073C66.8721 94.096 66.7746 94.066 66.6921 94.0434C66.5309 93.9909 66.4333 93.9271 66.3546 93.837C66.3171 93.7957 66.2721 93.7581 66.2496 93.7206C66.1783 93.6042 66.4483 93.4503 66.9396 93.2813C67.6747 93.1011 68.4398 93.0035 69.2123 92.9285C69.9887 92.8534 70.7762 92.8008 71.5638 92.7783C72.7377 92.737 73.919 92.7332 75.0929 92.7295V92.7558L75.1079 92.7633Z" fill="#231F20"/>
<path d="M71.3657 97.1068L74.1259 97.1969C74.4597 97.2082 74.7972 97.1969 75.131 97.2157C76.3124 97.2682 77.4937 97.3171 78.6751 97.3508C79.2001 97.3696 79.7252 97.3659 80.2465 97.3621C80.5803 97.3621 80.914 97.3396 81.2478 97.3546C81.5816 97.3696 81.9191 97.3996 82.2529 97.4297C82.4629 97.4522 82.4367 97.4935 82.2604 97.5648C82.0879 97.6324 81.7654 97.7675 81.3791 97.8389C80.6965 97.9327 80.014 97.944 79.3277 97.974C78.6413 98.004 77.955 97.9928 77.2687 97.9552C76.4436 97.914 75.5886 97.9552 74.7447 97.9515C73.8184 97.9515 72.8921 97.9252 71.9657 97.9027L70.2556 97.8689C69.393 97.8576 68.5267 97.8426 67.6716 97.8614C67.0078 97.8764 66.3552 97.9515 65.6989 97.989C65.5526 97.9965 65.4139 98.0116 65.2676 98.0153C65.1326 98.0191 65.0201 98.0191 64.9263 98.0153C64.8326 98.0041 64.7538 97.9778 64.6938 97.959C64.5663 97.9102 64.495 97.8539 64.4313 97.775C64.405 97.7375 64.3675 97.7037 64.3525 97.6699C64.2963 97.5648 64.5138 97.4409 64.9076 97.3208C66.0814 97.1106 67.3265 97.088 68.5754 97.073C69.5017 97.0655 70.4318 97.0843 71.3619 97.0918V97.1106L71.3657 97.1068Z" fill="#231F20"/>
<path d="M66.8578 100.26C67.3303 100.275 67.8066 100.312 68.2792 100.354C68.4517 100.365 68.6242 100.361 68.7967 100.38C69.4005 100.444 70.0081 100.508 70.6119 100.571C70.8819 100.598 71.1482 100.62 71.4145 100.646C71.7557 100.673 72.097 100.703 72.4346 100.774C72.5396 100.797 72.5208 100.849 72.4271 100.909C72.3333 100.966 72.1608 101.041 71.9658 101.052C71.617 101.071 71.2682 101.093 70.9194 101.101C70.5706 101.112 70.2256 101.074 69.8768 101.044C69.4605 100.999 69.0217 101.033 68.5942 101.033C68.1254 101.029 67.6529 101.033 67.1841 101.022C66.8953 101.018 66.6028 101.014 66.314 101.018C65.8752 101.026 65.4327 101.026 65.0014 101.063C64.6639 101.097 64.3376 101.18 64.0075 101.228C63.9363 101.24 63.8613 101.247 63.79 101.247C63.5125 101.247 63.4225 101.195 63.3475 101.033C63.3325 100.996 63.31 100.962 63.2987 100.924C63.2612 100.804 63.3625 100.684 63.5613 100.594C64.1426 100.297 64.7876 100.282 65.4289 100.249C65.9052 100.23 66.3853 100.237 66.8653 100.241V100.26H66.8578Z" fill="#231F20"/>
<path d="M50.0942 117.202L50.083 117.416V117.469C50.083 117.469 50.0792 117.476 50.0792 117.48C50.0792 117.484 50.068 117.495 50.0792 117.499C50.0567 117.521 50.0717 117.544 50.0867 117.555C50.113 117.57 50.0755 117.57 50.263 117.611C50.5518 117.675 50.8931 117.705 51.2306 117.731C51.9169 117.776 52.6257 117.784 53.3345 117.788L55.0559 117.754C57.0849 117.758 59.1326 117.784 61.1728 117.972C62.0766 118.051 62.9917 118.133 63.888 118.265C65.0356 118.422 66.2357 118.659 67.2221 119.361C67.5183 119.593 67.4471 119.612 67.1133 119.627C66.772 119.65 66.172 119.736 65.5532 119.635C64.4543 119.425 63.3405 119.233 62.1966 119.124C61.0565 119.004 59.8976 118.937 58.7313 118.85C57.3324 118.741 55.8698 118.824 54.4221 118.835C53.6271 118.839 52.8282 118.843 52.0257 118.82C51.6244 118.809 51.2193 118.79 50.8068 118.749C50.6005 118.726 50.3943 118.7 50.1805 118.662C50.0717 118.64 49.9667 118.617 49.8505 118.584C49.7042 118.539 49.5579 118.482 49.4304 118.407C49.3067 118.332 49.1942 118.234 49.1191 118.107C49.0816 118.043 49.0591 117.975 49.0441 117.904C49.0329 117.833 49.0366 117.758 49.0254 117.69L49.0666 117.011C49.0779 116.812 49.0816 116.609 49.1154 116.41C49.1717 116.012 49.1979 115.61 49.2917 115.216C49.5767 113.722 50.1242 112.265 50.9493 110.997C51.5794 110.009 52.3032 109.089 53.192 108.327C53.3945 108.17 53.5783 107.997 53.7958 107.854C54.1859 107.577 54.4709 107.43 54.6809 107.351C54.9022 107.288 55.0447 107.288 55.1797 107.321C55.2397 107.336 55.3147 107.344 55.356 107.366C55.4947 107.434 55.2397 107.753 54.7334 108.185C54.3509 108.496 53.9908 108.834 53.6458 109.187C53.2933 109.532 52.9483 109.889 52.6407 110.276C52.0107 111.042 51.4781 111.894 51.0806 112.814C50.473 114.173 50.1805 115.674 50.1242 117.195H50.098L50.0942 117.202Z" fill="#231F20"/>
<path d="M69.8134 111.88C69.5321 112.248 69.2583 112.627 69.0333 113.036C68.9507 113.186 68.8907 113.344 68.8195 113.498C68.6844 113.764 68.5644 114.039 68.4294 114.313C68.3131 114.594 68.2043 114.88 68.1293 115.176C68.0881 115.308 68.0693 115.443 68.0431 115.574C68.0206 115.709 67.9905 115.841 67.9793 115.976C67.9568 116.321 67.9193 116.67 67.8293 117.023C67.7993 117.132 67.7317 117.125 67.638 117.031C67.548 116.941 67.3979 116.764 67.3342 116.55C67.2592 116.171 67.2517 115.784 67.2704 115.398C67.3192 115.015 67.4054 114.632 67.548 114.271C67.6267 114.054 67.7017 113.828 67.7693 113.603C67.8443 113.378 67.938 113.16 68.0356 112.942C68.2719 112.48 68.5344 112.034 68.8382 111.621C69.0145 111.358 69.217 111.121 69.4083 110.873C69.7084 110.509 70.0347 110.164 70.3423 109.815C70.5823 109.544 70.7774 109.236 71.0174 108.97C71.0699 108.91 71.1224 108.854 71.1787 108.797C71.2912 108.7 71.37 108.643 71.4562 108.636C71.5538 108.639 71.6325 108.67 71.7188 108.718C71.7601 108.741 71.8013 108.76 71.8313 108.782C71.8838 108.823 71.9101 108.884 71.9176 108.97C71.9251 109.056 71.9326 109.184 71.8726 109.27C71.5838 109.863 71.1299 110.307 70.7249 110.795C70.4135 111.148 70.1135 111.512 69.8322 111.887L69.8134 111.876V111.88Z" fill="#231F20"/>
<path d="M63.9404 111.267C62.9728 111.631 62.0465 112.089 61.1089 112.57C60.7639 112.742 60.4376 112.949 60.0851 113.125C59.845 113.272 59.5525 113.324 59.2787 113.444C59.14 113.501 58.99 113.557 58.8099 113.591C58.6337 113.625 58.3749 113.606 58.1836 113.489C57.3961 112.964 56.9198 112.213 56.511 111.492C56.2072 110.963 55.8997 110.445 55.5284 109.998C55.0558 109.416 54.4933 108.958 53.852 108.515C53.6532 108.373 53.6757 108.395 53.8857 108.425C54.0883 108.459 54.527 108.451 54.9658 108.677L55.2396 108.846L55.4984 109.037C55.6784 109.161 55.8209 109.319 55.9672 109.476C56.2447 109.799 56.4885 110.137 56.706 110.482C57.141 111.169 57.5011 111.849 57.9699 112.397C58.0524 112.495 58.1461 112.573 58.2361 112.664C58.3299 112.742 58.4462 112.821 58.5324 112.881C58.5624 112.956 58.9 112.866 59.1662 112.69C59.4212 112.48 59.7213 112.311 60.0101 112.123C60.9101 111.537 61.8852 111.023 62.8828 110.58C63.4979 110.306 64.1242 110.066 64.758 109.844C65.7181 109.514 66.7082 109.262 67.687 109.033C68.4483 108.849 69.1984 108.677 69.9635 108.553C70.1322 108.53 70.2972 108.497 70.4698 108.489C71.1073 108.459 71.3173 108.534 71.4636 108.737C71.4974 108.786 71.5424 108.831 71.5611 108.876C71.6324 109.03 71.3848 109.195 70.9423 109.322C70.2897 109.54 69.6184 109.672 68.9509 109.859C68.6171 109.949 68.2796 110.024 67.9383 110.092C67.6007 110.175 67.2595 110.246 66.9219 110.336C65.9168 110.588 64.923 110.899 63.9592 111.286L63.9479 111.263L63.9404 111.267Z" fill="#231F20"/>
<path d="M60.4716 114.646C60.5654 114.774 60.6629 114.898 60.7717 115.018C60.8129 115.063 60.8655 115.089 60.9067 115.134C61.0492 115.292 61.1955 115.457 61.3493 115.611C61.4168 115.679 61.4993 115.735 61.5781 115.787C61.6831 115.855 61.7994 115.904 61.8594 116.028C61.8969 116.107 61.4843 116.463 61.3681 116.392C61.1618 116.26 60.978 116.107 60.8204 115.896C60.7267 115.769 60.5841 115.705 60.4641 115.6C60.3328 115.487 60.2053 115.367 60.0853 115.235C60.0103 115.157 59.939 115.074 59.864 114.995C59.759 114.871 59.654 114.747 59.5489 114.623C59.4627 114.533 59.3576 114.462 59.2601 114.379C59.2376 114.361 59.2114 114.349 59.2039 114.319C59.1664 114.222 59.1926 114.162 59.2901 114.06L59.3576 113.993C59.4327 113.925 59.5302 113.903 59.6277 113.914C59.789 113.925 59.864 113.996 59.9615 114.053C60.0478 114.117 60.1416 114.177 60.2016 114.259C60.2991 114.379 60.3891 114.503 60.4866 114.623L60.4754 114.635L60.4716 114.646Z" fill="#231F20"/>
<path d="M90.5489 146.409C89.1725 146.469 87.7886 146.484 86.4047 146.492C85.8984 146.484 85.3921 146.503 84.8896 146.492C83.1082 146.413 81.3305 146.252 79.5716 145.959L78.4052 145.745C78.0152 145.674 77.6252 145.617 77.2464 145.523C76.7551 145.415 76.2563 145.317 75.7763 145.167C75.2962 145.009 74.8199 144.833 74.3549 144.641C74.0661 144.521 74.1486 144.408 74.4449 144.337C74.7412 144.273 75.255 144.225 75.81 144.333C76.8076 144.48 77.7714 144.731 78.7653 144.866L79.5041 144.994C79.7516 145.032 80.0029 145.054 80.2504 145.095C80.7492 145.167 81.2443 145.264 81.7506 145.321C82.3506 145.396 82.9694 145.46 83.592 145.46C84.2145 145.478 84.8408 145.486 85.4634 145.478C86.8323 145.493 88.2049 145.441 89.5813 145.385C90.4289 145.339 91.2727 145.294 92.1203 145.234C93.4029 145.148 94.6967 145.065 95.9719 144.953C96.9657 144.866 97.9333 144.724 98.9234 144.637C99.1409 144.619 99.3509 144.585 99.5722 144.585C100.39 144.555 100.652 144.679 100.825 144.938C100.866 144.998 100.915 145.058 100.941 145.118C101.016 145.313 100.69 145.501 100.105 145.614C98.3758 145.876 96.5532 146.004 94.7042 146.162C93.3316 146.27 91.9477 146.372 90.5564 146.443V146.417L90.5489 146.409Z" fill="#231F20"/>
<path d="M131.014 124.606C129.912 124.621 128.809 124.651 127.703 124.647C127.298 124.647 126.896 124.677 126.491 124.669C125.066 124.639 123.637 124.598 122.216 124.444C121.586 124.395 120.952 124.32 120.326 124.268C119.924 124.211 119.519 124.178 119.122 124.095C118.724 124.009 118.334 123.896 117.948 123.78C117.708 123.705 117.76 123.626 117.989 123.554C118.218 123.487 118.627 123.397 119.081 123.419C119.486 123.419 119.887 123.449 120.288 123.487L121.492 123.558C122.298 123.6 123.105 123.626 123.922 123.69C124.897 123.768 125.917 123.69 126.919 123.66L130.238 123.562L132.285 123.494C133.321 123.457 134.363 123.446 135.391 123.404C136.193 123.382 136.977 123.292 137.776 123.269C137.952 123.269 138.125 123.254 138.301 123.265C138.957 123.299 139.164 123.397 139.284 123.671C139.31 123.735 139.347 123.795 139.362 123.859C139.411 124.061 139.134 124.23 138.661 124.287C138.312 124.324 137.956 124.365 137.603 124.407C137.247 124.433 136.891 124.437 136.527 124.459C135.803 124.489 135.068 124.508 134.329 124.531C133.227 124.564 132.12 124.598 131.014 124.632V124.606Z" fill="#231F20"/>
<path d="M33.8991 117.627C34.9042 115.554 36.1568 113.542 37.8782 111.909C38.0958 111.706 38.3058 111.5 38.527 111.305L39.2321 110.76L39.5846 110.49L39.9634 110.253C40.2184 110.103 40.4622 109.931 40.7247 109.795C41.7636 109.229 42.8587 108.808 43.9613 108.455C45.5814 107.967 47.2316 107.633 48.8855 107.445C51.8033 107.115 54.7248 107.096 57.6238 107.19C60.5266 107.28 63.4106 107.498 66.2908 107.716C68.8448 107.915 71.4138 108.084 73.9453 108.207C77.2006 108.376 80.4446 108.331 83.6774 108.298C84.1875 108.324 84.4163 108.358 84.4088 108.41C84.4012 108.463 84.165 108.545 83.7524 108.733C82.9349 109.131 81.3335 109.623 79.4245 109.672C76.0417 109.732 72.6964 109.533 69.3661 109.266C66.0358 109.003 62.7093 108.699 59.3715 108.489C55.3848 108.249 51.2032 108.309 47.2241 108.988C46.6728 109.071 46.1402 109.21 45.6002 109.319L44.8014 109.533L44.4038 109.642L44.0138 109.773C42.9599 110.088 41.9624 110.546 41.0173 111.072L40.3272 111.496C40.1097 111.654 39.8959 111.823 39.6784 111.984C39.2321 112.292 38.8608 112.697 38.4558 113.062C38.2608 113.249 38.0882 113.467 37.9045 113.666C37.7282 113.872 37.5294 114.068 37.3719 114.293C37.0419 114.732 36.6969 115.164 36.4118 115.637C36.0256 116.196 35.7068 116.801 35.373 117.398C35.073 118.013 34.7542 118.618 34.4954 119.256C34.2104 119.883 33.9779 120.528 33.7303 121.17C33.5091 121.824 33.2803 122.473 33.089 123.134C32.4815 125.135 32.0089 127.185 31.6039 129.249C31.2064 131.333 30.6813 133.405 29.9162 135.387C29.3387 136.93 28.6186 138.417 27.6998 139.783C26.7847 141.15 25.6596 142.396 24.2982 143.376C23.9907 143.579 23.7057 143.811 23.3831 143.988C23.0569 144.161 22.7343 144.333 22.4043 144.506C21.7668 144.769 21.223 144.972 20.7542 145.077C20.2816 145.167 19.9028 145.234 19.5878 145.268C18.9502 145.302 18.5752 145.204 18.2827 145.118C18.1477 145.077 17.9752 145.047 17.8964 145.017C17.7651 144.96 17.9714 144.874 18.4252 144.705C18.6502 144.615 18.9465 144.536 19.2915 144.45C19.6291 144.322 20.0266 144.198 20.4691 144.063C21.7555 143.586 22.9931 142.967 24.077 142.096C25.1646 141.232 26.0796 140.136 26.8672 138.946C27.6548 137.752 28.3073 136.446 28.8249 135.072C29.3499 133.702 29.77 132.275 30.0963 130.822L30.4263 129.189C30.5313 128.63 30.6401 128.067 30.7563 127.507C30.9888 126.385 31.2439 125.266 31.5439 124.155C32.1365 121.929 32.8678 119.721 33.8729 117.615L33.9029 117.623L33.8991 117.627Z" fill="#231F20"/>
<path d="M122.078 91.0923C120.75 92.5226 119.839 94.3659 119.145 96.2692C118.988 96.7535 118.815 97.2378 118.669 97.7221L118.474 98.4541L118.313 99.1974C118.114 100.196 117.96 101.217 117.859 102.25C117.439 106.383 117.465 110.61 117.375 114.837C117.292 119.064 117.169 123.318 116.64 127.563C116.374 129.685 115.991 131.802 115.421 133.882C115.144 134.925 114.787 135.95 114.401 136.964C113.973 137.97 113.542 138.953 112.953 139.915C112.095 141.304 110.966 142.524 109.649 143.485C108.325 144.446 106.818 145.129 105.243 145.531L104.635 145.666C104.433 145.703 104.234 145.726 104.035 145.756C103.645 145.805 103.251 145.857 102.85 145.887C102.051 145.955 101.23 145.966 100.393 145.846C99.5609 145.737 98.7133 145.467 97.9595 145.001C97.7682 144.892 97.5994 144.75 97.4194 144.622C97.2582 144.476 97.0819 144.337 96.9356 144.175L96.5043 143.687C96.3543 143.53 96.2568 143.335 96.133 143.158C95.7055 142.524 95.4467 141.814 95.2367 141.108C95.0605 140.399 94.9367 139.678 94.8992 138.968C94.8054 137.546 94.9029 136.149 95.0492 134.783C95.1992 133.416 95.4017 132.072 95.5405 130.743C95.6793 129.399 95.7993 128.059 95.8743 126.719C96.013 124.042 95.998 121.347 95.5892 118.73C95.3867 117.424 95.0792 116.136 94.5992 114.935C94.3591 114.334 94.0779 113.756 93.7291 113.227C93.3953 112.69 92.9903 112.205 92.529 111.796C91.6289 110.952 90.4288 110.471 89.2212 110.34C88.0098 110.25 86.7834 110.599 85.7334 111.301C85.4633 111.458 85.2196 111.669 84.9645 111.856C84.7283 112.07 84.477 112.273 84.2557 112.506C83.7982 112.956 83.3819 113.459 83.0031 113.989C82.6206 114.514 82.2943 115.07 81.9868 115.659C81.6792 116.241 81.4017 116.842 81.1504 117.457C80.1416 119.913 79.5378 122.54 79.0577 125.195C78.5777 127.849 78.2289 130.544 77.7414 133.232C77.2988 135.612 76.7625 138.015 75.7949 140.301C74.8386 142.572 73.3497 144.72 71.242 146.15C69.1306 147.535 66.7491 148.271 64.3826 148.819C62.0049 149.352 59.6009 149.641 57.2045 149.837C54.1254 150.088 51.0352 150.133 47.9524 150.084C44.8696 150.036 41.7868 149.885 38.7115 149.656C35.64 149.424 32.5722 149.135 29.5157 148.763C26.4629 148.388 23.4176 147.952 20.3874 147.472C16.6108 146.841 17.1433 146.766 20.3799 146.999C22 147.115 24.2915 147.284 27.063 147.483C28.4468 147.58 29.9507 147.686 31.5484 147.798C33.1423 147.918 34.8299 148.046 36.5888 148.177C39.7016 148.41 42.8182 148.572 45.9347 148.647C49.0475 148.722 52.1603 148.699 55.2581 148.53C58.3521 148.365 61.4386 148.046 64.4126 147.363C67.3642 146.668 70.3119 145.636 72.2134 143.466C73.1997 142.407 73.9385 141.112 74.5348 139.742C75.1274 138.368 75.5437 136.892 75.8962 135.398C76.59 132.395 76.9725 129.275 77.5088 126.152C78.0451 123.032 78.694 119.86 79.9616 116.849L80.2016 116.286L80.4679 115.734C80.6366 115.363 80.8392 115.006 81.0342 114.646C81.428 113.917 81.908 113.223 82.433 112.577C83.4906 111.297 84.792 110.122 86.4459 109.491C87.4248 109.112 88.5161 108.962 89.5737 109.097C90.6275 109.228 91.6401 109.589 92.5252 110.174C93.4141 110.756 94.1454 111.537 94.7154 112.393C95.2892 113.253 95.713 114.18 96.043 115.13C96.6994 117.033 96.9919 119.004 97.1419 120.968C97.2882 122.931 97.2732 124.902 97.1682 126.858C97.0556 128.814 96.8756 130.766 96.6243 132.707C96.3768 134.636 96.1293 136.543 96.1818 138.417C96.2193 139.348 96.3393 140.264 96.6131 141.112C96.8831 141.961 97.3219 142.73 97.9332 143.335C98.5445 143.924 99.3133 144.314 100.176 144.483C101.035 144.667 101.957 144.652 102.884 144.573C103.39 144.525 103.919 144.465 104.41 144.382C104.886 144.277 105.381 144.157 105.858 143.988C106.814 143.665 107.729 143.222 108.562 142.651C110.242 141.525 111.577 139.945 112.451 138.094C113.377 136.247 114.011 134.246 114.483 132.207C114.956 130.165 115.267 128.082 115.481 125.983C115.905 121.782 115.98 117.536 116.047 113.283C116.081 111.154 116.115 109.026 116.197 106.89C116.28 104.753 116.415 102.614 116.726 100.474C116.925 99.1636 117.191 97.8309 117.634 96.5695L117.953 95.6197C118.058 95.3044 118.204 95.0003 118.331 94.6887C118.466 94.3809 118.583 94.0655 118.733 93.7652L119.201 92.868C119.865 91.7005 120.634 90.5554 121.658 89.6319C122.663 88.6972 123.878 87.9614 125.206 87.5634C126.533 87.1655 127.947 87.1167 129.297 87.3232C129.466 87.3532 129.635 87.372 129.804 87.417L130.314 87.5597C130.662 87.6347 130.974 87.8149 131.3 87.9538C131.469 88.0177 131.604 88.1303 131.758 88.2204C131.904 88.318 132.058 88.4081 132.2 88.5132L132.601 88.8586C132.733 88.975 132.871 89.0838 132.98 89.219C133.948 90.2326 134.6 91.4639 135.084 92.7178C135.568 93.9754 135.89 95.2781 136.13 96.5846C136.487 98.5667 136.656 100.568 136.719 102.569C136.787 104.57 136.749 106.567 136.652 108.56C136.554 110.554 136.385 112.543 136.19 114.518L136.123 115.254C136.112 115.49 136.085 115.727 136.093 115.963C136.082 116.436 136.127 116.913 136.183 117.382C136.318 118.321 136.566 119.252 136.956 120.115C137.334 120.983 137.856 121.782 138.489 122.465C139.134 123.134 139.9 123.667 140.777 123.982C141.208 124.159 141.666 124.256 142.124 124.346C142.585 124.41 143.054 124.463 143.526 124.448C144.467 124.448 145.405 124.275 146.298 123.975C148.072 123.321 149.752 122.281 151.143 120.975C151.852 120.329 152.478 119.601 153.052 118.828C153.626 118.058 154.132 117.236 154.567 116.38C155.959 113.722 156.664 110.768 157.26 107.809C157.837 104.847 158.314 101.87 158.663 98.8783C159.386 92.9018 159.821 86.8989 159.956 80.8736C159.971 79.5446 160.005 78.2344 159.998 76.9205C159.975 75.6066 159.983 74.2889 159.953 72.9524C159.87 67.9932 159.491 64.7572 159.326 62.4747C159.195 61.3409 159.101 60.4437 159.049 59.6929C159.038 59.5052 159.026 59.3287 159.015 59.156C158.996 58.9871 158.981 58.8257 158.963 58.6718C158.933 58.3639 158.91 58.0786 158.895 57.8121C158.865 57.324 158.794 56.6783 158.798 56.3855C158.805 55.89 159.075 56.6145 159.608 58.3677C159.671 58.5892 159.743 58.8219 159.818 59.0734C159.874 59.3287 159.93 59.5953 159.994 59.8806C160.11 60.4512 160.238 61.0857 160.376 61.7727C160.53 62.4597 160.594 63.218 160.71 64.0214C160.808 64.8285 160.943 65.6882 161.003 66.6042C161.494 72.0289 161.565 77.5474 161.378 83.1073C161.187 88.6671 160.751 94.2758 160.031 99.8994C159.87 101.307 159.626 102.711 159.424 104.119C159.315 104.821 159.176 105.523 159.056 106.229C158.929 106.931 158.813 107.637 158.648 108.339L158.186 110.448L157.631 112.555C157.23 113.966 156.712 115.363 156.049 116.699C154.732 119.368 152.79 121.831 150.262 123.558C149.939 123.761 149.624 123.978 149.294 124.17C148.96 124.35 148.634 124.553 148.289 124.71C147.622 125.041 146.875 125.36 146.11 125.559C144.58 125.964 142.956 126.047 141.377 125.686C140.211 125.416 139.056 124.906 138.107 124.102C137.627 123.708 137.218 123.269 136.854 122.792C136.483 122.323 136.172 121.816 135.902 121.29C135.358 120.243 135.005 119.12 134.81 117.972C134.709 117.397 134.664 116.815 134.649 116.23C134.634 115.644 134.694 115.044 134.743 114.525C135.178 110.302 135.463 106.09 135.29 101.897C135.197 99.8056 134.994 97.722 134.548 95.7211C134.315 94.7263 134.042 93.7427 133.655 92.8229C133.265 91.9107 132.785 91.051 132.166 90.3527C131.551 89.6545 130.797 89.1326 129.946 88.8661C129.534 88.7347 129.042 88.6333 128.562 88.5958C128.082 88.5432 127.598 88.547 127.122 88.577C125.202 88.7084 123.447 89.6695 122.123 91.1035L122.085 91.0923H122.078Z" fill="#231F20"/>
<path d="M80.2388 86.0467C83.7491 85.9641 87.2219 86.1368 90.6835 86.317C91.9474 86.3845 93.2112 86.4221 94.4713 86.5009C98.9155 86.7787 103.352 87.0866 107.793 87.1992C109.761 87.248 111.742 87.233 113.692 87.1466C114.944 87.0978 116.193 86.9964 117.442 86.8876C118.687 86.7562 119.929 86.6436 121.185 86.5873C121.969 86.5572 121.89 86.6698 121.271 86.9852C120.96 87.1354 120.517 87.3944 119.962 87.5746C119.685 87.6684 119.381 87.7773 119.055 87.8599C118.729 87.9275 118.376 87.98 118.012 88.0213C112.826 88.5732 107.646 88.4343 102.463 88.1077C99.3618 87.9049 96.1365 87.7998 92.9674 87.6384C89.4871 87.4657 86.0068 87.2818 82.5377 87.2855C80.4075 87.3005 78.2624 87.3456 76.1884 87.6835C75.4008 87.7998 74.632 87.9875 73.8932 88.2316L73.3607 88.4455C73.1806 88.5131 73.0119 88.6257 72.8356 88.7121C72.4906 88.9073 72.1268 89.065 71.8118 89.3015C70.4804 90.1499 69.2915 91.2273 68.2977 92.4587C67.5364 93.4235 66.8613 94.4409 66.2988 95.522C65.7437 96.6032 65.2562 97.7145 64.8586 98.8632C64.6936 99.37 64.5286 99.8693 64.3898 100.387C64.3111 100.624 64.2398 100.842 64.1761 101.041C64.1161 101.24 64.0598 101.424 64.011 101.589C63.8985 101.919 63.8273 102.189 63.7448 102.407C63.5685 102.843 63.4297 103.09 63.2722 103.289C63.201 103.379 63.1335 103.503 63.081 103.556C62.9909 103.642 62.9459 103.481 62.8934 103.09C62.8597 102.895 62.8484 102.647 62.8597 102.351C62.8634 102.054 62.8972 101.713 62.9609 101.333C63.0472 100.77 63.1485 100.203 63.2985 99.6441C63.4635 99.0922 63.6173 98.5291 63.8235 97.981C64.2061 96.8735 64.6936 95.7886 65.2599 94.7337C65.8112 93.6713 66.5088 92.6689 67.2476 91.6966L67.8476 90.9983L68.1514 90.6492L68.4815 90.3226L69.1415 89.6694L69.8578 89.0725C70.2029 88.7609 70.6004 88.5206 70.9829 88.2578C71.358 87.9838 71.778 87.7736 72.1868 87.5521C72.3968 87.4469 72.5843 87.3231 72.8169 87.233L73.4994 86.9589C73.9532 86.8238 74.4107 86.6698 74.8608 86.5873C76.6685 86.1968 78.4536 86.0729 80.2275 86.0054L80.235 86.0392L80.2388 86.0467Z" fill="#231F20"/>
<path d="M122.673 50.6006C124.099 50.9685 125.512 51.2876 126.979 51.5503C128.438 51.8244 129.9 52.0722 131.367 52.3012C132.436 52.4626 133.512 52.5865 134.581 52.7179C138.354 53.2172 142.153 53.51 145.956 53.4462C146.796 53.4124 147.643 53.4011 148.483 53.3148C148.903 53.2772 149.323 53.2397 149.743 53.2022C150.16 53.1458 150.576 53.0933 150.989 53.037L151.787 52.9281L152.579 52.7817C153.108 52.6803 153.636 52.6015 154.161 52.4889C155.219 52.2899 156.265 52.0722 157.357 51.9858C158.035 51.9295 157.975 52.0271 157.48 52.3838C157.233 52.5602 156.877 52.8192 156.438 53.1158C156.217 53.2622 155.962 53.3636 155.691 53.4649C155.418 53.5663 155.125 53.6602 154.818 53.7352C150.419 54.7451 145.877 54.9666 141.384 54.6362C138.695 54.4373 135.905 54.2533 133.182 53.8854C131.686 53.6827 130.197 53.4537 128.712 53.1946C127.226 52.9431 125.749 52.6728 124.26 52.3575C122.437 51.9483 120.645 51.4377 118.874 50.8971C116.193 50.0787 113.538 49.1665 110.834 48.7047C108.733 48.3368 106.637 48.2955 104.559 48.4945C104.102 48.517 103.655 48.6034 103.194 48.6559C102.767 48.6972 102.41 48.7348 102.114 48.7648C101.818 48.8023 101.574 48.8174 101.372 48.8174C100.966 48.8174 100.719 48.7535 100.501 48.6296C100.404 48.5733 100.276 48.5208 100.213 48.4607C99.9951 48.258 100.659 47.9201 101.934 47.5635C103.835 47.1167 105.872 46.9478 107.927 47.0417C109.982 47.1355 112.041 47.5222 114.029 48.044C116.984 48.8249 119.808 49.8347 122.681 50.563V50.5968L122.673 50.6006Z" fill="#231F20"/>
<path d="M102.392 62.1858C102.463 63.8451 102.43 65.5044 102.362 67.1562C102.325 67.7606 102.317 68.365 102.276 68.9657C102.085 71.0868 101.773 73.1928 101.346 75.2689L101.068 76.6541C100.971 77.1159 100.873 77.5739 100.78 78.0319C100.656 78.6175 100.521 79.2032 100.371 79.7851C100.213 80.3632 100.007 80.9301 99.7632 81.4819C99.6094 81.8273 99.5232 81.7447 99.4557 81.3993C99.4219 81.2266 99.3881 80.9864 99.3619 80.7011C99.3469 80.4195 99.3694 80.1004 99.4331 79.7663C99.5231 79.1656 99.6882 78.5875 99.8119 77.9981L100.179 76.2262C100.292 75.633 100.408 75.0399 100.521 74.4467C100.622 73.8498 100.727 73.2529 100.847 72.656C101.098 71.2219 101.2 69.709 101.275 68.2224L101.342 66.9948L101.368 65.7672C101.402 64.9488 101.368 64.1304 101.361 63.3083C101.357 62.8052 101.316 62.2984 101.297 61.7953C101.275 61.2923 101.245 60.7855 101.192 60.2862C101.121 59.5241 101.065 58.7583 100.952 58.0037C100.858 57.2454 100.753 56.487 100.603 55.74C100.401 54.5762 100.063 53.4612 99.7707 52.335C99.6994 52.0872 99.6132 51.8507 99.5532 51.5992C99.4369 51.1337 99.3769 50.8221 99.3806 50.5931C99.3919 50.3603 99.4632 50.2101 99.5719 50.075C99.6207 50.0149 99.6619 49.9399 99.7069 49.8986C99.7857 49.831 99.8832 49.8798 100.022 50.0262C100.164 50.1689 100.311 50.4204 100.434 50.7545C101.203 52.7442 101.623 54.9553 101.957 57.1778C102.07 58.0074 102.182 58.8371 102.246 59.6705L102.355 60.9244L102.422 62.1783H102.396L102.392 62.1858Z" fill="#231F20"/>
<path d="M105.089 62.3509L105.078 63.4471C105.071 63.4922 105.029 63.6236 105.127 63.601H105.236H105.292L105.419 63.5935C105.761 63.5597 106.098 63.5222 106.443 63.5222C107.651 63.5222 108.87 63.6423 110.077 63.8788C110.614 63.9877 111.154 64.1153 111.667 64.3143C111.994 64.4495 112.339 64.5771 112.624 64.8099C112.916 65.0238 113.186 65.2904 113.325 65.6395C113.419 65.846 113.378 65.8347 113.168 65.7897C113.059 65.7709 112.92 65.7371 112.736 65.7409C112.564 65.7296 112.41 65.6808 112.241 65.6282L112.028 65.5494C111.953 65.5306 111.877 65.5119 111.81 65.4818C111.675 65.4218 111.525 65.3805 111.382 65.3354C111.094 65.2416 110.786 65.1928 110.482 65.1064C109.875 64.945 109.23 64.8249 108.57 64.7122C107.775 64.5733 106.931 64.6484 106.098 64.6409C105.907 64.6447 105.712 64.6409 105.517 64.6409H105.371L105.157 64.6484L104.726 64.6672L104.463 64.6109L104.332 64.5846C104.287 64.5846 104.246 64.5546 104.223 64.517C104.126 64.3781 104.073 64.1942 104.058 63.9802C104.047 63.8751 104.043 63.77 104.039 63.6611V63.3946L104.032 62.9891C104.032 62.4147 104.039 61.8441 104.024 61.2772C104.006 60.4175 103.983 59.5503 103.882 58.7057C103.803 58.0487 103.638 57.4142 103.484 56.7873C103.454 56.6484 103.413 56.5133 103.387 56.3744C103.33 56.1153 103.319 55.9389 103.353 55.8037C103.368 55.7362 103.39 55.6798 103.42 55.631C103.458 55.5785 103.507 55.5334 103.552 55.4921C103.593 55.4546 103.627 55.4096 103.661 55.3833C103.739 55.3082 104.047 55.4546 104.234 55.8375C104.358 56.1228 104.471 56.4157 104.568 56.7122C104.651 57.0126 104.718 57.3204 104.778 57.632C104.894 58.2552 104.966 58.8896 105.014 59.5241C105.086 60.4663 105.097 61.4161 105.108 62.3509H105.082H105.089Z" fill="#231F20"/>
<path d="M111.341 53.825C111.592 53.9038 111.843 53.9977 112.095 54.0878C112.342 54.1929 112.593 54.283 112.837 54.4031C113.081 54.5233 113.325 54.6359 113.561 54.7823C113.677 54.8536 113.801 54.9137 113.914 55.0001L114.086 55.1202C114.157 55.1765 114.274 55.2328 114.341 55.3116L114.382 55.3529L114.401 55.3755L114.412 55.3867C114.416 55.3867 114.379 55.413 114.394 55.4017V55.4092L114.457 55.5069C114.495 55.5744 114.514 55.6533 114.544 55.7246C114.615 55.8935 114.619 55.9611 114.641 56.0625C114.686 56.2539 114.716 56.4379 114.746 56.6293C114.84 57.2938 114.896 57.9545 114.941 58.6153C114.982 59.276 114.979 59.9442 114.979 60.6049C114.964 61.1943 114.964 61.7875 114.919 62.3731C114.9 62.7485 114.832 63.1277 114.765 63.5031C114.682 63.8785 114.525 64.2389 114.341 64.5768C114.225 64.787 114.165 64.7195 114.12 64.498C114.097 64.3853 114.071 64.2352 114.052 64.0662C114.037 63.8935 113.97 63.6871 114.011 63.4956C114.041 63.139 114.06 62.7823 114.064 62.4182C114.094 62.0615 114.09 61.6936 114.101 61.3295C114.101 60.5974 114.082 59.8579 114.064 59.1108C114.045 58.2173 113.876 57.2901 113.707 56.4003L113.644 56.0812C113.636 56.0324 113.629 55.9874 113.58 55.9649L113.55 55.9423L113.479 55.8935L113.332 55.7922L113.021 55.6157C112.605 55.3792 112.147 55.1915 111.682 55.0226C111.108 54.8199 110.512 54.6547 109.908 54.5233C108.993 54.3281 108.056 54.1779 107.122 54.1141C106.394 54.0653 105.678 54.1066 104.962 54.1366C104.804 54.1366 104.65 54.1554 104.489 54.1516C104.193 54.1516 103.998 54.1178 103.863 54.0615C103.724 53.9827 103.641 53.8963 103.578 53.795C103.548 53.7462 103.506 53.7049 103.488 53.6636C103.458 53.596 103.503 53.5322 103.608 53.4496C103.716 53.367 103.885 53.2469 104.106 53.2093C104.436 53.138 104.77 53.093 105.112 53.0592C105.449 53.0329 105.794 53.0254 106.139 53.0254C106.833 53.0254 107.534 53.0704 108.236 53.1568C109.278 53.2882 110.317 53.5022 111.345 53.8025L111.337 53.8288L111.341 53.825Z" fill="#231F20"/>
<path d="M141.89 62.595C140.514 62.3735 139.141 62.0994 137.783 61.7653C137.288 61.6377 136.786 61.5401 136.302 61.3937C134.588 60.8869 132.923 60.2937 131.232 59.8207C130.482 59.6067 129.716 59.4453 128.959 59.3214C128.715 59.2801 128.471 59.2463 128.228 59.2163C127.984 59.175 127.74 59.1412 127.496 59.1074C127.253 59.0661 127.009 59.0473 126.765 58.9948C126.521 58.9385 126.277 58.8972 126.03 58.8484C125.722 58.7845 125.764 58.6982 126.03 58.5668C126.165 58.503 126.356 58.4166 126.592 58.3341C126.709 58.2965 126.84 58.2552 126.975 58.2289C127.11 58.2102 127.256 58.1952 127.403 58.2027C128.46 58.2027 129.491 58.4242 130.504 58.6494C131.517 58.8859 132.511 59.1825 133.489 59.5091C134.659 59.9033 135.905 60.1998 137.112 60.5002C138.436 60.8305 139.782 61.0896 141.14 61.2923C141.976 61.4237 142.816 61.5251 143.657 61.6114C144.932 61.7353 146.218 61.8366 147.493 61.8404C148.483 61.8442 149.455 61.7578 150.422 61.6602C150.636 61.6414 150.842 61.6039 151.06 61.5889C151.859 61.5701 152.117 61.6264 152.316 61.9568C152.361 62.0243 152.417 62.0882 152.447 62.152C152.541 62.3397 152.234 62.6438 151.634 62.7752C151.195 62.884 150.741 62.9516 150.283 62.9967C149.826 63.0492 149.365 63.0755 148.9 63.098C147.969 63.1356 147.021 63.1243 146.079 63.0605C144.677 62.9779 143.274 62.8127 141.879 62.6137V62.5837L141.89 62.595Z" fill="#231F20"/>
<path d="M141.584 68.9058C140.196 68.628 138.82 68.3126 137.451 67.9898C136.952 67.8696 136.446 67.7796 135.947 67.6557C134.195 67.2202 132.452 66.7622 130.696 66.3755C129.916 66.2141 129.129 66.0714 128.349 65.9776C127.347 65.8086 126.342 65.7936 125.345 65.5721C125.033 65.5083 125.071 65.407 125.345 65.2643C125.48 65.193 125.675 65.1066 125.915 65.024C126.035 64.9827 126.166 64.9339 126.305 64.9077C126.443 64.8814 126.59 64.8851 126.74 64.8889C127.269 64.9227 127.809 64.9377 128.33 65.009C128.855 65.0766 129.38 65.1592 129.894 65.2643C130.929 65.4633 131.953 65.7073 132.973 65.9851C134.192 66.3154 135.478 66.552 136.727 66.8298C138.103 67.1414 139.48 67.4454 140.86 67.7157C141.707 67.8884 142.562 68.0273 143.414 68.17C144.063 68.2526 144.711 68.3577 145.36 68.429C146.013 68.4853 146.662 68.5679 147.307 68.5792C147.809 68.5904 148.308 68.5867 148.803 68.5717C149.298 68.5304 149.789 68.4928 150.284 68.4515C150.502 68.4403 150.712 68.399 150.929 68.3727C151.331 68.3239 151.597 68.3164 151.792 68.3614C151.89 68.384 151.968 68.414 152.036 68.459C152.103 68.5116 152.16 68.5717 152.212 68.6392C152.261 68.6993 152.321 68.7556 152.351 68.8082C152.452 68.9659 152.148 69.2699 151.537 69.3938C150.629 69.6003 149.684 69.6416 148.728 69.6904C147.772 69.6791 146.8 69.6604 145.84 69.5553C144.408 69.4314 142.99 69.1873 141.584 68.9358V68.9095V68.9058Z" fill="#231F20"/>
<path d="M144.029 77.1875C142.923 77.0636 141.82 76.9172 140.725 76.7408C140.324 76.6845 139.922 76.6357 139.525 76.5606C138.122 76.3016 136.731 75.99 135.355 75.6408C134.74 75.4944 134.128 75.3405 133.521 75.1828C133.134 75.0777 132.744 74.9726 132.354 74.8675C131.972 74.7361 131.6 74.5747 131.229 74.4208C131 74.3194 131.045 74.2819 131.27 74.2631C131.495 74.2481 131.912 74.2068 132.373 74.2631C133.172 74.4245 133.963 74.5934 134.758 74.7624C135.546 74.9501 136.337 75.1378 137.136 75.3255C138.089 75.562 139.105 75.6709 140.095 75.8098C141.186 75.9637 142.278 76.0913 143.377 76.1889L144.389 76.2753L145.405 76.3354C146.429 76.3879 147.464 76.4179 148.485 76.3879C148.882 76.3729 149.272 76.3429 149.662 76.3053C150.052 76.2678 150.438 76.2077 150.828 76.1739C151.001 76.1589 151.17 76.1439 151.342 76.1251C151.661 76.0988 151.875 76.1139 152.029 76.1664C152.182 76.2152 152.272 76.2903 152.351 76.3992C152.389 76.448 152.434 76.4968 152.456 76.5456C152.531 76.7033 152.28 76.8834 151.811 77.0336C151.462 77.1162 151.106 77.195 150.742 77.2551C150.378 77.3002 150.011 77.3452 149.64 77.3715C149.268 77.3978 148.893 77.4128 148.518 77.4278C148.143 77.4391 147.764 77.4278 147.389 77.4203C146.268 77.3978 145.143 77.3114 144.025 77.2101V77.1875H144.029Z" fill="#231F20"/>
<path d="M148.536 90.1652C147.936 90.1765 147.339 90.1727 146.747 90.1577C146.529 90.1577 146.316 90.1727 146.098 90.1614C145.333 90.1014 144.575 90.0113 143.818 89.9174C143.484 89.8836 143.147 89.8498 142.817 89.8123C142.389 89.7785 141.965 89.6847 141.553 89.557C141.425 89.5157 141.448 89.4632 141.568 89.3993C141.688 89.3355 141.905 89.2342 142.153 89.2041C142.37 89.1779 142.588 89.1516 142.805 89.1553C143.019 89.1553 143.237 89.1328 143.45 89.1478C143.878 89.1666 144.305 89.1966 144.737 89.2379C145.254 89.298 145.791 89.2229 146.319 89.2192C146.901 89.2116 147.482 89.2004 148.063 89.1704C148.42 89.1516 148.78 89.1291 149.136 89.0915C149.676 89.039 150.22 88.9789 150.748 88.87C151.161 88.7837 151.547 88.6335 151.941 88.5021C152.027 88.4721 152.11 88.4421 152.2 88.4195C152.282 88.4008 152.354 88.3895 152.41 88.3857C152.47 88.3857 152.526 88.412 152.571 88.4345C152.665 88.4834 152.729 88.5547 152.792 88.6598C152.822 88.7086 152.856 88.7536 152.875 88.7987C152.946 88.9451 152.849 89.1403 152.631 89.3393C152.29 89.5458 151.915 89.6847 151.532 89.7973C151.146 89.9062 150.752 90 150.347 90.0451C149.751 90.1276 149.143 90.1614 148.543 90.1952V90.1689L148.536 90.1652Z" fill="#231F20"/>
<path d="M147.805 96.363C147.314 96.363 146.822 96.348 146.335 96.3217C146.159 96.3179 145.979 96.3292 145.802 96.3142C145.176 96.2654 144.557 96.1528 143.946 96.0551C143.672 96.0214 143.402 95.9613 143.132 95.92C142.787 95.8599 142.446 95.7886 142.112 95.676C142.007 95.6422 142.03 95.6047 142.127 95.5671C142.225 95.5296 142.405 95.4695 142.603 95.4582C142.956 95.4432 143.305 95.4282 143.661 95.4132C144.01 95.4132 144.355 95.4545 144.704 95.492C145.12 95.5446 145.559 95.492 145.986 95.492C146.455 95.4883 146.927 95.477 147.396 95.447C147.685 95.4282 147.978 95.4094 148.263 95.3757C148.698 95.3231 149.14 95.2856 149.568 95.1879C149.898 95.1054 150.209 94.974 150.528 94.8726C150.599 94.8501 150.663 94.82 150.738 94.8013C150.869 94.7562 150.97 94.7938 151.045 94.82C151.12 94.8538 151.177 94.9101 151.229 94.9965C151.255 95.034 151.282 95.0716 151.3 95.1091C151.364 95.2292 151.289 95.3869 151.117 95.5521C150.85 95.7661 150.55 95.8862 150.247 96.0214C149.935 96.1227 149.609 96.1978 149.283 96.2579C148.799 96.3592 148.296 96.363 147.801 96.3893V96.3667L147.805 96.363Z" fill="#231F20"/>
<path d="M147.115 102.381C146.777 102.366 146.436 102.347 146.098 102.332C145.974 102.325 145.854 102.344 145.731 102.332C145.299 102.302 144.853 102.239 144.41 102.133C144.215 102.085 144.017 102.051 143.825 101.983C143.581 101.901 143.338 101.777 143.165 101.574C143.113 101.51 143.165 101.458 143.27 101.424C143.371 101.39 143.518 101.349 143.641 101.371C144.069 101.431 144.489 101.488 144.95 101.551C145.228 101.593 145.532 101.551 145.828 101.54C146.154 101.533 146.485 101.525 146.815 101.514C147.017 101.506 147.22 101.499 147.422 101.484C147.73 101.469 148.037 101.461 148.337 101.405C148.57 101.367 148.788 101.255 149.016 101.206C149.065 101.195 149.114 101.18 149.166 101.172C149.358 101.153 149.429 101.202 149.504 101.379C149.523 101.42 149.541 101.458 149.556 101.499C149.601 101.634 149.545 101.769 149.418 101.863C149.039 102.182 148.585 102.246 148.135 102.329C147.797 102.381 147.456 102.411 147.115 102.407V102.385V102.381Z" fill="#231F20"/>
<path d="M47.7376 130.207C46.5374 130.086 45.3561 129.891 44.1897 129.737C43.7622 129.677 43.3384 129.666 42.9109 129.61C41.4182 129.452 39.9068 129.381 38.3879 129.414C37.7166 129.414 37.0378 129.482 36.374 129.538C35.9465 129.561 35.5152 129.606 35.0876 129.64C34.6601 129.688 34.2213 129.647 33.7863 129.64C33.5162 129.625 33.5425 129.55 33.7563 129.414C33.865 129.347 34.015 129.261 34.2026 129.167C34.2963 129.122 34.3976 129.073 34.5063 129.028C34.5626 129.005 34.6188 128.986 34.6751 128.96C34.7351 128.949 34.7951 128.934 34.8551 128.923C35.2939 128.848 35.7289 128.769 36.1715 128.712C36.614 128.66 37.0566 128.63 37.4991 128.596C38.3879 128.551 39.2843 128.525 40.1844 128.57C41.257 128.607 42.3821 128.615 43.4772 128.727C44.681 128.848 45.8624 129.032 47.04 129.159L48.1313 129.264L49.2227 129.336L50.8841 129.396C51.4391 129.396 51.9904 129.396 52.5417 129.381C53.3968 129.332 54.2331 129.246 55.0732 129.14C55.257 129.118 55.4408 129.084 55.6283 129.08C56.3221 129.05 56.5509 129.114 56.7159 129.358C56.7534 129.414 56.8021 129.463 56.8246 129.516C56.9034 129.685 56.6334 129.887 56.1233 129.996C55.3695 130.184 54.5894 130.263 53.7906 130.315C53.3931 130.342 52.9918 130.364 52.5867 130.383C52.1817 130.387 51.7767 130.391 51.3679 130.398C50.1603 130.402 48.9414 130.33 47.73 130.229V130.203L47.7376 130.207Z" fill="#231F20"/>
<path d="M45.1626 133.563L42.3161 133.356C41.9711 133.334 41.6223 133.341 41.2773 133.315C40.0584 133.221 38.8433 133.116 37.6282 133.056C37.0881 133.03 36.5443 133.022 36.0118 133.037C35.6668 133.045 35.3255 133.067 34.9842 133.06C34.6392 133.052 34.3016 133.049 33.9529 132.985C33.7353 132.947 33.7541 132.831 33.9229 132.654C34.0916 132.485 34.4179 132.2 34.8229 132.151C35.5355 132.016 36.2518 132.024 36.9606 132.012C37.6732 132.001 38.382 132.072 39.0946 132.144C39.9459 132.241 40.831 132.211 41.7011 132.249L44.5663 132.399C45.1551 132.433 45.7402 132.467 46.329 132.489C47.2178 132.523 48.1104 132.568 48.9917 132.549C49.6781 132.53 50.3456 132.444 51.0169 132.369C51.1632 132.35 51.3095 132.339 51.4595 132.328C52.0108 132.313 52.1945 132.418 52.3295 132.662C52.3595 132.718 52.4008 132.774 52.4196 132.831C52.4871 133.015 52.2695 133.199 51.8607 133.334C51.2532 133.529 50.6194 133.582 49.9818 133.63C49.3405 133.675 48.6955 133.679 48.0466 133.679C47.0828 133.672 46.1227 133.627 45.1626 133.589V133.559V133.563Z" fill="#231F20"/>
<path d="M41.1486 137.392C40.5786 137.28 40.016 137.163 39.4497 137.066C39.2434 137.032 39.0372 137.024 38.8309 136.987C38.1071 136.867 37.387 136.75 36.6632 136.698C36.5019 136.69 36.3407 136.69 36.1794 136.69C36.0182 136.702 35.8606 136.717 35.7031 136.72C35.2943 136.754 34.8968 136.822 34.4843 136.856C34.353 136.863 34.3417 136.773 34.4205 136.642C34.4993 136.514 34.668 136.322 34.908 136.225C35.7631 135.894 36.6782 135.846 37.5558 135.947C38.0808 136.026 38.6246 136.015 39.1572 136.071C39.7385 136.131 40.316 136.217 40.8898 136.296L41.9474 136.443C42.48 136.51 43.0163 136.589 43.5451 136.604C43.9576 136.615 44.3627 136.555 44.7677 136.518C44.8577 136.51 44.944 136.488 45.034 136.484C45.364 136.484 45.469 136.566 45.5515 136.833C45.5703 136.893 45.5928 136.953 45.604 137.013C45.6453 137.216 45.5103 137.389 45.2552 137.479C44.4977 137.726 43.6876 137.708 42.9 137.644C42.3112 137.595 41.7262 137.516 41.1524 137.419V137.392H41.1486Z" fill="#231F20"/>
<path d="M67.9455 25.1666C68.1517 25.8198 68.3505 26.473 68.5343 27.13C68.6018 27.3703 68.6918 27.5993 68.7555 27.8395C68.9806 28.6842 69.1493 29.5401 69.3556 30.3848C69.4456 30.7602 69.5544 31.1319 69.6706 31.496C69.8244 31.9616 69.9669 32.4308 70.0307 32.9226C70.0494 33.0765 69.9181 33.0953 69.7456 33.0127C69.5731 32.9301 69.3518 32.7499 69.2393 32.4834C69.0368 32.0179 68.9056 31.5373 68.763 31.0568C68.6243 30.5763 68.5005 30.0882 68.3993 29.5927C68.2755 28.9996 68.0467 28.4177 67.8742 27.8283C67.6792 27.1826 67.4842 26.5369 67.2667 25.8987C67.1354 25.5045 66.9966 25.1141 66.8504 24.7274C66.6216 24.1417 66.3891 23.5561 66.1041 23.0042C65.9915 22.7903 65.8678 22.5838 65.7403 22.3811C65.609 22.1821 65.4627 21.9906 65.3465 21.7841C65.294 21.6941 65.2302 21.6115 65.1777 21.5214C65.0765 21.3562 65.0315 21.2323 65.0427 21.1197C65.0427 21.0146 65.0802 20.932 65.1477 20.8419C65.1777 20.8006 65.204 20.7555 65.234 20.7255C65.3352 20.6204 65.5377 20.6879 65.7815 20.8869C66.4191 21.5326 66.8354 22.3773 67.2179 23.2257C67.5029 23.8564 67.7392 24.5134 67.9755 25.1629L67.9567 25.1704L67.9455 25.1666Z" fill="#231F20"/>
<path d="M75.6635 23.0529C76.4248 23.7286 77.2049 24.3893 77.9924 25.0538C78.2775 25.3016 78.585 25.5231 78.8663 25.7746C79.8601 26.6643 80.8202 27.6141 81.7203 28.6052C81.9265 28.8192 82.1253 29.0407 82.3203 29.2659C82.5153 29.4912 82.7254 29.6976 82.9129 29.9266C83.1567 30.2157 83.4192 30.4898 83.648 30.7938C83.8617 31.1054 84.0642 31.432 84.2443 31.7624C84.3568 31.9726 84.2217 32.0327 83.9667 31.9801C83.7155 31.9276 83.3104 31.7849 82.9954 31.4996C82.4478 30.9815 81.9565 30.4222 81.424 29.9004C80.9177 29.3523 80.4076 28.8042 79.8939 28.2523C79.2788 27.5841 78.51 27.0285 77.7862 26.4391C76.9911 25.7896 76.1998 25.1176 75.4047 24.4456C74.9171 24.0289 74.4371 23.6085 73.9533 23.1842C73.222 22.546 72.5207 21.8703 71.8006 21.2284C71.2456 20.7253 70.6718 20.2673 70.1167 19.7718C69.9967 19.6629 69.8767 19.554 69.7642 19.4339C69.5579 19.2086 69.4304 19.051 69.3779 18.9083C69.3329 18.7581 69.3404 18.6343 69.3854 18.5029C69.4041 18.4428 69.4191 18.3752 69.4454 18.3264C69.4904 18.2438 69.5804 18.2213 69.7192 18.2401C69.8579 18.2589 70.0492 18.3114 70.2292 18.4428C70.788 18.8069 71.3093 19.2312 71.8344 19.6591C72.3557 20.0946 72.8732 20.5376 73.3758 21.0069C74.1371 21.6826 74.8946 22.3734 75.6822 23.0303L75.6635 23.0566V23.0529Z" fill="#231F20"/>
<path d="M77.7866 15.7322C78.4017 15.8185 79.0242 15.8936 79.6505 15.9349C79.8793 15.9537 80.1081 15.9349 80.3369 15.9424C81.1432 15.9875 81.957 16.0438 82.7708 16.04C83.1309 16.0438 83.4946 15.9987 83.8509 15.9687C84.3085 15.9274 84.766 15.8636 85.2385 15.9124C85.3848 15.9274 85.3886 16.0851 85.2873 16.269C85.186 16.4492 84.9873 16.6745 84.7248 16.7496C83.7947 17.0198 82.8346 17.0799 81.8632 17.0311C81.2857 17.0048 80.6856 17.0649 80.0931 17.0611C79.4405 17.0499 78.7917 17.0123 78.1429 16.956C77.7416 16.9222 77.3441 16.8772 76.9465 16.8321C76.3427 16.7571 75.7427 16.6407 75.1464 16.5618C74.6851 16.4943 74.2125 16.4943 73.7512 16.4192C73.65 16.4079 73.545 16.4004 73.4475 16.3666C73.0799 16.2503 72.9824 16.1376 72.9712 15.8673C72.9712 15.8073 72.9599 15.7434 72.9674 15.6871C72.9862 15.4919 73.1774 15.368 73.4587 15.3418C74.2988 15.2517 75.1014 15.3981 75.9339 15.4844C76.549 15.5557 77.1716 15.6308 77.7904 15.7022V15.7322H77.7866Z" fill="#231F20"/>
<path d="M95.9824 3.08473C95.9824 3.08473 98.3041 3.04718 98.0453 0.948399C98.0453 0.948399 99.2156 0.738145 99.3206 2.01844C99.4256 3.29873 98.3679 3.81311 97.6515 4.0609C96.9351 4.3087 95.9824 3.08848 95.9824 3.08848V3.08473Z" fill="#231F20"/>
<path d="M99.3539 3.18272C99.0201 3.84352 98.435 4.26778 97.8273 4.47428C97.6023 4.54561 97.3773 4.62821 97.1372 4.63948C96.7171 4.662 96.2933 4.59067 95.9032 4.39543C95.5094 4.19644 95.1906 3.88482 95.0218 3.50185C94.8643 3.17146 94.7705 2.80727 94.8005 2.43181C94.838 2.19152 94.9205 1.95499 95.0668 1.75975C95.2243 1.57578 95.4194 1.42935 95.6369 1.37679C95.7719 1.33549 95.8094 1.48567 95.8132 1.67715C95.8132 1.86488 95.8207 2.10142 95.8019 2.21781C95.7757 2.32293 95.7682 2.40929 95.7944 2.4994C95.8132 2.58575 95.8132 2.67586 95.8545 2.76972C95.9295 2.95745 96.0457 3.14142 96.2033 3.32539C96.297 3.43052 96.4583 3.49059 96.6271 3.50561C96.7959 3.52438 96.9759 3.4981 97.1485 3.46806C97.531 3.39297 97.9249 3.22026 98.1799 2.9199C98.3374 2.73968 98.4387 2.51066 98.4837 2.25535C98.555 1.88365 98.4387 1.50069 98.1274 1.33924C97.8836 1.21535 97.5948 1.29044 97.3585 1.38805C97.306 1.41434 97.2572 1.44437 97.1935 1.45188C96.9684 1.50069 96.8559 1.48943 96.6759 1.34675C96.6346 1.31672 96.5896 1.29044 96.5558 1.25664C96.4396 1.15527 96.4471 0.963792 96.6196 0.723502C96.8709 0.351804 97.3547 0.137796 97.8761 0.167832C98.1387 0.171587 98.4087 0.25794 98.66 0.385594C98.9038 0.532021 99.1364 0.723502 99.2901 0.975055C99.5264 1.33924 99.6202 1.756 99.6165 2.13521C99.5977 2.51441 99.5302 2.83355 99.3764 3.19023L99.3502 3.17896L99.3539 3.18272Z" fill="#231F20"/>
<path d="M35.2713 35.4599C35.3238 36.8116 33.0733 36.6013 33.0733 36.6013C33.0733 36.6013 32.6458 37.0556 33.4034 37.7014C34.1611 38.3509 35.2975 37.6338 35.6426 37.2621C35.9877 36.8904 36.359 35.963 35.9877 35.4599C35.6164 34.9568 35.2713 35.4599 35.2713 35.4599Z" fill="#231F20"/>
<path d="M36.0709 37.4427C35.8533 37.6942 35.5908 37.882 35.3207 38.0134C35.1895 38.0922 35.0507 38.1373 34.9157 38.1823C34.7806 38.2311 34.6456 38.2762 34.4956 38.295C34.2893 38.3438 34.0605 38.3813 33.8354 38.3663C33.4266 38.3137 33.0215 38.126 32.7402 37.8331C32.4514 37.544 32.2901 37.1648 32.2601 36.7931C32.2264 36.4627 32.2789 36.1361 32.3914 35.8432C32.5564 35.4753 32.8602 35.1637 33.2241 35.0623C33.3366 35.0248 33.3628 35.1186 33.3591 35.2688C33.3478 35.419 33.3253 35.6217 33.2728 35.7644C33.2353 35.8207 33.2241 35.8883 33.2091 35.9446C33.1866 36.0009 33.1828 36.061 33.179 36.1173C33.179 36.1474 33.1678 36.1699 33.164 36.1962V36.275C33.149 36.3238 33.1528 36.3764 33.1565 36.4252C33.164 36.6279 33.2316 36.8006 33.3066 36.9959C33.4191 37.2362 33.7192 37.2737 34.0005 37.2549C34.323 37.2474 34.7319 37.1123 35.0057 36.902C35.1895 36.7781 35.3132 36.5979 35.392 36.4027C35.5045 36.1173 35.4933 35.7306 35.2607 35.5391C35.0882 35.3814 34.8519 35.404 34.6418 35.4678C34.5931 35.4903 34.5481 35.5204 34.4956 35.5316C34.308 35.5954 34.218 35.5654 34.0492 35.3289C34.0117 35.2763 33.9667 35.2275 33.9292 35.1749C33.8054 34.9985 33.8354 34.7882 34.0417 34.6268C34.188 34.5029 34.3943 34.4278 34.6006 34.3677C34.7131 34.3489 34.8294 34.3377 34.9494 34.3302C35.0694 34.3227 35.197 34.3564 35.3245 34.379C35.8383 34.4954 36.2922 34.9309 36.4647 35.419C36.7573 36.1511 36.5247 36.9433 36.0934 37.4577L36.0709 37.4427Z" fill="#231F20"/>
<path d="M81.236 20.5229C81.0072 23.1886 77.1777 20.9734 79.2331 19.4791C80.0508 18.8859 81.326 19.4529 81.236 20.5229Z" fill="#231F20"/>
<path d="M178.097 68.2454C177.624 70.1001 174.882 68.2116 176.735 67.1565C177.613 66.6572 178.363 67.2091 178.097 68.2454Z" fill="#231F20"/>
<path d="M67.6599 62.8577C66.9397 65.1742 63.444 62.7263 65.2969 61.3596C66.0358 60.8152 68.125 61.3596 67.6599 62.8577Z" fill="#231F20"/>
<path d="M9.96924 125.608C9.49295 125.112 9.01665 124.62 8.52161 124.14C8.34159 123.963 8.14282 123.817 7.9628 123.641C7.33275 123.021 6.69894 122.402 6.05763 121.793C5.7726 121.523 5.46133 121.279 5.15755 121.039C4.76376 120.731 4.38873 120.397 4.02869 120.044C3.91993 119.931 4.01369 119.841 4.19746 119.815C4.38498 119.785 4.65875 119.83 4.92128 119.961C5.1463 120.089 5.37507 120.213 5.59634 120.348C5.80636 120.495 6.01638 120.645 6.22265 120.799C6.63143 121.11 7.03272 121.437 7.404 121.797C7.84279 122.24 8.37159 122.608 8.85539 123.021C9.38044 123.475 9.89798 123.945 10.408 124.418L11.3419 125.3C11.8144 125.743 12.2757 126.208 12.7632 126.629C13.1458 126.955 13.5471 127.241 13.9371 127.549C14.0234 127.616 14.1134 127.676 14.1884 127.759C14.4697 128.055 14.5034 128.209 14.3834 128.461C14.3571 128.517 14.3346 128.581 14.3009 128.63C14.1921 128.799 13.9521 128.81 13.6708 128.679C12.842 128.277 12.1294 127.691 11.4544 127.057C10.9556 126.584 10.453 126.107 9.95049 125.63L9.96924 125.608Z" fill="#231F20"/>
<path d="M15.143 124.456C15.143 124.114 15.143 123.773 15.143 123.431C15.143 123.307 15.1167 123.183 15.1205 123.059C15.143 122.62 15.1842 122.181 15.2255 121.745C15.248 121.554 15.248 121.359 15.2442 121.167C15.2367 120.923 15.2442 120.672 15.368 120.435C15.4055 120.36 15.5743 120.386 15.7468 120.461C15.9194 120.536 16.1219 120.66 16.1557 120.795C16.2269 121.036 16.2307 121.269 16.2307 121.501C16.2382 121.738 16.1857 121.974 16.1407 122.215C16.0769 122.504 16.1519 122.8 16.1632 123.097C16.1782 123.424 16.1894 123.75 16.2119 124.077C16.2269 124.28 16.2382 124.482 16.2607 124.681C16.2907 124.985 16.3095 125.297 16.377 125.597C16.4332 125.83 16.5495 126.044 16.6395 126.266C16.6583 126.315 16.6883 126.36 16.7033 126.412C16.7521 126.6 16.6883 126.675 16.4182 126.773C16.3582 126.795 16.2982 126.821 16.2344 126.836C16.0244 126.897 15.8331 126.855 15.7318 126.731C15.4393 126.356 15.323 125.92 15.2292 125.474C15.158 125.143 15.128 124.802 15.1055 124.46H15.1317L15.143 124.456Z" fill="#231F20"/>
<path d="M8.66031 130.77C8.27773 130.752 7.8914 130.733 7.50882 130.703C7.37005 130.695 7.23127 130.71 7.09249 130.699C6.60114 130.654 6.10979 130.598 5.61844 130.56C5.4009 130.545 5.18335 130.549 4.96581 130.56C4.68825 130.571 4.4107 130.616 4.13314 130.534C3.96061 130.485 4.17815 129.828 4.49321 129.794C5.05208 129.749 5.61094 129.734 6.18105 129.813C6.52237 129.862 6.87119 129.798 7.21626 129.79C7.59509 129.779 7.97767 129.783 8.36025 129.79C8.59654 129.79 8.82909 129.794 9.06539 129.79C9.42171 129.783 9.77803 129.787 10.1269 129.742C10.4007 129.704 10.6632 129.621 10.9258 129.561C10.9858 129.546 11.042 129.524 11.1021 129.516C11.3233 129.486 11.3984 129.546 11.4696 129.805C11.4846 129.866 11.5071 129.922 11.5184 129.982C11.5596 130.181 11.4809 130.354 11.3233 130.432C10.8545 130.665 10.3444 130.77 9.82304 130.785C9.43671 130.808 9.05039 130.8 8.66406 130.8V130.774L8.66031 130.77Z" fill="#231F20"/>
<path d="M58.3038 68.0541C58.3038 68.0541 58.6376 67.3107 58.105 66.7025C57.5762 66.0943 58.6339 66.0117 58.9002 66.7025C59.1665 67.3933 59.3353 67.8964 59.0089 68.0541C58.6826 68.2118 58.3038 68.0541 58.3038 68.0541Z" fill="#231F20"/>
<path d="M59.1251 66.4285C59.1889 66.5336 59.2414 66.6462 59.2901 66.7588C59.3426 66.8715 59.3539 66.9691 59.3839 67.0667C59.4139 67.2319 59.4364 67.3971 59.4214 67.5924C59.4177 67.6599 59.4064 67.7463 59.3952 67.8176C59.3764 67.8852 59.3539 67.9528 59.3239 68.0166C59.2039 68.2456 59.0051 68.4259 58.7875 68.516C58.57 68.6098 58.3487 68.6248 58.1387 68.5948C57.9511 68.5648 57.7636 68.516 57.591 68.3771C57.4823 68.2907 57.396 68.1443 57.381 67.9941C57.366 67.8439 57.4148 67.7125 57.4898 67.6186C57.5385 67.5548 57.6285 67.6224 57.7261 67.7087C57.7786 67.7538 57.8273 67.7988 57.8686 67.8326C57.9174 67.8702 57.9661 67.8815 57.9736 67.8927C57.9811 67.8927 57.9886 67.8927 57.9961 67.8927C58.0036 67.889 58.0111 67.8852 58.0111 67.8815C58.0149 67.8777 58.0374 67.8627 58.0336 67.8664C58.0336 67.8664 58.0636 67.8814 58.0974 67.8965C58.1724 67.9265 58.2924 67.9453 58.405 67.9415C58.5512 67.9303 58.6112 67.8064 58.645 67.6825C58.6638 67.6261 58.6713 67.5548 58.6525 67.4497C58.6337 67.3446 58.6112 67.2507 58.5962 67.1944C58.5775 67.123 58.5437 67.0367 58.4875 66.9653C58.4462 66.9165 58.39 66.8565 58.3187 66.8452C58.2474 66.8339 58.1837 66.879 58.1462 66.9353C58.0861 67.0367 58.1124 67.1831 58.1499 67.2657C58.1574 67.2845 58.1724 67.3033 58.1762 67.3183C58.1874 67.337 58.1649 67.3821 58.1199 67.4159C58.0749 67.4497 57.9999 67.4722 57.8874 67.491C57.8348 67.4985 57.7823 67.5098 57.7336 67.5173C57.561 67.5323 57.411 67.4872 57.3322 67.3558C57.0772 66.7851 57.4298 65.9666 58.0111 65.8615C58.4537 65.7489 58.87 65.9779 59.1401 66.4097L59.1251 66.4285Z" fill="#231F20"/>
<path d="M12.5596 118.839C12.5333 119.091 12.432 119.338 12.297 119.553C12.0382 119.95 11.5581 120.285 11.1043 120.138C10.898 120.071 10.7329 119.913 10.6204 119.729C9.88151 118.509 11.9182 117.026 12.4883 118.336C12.5596 118.497 12.5783 118.67 12.5596 118.843V118.839Z" fill="#231F20"/>
<path d="M177.008 51.6291C176.202 52.0383 175.373 52.4099 174.559 52.8116C174.263 52.958 173.985 53.1382 173.685 53.2809C172.635 53.7914 171.581 54.2945 170.55 54.8388C170.089 55.0716 169.639 55.3344 169.196 55.5972C168.915 55.7661 168.637 55.9463 168.348 56.1115C168.056 56.2692 167.748 56.393 167.433 56.5094C167.235 56.577 167.182 56.4418 167.242 56.2016C167.302 55.9651 167.452 55.5934 167.737 55.3306C168.832 54.5272 169.965 53.7839 171.221 53.2358C171.968 52.898 172.669 52.4174 173.4 52.0157C174.207 51.5765 175.017 51.1448 175.834 50.7318L177.349 49.9735C178.111 49.5868 178.887 49.2152 179.626 48.8022C180.2 48.4794 180.74 48.119 181.302 47.7849C181.426 47.7098 181.538 47.6272 181.677 47.5784C182.176 47.3757 182.371 47.3832 182.589 47.5521C182.637 47.5896 182.694 47.6234 182.731 47.6685C182.859 47.8074 182.742 48.0552 182.45 48.3405C182.03 48.7872 181.523 49.1026 181.025 49.4517C180.526 49.8008 179.982 50.0786 179.446 50.379C178.647 50.8144 177.829 51.2274 177.023 51.6553L177.004 51.6253L177.008 51.6291Z" fill="#231F20"/>
<path d="M176.953 58.3714C176.585 58.409 176.214 58.4465 175.846 58.4841C175.711 58.4991 175.584 58.5404 175.449 58.5517C174.972 58.593 174.496 58.6267 174.027 58.6868C173.817 58.7131 173.614 58.7694 173.408 58.7995C173.146 58.852 172.887 58.9121 172.605 58.8933C172.519 58.8858 172.504 58.7769 172.545 58.638C172.587 58.5028 172.677 58.3264 172.819 58.255C173.074 58.1424 173.322 58.0035 173.588 57.9472C173.854 57.8871 174.125 57.8458 174.402 57.827C174.736 57.8083 175.055 57.6768 175.385 57.6018C175.745 57.5192 176.109 57.4553 176.476 57.3915L177.148 57.2714C177.485 57.2 177.83 57.1587 178.16 57.0649C178.415 56.986 178.655 56.8659 178.907 56.7833C178.963 56.7645 179.012 56.7382 179.072 56.7232C179.282 56.6744 179.364 56.727 179.469 56.9597C179.492 57.0123 179.518 57.0649 179.537 57.1174C179.601 57.2976 179.552 57.4779 179.413 57.583C179.211 57.7407 178.993 57.8721 178.768 57.9885C178.539 58.0898 178.299 58.1424 178.055 58.2062C177.695 58.2963 177.324 58.3339 176.956 58.3977L176.949 58.3714H176.953Z" fill="#231F20"/>
<path d="M159.395 34.0378C159.657 34.1091 159.905 34.2969 160.036 34.5146C160.171 34.7324 160.223 34.9464 160.246 35.1604C160.261 35.3181 160.276 35.472 160.246 35.626C160.193 35.8925 160.077 36.1478 159.89 36.3543C159.695 36.5608 159.447 36.7148 159.136 36.726C158.873 36.726 158.629 36.6472 158.442 36.497C158.322 36.4031 158.209 36.283 158.146 36.1253C158.078 35.9714 158.074 35.7686 158.164 35.6184C158.221 35.5208 158.329 35.6147 158.446 35.7048C158.558 35.8062 158.704 35.8362 158.734 35.8587C158.779 35.9263 158.911 35.9939 159.001 36.0352C159.049 36.054 159.087 36.0615 159.125 36.0652C159.181 36.0652 159.248 36.0427 159.316 36.0089C159.488 35.9188 159.556 35.6598 159.567 35.4382C159.586 35.1942 159.503 34.9088 159.353 34.815C159.263 34.7436 159.113 34.7174 158.963 34.7474C158.723 34.7962 158.509 34.9351 158.389 35.1754C158.288 35.3556 158.273 35.5772 158.254 35.7949C158.247 35.8437 158.247 35.8925 158.239 35.9413C158.206 36.1216 158.146 36.1779 157.954 36.1854C157.913 36.1854 157.868 36.1929 157.827 36.1929C157.684 36.1891 157.579 36.0915 157.553 35.9376C157.512 35.7086 157.508 35.457 157.579 35.1979C157.65 34.9351 157.767 34.6648 158.011 34.4245C158.374 34.0866 158.858 33.9064 159.406 34.0265V34.0453L159.395 34.0378Z" fill="#231F20"/>
</g>
<defs>
<clipPath id="clip0_248_16604">
<rect width="184.37" height="157.63" fill="white" transform="translate(0.925781 0.0742188)"/>
</clipPath>
</defs>
</svg>
