<svg width="22" height="16" viewBox="0 0 22 16" fill="none" xmlns="http://www.w3.org/2000/svg">
<path d="M18.1579 1.89512C16.8654 1.32263 15.466 0.907111 14.0082 0.667035C13.9955 0.666646 13.9828 0.668925 13.971 0.673711C13.9592 0.678497 13.9487 0.685674 13.9402 0.694736C13.7653 0.999448 13.5612 1.3965 13.4252 1.70121C11.879 1.4796 10.3066 1.4796 8.76049 1.70121C8.62443 1.38726 8.42035 0.999448 8.23571 0.694736C8.22599 0.676269 8.19684 0.667035 8.16768 0.667035C6.70997 0.907111 5.32028 1.32263 4.01806 1.89512C4.00834 1.89512 3.99863 1.90435 3.98891 1.91358C1.34559 5.6717 0.616735 9.32824 0.976304 12.9478C0.976304 12.9663 0.986022 12.9848 1.00546 12.994C2.75471 14.2129 4.43594 14.9516 6.09773 15.4409C6.12689 15.4502 6.15604 15.4409 6.16576 15.4225C6.55448 14.9146 6.90433 14.3791 7.20559 13.8158C7.22503 13.7789 7.20559 13.7419 7.16672 13.7327C6.61279 13.5296 6.08801 13.2895 5.57296 13.0125C5.53408 12.994 5.53408 12.9386 5.56324 12.9109C5.67014 12.837 5.77703 12.7539 5.88393 12.6801C5.90337 12.6616 5.93252 12.6616 5.95196 12.6708C9.29498 14.1205 12.9004 14.1205 16.2045 12.6708C16.224 12.6616 16.2531 12.6616 16.2726 12.6801C16.3795 12.7632 16.4864 12.837 16.5933 12.9201C16.6321 12.9478 16.6321 13.0033 16.5835 13.0217C16.0782 13.308 15.5437 13.5388 14.9898 13.7419C14.9509 13.7512 14.9412 13.7973 14.9509 13.825C15.2619 14.3883 15.6117 14.9239 15.9907 15.4317C16.0199 15.4409 16.049 15.4502 16.0782 15.4409C17.7497 14.9516 19.4309 14.2129 21.1802 12.994C21.1996 12.9848 21.2093 12.9663 21.2093 12.9478C21.6369 8.76498 20.4999 5.13614 18.1967 1.91358C18.187 1.90435 18.1773 1.89512 18.1579 1.89512ZM7.71093 10.741C6.70997 10.741 5.87422 9.86379 5.87422 8.78345C5.87422 7.70311 6.69054 6.82591 7.71093 6.82591C8.74105 6.82591 9.55737 7.71234 9.54765 8.78345C9.54765 9.86379 8.73133 10.741 7.71093 10.741ZM14.4844 10.741C13.4835 10.741 12.6477 9.86379 12.6477 8.78345C12.6477 7.70311 13.464 6.82591 14.4844 6.82591C15.5146 6.82591 16.3309 7.71234 16.3212 8.78345C16.3212 9.86379 15.5146 10.741 14.4844 10.741Z" fill="black"/>
</svg>
