<svg width="20" height="20" viewBox="0 0 20 20" fill="none" xmlns="http://www.w3.org/2000/svg">
<path d="M6.40063 0.962891H14.3806C17.4206 0.962891 19.8906 3.43289 19.8906 6.47289V14.4529C19.8906 15.9142 19.3101 17.3157 18.2768 18.3491C17.2435 19.3824 15.842 19.9629 14.3806 19.9629H6.40063C3.36063 19.9629 0.890625 17.4929 0.890625 14.4529V6.47289C0.890625 5.01155 1.47114 3.61006 2.50447 2.57673C3.53779 1.54341 4.93928 0.962891 6.40063 0.962891ZM6.21062 2.86289C5.30358 2.86289 4.43369 3.22321 3.79232 3.86459C3.15095 4.50596 2.79062 5.37585 2.79062 6.28289V14.6429C2.79062 16.5334 4.32012 18.0629 6.21062 18.0629H14.5706C15.4777 18.0629 16.3476 17.7026 16.9889 17.0612C17.6303 16.4198 17.9906 15.5499 17.9906 14.6429V6.28289C17.9906 4.39239 16.4611 2.86289 14.5706 2.86289H6.21062ZM15.3781 4.28789C15.6931 4.28789 15.9951 4.413 16.2178 4.6357C16.4405 4.8584 16.5656 5.16045 16.5656 5.47539C16.5656 5.79034 16.4405 6.09238 16.2178 6.31508C15.9951 6.53778 15.6931 6.66289 15.3781 6.66289C15.0632 6.66289 14.7611 6.53778 14.5384 6.31508C14.3157 6.09238 14.1906 5.79034 14.1906 5.47539C14.1906 5.16045 14.3157 4.8584 14.5384 4.6357C14.7611 4.413 15.0632 4.28789 15.3781 4.28789ZM10.3906 5.71289C11.6504 5.71289 12.8586 6.21334 13.7494 7.10413C14.6402 7.99493 15.1406 9.20311 15.1406 10.4629C15.1406 11.7227 14.6402 12.9309 13.7494 13.8216C12.8586 14.7124 11.6504 15.2129 10.3906 15.2129C9.13085 15.2129 7.92267 14.7124 7.03187 13.8216C6.14107 12.9309 5.64062 11.7227 5.64062 10.4629C5.64062 9.20311 6.14107 7.99493 7.03187 7.10413C7.92267 6.21334 9.13085 5.71289 10.3906 5.71289ZM10.3906 7.61289C9.63476 7.61289 8.90985 7.91316 8.37537 8.44764C7.84089 8.98212 7.54063 9.70702 7.54063 10.4629C7.54063 11.2188 7.84089 11.9437 8.37537 12.4781C8.90985 13.0126 9.63476 13.3129 10.3906 13.3129C11.1465 13.3129 11.8714 13.0126 12.4059 12.4781C12.9404 11.9437 13.2406 11.2188 13.2406 10.4629C13.2406 9.70702 12.9404 8.98212 12.4059 8.44764C11.8714 7.91316 11.1465 7.61289 10.3906 7.61289Z" fill="black"/>
</svg>
