<svg width="79" height="79" viewBox="0 0 79 79" fill="none" xmlns="http://www.w3.org/2000/svg">
<rect width="78.8159" height="78.4625" rx="18" fill="white"/>
<path d="M19.2646 53.5508V26.0369H29.7972C31.7855 26.0369 33.438 26.3503 34.7546 26.9773C36.0801 27.5953 37.0698 28.4416 37.7236 29.5164C38.3864 30.5912 38.7178 31.8092 38.7178 33.1706C38.7178 34.2901 38.5028 35.2485 38.0729 36.0456C37.643 36.8337 37.0653 37.4741 36.3399 37.9667C35.6144 38.4593 34.8038 38.8131 33.9082 39.028V39.2967C34.8844 39.3505 35.8204 39.6505 36.716 40.1969C37.6206 40.7342 38.3595 41.4955 38.9327 42.4807C39.5059 43.4659 39.7925 44.6571 39.7925 46.0543C39.7925 47.4784 39.4477 48.7591 38.7581 49.8966C38.0684 51.0251 37.0295 51.9162 35.6413 52.5701C34.253 53.2239 32.5065 53.5508 30.4018 53.5508H19.2646ZM24.2488 49.3861H29.6091C31.4183 49.3861 32.7215 49.0413 33.5186 48.3516C34.3247 47.653 34.7277 46.7574 34.7277 45.6647C34.7277 44.8497 34.5262 44.1153 34.1232 43.4614C33.7201 42.7987 33.1469 42.2792 32.4035 41.903C31.6602 41.5179 30.7735 41.3254 29.7435 41.3254H24.2488V49.3861ZM24.2488 37.7383H29.1792C30.0391 37.7383 30.8138 37.5816 31.5034 37.2681C32.1931 36.9457 32.7349 36.4934 33.129 35.9112C33.532 35.3201 33.7336 34.6215 33.7336 33.8154C33.7336 32.7496 33.3574 31.8719 32.6051 31.1823C31.8617 30.4926 30.7556 30.1478 29.2867 30.1478H24.2488V37.7383ZM54.9836 26.0369H59.9275V45.3826C59.9186 47.1559 59.5424 48.683 58.799 49.9638C58.0557 51.2356 57.0167 52.2163 55.6822 52.9059C54.3567 53.5866 52.8117 53.9269 51.0473 53.9269C49.4352 53.9269 47.9842 53.6403 46.6945 53.0671C45.4138 52.485 44.3972 51.6252 43.6449 50.4877C42.8925 49.3502 42.5164 47.9351 42.5164 46.2424H47.4737C47.4827 46.9858 47.6439 47.6262 47.9574 48.1635C48.2798 48.7009 48.7231 49.1129 49.2874 49.3995C49.8516 49.6861 50.501 49.8294 51.2354 49.8294C52.0325 49.8294 52.7087 49.6637 53.264 49.3323C53.8193 48.992 54.2402 48.4904 54.5269 47.8277C54.8224 47.1649 54.9747 46.3499 54.9836 45.3826V26.0369Z" fill="black"/>
</svg>
