<svg width="112" height="19" viewBox="0 0 112 19" fill="none" xmlns="http://www.w3.org/2000/svg">
<path d="M18.2182 6.85143L12.5834 6.03471L10.0645 0.941833C9.9957 0.802393 9.88251 0.689513 9.7427 0.6209C9.39205 0.44826 8.96594 0.592126 8.79062 0.941833L6.27171 6.03471L0.636907 6.85143C0.481556 6.87356 0.33952 6.9466 0.230775 7.05727C0.0993071 7.19203 0.0268625 7.37333 0.0293593 7.56134C0.0318562 7.74934 0.10909 7.92867 0.24409 8.05991L4.32095 12.024L3.35777 17.6215C3.33518 17.7517 3.34963 17.8856 3.39948 18.0081C3.44932 18.1305 3.53257 18.2366 3.63977 18.3142C3.74698 18.3919 3.87386 18.438 4.00603 18.4474C4.13819 18.4568 4.27035 18.4291 4.38753 18.3674L9.42756 15.7247L14.4676 18.3674C14.6052 18.4404 14.765 18.4648 14.9181 18.4382C15.3043 18.3718 15.5639 18.0066 15.4973 17.6215L14.5342 12.024L18.611 8.05991C18.722 7.95146 18.7952 7.8098 18.8174 7.65487C18.8773 7.26754 18.6066 6.90898 18.2182 6.85143Z" fill="black"/>
<path d="M41.4897 6.85143L35.8549 6.03471L33.336 0.941833C33.2672 0.802393 33.154 0.689513 33.0142 0.6209C32.6635 0.44826 32.2374 0.592126 32.0621 0.941833L29.5432 6.03471L23.9084 6.85143C23.753 6.87356 23.611 6.9466 23.5023 7.05727C23.3708 7.19203 23.2983 7.37333 23.3008 7.56134C23.3033 7.74934 23.3806 7.92867 23.5156 8.05991L27.5924 12.024L26.6293 17.6215C26.6067 17.7517 26.6211 17.8856 26.671 18.0081C26.7208 18.1305 26.804 18.2366 26.9113 18.3142C27.0185 18.3919 27.1453 18.438 27.2775 18.4474C27.4097 18.4568 27.5418 18.4291 27.659 18.3674L32.699 15.7247L37.7391 18.3674C37.8767 18.4404 38.0365 18.4648 38.1896 18.4382C38.5758 18.3718 38.8354 18.0066 38.7688 17.6215L37.8057 12.024L41.8825 8.05991C41.9935 7.95146 42.0667 7.8098 42.0889 7.65487C42.1488 7.26754 41.8781 6.90898 41.4897 6.85143Z" fill="black"/>
<path d="M64.7631 6.85143L59.1283 6.03471L56.6094 0.941833C56.5406 0.802393 56.4274 0.689513 56.2876 0.6209C55.937 0.44826 55.5109 0.592126 55.3355 0.941833L52.8166 6.03471L47.1818 6.85143C47.0265 6.87356 46.8844 6.9466 46.7757 7.05727C46.6442 7.19203 46.5718 7.37333 46.5743 7.56134C46.5768 7.74934 46.654 7.92867 46.789 8.05991L50.8659 12.024L49.9027 17.6215C49.8801 17.7517 49.8946 17.8856 49.9444 18.0081C49.9942 18.1305 50.0775 18.2366 50.1847 18.3142C50.2919 18.3919 50.4188 18.438 50.5509 18.4474C50.6831 18.4568 50.8153 18.4291 50.9324 18.3674L55.9725 15.7247L61.0125 18.3674C61.1501 18.4404 61.3099 18.4648 61.463 18.4382C61.8492 18.3718 62.1088 18.0066 62.0423 17.6215L61.0791 12.024L65.1559 8.05991C65.2669 7.95146 65.3402 7.8098 65.3623 7.65487C65.4223 7.26754 65.1515 6.90898 64.7631 6.85143Z" fill="black"/>
<path d="M88.0327 6.85143L82.3979 6.03471L79.879 0.941833C79.8102 0.802393 79.697 0.689513 79.5572 0.6209C79.2065 0.44826 78.7804 0.592126 78.6051 0.941833L76.0862 6.03471L70.4514 6.85143C70.296 6.87356 70.154 6.9466 70.0452 7.05727C69.9138 7.19203 69.8413 7.37333 69.8438 7.56134C69.8463 7.74934 69.9235 7.92867 70.0585 8.05991L74.1354 12.024L73.1722 17.6215C73.1496 17.7517 73.1641 17.8856 73.2139 18.0081C73.2638 18.1305 73.347 18.2366 73.4542 18.3142C73.5614 18.3919 73.6883 18.438 73.8205 18.4474C73.9526 18.4568 74.0848 18.4291 74.202 18.3674L79.242 15.7247L84.282 18.3674C84.4196 18.4404 84.5794 18.4648 84.7326 18.4382C85.1187 18.3718 85.3784 18.0066 85.3118 17.6215L84.3486 12.024L88.4255 8.05991C88.5364 7.95146 88.6097 7.8098 88.6319 7.65487C88.6918 7.26754 88.421 6.90898 88.0327 6.85143Z" fill="black"/>
<path d="M111.304 6.85143L105.669 6.03471L103.15 0.941833C103.082 0.802393 102.968 0.689513 102.829 0.6209C102.478 0.44826 102.052 0.592126 101.877 0.941833L99.3576 6.03471L93.7228 6.85143C93.5675 6.87356 93.4255 6.9466 93.3167 7.05727C93.1852 7.19203 93.1128 7.37333 93.1153 7.56134C93.1178 7.74934 93.195 7.92867 93.33 8.05991L97.4069 12.024L96.4437 17.6215C96.4211 17.7517 96.4356 17.8856 96.4854 18.0081C96.5353 18.1305 96.6185 18.2366 96.7257 18.3142C96.8329 18.3919 96.9598 18.438 97.092 18.4474C97.2241 18.4568 97.3563 18.4291 97.4735 18.3674L102.513 15.7247L107.554 18.3674C107.691 18.4404 107.851 18.4648 108.004 18.4382C108.39 18.3718 108.65 18.0066 108.583 17.6215L107.62 12.024L111.697 8.05991C111.808 7.95146 111.881 7.8098 111.903 7.65487C111.963 7.26754 111.693 6.90898 111.304 6.85143Z" fill="black"/>
</svg>
