<svg width="54" height="53" viewBox="0 0 54 53" fill="none" xmlns="http://www.w3.org/2000/svg">
<g clip-path="url(#clip0_248_14538)">
<rect x="0.773438" y="0.000976562" width="52.7752" height="52.7752" rx="26.3876" fill="#F7F6F3"/>
<g clip-path="url(#clip1_248_14538)">
<path d="M24.8184 30.324C25.7743 30.9424 26.9063 32.1982 28.1732 31.7071C29.2715 31.2723 28.5068 29.9191 28.2744 29.1432C28.2032 28.9071 27.3898 29.1432 27.4573 29.3606C27.5622 29.698 28.2482 31.1074 27.8771 31.3997C27.506 31.6921 25.9354 30.2565 25.5831 30.0241C25.3694 29.8854 24.6535 30.2153 24.8334 30.324H24.8184Z" fill="#221F1F"/>
<path d="M30.5199 28.8176C31.0446 29.7322 31.6819 30.928 32.9413 30.4369C33.9309 30.0621 33.721 28.9151 33.5373 28.0867C33.4698 27.7831 32.6527 27.9892 32.7202 28.3041C32.7876 28.6189 33.1325 29.8447 32.6714 30.0433C32.1317 30.2795 31.4645 28.8251 31.2733 28.4915C31.1308 28.2441 30.3399 28.4915 30.5236 28.8176H30.5199Z" fill="#221F1F"/>
<path d="M13.6498 29.1658C13.5967 29.6382 13.6401 30.1164 13.7772 30.5715C13.8321 30.7322 13.901 30.8877 13.9834 31.0363C14.2495 31.5896 14.7059 32.0287 15.2691 32.2732C15.529 32.383 15.8049 32.45 16.0862 32.4719C16.4611 32.5056 16.8097 32.4532 17.1845 32.5094C17.297 32.5094 17.3082 32.7343 17.222 32.9442C17.1818 33.0572 17.1105 33.1565 17.0163 33.2308C16.9222 33.305 16.809 33.3512 16.6897 33.364C15.7799 33.3995 14.8905 33.0887 14.2008 32.4944C13.7786 32.1385 13.4341 31.6996 13.1887 31.2049C12.9569 30.6665 12.8394 30.0857 12.8439 29.4994C12.8434 29.1413 12.89 28.7846 12.9826 28.4386C13.0565 28.175 13.1663 27.9228 13.3087 27.6889C13.4591 27.4576 13.6436 27.2504 13.8559 27.0742C14.1825 26.7877 14.5656 26.5732 14.9805 26.4445C15.076 26.4153 15.1738 26.394 15.2728 26.3808C15.6477 26.3583 15.7939 26.4707 15.8014 26.6919C15.807 26.7429 15.807 26.7945 15.8014 26.8456C15.783 26.9239 15.7399 26.9943 15.6785 27.0463C15.6171 27.0982 15.5406 27.1291 15.4602 27.1342C14.9232 27.2514 14.4405 27.5442 14.0883 27.9663C13.8425 28.3259 13.6999 28.7459 13.676 29.1808L13.6498 29.1658Z" fill="#221F1F"/>
<path d="M14.5465 26.8083C14.7414 26.8083 16.4919 26.7033 18.0138 28.57C18.0138 28.57 18.3586 26.3397 17.4852 24.5817C19.6293 24.623 39.7807 26.3772 39.7545 12.9617C39.7545 12.9617 39.9306 7.10298 36.7782 8.04008C35.2039 8.50863 32.6887 10.7389 32.6887 10.7389C32.6887 10.7389 33.2285 7.44034 31.6204 7.48532C29.9074 7.53405 26.6388 11.5111 25.4618 11.1812C23.3327 10.5777 12.3424 8.9322 9.52365 14.4798C7.93808 17.6172 6.28504 22.0703 13.2233 28.6C13.2671 28.2115 13.4125 27.8413 13.6448 27.5268C13.877 27.2123 14.1881 26.9645 14.5465 26.8083Z" fill="#221F1F"/>
<path d="M26.3629 10.3715C27.0039 9.95922 27.6299 9.4307 28.2709 8.92091C28.9198 8.37776 29.6103 7.88646 30.3362 7.45154C30.761 7.18536 31.2519 7.04379 31.7531 7.04297C32.0693 7.06152 32.3679 7.1948 32.5928 7.41781C32.7889 7.61335 32.9366 7.85213 33.0238 8.11501C33.1666 8.55164 33.2362 9.00885 33.23 9.46818V9.63311V9.75306L33.2525 9.73432L33.2937 9.70058L33.3837 9.62936L33.7585 9.34823L34.2421 8.99588C34.897 8.51005 35.605 8.1001 36.3524 7.7739C36.8366 7.5669 37.3703 7.50442 37.8892 7.59398C38.16 7.65684 38.415 7.77418 38.6389 7.93884C38.8491 8.10005 39.0336 8.29214 39.1862 8.50859C39.6887 9.31813 39.9919 10.2354 40.0708 11.1849C40.1737 11.9803 40.1963 12.784 40.1383 13.5839L40.1046 14.1837C40.1046 14.3823 40.0483 14.581 40.0183 14.7797L39.9246 15.3757C39.8797 15.5706 39.8234 15.7505 39.7747 15.9604C39.365 17.5319 38.5553 18.9705 37.4245 20.1361C36.291 21.2652 34.9577 22.174 33.4924 22.8162C32.0482 23.4459 30.5401 23.9173 28.9943 24.2219C26.2677 24.749 23.4948 25.0002 20.7179 24.9715C20.1743 24.9715 19.6308 24.9715 19.0873 24.9491L18.3039 24.9228C18.1966 24.9151 18.0888 24.9151 17.9815 24.9228C18.0115 24.9903 18.0452 25.0578 18.0715 25.1252C18.0977 25.1927 18.094 25.1852 18.109 25.2339L18.1877 25.5001C18.2768 25.8551 18.342 26.2158 18.3826 26.5796C18.3826 26.7595 18.4163 26.9544 18.4201 27.1231C18.4238 27.2918 18.4201 27.6104 18.4201 27.8728C18.4201 28.1352 18.3789 28.4051 18.3489 28.6525L18.2964 29.0273C18.2964 29.0835 18.2964 29.1623 18.2701 29.2072L18.2177 29.2859L17.7679 28.7762L17.5317 28.5138C17.4612 28.4298 17.3848 28.3508 17.3031 28.2776L17.0819 28.079L16.9695 27.9778L16.8945 27.9215C16.797 27.8503 16.7033 27.7753 16.5984 27.7116C16.1901 27.4453 15.7366 27.256 15.2602 27.1531C14.8254 27.0631 14.608 27.0407 14.5555 26.9732C14.503 26.9057 14.6567 26.8158 14.9753 26.7558C15.4603 26.6861 15.9548 26.7323 16.4184 26.8907C16.7526 27.0037 17.0722 27.1559 17.3705 27.3443C17.5542 27.4492 17.5467 27.4155 17.558 27.4043C17.5619 27.3807 17.5619 27.3566 17.558 27.333V27.2281C17.5455 26.8147 17.4966 26.4033 17.4118 25.9986C17.3893 25.9011 17.3705 25.7999 17.3405 25.7025L17.2993 25.5563L17.2731 25.4626C17.2557 25.4062 17.2345 25.3511 17.2094 25.2977C17.0332 24.8628 16.8345 24.4393 16.6546 24.0195L18.69 24.0944L19.8557 24.1319C20.6354 24.1519 21.4138 24.1519 22.191 24.1319C23.7444 24.1041 25.295 23.9877 26.8352 23.7833C29.8939 23.3672 32.9789 22.5688 35.5053 20.8183C36.3701 20.2156 37.1299 19.4748 37.7543 18.6255C38.3794 17.764 38.8302 16.7886 39.0812 15.7542C39.2165 15.2359 39.3142 14.7085 39.3736 14.1762L39.4111 13.3628L39.4298 12.9542C39.4298 12.823 39.4298 12.6881 39.4298 12.5531C39.4325 11.4907 39.2381 10.4371 38.8563 9.44569C38.7722 9.18547 38.6258 8.94974 38.4298 8.75899C38.2338 8.56824 37.9942 8.42824 37.7318 8.35116C37.4619 8.30978 37.186 8.33159 36.9259 8.41488C36.6329 8.51424 36.3494 8.63969 36.0788 8.78972C34.898 9.46443 34.2046 9.97796 32.2817 11.6085C32.3566 11.0987 32.4503 10.5515 32.4878 10.1092C32.4878 9.9967 32.4878 9.8805 32.4878 9.7718C32.4878 9.6631 32.4878 9.5319 32.4878 9.48692C32.4878 9.35573 32.4878 9.22453 32.4878 9.11208C32.4466 8.6098 32.2892 8.07003 31.978 7.92759C31.6669 7.78515 31.1496 7.96882 30.7036 8.22371C30.2221 8.47767 29.7587 8.76448 29.3167 9.0821C28.7282 9.5394 28.1547 10.0192 27.5512 10.4802C27.2472 10.7188 26.9292 10.9391 26.5991 11.14C26.4203 11.2458 26.232 11.3349 26.0368 11.4061C25.9267 11.4446 25.812 11.4685 25.6957 11.4773C25.6286 11.4865 25.5605 11.4865 25.4933 11.4773H25.3884H25.3209C23.881 11.1341 22.4133 10.9209 20.9353 10.8401C19.8119 10.7667 18.685 10.7667 17.5617 10.8401C16.4471 10.891 15.3406 11.0555 14.2594 11.3311C13.7247 11.476 13.2031 11.6653 12.7 11.8971C12.1993 12.1207 11.7273 12.4039 11.2944 12.7405C11.0784 12.9061 10.8731 13.0852 10.6796 13.2765C10.4939 13.4738 10.3211 13.6829 10.1624 13.9025C10.0049 14.1208 9.86339 14.35 9.7388 14.5885C9.61885 14.8434 9.48766 15.0908 9.36396 15.3382C8.99777 16.1089 8.72471 16.9205 8.55056 17.7559C8.39163 18.5795 8.35751 19.4223 8.44935 20.2561C8.71876 21.9265 9.38316 23.5085 10.3873 24.8703C10.8239 25.474 11.2931 26.0534 11.7929 26.6058C12.0628 26.9057 12.299 27.1868 12.5426 27.4155L12.85 27.7266L12.9474 27.8316L13.0149 27.9065L13.0486 27.9478C13.0611 27.8957 13.08 27.8453 13.1049 27.7978C13.1201 27.769 13.1377 27.7414 13.1573 27.7154C13.1756 27.6891 13.1918 27.6615 13.2061 27.6329L13.2735 27.5354C13.3544 27.4231 13.4474 27.32 13.5509 27.2281C13.7012 27.091 13.8806 26.9897 14.0757 26.932C14.2143 26.8843 14.3602 26.8615 14.5068 26.8645C14.6267 26.8645 14.5367 26.9732 14.3268 27.1569C14.1952 27.2676 14.0769 27.3934 13.9745 27.5317C13.906 27.6229 13.847 27.7209 13.7983 27.8241L13.7571 27.9103L13.7046 28.0302C13.6572 28.1606 13.6208 28.2948 13.5959 28.4313C13.4709 28.5133 13.3595 28.6145 13.266 28.7312V28.7574C13.266 28.7574 13.2323 28.7574 13.2136 28.7574H13.1011H12.8687L12.6101 28.5063L12.0628 27.9778C11.9241 27.8391 11.7704 27.7116 11.6392 27.5617C11.3731 27.2693 11.1032 26.9769 10.8371 26.6808C10.5709 26.3847 10.331 26.0548 10.0874 25.7437C9.83557 25.4254 9.60277 25.0924 9.3902 24.7466C8.44169 23.3524 7.84728 21.748 7.65844 20.0724C7.53886 18.3566 7.87373 16.6396 8.62927 15.0945C8.71549 14.8996 8.80545 14.7197 8.89541 14.5248C8.98537 14.3298 9.07908 14.1499 9.19528 13.9513L9.36396 13.6589L9.55888 13.3853C9.68774 13.2009 9.8306 13.0267 9.9862 12.8642C10.5893 12.2309 11.3016 11.7116 12.089 11.3311C12.6658 11.0512 13.2636 10.8168 13.877 10.6302C14.4859 10.4577 15.1042 10.3201 15.7287 10.2179C16.969 10.0297 18.2228 9.94443 19.4771 9.96297C20.7197 9.97912 21.9602 10.0705 23.1918 10.2366C23.8065 10.3228 24.4175 10.424 25.036 10.5552C25.1897 10.5927 25.3434 10.6227 25.5046 10.6677H25.5645H25.5908H25.6133C25.6133 10.6902 25.6133 10.6227 25.6133 10.7164C25.6357 10.6527 25.6133 10.6789 25.6133 10.6752C25.642 10.6773 25.6708 10.6773 25.6995 10.6752C25.9315 10.602 26.1513 10.4946 26.3517 10.3566L26.3629 10.3715Z" fill="#221F1F"/>
<path d="M35.502 39.0692C35.3904 40.166 35.0467 41.2266 34.4937 42.1804C33.8988 43.1627 32.955 43.8842 31.8511 44.2007L31.2626 44.3544L30.6778 44.4481C30.2852 44.4993 29.8892 44.5207 29.4933 44.5119C28.0904 44.466 26.7278 44.0313 25.5575 43.2561C24.4313 42.4906 23.4342 41.5504 22.6038 40.4711C21.8541 39.5415 21.1719 38.5632 20.5197 37.5886C19.68 36.3366 18.8591 35.0771 18.0982 33.7989C17.6109 33.0005 18.9416 33.5291 19.875 35.0022C20.7034 36.2991 21.4943 37.5923 22.3639 38.8255C23.1973 40.065 24.1933 41.1871 25.3251 42.1616C26.0121 42.7351 26.8057 43.167 27.6604 43.4323C28.523 43.6935 29.4285 43.7827 30.3255 43.6947C30.5729 43.6947 30.8203 43.631 31.0752 43.601C31.3301 43.571 31.5437 43.4885 31.7761 43.4211C32.228 43.269 32.6476 43.0338 33.0131 42.7276C33.3815 42.4195 33.6913 42.0474 33.9277 41.6293C34.1622 41.1933 34.3458 40.7317 34.475 40.2537C34.7773 39.0385 34.9035 37.7863 34.8498 36.5353C34.7818 34.6129 34.5877 32.6971 34.2688 30.8002C34.0439 29.3234 33.7478 27.8877 33.5716 26.4034C33.5341 26.0735 33.4929 25.7511 33.4779 25.4175C33.4401 24.967 33.4704 24.5133 33.5678 24.0719C33.602 23.9506 33.6498 23.8337 33.7103 23.7233C33.7623 23.6454 33.8284 23.5781 33.9052 23.5246C33.9634 23.4765 34.0277 23.4361 34.0964 23.4046C34.295 23.3821 34.2126 23.817 34.2276 24.6529C34.3005 25.968 34.4545 27.2775 34.6886 28.5737C34.9098 29.9231 35.1384 31.3025 35.3183 32.6969C35.6415 34.7976 35.7095 36.9297 35.5208 39.0467L35.502 39.0692Z" fill="#221F1F"/>
<path d="M31.8909 43.7958C31.6135 46.0748 29.3082 46.9744 27.2691 46.296C25.3049 45.64 23.9555 43.6721 23.7344 41.6479C23.7344 41.6479 26.9917 45.8162 31.8909 43.7958Z" fill="#221F1F"/>
<path d="M24.7777 43.2902V43.2639L24.7327 43.2114L24.7102 43.1777C24.7054 43.2012 24.7054 43.2254 24.7102 43.2489C24.7133 43.2896 24.7208 43.3298 24.7327 43.3689C24.7327 43.3914 24.7327 43.4176 24.7589 43.4438C24.8055 43.5492 24.858 43.6519 24.9164 43.7512C25.0969 44.0687 25.3119 44.3654 25.5574 44.6358C25.9703 45.1296 26.4808 45.5329 27.0567 45.8203C27.641 46.0978 28.2848 46.2266 28.9309 46.1952C29.4998 46.1745 30.0499 45.9868 30.5127 45.6554C30.798 45.4482 31.0358 45.1823 31.2099 44.8757C31.3881 44.5705 31.5242 44.2427 31.6148 43.9011C31.6822 43.6875 31.8846 43.725 32.0458 43.9686C32.1523 44.1553 32.2083 44.3665 32.2083 44.5815C32.2083 44.7964 32.1523 45.0076 32.0458 45.1943C31.8134 45.6087 31.4981 45.9706 31.1195 46.2576C30.7409 46.5446 30.3072 46.7505 29.8455 46.8624C28.9625 47.083 28.0322 47.0187 27.1879 46.6787C26.1894 46.2891 25.3168 45.6331 24.6652 44.782C24.4909 44.5505 24.3343 44.3062 24.1967 44.0511C24.1217 43.9161 24.0842 43.8299 23.9755 43.6013C23.8668 43.3726 23.8218 43.2039 23.7469 43.0053C23.6719 42.8066 23.6457 42.6304 23.5969 42.4505L23.5032 41.9445L23.4283 41.431L23.3945 41.1611V41.0299V40.9961C23.4083 40.9981 23.4224 40.9955 23.4346 40.9888C23.4468 40.982 23.4564 40.9714 23.462 40.9587C23.494 40.9244 23.5149 40.8813 23.522 40.835C23.9568 41.356 24.3129 41.7721 24.6465 42.1169L25.0963 42.5142C25.169 42.5786 25.2454 42.6386 25.325 42.6942L25.4786 42.8066C26.2673 43.3958 27.1802 43.7971 28.1475 43.9799C28.8823 44.1 29.634 44.0668 30.3553 43.8824C30.5127 43.8412 30.6664 43.7924 30.8239 43.7587C31.4011 43.575 31.5735 43.545 31.8022 43.7062C31.8513 43.7372 31.8977 43.7724 31.9409 43.8112C32.0646 43.9424 31.8659 44.156 31.4123 44.3622L31.1612 44.4747L30.8951 44.5571L30.3516 44.7108C30.1645 44.7492 29.9756 44.778 29.7855 44.797C29.5936 44.8289 29.3992 44.8439 29.2045 44.842C28.4149 44.8577 27.6289 44.7307 26.8843 44.4672C26.3328 44.2648 25.8059 44.0007 25.3137 43.68C25.19 43.6088 25.0776 43.5151 24.9576 43.4326L24.8751 43.3726L24.8414 43.3314L24.7777 43.2902Z" fill="#221F1F"/>
<path d="M52.9194 82.4533C52.2822 83.754 52.1285 88.7768 52.1285 88.7768C48.8224 87.4312 17.5271 83.5853 14.2997 76.6695C10.9524 69.4951 12.924 44.6957 23.0597 46.9672C23.0597 46.9672 22.0289 52.1625 22.31 54.5015C22.31 54.5015 22.9248 53.6994 23.7569 52.7248C23.7157 52.9872 21.0918 70.8895 23.2921 73.4496C26.0771 76.6733 50.0481 81.6474 52.9194 82.4533Z" fill="#221F1F"/>
<path d="M21.782 52.9384C21.8307 51.8776 21.9469 50.888 22.0856 49.876C22.1568 49.3699 22.2318 48.8714 22.318 48.3766L22.4492 47.6269L22.4904 47.402V47.3533H22.4267H22.2693C22.1943 47.3533 22.1193 47.3308 22.0444 47.3308C21.7428 47.3138 21.4404 47.3251 21.141 47.3645C20.5419 47.4457 19.9641 47.6417 19.4392 47.9418C18.3717 48.6085 17.4807 49.5227 16.8416 50.6069C15.4772 52.7847 14.6863 55.3299 14.1278 57.8788C13.5944 60.4708 13.2921 63.105 13.2244 65.7504C13.1369 68.0785 13.2624 70.4097 13.5992 72.7149C13.7603 73.8528 14.0392 74.9708 14.4314 76.051C14.524 76.31 14.6381 76.5608 14.7725 76.8007C14.8399 76.9169 14.9149 77.0293 14.9899 77.138C15.0648 77.2468 15.1548 77.3555 15.2485 77.4567C15.6233 77.8777 16.0446 78.2549 16.5042 78.5812C17.4476 79.2422 18.4517 79.812 19.503 80.283C20.56 80.7827 21.6408 81.2201 22.7453 81.5949C24.9456 82.3858 27.1984 83.0455 29.4662 83.6415C33.492 84.6986 37.6002 85.5457 41.6635 86.3291L46.9375 87.3187C47.8183 87.4836 48.6955 87.6523 49.5613 87.8322C49.9999 87.9222 50.4422 88.0159 50.8808 88.1208C51.0982 88.1696 51.3268 88.2295 51.5367 88.2858C51.622 88.3069 51.7058 88.3332 51.7879 88.3645C51.7986 88.2812 51.8048 88.1973 51.8066 88.1133L51.8441 87.4986C51.8703 87.0601 51.9041 86.6215 51.9416 86.1829C52.0223 85.3026 52.1474 84.4268 52.3164 83.5591C52.3576 83.3716 52.4026 83.2067 52.4401 83.068C52.4776 82.9293 52.5301 82.8131 52.5675 82.7194C52.6613 82.532 52.7362 82.4383 52.7737 82.4308C52.8112 82.4233 52.8037 82.7082 52.7737 83.2254C52.7437 83.7427 52.7175 84.5186 52.6987 85.4745C52.6987 85.9543 52.6987 86.479 52.6763 87.0451C52.6763 87.8322 52.6463 88.6756 52.6275 89.5565L51.8066 89.2679L51.3868 89.1404L51.1507 89.0804L50.2885 88.8818C47.6646 88.3158 44.9695 87.8397 42.3044 87.3149C39.6393 86.7902 36.9667 86.2504 34.3054 85.6432C31.644 85.0359 28.9901 84.3762 26.3625 83.5928C23.7097 82.8367 21.1244 81.8612 18.6333 80.6765C17.8783 80.306 17.1483 79.8865 16.448 79.4208C15.7144 78.9485 15.0582 78.3656 14.5026 77.6928C14.2236 77.3374 13.9976 76.9435 13.8316 76.5233C13.6704 76.1222 13.528 75.7137 13.4081 75.3013C13.1742 74.4788 12.9914 73.6425 12.8608 72.7974C12.3821 69.4308 12.3129 66.0187 12.6546 62.6355C12.8099 60.888 13.0728 59.1517 13.4418 57.4365C13.8106 55.7139 14.3402 54.0298 15.0236 52.4061C15.6926 50.7393 16.7158 49.2378 18.0223 48.0055C18.3709 47.7064 18.7475 47.4415 19.1468 47.2146C19.5507 46.9927 19.9799 46.8203 20.4251 46.7011C20.8718 46.5847 21.3315 46.5255 21.7932 46.5249C22.0226 46.5247 22.2518 46.5397 22.4792 46.5699C22.6365 46.5854 22.7929 46.6091 22.9477 46.6411C23.1127 46.6748 23.2813 46.7011 23.4425 46.7386L23.2663 47.6569L23.1576 48.2717C22.9177 49.6848 22.7153 51.1054 22.6179 52.5223L22.5916 53.0096V53.287C22.5916 53.377 22.5916 53.4632 22.5916 53.5494V53.6806C22.5916 53.6993 22.5916 53.7406 22.5916 53.7331L22.6329 53.6843L24.1922 51.7876L23.9148 53.6618L23.7049 55.2362L23.405 57.6989C22.9857 61.1026 22.7418 64.5257 22.6741 67.9545C22.6741 68.8054 22.6741 69.66 22.7603 70.5034C22.7981 71.3337 22.9689 72.1525 23.2663 72.9286C23.443 73.2768 23.7146 73.5679 24.0498 73.7682C24.3929 74.0024 24.7524 74.2116 25.1255 74.3942C25.8842 74.7655 26.6611 75.0983 27.4533 75.3913C29.9235 76.3134 32.4462 77.0443 34.9501 77.7265C37.454 78.4088 40.0029 79.031 42.5481 79.6382L45.9029 80.4141C50.1011 81.3887 51.428 81.7411 52.2752 82.1721C52.4672 82.2593 52.6537 82.3582 52.8337 82.4683C53.0061 82.5995 52.6688 82.5807 51.9003 82.4683C51.1319 82.3558 49.9174 82.1122 48.3768 81.7786C43.7963 80.7852 39.0996 79.7094 34.3803 78.405C32.0226 77.749 29.6536 77.0518 27.3109 76.186C26.1093 75.7638 24.9498 75.2304 23.8473 74.5929C23.7017 74.5053 23.5615 74.4089 23.4275 74.3043C23.2785 74.1997 23.1403 74.0804 23.0152 73.9482C22.868 73.8111 22.7417 73.6533 22.6404 73.4796C22.5509 73.3161 22.4721 73.1471 22.4042 72.9736C22.1921 72.3434 22.055 71.6904 21.9956 71.0282C21.8517 69.4857 21.8142 67.9352 21.8832 66.3877C21.9319 64.8508 22.0331 63.3215 22.1643 61.7921C22.2955 60.2628 22.4529 58.7447 22.6291 57.2228L22.9102 54.9438L22.9552 54.569V54.5465V54.4977L23.3301 54.0254L23.5287 53.7818L23.6074 53.6881L23.4575 53.868L22.8653 54.5952L22.7191 54.7751L22.5804 54.9288L22.3067 55.2324L22.0294 55.5323L21.8907 55.686C21.8907 55.686 21.8644 55.7272 21.8644 55.7085V55.6522V55.5435L21.7895 54.6777C21.7707 54.3928 21.737 54.1229 21.7332 53.8343V52.9497L21.782 52.9384Z" fill="#221F1F"/>
<path d="M43.4742 80.1031C41.555 79.657 33.3535 77.393 31.1045 76.6658C30.8871 71.0207 30.4972 64.1612 30.8983 53.1859L33.7021 48.5603C37.338 47.5333 40.8203 64.581 43.4742 80.1031Z" fill="#221F1F"/>
<path d="M36.2503 51.7276C35.941 51.0048 35.5445 50.3225 35.0696 49.696C34.8732 49.4267 34.6165 49.2071 34.3199 49.055C34.2602 49.0271 34.1973 49.007 34.1325 48.995H34.05H34.0013C33.9956 48.9917 33.9891 48.99 33.9826 48.99C33.976 48.99 33.9695 48.9917 33.9638 48.995L33.8589 49.1674L31.31 53.2907L31.25 54.79C31.1975 56.1919 31.1825 57.5976 31.1525 58.9995C31.0363 63.9436 31.0926 68.8915 31.2725 73.8394L31.3325 75.4887L31.3624 76.2721V76.3733C31.3588 76.3893 31.3588 76.406 31.3624 76.422H31.4224L31.6661 76.497C32.7119 76.8118 33.7689 77.1117 34.8185 77.4041C37.5173 78.1538 40.2461 78.8472 42.93 79.6269C43.7621 79.8593 43.6084 80.0317 42.84 80.0505C41.5877 80.0204 40.3444 79.8302 39.1404 79.4845C37.7585 79.1096 36.384 78.726 35.0171 78.3337L32.9518 77.734L31.9172 77.4228L31.3774 77.3029L30.9351 77.1604L30.714 77.093L30.6015 77.0555C30.6015 77.0293 30.6015 76.973 30.6015 76.9318C30.554 75.395 30.5066 73.8569 30.4591 72.3175C30.4216 70.8781 30.3991 69.4363 30.3916 67.9919C30.3729 64.5359 30.3354 60.9374 30.4216 57.4027L30.4853 55.2848L30.5678 53.0808L32.5582 49.8422L33.0417 49.0512L33.2854 48.6764L33.3641 48.5452C33.3978 48.4927 33.4278 48.4402 33.4615 48.3915C33.5065 48.2603 33.6527 48.2753 33.7652 48.2453C33.8819 48.2289 33.9997 48.2213 34.1175 48.2228C34.2139 48.2293 34.3093 48.2456 34.4024 48.2716C34.5833 48.3187 34.7554 48.3947 34.9122 48.4965C35.195 48.6848 35.4477 48.9148 35.6618 49.1787C36.3972 50.163 36.9833 51.2505 37.4011 52.4061C37.8472 53.5306 38.2257 54.6551 38.5743 55.8171C39.6164 59.2956 40.4036 62.8528 41.157 66.3688C41.738 69.1014 42.3078 71.7815 42.84 74.4916C42.9562 75.0876 43.0687 75.6723 43.1849 76.2758C43.5972 78.5249 43.6609 79.2333 43.5335 79.7506C43.5155 79.8667 43.4866 79.9809 43.4473 80.0917C43.3198 80.3353 43.0312 79.4432 42.6976 77.8164C41.7005 72.9847 40.7334 67.8794 39.5677 62.8041C39.1329 60.9299 38.6681 59.0557 38.1395 57.1815C37.6456 55.3285 37.0192 53.5134 36.2653 51.7501L36.2503 51.7276Z" fill="#221F1F"/>
<path d="M28.0604 52.0576L27.7755 50.8806L27.6293 50.3146L27.5619 50.0185L27.5356 49.891V49.8573C27.5356 49.8311 27.5356 49.8086 27.5356 49.7861C27.5356 49.7636 27.5056 49.7599 27.4832 49.7636L27.4194 49.7823C27.2595 49.856 27.1086 49.9478 26.9696 50.056C26.7747 50.1984 26.5948 50.3558 26.3924 50.517C26.0148 50.8483 25.6569 51.2012 25.3203 51.5741C25.0216 51.9075 24.7472 52.262 24.4994 52.6349C24.1771 53.1072 23.9147 53.6132 23.5623 54.063C23.3449 54.3554 22.8726 53.5757 23.2475 52.9722C23.8927 51.9268 24.697 50.9884 25.6315 50.1909C25.9163 49.951 26.1975 49.6999 26.5011 49.4412L26.7372 49.2651L26.8609 49.1789L27.0146 49.0851C27.2538 48.925 27.5365 48.8425 27.8243 48.849H27.9929C28.0399 48.859 28.0853 48.8754 28.1279 48.8977L28.4427 50.2621L28.6976 51.3154C28.8176 51.7915 28.9413 52.2675 29.0725 52.7398C29.1774 53.0959 29.2861 53.452 29.4098 53.8006L29.5035 54.0518C29.5196 54.1032 29.5397 54.1533 29.5635 54.2017C29.6027 54.2994 29.6503 54.3935 29.706 54.4828L29.7434 54.5278C29.7434 54.5278 29.7659 54.5765 29.7772 54.5278L29.8372 54.4079L29.9421 54.1867L29.9871 54.0855C29.9934 54.0675 30.0009 54.05 30.0096 54.033L30.0583 53.9356L30.257 53.5607C30.3132 53.4483 30.3657 53.3358 30.4257 53.2234C30.6581 52.8148 30.7817 52.7136 31.0179 52.7398C31.0715 52.734 31.1255 52.734 31.1791 52.7398C31.344 52.7848 31.359 53.021 31.2241 53.3396C31.1191 53.5757 31.0104 53.8119 30.8942 54.048L30.7143 54.4004L30.3582 55.0301C30.2424 55.2355 30.1081 55.43 29.9571 55.6111L29.7547 55.8697C29.7209 55.956 29.6872 55.8697 29.6535 55.821L29.5485 55.6748L29.1549 55.1875L28.8101 54.4866L28.6789 54.1417C28.6377 54.0443 28.6077 53.9468 28.5739 53.8456C28.5065 53.6507 28.4427 53.4708 28.3828 53.2571C28.2591 52.8823 28.1504 52.4737 28.0417 52.0801L28.0604 52.0576Z" fill="#221F1F"/>
<path d="M22.6562 27.6517C22.6562 27.0182 22.6862 26.8795 22.7837 26.8345C23.0922 26.6853 23.4118 26.56 23.7395 26.4597C24.0282 26.3772 24.3318 26.3547 24.6279 26.2948C25.1454 26.18 25.6683 26.0911 26.1947 26.0286C26.3522 26.0286 26.5171 26.0286 26.6783 25.9987C26.8395 25.9687 26.9969 25.9612 27.1693 25.9612C27.1956 25.9612 27.2293 25.9387 27.2518 25.9612C27.3117 26.1443 27.3023 26.343 27.2255 26.5197C27.2255 26.5684 27.1918 26.6434 27.1806 26.6434C27.0644 26.6434 26.9707 27.0182 26.8657 26.992C26.6635 27.0019 26.465 27.0502 26.2809 27.1344C26.2033 27.1581 26.122 27.167 26.0411 27.1607C25.9323 27.1607 25.8236 27.1269 25.7149 27.1232C25.2157 27.1831 24.7219 27.2821 24.2381 27.4193C23.5896 27.588 22.9524 27.7716 22.9036 27.7679C22.8151 27.7436 22.7315 27.7043 22.6562 27.6517Z" fill="#221F1F"/>
<path d="M30.5914 25.9912C30.4677 25.3764 30.4902 25.2415 30.5389 25.204C30.702 25.0894 30.8798 24.9974 31.0674 24.9304C31.2249 24.8779 31.4011 24.8891 31.566 24.8517C31.8471 24.7879 32.1245 24.713 32.4169 24.6492C32.5031 24.6492 32.5893 24.623 32.683 24.6005C32.7767 24.578 32.8554 24.5405 32.9866 24.5143C33.0091 24.5143 33.0391 24.4843 33.0616 24.5143C33.0841 24.5443 33.1028 24.8667 33.0616 25.0766C33.0586 25.1197 33.0511 25.1624 33.0391 25.204C32.9829 25.204 32.9754 25.5788 32.9267 25.5788C32.8779 25.5788 32.728 25.6913 32.6268 25.7475C32.5863 25.7719 32.5389 25.7825 32.4918 25.7775C32.4281 25.7775 32.3606 25.74 32.2969 25.7363C32.1282 25.7138 30.7751 26.1111 30.7376 26.1111C30.7001 26.1111 30.6589 26.0511 30.5914 25.9912Z" fill="#221F1F"/>
<path d="M30.522 29.1361C31.3766 30.0619 32.3212 31.2202 32.771 32.4122C32.8385 32.5884 32.9734 32.8807 32.816 33.0419C32.6585 33.2031 32.1375 33.0419 31.9538 33.0419C31.4477 32.9924 30.9575 32.8379 30.5145 32.5884C30.2333 32.3972 29.5099 32.7908 29.881 33.0457C30.6606 33.5704 33.0484 34.1964 33.6294 33.0981C33.9517 32.4834 33.322 31.5988 33.0184 31.1002C32.5162 30.2782 31.9363 29.5063 31.2866 28.795C31.0467 28.5363 30.2746 28.8587 30.5369 29.1436L30.522 29.1361Z" fill="#221F1F"/>
<path d="M29.4785 37.3823C29.7596 37.0712 29.8534 37.0074 29.8983 37.0374L30.4381 37.2024C30.5788 37.2607 30.7227 37.3107 30.8692 37.3523C31.1032 37.4033 31.3472 37.3837 31.5701 37.2961C31.6326 37.277 31.6907 37.2456 31.7409 37.2037C31.7911 37.1619 31.8324 37.1104 31.8625 37.0524C31.8625 37.0524 31.8625 37.0262 31.885 37.0337C31.9983 37.0921 32.097 37.1754 32.1736 37.2773C32.1736 37.3036 32.2261 37.341 32.2186 37.3485C32.2111 37.356 32.2973 37.6184 32.2186 37.6709C32.0837 37.7534 31.9824 37.9033 31.8438 37.9858C31.786 38.0225 31.7206 38.0456 31.6526 38.0532C31.5664 38.0532 31.4802 38.0532 31.3977 38.0532C31.0413 38.0737 30.6842 38.028 30.3444 37.9183C30.0565 37.8304 29.7817 37.7043 29.5272 37.5435C29.5048 37.5172 29.5048 37.4572 29.4785 37.3823Z" fill="#221F1F"/>
</g>
</g>
<defs>
<clipPath id="clip0_248_14538">
<rect x="0.773438" y="0.000976562" width="52.7752" height="52.7752" rx="26.3876" fill="white"/>
</clipPath>
<clipPath id="clip1_248_14538">
<rect width="52.7752" height="52.7752" fill="white" transform="translate(0.773438 0.000976562)"/>
</clipPath>
</defs>
</svg>
