<svg width="213" height="308" viewBox="0 0 213 308" fill="none" xmlns="http://www.w3.org/2000/svg">
<path d="M36.1639 178.631C35.9385 179.007 35.7062 179.377 35.4807 179.747C35.3988 179.884 35.3373 180.034 35.2416 180.164C34.906 180.63 34.5409 181.074 34.1485 181.493C33.9778 181.684 33.8138 181.876 33.6635 182.081C33.4963 182.382 33.2379 182.622 32.9257 182.766C32.8232 182.8 32.6456 182.54 32.5158 182.252C32.386 181.965 32.2903 181.643 32.3928 181.568C32.7754 181.178 33.1579 180.774 33.6293 180.37C33.8851 180.1 34.0993 179.793 34.2647 179.459C34.4833 179.11 34.7019 178.775 34.9479 178.391C35.0708 178.165 35.2006 177.939 35.3168 177.707C35.5001 177.358 35.6644 176.999 35.8087 176.632C35.9043 176.337 35.959 176.036 36.041 175.742C36.0565 175.675 36.0794 175.611 36.1093 175.55C36.2323 175.331 36.362 175.297 36.6148 175.345L36.7788 175.379C36.8688 175.409 36.9483 175.464 37.0077 175.538C37.0671 175.612 37.1039 175.702 37.1136 175.796C37.182 176.382 37.0774 176.975 36.813 177.501C36.6422 177.898 36.4372 178.289 36.2391 178.679L36.1639 178.631Z" fill="#231F20"/>
<path d="M124.281 132.967C124.089 132.494 123.861 132.036 123.598 131.598C123.496 131.44 123.359 131.303 123.256 131.132C122.88 130.55 122.474 129.988 122.04 129.448C121.83 129.216 121.601 129.001 121.357 128.805C121.034 128.578 120.738 128.314 120.476 128.017C120.401 127.915 120.537 127.743 120.749 127.627C120.858 127.559 120.981 127.516 121.109 127.503C121.237 127.49 121.366 127.507 121.487 127.552C122.236 127.99 122.885 128.58 123.393 129.284C123.694 129.701 124.076 130.078 124.397 130.502C124.745 130.974 125.053 131.473 125.32 131.995C125.488 132.317 125.638 132.649 125.771 132.988C125.968 133.495 126.119 134.02 126.221 134.555C126.276 134.768 126.317 134.987 126.358 135.24C126.407 135.465 126.425 135.695 126.413 135.925C126.423 136.032 126.423 136.139 126.413 136.246C126.374 136.392 126.284 136.518 126.16 136.602C126.029 136.643 125.888 136.643 125.757 136.602C125.688 136.593 125.619 136.58 125.552 136.561C125.443 136.524 125.346 136.458 125.272 136.37C125.179 136.283 125.109 136.175 125.067 136.055C124.896 135.445 124.882 134.959 124.725 134.336C124.612 133.865 124.452 133.406 124.247 132.967H124.281Z" fill="#231F20"/>
<path d="M48.407 117.008C48.8065 116.3 49.3161 115.659 49.9168 115.112L50.6956 114.324L50.8186 114.194L50.8596 114.146C50.8937 114.146 50.9074 114.051 50.8596 114.044C50.8308 114.024 50.7983 114.01 50.7639 114.003L50.4633 113.927C50.236 113.91 50.0075 113.91 49.7802 113.927C48.8617 114.01 47.9598 114.224 47.1021 114.564C46.1833 114.901 45.2458 115.185 44.2942 115.413C43.4047 115.62 42.4765 115.589 41.6025 115.324C41.2938 115.245 41.0055 115.101 40.7569 114.902C40.5082 114.702 40.3051 114.452 40.161 114.167C39.9255 113.583 39.9255 112.93 40.161 112.346C40.2908 111.997 40.4753 112.127 40.5982 112.449C40.7212 112.77 40.8374 113.284 40.9672 113.667C41.0335 113.849 41.1406 114.014 41.2804 114.148C41.4202 114.282 41.5888 114.382 41.7733 114.441C42.2244 114.605 42.7008 114.688 43.1807 114.687C44.2382 114.599 45.2792 114.369 46.2755 114.003C46.9176 113.804 47.5667 113.558 48.2498 113.359C48.9593 113.13 49.7073 113.047 50.4497 113.113C50.6241 113.129 50.796 113.166 50.9621 113.222C51.1999 113.292 51.4291 113.388 51.6452 113.51L51.8707 113.722C51.931 113.81 51.9555 113.918 51.939 114.023C51.8964 114.245 51.7976 114.453 51.6521 114.626C51.5361 114.769 51.413 114.906 51.2832 115.036L50.9689 115.365C50.5453 115.796 50.1218 116.214 49.7528 116.659C49.4759 116.957 49.2723 117.316 49.1585 117.706C49.1406 117.776 49.1433 117.849 49.1664 117.917C49.1894 117.986 49.2318 118.045 49.2883 118.09L49.5069 118.281L49.7802 118.425C50.3981 118.69 51.0621 118.83 51.7341 118.836C52.4178 118.869 53.1031 118.848 53.7836 118.774C54.8393 118.645 55.8864 118.453 56.9194 118.199L57.6026 118.028C58.4565 117.823 58.7298 117.775 58.9689 117.857C59.0167 117.857 59.0782 117.891 59.1124 117.912C59.1465 117.932 58.9074 118.179 58.2926 118.398C56.3855 119.106 54.3806 119.515 52.3489 119.61C51.5375 119.657 50.7236 119.576 49.9373 119.37C49.723 119.31 49.5148 119.23 49.3156 119.13C49.2131 119.069 49.1107 119.028 49.015 118.959L48.7212 118.72C48.5955 118.614 48.4925 118.483 48.4186 118.336C48.3446 118.189 48.3011 118.028 48.2908 117.864C48.2779 117.583 48.3342 117.303 48.4548 117.049L48.407 117.008Z" fill="#231F20"/>
<path d="M75.179 110.949C75.5917 110.807 75.9808 110.604 76.3336 110.346C76.4251 110.265 76.5014 110.167 76.559 110.059C76.7708 109.758 76.4429 109.196 76.0466 108.779C75.865 108.583 75.6661 108.404 75.4523 108.245C75.1576 108.052 74.889 107.822 74.653 107.56C74.5163 107.389 75.1039 107.108 75.4181 107.341C76.037 107.765 76.5644 108.31 76.9689 108.943C77.1075 109.17 77.2046 109.421 77.2559 109.682C77.299 109.979 77.2255 110.281 77.0509 110.524C76.7068 110.932 76.2648 111.246 75.7665 111.435C75.4933 111.565 75.22 111.675 74.9467 111.791C74.6735 111.907 74.3524 112.044 74.2635 112.099L74.1542 112.161C74.1542 112.161 74.0791 112.209 74.1542 112.243C74.2229 112.314 74.3039 112.372 74.3934 112.414L74.4617 112.448L74.571 112.524C74.6426 112.577 74.711 112.634 74.7759 112.695C74.8399 112.744 74.8993 112.799 74.9536 112.859C75.1585 113.092 75.1653 113.229 75.0765 113.359C74.9877 113.489 75.0355 113.42 75.0082 113.441C74.9809 113.461 74.7896 113.441 74.6393 113.366C74.489 113.29 74.4139 113.222 74.2909 113.153C74.1679 113.085 74.1611 113.092 74.0996 113.051L74.0108 112.989L73.84 112.859C73.594 112.688 73.3549 112.469 73.3276 112.277C73.3003 112.085 73.4437 111.873 73.5735 111.702L73.676 111.647L73.9834 111.483L74.1406 111.401L74.2362 111.353L74.571 111.202L75.2542 110.915L75.179 110.949Z" fill="#231F20"/>
<path d="M68.5058 124.895C68.4443 124.737 68.4716 125.032 68.3691 125.107C68.3388 125.128 68.3068 125.146 68.2735 125.162C68.2393 125.128 68.212 125.121 68.1915 125.073L68.2325 124.861C68.2492 124.814 68.2813 124.774 68.3235 124.748C68.3657 124.722 68.4155 124.711 68.4648 124.717C68.4648 124.669 68.6424 124.799 68.4648 124.669C68.3928 124.617 68.3108 124.58 68.2239 124.562C68.1371 124.543 68.0473 124.543 67.9604 124.562C67.8735 124.58 67.7915 124.617 67.7195 124.669C67.6476 124.721 67.5874 124.788 67.5428 124.865C67.4981 124.942 67.4701 125.027 67.4605 125.116C67.4508 125.204 67.4598 125.294 67.4868 125.378C67.5138 125.463 67.5583 125.541 67.6173 125.608C67.6763 125.674 67.7485 125.728 67.8294 125.764C67.9388 125.846 68.0632 125.906 68.1956 125.94C68.328 125.973 68.4658 125.981 68.6009 125.961C68.7361 125.941 68.8661 125.895 68.9834 125.825C69.1007 125.755 69.203 125.662 69.2846 125.552C69.4165 125.334 69.4657 125.076 69.423 124.824C69.3804 124.573 69.2488 124.345 69.0523 124.183C68.3008 123.539 66.8593 124.183 67.3102 125.237C67.3565 125.399 67.4638 125.535 67.6093 125.618C67.7548 125.702 67.9269 125.724 68.089 125.682C68.2497 125.636 68.3857 125.528 68.4676 125.382C68.5494 125.236 68.5705 125.063 68.5262 124.902L68.5058 124.895Z" fill="#231F20"/>
<path d="M141.769 239.302C142.441 239.321 143.095 239.522 143.661 239.884C143.819 239.98 143.743 240.137 143.532 240.117C143.115 240.082 142.705 240.021 142.288 240C141.49 239.947 140.689 239.947 139.89 240C138.818 240.11 137.762 240.339 136.741 240.685C135.482 241.119 134.266 241.666 133.106 242.321C130.732 243.692 128.526 245.338 126.534 247.223L125.168 248.462C123.627 249.897 122.181 251.429 120.837 253.049C120.611 253.316 120.372 253.59 120.153 253.864L118.029 256.602L115.883 259.471C114.756 260.929 113.684 262.435 112.638 263.962C112.488 264.174 112.345 264.421 112.187 264.606C111.837 265.039 111.517 265.496 111.231 265.975C110.807 266.659 110.384 267.303 109.96 267.981L109.277 268.953C109.079 269.24 109.1 269.035 109.147 268.919C109.304 268.597 109.147 268.83 109.072 268.837C108.997 268.843 109.031 268.837 109.031 268.837L109.12 268.652L109.359 268.172C109.571 267.775 109.844 267.248 110.117 266.714C110.684 265.639 111.327 264.537 111.484 264.325L112.078 263.366L113.376 261.313C114.353 259.82 115.426 258.287 115.638 257.978C115.849 257.67 116.109 257.335 116.362 257.027C116.416 256.952 117.229 255.829 118.076 254.726C118.924 253.624 119.805 252.536 119.88 252.46C120.578 251.595 121.323 250.77 122.114 249.989C122.271 249.838 122.421 249.667 122.572 249.503C123.875 248.096 125.262 246.77 126.725 245.532C127.463 244.895 128.228 244.272 129.007 243.677L129.451 243.375L130.005 242.999C131.911 241.632 134.005 240.55 136.222 239.788L136.905 239.576C137.219 239.487 137.588 239.425 138.005 239.35C138.377 239.275 138.753 239.225 139.132 239.199C139.474 239.199 139.747 239.124 139.904 239.131C140.061 239.138 140.457 239.131 140.826 239.172C141.195 239.213 141.612 239.336 141.769 239.302Z" fill="#231F20"/>
<path d="M181.394 266.947C181.82 267.281 182.143 267.73 182.323 268.241C182.333 268.276 182.332 268.313 182.32 268.347C182.308 268.381 182.287 268.411 182.258 268.433C182.229 268.454 182.194 268.466 182.158 268.468C182.122 268.469 182.087 268.459 182.056 268.44C181.769 268.262 181.476 268.084 181.195 267.892L180.683 267.502L179.617 266.783C178.893 266.337 178.14 265.939 177.363 265.592C176.446 265.164 175.483 264.843 174.494 264.633C173.502 264.45 172.488 264.42 171.488 264.544C170.483 264.713 169.504 265.005 168.57 265.414C168.167 265.626 167.737 265.79 167.327 266.016C165.897 266.783 164.6 267.778 163.487 268.96C163.284 269.143 163.101 269.347 162.941 269.569C162.818 269.754 161.998 270.651 161.226 271.623C160.454 272.595 159.723 273.643 159.539 273.869C158.651 275.019 157.844 276.238 157.052 277.463C156.949 277.645 156.832 277.819 156.704 277.983C156.418 278.333 156.172 278.715 155.973 279.12L155.037 280.763C154.879 281.03 154.695 281.283 154.524 281.543C154.353 281.804 154.333 281.591 154.36 281.496C154.449 281.222 154.299 281.407 154.244 281.407C154.189 281.407 154.196 281.407 154.189 281.407L154.244 281.242L154.388 280.845L154.859 279.62C155.207 278.709 155.631 277.785 155.727 277.607L156.137 276.806C156.382 276.34 156.71 275.717 157.072 275.101C157.756 273.855 158.603 272.602 158.767 272.363C158.948 272.096 159.145 271.84 159.354 271.596C159.395 271.541 160.037 270.617 160.721 269.741C161.404 268.864 162.183 268.008 162.251 267.947C162.565 267.625 162.879 267.296 163.221 266.995C163.549 266.677 163.909 266.393 164.294 266.146C164.445 266.042 164.589 265.928 164.724 265.804C165.965 264.804 167.364 264.019 168.864 263.483L170.046 263.12C170.449 263.031 170.859 262.956 171.269 262.881C171.419 262.881 171.57 262.881 171.72 262.881H172.287C174.241 262.852 176.172 263.306 177.909 264.202C178.005 264.25 178.196 264.359 178.422 264.496L178.798 264.715L179.173 265.003C179.679 265.4 180.191 265.79 180.376 265.961C180.56 266.133 181.202 266.797 181.394 266.947Z" fill="#231F20"/>
<path d="M85.1747 301.528C81.2276 301.717 77.2962 302.153 73.4036 302.835L71.2789 303.26L69.1679 303.739C66.688 304.28 64.249 305.006 61.7417 305.649C59.2421 306.304 56.7111 306.831 54.1585 307.231C51.8966 307.585 49.6149 307.797 47.3267 307.867C44.3863 307.986 41.4425 307.742 38.5615 307.142C37.6734 306.95 37.8783 306.621 38.6708 306.409C39.9376 306.146 41.2374 306.082 42.5239 306.217C45.4157 306.471 48.3247 306.457 51.214 306.176C54.131 305.863 57.0263 305.372 59.8835 304.704C63.2994 303.951 66.8792 302.651 70.4932 301.966C74.4492 301.109 78.4601 300.53 82.4967 300.234C83.7332 300.111 84.9835 300.097 86.22 300.022C87.4566 299.946 88.7068 299.967 89.9502 299.946C93.7145 299.946 97.4651 300.179 101.202 300.521C104.085 300.775 106.92 301.069 109.755 301.48L111.627 301.761C113.95 302.185 114.661 302.445 115.084 302.897C115.187 302.986 115.28 303.085 115.364 303.191C115.535 303.493 114.545 303.52 112.843 303.301C107.808 302.616 102.507 301.932 97.1304 301.624C93.1514 301.384 89.1621 301.37 85.1816 301.583L85.1747 301.528Z" fill="#231F20"/>
<path d="M78.0156 295.612C76.1164 295.653 42.3264 301.397 46.6304 305.881C48.6253 307.983 74.4562 302.054 76.4989 299.932C77.5989 298.816 77.6398 296.858 78.0156 295.612Z" fill="#231F20"/>
<path d="M54.8753 306.819C53.5089 307.004 52.1426 307.155 50.6942 307.237C49.9774 307.275 49.2591 307.275 48.5422 307.237C48.1577 307.226 47.7742 307.189 47.3945 307.127C47.1627 307.088 46.9343 307.031 46.7113 306.956C46.4252 306.856 46.1642 306.695 45.9462 306.484C45.6808 306.222 45.4945 305.89 45.4087 305.527C45.3229 305.163 45.3411 304.783 45.4611 304.43C45.6692 303.883 46.0296 303.408 46.4995 303.061C47.6282 302.24 48.8743 301.596 50.1955 301.15C51.3023 300.746 52.4159 300.404 53.5294 300.089C54.643 299.774 55.7566 299.446 56.877 299.158C59.111 298.576 61.3655 298.09 63.6268 297.625C65.6285 297.214 67.6371 296.776 69.6251 296.392C72.1776 295.824 74.7699 295.453 77.3792 295.283C77.7891 295.283 77.994 295.324 77.9804 295.4C77.9667 295.475 77.7754 295.591 77.4543 295.749C77.1332 295.906 76.6687 296.105 76.088 296.324C75.8079 296.433 75.5073 296.55 75.1794 296.659L74.6806 296.824L74.1478 296.94C68.9693 298.015 63.7703 298.994 58.5781 300.123C57.0205 300.466 55.4492 300.863 53.8984 301.356C52.3614 301.851 50.8556 302.438 49.3894 303.115C48.7029 303.426 48.0542 303.814 47.456 304.272C47.2388 304.435 47.0594 304.643 46.9299 304.882C46.9032 304.956 46.8986 305.036 46.9168 305.113C46.9351 305.189 46.9752 305.259 47.0324 305.313C47.0871 305.429 47.5448 305.525 47.982 305.566C48.4474 305.611 48.9153 305.625 49.3825 305.607C50.339 305.607 51.3091 305.505 52.2724 305.402C54.4517 305.162 56.6379 304.813 58.8036 304.416C62.0828 303.793 65.3757 303.088 68.573 302.198C69.8118 301.856 71.0256 301.468 72.2144 301.034C73.3776 300.642 74.5046 300.15 75.5824 299.562C75.6879 299.497 75.7864 299.421 75.8762 299.336C76.047 299.115 76.1893 298.874 76.2998 298.617C76.6414 297.816 76.7507 297.132 76.942 296.687C77.0513 296.313 77.2947 295.994 77.6251 295.79C77.7476 295.704 77.8808 295.635 78.0214 295.584C78.2263 295.55 78.3356 295.749 78.3971 296.125C78.4616 296.726 78.4362 297.333 78.322 297.926C78.1901 298.905 77.7878 299.827 77.1606 300.589C76.9223 300.835 76.6482 301.042 76.3476 301.205C76.1016 301.356 75.8625 301.472 75.6303 301.589C75.1589 301.815 74.6943 302.006 74.2229 302.191C73.287 302.561 72.3373 302.876 71.3809 303.177C69.4612 303.773 67.5073 304.279 65.5397 304.745C62.0054 305.58 58.4324 306.265 54.8206 306.799L54.8753 306.819Z" fill="#231F20"/>
<path d="M78.925 295.749C80.8106 295.509 113.084 296.708 110.228 300.48C108.486 302.801 82.6552 301.637 80.3323 299.829C79.7217 299.365 79.2622 298.729 79.0117 298.003C78.7612 297.277 78.7311 296.492 78.925 295.749Z" fill="#231F20"/>
<path d="M101.852 300.705C103.219 300.705 104.585 300.705 105.951 300.582C106.635 300.527 107.318 300.473 107.953 300.363C108.266 300.318 108.576 300.256 108.882 300.178C108.967 300.163 109.047 300.133 109.121 300.089C109.154 300.073 109.179 300.045 109.192 300.01C109.205 299.976 109.204 299.938 109.19 299.904C109.157 299.838 109.104 299.783 109.039 299.747H108.992L108.834 299.665C108.705 299.617 108.582 299.548 108.445 299.5C108.179 299.391 107.898 299.302 107.612 299.213C107.045 299.035 106.45 298.884 105.856 298.734C104.804 298.474 103.731 298.254 102.652 298.049C101.572 297.844 100.479 297.72 99.3861 297.577C97.1999 297.296 95.0069 297.05 92.8071 296.851C90.86 296.673 88.8856 296.57 86.9454 296.481L83.1948 296.324C81.9514 296.324 80.7011 296.125 79.4646 296.057C79.0752 296.057 78.9249 295.981 78.9249 295.906C78.9249 295.831 79.1093 295.708 79.4373 295.584C79.8839 295.429 80.3404 295.303 80.8036 295.208C81.0906 295.146 81.398 295.085 81.7328 295.037L82.2383 294.968H82.7712C87.9361 294.97 93.0948 295.327 98.211 296.036L102.891 296.721C104.489 296.917 106.075 297.207 107.639 297.59C107.994 297.686 108.356 297.789 108.711 297.912L109.251 298.111C109.45 298.191 109.643 298.283 109.832 298.385C110.334 298.621 110.748 299.012 111.014 299.5C111.11 299.741 111.136 300.005 111.089 300.26C111.034 300.514 110.917 300.749 110.747 300.945C110.605 301.073 110.452 301.187 110.29 301.287C110.132 301.402 109.957 301.49 109.77 301.547L109.49 301.65L109.251 301.725L108.855 301.821C108.322 301.938 107.796 302.013 107.277 302.075C106.238 302.191 105.227 302.253 104.175 302.301C102.023 302.383 99.8711 302.369 97.7328 302.301C94.4877 302.225 91.2358 302.02 88.0248 301.76C86.7746 301.657 85.5312 301.561 84.2947 301.438C83.673 301.369 83.0513 301.301 82.4228 301.198C81.7626 301.11 81.1127 300.956 80.4825 300.74C79.7639 300.43 79.1535 299.913 78.7289 299.255C78.3043 298.596 78.0848 297.826 78.0982 297.043C78.0982 296.838 78.1465 296.637 78.2391 296.455C78.3317 296.273 78.4661 296.115 78.6311 295.995C78.7495 295.905 78.8779 295.83 79.0137 295.769C79.2186 295.721 79.3348 295.92 79.4373 296.255C79.5423 296.719 79.6746 297.176 79.8335 297.625C79.9822 298.018 80.2155 298.373 80.5167 298.665C80.6561 298.81 80.8147 298.934 80.9881 299.035H81.0496L81.1794 299.076C81.2842 299.115 81.3915 299.147 81.5005 299.172C82.5523 299.41 83.6178 299.584 84.6909 299.692C86.9181 299.952 89.2204 300.144 91.5227 300.295C94.9386 300.521 98.4091 300.671 101.839 300.644L101.852 300.705Z" fill="#231F20"/>
<path d="M42.6133 168.957C42.6133 168.957 57.2196 261.765 57.8413 265.023C58.463 268.282 64.6731 297.331 64.6731 297.331L78.8969 295.749C78.8969 295.749 89.3085 294.079 91.0028 295.195C91.0028 295.195 89.6911 217.038 88.2701 207.234L84.8542 167.526C79.8788 170.012 74.6274 171.899 69.2094 173.147C59.5219 175.468 42.6133 168.957 42.6133 168.957Z" fill="#231F20"/>
<path d="M19.9598 73.2812C19.9598 73.2812 16.2843 75.828 15.3893 75.7733C14.4944 75.7185 14.7813 79.0047 19.1195 79.3881C21.7414 78.7957 24.0639 77.2798 25.6643 75.116C25.6643 75.116 19.5772 75.383 19.9598 73.2812Z" fill="#231F20"/>
<path d="M16.9131 63.5116C16.9131 63.5116 17.5143 60.1433 21.7705 61.3003C26.0267 62.4573 28.1719 67.1812 30.0096 66.8389C30.0096 66.8389 33.9174 66.8389 33.2752 65.7093C32.633 64.5796 27.1266 57.4938 27.4819 50.7092C27.4819 50.7092 26.9695 46.0195 29.0122 43.1783C29.0122 43.1783 52.7868 41.1793 58.6006 37.6398C83.6186 22.3453 67.154 4.59305 65.6237 3.10742C65.6237 3.10742 61.9072 8.37901 57.9448 10.4603C57.9448 10.4603 42.7236 3.53189 33.3914 10.9121C30.5647 13.0904 28.2109 15.8232 26.4736 18.9437C24.7363 22.0642 23.6521 25.5069 23.2872 29.0614C23.2872 29.0614 13.5655 28.7602 9.22734 31.8958C9.22734 31.8958 2.39556 36.0035 1.71239 43.1441C1.02921 50.2847 5.46303 60.513 16.9131 63.5116Z" fill="#231F20"/>
<path d="M63.5521 90.0135C61.9564 90.6833 60.2581 91.0746 58.5308 91.1706C56.8441 91.2393 55.1552 91.1176 53.4957 90.8077L51.7126 90.4243C51.1251 90.26 50.5307 90.1231 49.9637 89.9177C47.9494 89.2298 46.0105 88.3374 44.1772 87.2545C42.3786 86.1564 40.6595 84.9325 39.0329 83.5918C37.5568 82.4345 36.1726 81.1641 34.8928 79.7921C34.0752 78.9007 33.3412 77.9359 32.6998 76.9099C32.0455 75.8996 31.5587 74.7899 31.2583 73.6237C31.0738 72.8912 31.3061 72.9391 31.8048 73.3909C32.0508 73.6237 32.3787 73.9523 32.7613 74.3357C33.149 74.7827 33.5051 75.2562 33.827 75.7529C34.4494 76.7187 35.146 77.6343 35.9107 78.4914C36.6661 79.3614 37.4738 80.1845 38.3292 80.956C40.0829 82.5261 41.9309 83.9871 43.8629 85.3307C46.2736 86.9067 48.9218 88.0833 51.7058 88.8155C54.7163 89.7358 57.9104 89.8772 60.9902 89.2262C62.8452 88.7793 64.5565 87.8677 65.9637 86.5767C66.9871 85.5693 67.7655 84.3395 68.2387 82.9825C68.7029 81.5914 68.9472 80.1361 68.9629 78.6694C68.9393 76.3791 68.7727 74.0926 68.4642 71.8231C68.4163 71.3097 68.3549 70.8167 68.3207 70.2964C68.2797 68.3726 68.4368 67.7428 68.6896 67.3252C68.7365 67.2316 68.7914 67.1423 68.8536 67.0582C69.038 66.8802 69.202 67.6469 69.4958 69.0025C69.728 70.0089 69.9125 71.0564 70.0901 72.0833L70.3634 73.6716C70.4385 74.2125 70.4864 74.7533 70.5342 75.301C70.7677 77.5864 70.6595 79.8939 70.2131 82.1472C69.8343 83.9209 69.0379 85.5781 67.8903 86.9807C66.7174 88.3539 65.2415 89.4345 63.5794 90.1368L63.5521 90.0135Z" fill="#231F20"/>
<path d="M68.5729 62.45C68.3193 61.8059 67.946 61.2158 67.473 60.711C66.9523 60.1199 66.3907 59.5663 65.7924 59.0542C65.3483 58.6709 64.8633 58.3696 64.426 57.9588C62.7932 56.6375 61.0648 55.371 59.391 54.0086C58.6463 53.3993 57.888 52.8036 57.1775 52.1464C56.6982 51.7279 56.2694 51.2546 55.9 50.7361C55.5021 50.1843 55.2655 49.5324 55.2168 48.8534C55.2168 48.4084 55.4832 48.5042 55.7975 48.7644C56.1938 49.0733 56.5619 49.417 56.8974 49.7913C57.6427 50.6558 58.471 51.4446 59.3705 52.1464L62.2399 54.3988C63.3944 55.3299 64.7266 56.1241 65.9563 57.0551C67.3872 58.0622 68.6506 59.2891 69.7002 60.6905C70.0333 61.1837 70.2805 61.7301 70.4312 62.3062L70.52 62.7854C70.5311 62.9784 70.515 63.172 70.4722 63.3605C70.387 63.7067 70.2181 64.0264 69.9803 64.2916C69.3689 64.9473 68.5887 65.4211 67.7258 65.6608C66.9304 65.9065 66.1052 66.0424 65.2732 66.0648C63.9915 66.1228 62.7099 65.9512 61.4884 65.5582C61.2151 65.4692 60.9555 65.3733 60.6891 65.2569C59.7463 64.764 59.5755 64.3943 59.6643 63.8877C59.6806 63.7741 59.7057 63.6619 59.7394 63.5522C59.8829 63.2031 60.3611 63.2167 60.9965 63.4153C61.8991 63.7483 62.8365 63.978 63.7907 64.0999C64.7268 64.2046 65.6733 64.1676 66.5985 63.9904C67.2194 63.8824 67.812 63.6495 68.3406 63.3057C68.4718 63.2154 68.5853 63.1017 68.6754 62.9703C68.6754 62.9703 68.6754 62.9703 68.6754 62.8607C68.6606 62.7293 68.6285 62.6003 68.5798 62.4774L68.5729 62.45Z" fill="#231F20"/>
<path d="M65.4723 51.5583C65.5308 52.1159 65.5308 52.6781 65.4723 53.2356C65.4352 53.9063 65.1837 54.5472 64.755 55.0636C64.398 55.4615 63.9158 55.7248 63.3886 55.8098C62.6107 55.873 61.8329 55.686 61.1683 55.2758C60.5842 54.9413 60.0349 54.5491 59.5287 54.1051L58.217 52.9755C57.6538 52.513 57.1532 51.9791 56.7276 51.3872C56.5978 51.1955 56.7686 51.0654 57.0624 51.0448C57.4338 51.0134 57.8043 51.1153 58.1076 51.3324C59.2212 52.2566 60.2596 53.2219 61.3732 53.9887C61.6955 54.2064 62.0578 54.3577 62.439 54.4337C62.7528 54.5021 63.0795 54.4807 63.3818 54.3721C63.9215 54.2283 64.1059 53.3315 64.065 52.4072C64.0167 51.8235 63.9231 51.2443 63.7848 50.6752C63.5791 49.7852 63.3236 48.9075 63.0197 48.0462C62.7737 47.3616 62.4253 46.7523 62.1521 46.0813C62.0974 45.9307 62.0359 45.7801 61.9949 45.6226C61.8241 45.027 61.9471 44.7463 62.275 44.5752C62.3436 44.5388 62.4143 44.5068 62.4868 44.4793C62.5485 44.4679 62.6118 44.4693 62.673 44.4834C62.7341 44.4976 62.7916 44.5241 62.8421 44.5615C62.9909 44.6452 63.1138 44.7684 63.1973 44.9175L63.6824 45.7185C63.819 45.9992 63.9556 46.2936 64.0854 46.5948C64.3451 47.2018 64.5728 47.8317 64.7686 48.4844C65.0881 49.4817 65.3167 50.506 65.4518 51.5446L65.4723 51.5583Z" fill="#231F20"/>
<path d="M54.1662 58.3016C54.0667 59.1248 53.7077 59.8947 53.1415 60.4993C52.8298 60.796 52.4631 61.0287 52.062 61.1839C51.6951 61.3178 51.3109 61.3985 50.9211 61.4235C50.3908 61.476 49.8554 61.4414 49.3362 61.3208C48.4879 61.0972 47.6917 60.7088 46.9929 60.1775C46.325 59.6952 45.705 59.1495 45.1415 58.5481C44.6496 58.0209 44.1508 57.5075 43.7068 56.9529C43.0978 56.2714 42.5894 55.506 42.1969 54.68C42.0808 54.4198 42.2858 54.3514 42.6 54.4404C43.0037 54.5659 43.3637 54.8032 43.6385 55.125C44.7747 56.4276 46.0204 57.6301 47.3618 58.7193C48.1498 59.3448 49.096 59.7383 50.0945 59.8557C50.5782 59.933 51.0737 59.8787 51.5292 59.6983C51.7326 59.613 51.9149 59.4842 52.0636 59.3211C52.2123 59.1579 52.3236 58.9642 52.39 58.7535C52.5956 58.1085 52.6608 57.4268 52.5813 56.7544C52.4701 55.6424 52.2411 54.5453 51.8981 53.4819C51.6453 52.6398 51.2696 51.8525 50.9553 51.0104C50.8733 50.8301 50.8092 50.642 50.764 50.449C50.6137 49.7028 50.764 49.381 51.1261 49.1893C51.2024 49.1395 51.2852 49.1004 51.372 49.0729C51.4425 49.0575 51.5158 49.0601 51.585 49.0804C51.6542 49.1007 51.7173 49.1382 51.7683 49.1893C51.9391 49.3114 52.0775 49.4736 52.1714 49.6617C52.5642 50.3438 52.8869 51.064 53.1346 51.8114C53.4253 52.6026 53.6716 53.4094 53.8725 54.2281C54.2209 55.5536 54.3342 56.9301 54.2072 58.2948L54.1662 58.3016Z" fill="#231F20"/>
<path d="M18.8804 60.0341C19.8328 59.6419 20.8669 59.4904 21.8915 59.5931C22.9161 59.6958 23.8997 60.0494 24.7558 60.6228C25.47 61.2032 26.1412 61.8347 26.7643 62.5124C27.3408 63.1053 27.9522 63.6631 28.5952 64.1829C29.0348 64.5427 29.5111 64.8548 30.0162 65.114C30.45 65.3587 30.9335 65.5015 31.4304 65.5316C31.6181 65.5455 31.8069 65.5316 31.9906 65.4905C32.2024 65.4015 32.2571 65.4152 32.3185 65.3604C32.38 65.3056 32.4757 65.2783 32.4484 65.1893C32.4292 65.0984 32.397 65.0107 32.3527 64.9291C31.8881 64.0117 31.2733 63.0532 30.7199 62.0879C29.5416 60.1621 28.5379 58.1344 27.7208 56.029C26.9702 54.14 26.5096 52.148 26.3544 50.1207C26.1576 47.4879 26.8824 44.8685 28.4039 42.7131C28.889 42.0696 28.9778 42.2818 28.8343 42.9596C28.6909 43.6374 28.4108 44.8149 28.1102 46.1294C27.6078 48.4904 27.6994 50.9396 28.3766 53.2563C29.0985 55.6419 30.0862 57.9385 31.3211 60.1025C32.0043 61.4718 32.9129 62.7109 33.7396 64.2103C33.9215 64.4671 34.0441 64.7614 34.0984 65.0716C34.1528 65.3819 34.1375 65.7003 34.0538 66.004C33.8455 66.2321 33.6168 66.4406 33.3706 66.627C33.1342 66.8153 32.8657 66.9591 32.5781 67.0514C31.6324 67.3475 30.6109 67.2842 29.7088 66.8734C27.8779 66.0861 26.6072 64.758 25.3706 63.5119L24.4688 62.574C24.3185 62.4302 24.1819 62.3275 24.0384 62.1975C23.9026 62.0662 23.7484 61.9555 23.5807 61.8688C22.9434 61.4445 22.2003 61.2073 21.4355 61.1842C20.4762 61.1289 19.5224 61.3645 18.6987 61.8603C17.8749 62.3561 17.2192 63.0891 16.8172 63.9638C16.547 64.6411 16.4553 65.3767 16.5508 66.0998L16.7421 67.2431L17.0973 68.3385C17.6393 69.7661 18.6421 70.971 19.9462 71.7616C20.964 72.3235 22.0985 72.6396 23.2596 72.6848C24.4207 72.7299 25.5763 72.5029 26.6345 72.0218L27.3177 71.7206L28.0009 71.3303C28.3539 71.1359 28.6939 70.9186 29.0188 70.6799C29.2989 70.4951 29.5585 70.3924 29.743 70.2623C30.0317 70.082 30.3554 69.9653 30.6926 69.92C30.8122 69.8965 30.9331 69.8805 31.0547 69.8721C31.205 69.8721 31.164 70.0569 30.9659 70.3992C30.6691 70.9195 30.2829 71.3831 29.8249 71.7685C29.5995 71.9533 29.374 72.145 29.1418 72.323L28.3766 72.7954C27.8529 73.105 27.3045 73.3707 26.737 73.5896C25.5467 74.0184 24.284 74.2091 23.0205 74.151C21.7038 74.0813 20.4217 73.7038 19.2767 73.0487C18.1334 72.365 17.1612 71.4283 16.4347 70.3102C16.1819 69.8858 15.9769 69.4408 15.7515 69.0026C15.526 68.5644 15.4372 68.0784 15.2869 67.6334L15.0341 66.2093C14.9626 65.6846 14.9626 65.1526 15.0341 64.6279C15.1846 63.5617 15.6375 62.5613 16.339 61.7456C17.0258 60.9608 17.8869 60.3488 18.8531 59.9587L18.8804 60.0341Z" fill="#231F20"/>
<path d="M61.1343 6.83863C62.0391 5.92539 62.841 4.91521 63.5254 3.82629C63.8875 3.27175 64.2086 2.70351 64.5912 2.10105L64.7415 1.86828L64.9259 1.58758C65.0999 1.33736 65.3016 1.10769 65.5271 0.902959C65.7394 0.708034 65.9982 0.57127 66.2786 0.505879C66.5575 0.452488 66.8456 0.476153 67.1121 0.574341L67.6996 0.916652L68.2257 1.37535C68.4337 1.59281 68.6298 1.82135 68.8132 2.05997C69.1551 2.49664 69.47 2.95392 69.756 3.42922C70.3094 4.35251 70.7979 5.3133 71.218 6.30463C72.0418 8.28256 72.6311 10.3506 72.9738 12.4662C73.4302 15.0218 73.4671 17.6349 73.0831 20.2025C72.7249 22.4674 72.0027 24.6592 70.9447 26.6927C70.4209 27.7029 69.813 28.6671 69.1275 29.5749C68.4597 30.4857 67.734 31.3524 66.955 32.1696C63.827 35.3762 60.0383 37.8599 55.8533 39.4472C52.1844 40.8743 48.3732 41.9025 44.4852 42.5143C39.5425 43.315 34.5353 43.6451 29.5305 43.5001C27.9728 43.4659 28.1641 43.2126 29.4895 42.9319C31.6574 42.547 33.8445 42.2796 36.0411 42.1309C41.043 41.7956 46.0008 40.9771 50.8456 39.6868C52.0275 39.2966 53.2436 39.0022 54.3845 38.4956C54.9652 38.2696 55.5527 38.0642 56.1198 37.8109L57.8072 37.0168C60.0369 35.9272 62.121 34.5609 64.0105 32.9501C64.2906 32.7036 64.5912 32.4846 64.8576 32.2176L65.6364 31.4166L66.4221 30.6019C66.6885 30.3417 66.8866 30.0131 67.1053 29.7255C67.5493 29.1162 68.0549 28.5411 68.4716 27.8976C68.8864 27.2646 69.265 26.6086 69.6057 25.9327C70.9508 23.2032 71.6698 20.2067 71.7099 17.1627C71.7579 14.4135 71.3445 11.6756 70.487 9.06365C70.0681 7.75621 69.5378 6.48727 68.902 5.27085C68.5879 4.67268 68.2342 4.0963 67.8431 3.5456C67.6569 3.27732 67.4538 3.02121 67.2351 2.77882L67.0779 2.60082L66.9891 2.51867C66.9346 2.46719 66.8751 2.42132 66.8115 2.38174C66.786 2.36067 66.7564 2.34511 66.7246 2.33607C66.6929 2.32702 66.6595 2.32467 66.6268 2.32918C66.5941 2.33368 66.5626 2.34493 66.5344 2.36223C66.5062 2.37953 66.482 2.40249 66.4631 2.42967C66.4161 2.47902 66.3728 2.53164 66.3333 2.58713L66.2718 2.67613L66.1556 2.86098L65.1924 4.44246C64.0703 6.33713 62.6143 8.01194 60.8952 9.38543C60.4567 9.72436 60.0006 10.0397 59.5288 10.3302L58.8046 10.7478L58.2854 11.0148L58.0327 11.1518C58.0327 11.1518 57.9917 11.1518 57.9643 11.1518H57.896L57.7662 11.0901L56.1402 10.3371C55.662 10.1248 55.1701 9.94682 54.6919 9.75512C53.2223 9.18639 51.707 8.74435 50.1624 8.4338C49.3973 8.2558 48.6185 8.17365 47.8396 8.06411C47.0608 7.95457 46.2888 7.8998 45.4758 7.8998C41.5023 7.82815 37.5931 8.91191 34.2213 11.02C30.8495 13.128 28.1594 16.17 26.4767 19.778C26.2444 20.2504 26.0531 20.7296 25.8345 21.202C25.6158 21.6744 25.4519 22.1605 25.2811 22.6602C24.6389 24.5087 24.3793 25.7753 24.1197 26.6516C24.0104 27.0966 23.9011 27.4458 23.7986 27.7401C23.7219 27.9914 23.6259 28.2363 23.5117 28.4727C23.4303 28.66 23.339 28.8428 23.2384 29.0204C23.1017 29.2121 23.0129 28.8903 22.9515 28.1441C22.8915 26.9995 22.9556 25.8517 23.1427 24.721C23.5656 22.4532 24.3231 20.2612 25.3904 18.217C26.5018 16.1197 27.9306 14.2074 29.6261 12.5484C33.1336 9.13061 37.6664 6.96525 42.5245 6.38678C44.3206 6.17123 46.1347 6.15057 47.9353 6.32517C49.7233 6.52286 51.4904 6.87795 53.2162 7.38633C54.0702 7.66703 54.931 7.92718 55.7508 8.27634C56.1676 8.44749 56.5911 8.59127 56.9874 8.78296L57.5954 9.06365L57.9029 9.20742C57.9029 9.20742 57.9029 9.20742 57.9507 9.20742H58.0053L58.2649 9.05681C58.6134 8.86511 58.9481 8.64603 59.276 8.42011C59.9297 7.966 60.5403 7.45266 61.1001 6.88656L61.1343 6.83863Z" fill="#231F20"/>
<path d="M4.95647 36.9692C3.51654 39.2903 2.70426 41.947 2.59951 44.6781C2.59951 45.1778 2.59951 45.6776 2.59951 46.1774L2.77031 47.663C3.03171 49.4129 3.55933 51.1122 4.33478 52.7018C4.52159 53.1071 4.7291 53.5024 4.95647 53.8862L5.63965 55.0159C6.15794 55.7396 6.72638 56.4259 7.34076 57.0697C8.44482 58.2263 9.6941 59.2343 11.0573 60.0684C12.813 61.1364 14.7054 61.9032 16.5637 62.8069C17.1307 63.1355 16.9736 63.3888 16.3246 63.5531C15.9034 63.6634 15.4682 63.7095 15.0334 63.69C14.7581 63.6826 14.484 63.6529 14.2135 63.601C13.9195 63.5279 13.6317 63.4318 13.3527 63.3135C12.8404 63.0876 12.3143 62.889 11.8156 62.6289L10.3331 61.8278C9.84532 61.5393 9.37534 61.2215 8.92574 60.8762C8.69346 60.7119 8.46118 60.5545 8.24256 60.3764L7.60038 59.8219C5.85178 58.3457 4.39629 56.5527 3.31001 54.5366C1.95254 52.1014 1.11065 49.4119 0.83691 46.6361C0.797118 46.2541 0.781147 45.8699 0.789088 45.4859C0.789088 45.1094 0.789088 44.726 0.789088 44.3426C0.834426 43.582 0.92798 42.8252 1.06919 42.0765C1.33038 40.5775 1.78988 39.1201 2.43554 37.7428C3.25768 36.0641 4.35977 34.5383 5.69431 33.2312C7.66923 31.2186 10.1171 29.7355 12.813 28.9181C14.8508 28.2654 16.9729 27.9149 19.1119 27.8774C19.5765 27.8774 20.041 27.8774 20.4783 27.9322C22.2409 28.0418 22.7396 28.4594 23.0334 28.8565C23.1053 28.9417 23.1693 29.0334 23.2247 29.1303C23.2793 29.2672 23.1222 29.3631 22.8011 29.4452C22.3369 29.5611 21.8565 29.5982 21.3801 29.5548C17.7455 29.2578 14.0971 29.9285 10.8045 31.4991C8.39625 32.7579 6.3766 34.6517 4.96331 36.9761L4.95647 36.9692Z" fill="#231F20"/>
<path d="M19.0976 80.3188C17.801 80.3121 16.5463 79.8575 15.5451 79.0317C15.1711 78.747 14.8418 78.4078 14.5681 78.0253C14.3417 77.6799 14.1452 77.3157 13.9806 76.9368C13.9404 76.8304 13.9106 76.7203 13.8918 76.6081C13.8918 76.4575 13.8098 76.3069 13.7893 76.1631C13.7397 75.892 13.7755 75.612 13.8918 75.3621C14.0287 75.1245 14.2269 74.9282 14.4657 74.7939C14.5899 74.7277 14.7176 74.6682 14.8483 74.6159C14.913 74.5913 14.9791 74.5707 15.0464 74.5543L15.1898 74.52C15.5588 74.431 15.873 74.3694 16.2351 74.2941C16.7971 74.1858 17.3344 73.9746 17.8201 73.6711C18.1032 73.4817 18.3565 73.251 18.5716 72.9865C18.8066 72.7322 19.0213 72.4598 19.2138 72.1718C19.3436 71.9869 19.5758 72.0691 19.7603 72.3703C19.8802 72.5785 19.9434 72.8146 19.9434 73.055C19.9434 73.2953 19.8802 73.5314 19.7603 73.7396C19.1999 74.5627 18.3793 75.1729 17.4307 75.4717C17.023 75.6185 16.6051 75.7352 16.1804 75.8208L15.6271 75.9441C15.5178 75.9441 15.5041 75.9441 15.4836 75.9441H15.3948C15.3572 75.9439 15.3209 75.9579 15.2931 75.9832C15.2652 76.0086 15.2479 76.0435 15.2445 76.081C15.2445 76.1837 15.2445 76.1221 15.3128 76.3822C15.4271 76.7854 15.6382 77.1545 15.9277 77.4571C16.5593 78.1721 17.4384 78.6199 18.3871 78.7099C18.9953 78.7779 19.6108 78.7362 20.2044 78.5867C20.6718 78.4782 21.1289 78.3293 21.5707 78.1417C22.0103 77.9375 22.431 77.6946 22.8278 77.416C23.1329 77.1966 23.4206 76.954 23.6886 76.6903L24.4606 75.8688C24.563 75.7455 24.6519 75.6018 24.768 75.4854C24.9201 75.3145 25.1163 75.189 25.335 75.1225C25.5181 75.1046 25.7025 75.1378 25.8679 75.2184C25.9499 75.2594 26.0387 75.2868 26.1139 75.3279C26.175 75.3655 26.2245 75.4193 26.2571 75.4833C26.2896 75.5473 26.3039 75.6191 26.2983 75.6908C26.3155 75.9083 26.2654 76.1258 26.1548 76.3138C25.3392 77.6675 24.1375 78.7453 22.7048 79.4082C21.5857 79.9863 20.3495 80.3001 19.0908 80.3256L19.0976 80.3188Z" fill="#231F20"/>
<path d="M64.7351 115.385C62.7362 115.31 60.7631 114.908 58.8939 114.194L57.8828 113.831C57.5549 113.701 57.1996 113.55 56.9058 113.407C54.6527 112.33 52.5262 111.005 50.5659 109.456L49.2884 108.409L48.045 107.334C46.96 106.423 46.0221 105.349 45.2645 104.151C45.0322 103.781 45.2235 103.719 45.6266 103.863C46.213 104.102 46.7556 104.438 47.232 104.856C49.2292 106.766 51.3743 108.515 53.6471 110.086C55.0614 111.037 56.5758 111.829 58.1629 112.448C59.8732 113.179 61.6792 113.661 63.5258 113.879C64.0879 113.946 64.6544 113.969 65.2201 113.948C65.4996 113.946 65.7784 113.921 66.0536 113.872C66.3269 113.831 66.6138 113.811 66.8802 113.749C67.663 113.627 68.3733 113.22 68.8751 112.606C69.0889 112.288 69.2298 111.927 69.2877 111.548C69.3455 111.169 69.319 110.782 69.2099 110.415C69.0514 109.794 68.7905 109.204 68.4379 108.669C68.0877 108.115 67.7021 107.585 67.2833 107.081L66.7163 106.396C66.5455 106.184 66.3952 106.006 66.2927 105.848C66.2038 105.71 66.1327 105.56 66.0809 105.403C65.9987 105.183 65.9987 104.94 66.0809 104.719C66.1057 104.62 66.14 104.524 66.1834 104.431C66.3337 104.171 66.8324 104.349 67.4883 104.89C68.423 105.81 69.2254 106.856 69.8726 107.998C70.2391 108.639 70.5085 109.332 70.6719 110.052C70.889 110.87 70.8532 111.734 70.5694 112.53C70.46 112.843 70.3058 113.138 70.1117 113.407C69.9204 113.653 69.7078 113.882 69.4763 114.091C69.0118 114.495 68.4702 114.8 67.8845 114.988C67.6177 115.074 67.3463 115.145 67.0715 115.2L66.2859 115.303C66.0263 115.303 65.7667 115.378 65.5071 115.392H64.7351V115.385Z" fill="#231F20"/>
<path d="M7.76382 160.571L7.35392 159.537L7.24461 159.284C7.24461 159.188 7.17629 159.065 7.14896 158.962C7.08414 158.751 7.03392 158.536 6.99866 158.318C6.89038 157.534 6.86976 156.739 6.93718 155.95C7.05446 154.472 7.28284 153.005 7.62036 151.561C8.29113 148.737 9.12602 145.955 10.1208 143.229C10.804 141.251 11.5623 139.272 12.3958 137.342C15.2902 130.515 18.8364 123.986 22.985 117.844C24.8321 115.112 26.8878 112.527 29.1336 110.114C30.5871 108.562 32.2147 107.184 33.9842 106.006C35.7962 104.754 37.9325 104.057 40.1328 104C41.4992 104.089 41.2327 104.425 40.1738 104.733C39.6409 104.918 38.9304 105.158 38.1243 105.514C37.2011 105.93 36.3024 106.398 35.4325 106.917C33.6846 107.984 32.0779 109.267 30.6503 110.737C29.1856 112.218 27.8164 113.792 26.5512 115.447C23.9999 118.82 21.6743 122.358 19.5896 126.038C17.0384 130.578 14.8213 135.299 12.956 140.162C11.9107 142.825 10.9474 145.53 10.1345 148.268C9.73138 149.637 9.36929 151.007 9.06869 152.41C8.76242 153.781 8.57499 155.176 8.50849 156.579C8.49098 156.995 8.50468 157.412 8.54948 157.825C8.57194 158.019 8.60616 158.211 8.65196 158.401C8.7029 158.595 8.76914 158.785 8.85008 158.969L9.33514 160.174C9.51276 160.571 9.71088 160.961 9.89534 161.358C10.6628 162.933 11.5322 164.456 12.4982 165.918C15.4405 170.376 18.8784 174.485 22.7459 178.166C23.5589 178.946 24.3924 179.685 25.2327 180.411L26.5171 181.459L27.7809 182.424C27.8253 182.458 27.8761 182.482 27.9302 182.495C27.9843 182.507 28.0405 182.509 28.0952 182.499C28.0952 182.499 28.2318 182.499 28.3207 182.451C28.4134 182.427 28.5046 182.397 28.5939 182.362C28.9917 182.21 29.3738 182.02 29.7348 181.794C30.4889 181.322 31.1978 180.781 31.8527 180.178C32.4865 179.598 33.0736 178.969 33.6085 178.296C34.3148 177.426 34.9221 176.48 35.4189 175.475C35.6292 175.001 35.8735 174.544 36.1499 174.106C36.2328 173.95 36.324 173.799 36.4231 173.654C36.5598 173.483 36.7169 173.75 36.7442 174.421C36.7328 175.441 36.4774 176.443 35.9996 177.344C35.1609 178.966 34.028 180.417 32.6588 181.623C31.9691 182.257 31.2185 182.821 30.418 183.307C29.9876 183.582 29.5297 183.812 29.0517 183.992C28.9156 184.042 28.7764 184.083 28.6349 184.115C28.5593 184.139 28.4815 184.155 28.4026 184.163L28.0815 184.204C27.8696 184.207 27.6583 184.181 27.453 184.129C27.3479 184.112 27.2476 184.072 27.1593 184.012C27.0624 183.969 26.9688 183.919 26.8791 183.862L25.5743 182.848L24.3719 181.842C23.5794 181.157 22.7869 180.473 22.0286 179.747C20.4983 178.309 19.0294 176.801 17.6221 175.222C15.6564 173.047 13.8309 170.749 12.1567 168.341C10.4338 165.927 8.95974 163.344 7.75699 160.632L7.76382 160.571Z" fill="#231F20"/>
<path d="M27.0905 149.664C27.7736 148.295 28.573 146.926 29.3449 145.556C29.6319 145.07 29.8915 144.564 30.1921 144.078C31.251 142.38 32.3714 140.716 33.608 139.128C34.1272 138.402 34.6942 137.711 35.2134 136.999L36.2997 135.677C36.686 135.254 37.1039 134.86 37.5499 134.5C37.83 134.274 37.994 134.5 37.9872 134.952C37.9705 135.491 37.7565 136.005 37.386 136.396C35.924 138.067 34.5986 139.881 33.2322 141.716C32.8083 142.268 32.4225 142.849 32.0777 143.455C31.7156 144.057 31.3945 144.673 31.0324 145.289C30.2672 146.624 29.5362 147.987 28.8394 149.363C28.4022 150.205 27.9923 151.068 27.5892 151.923C26.9948 153.238 26.3868 154.552 25.8949 155.901C25.5345 156.939 25.2267 157.995 24.9726 159.064C24.9111 159.297 24.8633 159.53 24.795 159.749C24.5217 160.598 24.3304 160.837 23.8795 160.912C23.7803 160.932 23.6799 160.946 23.5789 160.954C23.2578 160.954 23.1144 160.522 23.1895 159.838C23.5627 157.785 24.1892 155.786 25.0546 153.888C25.6626 152.444 26.3595 151.027 27.0563 149.616L27.0905 149.664Z" fill="#231F20"/>
<path d="M35.2686 174.044C34.0867 172.852 32.9185 171.654 31.7707 170.429C31.354 169.984 30.9031 169.566 30.5 169.107C29.0445 167.505 27.687 165.815 26.4351 164.048C25.8886 163.254 25.3215 162.473 24.816 161.645C24.4798 161.119 24.1763 160.572 23.9074 160.009C23.6499 159.418 23.4928 158.789 23.4428 158.147C23.4086 157.743 23.6409 157.784 23.9483 158.037C24.3611 158.395 24.718 158.813 25.0073 159.276C26.1756 161.368 27.5171 163.358 29.0175 165.226C29.9451 166.426 30.9444 167.569 32.0098 168.649C33.1439 169.867 34.3053 171.072 35.4872 172.25C36.2114 172.976 36.9424 173.701 37.6939 174.413C38.8211 175.488 39.9552 176.57 41.1098 177.59C42.0184 178.384 42.968 179.089 43.904 179.835C44.1089 180 44.3207 180.15 44.5188 180.322C45.2567 180.972 45.4001 181.28 45.3045 181.691C45.2916 181.779 45.2734 181.865 45.2498 181.951C45.1679 182.184 44.6623 182.149 44.0543 181.752C42.2433 180.473 40.5222 179.071 38.9031 177.556C37.6597 176.426 36.4437 175.255 35.2276 174.085L35.2686 174.044Z" fill="#231F20"/>
<path d="M92.2397 125.655C90.7162 123.307 89.2473 120.931 87.7238 118.617C87.1705 117.768 86.5624 116.96 86.0022 116.125C84.0775 113.163 81.7994 110.448 79.2183 108.04C78.6322 107.531 78.0163 107.058 77.3737 106.623C76.7178 106.208 76.0328 105.842 75.3242 105.527C73.5306 104.75 71.6173 104.287 69.6675 104.158C69.0526 104.096 69.1072 103.829 69.6675 103.555C70.0321 103.374 70.4175 103.239 70.8152 103.152C71.3735 103.064 71.9408 103.05 72.5026 103.11C74.6802 103.471 76.7436 104.336 78.5283 105.637C80.2782 106.89 81.8542 108.37 83.2149 110.039C84.834 111.997 86.46 114.058 87.922 116.2C89.5206 118.528 91.0236 120.911 92.5539 123.259C93.4967 124.703 94.4395 126.141 95.4301 127.545C96.8884 129.69 98.498 131.729 100.247 133.645C101.602 135.066 103.094 136.351 104.701 137.478C105.049 137.725 105.384 137.965 105.76 138.163C106.135 138.362 106.368 138.567 106.586 138.731C106.782 138.854 106.969 138.989 107.147 139.135C107.37 139.327 107.534 139.579 107.618 139.861C107.655 139.971 107.684 140.083 107.707 140.196C107.707 140.354 107.55 140.409 107.229 140.368C106.754 140.298 106.293 140.155 105.862 139.943C104.172 139.09 102.597 138.025 101.176 136.773C99.7426 135.486 98.4152 134.084 97.2064 132.583C95.3959 130.372 93.7905 128.024 92.2055 125.669L92.2397 125.655Z" fill="#231F20"/>
<path d="M115.877 149.527C114.639 150.663 113.321 151.709 111.935 152.656C110.52 153.656 108.947 154.408 107.282 154.881C106.641 155.048 105.983 155.142 105.321 155.162C104.994 155.162 104.638 155.162 104.351 155.121C104.064 155.08 103.709 155.032 103.395 154.984C101.242 154.47 99.2233 153.504 97.4717 152.15C95.7635 150.86 94.1765 149.416 92.7304 147.836C91.4324 146.467 90.2027 145.036 89.0071 143.612C88.242 142.695 87.4563 141.798 86.7253 140.874C86.0255 139.944 85.2703 139.057 84.464 138.217C83.9721 137.814 84.0746 137.629 84.7646 137.807C85.7919 138.223 86.7104 138.869 87.4495 139.696C90.7629 143.297 93.6664 147.118 97.2804 150.246C99.4393 152.074 102.138 153.567 104.925 153.669C105.673 153.716 106.423 153.626 107.139 153.402C107.887 153.186 108.61 152.892 109.298 152.526C110.707 151.747 112.037 150.829 113.267 149.788C114.809 148.515 116.268 147.142 117.632 145.68C119.716 143.455 121.671 141.112 123.487 138.662C124.888 136.766 126.138 134.815 127.381 132.836L128.181 131.529C129.205 129.913 129.697 129.475 130.23 129.338C130.346 129.304 130.469 129.228 130.551 129.215C130.633 129.201 130.681 129.365 130.626 129.742C130.519 130.286 130.328 130.811 130.059 131.296C127.931 135.131 125.466 138.77 122.695 142.168C120.601 144.794 118.317 147.263 115.863 149.555L115.877 149.527Z" fill="#231F20"/>
<path d="M124.308 118.603C124.308 119.767 124.308 120.945 124.26 122.184C124.26 122.575 124.189 122.962 124.048 123.327C123.914 123.647 123.757 123.956 123.577 124.251C123.238 124.784 122.868 125.296 122.47 125.785C121.903 126.469 121.336 127.154 120.721 127.804C118.545 130.012 116.209 132.056 113.732 133.918C112.639 134.753 111.539 135.589 110.425 136.369C109.02 137.448 107.449 138.29 105.773 138.861C105.233 138.998 105.261 138.861 105.582 138.437C106.069 137.823 106.653 137.294 107.31 136.869C110.246 134.973 113.066 132.901 115.754 130.666C117.406 129.279 118.948 127.766 120.366 126.141C121.153 125.299 121.856 124.382 122.463 123.402C122.594 123.186 122.701 122.957 122.784 122.718C122.813 122.617 122.831 122.514 122.839 122.41V121.978V120.178C122.839 119.432 122.839 118.685 122.907 117.925C122.927 117.524 122.982 117.126 123.071 116.734C123.181 116.334 123.346 115.951 123.563 115.598C124.173 114.607 124.893 113.689 125.708 112.859C126.492 112.039 127.317 111.26 128.181 110.525C129.474 109.338 130.903 108.308 132.437 107.457C132.814 107.256 133.22 107.116 133.64 107.04C133.866 107.002 134.097 107.002 134.323 107.04C134.433 107.079 134.54 107.125 134.644 107.177C134.73 107.238 134.81 107.307 134.883 107.382C134.997 107.526 135.08 107.691 135.129 107.868C135.129 108.033 135.163 108.176 135.17 108.306C135.134 108.469 135.077 108.625 134.999 108.772C134.928 108.866 134.842 108.949 134.747 109.018C134.683 109.074 134.617 109.127 134.548 109.176C134.46 109.224 134.412 109.094 134.337 108.84C134.296 108.704 134.268 108.567 134.234 108.416C134.219 108.328 134.173 108.247 134.104 108.19C134.036 108.06 133.257 108.327 132.663 108.683C132.017 109.062 131.396 109.483 130.805 109.943C129.578 110.908 128.414 111.95 127.32 113.065C126.514 113.875 125.773 114.75 125.107 115.68C124.816 116.079 124.586 116.52 124.424 116.987C124.325 117.511 124.282 118.043 124.294 118.576L124.308 118.603Z" fill="#231F20"/>
<path d="M137.909 120.897C137.001 121.561 135.951 122.002 134.842 122.184C134.588 122.211 134.331 122.192 134.083 122.129C133.931 122.094 133.787 122.027 133.663 121.933C133.538 121.839 133.434 121.719 133.359 121.581C133.274 121.317 133.274 121.031 133.359 120.767C133.418 120.577 133.496 120.393 133.591 120.219C133.764 119.917 133.955 119.626 134.165 119.35C134.572 118.822 135.015 118.324 135.491 117.857C135.907 117.446 136.324 117.036 136.755 116.645C137.03 116.397 137.322 116.169 137.629 115.961C137.946 115.706 138.322 115.534 138.722 115.461C138.879 115.461 138.968 115.543 138.934 115.577C138.9 115.611 138.825 115.653 138.756 115.735C138.566 115.978 138.358 116.207 138.135 116.419C137.074 117.413 136.068 118.465 135.122 119.569C134.837 119.893 134.593 120.252 134.398 120.637C134.352 120.724 134.316 120.816 134.288 120.91C134.268 120.956 134.254 121.005 134.247 121.054C134.241 121.092 134.248 121.131 134.268 121.164C134.288 121.197 134.32 121.221 134.357 121.232C134.509 121.27 134.669 121.27 134.821 121.232C135.04 121.201 135.253 121.141 135.456 121.054C135.892 120.867 136.309 120.638 136.7 120.37C137.198 120.029 137.667 119.647 138.1 119.226C138.774 118.621 139.344 117.908 139.788 117.118C139.934 116.837 140.022 116.53 140.047 116.214C140.047 115.933 139.979 115.824 139.849 115.742C139.82 115.734 139.79 115.734 139.761 115.742C139.722 115.736 139.683 115.736 139.644 115.742C139.289 115.673 139.098 115.577 138.995 115.173C138.995 115.084 138.927 114.988 138.907 114.899C138.891 114.827 138.895 114.752 138.919 114.682C138.943 114.612 138.986 114.55 139.043 114.502C139.125 114.428 139.221 114.372 139.326 114.338C139.431 114.303 139.542 114.292 139.651 114.304C139.884 114.304 140.115 114.343 140.334 114.42L140.717 114.619C140.837 114.709 140.951 114.808 141.059 114.913C141.152 115.037 141.237 115.167 141.311 115.303L141.455 115.755V116.214C141.455 116.344 141.455 116.467 141.414 116.591C141.223 117.387 140.849 118.128 140.321 118.754C139.637 119.609 138.831 120.359 137.93 120.979L137.909 120.897Z" fill="#231F20"/>
<path d="M129.35 117.439C129.272 117.22 129.237 116.987 129.247 116.755C129.234 116.58 129.246 116.405 129.282 116.234C129.282 116.063 129.343 115.892 129.377 115.728L129.541 115.269C129.772 114.698 130.075 114.16 130.443 113.667C130.695 113.317 130.967 112.981 131.256 112.66C131.776 112.12 132.345 111.629 132.957 111.195C133.572 110.74 134.246 110.37 134.959 110.093C135.135 110.035 135.316 109.989 135.499 109.956C135.691 109.93 135.887 109.93 136.079 109.956C136.261 109.961 136.441 109.981 136.619 110.018C136.846 110.059 137.061 110.15 137.248 110.285C137.373 110.371 137.476 110.485 137.55 110.618C137.623 110.751 137.665 110.9 137.671 111.052C137.676 111.366 137.58 111.673 137.398 111.928C137.135 112.31 136.777 112.617 136.359 112.818C136.113 112.941 136.052 112.777 136.086 112.482C136.117 112.113 136.197 111.749 136.325 111.401L136.366 111.319C136.366 111.319 136.366 111.319 136.312 111.319C136.161 111.283 136.008 111.258 135.854 111.243C135.57 111.256 135.292 111.324 135.034 111.442C134.684 111.582 134.344 111.747 134.016 111.935C133.192 112.442 132.462 113.089 131.857 113.845C131.149 114.584 130.659 115.506 130.443 116.508C130.443 116.645 130.443 116.796 130.443 116.912C130.439 116.998 130.453 117.085 130.484 117.165C130.484 117.241 130.532 117.35 130.628 117.364C130.716 117.361 130.803 117.338 130.88 117.295L131.058 117.186C131.154 117.117 131.256 117.049 131.352 116.967C131.55 116.816 131.741 116.645 131.932 116.474C132.308 116.132 132.67 115.789 133.019 115.385C133.565 114.803 134.023 114.153 134.535 113.544C134.658 113.42 134.774 113.283 134.904 113.167C135.41 112.736 135.683 112.674 135.915 112.722C135.963 112.724 136.009 112.736 136.052 112.756C136.1 112.756 136.093 112.852 136.052 112.975C136.002 113.156 135.931 113.331 135.84 113.496C135.676 113.818 135.492 114.132 135.294 114.447C135.095 114.762 134.829 115.016 134.61 115.296C134.119 115.865 133.593 116.412 133.032 116.953C132.641 117.332 132.224 117.682 131.782 118.001L131.536 118.172C131.436 118.244 131.331 118.311 131.222 118.37C131.015 118.498 130.781 118.573 130.539 118.589C130.326 118.607 130.112 118.559 129.928 118.452C129.743 118.344 129.596 118.181 129.507 117.987L129.323 117.48L129.35 117.439Z" fill="#231F20"/>
<path d="M136.112 118.323C135.656 118.703 135.174 119.05 134.671 119.363C134.151 119.707 133.585 119.974 132.99 120.158C132.741 120.229 132.484 120.273 132.225 120.288C131.9 120.311 131.577 120.222 131.309 120.034C131.201 119.955 131.101 119.865 131.009 119.767C130.92 119.652 130.842 119.528 130.777 119.398C130.679 119.143 130.653 118.866 130.701 118.597C130.786 118.181 130.956 117.787 131.2 117.44C131.621 116.823 132.101 116.25 132.635 115.728L134.001 114.359C134.602 113.804 135.176 113.25 135.825 112.729C136.044 112.572 136.064 112.668 135.989 112.887C135.877 113.248 135.706 113.588 135.484 113.893L134.705 114.886C134.438 115.201 134.138 115.482 133.864 115.783C133.304 116.379 132.73 116.954 132.225 117.556C131.938 117.879 131.738 118.27 131.644 118.693C131.644 118.857 131.644 118.96 131.767 119.028C131.819 119.072 131.876 119.109 131.938 119.138C131.99 119.14 132.043 119.14 132.095 119.138C132.553 119.072 132.991 118.909 133.379 118.658C133.842 118.394 134.282 118.094 134.698 117.761C135.224 117.343 135.717 116.886 136.174 116.392C136.866 115.708 137.429 114.903 137.834 114.017C137.947 113.736 137.964 113.425 137.882 113.133C137.84 113.051 137.77 112.987 137.683 112.955C137.627 112.922 137.568 112.894 137.506 112.873L137.308 112.812C137.192 112.812 137.116 112.812 137.062 112.812C136.932 112.816 136.804 112.836 136.679 112.873C136.527 112.89 136.373 112.864 136.235 112.798L136.03 112.716C135.941 112.654 135.907 112.551 135.921 112.38C135.936 112.259 135.976 112.143 136.039 112.038C136.101 111.933 136.184 111.842 136.283 111.771C136.514 111.57 136.799 111.442 137.103 111.401C137.394 111.376 137.688 111.413 137.964 111.511C138.083 111.549 138.2 111.597 138.312 111.655C138.456 111.725 138.591 111.813 138.715 111.915C138.995 112.152 139.195 112.47 139.289 112.825C139.417 113.379 139.377 113.959 139.173 114.489C139.026 114.91 138.828 115.313 138.585 115.687C137.907 116.693 137.088 117.597 136.153 118.371L136.112 118.323Z" fill="#231F20"/>
<path d="M124.71 131.981C124.397 131.454 124.043 130.953 123.651 130.481C123.515 130.303 123.33 130.167 123.18 129.995C122.659 129.374 122.108 128.78 121.526 128.215C121.262 127.966 120.979 127.737 120.679 127.531C120.279 127.3 119.905 127.024 119.566 126.709C119.463 126.6 119.6 126.401 119.832 126.257C119.951 126.176 120.086 126.123 120.228 126.101C120.37 126.08 120.515 126.091 120.652 126.134C121.551 126.561 122.36 127.155 123.036 127.887C123.439 128.332 123.931 128.708 124.355 129.14C124.818 129.629 125.249 130.148 125.646 130.694C125.885 131.029 126.124 131.378 126.329 131.727C126.658 132.272 126.952 132.837 127.211 133.418C127.453 133.859 127.663 134.316 127.839 134.788C127.887 134.893 127.923 135.003 127.948 135.116C127.965 135.279 127.926 135.443 127.839 135.582C127.73 135.685 127.596 135.756 127.45 135.787L127.224 135.842C127.099 135.853 126.973 135.827 126.862 135.767C126.727 135.711 126.611 135.619 126.527 135.5C126.162 134.855 125.838 134.187 125.557 133.501C125.298 132.971 125.003 132.458 124.676 131.967L124.71 131.981Z" fill="#231F20"/>
<path d="M37.1818 199.553C36.56 199.586 35.9364 199.547 35.3236 199.437C35.0144 199.376 34.7087 199.298 34.4081 199.204C34.251 199.149 34.128 199.108 33.9435 199.026C33.7591 198.944 33.5063 198.807 33.2604 198.697C32.7002 198.321 32.2356 197.903 32.3107 197.328C32.3536 197.125 32.4616 196.943 32.6182 196.808L33.2467 196.493C33.6908 196.376 34.1963 196.239 34.4081 196.191L35.2348 196C35.7813 195.87 36.3347 195.74 36.8744 195.596C37.4805 195.445 38.0707 195.237 38.637 194.973C39.3202 194.644 39.6412 194.076 40.3244 193.515C40.5157 193.337 40.5977 193.412 40.6592 193.699C40.7031 193.898 40.735 194.099 40.7548 194.302C40.7536 194.569 40.6701 194.83 40.5157 195.048C40.1929 195.46 39.7881 195.801 39.327 196.048C38.9145 196.265 38.485 196.448 38.0426 196.595C37.2143 196.837 36.3725 197.029 35.5217 197.17C35.023 197.253 34.2988 197.451 34.2373 197.465C34.1622 197.483 34.0889 197.508 34.0187 197.54C33.9367 197.595 33.9845 197.691 34.0187 197.746C34.0812 197.815 34.1552 197.873 34.2373 197.917C34.2923 197.948 34.3493 197.976 34.4081 197.999C34.5242 198.047 34.654 198.081 34.777 198.122C35.2869 198.278 35.8153 198.366 36.3483 198.382C37.0144 198.41 37.6811 198.346 38.3295 198.191C39.3247 197.955 40.2645 197.527 41.0964 196.931C41.7203 196.45 42.2824 195.893 42.7702 195.274C42.8727 195.13 42.9683 194.993 43.0776 194.856C43.4739 194.35 43.672 194.247 44.0136 194.322C44.0887 194.322 44.1707 194.322 44.2459 194.377C44.4781 194.473 44.4713 194.815 44.2459 195.267C43.3949 196.652 42.1927 197.786 40.7617 198.553C39.6487 199.144 38.4245 199.494 37.1681 199.58L37.1818 199.553Z" fill="#231F20"/>
<path d="M32.6584 196.246C32.0943 195.922 31.596 195.495 31.1896 194.986C30.9817 194.732 30.8008 194.457 30.6499 194.165C30.4477 193.771 30.3158 193.345 30.2604 192.905C30.2185 192.606 30.249 192.3 30.3493 192.015C30.3935 191.877 30.468 191.751 30.5673 191.645C30.6666 191.54 30.7882 191.458 30.9231 191.406C31.157 191.32 31.4134 191.32 31.6473 191.406C31.7746 191.436 31.8983 191.479 32.0162 191.536L32.3373 191.728L32.9658 192.118L33.3894 192.351C33.9622 192.645 34.5861 192.826 35.2272 192.885C35.7992 192.926 36.3725 192.822 36.8941 192.583C37.5712 192.25 38.2282 191.878 38.8617 191.467C39.0735 191.337 39.2032 191.467 39.2169 191.817C39.2246 192.024 39.2015 192.232 39.1486 192.433C39.0719 192.673 38.9328 192.888 38.7455 193.056C38.0199 193.726 37.1051 194.155 36.1266 194.284C35.1481 194.412 34.1538 194.235 33.2801 193.775C32.853 193.574 32.4399 193.346 32.0435 193.09C31.9575 193.02 31.8605 192.964 31.7566 192.926C31.7378 192.918 31.7177 192.914 31.6974 192.915C31.6771 192.915 31.6571 192.919 31.6386 192.928C31.6201 192.936 31.6034 192.948 31.5897 192.963C31.5759 192.978 31.5653 192.995 31.5585 193.015C31.5307 193.104 31.5307 193.199 31.5585 193.288C31.5938 193.436 31.6514 193.576 31.7293 193.706C31.9753 194.131 32.3026 194.503 32.6926 194.801C32.9376 194.999 33.2034 195.168 33.485 195.308C33.6285 195.383 33.772 195.438 33.9223 195.5C34.0618 195.552 34.2059 195.591 34.3527 195.616C35.3334 195.761 36.3346 195.665 37.2699 195.335C37.9886 195.095 38.6677 194.749 39.2852 194.309C39.415 194.206 39.5517 194.124 39.6678 194.021C40.1324 193.658 40.2963 193.555 40.5286 193.535C40.5787 193.532 40.6288 193.532 40.6789 193.535C40.7472 193.535 40.7677 193.603 40.7609 193.747C40.751 193.966 40.68 194.177 40.5559 194.356C40.1188 195.06 39.5097 195.639 38.7865 196.041C38.0755 196.469 37.2853 196.748 36.4637 196.862C35.8353 196.978 35.1941 197.008 34.5576 196.951C34.2072 196.91 33.8617 196.834 33.526 196.725C33.2216 196.61 32.9269 196.47 32.6447 196.308L32.6584 196.246Z" fill="#231F20"/>
<path d="M35.6642 186.881C35.715 187.261 35.8429 187.627 36.0399 187.956C36.2517 188.373 36.484 188.64 36.8529 189.455C36.9644 189.707 37.0158 189.981 37.0032 190.256C36.9925 190.39 36.9534 190.521 36.8887 190.639C36.8239 190.757 36.7349 190.86 36.6274 190.941C36.1949 191.201 35.6837 191.298 35.1859 191.214C34.9605 191.214 34.8102 191.166 34.6531 191.146L34.1817 191.057C33.5867 190.927 32.9844 190.833 32.3781 190.776C32.2078 190.745 32.0323 190.765 31.8725 190.831C31.7427 190.906 31.7905 191.084 31.8247 191.187C31.8702 191.309 31.9274 191.426 31.9955 191.536C32.0711 191.658 32.1605 191.77 32.2619 191.872C32.4442 192.087 32.6799 192.25 32.9451 192.344C33.1091 192.406 33.1227 192.584 32.9041 192.762C32.7211 192.891 32.5028 192.96 32.279 192.96C32.0552 192.96 31.8369 192.891 31.6539 192.762C31.2809 192.46 30.9934 192.066 30.8204 191.618C30.6887 191.295 30.6554 190.94 30.7248 190.598C30.7663 190.439 30.8423 190.291 30.9474 190.164C31.0525 190.038 31.1841 189.936 31.3328 189.866C31.4891 189.803 31.6517 189.757 31.8179 189.729C31.902 189.723 31.9865 189.723 32.0707 189.729H32.2346C32.4357 189.733 32.6365 189.749 32.8358 189.777C33.2184 189.825 33.5805 189.893 33.9357 189.962C34.1475 190.003 34.3593 190.03 34.5711 190.057C34.7829 190.085 35.0288 190.092 35.1518 190.092C35.2266 190.102 35.3025 190.102 35.3772 190.092C35.4455 190.092 35.5275 190.051 35.548 189.975C35.548 189.79 35.548 189.77 35.2406 189.291C34.9688 188.858 34.74 188.399 34.5574 187.921C34.2907 187.246 34.2907 186.495 34.5574 185.82C34.6617 185.575 34.7972 185.345 34.9605 185.135C35.0083 185.06 35.0835 184.991 35.0766 184.895C35.0671 184.807 35.0314 184.724 34.9742 184.656L34.8853 184.553L34.7282 184.402L34.3798 184.115C33.8469 183.704 33.1979 183.43 32.6172 182.992C32.4874 182.896 32.3508 182.8 32.221 182.684C31.7291 182.26 31.7291 181.746 32.0023 181.554C32.0583 181.507 32.1234 181.472 32.1936 181.452C32.2995 181.454 32.4049 181.468 32.5079 181.493C32.6342 181.497 32.758 181.53 32.87 181.589C33.273 181.849 33.8537 182.109 34.373 182.472C34.6394 182.65 34.9127 182.841 35.1928 183.061C35.3294 183.163 35.4729 183.286 35.6163 183.41L35.835 183.622C35.9511 183.738 36.0399 183.875 36.1424 183.998C36.3221 184.25 36.4307 184.546 36.4567 184.854C36.4606 185.162 36.3647 185.462 36.1834 185.71L35.9921 185.991L35.9101 186.141C35.8562 186.238 35.8105 186.338 35.7735 186.443C35.7175 186.631 35.6989 186.829 35.7188 187.024L35.6642 186.881Z" fill="#231F20"/>
<path d="M69.9958 173.846C67.5625 174.093 65.1129 174.139 62.6721 173.983C61.784 173.928 60.8958 173.901 60.0145 173.784C56.9201 173.387 53.8661 172.721 50.8873 171.792L48.9129 171.176L46.959 170.491C45.2822 169.945 43.6641 169.231 42.1289 168.362C41.6576 168.081 41.8693 167.821 42.4295 167.719C43.2302 167.617 44.0434 167.721 44.7933 168.02C46.4193 168.67 48.0589 169.245 49.7122 169.813C51.3655 170.382 53.053 170.847 54.7609 171.306C56.8559 171.809 58.9912 172.125 61.1418 172.251C63.5072 172.455 65.8848 172.478 68.2537 172.319C69.7103 172.223 71.1594 172.033 72.5919 171.751C74.7641 171.362 76.8768 170.692 78.8771 169.759C80.3704 169.033 81.7344 168.066 82.9147 166.897C83.1674 166.651 83.4134 166.404 83.6457 166.13C83.9577 165.777 84.2982 165.449 84.6636 165.151C84.8553 164.981 85.093 164.871 85.3468 164.836C85.4493 164.836 85.5586 164.775 85.6269 164.768C85.6952 164.761 85.7704 164.891 85.7635 165.199C85.7264 165.635 85.5859 166.055 85.3536 166.425C84.9463 167.159 84.4457 167.838 83.8643 168.444C83.2485 169.025 82.5859 169.554 81.8831 170.026C80.4613 170.95 78.9336 171.699 77.3331 172.258C74.9717 173.081 72.5234 173.627 70.0368 173.887L69.9958 173.846Z" fill="#231F20"/>
<path d="M65.2406 298.556L64.0997 298.768L63.8128 298.823C63.7718 298.823 63.7035 298.871 63.6898 298.823L63.6556 298.672L63.519 298.083L63.0954 296.296C62.8973 295.468 62.7265 294.64 62.5421 293.811C62.1731 292.154 61.8589 290.498 61.4968 288.841C60.8227 285.527 60.1692 282.209 59.5361 278.886C58.2745 272.246 57.0607 265.596 55.8947 258.937C55.0339 254.076 54.1526 249.229 53.3328 244.368C50.4589 227.234 47.7877 210.064 45.3191 192.857C44.2397 185.216 43.1671 177.549 42.1902 169.949C41.589 165.075 40.981 160.18 40.5232 155.271C40.0014 150.36 39.7597 145.422 39.7991 140.483C39.9835 137.375 40.3114 137.854 40.5437 140.435C40.776 143.016 41.3635 147.733 41.9101 153.354C42.8187 163.315 44.1031 173.263 45.449 183.21C46.7948 193.158 48.25 203.126 49.7393 213.128C51.5224 225.089 53.6812 237.494 55.8059 249.68C58.1561 263.078 60.5882 276.483 63.3209 289.799C63.7445 291.853 64.1817 293.907 64.6531 295.927L64.899 296.981C64.899 297.077 64.9947 296.981 65.0493 296.981L65.2475 296.947L65.794 296.837C66.8119 296.646 67.8435 296.42 68.8546 296.2C70.91 295.704 72.9995 295.363 75.1057 295.18C75.6386 295.132 76.1646 295.112 76.6975 295.085H77.4832H78.1664C78.1664 295.085 78.1664 295.085 78.1664 295.043V294.941L78.1185 294.544L77.9272 293.058C77.1689 286.753 76.5609 280.42 75.9665 274.101C75.3722 267.782 74.7983 261.476 74.2244 255.205C73.309 245.456 72.414 235.906 71.4917 226.273C71.3004 224.151 71.1091 222.07 70.911 219.934C70.5557 215.963 70.3713 213.348 70.3235 211.499C70.2447 210.239 70.279 208.974 70.4259 207.72C70.4806 207.323 70.5216 206.803 70.5899 206.577C70.8017 205.789 71.3209 209.007 71.9563 214.792C73.671 232.01 75.2697 250.18 76.9844 268.405C77.6266 275.169 78.2688 281.954 79.034 288.724C79.2321 290.409 79.4029 292.106 79.6284 293.784L79.8948 295.838L79.9768 296.461V296.618H77.6608H77.3124H76.6907L75.4473 296.687C73.797 296.811 72.1578 297.053 70.5421 297.412L68.0553 297.953L66.7914 298.22L65.3089 298.508L65.2406 298.556Z" fill="#231F20"/>
<path d="M88.7821 200.279C89.4106 209.179 89.8956 218.147 90.3124 227.088C90.49 230.347 90.6471 233.606 90.7633 236.865L91.057 245.491L91.2483 254.117C91.3986 259.868 91.4465 265.619 91.5148 271.37C91.5148 273.923 91.5763 276.484 91.6104 279.037C91.6446 281.591 91.6514 284.138 91.6719 286.671C91.6719 288.294 91.6719 289.923 91.7266 291.552V293.996V295.509V296.194H90.49H85.5575C83.9383 296.194 82.3124 296.228 80.7206 296.317C79.7299 296.379 79.3542 296.393 79.3201 296.256C79.2859 296.119 79.7709 295.859 80.6249 295.626C83.4508 294.985 86.3428 294.684 89.2398 294.729H90.3055V292.675L90.2646 287.691C90.2646 284.368 90.2486 281.048 90.2167 277.73C90.1348 271.08 90.0505 264.412 89.964 257.725C89.8956 253.727 89.7795 249.647 89.6497 245.539C89.5199 241.431 89.3013 237.323 89.1305 233.216C88.946 228.718 88.6864 224.22 88.4473 219.722C88.2082 215.224 87.9076 210.733 87.648 206.242C87.2517 200.71 86.8897 195.178 86.4114 189.66C85.7283 181.294 84.9494 172.9 84.0955 164.61C83.4123 158.167 82.654 151.862 82.0459 145.475C81.923 144.064 81.8 142.688 81.6702 141.264C81.3422 135.979 81.5609 134.267 81.9639 133.138C82.0343 132.887 82.1187 132.64 82.2167 132.398C82.3465 132.152 82.4627 132.563 82.613 133.514C82.7633 134.466 82.8043 135.951 83.0092 137.868C83.4259 143.537 84.0681 149.377 84.7035 155.306C85.3388 161.235 85.9674 167.252 86.5549 173.284C87.4089 182.252 88.1945 191.276 88.8231 200.285L88.7821 200.279Z" fill="#231F20"/>
<path d="M135.58 199.491L134.508 179.856L134.036 172.695L132.636 147.446C132.417 143.715 132.144 139.963 131.864 136.266C131.467 131.515 131.105 126.743 131.01 121.972C131.01 120.486 131.386 120.657 131.877 121.883C132.607 123.892 133.066 125.989 133.244 128.119C133.49 130.543 133.667 132.973 133.838 135.404L134.33 142.688C134.644 147.556 134.924 152.437 135.143 157.339C135.409 163.206 135.956 169.293 136.352 175.283L137.602 195.055C137.848 199.112 138.092 203.17 138.333 207.228C138.696 213.389 139.064 219.551 139.427 225.651C139.775 230.388 140.11 235.044 140.458 239.727C140.533 240.76 140.615 241.78 140.656 242.821C140.834 246.696 140.656 247.949 139.973 248.777C139.846 248.974 139.699 249.157 139.536 249.325C139.064 249.688 138.579 248.12 138.402 245.32C137.753 236.981 137.193 228.163 136.673 219.304C136.291 212.725 135.908 206.105 135.519 199.505L135.58 199.491Z" fill="#231F20"/>
<path d="M126.404 54.6666C126.309 50.8053 126.24 46.9372 126.24 43.0691C126.24 39.201 126.274 35.326 126.609 31.4305L126.759 29.7053V29.6505H126.814H126.923L127.149 29.582L127.586 29.4519L128.42 29.2192C129.103 29.0275 129.786 28.8152 130.469 28.6441L132.519 28.1169L134.568 27.6514C144.339 25.69 154.288 24.7561 164.252 24.865C168.666 24.865 173.099 25.0224 177.458 25.3784C180.266 25.6112 183.074 25.8851 185.861 26.3711C187.228 26.6176 188.649 26.8915 190.022 27.2612C191.418 27.6024 192.778 28.0817 194.08 28.692C194.285 28.8016 194.456 28.8906 194.599 28.9864C194.714 29.0701 194.824 29.1616 194.927 29.2602C195.084 29.4109 195.125 29.5136 195.07 29.5615C195.016 29.6094 194.872 29.6163 194.654 29.5615L194.278 29.4793L193.779 29.3972C192.338 29.0959 189.68 28.7673 186.558 28.2744C180.961 27.4064 175.317 26.8851 169.656 26.7135C163.972 26.5355 158.268 26.5902 152.577 26.9531C145.597 27.4051 138.675 28.5029 131.897 30.2324C130.968 30.4583 130.039 30.7048 129.116 30.9787L128.7 31.0882C128.625 31.0882 128.508 31.0882 128.536 31.2183L128.44 32.2247C128.303 34.1279 128.249 36.0585 128.215 37.996C128.174 41.8664 128.201 45.7459 128.297 49.6346C128.397 54.4041 128.552 59.1805 128.761 63.9637C129.069 71.1933 129.403 78.4572 129.861 85.632C130.223 91.2048 130.715 96.6613 131.18 102.166C131.282 103.377 131.385 104.569 131.487 105.787C131.829 110.319 131.788 111.778 131.248 112.791C131.154 113.03 131.037 113.259 130.9 113.476C130.51 113.934 129.957 112.106 129.622 108.8C128.59 98.9685 127.894 88.5691 127.333 78.1217C126.91 70.365 126.582 62.5603 126.343 54.7624L126.404 54.6666Z" fill="#231F20"/>
<path d="M173.449 53.5914L171.023 54.9606L168.53 56.1792C166.883 57.0213 165.182 57.747 163.488 58.4796C162.265 59.0478 161.022 59.5613 159.765 60.0405C157.565 60.9305 155.29 61.6083 153.042 62.3614C150.754 62.9844 148.485 63.6895 146.163 64.1619C144.113 64.6686 142.029 64.9972 139.98 65.3806C138.654 65.5928 137.315 65.7366 135.983 65.8872C135.302 65.9465 134.617 65.967 133.934 65.9488C133.251 65.9488 132.567 65.9488 131.918 65.9146C131.085 65.8735 131.201 65.6887 131.918 65.4216C133.033 65.0096 134.194 64.736 135.375 64.6069C140.721 63.8852 146.009 62.7801 151.198 61.3002C154.391 60.3757 157.524 59.253 160.578 57.9387C161.432 57.617 162.265 57.2541 163.099 56.8502L165.613 55.7274C167.259 54.9332 168.899 54.1048 170.525 53.2696C172.492 52.1605 174.494 51.113 176.38 49.8465C177.097 49.3878 177.835 48.9428 178.545 48.4773L180.643 46.9985C182.064 46.0468 183.375 44.9446 184.68 43.8697C185.679 43.0292 186.632 42.1356 187.536 41.1929C188.492 40.3097 189.298 39.3033 190.166 38.338C190.535 37.9067 190.911 37.4959 191.273 37.0509C191.703 36.4318 192.198 35.8603 192.748 35.3462C193.018 35.0869 193.346 34.8967 193.705 34.7917C193.832 34.748 193.962 34.7137 194.094 34.689C194.429 34.689 194.094 35.5242 193.288 36.9277C190.624 40.9327 186.88 44.4585 182.883 47.4846C179.877 49.7157 176.735 51.7575 173.476 53.5982L173.449 53.5914Z" fill="#231F20"/>
<path d="M139.55 240.391C137.314 240.273 135.085 240.72 133.067 241.691C130.967 242.668 129.006 243.918 127.233 245.409C125.922 246.523 124.672 247.707 123.489 248.955C119.335 253.444 115.615 258.317 112.38 263.51C110.905 265.804 109.538 268.179 108.206 270.535C106.471 273.554 104.893 276.696 103 279.606C102.413 280.523 102.256 280.29 102.426 279.318C102.548 278.676 102.712 278.042 102.918 277.422C103.183 276.544 103.536 275.696 103.97 274.889C107.225 268.486 111.012 262.369 115.291 256.602C117.871 253.002 120.719 249.601 123.81 246.429C125.549 244.688 127.461 243.128 129.514 241.774C131.586 240.378 133.905 239.392 136.346 238.871L137.501 238.686C137.883 238.652 138.28 238.645 138.662 238.617C139.05 238.601 139.438 238.613 139.824 238.652L140.985 238.741C141.736 238.891 142.502 238.994 143.239 239.206L144.339 239.542L144.886 239.713L145.412 239.939C147.55 240.793 149.564 241.928 151.403 243.314C152.346 243.999 153.2 244.724 154.075 245.45C154.505 245.827 154.908 246.224 155.325 246.607C155.742 246.99 156.158 247.381 156.541 247.798C158.999 250.265 161.22 252.958 163.175 255.843C163.621 256.464 164.031 257.111 164.404 257.78C165.771 260.286 165.982 261.203 165.859 261.956C165.859 262.121 165.859 262.319 165.859 262.415C165.825 262.737 164.882 261.915 163.81 260.19C162.095 257.684 160.346 255.144 158.344 252.734C156.394 250.283 154.207 248.031 151.813 246.011C150.046 244.523 148.113 243.244 146.054 242.198C144.028 241.186 141.822 240.586 139.564 240.432L139.55 240.391Z" fill="#231F20"/>
<path d="M177.951 265.489C176.657 264.704 175.223 264.179 173.729 263.942C172.252 263.717 170.742 263.866 169.336 264.373C168.293 264.774 167.313 265.323 166.426 266.002C163.058 268.384 160.212 271.432 158.064 274.957C157.096 276.526 156.235 278.159 155.488 279.845C154.532 282.009 153.657 284.213 152.701 286.39C152.4 287.075 152.236 286.904 152.223 286.233C152.24 285.152 152.427 284.08 152.776 283.056C153.547 280.713 154.518 278.441 155.68 276.265C156.836 274.061 158.236 271.994 159.854 270.103C161.815 267.723 164.117 265.646 166.686 263.942C168.173 262.993 169.868 262.419 171.625 262.269C173.382 262.118 175.149 262.396 176.776 263.079C178.716 263.867 180.512 264.973 182.091 266.352C184.441 268.395 186.539 270.712 188.342 273.252C189.772 275.145 191.08 277.128 192.257 279.188C192.517 279.647 192.762 280.092 192.995 280.557C193.828 282.337 193.876 283.002 193.678 283.515C193.649 283.633 193.607 283.748 193.555 283.857C193.364 284.124 192.872 283.474 192.189 282.276C190.112 278.565 187.724 275.037 185.049 271.733C183.066 269.264 180.668 267.161 177.965 265.516L177.951 265.489Z" fill="#231F20"/>
<path d="M48.7344 116.755C48.7516 116.656 48.7744 116.558 48.8027 116.461C48.8027 116.379 48.8574 116.31 48.8847 116.242C48.9438 116.113 49.0099 115.987 49.0828 115.865C49.2119 115.654 49.3557 115.453 49.5132 115.263C49.7968 114.915 50.1002 114.583 50.4218 114.27L50.8727 113.811L51.023 113.661L51.0777 113.62C51.1102 113.592 51.1379 113.56 51.1597 113.524C51.1938 113.476 51.1597 113.462 51.105 113.435C51.0612 113.412 51.0155 113.394 50.9684 113.38H50.7907C50.6931 113.369 50.5946 113.369 50.497 113.38C49.7683 113.432 49.0483 113.57 48.3518 113.791C47.0538 114.154 45.7352 114.646 44.2527 114.907C43.5048 115.064 42.7325 115.064 41.9846 114.907C41.5933 114.822 41.2191 114.671 40.8778 114.462C40.5004 114.234 40.2004 113.898 40.017 113.496C39.7704 112.808 39.7704 112.055 40.017 111.367C40.2185 110.748 40.4889 110.153 40.8232 109.594C41.619 108.167 42.695 106.916 43.9863 105.918C44.4304 105.623 44.5328 105.918 44.4099 106.417C44.2196 107.098 43.8787 107.728 43.4124 108.259C42.914 108.83 42.4573 109.436 42.0461 110.073C41.6451 110.664 41.3364 111.313 41.1306 111.997C41.0537 112.266 41.0351 112.549 41.076 112.825C41.0926 112.934 41.1307 113.039 41.1882 113.133C41.2457 113.227 41.3213 113.309 41.4107 113.373C41.9628 113.719 42.6047 113.893 43.2553 113.873C44.1895 113.817 45.1103 113.623 45.988 113.298C46.9171 112.997 47.8667 112.613 48.8778 112.415C49.3722 112.29 49.8783 112.219 50.3877 112.202C50.5218 112.192 50.6566 112.192 50.7907 112.202H50.9889H51.269C51.6191 112.303 51.9615 112.429 52.2937 112.579L52.5055 112.777C52.5738 112.846 52.6558 112.894 52.6832 113.003C52.7219 113.197 52.693 113.397 52.6012 113.572C52.3739 113.956 52.0933 114.307 51.7677 114.612C51.3305 115.05 50.9001 115.475 50.5311 115.92C50.3214 116.155 50.1444 116.418 50.0051 116.7C49.957 116.789 49.929 116.887 49.9231 116.988C49.924 117.031 49.9336 117.073 49.9512 117.111C49.9688 117.15 49.9941 117.185 50.0256 117.214C50.0871 117.255 50.1759 117.351 50.2784 117.419L50.6268 117.59C50.896 117.678 51.1727 117.739 51.4534 117.775C52.4317 117.871 53.4177 117.85 54.3911 117.714C55.3885 117.597 56.3791 117.426 57.3766 117.255L58.7429 117.015C58.9684 116.974 59.2007 116.933 59.4261 116.913L59.7745 116.865H59.959C60.0478 116.865 60.1366 116.865 60.2186 116.865C60.3313 116.858 60.4443 116.87 60.5534 116.899L60.7105 116.947L60.8471 117.036C60.9268 117.113 60.9878 117.207 61.0257 117.312C61.0636 117.416 61.0773 117.528 61.0658 117.638C61.0705 117.759 61.0519 117.88 61.0111 117.994C60.9892 118.108 60.9525 118.219 60.9018 118.323C60.8363 118.483 60.761 118.638 60.6763 118.788C60.4958 119.098 60.2926 119.393 60.0683 119.672C59.2075 120.692 58.7771 120.87 58.4423 120.883C58.3676 120.894 58.2917 120.894 58.2169 120.883C58.0324 120.822 58.4014 120.466 58.9684 119.781C59.3348 119.338 59.651 118.856 59.9112 118.343C59.9658 118.213 60.0273 118.09 60.0683 117.967C60.1093 117.844 60.0683 117.919 60.0683 117.892C60.0683 117.864 60.0205 117.892 60 117.892C59.9795 117.892 59.7677 117.892 59.6038 117.96L59.0299 118.056L57.848 118.275C57.0487 118.439 56.2425 118.597 55.4159 118.747C54.4277 118.931 53.4277 119.043 52.4235 119.083C52.1639 119.083 51.8975 119.083 51.6311 119.083C51.3646 119.083 51.0845 119.028 50.8044 118.98C50.5079 118.922 50.2191 118.831 49.9436 118.706C49.7906 118.646 49.6441 118.57 49.5064 118.48L49.0418 118.118C48.883 117.946 48.7654 117.74 48.6979 117.516C48.6305 117.291 48.6149 117.055 48.6524 116.824L48.7344 116.755Z" fill="#231F20"/>
<path d="M73.111 110.874L73.6849 110.593L74.006 110.449L74.5867 110.182C74.9166 110.033 75.2191 109.83 75.4816 109.58C75.5304 109.539 75.5665 109.485 75.5859 109.425C75.6052 109.364 75.607 109.299 75.5909 109.237C75.4215 108.824 75.1369 108.467 74.7711 108.211C74.3446 107.871 73.8871 107.574 73.4048 107.321C72.9669 107.098 72.5095 106.917 72.0384 106.78C71.444 106.615 70.8018 106.513 70.2758 106.389C70.1255 106.348 70.0777 106.075 70.2758 105.801C70.3858 105.639 70.5391 105.513 70.7181 105.435C70.8971 105.357 71.0943 105.332 71.2869 105.363C72.6874 105.626 74.0069 106.215 75.14 107.081C75.4998 107.351 75.8421 107.644 76.1648 107.957C76.3792 108.149 76.5508 108.385 76.6686 108.648C76.7863 108.911 76.8474 109.196 76.848 109.484C76.8037 109.818 76.6555 110.129 76.4244 110.374C76.2419 110.572 76.0354 110.747 75.8095 110.894C75.4115 111.155 74.9935 111.384 74.5593 111.579L74.3749 111.675L74.2792 111.709L74.0879 111.791L73.8898 111.88C73.8352 111.88 73.6985 111.949 73.7805 112.017C73.8625 112.085 74.0811 112.264 74.3065 112.448C74.6632 112.722 74.9906 113.032 75.2835 113.373C75.5411 113.663 75.7323 114.007 75.8437 114.379C75.9506 114.786 75.9094 115.218 75.7276 115.598C75.659 115.756 75.5718 115.905 75.468 116.043C75.0717 116.522 74.8531 116.549 74.6003 116.433C74.5409 116.411 74.4837 116.383 74.4295 116.351C74.2587 116.227 74.327 115.967 74.4842 115.666C74.5939 115.468 74.6613 115.248 74.6823 115.023C74.6918 114.874 74.6733 114.726 74.6276 114.584C74.4414 114.207 74.1643 113.883 73.8215 113.64L73.5892 113.455L73.1178 113.112C72.7725 112.919 72.4795 112.644 72.2638 112.311C72.0247 111.791 72.2639 111.237 73.152 110.86L73.111 110.874Z" fill="#231F20"/>
<path d="M137.323 249.702C137.255 249.825 137.118 249.702 136.927 249.407C136.847 249.268 136.794 249.114 136.77 248.955C136.787 248.856 136.817 248.76 136.858 248.668C137.075 248.481 137.303 248.307 137.542 248.148C137.709 248.028 137.896 247.94 138.095 247.887C138.484 247.764 138.894 247.641 139.311 247.552C139.406 247.538 139.503 247.538 139.598 247.552C139.931 247.6 140.269 247.6 140.602 247.552C140.663 247.55 140.722 247.531 140.773 247.497C141.158 247.399 141.562 247.399 141.948 247.497C142.244 247.641 142.529 247.806 142.802 247.99C142.836 247.99 142.891 247.99 142.898 248.093C142.898 248.278 143.007 248.298 143.082 248.36C143.191 248.436 143.284 248.534 143.355 248.647C143.389 248.72 143.408 248.8 143.41 248.88C143.41 248.955 143.287 249.092 143.26 249.099C143.232 249.106 143.157 249.216 143.116 249.284L143.068 249.346C142.945 249.372 142.819 249.386 142.693 249.387C142.515 249.387 142.344 249.455 142.317 249.448L141.941 249.38C141.793 249.368 141.645 249.368 141.497 249.38C141.449 249.38 141.415 249.346 141.367 249.325C141.138 249.337 140.909 249.367 140.684 249.414C140.554 249.414 140.431 249.462 140.281 249.353C140.281 249.353 140.226 249.353 140.199 249.353C139.959 249.388 139.717 249.408 139.475 249.414C139.352 249.432 139.231 249.459 139.113 249.496C139.088 249.5 139.063 249.5 139.038 249.496C139.008 249.49 138.978 249.49 138.949 249.496C138.647 249.554 138.351 249.643 138.068 249.763C138.006 249.763 137.63 249.763 137.562 249.811C137.494 249.859 137.35 249.647 137.323 249.702Z" fill="#231F20"/>
<path d="M162.429 264.161C162.752 263.956 163.139 263.878 163.515 263.941C163.543 263.95 163.568 263.965 163.588 263.986C163.608 264.007 163.623 264.033 163.631 264.061C163.638 264.089 163.638 264.119 163.631 264.147C163.624 264.175 163.61 264.201 163.59 264.222C163.408 264.373 163.224 264.517 163.037 264.653C162.153 265.181 161.328 265.803 160.578 266.509C160.311 266.748 160.051 267.002 159.806 267.269C159.56 267.536 159.286 267.775 159.034 268.036C158.548 268.597 158.043 269.124 157.599 269.727C157.367 270.014 157.127 270.302 156.916 270.596L156.28 271.479L155.686 272.28C154.99 273.179 154.384 274.145 153.876 275.162C153.779 275.329 153.701 275.506 153.643 275.69C153.466 276.08 152.277 278.75 152.092 279.113C151.643 280.002 151.244 280.917 150.897 281.851C150.862 281.991 150.801 282.123 150.719 282.241C150.547 282.499 150.43 282.791 150.378 283.097C150.248 283.501 150.125 283.912 150.009 284.323C149.935 284.526 149.843 284.723 149.735 284.911C149.725 284.938 149.706 284.961 149.683 284.977C149.659 284.993 149.631 285.002 149.602 285.002C149.574 285.002 149.546 284.993 149.522 284.977C149.498 284.961 149.48 284.938 149.469 284.911C149.469 284.706 149.326 284.85 149.244 284.857C149.217 284.864 149.188 284.864 149.162 284.857C149.147 284.718 149.147 284.578 149.162 284.439L149.203 283.508C149.278 282.823 149.38 282.139 149.421 281.988L149.599 281.386C149.708 281.03 149.824 280.557 149.995 280.092C150.303 279.14 150.678 278.175 150.76 277.976C150.846 277.772 150.944 277.573 151.054 277.381L151.703 275.922C152.024 275.238 152.386 274.553 152.386 274.478C152.664 273.924 152.998 273.401 153.384 272.917C153.458 272.82 153.525 272.717 153.582 272.609C154.144 271.706 154.763 270.839 155.433 270.014C155.754 269.583 156.116 269.158 156.451 268.741C156.513 268.665 156.588 268.604 156.656 268.528C156.748 268.447 156.834 268.36 156.916 268.268C157.36 267.796 157.811 267.337 158.282 266.899C158.753 266.461 159.232 266.03 159.751 265.632C159.867 265.543 160.229 265.304 160.591 265.064C160.953 264.825 161.37 264.64 161.507 264.537C161.643 264.434 162.265 264.229 162.429 264.161Z" fill="#231F20"/>
<path d="M173.469 54.3517L171.242 55.5771L168.974 56.6999C167.471 57.4735 165.913 58.1308 164.376 58.8222C163.263 59.3494 162.129 59.8218 160.96 60.2805C158.959 61.1089 156.861 61.7661 154.846 62.4781C152.831 63.1901 150.706 63.7584 148.602 64.265C146.75 64.7785 144.851 65.1413 143 65.5795C141.79 65.7985 140.581 66.0245 139.372 66.2162C138.163 66.4079 136.919 66.4216 135.696 66.4558C134.931 66.4558 135.013 66.2778 135.642 65.9697C136.625 65.495 137.669 65.1564 138.743 64.9633C143.574 64.0733 148.308 62.8273 153.09 61.458C155.995 60.5662 158.842 59.4962 161.616 58.254C162.395 57.9528 163.16 57.5694 163.919 57.2476L166.2 56.2001C167.71 55.4744 169.2 54.7077 170.689 53.9409C172.486 52.9345 174.317 51.9692 176.045 50.8464C176.728 50.4288 177.377 50.0317 178.026 49.6004L179.96 48.2311C181.264 47.3754 182.467 46.3827 183.69 45.4242C185.51 43.898 187.227 42.2512 188.827 40.4949C189.183 40.1115 189.545 39.7487 189.886 39.3516C190.306 38.8026 190.793 38.3081 191.335 37.8797C191.598 37.654 191.916 37.5028 192.257 37.4415C192.38 37.4098 192.506 37.3892 192.633 37.3799C192.96 37.3799 192.633 38.174 191.833 39.4337C189.066 43.0293 185.783 46.1946 182.091 48.8268C179.319 50.8347 176.436 52.6838 173.456 54.3654L173.469 54.3517Z" fill="#231F20"/>
<path d="M152.455 26.0697C154.067 25.9875 155.672 25.8985 157.285 25.8917L159.703 25.8438H162.122C163.297 25.8438 164.472 25.8437 165.64 25.8848C169.78 26.0218 173.906 26.3641 178.012 26.8501C178.921 26.9528 179.836 27.0555 180.745 27.1856C181.654 27.3157 182.569 27.3978 183.478 27.5485C185.809 27.8355 188.112 28.3164 190.364 28.9862C191.047 29.1984 190.911 29.3969 190.255 29.4859C189.215 29.57 188.168 29.5216 187.14 29.3422C182.494 28.5275 177.801 27.9318 173.046 27.4731C171.625 27.3157 170.163 27.2678 168.701 27.1925C167.239 27.1171 165.756 27.1377 164.294 27.0966H159.471C157.865 27.1514 156.253 27.1651 154.648 27.2541C152.673 27.3705 150.692 27.4595 148.725 27.6785L146.484 27.8908L144.25 28.1783L142.023 28.4795L139.823 28.8766C137.534 29.26 135.355 29.8967 133.141 30.4513C132.656 30.5882 132.198 30.7593 131.707 30.8963C129.91 31.4166 129.309 31.4919 128.803 31.218C128.69 31.1681 128.581 31.1109 128.475 31.0469C128.215 30.8278 128.885 30.3623 130.21 29.9104C134.289 28.5491 138.486 27.5749 142.747 27.0008C145.964 26.5352 149.216 26.2134 152.461 26.0149L152.455 26.0697Z" fill="#231F20"/>
<path d="M163.209 48.9019C164.029 48.6007 164.848 48.2858 165.654 47.9434C166.461 47.6011 167.26 47.2588 168.059 46.8823C168.647 46.6221 169.193 46.2935 169.767 46.0128C171.799 45.0282 173.771 43.9217 175.67 42.6992C176.524 42.1721 177.316 41.5422 178.109 40.9466L179.584 39.7211C180.062 39.2953 180.561 38.8954 181.081 38.5231C181.764 38.0644 181.764 39.5979 180.616 40.5769C178.57 42.3041 176.349 43.8116 173.989 45.0749C172.575 45.8348 171.147 46.6906 169.685 47.43C168.886 47.8408 168.059 48.1968 167.246 48.5801C166.433 48.9635 165.6 49.2648 164.766 49.6276C163.735 50.0315 162.717 50.4286 161.658 50.7846C160.08 51.346 158.461 51.7979 156.876 52.2703C155.632 52.6194 154.423 53.0028 153.186 53.3109C152.913 53.3793 152.647 53.4615 152.367 53.5094C151.335 53.7148 151 53.7011 150.72 53.4683C150.657 53.4211 150.597 53.3684 150.543 53.3109C150.413 53.1192 150.795 52.8659 151.526 52.6263C153.692 51.9896 155.96 51.3529 158.208 50.5724C159.875 50.0042 161.549 49.4291 163.195 48.7924L163.209 48.9019Z" fill="#231F20"/>
<path d="M35.1943 49.1277C37.36 46.3345 41.9441 44.4929 45.442 45.4171C45.6886 45.4689 45.9457 45.4246 46.1608 45.2931C46.376 45.1617 46.5331 44.953 46.6001 44.7096C46.6672 44.4662 46.6391 44.2063 46.5217 43.9829C46.4043 43.7595 46.2063 43.5893 45.9681 43.507C41.869 42.4116 36.4036 44.3833 33.8211 47.7243C33.0423 48.7238 34.436 50.1341 35.1875 49.0935L35.1943 49.1277Z" fill="#231F20"/>
<path d="M54.4452 42.8152C55.6954 41.1448 57.6902 40.5081 59.6373 40.0768C60.8807 39.7961 60.3546 37.8791 59.1113 38.1598C56.5835 38.7281 54.329 39.6934 52.7372 41.8157C51.972 42.8426 53.6868 43.8285 54.4452 42.8221V42.8152Z" fill="#231F20"/>
<path d="M65.2683 72.254C64.8106 74.3079 61.5177 73.1372 60.3289 72.3841C59.2495 71.6995 58.2794 73.4179 59.3315 74.1025C61.6543 75.5745 66.3819 76.3618 67.1812 72.7812C67.4545 71.542 65.5484 71.008 65.2683 72.254Z" fill="#231F20"/>
<path d="M70.3768 123.985C70.3168 124.638 70.0621 125.258 69.6458 125.765C69.5021 125.965 69.3294 126.143 69.1335 126.292C68.9293 126.433 68.6958 126.525 68.4508 126.562C68.2058 126.598 67.9556 126.579 67.7193 126.504C67.4972 126.427 67.2958 126.299 67.1301 126.132C66.9644 125.965 66.8388 125.762 66.7628 125.539C66.6481 125.222 66.5657 124.894 66.5169 124.56C66.4125 124.156 66.4292 123.729 66.5647 123.334C66.6194 123.204 66.9131 123.287 67.1796 123.423C67.446 123.56 67.7125 123.738 67.7056 123.916C67.6648 124.429 67.7395 124.943 67.9242 125.423C68.0745 125.607 68.3273 125.525 68.6074 125.306C68.9212 125.022 69.1425 124.65 69.2428 124.238C69.3188 124.016 69.3188 123.775 69.2428 123.554C69.1747 123.378 69.063 123.223 68.9184 123.103C68.7737 122.984 68.6008 122.903 68.4161 122.869C68.2697 122.845 68.1198 122.857 67.9789 122.903C67.8423 122.903 67.7329 123.033 67.7398 123.067C67.7466 123.102 67.6373 122.985 67.6578 122.992C67.6783 122.999 67.5895 122.958 67.5963 122.958C67.6038 122.962 67.6119 122.963 67.6202 122.963C67.6285 122.963 67.6367 122.962 67.6441 122.958C67.6441 122.958 67.7329 122.958 67.7603 122.958C67.7053 123.047 67.6437 123.132 67.5758 123.211L67.4528 123.382C67.4224 123.428 67.3806 123.466 67.3316 123.491C67.2825 123.516 67.2278 123.528 67.1727 123.526C67.0896 123.522 67.0094 123.494 66.9416 123.445C66.8738 123.397 66.8213 123.33 66.7902 123.252C66.7342 123.148 66.7011 123.033 66.6928 122.915C66.6846 122.797 66.7015 122.679 66.7423 122.568C66.8156 122.366 66.9433 122.188 67.1112 122.054C67.3458 121.886 67.6179 121.778 67.9037 121.739C68.4048 121.677 68.9127 121.778 69.3521 122.027C69.6921 122.225 69.9729 122.511 70.1651 122.855C70.2576 123.024 70.331 123.204 70.3837 123.389C70.4318 123.584 70.4548 123.784 70.452 123.985H70.3768Z" fill="#231F20"/>
<path d="M186.6 3.98387C186.463 3.9291 186.6 3.77164 186.921 3.55256C187.072 3.45665 187.238 3.38719 187.413 3.34717C187.519 3.3578 187.624 3.37843 187.727 3.40878C187.937 3.6244 188.133 3.85306 188.315 4.09341C188.446 4.2496 188.547 4.42817 188.615 4.62057C188.759 5.00395 188.916 5.3805 189.046 5.76389C189.074 5.85218 189.086 5.94511 189.08 6.03773C189.076 6.3516 189.142 6.6624 189.271 6.94828C189.271 6.9962 189.271 7.05098 189.36 7.08521C189.538 7.38388 189.647 7.71817 189.681 8.06422C189.64 8.35176 189.633 8.63245 189.592 8.91999C189.592 8.96107 189.592 8.9953 189.558 9.04322C189.524 9.09115 189.462 9.22807 189.462 9.31707C189.479 9.43516 189.479 9.55499 189.462 9.67308C189.462 9.73469 189.374 9.80316 189.319 9.87162C189.231 9.9257 189.127 9.94748 189.025 9.93323C188.943 9.899 188.854 9.93323 188.766 9.98116H188.67C188.444 9.80768 188.24 9.60771 188.062 9.38553L187.857 8.93368C187.768 8.70776 187.666 8.46814 187.638 8.42706C187.611 8.38599 187.638 8.31753 187.638 8.25591C187.638 8.19429 187.317 7.57129 187.31 7.53021C187.31 7.37959 187.181 7.25636 187.269 7.07151C187.278 7.05825 187.282 7.04279 187.282 7.02701C187.282 7.01123 187.278 6.99578 187.269 6.98251C187.183 6.73355 187.121 6.47674 187.085 6.21574C187.051 6.08723 187.007 5.96138 186.955 5.83919C186.955 5.83919 186.955 5.79127 186.955 5.76389C186.962 5.73233 186.962 5.6996 186.955 5.66804C186.872 5.3627 186.757 5.06676 186.613 4.78488C186.579 4.72326 186.613 4.33987 186.545 4.27141C186.477 4.20295 186.654 4.00441 186.6 3.98387Z" fill="#231F20"/>
<path d="M198.897 12.09C198.897 12.2954 198.678 12.3639 198.309 12.357C198.147 12.3321 197.997 12.258 197.879 12.1448C197.842 12.0122 197.815 11.8772 197.797 11.7409C197.797 11.6656 198.104 10.6181 198.227 10.2621C198.329 9.91762 198.466 9.58486 198.637 9.26939C198.992 8.63269 199.32 7.98915 199.758 7.37983C199.847 7.23978 199.952 7.11105 200.072 6.99644C200.466 6.60106 200.822 6.17022 201.138 5.70935C201.205 5.63905 201.253 5.55143 201.274 5.45605C201.607 4.92143 202.014 4.43729 202.483 4.01834C202.907 3.74449 203.303 3.4501 203.747 3.21049C203.809 3.21049 203.85 3.10779 203.945 3.12148C204.027 3.12688 204.108 3.11504 204.185 3.08673C204.262 3.05842 204.331 3.01428 204.39 2.95717C204.573 2.84865 204.765 2.75479 204.963 2.67648C205.078 2.65014 205.195 2.63864 205.312 2.64225C205.414 2.64225 205.489 2.8271 205.476 2.86133C205.462 2.89556 205.551 2.99825 205.606 3.05987C205.628 3.08198 205.646 3.10739 205.66 3.13518C205.569 3.32823 205.466 3.51569 205.353 3.69657C205.252 3.90892 205.131 4.11073 204.991 4.29904C204.991 4.29904 204.704 4.62081 204.417 4.92889C204.13 5.23697 203.836 5.61351 203.788 5.66828C203.723 5.74228 203.644 5.80276 203.556 5.84628C203.508 5.84628 202.75 6.91429 202.723 6.95537C202.538 7.14706 202.422 7.39353 202.149 7.5236C202.094 7.5236 202.067 7.59207 202.033 7.63999C201.78 8.02338 201.466 8.36569 201.179 8.72854C201.028 8.91339 200.919 9.13247 200.782 9.33101C200.782 9.33101 200.721 9.38578 200.694 9.42001C200.652 9.45599 200.615 9.49744 200.584 9.54324C200.268 10.0133 199.985 10.5052 199.737 11.0152C199.682 11.1316 199.266 11.6176 199.218 11.7614C199.17 11.9052 198.89 12.0079 198.897 12.09Z" fill="#231F20"/>
<path d="M207.915 23.5846C207.874 23.7078 207.731 23.5846 207.519 23.2559C207.428 23.1038 207.356 22.9404 207.307 22.7699C207.296 22.672 207.296 22.5733 207.307 22.4755C207.307 22.4275 207.697 22.0921 207.82 21.962C207.936 21.8465 208.076 21.7577 208.229 21.7018L209.118 21.3048C209.187 21.276 209.261 21.262 209.336 21.2637C209.578 21.257 209.814 21.1862 210.019 21.0583C210.06 21.0583 210.101 21.0583 210.115 20.9693C210.33 20.7897 210.586 20.6651 210.86 20.6064C211.087 20.6193 211.315 20.6193 211.543 20.6064C211.543 20.6064 211.597 20.6064 211.645 20.6064C211.693 20.6064 211.809 20.6681 211.878 20.6544C211.973 20.6437 212.069 20.6437 212.165 20.6544C212.231 20.6781 212.294 20.7128 212.349 20.7571C212.408 20.8293 212.443 20.9176 212.451 21.0104C212.451 21.0857 212.506 21.161 212.54 21.2363C212.555 21.2624 212.566 21.2899 212.574 21.3185C212.47 21.5396 212.342 21.7485 212.192 21.9415L211.85 22.1811L211.475 22.4686C211.475 22.4686 211.386 22.4686 211.331 22.4686C211.276 22.4686 210.805 22.8383 210.778 22.8452C210.75 22.852 210.566 22.9821 210.395 22.9136C210.395 22.9136 210.347 22.9136 210.32 22.9136C210.125 23.0097 209.918 23.081 209.705 23.1259C209.598 23.1615 209.496 23.2074 209.398 23.2628C209.398 23.2628 209.357 23.2628 209.336 23.2628C209.316 23.2628 209.275 23.2628 209.254 23.2628C209.018 23.3507 208.789 23.4583 208.571 23.5846C208.523 23.6256 208.188 23.5846 208.134 23.6393C208.079 23.6941 207.929 23.5298 207.915 23.5846Z" fill="#231F20"/>
</svg>
