<svg width="161" height="322" viewBox="0 0 161 322" fill="none" xmlns="http://www.w3.org/2000/svg">
<path d="M115.977 59.1746C116.27 58.4054 116.411 57.5866 116.391 56.7639C116.386 55.9396 116.206 55.1258 115.865 54.3756C115.633 53.8251 115.31 53.3173 114.91 52.8736C114.715 52.6515 114.487 52.4614 114.233 52.3104C113.998 52.1646 113.746 52.0486 113.482 51.9649C112.976 51.8054 112.448 51.7318 111.918 51.7471C110.903 51.7668 109.907 52.024 109.009 52.4981C108.229 52.8972 107.508 53.4027 106.867 54.0001C106.02 54.7067 105.346 55.5983 104.898 56.6061C104.762 56.9141 105.116 57.0417 105.559 56.9816C106.073 56.9074 106.539 56.6385 106.859 56.2306C107.91 54.6537 109.523 53.5364 111.37 53.1064C111.918 52.9976 112.486 53.0338 113.016 53.2116C113.251 53.2931 113.469 53.4151 113.662 53.5721C113.763 53.6562 113.854 53.752 113.933 53.8574C114.015 53.9701 114.121 54.0677 114.196 54.1879C114.564 54.7154 114.821 55.3126 114.95 55.9428C115.08 56.573 115.079 57.223 114.948 57.8528C114.798 58.6505 114.457 59.4002 113.955 60.0383C113.562 60.5064 113.083 60.894 112.542 61.1798C111.987 61.4405 111.382 61.5764 110.768 61.5778C109.648 61.473 108.52 61.6755 107.506 62.1636C107.279 62.28 107.063 62.4157 106.859 62.5692C106.108 63.17 106.048 63.5004 106.221 63.8684C106.251 63.9552 106.292 64.0383 106.341 64.1163C106.529 64.3641 106.912 64.2214 107.356 63.8985C107.965 63.4133 108.695 63.1042 109.468 63.0048C109.9 62.9588 110.334 62.9412 110.768 62.9522C111.05 62.9528 111.331 62.9327 111.61 62.8921C111.899 62.8422 112.185 62.777 112.467 62.6969C113.284 62.4163 114.029 61.9573 114.647 61.3532C115.264 60.7491 115.739 60.0152 116.037 59.2046L115.977 59.1746Z" fill="#221F1F"/>
<path d="M105.199 55.5775C99.3437 55.5775 105.312 42.3222 100.606 40.0842C97.1037 38.4169 83.8892 43.1408 73.1704 36.0512C64.3307 30.2008 62.1508 17.8692 68.7656 12.0939C75.012 6.64908 84.1899 7.82817 91.0151 11.4255C97.0285 14.6098 106.049 26.1153 106.8 26.8814C109.619 29.5475 114.633 23.2615 121.834 26.7612C130.275 30.8767 131.433 43.0131 124.901 48.7584C119.962 53.1067 113.355 51.7624 111.235 51.9952C110.017 52.1529 106.53 55.5775 105.199 55.5775Z" fill="#221F1F"/>
<path d="M102.23 20.2724C100.644 18.5451 99.0202 16.8553 97.2988 15.2482C95.5785 13.5806 93.6717 12.1166 91.6162 10.8848C89.5074 9.74541 87.2583 8.88696 84.9263 8.33133C82.5885 7.74984 80.1729 7.54448 77.7704 7.72301C74.192 7.94112 70.7905 9.3534 68.1113 11.7334C66.9462 12.826 66.0087 14.1378 65.3527 15.5936C65.1948 15.9541 65.0821 16.3446 64.9468 16.7051L64.7514 17.2684L64.6236 17.8392C64.5484 18.2297 64.4582 18.5902 64.3905 18.9957L64.2853 20.1673C64.2553 20.5572 64.2553 20.9489 64.2853 21.3389C64.2853 21.7294 64.2853 22.0899 64.3304 22.5029C64.4068 23.2762 64.5323 24.0437 64.7063 24.801L64.9844 25.9276L65.3602 27.024C65.6239 27.7498 65.9302 28.4595 66.2773 29.1494C67.6985 31.9028 69.7608 34.2749 72.2907 36.0662C74.796 37.8391 77.6299 39.0953 80.6267 39.7612C83.2462 40.3515 85.9242 40.6437 88.6095 40.6324C91.2854 40.6324 93.9539 40.4146 96.5622 40.2869C97.3831 40.2305 98.2068 40.2305 99.0277 40.2869C99.4062 40.3077 99.7802 40.3784 100.14 40.4972C100.457 40.61 100.745 40.7922 100.982 41.0304C101.451 41.6059 101.75 42.3001 101.846 43.0356C101.971 43.838 102.026 44.6496 102.012 45.4614C102.012 47.1211 101.846 48.8034 101.839 50.5307C101.818 51.414 101.886 52.2971 102.042 53.1668C102.134 53.6299 102.286 54.0791 102.493 54.5036C102.724 54.9654 103.078 55.355 103.515 55.6301C103.906 55.8736 104.363 55.9916 104.823 55.968C105.101 55.968 105.214 55.8929 105.199 55.8178C105.184 55.7427 104.56 55.555 103.951 55.0143C103.342 54.4735 103.139 53.362 103.199 51.9051C103.26 50.4481 103.455 48.7058 103.538 46.7231C103.586 45.8275 103.586 44.93 103.538 44.0345C103.503 43.0552 103.289 42.0905 102.906 41.1881C102.684 40.66 102.346 40.1886 101.916 39.8089C101.487 39.4293 100.978 39.1512 100.426 38.9952C99.4926 38.7795 98.5332 38.6986 97.577 38.7548C95.788 38.7924 94.0817 38.9576 92.3679 39.0553C90.654 39.1529 88.9553 39.213 87.264 39.1679C83.8984 39.1365 80.5648 38.5111 77.4171 37.3204C74.2879 36.1107 71.5214 34.1198 69.3817 31.5376C66.7913 28.3686 65.4541 24.3605 65.6233 20.2724C65.7357 18.2413 66.3869 16.2765 67.51 14.5798C68.6936 12.9276 70.2726 11.5979 72.1027 10.712C74.1248 9.69953 76.3439 9.14075 78.6047 9.07484C80.8875 9.00792 83.1676 9.28129 85.3698 9.88593C87.5765 10.4906 89.6942 11.3819 91.6688 12.537C93.5873 13.8151 95.3749 15.2792 97.0057 16.9079C99.0653 18.8981 101.02 21.0009 102.914 23.1563C103.868 24.2378 104.793 25.3343 105.733 26.4307C105.973 26.7086 106.191 26.9715 106.484 27.2719C106.792 27.5741 107.165 27.8026 107.574 27.9403C108.356 28.1588 109.183 28.1588 109.965 27.9403C111.077 27.6624 112.092 27.2644 113.122 26.9489C114.129 26.6096 115.17 26.378 116.226 26.258C118.321 26.0419 120.431 26.5082 122.239 27.5873C124.1 28.6171 125.656 30.1197 126.749 31.9432C127.833 33.7728 128.474 35.8302 128.621 37.9513C128.685 38.7636 128.685 39.5797 128.621 40.3921C128.535 41.1976 128.379 41.9941 128.155 42.7728C127.733 44.3259 126.99 45.7738 125.975 47.0235C125.744 47.3481 125.477 47.6454 125.178 47.9097C124.908 48.201 124.617 48.4721 124.306 48.7208C123.692 49.2226 123.024 49.6557 122.315 50.0125C120.881 50.7235 119.334 51.1809 117.744 51.3643C116.324 51.5141 114.894 51.5542 113.467 51.4845C112.791 51.4845 112.159 51.4319 111.536 51.4845C111.361 51.4855 111.187 51.5056 111.017 51.5446C110.839 51.5825 110.668 51.6431 110.506 51.7248C110.246 51.8449 109.995 51.9829 109.754 52.1379C109.091 52.5851 108.451 53.0664 107.837 53.5798C106.86 54.3834 106.334 54.8565 105.921 55.2771C105.727 55.4629 105.51 55.6221 105.274 55.7503C105.146 55.8404 105.169 55.908 105.424 55.938C105.82 55.9413 106.21 55.8458 106.559 55.6601C107.908 54.9383 109.208 54.1305 110.453 53.2419C110.7 53.0782 110.968 52.9493 111.25 52.8589C111.565 52.834 111.882 52.834 112.197 52.8589L114.452 52.949C116.026 53.0012 117.601 52.8853 119.15 52.6035C120.755 52.3005 122.294 51.7184 123.698 50.8837C125.129 50.0284 126.372 48.8914 127.351 47.5417C129.266 44.766 130.192 41.4272 129.978 38.0624C129.763 34.6976 128.423 31.5027 126.171 28.9917C125.747 28.5253 125.284 28.0957 124.788 27.7075C124.306 27.299 123.785 26.9392 123.232 26.6335C121.054 25.2583 118.47 24.6699 115.91 24.9663C114.682 25.1283 113.474 25.4126 112.302 25.8149C111.255 26.2089 110.179 26.5252 109.085 26.7612C108.68 26.8435 108.26 26.807 107.875 26.656C107.707 26.5788 107.554 26.4719 107.424 26.3406C107.289 26.1979 107.078 25.9501 106.898 25.7398C105.394 23.9599 103.846 22.1575 102.26 20.4076L102.23 20.2724Z" fill="#221F1F"/>
<path d="M83.9653 78.4384C81.5355 76.4603 79.437 74.1076 77.749 71.469C77.1691 70.5029 76.6543 69.4994 76.208 68.4649C74.6163 64.7424 73.8471 60.7206 73.953 56.6741C73.9889 54.8692 74.1572 53.0695 74.4566 51.2893C74.8625 49.0363 75.4488 46.7832 75.96 44.5302C76.2606 43.1108 74.4566 44.4851 73.7801 47.1587C72.5691 51.8914 72.2883 56.8138 72.9533 61.6533C73.188 63.126 73.5016 64.585 73.8929 66.0242C74.306 67.4783 74.8468 68.8932 75.509 70.2524C77.0031 73.2013 79.0231 75.8532 81.4697 78.0779C82.2214 78.7688 82.9731 79.4297 83.7248 80.0756C84.4743 80.6784 85.1732 81.3415 85.8144 82.0583L86.1376 82.5164C86.2323 82.6439 86.3154 82.7796 86.3857 82.9219C86.5324 83.2328 86.6482 83.5573 86.7315 83.8907C86.8977 84.6026 87.0133 85.3254 87.0772 86.0536C87.1524 86.8047 87.1975 87.5557 87.2501 88.3067C87.2857 89.0913 87.4195 89.8684 87.6485 90.6198C87.8391 91.2517 88.1976 91.8201 88.6858 92.2645C89.2267 92.7 89.9088 92.9218 90.6026 92.8879C91.8412 92.7726 93.0319 92.352 94.0678 91.6637C94.5177 91.3986 94.9519 91.1078 95.3682 90.7925C96.8715 89.5909 97.2399 89.0352 97.2699 88.4944C97.285 88.3722 97.285 88.2487 97.2699 88.1265C97.1797 87.7885 96.5183 88.194 95.4434 89.0201C94.6644 89.6358 93.8374 90.1883 92.9704 90.6724C92.1996 91.1468 91.3253 91.4276 90.4222 91.491C90.098 91.4967 89.7829 91.3846 89.5352 91.1756C89.2718 90.9103 89.0758 90.5858 88.9639 90.2293C88.7091 89.2658 88.5753 88.2743 88.5655 87.2778C88.5129 86.4742 88.4528 85.6481 88.3325 84.7995C88.2332 83.8846 87.979 82.9932 87.5809 82.1634C87.5191 82.0417 87.4461 81.9261 87.3629 81.8179L87.2426 81.6452C87.3253 81.7729 87.1374 81.5025 87.2426 81.6452C87.1137 81.4228 86.9626 81.2139 86.7916 81.0219C86.5025 80.6884 86.1938 80.3724 85.867 80.0756C85.2431 79.5048 84.6268 78.9866 84.0254 78.4609L83.9653 78.4384Z" fill="#221F1F"/>
<path d="M155.779 123.995C154.554 120.875 153.009 117.891 151.172 115.088C150.248 113.678 149.221 112.34 148.097 111.085C147.556 110.439 146.94 109.853 146.353 109.252C145.767 108.651 145.098 108.103 144.452 107.585C142.58 106.083 140.693 104.581 138.746 103.124C135.321 100.593 131.763 98.2464 128.088 96.0944C126.246 95.0205 124.329 94.0141 122.413 93.0904C120.467 92.1715 118.442 91.4324 116.362 90.8824C115.424 90.6444 114.469 90.4787 113.505 90.3867C112.533 90.3288 111.557 90.354 110.589 90.4618C108.62 90.648 106.74 91.3701 105.154 92.5496C103.197 94.1376 101.755 96.2705 101.012 98.6779C100.261 101.005 99.8259 103.422 99.7195 105.865C99.6368 107.367 100.02 107.187 100.471 105.963C100.922 104.739 101.478 102.493 102.223 99.9546C102.535 98.8453 102.966 97.7727 103.508 96.7553C104.049 95.7779 104.733 94.8868 105.537 94.1117C106.372 93.3916 107.326 92.8223 108.356 92.4295C109.427 92.0566 110.546 91.8416 111.679 91.7911C114.016 91.7081 116.345 92.1095 118.519 92.9702C120.796 93.798 123.012 94.7868 125.149 95.9292C130.401 98.8111 135.404 102.125 140.107 105.835C141.415 106.841 142.715 107.863 143.978 108.914C145.219 109.966 146.375 111.114 147.436 112.346C149.539 114.856 151.324 117.616 152.75 120.562C154.526 124.203 155.924 128.015 156.922 131.94C157.694 134.902 158.264 137.913 158.628 140.952C159.033 143.975 159.079 147.036 158.764 150.07C158.69 150.635 158.566 151.193 158.395 151.737C158.306 151.995 158.198 152.246 158.072 152.488C157.952 152.751 157.816 153.006 157.674 153.239C157.114 154.231 156.427 155.145 155.629 155.958C154.453 157.175 152.99 158.079 151.375 158.586L150.57 158.841L149.743 158.999C149.247 159.094 148.745 159.149 148.24 159.164C147.74 159.199 147.237 159.199 146.737 159.164C146.309 159.165 145.882 159.132 145.459 159.067L144.384 158.954C143.745 158.826 143.219 158.744 142.783 158.684C142.182 158.543 141.564 158.497 140.949 158.549C140.744 158.556 140.54 158.584 140.34 158.631C140.114 158.714 140.34 158.924 141.016 159.232C141.347 159.382 141.768 159.57 142.294 159.758C142.821 159.945 143.459 160.073 144.174 160.246C146.377 160.698 148.652 160.68 150.848 160.193C153.137 159.617 155.21 158.391 156.817 156.664C157.625 155.804 158.318 154.842 158.876 153.802C159.027 153.547 159.154 153.284 159.282 153.014C159.421 152.734 159.541 152.445 159.643 152.15C159.824 151.568 159.963 150.973 160.056 150.37C160.331 148.092 160.382 145.793 160.207 143.506C159.722 136.82 158.243 130.244 155.817 123.995H155.779Z" fill="#221F1F"/>
<path d="M107.544 103.086C107.716 102.358 107.94 101.643 108.212 100.946C108.318 100.698 108.453 100.458 108.573 100.195C108.937 99.3149 109.431 98.4946 110.039 97.7615C110.315 97.4477 110.634 97.1746 110.986 96.9504C111.204 96.8152 111.452 96.7326 111.678 96.6049C111.917 96.509 112.144 96.3855 112.354 96.2369C112.49 96.1393 112.354 95.7938 112.129 95.4859C112.008 95.3317 111.845 95.2167 111.659 95.1552C111.473 95.0937 111.273 95.0886 111.084 95.1404C109.889 95.7158 108.915 96.6651 108.31 97.8441C108.13 98.1745 107.949 98.505 107.739 98.8204C107.528 99.1358 107.363 99.4813 107.198 99.8117C106.866 100.56 106.588 101.33 106.363 102.117C106.221 102.59 106.108 103.079 105.995 103.559C105.83 104.31 105.724 105.061 105.589 105.775C105.499 106.346 105.341 106.894 105.251 107.472C105.224 107.598 105.203 107.726 105.191 107.855C105.191 108.343 105.258 108.493 105.634 108.606L105.89 108.666C106.034 108.676 106.176 108.632 106.29 108.543C106.404 108.455 106.481 108.327 106.506 108.186C106.762 107.239 106.89 106.255 107.085 105.264C107.228 104.513 107.371 103.762 107.574 103.064L107.544 103.086Z" fill="#221F1F"/>
<path d="M96.9076 128.778C98.898 132.792 101.291 136.594 104.049 140.126C106.777 143.691 109.953 146.892 113.497 149.649C114.807 150.657 116.195 151.561 117.646 152.353C118.36 152.766 119.15 153.104 119.901 153.442C120.68 153.74 121.475 153.991 122.284 154.193C123.003 154.384 123.734 154.527 124.471 154.621C125.221 154.701 125.977 154.701 126.727 154.621C128.252 154.441 129.712 153.894 130.981 153.029C132.225 152.17 133.285 151.072 134.1 149.799C134.896 148.554 135.528 147.211 135.98 145.804C136.839 143.039 137.241 140.152 137.167 137.257C137.088 134.378 136.715 131.514 136.055 128.711C135.485 126.23 134.747 123.791 133.845 121.411C132.962 119.038 131.958 116.712 130.838 114.441C129.391 111.539 127.798 108.712 126.065 105.97C125.156 104.633 124.299 103.259 123.329 101.96L121.893 100.007L120.39 98.122C119.12 96.5524 119.007 96.9955 119.758 98.5576C121.091 101.059 122.551 103.49 124.133 105.842C125.923 108.547 127.564 111.348 129.049 114.231C130.543 117.108 131.844 120.081 132.943 123.131C134.033 126.178 134.843 129.317 135.363 132.511C135.869 135.697 135.925 138.938 135.529 142.139C135.262 144.047 134.704 145.904 133.875 147.644C133.068 149.385 131.813 150.881 130.237 151.977C128.663 153.045 126.761 153.519 124.87 153.314C122.923 153.084 121.03 152.517 119.277 151.639C115.384 149.619 111.878 146.929 108.919 143.693C105.892 140.477 103.209 136.953 100.914 133.179C98.1028 128.553 95.7275 123.559 94.6301 118.272C94.182 116.299 94.1232 114.258 94.4572 112.264C94.6371 111.307 95.0333 110.403 95.6156 109.622C96.1979 108.841 96.9508 108.204 97.8171 107.757C98.6706 107.293 99.6267 107.05 100.598 107.05C101.57 107.05 102.526 107.293 103.38 107.757C104.235 108.202 104.965 108.856 105.499 109.658C105.973 110.472 106.123 111.434 105.92 112.354C105.642 113.856 104.823 115.2 104.161 116.68C103.984 117.064 103.84 117.464 103.733 117.874C103.597 118.342 103.597 118.839 103.733 119.308C103.754 119.371 103.782 119.431 103.816 119.488L103.876 119.608L103.936 119.811L104.116 120.427C104.258 120.817 104.424 121.198 104.612 121.569C106.212 124.371 108.27 126.887 110.701 129.011C111.219 129.492 111.753 129.942 112.279 130.408C112.806 130.874 113.362 131.302 113.941 131.722C115.417 132.883 117.021 133.874 118.721 134.674C119.179 134.892 119.657 135.063 120.149 135.184C120.48 135.287 120.825 135.338 121.172 135.335C121.422 135.353 121.673 135.353 121.923 135.335C122.194 135.275 121.841 135.012 121.014 134.629C120.187 134.246 118.917 133.54 117.361 132.503C115.013 130.944 112.816 129.169 110.799 127.201C109.778 126.215 108.819 125.167 107.927 124.062C107.031 123.001 106.273 121.83 105.672 120.577L105.462 120.119L105.326 119.669L105.259 119.443L105.221 119.323C105.198 119.211 105.16 119.102 105.108 119L105.048 118.887C105.048 118.887 105.048 118.887 105.048 118.842C105.048 118.797 105.048 118.79 105.048 118.745C105.064 118.179 105.216 117.625 105.492 117.13C106.226 115.762 106.81 114.319 107.236 112.827C107.457 111.952 107.457 111.036 107.236 110.161C106.981 109.279 106.496 108.48 105.83 107.848C105.522 107.552 105.193 107.278 104.845 107.029L104.327 106.684L103.748 106.383C102.967 105.992 102.116 105.76 101.245 105.7C99.3241 105.588 97.4297 106.188 95.9246 107.385C94.4196 108.583 93.4099 110.293 93.0891 112.188C92.9783 112.781 92.9079 113.381 92.8786 113.983C92.8786 114.577 92.8787 115.17 92.9162 115.756C93.1133 118.057 93.5878 120.327 94.3294 122.515C95.0482 124.67 95.9095 126.775 96.9076 128.816V128.778Z" fill="#221F1F"/>
<path d="M100.726 125.384C101.032 124.971 101.391 124.6 101.793 124.28C101.945 124.172 102.103 124.074 102.266 123.987C102.807 123.59 103.42 123.305 104.07 123.146C104.363 123.088 104.662 123.075 104.957 123.108L105.521 123.213C105.709 123.255 105.904 123.255 106.093 123.213C106.363 123.176 106.401 121.801 105.814 121.674C104.834 121.494 103.821 121.645 102.935 122.102C102.402 122.325 101.88 122.576 101.372 122.853C100.853 123.204 100.38 123.621 99.9664 124.092C99.7147 124.372 99.4812 124.668 99.2673 124.978C98.9498 125.447 98.6587 125.934 98.3954 126.435C98.1924 126.818 97.9293 127.186 97.7339 127.577C97.6823 127.66 97.6395 127.748 97.6061 127.839C97.4858 128.185 97.5535 128.328 97.8992 128.478L98.1323 128.583C98.2513 128.629 98.3822 128.636 98.5054 128.602C98.6287 128.568 98.7377 128.496 98.8163 128.395C99.2297 127.817 99.5153 127.209 99.8762 126.615C100.13 126.171 100.422 125.749 100.748 125.354L100.726 125.384Z" fill="#221F1F"/>
<path d="M78.245 111.1C79.2146 111.851 80.8909 113.308 80.7405 114.667C80.5752 116.237 78.2074 115.381 77.4181 114.9L78.0871 114.247C78.8388 114.705 80.6052 115.854 80.1016 116.92C79.4101 118.422 77.0122 117.198 76.1929 116.537C75.5615 116.027 76.5161 115.584 76.9972 115.967C77.2287 116.153 77.4809 116.312 77.7489 116.44C78.2525 116.68 79.3424 116.8 78.7712 116.004C78.3642 115.523 77.8725 115.121 77.3204 114.818C76.7116 114.442 77.5008 113.871 77.9894 114.164C78.2826 114.344 78.8313 114.705 79.1771 114.645C79.8836 114.525 79.4026 113.804 79.132 113.398C78.6798 112.735 78.118 112.153 77.4707 111.678C76.8243 111.19 77.7865 110.74 78.275 111.1H78.245Z" fill="#221F1F"/>
<path d="M68.7658 113.285C68.8164 116.012 69.2984 118.714 70.194 121.291C70.3668 121.786 70.5097 122.177 70.6374 122.635L71.0208 123.994C71.9604 127.239 72.9 130.513 74.1102 133.705C74.6245 135.139 75.2244 136.541 75.9067 137.903C76.0119 138.121 76.1472 138.339 76.26 138.556C76.3826 138.787 76.5181 139.01 76.6659 139.225C76.9898 139.637 77.3607 140.01 77.7708 140.336C78.5275 140.94 79.3291 141.484 80.1687 141.966C80.6122 142.244 80.8377 141.966 80.6272 141.358C80.2688 140.554 79.7065 139.857 78.9961 139.337C78.6493 139.077 78.3227 138.791 78.0189 138.481C77.9663 138.406 77.8911 138.339 77.8535 138.271L77.7859 138.181L77.6957 138.038L77.3499 137.445C76.8931 136.623 76.4791 135.778 76.1096 134.914C75.358 133.164 74.6965 131.339 74.0425 129.492C73.2909 127.284 72.7346 124.903 72.0506 122.567C71.8702 121.929 71.6221 121.253 71.4192 120.667C71.2162 120.081 71.0434 119.436 70.8855 118.805C70.5654 117.547 70.3418 116.266 70.2165 114.975C70.0266 113.421 70.1519 111.845 70.5848 110.341C70.7388 109.807 71.0094 109.313 71.3773 108.897C71.7451 108.48 72.201 108.15 72.7121 107.93C73.2405 107.722 73.8055 107.622 74.3733 107.637C74.6625 107.635 74.9515 107.655 75.2377 107.697C75.5135 107.721 75.7844 107.784 76.042 107.885C76.862 108.227 77.623 108.696 78.297 109.274C78.6344 109.554 78.9509 109.858 79.2441 110.183C79.2789 110.221 79.3116 110.261 79.3418 110.303L79.3869 110.356L79.4696 110.476C79.5162 110.549 79.5541 110.627 79.5824 110.709V110.746C79.6001 110.78 79.6072 110.818 79.6026 110.856C79.598 110.894 79.582 110.93 79.5567 110.958C79.5314 110.987 79.498 111.007 79.461 111.016C79.424 111.025 79.385 111.023 79.3493 111.009C79.2428 110.99 79.1374 110.965 79.0337 110.934H78.9059L78.6428 110.866C78.3688 110.787 78.0756 110.809 77.8159 110.927C77.7104 110.966 77.6115 111.022 77.5228 111.092C77.4175 111.212 77.4777 111.362 77.6806 111.557C77.8135 111.685 77.9597 111.799 78.1166 111.895L78.4323 112.083C78.6345 112.184 78.8429 112.272 79.0562 112.346C79.5679 112.591 80.1529 112.633 80.6948 112.466C80.9428 112.359 81.1395 112.16 81.2436 111.91C81.3334 111.671 81.3668 111.414 81.3413 111.159C81.288 110.902 81.2099 110.651 81.1083 110.408C80.968 110.147 80.8097 109.896 80.6347 109.657C80.5596 109.552 80.4092 109.387 80.3491 109.319C80.2889 109.252 80.2213 109.177 80.1612 109.109C80.101 109.042 79.9056 108.839 79.7703 108.719C79.2378 108.217 78.6589 107.767 78.0414 107.374C77.3779 106.928 76.6434 106.598 75.8691 106.398C75.0861 106.25 74.2852 106.222 73.4938 106.315C72.6798 106.404 71.9013 106.696 71.23 107.165C70.5587 107.634 70.0163 108.263 69.6528 108.996C69.024 110.334 68.7127 111.799 68.7432 113.277L68.7658 113.285Z" fill="#221F1F"/>
<path d="M75.9509 125.729C75.501 125.714 75.0544 125.646 74.6205 125.526C74.4641 125.473 74.3109 125.41 74.162 125.338C73.5989 125.165 73.07 124.895 72.5985 124.542C72.3934 124.381 72.2179 124.185 72.0798 123.964C72.0047 123.821 71.9445 123.664 71.8694 123.528C71.8047 123.376 71.7072 123.24 71.5837 123.13C71.501 123.063 71.1628 123.19 70.8847 123.416C70.6066 123.641 70.381 123.979 70.4863 124.219C70.9034 125.016 71.5831 125.645 72.4106 125.999C72.8841 126.195 73.3051 126.495 73.7786 126.675C74.2979 126.865 74.8378 126.994 75.3872 127.058C75.7185 127.103 76.0525 127.126 76.3869 127.126C76.89 127.121 77.3922 127.084 77.8903 127.013C78.0845 126.984 78.2803 126.966 78.4766 126.961C78.672 126.961 78.875 126.908 79.0779 126.878C79.1679 126.87 79.2563 126.849 79.341 126.818C79.6567 126.698 79.7093 126.563 79.589 126.21C79.589 126.127 79.5364 126.044 79.5064 125.962C79.4647 125.848 79.3919 125.748 79.2962 125.674C79.2005 125.599 79.0858 125.553 78.9652 125.541C78.3563 125.541 77.8301 125.661 77.2438 125.699C76.8087 125.736 76.3711 125.736 75.9359 125.699L75.9509 125.729Z" fill="#221F1F"/>
<path d="M78.8978 99.9997C79.1491 99.5428 79.4277 99.1014 79.7322 98.6779C79.8374 98.5202 79.9878 98.4076 80.1005 98.2574C80.4935 97.7187 80.9475 97.2273 81.4535 96.7929C81.6763 96.6081 81.9311 96.4656 82.2052 96.3723C82.5386 96.3013 82.8635 96.1956 83.1749 96.0569C83.2651 95.9893 83.2425 95.6288 83.0997 95.3059C82.9569 94.983 82.6412 94.6675 82.348 94.7426C81.4231 94.9983 80.6107 95.5562 80.0404 96.3273C79.7172 96.7554 79.2887 97.0783 78.958 97.4989C78.5962 97.9486 78.2623 98.4202 77.9583 98.9108C77.7779 99.2112 77.5974 99.5191 77.4246 99.827C77.169 100.293 76.951 100.781 76.718 101.261C76.485 101.742 76.297 102.012 76.1317 102.403C76.1317 102.493 76.0565 102.583 76.0264 102.681C75.9438 103.064 76.0264 103.222 76.4173 103.289L76.6729 103.327C76.7918 103.34 76.9121 103.323 77.0225 103.277C77.133 103.231 77.2299 103.158 77.3043 103.064C77.6125 102.561 77.8906 101.982 78.1988 101.374C78.4229 100.912 78.6738 100.463 78.9504 100.03L78.8978 99.9997Z" fill="#221F1F"/>
<path d="M53.2969 239.891C60.5731 243.691 75.0954 238.705 75.0954 238.705C68.1048 228.078 63.4069 198.548 63.4069 198.548C73.4575 195.369 83.0212 190.82 91.8277 185.03C91.8277 200.598 112.326 267.401 112.326 267.401C112.326 267.401 131.787 261.16 134.478 258.945C137.169 256.729 122.293 233.485 117.978 223.249C117.978 223.249 120.233 171.677 117.144 156.206C111.957 158.684 95.1125 157.933 84.4763 150.288C84.3904 152.486 83.9618 154.658 83.206 156.724C79.4927 164.512 47.6668 186.765 46.1409 194.913C44.0437 206.058 53.2969 239.891 53.2969 239.891Z" fill="#221F1F"/>
<path d="M117.857 191.585C117.857 197.323 117.737 203.068 117.609 208.806L117.369 217.42L117.218 221.724L117.181 222.798V223.135V223.383L117.278 223.616L117.527 224.179C117.82 224.848 118.128 225.509 118.444 226.162C120.984 231.367 123.826 236.368 126.562 241.423C127.937 243.939 129.298 246.469 130.583 249.023C131.222 250.3 131.853 251.576 132.432 252.876C133.03 254.141 133.532 255.449 133.936 256.788C134.028 257.138 134.089 257.495 134.116 257.855C134.137 257.992 134.137 258.131 134.116 258.268C134.111 258.32 134.087 258.368 134.048 258.403L133.56 258.718C133.387 258.831 133.169 258.929 132.973 259.034C132.583 259.252 132.154 259.439 131.733 259.635C130.891 260.025 130.019 260.386 129.147 260.724C127.404 261.43 125.63 262.075 123.886 262.721C120.33 263.998 116.752 265.207 113.167 266.386L112.994 266.446H112.911V266.364L112.656 265.545L111.904 262.969L110.356 257.825L107.349 247.513C105.349 240.634 103.373 233.747 101.508 226.83C99.6442 219.914 97.7951 212.989 96.179 206.012C95.7506 204.278 95.3822 202.528 94.9989 200.755L94.4276 198.134L93.924 195.506L93.4204 192.87L93.037 190.226C92.9243 189.347 92.7439 188.469 92.7138 187.59L92.4657 184.03L90.7594 185.194L89.5117 185.99C83.9555 189.448 78.1197 192.434 72.0653 194.92C70.562 195.528 69.0586 196.129 67.4876 196.67C66.7359 196.963 65.9467 197.218 65.1725 197.473L63.8946 197.894C63.601 197.981 63.3124 198.083 63.0302 198.202L63.1805 199.126L63.6165 201.649L64.06 204.06C64.3657 205.667 64.6839 207.269 65.0146 208.866C65.8715 212.967 66.7961 217.06 67.8935 221.115C68.9583 225.198 70.2737 229.211 71.8323 233.131C72.2006 234.115 72.6817 235.069 73.1327 236.03L73.4785 236.744L73.8768 237.442L74.3729 238.283L74.4105 238.351C74.4105 238.351 74.3654 238.351 74.3504 238.351L74.2001 238.396L73.8242 238.516C73.3281 238.659 72.832 238.809 72.3209 238.937C71.3212 239.215 70.3064 239.455 69.3142 239.688C67.2914 240.132 65.2429 240.451 63.1805 240.642C61.1426 240.849 59.0865 240.796 57.0619 240.484C56.1634 240.341 55.2801 240.115 54.4235 239.808C53.8748 239.628 53.6117 239.583 53.6117 239.658C53.6117 239.733 54.6415 240.612 56.8289 241.212C59.8589 241.903 62.9894 242.035 66.067 241.603C68.1334 241.376 70.1825 241.012 72.2006 240.514C72.7418 240.386 73.283 240.251 73.8393 240.093C74.1625 240.018 75.4929 239.613 76.5077 239.267H76.6129C76.6505 239.267 76.6881 239.267 76.6505 239.207L76.5528 239.027L76.3499 238.659L75.9289 237.908C75.7184 237.54 75.5005 237.157 75.29 236.796L74.8615 236.045C74.7337 235.783 74.606 235.52 74.4857 235.294C71.9977 230.15 70.3741 224.54 68.8857 218.945C67.3974 213.35 66.2098 207.627 65.1274 201.912L64.744 199.764L64.6538 199.223L66.751 198.525L68.8256 197.774C71.5918 196.772 74.3153 195.641 76.9963 194.379C79.6773 193.118 82.3106 191.786 84.8964 190.384C86.1818 189.67 87.4671 188.942 88.7299 188.168C89.3613 187.793 89.9927 187.417 90.6166 186.997L91.1353 186.659L91.2255 186.599C91.2255 186.599 91.2255 186.659 91.2255 186.689V187.094C91.2535 187.786 91.3162 188.475 91.4134 189.16L92.0147 193.223C92.5334 195.896 93.007 198.585 93.6308 201.236C94.7809 206.561 96.1264 211.84 97.4869 217.12C100.088 227.093 102.914 237.217 105.846 247.371C107.304 252.448 108.807 257.527 110.356 262.609L111.498 266.409L111.934 267.828L112.054 268.226L112.445 268.106L113.234 267.851L115.279 267.182C117.785 266.346 120.29 265.49 122.796 264.614C124.855 263.863 126.907 263.112 128.944 262.361C129.947 261.965 130.949 261.545 131.951 261.099C132.455 260.859 132.966 260.656 133.455 260.386L134.206 259.995L134.958 259.469C135.126 259.315 135.261 259.128 135.355 258.92C135.449 258.713 135.501 258.488 135.507 258.26C135.526 257.919 135.506 257.576 135.446 257.239C135.335 256.627 135.177 256.024 134.973 255.437C134.582 254.287 134.116 253.183 133.635 252.11C132.65 249.947 131.583 247.844 130.485 245.756C128.291 241.588 125.975 237.495 123.765 233.349C122.645 231.284 121.51 229.211 120.496 227.123C119.97 226.072 119.458 225.021 118.992 223.962L118.669 223.211C118.658 223.182 118.658 223.15 118.669 223.12V222.963V222.52L118.737 220.755C118.902 216.053 119.037 211.352 119.143 206.651C119.301 199.524 119.383 192.382 119.353 185.254C119.323 178.127 119.173 170.985 118.647 163.858C118.579 162.979 118.474 162.108 118.391 161.237C118.308 160.366 118.241 159.487 118.083 158.609L117.872 157.287L117.624 156.288L117.549 155.807L117.512 155.574C117.512 155.529 117.369 155.612 117.301 155.627L116.414 155.965L115.971 156.138C115.82 156.198 115.753 156.198 115.64 156.235C115.226 156.333 114.828 156.461 114.407 156.536C110.988 157.085 107.507 157.143 104.072 156.708C100.621 156.322 97.2211 155.567 93.9315 154.455C93.1047 154.2 92.3079 153.855 91.4961 153.554C90.6843 153.254 89.9251 152.848 89.1358 152.495C88.3466 152.142 87.6325 151.684 86.8808 151.279C86.6929 151.173 86.52 151.046 86.3396 150.933L85.6856 150.505L84.1297 149.491C84.0695 150.175 84.0169 150.873 83.9418 151.549L83.844 152.3L83.7463 152.998C83.6112 153.919 83.4051 154.828 83.13 155.717C82.5587 157.399 81.2583 158.841 80.018 160.223C77.4623 162.979 74.6511 165.48 71.8548 168.019C65.6385 173.561 59.2718 178.818 53.3336 184.541C51.8303 185.983 50.4096 187.462 49.0566 189.047C48.7183 189.445 48.3801 189.836 48.0644 190.256C47.7487 190.677 47.4254 191.09 47.1323 191.533C46.4829 192.41 45.9966 193.397 45.6966 194.447C45.6177 194.706 45.5697 194.973 45.5538 195.243L45.4636 196.092C45.3815 196.611 45.3363 197.135 45.3283 197.661V199.231V199.982L45.3659 200.733C45.441 202.806 45.644 204.863 45.8695 206.921C46.313 210.541 46.8842 214.056 47.5532 217.661C48.8386 224.33 49.906 228.678 50.6952 231.72C51.2098 233.797 51.8499 235.841 52.612 237.84C52.8601 238.464 53.1682 239.282 53.3637 239.635C53.9951 240.807 52.6947 235.445 50.5975 225.764C48.9673 218.531 47.7601 211.208 46.9819 203.834C46.8692 202.903 46.8617 201.979 46.8016 201.048C46.7414 200.117 46.7565 199.193 46.8016 198.269C46.8069 197.359 46.8773 196.451 47.012 195.551C47.029 195.331 47.0591 195.113 47.1022 194.897L47.2676 194.334C47.4291 193.937 47.6201 193.553 47.8389 193.185C48.8056 191.619 49.9316 190.157 51.1989 188.822C52.4692 187.44 53.8072 186.096 55.1827 184.774C60.6925 179.517 66.6157 174.568 72.4261 169.408C75.3201 166.817 78.229 164.226 80.9351 161.327C81.6116 160.576 82.2655 159.825 82.8894 159.037C83.5665 158.2 84.1023 157.259 84.4754 156.25C84.7916 155.27 85.0254 154.265 85.1745 153.246L85.2873 152.495L85.3624 151.857L85.9036 152.21C86.5426 152.608 87.204 152.961 87.858 153.306C88.5119 153.652 89.196 153.952 89.865 154.275C90.534 154.598 91.2255 154.868 91.917 155.131C97.4706 157.229 103.358 158.306 109.296 158.308C110.047 158.308 110.799 158.263 111.551 158.233C112.302 158.203 113.054 158.12 113.806 157.993L114.926 157.805C115.302 157.722 115.677 157.617 116.053 157.52L116.482 157.407L116.73 158.984C116.865 159.682 116.895 160.411 116.978 161.117L117.196 163.265C117.256 163.978 117.294 164.699 117.339 165.42C117.557 168.297 117.654 171.188 117.752 174.079C117.932 179.862 117.94 185.66 117.925 191.45L117.857 191.585Z" fill="#221F1F"/>
<path d="M84.4759 151.031C84.8969 145.961 84.6112 139.48 83.2056 135.688" stroke="#221F1F" stroke-width="1.24894" stroke-linecap="round" stroke-linejoin="round"/>
<path d="M116.963 153.141C117.296 154.39 117.547 155.66 117.715 156.941C117.828 157.527 116.287 157.279 116.211 156.754C116.044 155.472 115.793 154.202 115.46 152.953C115.287 152.435 116.813 152.631 116.963 153.141Z" fill="#221F1F"/>
<path d="M82.6117 148.62C83.4174 149.514 84.4142 150.215 85.5282 150.671C85.7612 150.753 86.137 151.031 85.9341 151.301C85.7311 151.572 85.1824 151.422 84.9193 151.301C83.5716 150.766 82.3616 149.934 81.379 148.868C81.1459 148.635 81.2211 148.395 81.5293 148.305C81.7195 148.266 81.9163 148.271 82.1041 148.32C82.2919 148.37 82.4657 148.462 82.6117 148.59V148.62Z" fill="#221F1F"/>
<path d="M124.787 282.361C123.908 283.029 123.036 283.713 122.187 284.456C121.751 284.838 121.337 285.245 120.946 285.673C120.841 285.8 120.766 285.883 120.631 286.056C120.483 286.252 120.357 286.463 120.255 286.687C120.153 286.892 120.11 287.12 120.13 287.348C120.15 287.576 120.232 287.794 120.368 287.978C120.484 288.112 120.612 288.235 120.751 288.346C120.888 288.463 121.043 288.557 121.209 288.624C121.484 288.762 121.783 288.844 122.089 288.865C122.575 288.906 123.064 288.873 123.54 288.767C123.975 288.669 124.402 288.538 124.817 288.376L125.945 287.903L127.899 287.115L129.816 286.251C132.116 285.227 134.255 283.876 136.168 282.241C136.656 281.796 137.086 281.292 137.446 280.739C137.871 280.101 138.031 279.322 137.889 278.568C137.865 278.471 137.835 278.376 137.799 278.283L137.701 278.058C137.611 277.862 137.558 277.757 137.483 277.614L137.07 276.788L136.235 275.159C135.251 273.221 134.296 271.261 133.364 269.323C132.169 266.83 131.019 264.299 129.696 261.888C129.312 261.137 129.004 261.37 128.997 262.196C129.062 263.454 129.395 264.683 129.974 265.801C131.207 268.349 132.459 270.878 133.732 273.386L135.687 277.141L136.175 278.088L136.401 278.523C136.438 278.589 136.47 278.656 136.498 278.726C136.498 278.801 136.544 278.824 136.544 278.876C136.573 279.123 136.553 279.374 136.483 279.612C136.413 279.851 136.296 280.073 136.138 280.265C135.916 280.584 135.665 280.881 135.386 281.152C135.095 281.435 134.788 281.704 134.469 281.955C133.801 282.47 133.1 282.942 132.372 283.367C130.87 284.214 129.324 284.981 127.741 285.665C126.629 286.176 125.486 286.604 124.344 287.1C123.825 287.316 123.279 287.457 122.72 287.52C122.472 287.563 122.217 287.563 121.969 287.52C121.834 287.508 121.708 287.447 121.615 287.348C121.473 287.257 121.563 287.085 121.615 286.98L121.683 286.889L121.826 286.717C121.924 286.597 122.029 286.484 122.142 286.364C122.593 285.906 123.089 285.47 123.6 285.042C125.396 283.54 127.313 282.188 129.252 280.859L131.177 279.56L132.146 278.921L133.454 278.08C132.5 276.15 131.545 274.227 130.605 272.32C129.403 269.849 128.298 267.378 127.155 264.907L126.779 264.096L126.629 263.736V263.698L126.839 263.578L127.275 263.293C127.535 263.128 127.786 262.95 128.027 262.759C128.334 262.548 128.573 262.253 128.719 261.911C128.782 261.79 128.83 261.661 128.861 261.528C128.899 261.167 127.99 261.438 126.539 262.211C126.291 262.339 125.494 262.797 124.825 263.18C125.381 264.397 125.942 265.628 126.509 266.875C127.01 267.906 127.511 268.948 128.012 269.999C129.004 272.094 130.034 274.205 131.071 276.315L131.575 277.337L131.695 277.569L131.455 277.727L130.478 278.358L128.553 279.657C127.268 280.536 125.998 281.43 124.742 282.361H124.787Z" fill="#221F1F"/>
<path d="M60.0911 256.067C59.1591 256.135 58.2345 256.217 57.2949 256.322C56.8289 256.375 56.3553 256.435 55.8818 256.51L55.521 256.57C55.3706 256.57 55.1226 256.645 54.9271 256.69C54.5527 256.756 54.1994 256.91 53.8974 257.141C53.77 257.24 53.6778 257.377 53.6343 257.532C53.6079 257.701 53.6079 257.873 53.6343 258.042C53.6636 258.217 53.7038 258.39 53.7545 258.56C53.8297 258.726 53.9349 258.883 54.0251 259.041C54.2761 259.356 54.5816 259.623 54.9271 259.83C55.169 259.967 55.4202 260.088 55.6788 260.19C56.6101 260.521 57.5759 260.745 58.5577 260.859C59.9285 261.038 61.3095 261.128 62.6919 261.129C64.3757 261.129 66.0544 261.039 67.7281 260.859C68.5625 260.768 69.3969 260.663 70.2312 260.513C70.6522 260.445 71.0731 260.363 71.494 260.258C71.7045 260.205 71.915 260.153 72.133 260.077C72.3971 259.994 72.6496 259.878 72.8846 259.732C72.9877 259.637 73.0831 259.534 73.1703 259.424L73.3582 259.041C73.424 258.833 73.4718 258.619 73.501 258.403C73.5478 258.021 73.5729 257.638 73.5762 257.254C73.5762 256.503 73.5386 255.752 73.486 255.046C73.3131 252.92 73.065 250.802 72.7869 248.722C72.485 246.036 72.0358 243.368 71.4414 240.731C71.3437 240.326 71.1934 240.146 71.0656 240.191C70.9378 240.236 70.795 240.476 70.6897 240.859C70.4252 242.049 70.4022 243.28 70.6221 244.479C71.028 246.957 71.4189 249.443 71.7421 251.921C71.8999 253.168 72.0428 254.407 72.133 255.677C72.1781 256.292 72.2081 256.908 72.2006 257.501C72.2212 257.908 72.1677 258.315 72.0428 258.703C71.9338 258.772 71.8145 258.822 71.6895 258.853C71.5166 258.921 71.3061 258.973 71.1032 259.034C69.4968 259.395 67.862 259.616 66.2173 259.694C64.5406 259.798 62.8596 259.816 61.1811 259.747C60.2732 259.715 59.3675 259.637 58.4675 259.514C57.5987 259.409 56.7487 259.184 55.9419 258.846C55.8474 258.81 55.7567 258.765 55.6713 258.711C55.6238 258.687 55.5785 258.66 55.536 258.628C55.4601 258.575 55.394 258.509 55.3406 258.433C55.2884 258.352 55.2574 258.259 55.2504 258.162C55.2955 258.072 55.4082 258.057 55.4909 258.027L55.7991 257.96L56.4681 257.854L57.8361 257.689C60.0911 257.464 62.3913 257.329 64.6839 257.216L66.8713 257.118L69.5547 257.028C69.224 254.875 68.8957 252.73 68.57 250.592C68.1867 247.941 67.8935 245.335 67.5628 242.699L67.5252 242.414C67.5252 242.286 67.5252 242.316 67.5252 242.256V242.061L67.7206 242.008L68.2844 241.82L68.8707 241.618C69.2315 241.482 69.5096 241.37 69.7426 241.257C70.0872 241.118 70.3846 240.884 70.5995 240.581C70.6822 240.473 70.7551 240.357 70.8175 240.236C70.9228 239.898 69.9982 239.95 68.4573 240.378L67.5327 240.634L65.9768 241.107C66.1271 242.346 66.2774 243.593 66.4353 244.862C66.5706 245.906 66.7134 246.965 66.8487 248.024C67.1569 250.142 67.4651 252.289 67.7808 254.437L67.9537 255.601C67.9537 255.744 67.9537 255.662 67.9537 255.684L66.8487 255.722L64.5937 255.812C63.1204 255.877 61.6396 255.962 60.1513 256.067H60.0911Z" fill="#221F1F"/>
<path d="M142.715 307.88C142.81 310.258 142.875 312.641 142.91 315.029V317.635V320.339C142.985 320.895 142.617 321.954 143.542 321.496L145.301 321.158C146.791 320.872 148.297 320.677 149.811 320.572C151.153 320.489 152.499 320.504 153.84 320.617C155.553 320.752 157.237 321.083 158.958 321.225C160.033 321.323 158.996 319.513 156.936 319.213C153.308 318.691 149.618 318.788 146.022 319.498L145.21 319.656L144.849 319.731H144.729L144.474 319.791C144.458 319.711 144.458 319.63 144.474 319.55V318.281V316.629C144.474 314.211 144.421 311.8 144.346 309.382L144.181 304.928C144.075 302.675 143.97 300.422 143.865 298.169C143.805 296.434 143.82 294.73 143.79 293.017C143.79 292.642 143.79 292.266 143.79 291.891C143.737 290.479 143.602 290.036 143.151 289.765C143.058 289.692 142.957 289.629 142.85 289.578C142.512 289.465 142.271 290.058 142.241 291.08C142.136 294.144 142.279 297.366 142.407 300.595C142.512 302.991 142.625 305.394 142.685 307.797L142.715 307.88Z" fill="#221F1F"/>
<path d="M93.2164 260.678H93.254L93.7275 278.477C93.7626 280.815 93.8052 283.151 93.8553 285.484L93.9681 289.99L105.243 289.615C108.746 289.517 112.241 289.435 115.767 289.39C119.42 289.337 123.095 289.39 126.719 289.39C131.379 289.472 136.054 289.69 140.715 289.682C143.616 289.682 139.963 287.978 134.604 287.835C125.065 287.58 115.526 287.662 105.92 288.045L100.365 288.233L95.4865 288.368C95.4489 286.483 95.4188 284.613 95.3812 282.721C95.2209 276.272 95.0655 269.821 94.9152 263.367L94.8099 258.958L86.1056 259.424C80.0922 259.71 74.0788 259.972 68.0654 260.078C63.42 260.16 58.8724 260.115 54.2947 259.995L51.288 259.897C47.5297 259.762 46.342 259.762 45.5001 260.138C45.3071 260.205 45.1209 260.291 44.9439 260.393C44.553 260.686 46.0789 261.106 48.8601 261.317C57.1285 261.902 65.7803 261.737 74.4772 261.489C77.7094 261.394 80.9441 261.272 84.1813 261.121L93.2014 260.671L93.2164 260.678Z" fill="#221F1F"/>
<path d="M27.86 234.055L38.5413 233.897H41.9314V234.175L42.4726 246.019C42.5553 248.046 42.6004 250.089 42.6229 252.094C42.6605 254.685 42.6229 257.276 42.8635 259.86C43.0138 261.475 44.5246 259.432 44.3067 256.45C44.006 251.193 43.6001 245.936 43.2318 240.574C43.0814 238.479 42.9837 236.331 42.871 234.175H43.2167H43.3896H43.4798V233.304C43.2914 233.175 43.0929 233.062 42.886 232.966L42.9612 233.131L42.7507 232.38H40.9542L30.1978 232.516L23.5755 232.591C20.2306 232.591 16.8781 232.666 13.5557 232.643C10.9774 232.643 8.45182 232.516 5.90365 232.44L4.22743 232.388C2.13026 232.388 1.46125 232.47 1.01024 232.899C0.8993 232.985 0.798439 233.083 0.709579 233.191C0.514141 233.522 1.36354 233.792 2.90448 233.89C7.45962 234.183 12.2628 234.22 17.0886 234.22L27.8676 234.168L27.86 234.055Z" fill="#221F1F"/>
<path d="M113.452 25.6495C111.948 25.5068 110.265 26.776 109.588 28.0602C109.235 28.7136 107.686 28.0602 108.085 27.3092C108.613 26.3914 109.383 25.6355 110.31 25.1232C111.237 24.6109 112.287 24.3618 113.346 24.4028C114.271 24.4929 114.594 25.7321 113.482 25.6269L113.452 25.6495Z" fill="#221F1F"/>
<path d="M107.393 27.2866C107.678 26.3974 107.603 25.4321 107.183 24.5979C106.86 23.8469 106.176 22.5927 105.304 22.3449C104.432 22.0971 104.515 21.3836 105.492 21.654C107.747 22.2848 109.934 25.3414 109.032 27.7221C108.837 28.2178 107.228 27.7221 107.393 27.279V27.2866Z" fill="#221F1F"/>
<path d="M86.0088 47.2109C85.7468 47.4511 85.559 47.7612 85.4676 48.1046C85.3731 48.3576 85.3173 48.6234 85.3023 48.8931C85.2797 49.0852 85.2797 49.2793 85.3023 49.4714C85.3214 49.6695 85.3798 49.8618 85.474 50.0371C85.5682 50.2124 85.6964 50.3673 85.851 50.4928C85.9667 50.5793 86.1006 50.6385 86.2425 50.6658C86.3844 50.6931 86.5307 50.6879 86.6703 50.6505C86.7624 50.6175 86.8527 50.5799 86.9409 50.5378L87.1514 50.3951C87.264 50.3078 87.3628 50.204 87.4445 50.0872C87.6094 49.8353 87.7456 49.5658 87.8504 49.2836C88.0273 48.9795 88.0785 48.6185 87.9933 48.2773C87.9482 48.1646 87.5874 48.1872 87.2416 48.2773C86.8958 48.3674 86.535 48.42 86.4899 48.5477C86.4298 48.9157 86.302 49.2536 86.3696 49.2987C86.4373 49.3437 86.3696 49.2987 86.3696 49.3512C86.3696 49.4038 86.4373 49.554 86.4448 49.6216C86.4523 49.6892 86.4448 49.8544 86.4448 49.7718C86.4783 49.7299 86.519 49.6943 86.5651 49.6667L86.6778 49.5916C86.6478 49.494 86.6301 49.3931 86.6252 49.2912C86.5865 48.9952 86.6281 48.6944 86.7455 48.42C86.7639 48.3927 86.7766 48.3621 86.7831 48.3299C86.7831 48.3299 86.7831 48.3749 86.7304 48.2172C86.7304 48.2172 86.7304 48.2172 86.7304 48.1721C86.7304 48.097 86.7304 48.1271 86.7304 48.1721C86.7304 48.2472 86.6778 48.2623 86.6703 48.3073C86.6628 48.3524 86.7831 48.4125 86.8207 48.5326C86.8614 48.6571 86.8614 48.7912 86.8207 48.9156C86.8014 48.993 86.7553 49.0611 86.6907 49.1078C86.626 49.1545 86.5469 49.1769 86.4674 49.171H86.3772C86.2644 49.171 86.2343 49.2686 86.2193 49.6516V49.9145C86.2063 49.9763 86.206 50.04 86.2184 50.1019C86.2309 50.1638 86.2558 50.2226 86.2916 50.2745C86.3275 50.3265 86.3736 50.3707 86.427 50.4043C86.4805 50.438 86.5402 50.4604 86.6027 50.4702C86.8472 50.4919 87.0931 50.4493 87.316 50.3465C87.5388 50.2437 87.7309 50.0844 87.873 49.8845C88.1658 49.4758 88.2897 48.9701 88.2188 48.4726C88.167 48.0921 88.0109 47.7334 87.7678 47.4362C87.5607 47.1886 87.2735 47.0212 86.9559 46.963C86.7605 46.9186 86.5576 46.9186 86.3621 46.963C86.2142 47.0127 86.0766 47.0891 85.9562 47.1883L86.0088 47.2109Z" fill="#221F1F"/>
<path d="M78.1317 44.0715C77.9717 44.1218 77.818 44.1898 77.6731 44.2742C77.5003 44.4845 77.3349 44.7248 77.1695 44.9426C77.1259 44.9961 77.0881 45.054 77.0568 45.1154L76.9666 45.3782C76.9092 45.5508 76.8738 45.73 76.8613 45.9114C76.8427 46.0711 76.8427 46.2324 76.8613 46.3921C76.8646 46.5213 76.8822 46.6498 76.9139 46.7751C76.9535 47.0188 77.0486 47.2501 77.1921 47.451C77.3589 47.6442 77.5871 47.7741 77.8385 47.819C78.0061 47.8226 78.1725 47.7918 78.3277 47.7285C78.4828 47.6652 78.6233 47.5707 78.7405 47.451L78.8382 47.3309C79.044 47.0802 79.2042 46.7956 79.3118 46.4897C79.4772 46.0316 79.5974 45.7387 79.4621 45.4083C79.4245 45.3031 79.0562 45.3257 78.7105 45.4083C78.3647 45.4909 78.0114 45.551 77.9588 45.6786C77.9062 45.8063 77.9588 45.7838 77.9588 45.8288C77.9802 45.8635 77.9955 45.9016 78.0039 45.9415C78.0237 46.0153 78.0237 46.093 78.0039 46.1668C77.9663 46.2644 77.8986 46.2344 77.8836 46.1668C77.8764 46.112 77.8764 46.0564 77.8836 46.0016C77.8758 45.8486 77.9069 45.6962 77.9738 45.5585C77.9999 45.4986 78.0383 45.4448 78.0866 45.4008C78.1467 45.4008 78.2219 45.4008 78.2294 45.4008C78.2369 45.4008 78.3271 45.5059 78.3722 45.6186C78.4067 45.7465 78.4067 45.8812 78.3722 46.0091C78.358 46.086 78.317 46.1553 78.2564 46.2048C78.1958 46.2543 78.1197 46.2807 78.0415 46.2794C78.0415 46.2794 77.9813 46.2794 77.9588 46.2794C77.9362 46.2794 77.846 46.3696 77.8385 46.7526V47.0079C77.8256 47.0719 77.8263 47.138 77.8405 47.2017C77.8548 47.2654 77.8823 47.3254 77.9213 47.3778C77.9603 47.4302 78.0099 47.4739 78.0668 47.5059C78.1238 47.5379 78.1869 47.5576 78.2519 47.5637C78.4936 47.5711 78.733 47.5154 78.9465 47.4021C79.1601 47.2889 79.3404 47.1219 79.4696 46.9178C79.727 46.5116 79.831 46.0269 79.7628 45.551C79.7149 45.184 79.5696 44.8365 79.3419 44.5446C79.2475 44.4381 79.1416 44.3424 79.0261 44.2592C78.9262 44.194 78.8173 44.1434 78.7029 44.109C78.6052 44.109 78.5225 44.109 78.4323 44.0489C78.3522 44.0449 78.2719 44.0449 78.1918 44.0489L78.1317 44.0715Z" fill="#221F1F"/>
<path d="M93.7139 44.4546C93.8191 44.6048 93.9469 44.3645 94.0596 43.8913C94.0843 43.6617 94.0843 43.43 94.0596 43.2004C94.0231 43.0806 93.9805 42.9628 93.9318 42.8474C93.9318 42.8024 93.4583 42.4944 93.3079 42.3517C93.1718 42.2331 93.0095 42.1482 92.8344 42.1039C92.4961 41.9988 92.1504 41.8561 91.7896 41.7209C91.7008 41.698 91.6077 41.698 91.519 41.7209C91.2101 41.7571 90.8976 41.6968 90.6245 41.5482C90.5794 41.5482 90.5192 41.5482 90.4967 41.428C90.4741 41.3078 89.6172 41.0225 89.4895 41.0525C89.1662 41.1426 88.858 41.1802 88.5423 41.2553C88.4972 41.2553 88.4597 41.2553 88.407 41.3229C88.2868 41.5331 88.2041 41.4881 88.1064 41.4956C87.9681 41.5026 87.8338 41.5439 87.7155 41.6158C87.639 41.7201 87.5758 41.8337 87.5276 41.9537C87.4937 42.0715 87.4937 42.1964 87.5276 42.3142C87.5802 42.4043 87.5276 42.532 87.5276 42.6296V42.7423C87.5941 42.917 87.6852 43.0814 87.7982 43.2304C87.8796 43.354 87.9755 43.4675 88.0838 43.5684C88.0838 43.5684 88.2868 43.6435 88.4822 43.7336C88.6398 43.8042 88.793 43.8845 88.9407 43.9739C88.9858 43.9739 89.046 43.9739 89.1061 43.9739C89.1662 43.9739 89.7601 44.3194 89.7901 44.3269C89.9405 44.3269 90.0607 44.4621 90.2637 44.3269C90.2761 44.3158 90.2921 44.3097 90.3088 44.3097C90.3254 44.3097 90.3415 44.3158 90.3539 44.3269C90.6136 44.4132 90.8845 44.4613 91.1582 44.4696C91.2964 44.4957 91.4322 44.5333 91.5641 44.5823C91.5641 44.5823 91.6242 44.5823 91.6468 44.5823C91.6693 44.5823 91.7219 44.5823 91.752 44.5823C92.0957 44.6408 92.4348 44.7236 92.7667 44.8301C92.8494 44.8301 93.2779 44.7249 93.3756 44.7625C93.4733 44.8 93.6688 44.387 93.7139 44.4546Z" fill="#221F1F"/>
<path d="M82.4244 40.9701C82.4244 41.0828 82.5446 40.91 82.8152 40.6322C82.9392 40.4997 83.0476 40.3536 83.1385 40.1966C83.1492 40.0867 83.1492 39.976 83.1385 39.8661C82.9838 39.6037 82.8105 39.3527 82.6198 39.1151C82.5235 38.9773 82.387 38.8724 82.2289 38.8147C82.0215 38.7235 81.8205 38.6181 81.6276 38.4993C81.5714 38.4809 81.5109 38.4809 81.4547 38.4993C81.354 38.5303 81.2473 38.5362 81.1438 38.5166C81.0403 38.4969 80.9432 38.4523 80.8609 38.3866C80.8609 38.3866 80.7932 38.3866 80.7857 38.2815C80.7782 38.1764 80.2144 37.9285 80.1092 37.9586C79.8612 38.0487 79.6357 38.0787 79.3575 38.1538C79.3575 38.1538 79.2974 38.1538 79.2523 38.2139C79.1471 38.4242 79.0945 38.3641 79.0193 38.3866C78.9147 38.4008 78.817 38.4465 78.7391 38.5176C78.6612 38.5887 78.6068 38.6819 78.5833 38.7847C78.561 38.9215 78.561 39.0609 78.5833 39.1977C78.5984 39.3174 78.5984 39.4385 78.5833 39.5582V39.6859C78.5833 39.6859 78.666 39.9037 78.7261 40.0764C78.7526 40.1969 78.7956 40.3132 78.8539 40.4219C78.9289 40.4657 79.0017 40.5134 79.0719 40.5646C79.1616 40.6235 79.247 40.6888 79.3275 40.7598C79.3275 40.7598 79.3876 40.7598 79.4327 40.7598C79.4778 40.7598 79.8161 41.0678 79.8386 41.0678C79.8612 41.0678 80.004 41.1879 80.1694 41.0678C80.1736 41.063 80.1788 41.0591 80.1846 41.0565C80.1904 41.0539 80.1968 41.0525 80.2032 41.0525C80.2096 41.0525 80.2159 41.0539 80.2217 41.0565C80.2276 41.0591 80.2328 41.063 80.237 41.0678C80.416 41.1495 80.6116 41.1881 80.8083 41.1804C80.9158 41.1947 81.0216 41.2199 81.124 41.2555C81.124 41.2555 81.1766 41.2555 81.1991 41.2555C81.2217 41.2555 81.2518 41.2555 81.2743 41.2555C81.4791 41.2715 81.6825 41.3016 81.8832 41.3456C81.9208 41.3456 82.1538 41.1804 82.1838 41.2104C82.2139 41.2405 82.4319 40.9251 82.4244 40.9701Z" fill="#221F1F"/>
<path d="M75.7718 55.3592H75.6591H75.5839C75.5659 55.3559 75.5495 55.3468 75.5373 55.3332C75.525 55.3196 75.5176 55.3023 75.5163 55.2841V55.1339C75.5271 55.0327 75.5447 54.9324 75.5689 54.8335C75.5993 54.6224 75.6548 54.4156 75.7342 54.2177C75.8609 53.9381 76.0145 53.6715 76.1928 53.4216C76.8173 52.4422 77.6517 51.6137 78.6357 50.9958C79.0796 50.7224 79.5571 50.5078 80.0564 50.3575C80.6953 50.1547 81.3493 50.1096 81.9656 49.9369C82.1535 49.8768 82.146 49.5163 81.9656 49.1859C81.8596 48.9909 81.6979 48.8318 81.5012 48.7288C81.3044 48.6259 81.0815 48.5837 80.8607 48.6076C79.2832 48.9212 77.8386 49.707 76.7189 50.8606C75.9992 51.5064 75.3674 52.2436 74.8398 53.0536C74.742 53.2338 74.6443 53.4141 74.5616 53.6018L74.3512 54.1876C74.2938 54.39 74.2486 54.5957 74.2159 54.8035C74.2044 54.9058 74.2044 55.0091 74.2159 55.1114V55.5394C74.2143 55.7245 74.2597 55.907 74.3478 56.0698C74.4358 56.2327 74.5637 56.3706 74.7195 56.4707C74.9153 56.5882 75.1284 56.6744 75.3509 56.726C75.5212 56.7694 75.6946 56.7995 75.8696 56.8162C76.1875 56.8345 76.5062 56.8345 76.8242 56.8162C77.7788 56.8162 78.6959 56.681 79.6054 56.5909C80.312 56.5158 81.0185 56.5083 81.7251 56.4407C81.8829 56.4407 82.0333 56.4407 82.1911 56.4407C82.7699 56.3505 82.9428 56.2078 82.9428 55.8098C82.954 55.7225 82.954 55.6342 82.9428 55.547C82.9428 55.2541 82.6572 55.0813 82.2437 55.0813C81.011 55.0813 79.7332 55.239 78.4854 55.3517C77.6036 55.4483 76.7138 55.4483 75.832 55.3517L75.7718 55.3592Z" fill="#221F1F"/>
<path d="M84.454 62.7419C83.3039 63.4929 82.0411 64.3415 80.6204 64.289C79.9851 64.2779 79.363 64.106 78.8123 63.7895C78.2615 63.473 77.8 63.0221 77.4709 62.479C77.2605 62.1411 78.2226 62.2162 78.3128 62.2312C78.5425 62.2463 78.7669 62.3064 78.9732 62.4082C79.1796 62.51 79.3639 62.6515 79.5155 62.8245C79.9439 63.5154 79.974 63.4028 80.7257 63.0573C81.3411 62.7475 81.9361 62.3988 82.5072 62.0134C83.0183 61.683 84.7622 62.5241 84.454 62.7644V62.7419Z" fill="#221F1F"/>
<path d="M87.1595 47.0153C87.3522 47.1314 87.5125 47.2941 87.6255 47.4885C87.6255 47.5561 87.6255 47.6387 87.6857 47.7063C87.7469 47.822 87.7789 47.9509 87.7789 48.0818C87.7789 48.2127 87.7469 48.3416 87.6857 48.4573C87.594 48.5677 87.4662 48.6422 87.3249 48.6676C87.1219 48.7201 86.8513 48.6676 86.6559 48.9454C86.4604 49.2233 87.2346 50.2747 87.4827 50.1996C87.7925 50.102 88.0844 49.9549 88.3471 49.764C88.6929 49.5013 88.9265 49.1177 89.0011 48.6901C89.0908 48.249 89.0908 47.7944 89.0011 47.3533C88.8684 46.9299 88.6335 46.5456 88.3171 46.2343C88.1332 46.0534 87.9289 45.8947 87.7082 45.7612C87.0642 45.4593 86.3599 45.3078 85.6486 45.3181C85.576 45.3139 85.5032 45.3139 85.4306 45.3181C85.1826 45.4082 85.145 45.5358 85.2953 45.8813C85.3329 45.9564 85.363 46.039 85.4006 46.1141C85.4985 46.3107 85.6565 46.4711 85.8516 46.5722L86.6032 46.775C86.7884 46.8267 86.9619 46.9134 87.1144 47.0304L87.1595 47.0153Z" fill="#221F1F"/>
<path d="M78.7107 44.1091C78.8286 44.2299 78.8959 44.3911 78.8987 44.5597C78.8987 44.6273 78.8987 44.7024 78.8987 44.7775C78.8987 45.0779 78.8986 45.2582 78.7408 45.4459C78.6418 45.5345 78.5189 45.5919 78.3875 45.6112C78.2071 45.6562 77.9591 45.6112 77.8012 45.859C77.6433 46.1068 78.38 47.1808 78.5905 47.1207C78.8362 47.0457 79.0693 46.9343 79.282 46.7902C79.5813 46.5982 79.8126 46.3171 79.9435 45.9867C80.0921 45.6475 80.2006 45.2921 80.2667 44.9277C80.3017 44.5457 80.2503 44.1607 80.1164 43.8012C80.0257 43.5649 79.8905 43.3482 79.718 43.1629C79.437 42.8963 79.0741 42.7322 78.6882 42.6972C78.4254 42.642 78.1592 42.6043 77.8914 42.5846C77.834 42.5773 77.7759 42.5773 77.7185 42.5846C77.5156 42.5846 77.478 42.7348 77.5682 43.1028L77.6358 43.3506C77.685 43.5634 77.8074 43.7521 77.9816 43.8838C78.3424 44.0265 78.5679 44.0641 78.6055 44.0941C78.6431 44.1242 78.6055 44.0491 78.7032 44.1317L78.7107 44.1091Z" fill="#221F1F"/>
<path d="M72.3501 251.614C72.072 250.675 71.7789 249.737 71.5308 248.798C71.4331 248.452 71.4105 248.1 71.3203 247.762C70.9896 246.552 70.6438 245.351 70.4108 244.127C70.317 243.586 70.2717 243.038 70.2755 242.489C70.3598 241.792 70.3191 241.085 70.1553 240.402C70.0049 239.959 67.9002 240.522 67.9002 241.408C67.9119 242.945 68.1839 244.468 68.7045 245.914C68.946 246.797 69.1417 247.692 69.2908 248.595C69.5314 249.572 69.802 250.533 70.0425 251.487L70.5386 253.259C70.7716 254.145 71.0347 255.039 71.1926 255.933C71.2888 256.632 71.3365 257.337 71.3354 258.043C71.3354 258.201 71.3354 258.358 71.3354 258.509C71.3955 259.079 71.5759 259.26 72.1773 259.26C72.315 259.267 72.453 259.267 72.5907 259.26C72.7987 259.259 72.9993 259.182 73.1545 259.044C73.3097 258.906 73.4086 258.715 73.4325 258.509C73.5479 257.175 73.4361 255.832 73.1018 254.536C72.8913 253.559 72.6208 252.598 72.3877 251.644L72.3501 251.614Z" fill="#221F1F"/>
<path d="M146.849 117.46C147.562 118.568 148.577 119.448 149.773 119.999C150.219 120.197 150.689 120.333 151.172 120.404C152.066 120.555 152.984 120.371 153.75 119.886C154.109 119.61 154.401 119.257 154.604 118.852C154.807 118.448 154.916 118.003 154.922 117.551C154.962 116.807 154.839 116.064 154.562 115.373C154.382 114.903 154.1 114.479 153.735 114.133C153.521 113.941 153.262 113.807 152.982 113.742C152.702 113.678 152.41 113.686 152.134 113.765C151.795 113.893 152.006 114.163 152.262 114.411C152.384 114.528 152.493 114.659 152.585 114.802C152.642 114.916 152.721 115.018 152.818 115.102C153.294 115.547 153.6 116.145 153.682 116.792C153.832 117.449 153.719 118.139 153.366 118.715C152.931 119.36 151.863 119.368 150.924 119.15C149.875 118.882 148.947 118.271 148.285 117.415C147.847 116.886 147.492 116.294 147.233 115.658C147.03 115.182 146.918 114.673 146.902 114.156C146.892 113.928 146.928 113.701 147.007 113.488C147.081 113.314 147.218 113.174 147.391 113.097C147.718 113.011 148.065 113.037 148.375 113.172C148.733 113.318 149.076 113.499 149.398 113.713C149.548 113.803 149.683 113.916 149.834 114.013C150.382 114.381 150.585 114.464 150.901 114.276C150.973 114.243 151.044 114.205 151.111 114.163C151.314 113.998 151.202 113.668 150.811 113.307C150.186 112.721 149.442 112.276 148.631 112.001C148.088 111.812 147.497 111.812 146.955 112.001C146.627 112.132 146.343 112.353 146.135 112.639C145.959 112.895 145.836 113.183 145.775 113.488C145.653 114.213 145.717 114.957 145.962 115.65C146.17 116.281 146.458 116.881 146.819 117.438L146.849 117.46Z" fill="#221F1F"/>
<path d="M49.223 4.79351C48.3887 4.15515 47.5618 5.25163 47.1709 5.93505C46.6667 6.80638 46.407 7.79748 46.4193 8.80391C46.4193 9.44978 44.8107 9.11934 44.7881 8.59363C44.748 7.82605 44.8653 7.05837 45.1329 6.33774C45.4005 5.6171 45.8126 4.9587 46.3441 4.40298C47.5844 3.23891 49.2831 3.59189 50.5309 4.54568C50.8241 4.77098 50.6662 5.0113 50.3806 5.10142C50.1768 5.13211 49.9689 5.12061 49.7698 5.06764C49.5706 5.01467 49.3845 4.92136 49.223 4.79351Z" fill="#221F1F"/>
<path d="M45.6904 1.50433C44.6756 0.753317 43.6158 2.25534 43.1798 3.00635C42.6599 3.96411 42.4008 5.04139 42.4281 6.13057C42.4281 6.49105 40.8195 6.25073 40.797 5.69498C40.7726 4.8598 40.9209 4.02858 41.2326 3.25326C41.5443 2.47793 42.0127 1.77517 42.6085 1.1889C43.9089 0.0398538 45.6904 0.39283 46.9983 1.32409C47.299 1.53437 47.1562 1.71461 46.878 1.78971C46.4672 1.83596 46.0539 1.72604 45.7205 1.4818L45.6904 1.50433Z" fill="#221F1F"/>
</svg>
