<svg width="44" height="44" viewBox="0 0 44 44" fill="none" xmlns="http://www.w3.org/2000/svg">
<g filter="url(#filter0_d_248_14349)">
<rect x="7.69531" y="6.61035" width="28.1468" height="28.1468" rx="7.0367" fill="black"/>
<path d="M18.563 15.7583C19.0127 15.7583 19.4286 15.7935 19.8085 15.8976C20.1533 15.961 20.4825 16.091 20.7775 16.2804C21.0547 16.4542 21.2623 16.6984 21.4002 17.0115C21.5389 17.3247 21.6078 17.7082 21.6078 18.1254C21.6078 18.6131 21.5044 19.0304 21.2623 19.3435C21.0547 19.6573 20.7085 19.9353 20.2934 20.1443C20.8816 20.3188 21.3313 20.6319 21.6078 21.0492C21.8851 21.4672 22.0582 21.9893 22.0582 22.5811C22.0582 23.0687 21.954 23.486 21.7809 23.8343C21.6078 24.1826 21.3313 24.4958 21.0196 24.7048C20.6809 24.9288 20.3066 25.0934 19.9127 25.1917C19.4975 25.2965 19.0824 25.3662 18.6672 25.3662H14.0293V15.7583H18.563ZM18.2858 19.6566C18.6665 19.6566 18.9782 19.5525 19.2203 19.3787C19.4623 19.2049 19.5665 18.891 19.5665 18.5082C19.5665 18.2993 19.5313 18.0903 19.4623 17.9516C19.3934 17.8123 19.2892 17.7075 19.1513 17.6033C19.0127 17.5337 18.8741 17.464 18.701 17.4295C18.5279 17.3943 18.3555 17.3943 18.1472 17.3943H16.1403V19.6573H18.2865L18.2858 19.6566ZM18.3899 23.7647C18.5975 23.7647 18.8051 23.7295 18.9782 23.695C19.153 23.6618 19.3183 23.5904 19.4623 23.486C19.6033 23.3841 19.7213 23.2537 19.8085 23.1032C19.8775 22.9294 19.9472 22.7204 19.9472 22.4769C19.9472 21.9893 19.8085 21.641 19.532 21.3975C19.2547 21.1885 18.8741 21.0844 18.4244 21.0844H16.1403V23.7654L18.3899 23.7647ZM25.0692 23.7295C25.3457 24.0081 25.7609 24.1475 26.3147 24.1475C26.6954 24.1475 27.0416 24.0433 27.3181 23.8695C27.5953 23.6605 27.7685 23.4515 27.8374 23.2425H29.5333C29.256 24.0778 28.8408 24.6696 28.2878 25.0524C27.7333 25.4007 27.076 25.6097 26.2802 25.6097C25.771 25.6112 25.2661 25.5167 24.7919 25.331C24.3653 25.171 23.9848 24.908 23.6844 24.5654C23.363 24.245 23.1254 23.8503 22.9926 23.4163C22.8195 22.9639 22.7499 22.4769 22.7499 21.9196C22.7499 21.3975 22.8195 20.9106 22.9926 20.4574C23.1591 20.0212 23.4053 19.6198 23.7188 19.2738C24.0306 18.9607 24.4112 18.6828 24.8264 18.5082C25.2885 18.3225 25.7822 18.2279 26.2802 18.2296C26.8685 18.2296 27.3878 18.3344 27.8374 18.5779C28.2878 18.8214 28.6333 19.1 28.9105 19.518C29.1933 19.9195 29.4041 20.3671 29.5333 20.8409C29.6022 21.3278 29.6367 21.8155 29.6022 22.3721H24.5843C24.5843 22.9294 24.7919 23.4515 25.0692 23.7302V23.7295ZM27.2491 20.0746C27.0071 19.8311 26.6264 19.6918 26.176 19.6918C25.912 19.6879 25.6509 19.7475 25.4147 19.8656C25.2071 19.9705 25.0692 20.1098 24.9306 20.2491C24.8032 20.3837 24.7189 20.5533 24.6885 20.7361C24.6533 20.9106 24.6188 21.0492 24.6188 21.1885H27.7333C27.6643 20.6664 27.4912 20.3188 27.2491 20.0746ZM24.2037 16.4198H28.0795V17.3599H24.2044V16.4198H24.2037Z" fill="white"/>
</g>
<defs>
<filter id="filter0_d_248_14349" x="0.376609" y="0.462641" width="42.7839" height="42.7844" filterUnits="userSpaceOnUse" color-interpolation-filters="sRGB">
<feFlood flood-opacity="0" result="BackgroundImageFix"/>
<feColorMatrix in="SourceAlpha" type="matrix" values="0 0 0 0 0 0 0 0 0 0 0 0 0 0 0 0 0 0 127 0" result="hardAlpha"/>
<feOffset dy="1.17099"/>
<feGaussianBlur stdDeviation="3.65935"/>
<feComposite in2="hardAlpha" operator="out"/>
<feColorMatrix type="matrix" values="0 0 0 0 0.0862745 0 0 0 0 0.0901961 0 0 0 0 0.0980392 0 0 0 0.1 0"/>
<feBlend mode="normal" in2="BackgroundImageFix" result="effect1_dropShadow_248_14349"/>
<feBlend mode="normal" in="SourceGraphic" in2="effect1_dropShadow_248_14349" result="shape"/>
</filter>
</defs>
</svg>
