<svg width="32" height="33" viewBox="0 0 32 33" fill="none" xmlns="http://www.w3.org/2000/svg">
<g filter="url(#filter0_d_248_15297)">
<rect x="5.67188" y="5.45312" width="20.6721" height="20.6721" rx="5.16803" fill="black"/>
<path d="M13.652 12.1699C13.9823 12.1699 14.2877 12.1958 14.5668 12.2722C14.82 12.3188 15.0617 12.4143 15.2784 12.5534C15.482 12.681 15.6345 12.8604 15.7358 13.0903C15.8376 13.3203 15.8882 13.602 15.8882 13.9084C15.8882 14.2666 15.8123 14.5731 15.6345 14.803C15.482 15.0335 15.2278 15.2377 14.9228 15.3912C15.3549 15.5193 15.6851 15.7493 15.8882 16.0558C16.0919 16.3627 16.219 16.7462 16.219 17.1808C16.219 17.539 16.1425 17.8455 16.0154 18.1013C15.8882 18.3571 15.6851 18.5871 15.4562 18.7406C15.2075 18.9051 14.9326 19.026 14.6433 19.0982C14.3383 19.1752 14.0334 19.2263 13.7285 19.2263H10.3223V12.1699H13.652ZM13.4484 15.033C13.728 15.033 13.9569 14.9565 14.1347 14.8289C14.3125 14.7012 14.389 14.4707 14.389 14.1896C14.389 14.0361 14.3631 13.8826 14.3125 13.7808C14.2619 13.6785 14.1854 13.6015 14.0841 13.525C13.9823 13.4738 13.8805 13.4227 13.7533 13.3973C13.6262 13.3715 13.4996 13.3715 13.3466 13.3715H11.8727V15.0335H13.4489L13.4484 15.033ZM13.5249 18.0501C13.6774 18.0501 13.8298 18.0243 13.9569 17.9989C14.0853 17.9745 14.2067 17.9221 14.3125 17.8455C14.4161 17.7706 14.5027 17.6748 14.5668 17.5643C14.6174 17.4367 14.6686 17.2832 14.6686 17.1044C14.6686 16.7462 14.5668 16.4904 14.3637 16.3116C14.16 16.1581 13.8805 16.0816 13.5502 16.0816H11.8727V18.0506L13.5249 18.0501ZM18.4304 18.0243C18.6335 18.2289 18.9384 18.3312 19.3451 18.3312C19.6247 18.3312 19.879 18.2548 20.0821 18.1271C20.2857 17.9736 20.4128 17.8201 20.4635 17.6666H21.709C21.5054 18.2801 21.2005 18.7147 20.7942 18.9959C20.387 19.2517 19.9043 19.4052 19.3198 19.4052C18.9458 19.4063 18.575 19.3369 18.2268 19.2005C17.9134 19.083 17.634 18.8898 17.4133 18.6382C17.1773 18.4029 17.0028 18.113 16.9053 17.7943C16.7782 17.462 16.727 17.1044 16.727 16.695C16.727 16.3116 16.7782 15.954 16.9053 15.6211C17.0275 15.3008 17.2084 15.006 17.4386 14.7519C17.6676 14.5219 17.9472 14.3178 18.2521 14.1896C18.5915 14.0532 18.954 13.9837 19.3198 13.9849C19.7519 13.9849 20.1333 14.0619 20.4635 14.2408C20.7942 14.4196 21.048 14.6242 21.2516 14.9312C21.4593 15.2261 21.6141 15.5548 21.709 15.9028C21.7596 16.2604 21.785 16.6186 21.7596 17.0274H18.0743C18.0743 17.4367 18.2268 17.8201 18.4304 18.0248V18.0243ZM20.0314 15.34C19.8537 15.1612 19.5741 15.0589 19.2433 15.0589C19.0494 15.0559 18.8576 15.0997 18.6841 15.1865C18.5317 15.2635 18.4304 15.3658 18.3286 15.4682C18.235 15.567 18.1731 15.6915 18.1508 15.8258C18.125 15.954 18.0996 16.0558 18.0996 16.1581H20.387C20.3364 15.7746 20.2092 15.5193 20.0314 15.34ZM17.7947 12.6557H20.6413V13.3462H17.7952V12.6557H17.7947Z" fill="white"/>
</g>
<defs>
<filter id="filter0_d_248_15297" x="0.296729" y="0.938002" width="31.4222" height="31.4227" filterUnits="userSpaceOnUse" color-interpolation-filters="sRGB">
<feFlood flood-opacity="0" result="BackgroundImageFix"/>
<feColorMatrix in="SourceAlpha" type="matrix" values="0 0 0 0 0 0 0 0 0 0 0 0 0 0 0 0 0 0 127 0" result="hardAlpha"/>
<feOffset dy="0.860023"/>
<feGaussianBlur stdDeviation="2.68757"/>
<feComposite in2="hardAlpha" operator="out"/>
<feColorMatrix type="matrix" values="0 0 0 0 0.0862745 0 0 0 0 0.0901961 0 0 0 0 0.0980392 0 0 0 0.1 0"/>
<feBlend mode="normal" in2="BackgroundImageFix" result="effect1_dropShadow_248_15297"/>
<feBlend mode="normal" in="SourceGraphic" in2="effect1_dropShadow_248_15297" result="shape"/>
</filter>
</defs>
</svg>
