<svg width="104" height="104" viewBox="0 0 104 104" fill="none" xmlns="http://www.w3.org/2000/svg">
<g clip-path="url(#clip0_248_14355)">
<rect x="0.605469" y="0.80957" width="102.736" height="102.736" rx="51.3679" fill="#F7F6F3"/>
<path d="M67.7992 42.1597C67.2856 43.2189 66.6058 44.189 65.7855 45.0333C65.4626 45.3743 66.0758 45.3961 66.2862 45.3961C66.7982 45.3876 67.293 45.2103 67.694 44.8918C68.5799 43.9827 69.3148 42.9379 69.871 41.7969C70.0415 41.434 69.1453 41.561 69.0256 41.5792C68.6627 41.6408 67.977 41.7896 67.7956 42.1633L67.7992 42.1597Z" fill="#221F1F"/>
<path d="M48.3963 69.0195C47.7481 69.6911 47.1422 70.4025 46.5822 71.1493L46.3754 71.4287L46.2847 71.5593C46.2847 71.5593 46.2847 71.5593 46.2448 71.6318C46.1468 71.8387 46.0452 72.0491 45.9509 72.2595C45.7622 72.684 45.588 73.1158 45.4393 73.5512C44.8203 75.3086 44.4823 77.1527 44.4379 79.0154C44.4379 80.376 44.5177 81.8056 44.5504 83.2061C44.681 88.1623 44.837 93.1258 45.0583 98.0821C45.1599 100.281 45.2978 102.49 45.4683 104.667C45.686 107.465 45.9763 110.27 46.154 113.052C46.2121 113.92 45.8783 113.851 45.4792 113.15C44.9084 112.008 44.5728 110.764 44.4923 109.489C44.0061 103.749 43.7666 98.0204 43.6396 92.2296C43.5743 88.7683 43.3603 85.1762 43.2768 81.6314C43.255 80.6554 43.2115 79.6939 43.2442 78.6816C43.2869 77.6795 43.4082 76.6823 43.607 75.6991C43.8024 74.7188 44.0754 73.7555 44.4234 72.8183C44.5939 72.3466 44.7862 71.8894 45.0003 71.4323L45.1599 71.0949C45.1947 71.0189 45.236 70.946 45.2833 70.8772L45.3921 70.7175C45.5372 70.5143 45.686 70.3148 45.8384 70.1188C46.5804 69.1465 47.402 68.2375 48.2947 67.4012C49.1919 66.5412 50.2087 65.8153 51.3135 65.246C52.0974 64.8676 52.8232 64.3788 53.4687 63.7947C53.7948 63.5031 54.1025 63.1917 54.3903 62.8623C54.5318 62.6954 54.6696 62.5248 54.7966 62.3543C54.9236 62.1838 55.0397 61.9915 55.1595 61.8064C55.6638 61.0481 56.1319 60.2862 56.658 59.5315C57.1841 58.7768 57.6993 58.0439 58.2326 57.3146L58.8785 56.4511L58.9619 56.3422L59.0744 56.2007L59.3066 55.9068C59.4626 55.7036 59.6259 55.544 59.7855 55.3408C59.9329 55.1661 60.0917 55.0012 60.2608 54.8474C60.4016 54.7154 60.552 54.5941 60.7107 54.4845C60.955 54.282 61.2607 54.1682 61.5779 54.1616C61.67 54.1787 61.7519 54.2307 61.8065 54.3068C61.8479 54.3712 61.8808 54.4407 61.9045 54.5136C61.9432 54.6532 61.9652 54.7969 61.9698 54.9417C61.9786 55.3312 61.9247 55.7195 61.8101 56.0919C61.6659 56.5817 61.484 57.0597 61.2659 57.5214L60.8051 58.5591C60.562 59.1179 60.3262 59.6476 60.0794 60.2209C59.1578 62.2962 58.8458 62.9131 58.3705 63.2541C58.2725 63.3415 58.1682 63.4215 58.0585 63.4936C57.9061 63.5734 57.8299 63.3557 57.8807 62.9167C57.9886 62.2767 58.1687 61.6511 58.4177 61.0517C58.864 59.8871 59.361 58.726 59.869 57.5686L60.0214 57.2058V57.1513C60.0243 57.126 60.0243 57.1004 60.0214 57.0751C60.0267 57.0611 60.0267 57.0456 60.0214 57.0316C60.0214 57.0316 60.0032 57.0062 59.9742 57.0316C59.9448 57.0627 59.9203 57.0982 59.9016 57.1368L59.8363 57.2203L59.2921 57.9459C58.5374 58.98 57.7791 60.0467 57.0825 61.1207L56.2915 62.3434L56.0956 62.6518C56.0303 62.7498 55.9649 62.8514 55.8742 62.982C55.711 63.2069 55.5477 63.4138 55.3735 63.6133C54.6878 64.417 53.8927 65.1205 53.0115 65.7032C52.7902 65.8483 52.558 65.9862 52.3258 66.1168L51.6654 66.4579L51.3715 66.6103L51.0885 66.7881C50.8962 66.9005 50.7257 67.0312 50.5261 67.1509C49.7819 67.6995 49.0885 68.3139 48.4544 68.9868L48.3963 69.0195Z" fill="#221F1F"/>
<path d="M57.1322 95.7749C56.8528 94.2184 56.6097 92.6582 56.4066 91.098C56.334 90.5284 56.2179 89.9624 56.1489 89.3927C55.9131 87.379 55.7498 85.3617 55.6083 83.3407C55.543 82.4482 55.4596 81.5484 55.3725 80.6594C55.2172 79.5211 55.1649 78.3711 55.2165 77.2234C55.2782 76.4978 56.5154 77.3795 56.588 78.6748C56.7222 80.9751 56.8674 83.2754 56.9508 85.612C57.0052 87.0126 57.2592 88.4457 57.4479 89.8608C57.6583 91.4173 57.8905 92.9738 58.1735 94.5195C58.3404 95.4737 58.5364 96.4243 58.725 97.3677C59.0407 98.79 59.3963 100.241 59.6974 101.678C59.9405 102.796 60.2199 103.884 60.4412 104.994C60.492 105.241 60.5464 105.477 60.5864 105.72C60.7351 106.642 60.6771 106.946 60.3687 107.171C60.3024 107.23 60.2307 107.282 60.1546 107.327C59.9079 107.443 59.6539 107.095 59.4942 106.438C59.0189 104.497 58.6307 102.447 58.1518 100.415C57.9704 99.6499 57.7889 98.8807 57.6039 98.1151C57.4189 97.3496 57.2628 96.5513 57.1104 95.7676L57.1322 95.7749Z" fill="#221F1F"/>
<path d="M85.0176 67.0241C78.015 72.9781 70.5552 71.1749 60.2073 73.4099C60.2073 73.4099 65.7223 69.8578 67.9174 64.5786C68.8898 62.2384 69.2055 58.7988 68.6177 58.5702C67.6925 58.2074 66.2267 62.3799 65.5228 63.6171C64.5504 65.3297 63.2986 66.9733 61.6006 68.0074C61.3466 68.1598 66.0489 58.6101 63.9735 55.3918C63.9735 55.0943 65.2506 53.4325 65.2506 53.4325C77.9497 51.339 74.3214 43.462 73.3163 42.6311C71.8179 41.3648 69.9384 41.6224 68.3383 42.2683C70.733 38.3388 69.8695 33.4624 69.5828 32.617C67.7904 27.3488 60.8532 29.0432 56.8657 29.8559C50.3347 31.1839 46.3436 32.4937 38.8802 29.8015C37.9042 31.2528 36.4021 33.4116 35.6148 35.0516C33.075 35.9877 32.4799 40.8097 32.879 42.4533C29.8748 53.4035 33.2419 65.3406 47.0729 68.7584C47.1164 68.7584 46.9786 70.0574 43.5353 69.4297C31.9248 65.6853 13.504 61.5962 15.8624 47.2463C16.9799 40.4578 19.4217 36.6154 23.2205 30.919C24.3925 29.1593 31.3588 20.3969 37.7337 17.2113C51.2128 10.5099 63.2406 17.4145 63.2406 17.4145C68.3855 15.8761 74.296 15.5096 78.5157 19.4028C82.5286 23.1182 99.8355 54.4158 85.0176 67.0241Z" fill="#221F1F"/>
<path d="M17.1689 54.2272C17.7519 55.5594 18.5608 56.7808 19.56 57.8373C20.5717 58.9106 21.7025 59.865 22.9306 60.6819C25.4464 62.3156 28.1357 63.6651 30.9492 64.7057C33.7575 65.7941 36.6492 66.7121 39.5482 67.6083L41.7252 68.2868L42.8137 68.6278L43.3579 68.802L43.63 68.8891C43.6518 68.891 43.6736 68.891 43.6954 68.8891L43.8296 68.9072C44.1894 68.9719 44.553 69.0131 44.9181 69.0306C45.0817 69.054 45.2479 69.054 45.4115 69.0306C45.483 69.0241 45.5493 68.9903 45.5966 68.9362C45.5966 68.9362 45.622 68.9 45.5966 68.8891H45.5458L45.4442 68.8601C45.4085 68.8513 45.3733 68.8404 45.339 68.8274L44.9471 68.7185L44.3847 68.5335L43.8296 68.3194L43.2745 68.1054L42.7302 67.8623L42.186 67.6192C42.0082 67.5357 41.8232 67.4378 41.6563 67.3507C40.2341 66.6274 38.905 65.7344 37.6978 64.6911C35.2805 62.5793 33.4738 59.8579 32.4658 56.8105C31.9289 55.1788 31.5855 53.4898 31.4426 51.7781C31.3101 50.0736 31.3429 48.3603 31.5406 46.6622C31.6458 45.8168 31.7764 44.975 31.9542 44.1224C32.0449 43.7088 32.132 43.2915 32.2445 42.8815C32.288 42.6928 32.3751 42.3989 32.3569 42.4207V42.3409C32.3438 42.2823 32.3341 42.2229 32.3279 42.1631L32.2953 41.822C32.2482 40.942 32.3116 40.0595 32.4839 39.1952C32.6422 38.3225 32.9244 37.4771 33.3221 36.6844C33.5944 36.1512 33.9565 35.6688 34.3924 35.2585C34.508 35.1563 34.6291 35.0606 34.7552 34.9718C34.882 34.8771 35.0196 34.7979 35.1652 34.736L35.216 34.7142H35.2378C35.2559 34.7142 35.2596 34.6924 35.2705 34.6779L35.3321 34.5509L35.4301 34.3659C35.949 33.3899 36.5186 32.4756 37.1281 31.5721L38.0316 30.2297L38.6847 29.2609C38.8951 29.3044 39.1237 29.4024 39.3414 29.4677L39.7986 29.6237C40.7976 29.9653 41.8151 30.25 42.8463 30.4764C43.8751 30.6905 44.9179 30.8312 45.9667 30.8973C47.0167 30.9505 48.0693 30.9274 49.116 30.8283C51.2335 30.5781 53.3361 30.2147 55.4147 29.7398C57.5228 29.3226 59.6199 28.811 61.8114 28.6151C62.9165 28.5016 64.0312 28.5223 65.1313 28.6767C66.277 28.822 67.3623 29.2732 68.2734 29.9829C68.7255 30.3552 69.1108 30.8018 69.4127 31.3036C69.7199 31.798 69.9465 32.3381 70.0839 32.9037C70.3077 33.9907 70.4063 35.0997 70.3778 36.2091C70.3611 37.3111 70.2137 38.4072 69.9388 39.4745C69.8589 39.743 69.7973 40.0115 69.6993 40.2728L69.5578 40.6682C69.5143 40.788 69.4562 40.9585 69.4344 40.9948C69.3764 41.1218 69.3111 41.2742 69.2566 41.383L69.1732 41.5281L69.1333 41.6007L69.1115 41.637V41.6551C69.2656 41.5925 69.4246 41.5428 69.5868 41.5064L69.7501 41.4701C69.8553 41.4483 69.9605 41.4374 70.0658 41.4229C70.2798 41.3932 70.4955 41.3763 70.7116 41.3721C71.5979 41.3473 72.4697 41.6011 73.2042 42.0978C73.4003 42.226 73.5795 42.3784 73.7376 42.5513C73.8739 42.7271 73.9953 42.914 74.1004 43.1101C74.3038 43.4854 74.4714 43.879 74.6011 44.2856C74.8584 45.0974 74.9581 45.9508 74.895 46.8C74.8256 47.6574 74.5612 48.4877 74.1222 49.2274C73.6847 49.9534 73.1149 50.5909 72.4423 51.1068C71.1092 52.0879 69.5986 52.8013 67.994 53.2076C67.5768 53.3346 67.1522 53.4253 66.7277 53.5233C66.5173 53.5777 66.3032 53.6176 66.0892 53.6539L65.505 53.7627H65.4324L65.3853 53.8208L65.2256 54.0349L64.8628 54.5501C64.7394 54.7206 64.6233 54.9129 64.5 55.0653L64.4201 55.1959L64.3802 55.2685C64.3621 55.3084 64.3185 55.3628 64.3476 55.4064C64.3766 55.4499 64.3839 55.468 64.402 55.5043C64.4201 55.5406 64.4673 55.6458 64.4963 55.7184C64.5586 55.8696 64.6107 56.0247 64.6523 56.1828C64.7302 56.4897 64.7799 56.803 64.8011 57.1189C64.8408 57.7326 64.8201 58.3488 64.7394 58.9585C64.5763 60.151 64.3154 61.3281 63.9594 62.4779C63.7888 63.0475 63.5965 63.6135 63.4042 64.1759L63.1031 65.0141L62.8128 65.7796L62.4935 66.5706L62.4173 66.7665C62.4031 66.7996 62.3909 66.8335 62.381 66.8681C62.381 66.8971 62.381 66.8681 62.4101 66.8681L62.4572 66.8391C62.5767 66.7622 62.6918 66.6786 62.8019 66.5887C62.9914 66.4373 63.1685 66.2711 63.3317 66.0917L63.5385 65.8595L63.7743 65.5764C63.9267 65.3841 64.0755 65.1846 64.2206 64.985C64.5072 64.5859 64.7757 64.1687 65.0261 63.7405C65.1531 63.5228 65.2692 63.3233 65.3889 63.102C65.5086 62.8806 65.5993 62.6557 65.7046 62.4271C66.1182 61.5128 66.51 60.5839 67.0071 59.6769C67.1342 59.4404 67.2747 59.2115 67.428 58.9911C67.6152 58.6824 67.8838 58.4313 68.2044 58.2654C68.3513 58.1994 68.516 58.1841 68.6725 58.2219C68.7495 58.2443 68.8213 58.2818 68.8836 58.3323C68.9459 58.3827 68.9975 58.4451 69.0353 58.5158C69.1973 58.8372 69.2771 59.1937 69.2675 59.5535C69.2728 60.4201 69.1865 61.2848 69.0099 62.1332C68.851 62.9769 68.6142 63.8041 68.3024 64.6041C67.6388 66.1795 66.7436 67.647 65.6465 68.958C65.1087 69.6161 64.5345 70.2435 63.9267 70.8375C63.6255 71.1386 63.3171 71.4253 63.0015 71.7119L62.762 71.9223L62.5842 72.0747L62.3883 72.238C62.2541 72.3468 62.1234 72.4521 61.9856 72.55L61.7824 72.6951H61.8441L61.971 72.6698L62.4681 72.5718L63.1394 72.4593C66.4629 71.9042 69.819 71.7337 73.1135 71.3055C74.7532 71.1175 76.3762 70.8046 77.9682 70.3694C79.5434 69.9186 81.0542 69.2674 82.4636 68.4319C82.8918 68.1562 83.2691 67.9312 83.5775 67.728C83.8859 67.5248 84.1181 67.3325 84.3032 67.2019C84.695 66.9371 84.8873 66.8391 84.8946 66.8971C84.9018 66.9552 84.7277 67.1584 84.383 67.4994C84.2088 67.67 83.9948 67.8623 83.7408 68.1126L82.7938 68.8383C82.3993 69.1323 81.986 69.4001 81.5566 69.6401C81.0554 69.9359 80.5381 70.2036 80.0073 70.442C79.7167 70.5794 79.4187 70.7005 79.1147 70.8048C78.8063 70.9173 78.4906 71.0588 78.1568 71.1676L77.1228 71.4797C76.76 71.5922 76.3971 71.6611 76.0343 71.7554C73.0301 72.4811 69.4635 72.7133 65.6792 73.1777C64.9753 73.2793 64.2641 73.3555 63.5639 73.4752L63.0341 73.5587L62.5262 73.6421C62.3484 73.6712 62.1633 73.7002 61.9856 73.7365L59.8485 74.161L57.7259 74.5673L57.5917 74.5927L57.6316 74.5601L57.8021 74.4331L58.165 74.1465L59.0031 73.5079L60.868 72.1074C61.1801 71.8752 61.4776 71.6466 61.7461 71.4144L62.2323 70.9935C64.3149 69.1285 66.1726 66.9407 67.2502 64.4154C67.7649 63.1403 68.0842 61.7947 68.1972 60.4243C68.1972 60.2537 68.2226 60.0868 68.2262 59.9199V59.6261L68.1936 59.6732C68.0106 59.9539 67.8434 60.2446 67.6929 60.544C67.3736 61.1608 67.0833 61.8103 66.7894 62.467C66.6407 62.7972 66.4919 63.1274 66.3322 63.4648C66.2488 63.6353 66.1617 63.8095 66.0601 63.9873L65.7771 64.4662C65.3915 65.1126 64.9573 65.7288 64.4782 66.3094C64.3548 66.4654 64.2496 66.5851 64.0936 66.7593C63.8541 67.006 63.6038 67.2709 63.3679 67.4849C62.9304 67.8901 62.4567 68.2544 61.9529 68.5734L61.7062 68.704C61.6697 68.7257 61.6307 68.7427 61.5901 68.7548H61.5139H61.3579C61.3143 68.7367 61.3034 68.6895 61.2744 68.6605L61.2345 68.6133L61.2164 68.5879L61.2926 68.4791H61.2563L61.1692 68.4537L61.0749 68.4283C61.0451 68.4076 61.0193 68.3818 60.9987 68.3521C60.9654 68.2985 60.9437 68.2385 60.935 68.176C60.9263 68.1136 60.9306 68.0499 60.9479 67.9893C60.9662 67.8797 60.9929 67.7718 61.0277 67.6663L61.1837 67.2672L61.8404 65.6381L62.2033 64.702L62.5008 63.882C62.6919 63.3354 62.8721 62.7839 63.0414 62.2275C63.3852 61.134 63.6376 60.0139 63.7961 58.8786C63.8693 58.3328 63.8887 57.781 63.8541 57.2314C63.8375 56.9743 63.7974 56.7192 63.7344 56.4694C63.7034 56.3525 63.6659 56.2374 63.6219 56.1248L63.5893 56.0413C63.5811 56.0291 63.5749 56.0156 63.5711 56.0014L63.5385 55.9433C63.4768 55.8236 63.3933 55.6966 63.3244 55.5805C63.3468 55.3469 63.4119 55.1193 63.5167 54.9093L63.6038 54.7569L63.6618 54.6662L63.7707 54.492C63.9194 54.2671 64.0682 54.053 64.2206 53.8426L64.4492 53.5305L64.754 53.1242C64.8628 52.8629 65.1494 52.9028 65.3889 52.8375L65.7517 52.7686C66.7214 52.5979 67.6771 52.3553 68.6108 52.0429C69.5316 51.7465 70.4126 51.3383 71.2341 50.8275C72.0284 50.3412 72.707 49.6874 73.2224 48.9117C73.7162 48.1449 73.9771 47.2513 73.9734 46.3393C73.9715 45.4121 73.7476 44.4989 73.3203 43.6761C73.2283 43.4907 73.1151 43.3166 72.9829 43.1572C72.9166 43.0947 72.8463 43.0365 72.7725 42.9831C72.6861 42.9181 72.5965 42.8575 72.504 42.8017C72.1322 42.5756 71.7167 42.4309 71.2849 42.3772C70.8354 42.3214 70.3801 42.3361 69.9351 42.4207L69.6739 42.4715C69.5614 42.4969 69.4453 42.5332 69.3111 42.5695L68.9483 42.6783C68.8321 42.7146 68.7015 42.7726 68.5854 42.8162L67.1414 43.3205C67.4353 42.7509 67.8489 42.0724 68.1137 41.5064L68.531 40.6646L68.5818 40.5594C68.5818 40.5304 68.5999 40.5159 68.6108 40.4941L68.6544 40.3707L68.7451 40.1204C68.8757 39.7938 68.9555 39.4491 69.0571 39.1081C69.1587 38.767 69.224 38.4187 69.2712 38.0631C69.4979 36.6473 69.5125 35.2056 69.3147 33.7854C69.282 33.5423 69.2385 33.2992 69.1877 33.0597C69.1587 32.94 69.1333 32.842 69.1006 32.7368L68.9736 32.4066C68.7975 31.974 68.5591 31.5694 68.2661 31.2057C67.6552 30.4835 66.8369 29.9667 65.9222 29.7253C64.9658 29.463 63.9742 29.3516 62.9833 29.3951C61.9625 29.4286 60.9452 29.5341 59.9392 29.7108C58.9197 29.8777 57.9037 30.0918 56.8733 30.3022L53.7929 30.9843C51.7126 31.4595 49.5934 31.7449 47.4615 31.837C45.3028 31.8731 43.1507 31.5882 41.0757 30.9916C40.5605 30.8428 40.0417 30.7013 39.5373 30.5235L39.0765 30.3675C39.0403 30.3675 39.0257 30.4256 38.9967 30.451L38.8371 30.6868C38.2457 31.5612 37.6615 32.4357 37.11 33.3246C36.8379 33.7672 36.573 34.2171 36.3263 34.6707L36.1485 35.0117L36.0251 35.2585L35.9526 35.4072C35.9054 35.4362 35.851 35.458 35.8038 35.4834L35.4011 35.6757L35.129 35.8753C34.7669 36.1781 34.4664 36.5476 34.2437 36.9638C34.0037 37.3968 33.8103 37.8541 33.6668 38.328C33.3716 39.2936 33.2188 40.2971 33.2132 41.3068V41.6696L33.2459 42.0325C33.2459 42.0942 33.2676 42.1486 33.2749 42.203L33.3003 42.3409C33.3126 42.3933 33.3199 42.4467 33.3221 42.5005L33.2277 42.9577C33.0899 43.4548 32.981 43.9627 32.8649 44.4671C32.3419 46.9564 32.1951 49.5101 32.4295 52.0429C32.6557 54.5677 33.3821 57.0221 34.5666 59.2632C35.7648 61.4952 37.4546 63.4257 39.5083 64.9088C40.5334 65.6499 41.6268 66.2914 42.7738 66.8246L43.6409 67.2128L44.5299 67.5756C44.8237 67.6954 45.1322 67.7788 45.4333 67.8804C45.5422 67.9167 45.8324 68.0183 46.0828 68.0872L46.8411 68.294L47.3998 68.6823L47.4688 68.7294C47.4688 68.7548 47.4942 68.802 47.4688 68.8347C47.461 68.9087 47.4414 68.9809 47.4107 69.0487C47.3558 69.1852 47.273 69.3088 47.1676 69.4116C46.9438 69.6319 46.6661 69.7895 46.3622 69.8687C45.9962 69.9783 45.6158 70.0321 45.2337 70.0284C44.7007 70.0252 44.1689 69.9754 43.6446 69.8796C43.572 69.8796 43.5285 69.8796 43.4232 69.8433L43.2164 69.778L42.8536 69.6619L42.1279 69.4297C40.1832 68.8201 38.2311 68.2287 36.2828 67.6155C34.3344 67.0024 32.4005 66.3239 30.4775 65.5801C28.5589 64.8334 26.6901 63.9645 24.8827 62.9786C22.3683 61.6071 19.9482 59.9163 18.1195 57.6305C17.1975 56.4906 16.4783 55.2007 15.9934 53.8172C15.5202 52.4303 15.2919 50.9718 15.3185 49.5068C15.3185 49.1439 15.3185 48.7811 15.3693 48.4183L15.5035 47.3298C15.6196 46.6041 15.7503 45.9147 15.9099 45.2145C16.2193 43.809 16.6304 42.4278 17.1399 41.0819C18.2017 38.416 19.5458 35.8713 21.1492 33.4915C21.7115 32.6134 22.2921 31.7463 22.869 30.8827C23.4459 30.0192 24.1171 29.1883 24.7775 28.3756C26.1054 26.7622 27.5035 25.2093 28.9718 23.7169C30.4374 22.2193 31.9997 20.8194 33.6486 19.5262C34.4778 18.8738 35.3426 18.2681 36.2392 17.7121C36.6891 17.4399 37.1644 17.1968 37.6252 16.9429C38.086 16.6889 38.5722 16.4893 39.0548 16.2861C42.923 14.6071 47.1241 13.8351 51.3365 14.0293C53.4309 14.1273 55.5092 14.4447 57.5373 14.9763C58.5485 15.2338 59.5453 15.5451 60.5234 15.9088C61.0132 16.0902 61.4994 16.2716 61.9747 16.4966C62.2141 16.6018 62.4536 16.7106 62.7003 16.8231C62.9471 16.9356 63.2156 17.0807 63.299 17.1279L64.0682 16.9138C64.3621 16.834 64.6596 16.7651 64.9571 16.6925C66.5921 16.2939 68.267 16.0821 69.9497 16.0612C71.6404 16.0319 73.3227 16.306 74.9168 16.8703C76.5206 17.4453 77.9715 18.3799 79.1583 19.6024C79.7089 20.2335 80.2191 20.8988 80.6858 21.5943C81.155 22.2764 81.6025 22.9719 82.0282 23.6806C83.7296 26.5052 85.234 29.4439 86.5309 32.4756C87.8475 35.5029 88.939 38.6232 89.7964 41.8112C90.5704 44.6187 91.0686 47.495 91.284 50.3993C91.4602 52.7093 91.3383 55.0324 90.9212 57.3112C90.6277 58.8741 90.13 60.3917 89.4408 61.8248C88.989 62.7647 88.4327 63.6507 87.7827 64.4662C87.5215 64.7964 87.2639 65.0649 87.0316 65.3188C86.7994 65.5728 86.56 65.776 86.3314 65.9647C86.1028 66.1533 85.8887 66.3275 85.6674 66.5053C85.4461 66.6831 85.232 66.8173 85.0978 66.8971C84.8728 67.035 84.9018 66.9407 85.1594 66.6504C85.2864 66.5017 85.486 66.3166 85.7037 66.0554L86.0665 65.6309L86.491 65.112C87.2561 64.1557 87.9132 63.1177 88.4503 62.0171C88.7949 61.2975 89.0942 60.5571 89.3465 59.8002C89.6249 58.9314 89.8466 58.0454 90.0105 57.1479C90.3962 54.9178 90.4973 52.6477 90.3116 50.3921C90.1301 48.1026 89.7661 45.8314 89.2231 43.5999C88.1045 39.0672 86.524 34.6612 84.5064 30.451C83.5025 28.3175 82.3921 26.2359 81.1792 24.2139C80.566 23.2053 79.9274 22.2111 79.2344 21.275C78.9029 20.8179 78.5392 20.385 78.146 19.9797C77.7311 19.599 77.2884 19.2497 76.8216 18.9348C74.8968 17.6791 72.647 17.0132 70.3488 17.0191C69.1811 17.003 68.0143 17.0904 66.862 17.2803C66.2815 17.3674 65.7046 17.4907 65.1277 17.6213C64.841 17.6939 64.5508 17.7592 64.2677 17.839L63.1394 18.1547C62.9942 18.0749 62.8455 17.9878 62.6967 17.9116L62.479 17.7991L62.0364 17.5851C61.7388 17.4472 61.4377 17.3129 61.1329 17.186C60.5234 16.9356 59.8993 16.6998 59.268 16.4893C58.0009 16.0699 56.7077 15.7342 55.3966 15.4843C52.7592 14.9848 50.0643 14.8626 47.3926 15.1215C46.2704 15.2404 45.1559 15.4233 44.0546 15.6693C42.9571 15.9278 41.8763 16.2525 40.8181 16.6417C40.2811 16.8231 39.7695 17.0626 39.2434 17.2694L38.4742 17.6322C38.2203 17.7483 37.9627 17.8681 37.7232 17.9951L36.9975 18.3978C36.7544 18.5284 36.5222 18.6953 36.2719 18.8405C36.0215 18.9856 35.7929 19.138 35.5462 19.3012L34.8568 19.7983C33.0278 21.1608 31.3098 22.6665 29.7192 24.301C28.1054 25.9321 26.5759 27.6445 25.1366 29.4314C24.7738 29.8777 24.411 30.3276 24.0881 30.7812C23.7652 31.2347 23.4495 31.71 23.1266 32.1926C22.488 33.1541 21.8494 34.1156 21.2471 35.0952C20.6448 36.0748 20.0607 37.0581 19.5309 38.0631C19.0015 39.0679 18.5279 40.1011 18.1123 41.1581C17.6978 42.2128 17.35 43.2925 17.071 44.3909C16.7829 45.4884 16.5588 46.6017 16.3997 47.7253L16.2945 48.5525C16.2727 48.8283 16.2727 49.104 16.2619 49.3834L16.2437 49.797C16.2437 49.9349 16.2437 50.0728 16.2655 50.2106C16.2655 50.4828 16.2909 50.7585 16.3163 51.0343C16.4439 52.1241 16.721 53.1912 17.1399 54.2054L17.1689 54.2272Z" fill="#221F1F"/>
<path d="M61.7997 76.3378C61.5494 76.1201 61.3384 75.8612 61.1756 75.5722C61.0217 75.3066 60.9091 75.0191 60.8418 74.7195C60.8314 74.6731 60.8349 74.6246 60.8518 74.5801C60.8687 74.5355 60.8983 74.497 60.937 74.4692C60.9756 74.4413 61.0216 74.4255 61.0692 74.4235C61.1168 74.4216 61.1639 74.4337 61.2046 74.4583C61.5506 74.6942 61.8837 74.9486 62.2024 75.2203C62.3004 75.3001 63.0442 76.0729 63.8352 76.9836C64.6261 77.8943 65.4788 78.932 65.9069 79.4617C66.7342 80.4921 67.4961 81.5734 68.2254 82.6764C68.9547 83.7794 69.6767 84.9404 70.3479 86.1124C71.0281 87.2913 71.634 88.5116 72.1621 89.7661C72.3943 90.3067 72.6084 90.8545 72.8115 91.406C73.5154 93.3 74.3137 95.1613 75.1155 97.0263C75.242 97.3395 75.3849 97.646 75.5436 97.9442C75.6815 98.1764 76.2693 99.5697 76.8317 101.003C77.3941 102.436 77.9202 103.906 78.0109 104.268C78.5188 105.977 78.9978 107.701 79.3933 109.446C79.4673 109.689 79.5183 109.938 79.5456 110.19C79.5813 110.738 79.67 111.281 79.8105 111.812C79.9593 112.563 80.0935 113.317 80.1733 114.076C80.2133 114.438 80.2024 114.834 80.206 115.208C80.2096 115.581 79.9919 115.393 79.952 115.28C79.8395 114.95 79.796 115.237 79.7234 115.28C79.6509 115.324 79.669 115.313 79.6436 115.298C79.6182 115.284 79.5602 115.023 79.4549 114.616C79.4078 114.413 79.3461 114.177 79.2844 113.923L79.0595 113.121L78.8345 112.301C78.751 112.037 78.6749 111.786 78.6059 111.576C78.468 111.122 78.3701 110.781 78.341 110.669C78.341 110.64 78.2177 110.241 78.0508 109.649C77.8839 109.058 77.6299 108.274 77.3832 107.472C76.8498 105.883 76.2366 104.239 76.0988 103.909C75.9609 103.579 75.8557 103.183 75.7359 102.842C75.7033 102.755 75.2244 101.543 74.7091 100.335C74.1939 99.1271 73.6642 97.9225 73.6206 97.8281C73.2288 96.8557 72.7716 95.9051 72.4632 94.9001C72.3953 94.7012 72.3166 94.5062 72.2274 94.3159C71.8646 93.4851 71.5017 92.6505 71.1643 91.8124C70.8269 90.9743 70.4894 90.1216 70.1411 89.3307C69.7928 88.5397 69.3284 87.7161 68.8712 86.9287C68.7914 86.7872 68.7261 86.6348 68.6499 86.4861C68.5737 86.3373 68.4612 86.1233 68.3524 85.9418C67.2491 84.0749 66.0439 82.2702 64.7422 80.5357C64.4447 80.1366 63.1059 78.1555 62.714 77.7347C62.5399 77.477 62.0137 76.5446 61.7997 76.3378Z" fill="#221F1F"/>
<path d="M46.378 69.3974C46.28 69.6695 44.7924 72.9314 44.4006 74.2702C43.8938 76.0835 43.5932 77.9481 43.5044 79.8287C36.4292 78.6205 34.1434 76.371 33.2363 73.7876C36.5707 71.6107 39.6003 69.7639 43.1307 69.4337C44.2106 69.3381 45.2962 69.3259 46.378 69.3974Z" fill="#221F1F"/>
<path d="M45.985 68.4901C45.9622 68.4864 45.9389 68.4864 45.9161 68.4901C45.7979 68.5223 45.6757 68.537 45.5533 68.5337C44.9945 68.5337 44.4321 68.5337 43.8734 68.5591C43.594 68.5591 43.3146 68.5917 43.0352 68.6208C42.7559 68.6498 42.4656 68.6788 42.1826 68.7296C41.0629 68.9183 39.9676 69.231 38.9171 69.6621C37.8877 70.0901 36.8877 70.5858 35.9238 71.1461C35.4485 71.4218 34.9768 71.7048 34.516 71.9951L33.823 72.4305L33.4819 72.6518L32.8651 73.0727L32.2266 73.5008L32.5059 74.2265L32.6474 74.5893C32.6688 74.6508 32.6955 74.7103 32.7273 74.7671L32.7998 74.9231C32.862 75.0614 32.9323 75.1958 33.0103 75.3258C33.3093 75.8543 33.6751 76.3421 34.0988 76.7772C34.927 77.6168 35.899 78.3013 36.9687 78.7981C37.9897 79.2755 39.0509 79.6616 40.1399 79.9519L40.9453 80.1624L41.7545 80.3438L41.954 80.3909L42.0556 80.4127L42.2189 80.4454L42.901 80.5724L44.2652 80.83L44.3451 79.6109L44.3886 79.0049L44.4212 78.6711C44.4612 78.2648 44.5083 77.862 44.5664 77.4593C44.6774 76.6574 44.8349 75.8627 45.038 75.0791C45.0888 74.8868 45.1433 74.6909 45.1977 74.5022C45.2521 74.3136 45.3138 74.1394 45.3827 73.9507C45.517 73.5879 45.673 73.1888 45.8254 72.8078C46.1411 72.0422 46.4712 71.2767 46.805 70.5111C46.8494 70.4085 46.9107 70.314 46.9864 70.2317C47.0019 70.2147 47.0141 70.195 47.0227 70.1737C47.0426 70.1044 47.0426 70.0309 47.0227 69.9616C47.0028 69.8923 46.9638 69.83 46.9102 69.7818C46.773 69.6117 46.5888 69.4855 46.3805 69.419C46.1804 69.345 45.9697 69.3034 45.7565 69.2956C45.5823 69.2956 45.448 69.3537 45.3936 69.4662C45.3899 69.4865 45.3899 69.5074 45.3936 69.5278C45.3806 69.6443 45.3501 69.758 45.3029 69.8653L44.7224 71.215C44.443 71.879 44.1636 72.5466 43.9024 73.2432C43.8371 73.4137 43.7754 73.606 43.7137 73.7766C43.652 73.9471 43.5976 74.1394 43.5505 74.3281C43.4489 74.6909 43.3582 75.0537 43.2783 75.4166C43.1187 76.1422 42.9953 76.8679 42.9155 77.5935C42.8683 77.9564 42.8284 78.3192 42.7921 78.682V78.8562L42.5708 78.8163L42.462 78.7945L42.1354 78.7219L41.3662 78.5478L40.6079 78.3482C39.6114 78.0849 38.64 77.734 37.7053 77.2996C36.8153 76.8869 36.0057 76.3193 35.3142 75.6234C34.9876 75.2843 34.707 74.9037 34.4797 74.4913C34.4189 74.3896 34.3644 74.2841 34.3165 74.1757C34.3165 74.1358 34.3165 74.1503 34.2947 74.1321C34.2729 74.114 34.2947 74.114 34.2947 74.1067H34.3201L35.4086 73.4065C35.8585 73.1259 36.312 72.8538 36.7692 72.5901C37.6684 72.0661 38.6017 71.6031 39.563 71.2041C40.5035 70.8182 41.4845 70.5395 42.4874 70.3732C42.7377 70.3297 42.9881 70.3116 43.2348 70.2789C43.4815 70.2462 43.7536 70.2354 44.0112 70.2208C44.5265 70.1954 45.0453 70.1882 45.5642 70.2027C45.6711 70.2035 45.777 70.2244 45.8762 70.2644C45.8976 70.2702 45.9201 70.2702 45.9415 70.2644C46.1665 70.2644 46.3769 69.9016 46.4095 69.4045C46.4422 68.9074 46.2318 68.501 45.985 68.4901Z" fill="#232020"/>
<path d="M3.37798 113.115C2.94543 113.876 2.3197 114.511 1.56384 114.954C1.34614 115.085 1.13208 114.871 1.26632 114.62C1.53119 114.127 1.79968 113.637 2.08994 113.151C2.16976 112.998 2.99339 111.808 3.87143 110.426C4.31408 109.74 4.76399 109 5.17399 108.343L6.16814 106.692C7.07521 105.143 8.00405 103.612 8.9329 102.07C10.8232 98.9352 12.6737 95.7641 14.6366 92.6365C15.0683 91.9398 15.5328 91.2614 15.9972 90.5901L17.209 88.8667L18.4608 87.1541C19.3134 86.0257 20.1842 84.9155 21.0877 83.8306C21.3924 83.4678 21.7117 83.105 21.9766 82.7421C22.9573 81.5569 23.9976 80.4222 25.0933 79.3424C26.6099 77.8367 28.2463 76.4108 28.6418 76.106C30.5717 74.5511 32.618 73.1464 34.7627 71.9044C35.0577 71.7118 35.3684 71.5443 35.6915 71.4037C36.0513 71.2818 36.4018 71.1339 36.7401 70.9611C37.0812 70.7942 37.415 70.5982 37.7742 70.4676C38.2676 70.2608 38.7502 70.0395 39.2509 69.8581L40.7784 69.3828C41.2944 69.2817 41.8151 69.2066 42.3386 69.1578C42.803 69.0998 42.5853 69.3429 42.4329 69.4009C41.9902 69.5678 42.3785 69.5642 42.4329 69.6331C42.4873 69.7021 42.4764 69.6839 42.4583 69.7093C42.3762 69.7463 42.2913 69.7766 42.2043 69.8L41.5476 70.0068L41.1122 70.1411L40.6333 70.337L39.5883 70.7651C39.2255 70.9248 38.8881 71.128 38.5543 71.2804C38.2205 71.4327 37.8903 71.596 37.6182 71.7738C37.0667 72.1004 36.6458 72.3471 36.5043 72.4196C36.4861 72.4196 36.3519 72.4995 36.1414 72.6265L35.2743 73.1707C34.5486 73.6025 33.6379 74.2592 32.7055 74.9341L31.3557 75.9863C30.9167 76.3309 30.5212 76.6865 30.1548 76.9913C29.4291 77.5972 28.9066 78.1088 28.7216 78.2721C28.3588 78.6349 27.9379 78.9397 27.5569 79.288L26.6825 80.1443C26.1854 80.6232 25.594 81.2908 24.9591 81.9366C24.3241 82.5825 23.7545 83.2719 23.3046 83.798L22.5027 84.7522C21.5593 85.8407 20.7103 86.9909 19.767 88.0648C19.5826 88.284 19.4118 88.5143 19.2554 88.7542C17.8512 90.7715 16.4797 92.8578 15.1445 94.9513C14.4624 96.0398 13.8166 97.1283 13.1562 98.2168C13.0401 98.4127 12.9059 98.6014 12.7934 98.7937C12.6809 98.986 12.4705 99.2763 12.3253 99.5193C10.787 102.117 9.18325 104.686 7.60857 107.284C7.43079 107.585 6.85751 108.416 6.28062 109.258C5.70372 110.099 5.09417 110.941 4.86921 111.279C4.74948 111.467 4.43382 111.837 4.14355 112.204C3.86951 112.491 3.61381 112.795 3.37798 113.115Z" fill="#221F1F"/>
<path d="M63.1038 77.4009C60.6365 78.2246 58.7861 78.0468 56.0032 78.6781C56.0032 78.1738 55.8218 77.6658 55.8508 77.1615C55.8507 76.8864 55.8653 76.6114 55.8943 76.3379C55.9596 75.975 55.8726 76.0585 56.1882 75.8843C56.6599 75.6231 57.2513 75.5215 57.7411 75.2711C58.4633 74.9064 59.1592 74.4918 59.8238 74.0303C61.1662 74.8575 62.0116 76.2725 63.1038 77.4009Z" fill="#221F1F"/>
<path d="M63.6021 76.639C63.5948 76.6298 63.5846 76.6234 63.5731 76.6209C63.5149 76.6095 63.4616 76.5803 63.4207 76.5374C62.9672 76.0367 62.5281 75.4671 62.0274 74.9011C61.7771 74.6181 61.5086 74.3387 61.2147 74.0666C61.1385 74.0013 61.0659 73.9323 60.9861 73.8706L60.8555 73.7618C60.7974 73.711 60.7212 73.6602 60.6523 73.6094C60.3766 73.4135 60.0899 73.2212 59.8069 73.0361L59.1139 73.526L58.8273 73.7146L58.6531 73.8235C58.4209 73.965 58.1778 74.1028 57.9275 74.2371L57.5465 74.4439L57.3578 74.5455L57.2163 74.6108C57.0168 74.7015 56.7555 74.7777 56.4544 74.8829C56.2703 74.9438 56.0909 75.0178 55.9174 75.1043C55.6629 75.2011 55.4387 75.3639 55.2679 75.5759C55.1416 75.8171 55.0721 76.0839 55.0647 76.356C55.0647 76.4975 55.0466 76.5665 55.043 76.6572V76.8894V77.0853V77.2123V77.3611C55.043 77.459 55.043 77.5497 55.0611 77.6404V77.7674L55.0829 77.9234C55.1345 78.2028 55.1685 78.4852 55.1845 78.7688L55.2316 79.6795L56.7954 79.353L57.1583 79.2804L57.3615 79.2478L57.7715 79.1825C58.3193 79.099 58.8599 79.0301 59.4441 78.9648C60.6272 78.8506 61.7978 78.6308 62.9418 78.308C63.0014 78.2934 63.0636 78.2934 63.1232 78.308H63.1631C63.2864 78.2681 63.261 77.8618 63.105 77.401C62.949 76.9402 62.7422 76.5882 62.6297 76.6209C62.6189 76.6248 62.6098 76.6325 62.6043 76.6427C62.5678 76.6893 62.5187 76.7245 62.4628 76.7442C62.2415 76.8059 62.0202 76.8712 61.7952 76.922C60.8377 77.133 59.8684 77.2869 58.8926 77.3828C58.3846 77.4445 57.8694 77.5098 57.3506 77.5896L56.8063 77.684H56.7446C56.7446 77.684 56.7229 77.684 56.7192 77.684C56.7225 77.6611 56.7225 77.6379 56.7192 77.615V77.4663C56.7159 77.4131 56.7159 77.3598 56.7192 77.3066V77.147V76.9075V76.7043V76.5701C56.7192 76.5701 56.7192 76.5483 56.7192 76.5374H56.7446L57.0168 76.4322C57.2635 76.3451 57.5646 76.2617 57.8984 76.1166C57.9819 76.0803 58.069 76.0367 58.1524 75.9932L58.3483 75.8916L58.7366 75.6775C58.9978 75.536 59.2663 75.3873 59.5275 75.224C59.6339 75.1678 59.7358 75.1035 59.8323 75.0317C59.844 75.0377 59.855 75.045 59.865 75.0535L59.9557 75.126C60.0174 75.1768 60.0754 75.2313 60.1335 75.2857C60.3793 75.5129 60.6107 75.7553 60.8265 76.0113C61.28 76.5229 61.7227 77.0998 62.2342 77.6622C62.2743 77.709 62.3017 77.7652 62.3141 77.8255C62.3099 77.8372 62.3099 77.85 62.3141 77.8618C62.4048 77.9597 62.764 77.7602 63.1123 77.4191C63.4606 77.0781 63.6783 76.7007 63.6021 76.639Z" fill="#232020"/>
<path d="M40.779 85.1512C40.8262 84.9843 41.0258 84.9916 41.2797 85.1113C41.389 85.1809 41.4759 85.2804 41.5301 85.398C41.5269 85.4928 41.5172 85.5874 41.5011 85.681C41.5011 85.71 41.3958 85.866 41.3015 86.0438C41.213 86.2086 41.1366 86.3795 41.0729 86.5554C40.9967 86.7694 40.906 86.9726 40.8117 87.1758C40.6332 87.5956 40.5112 88.0373 40.4489 88.4893C40.4337 88.5904 40.4094 88.69 40.3763 88.7868C40.2745 89.1186 40.2608 89.4712 40.3364 89.81C40.3384 89.8682 40.3617 89.9236 40.4017 89.966C40.4746 90.1257 40.5388 90.2892 40.594 90.4558C40.6811 90.6699 40.7899 90.8658 40.8081 90.9093C40.8905 91.1612 41.0367 91.3875 41.2326 91.566C41.258 91.5951 41.3015 91.6023 41.3124 91.6568C41.3378 91.791 41.4285 91.8164 41.5119 91.8491C41.5954 91.8817 41.7442 91.947 41.8748 92.0087C41.9409 92.0508 42.0008 92.1021 42.0526 92.1611C42.107 92.2155 42.0526 92.3715 42.0526 92.386C42.0526 92.4006 42.0235 92.5094 42.0272 92.5783C42.0309 92.6012 42.0309 92.6245 42.0272 92.6473C41.8598 92.7078 41.6825 92.7361 41.5047 92.7307C41.2836 92.7513 41.0607 92.7291 40.848 92.6654C40.7648 92.6339 40.6847 92.5951 40.6085 92.5493C40.4393 92.4599 40.28 92.3529 40.1332 92.23C39.8897 92.0265 39.6749 91.7909 39.4946 91.5298C39.4445 91.4526 39.41 91.3663 39.393 91.2758C39.2902 91.0857 39.1994 90.8894 39.1209 90.688C39.0412 90.4895 38.9792 90.2843 38.9359 90.0748C38.8729 89.837 38.8729 89.587 38.9359 89.3492C38.9467 89.3026 38.9467 89.2542 38.9359 89.2077C38.9307 88.8079 38.9832 88.4095 39.0919 88.0248C39.139 87.8289 39.1753 87.6294 39.2297 87.4371C39.2443 87.4025 39.2625 87.3697 39.2842 87.3391C39.3023 87.2956 39.3277 87.2556 39.3422 87.2121C39.5045 86.7647 39.701 86.3304 39.93 85.9132C40.0891 85.7121 40.2587 85.5195 40.438 85.3363C40.4851 85.271 40.7609 85.2165 40.779 85.1512Z" fill="#221F1F"/>
<path d="M41.21 97.0189C41.279 96.8557 41.4712 96.8702 41.718 97.0189C41.8214 97.0953 41.8987 97.2017 41.9393 97.3237C41.9284 97.4241 41.9102 97.5235 41.8849 97.6212C41.8849 97.6503 41.747 97.8026 41.62 97.9841C41.493 98.1655 41.3805 98.3795 41.3225 98.4884C41.2427 98.717 41.0939 98.8948 40.9996 99.1016L40.8436 99.4136C40.7967 99.5198 40.7567 99.6289 40.7238 99.7401C40.6504 99.9581 40.5934 100.181 40.5533 100.408C40.5279 100.506 40.5206 100.604 40.4844 100.705C40.4547 100.79 40.4304 100.876 40.4118 100.963C40.4118 101.05 40.4118 101.137 40.4118 101.224C40.4093 101.397 40.4338 101.57 40.4844 101.736C40.4844 101.79 40.4844 101.852 40.5497 101.892C40.5914 101.944 40.6245 102.003 40.6476 102.066C40.6833 102.174 40.7295 102.279 40.7855 102.378C40.8649 102.536 40.9533 102.69 41.0504 102.839C41.1655 103.102 41.3422 103.333 41.5656 103.514C41.5946 103.546 41.6345 103.561 41.6527 103.612C41.6926 103.739 41.7905 103.757 41.8776 103.8C41.9958 103.859 42.1169 103.913 42.2404 103.96C42.3111 104.005 42.3747 104.06 42.4291 104.123C42.4872 104.178 42.4291 104.334 42.4291 104.344C42.4291 104.355 42.4001 104.468 42.4037 104.537C42.4077 104.56 42.4077 104.583 42.4037 104.606C42.2282 104.658 42.0463 104.686 41.8631 104.689C41.6479 104.691 41.4332 104.666 41.2245 104.613C40.9674 104.507 40.7238 104.37 40.4989 104.207C40.3354 104.084 40.1813 103.949 40.0381 103.804L39.8022 103.535C39.738 103.463 39.692 103.375 39.668 103.281C39.668 103.26 39.4721 102.987 39.3451 102.69L39.1745 102.269C39.1469 102.2 39.1262 102.128 39.1129 102.055C39.0351 101.807 39.0239 101.543 39.0802 101.289C39.0912 101.24 39.0912 101.19 39.0802 101.141C39.062 100.926 39.073 100.71 39.1129 100.498C39.1368 100.289 39.183 100.082 39.2507 99.8817C39.2798 99.7764 39.3015 99.6712 39.3233 99.566L39.4249 99.2612C39.4421 99.2262 39.4615 99.1922 39.4829 99.1596C39.5108 99.1189 39.534 99.075 39.5519 99.029C39.6485 98.7971 39.76 98.5717 39.8857 98.3541C40.0163 98.1401 40.1651 97.9405 40.2848 97.7156C40.3429 97.6103 40.8 97.2838 40.869 97.1749C40.9379 97.0661 41.21 97.0697 41.21 97.0189Z" fill="#221F1F"/>
<path d="M42.58 41.053C42.1373 41.9347 40.6026 42.6603 40.1091 41.6081C39.4814 40.2693 41.0162 39.3223 42.0285 39.3912C42.6961 39.4384 43.1387 39.9355 42.58 41.053Z" fill="#221F1F"/>
<path d="M41.3278 40.7154C41.3713 40.7989 41.2298 40.7771 40.965 40.7154C40.844 40.6779 40.7291 40.6229 40.6239 40.5522C40.5783 40.4951 40.5394 40.433 40.5078 40.3671C40.5244 40.1621 40.5658 39.9598 40.6312 39.7648C40.6787 39.6289 40.7555 39.505 40.8561 39.402C41.0628 39.1624 41.3036 38.9545 41.5709 38.7852C41.6339 38.7486 41.7026 38.7229 41.7741 38.709C42.0353 38.6763 42.2639 38.6001 42.5215 38.5457C42.5681 38.5456 42.6131 38.5289 42.6485 38.4985C42.7931 38.4435 42.9501 38.4296 43.102 38.4586C43.2588 38.4797 43.4102 38.5302 43.5483 38.6074C43.7285 38.7497 43.8873 38.9171 44.02 39.1045C44.0381 39.1299 44.0708 39.1407 44.0599 39.1915C44.0309 39.3113 44.0853 39.3367 44.1216 39.3838C44.1695 39.4495 44.2051 39.5232 44.2268 39.6015C44.2273 39.6576 44.2162 39.7132 44.1942 39.7648C44.1942 39.8156 44.0381 39.8991 44.0164 39.9027C43.9946 39.9063 43.9111 39.9716 43.8603 40.0152L43.8059 40.0551C43.7233 40.0591 43.6404 40.053 43.5592 40.0369C43.454 40.0152 43.3488 40.0369 43.3379 40.0369L43.2835 40.0043C43.2436 39.9865 43.2023 39.9719 43.1601 39.9607C43.1006 39.9407 43.0373 39.9345 42.975 39.9426C42.975 39.9426 42.9497 39.9426 42.9388 39.9027C42.9279 39.8628 42.7174 39.9716 42.7138 39.9789C42.7102 39.9861 42.6376 40.0297 42.5651 39.9462C42.5469 39.9281 42.5397 39.9462 42.5288 39.9462C42.435 39.9891 42.338 40.0243 42.2385 40.0515C42.1898 40.0826 42.1448 40.1191 42.1043 40.1603C42.1043 40.1603 42.0789 40.1603 42.0643 40.1603C42.0498 40.1603 42.0317 40.1603 42.0208 40.1603C41.9228 40.2655 41.785 40.349 41.7342 40.5014C41.7342 40.5304 41.5346 40.6211 41.5237 40.6646C41.5128 40.7082 41.3133 40.6828 41.3278 40.7154Z" fill="#221F1F"/>
<path d="M54.911 44.2528C54.5917 45.1817 53.1658 46.1032 52.5381 45.1272C51.2102 43.0627 55.9342 41.274 54.911 44.2528Z" fill="#221F1F"/>
<path d="M53.6033 44.0829C53.6541 44.1627 53.5126 44.1554 53.2405 44.1228C53.1146 44.1037 52.9923 44.0658 52.8777 44.0103C52.825 43.9574 52.7798 43.8976 52.7434 43.8325C52.7362 43.616 52.7607 43.3997 52.816 43.1903C52.8527 43.04 52.9248 42.9006 53.0264 42.7839C53.2194 42.5235 53.4564 42.2988 53.7267 42.12C53.7875 42.0775 53.8568 42.0491 53.9299 42.0365C54.1947 41.993 54.4233 41.9059 54.6773 41.8478C54.7243 41.8449 54.7684 41.8241 54.8007 41.7898C54.9378 41.731 55.088 41.7097 55.2361 41.7281C55.3901 41.735 55.5415 41.7707 55.6823 41.8333C55.874 41.9561 56.0495 42.1024 56.2048 42.2687C56.2266 42.2905 56.2592 42.2977 56.2556 42.3485C56.2556 42.4719 56.2991 42.49 56.3463 42.5336C56.4033 42.5937 56.4488 42.6638 56.4806 42.7404C56.4935 42.7953 56.4935 42.8524 56.4806 42.9073C56.4806 42.9617 56.3427 43.0597 56.3245 43.0669C56.3064 43.0742 56.2302 43.1504 56.183 43.1976C56.168 43.2163 56.151 43.2333 56.1322 43.2483C56.0502 43.2565 55.9676 43.2565 55.8855 43.2483C55.7767 43.2483 55.6678 43.2483 55.6569 43.2483C55.5953 43.2176 55.5292 43.1968 55.461 43.1867C55.39 43.1763 55.3179 43.1763 55.2469 43.1867C55.2288 43.1867 55.2143 43.1867 55.1998 43.154C55.1853 43.1214 54.9385 43.2302 54.9349 43.2411C54.9313 43.252 54.8515 43.2955 54.768 43.2193C54.7499 43.2193 54.7426 43.2193 54.7317 43.2193C54.6901 43.2508 54.6416 43.2719 54.5902 43.281C54.5431 43.3028 54.4886 43.3209 54.4378 43.3391C54.387 43.3572 54.3507 43.4189 54.3036 43.4515C54.2564 43.4842 54.2782 43.4515 54.2673 43.4515C54.2564 43.4515 54.2346 43.4515 54.2274 43.4515C54.1331 43.5604 54.0024 43.6511 53.9662 43.8144C53.9662 43.8434 53.7811 43.945 53.7775 43.9922C53.7739 44.0393 53.5852 44.0466 53.6033 44.0829Z" fill="#221F1F"/>
<path d="M38.5417 46.4952C39.132 46.5666 39.6994 46.7673 40.2034 47.0829C40.2351 47.1065 40.2593 47.1388 40.273 47.1758C40.2866 47.2129 40.2892 47.2532 40.2803 47.2917C40.2715 47.3302 40.2516 47.3652 40.2231 47.3926C40.1946 47.42 40.1588 47.4385 40.12 47.4458C39.7129 47.4919 39.3024 47.5016 38.8936 47.4748C38.104 47.3624 37.3298 47.1603 36.586 46.8725C36.0119 46.6499 35.4634 46.3665 34.9497 46.0271C34.5253 45.7506 34.1387 45.4201 33.7995 45.0438C33.647 44.8697 33.5063 44.6854 33.3786 44.4923C33.2569 44.3063 33.1455 44.1137 33.0448 43.9154C32.9468 43.7195 32.8561 43.5163 32.7763 43.3095C32.7364 43.2079 32.6965 43.1027 32.6638 42.9975L32.613 42.8415L32.5586 42.6601C32.5454 42.6051 32.5357 42.5493 32.5296 42.4932V42.3879V42.1993C32.5296 42.0759 32.5114 41.9525 32.5078 41.8364C32.5078 41.5897 32.5078 41.3502 32.5078 41.1108C32.5278 39.7316 32.8368 38.372 33.4149 37.1197C33.7272 36.4718 34.144 35.8797 34.6485 35.3672C35.1628 34.854 35.7634 34.4352 36.4227 34.1299C36.9996 33.8714 37.6105 33.6967 38.2369 33.6111C38.7423 33.5479 39.2514 33.5188 39.7608 33.524C40.2835 33.5215 40.8055 33.564 41.3209 33.651C42.3618 33.8287 43.3607 34.1978 44.2671 34.7395C44.5755 34.9137 44.8585 35.135 45.156 35.3164C45.4948 35.5631 45.8051 35.8466 46.0813 36.1618C46.5962 36.7411 46.9908 37.4169 47.2423 38.1501C47.3123 38.3491 47.3681 38.5528 47.4092 38.7596C47.4563 38.9601 47.4879 39.1639 47.5035 39.3692L47.5326 39.6667C47.5326 39.7683 47.5326 39.8663 47.5326 39.9534C47.5326 40.1348 47.5326 40.3162 47.5144 40.4613C47.4925 40.8948 47.4416 41.3263 47.362 41.753C47.1881 42.6397 46.9079 43.5022 46.5275 44.3218C46.3305 44.735 46.0987 45.1307 45.8345 45.5046C45.7021 45.6949 45.5579 45.8766 45.4028 46.0489L45.1742 46.3065L44.9492 46.5351C44.7832 46.723 44.5971 46.8921 44.3941 47.0394C43.9406 47.3297 43.5451 47.6889 43.1024 48.0082C42.4937 48.4559 41.8289 48.8219 41.125 49.0966C40.7733 49.2221 40.4079 49.3049 40.0365 49.3434C39.71 49.3942 39.8442 49.1874 39.9458 49.1402C40.2433 49.0023 39.9676 49.0023 39.924 48.9443C39.8805 48.8862 39.8878 48.9007 39.8986 48.879C39.9095 48.8572 40.149 48.7846 40.4937 48.6141C40.9251 48.4083 41.3378 48.1655 41.7273 47.8884C42.3773 47.4289 42.9845 46.9115 43.5414 46.3428C43.5596 46.3428 43.8353 46.0634 44.2163 45.6353C44.3252 45.5192 44.405 45.4103 44.5029 45.2906C44.6068 45.1671 44.7013 45.0361 44.786 44.8987C44.985 44.5999 45.1574 44.2843 45.3012 43.9554C45.7431 42.9021 45.9985 41.7799 46.0559 40.6391C46.0559 40.3089 46.1139 39.9534 46.103 39.6558C46.0365 38.9072 45.7723 38.1898 45.3374 37.5768C44.8824 36.9518 44.3062 36.4249 43.643 36.0275C42.8638 35.5626 42.0184 35.2189 41.1359 35.008C40.9594 34.9608 40.7779 34.9353 40.5953 34.9318C39.0025 34.8375 37.3298 35.0552 36.1071 35.9659C35.4837 36.4443 34.9857 37.0668 34.6558 37.78C34.5977 37.9143 34.5179 38.034 34.4598 38.1682C34.3794 38.3347 34.3114 38.5069 34.2567 38.6835C34.0729 39.2912 33.9513 39.9161 33.8938 40.5484C33.8648 40.8677 33.8467 41.187 33.8467 41.5063C33.8467 41.6659 33.8467 41.8292 33.8467 41.9852V42.221C33.8437 42.2754 33.8437 42.3299 33.8467 42.3843C34.0145 43.0171 34.3041 43.6112 34.6993 44.1331C34.9972 44.5143 35.345 44.8535 35.7334 45.1418C36.1557 45.4588 36.6165 45.7209 37.1049 45.9219C37.5641 46.159 38.0453 46.351 38.5417 46.4952Z" fill="#221F1F"/>
<path d="M47.6659 41.5386C47.1541 41.6656 46.6293 41.7325 46.1021 41.7381C46.0612 41.7392 46.0209 41.7294 45.9851 41.7096C45.9494 41.6898 45.9196 41.6608 45.8989 41.6257C45.8796 41.5858 45.8741 41.5406 45.8832 41.4972C45.8924 41.4539 45.9158 41.4148 45.9497 41.3862C46.2564 41.1163 46.6091 40.9037 46.991 40.7585C47.2434 40.6778 47.5037 40.6243 47.7675 40.5989C48.2989 40.5412 48.8363 40.5743 49.3566 40.6968C49.5054 40.7222 49.6469 40.7766 49.792 40.8166C49.9363 40.8591 50.0781 40.91 50.2165 40.9689C50.3544 41.0306 50.4959 41.0814 50.6265 41.1467L50.8225 41.2519L51.1381 41.4261C51.1838 41.4541 51.2253 41.4883 51.2615 41.5277L51.3195 41.5821C51.3195 41.6148 51.3522 41.6257 51.3631 41.6511C51.4365 41.7285 51.4889 41.8234 51.5155 41.9268C51.5731 42.1209 51.5879 42.3251 51.559 42.5255C51.5515 42.6184 51.537 42.7106 51.5155 42.8012C51.5055 42.8588 51.4922 42.9157 51.4756 42.9718C51.4502 43.0806 51.4211 43.1713 51.3994 43.2511C51.3014 43.5632 51.1889 43.8498 51.0765 44.1255L50.993 44.3251C50.9689 44.3774 50.9507 44.4321 50.9386 44.4884L50.8334 44.8512C50.7646 45.0886 50.716 45.3313 50.6882 45.5769C50.6687 45.6968 50.6614 45.8183 50.6665 45.9397C50.6593 46.0605 50.6593 46.1817 50.6665 46.3025C50.7071 46.7932 50.8426 47.2713 51.0656 47.7103C51.309 48.1532 51.6269 48.5509 52.0053 48.8859C52.8155 49.5778 53.7797 50.0655 54.8172 50.3082L55.5247 50.4569C55.7606 50.4859 56 50.5404 56.2504 50.5585C57.0666 50.6683 57.8964 50.6142 58.6914 50.3992C59.4864 50.1843 60.2305 49.8129 60.8801 49.3067C61.0907 49.1427 61.2807 48.9539 61.4461 48.7444C61.4751 48.6972 61.5404 48.6029 61.6348 48.4759L61.8017 48.2618C61.8634 48.182 61.9105 48.0804 61.9758 47.9824L62.1681 47.6631L62.3423 47.3003C62.4662 47.0295 62.5681 46.7493 62.6471 46.4622C62.6965 46.3169 62.7329 46.1676 62.7559 46.0159L62.8466 45.5732C62.8902 45.2757 62.9047 44.9891 62.9337 44.7351C62.9591 44.2235 62.9337 43.8208 62.9555 43.6756C62.9869 42.9727 62.872 42.2709 62.618 41.6148C62.3471 40.9879 61.8995 40.4533 61.33 40.0764C61.1558 39.9784 60.9672 39.8623 60.8184 39.7571C60.6375 39.6222 60.4384 39.5134 60.227 39.4342C60.0093 39.3616 59.788 39.2999 59.5666 39.2346C59.2474 39.1766 58.9317 39.1004 58.6088 39.0496L57.6291 38.9262C57.3026 38.9044 56.9797 38.8428 56.6531 38.792C56.3266 38.7412 56.5153 38.5851 56.6205 38.567C56.9253 38.5198 56.6749 38.44 56.6459 38.3747C56.6169 38.3094 56.6241 38.3239 56.6459 38.3058C56.7051 38.2902 56.766 38.2817 56.8273 38.2804L57.2881 38.2441C57.7711 38.2092 58.2557 38.2031 58.7394 38.226C59.5659 38.26 60.3823 38.4215 61.1595 38.7049L61.4425 38.8174C61.6058 38.9081 61.8343 39.0314 62.1065 39.1802C62.7664 39.6142 63.3127 40.2003 63.6993 40.8891C64.0754 41.6062 64.3001 42.3928 64.3596 43.2003C64.4177 43.8534 64.4032 44.365 64.4177 44.5355C64.4039 44.9004 64.3663 45.264 64.3052 45.624C64.3052 45.6639 64.2399 45.9869 64.1528 46.4803C64.023 47.0638 63.8283 47.6309 63.5723 48.1711C63.5079 48.3216 63.4302 48.4661 63.3401 48.6029L63.0933 49.0129C62.9192 49.2705 62.7305 49.4954 62.5709 49.695C62.208 50.0578 61.9577 50.3118 61.9178 50.3444C61.1176 51.03 60.1562 51.5007 59.124 51.7123C58.9244 51.7413 58.7213 51.7921 58.5217 51.8393C56.7966 52.1822 55.0086 52.0054 53.384 51.3313C52.5396 51.0015 51.7589 50.5276 51.0765 49.9308C50.9567 49.8147 50.8442 49.6913 50.7318 49.568C50.6193 49.4446 50.4778 49.2306 50.3435 49.0673C49.663 48.1749 49.3095 47.076 49.3421 45.9542C49.3421 45.8163 49.3421 45.6785 49.3421 45.5406L49.4074 45.1378C49.4328 45.0036 49.451 44.8657 49.48 44.7351L49.5961 44.3469L49.7122 43.9623C49.7666 43.8099 49.8174 43.701 49.8646 43.5994C49.9589 43.3781 50.0496 43.1604 50.1222 42.95L50.1948 42.7468L50.2419 42.6089L50.2819 42.4783C50.3073 42.4348 50.3254 42.3332 50.2456 42.3005L50.1041 42.2098C50.0423 42.1706 49.9781 42.1354 49.9118 42.1046C49.7812 42.0429 49.6614 41.9703 49.5489 41.9268C49.3735 41.8516 49.1912 41.7933 49.0047 41.7526C48.8777 41.72 48.6201 41.6329 48.348 41.5749C48.1242 41.5246 47.8937 41.5124 47.6659 41.5386Z" fill="#221F1F"/>
<path d="M39.1026 55.4497C38.9937 55.4025 39.0772 55.2683 39.284 55.0869C39.3879 55.0149 39.5032 54.961 39.6251 54.9272C39.7032 54.9341 39.7808 54.9462 39.8573 54.9635C39.9288 55.0209 39.9967 55.0827 40.0605 55.1486C40.1657 55.2357 40.2709 55.3336 40.3326 55.3772C40.4379 55.4543 40.533 55.5445 40.6156 55.6456C40.7718 55.8256 40.9585 55.9767 41.1671 56.0919C41.2126 56.1171 41.2522 56.1517 41.2832 56.1935C41.3449 56.2608 41.4201 56.3143 41.5039 56.3506C41.5876 56.3868 41.6781 56.405 41.7694 56.404C41.802 56.404 41.8311 56.404 41.8673 56.3822C41.9654 56.3494 42.0689 56.3358 42.1721 56.3423C42.3136 56.3423 42.466 56.3423 42.5023 56.3423C42.692 56.3907 42.887 56.4151 43.0828 56.4148C43.1119 56.4148 43.1336 56.3931 43.1735 56.4148C43.1973 56.4432 43.2298 56.4628 43.2659 56.4707C43.302 56.4786 43.3397 56.4743 43.3731 56.4584C43.4613 56.44 43.5515 56.4327 43.6416 56.4366C43.7019 56.4502 43.7587 56.4761 43.8085 56.5128C43.8584 56.5703 43.8866 56.6435 43.8883 56.7196C43.8883 56.7813 43.9282 56.8394 43.9536 56.901C43.9646 56.9217 43.9731 56.9437 43.979 56.9663C43.8488 57.1605 43.684 57.329 43.4928 57.4634L43.3586 57.5178C43.2824 57.5505 43.1735 57.5832 43.0647 57.6194C42.8506 57.6993 42.6003 57.7501 42.5531 57.7718C42.498 57.78 42.4418 57.7737 42.3898 57.7537C42.3898 57.7537 42.1939 57.7936 41.9943 57.8009C41.8556 57.8144 41.7158 57.8144 41.5771 57.8009C41.4088 57.8003 41.2459 57.7413 41.1163 57.6339C41.0904 57.6131 41.0588 57.6004 41.0256 57.5977C40.8926 57.5567 40.7639 57.5032 40.641 57.438C40.5249 57.3618 40.4088 57.2856 40.2999 57.2022C40.1911 57.1187 40.0677 57.0498 39.9698 56.9555C39.9532 56.9372 39.9397 56.9164 39.9298 56.8938C39.9156 56.8658 39.8972 56.8401 39.8754 56.8176C39.6287 56.6108 39.4763 56.3386 39.2622 56.1246C39.2078 56.0738 39.1425 55.7364 39.0844 55.6819C39.0264 55.6275 39.1461 55.4679 39.1026 55.4497Z" fill="#221F1F"/>
<path d="M53.3686 34.5362C53.5748 34.4776 53.7844 34.4316 53.9963 34.3983C54.1849 34.3693 54.4171 34.3221 54.6784 34.2931C54.9396 34.2641 55.2335 34.2387 55.5492 34.2205C57.098 34.1588 58.6472 34.335 60.1426 34.743C61.7079 35.1538 63.1635 35.9045 64.4058 36.9417C64.6634 37.1739 64.8811 37.4243 65.0879 37.6384C65.2947 37.8524 65.4254 38.0992 65.556 38.2915C65.6658 38.4588 65.7571 38.6377 65.8281 38.8248C65.8768 38.9354 65.9133 39.051 65.937 39.1695C65.9374 39.2126 65.9269 39.2551 65.9065 39.293C65.886 39.3309 65.8562 39.3629 65.8199 39.3862C65.7836 39.4094 65.742 39.423 65.699 39.4257C65.656 39.4284 65.613 39.4202 65.5741 39.4017C65.3093 39.2493 64.7505 38.5055 63.7056 37.8815C62.489 37.1694 61.1502 36.6907 59.758 36.4701C58.4285 36.2541 57.0754 36.2248 55.7378 36.383C55.473 36.4193 55.2335 36.4664 55.0122 36.4991C54.7909 36.5317 54.6276 36.5934 54.4752 36.6261C54.3156 36.6634 54.1581 36.7094 54.0035 36.7639C53.5718 36.8909 52.7191 34.7285 53.3686 34.5362Z" fill="#232020"/>
<path d="M46.8515 34.8119L46.8225 34.7575C46.7813 34.7059 46.7364 34.6574 46.6882 34.6124C46.6186 34.5283 46.5381 34.4538 46.4488 34.391C46.3295 34.29 46.2021 34.1989 46.0678 34.1189C45.2406 33.6356 44.347 33.2762 43.4155 33.0522C42.401 32.7936 41.3651 32.6272 40.3206 32.5551C39.4135 32.4862 38.7495 32.5551 38.5282 32.4898C38.4121 32.4535 38.3032 32.2322 38.4121 32.127C38.9786 31.7899 39.6159 31.5899 40.2734 31.5428C41.4104 31.3959 42.5615 31.3959 43.6985 31.5428C44.8306 31.6733 45.9337 31.9883 46.964 32.4753C47.5201 32.7301 48.015 33.1013 48.4153 33.5638C48.8108 34.1371 46.9458 34.9317 46.8515 34.8119Z" fill="#232020"/>
<path d="M68.5521 41.2778C68.5521 41.3141 68.5303 41.3323 68.5122 41.3395L63.175 42.9831C63.1631 42.9834 63.1514 42.9809 63.1407 42.9759C63.13 42.9709 63.1206 42.9634 63.1133 42.9541C63.124 43.2031 63.1767 43.4484 63.2693 43.6798C63.3231 43.927 63.4201 44.1629 63.5559 44.3764C63.557 44.3641 63.5609 44.3521 63.5671 44.3415C63.5734 44.3308 63.582 44.3217 63.5922 44.3147L63.8099 44.2494L68.9331 42.6711C68.9331 42.6711 68.9693 42.6711 68.9947 42.7001C68.9867 42.4508 68.9338 42.205 68.8387 41.9745C68.7869 41.7266 68.6897 41.4904 68.5521 41.2778Z" fill="#232020"/>
<path d="M40.6365 87.139C40.6946 87.0665 40.7853 87.0374 40.8216 86.9866C40.8579 86.9358 40.8216 86.9685 40.8216 86.9866C40.808 87.0375 40.8019 87.09 40.8035 87.1427C40.786 87.2386 40.786 87.3369 40.8035 87.4329C40.8195 87.5519 40.859 87.6666 40.9196 87.7704C40.9485 87.8311 40.9825 87.8894 41.0211 87.9445C41.0478 88.002 41.0781 88.0578 41.1119 88.1114C41.228 88.3364 41.384 88.5722 41.5182 88.8371C41.5516 88.8963 41.5726 88.9617 41.5799 89.0294C41.6207 89.2681 41.7003 89.4985 41.8157 89.7115C41.8157 89.7478 41.8411 89.7913 41.8919 89.8131C41.9751 89.9275 42.0321 90.0588 42.0588 90.1977C42.0989 90.347 42.122 90.5003 42.1278 90.6548L42.0879 91.0358C42.0697 91.1664 42.048 91.2934 42.0262 91.3986C42.025 91.436 42.0137 91.4724 41.9935 91.5039C41.9482 91.5678 41.9218 91.6433 41.9173 91.7216C41.898 91.8195 41.8663 91.9146 41.823 92.0046C41.8036 92.0459 41.7866 92.0883 41.7722 92.1316C41.7722 92.1497 41.7722 92.1715 41.7722 92.1316C41.7518 92.0392 41.7251 91.9482 41.6924 91.8594C41.6413 91.7633 41.5831 91.6711 41.5182 91.5837C41.5022 91.5443 41.4802 91.5075 41.4529 91.4748L41.3042 91.2571C41.1772 91.1011 41.0574 90.9487 41.0248 90.9161C40.9977 90.8826 40.9802 90.8425 40.974 90.8C40.974 90.8 40.5821 90.3247 40.5749 90.2993C40.5241 90.1868 40.4261 90.0961 40.4551 89.9364C40.4551 89.9074 40.4551 89.8856 40.4334 89.8639C40.3248 89.6573 40.2512 89.4342 40.2157 89.2035C40.1903 89.0838 40.1431 88.9713 40.1213 88.8407C40.1179 88.8166 40.1179 88.7922 40.1213 88.7681C40.1251 88.738 40.1251 88.7075 40.1213 88.6774C40.0976 88.5226 40.0903 88.3657 40.0996 88.2094C40.1138 88.0469 40.1392 87.8857 40.1758 87.7268C40.2081 87.6452 40.2469 87.5664 40.2919 87.491C40.3608 87.4003 40.4334 87.3168 40.4515 87.2805C40.4696 87.2443 40.6148 87.1644 40.6365 87.139Z" fill="#221F1F"/>
<path d="M40.8849 99.8925C40.9321 99.8236 41.0192 99.7946 41.0482 99.7438C41.0409 99.7931 41.0409 99.8432 41.0482 99.8925C41.0383 99.9812 41.0444 100.071 41.0663 100.157C41.0809 100.219 41.1028 100.279 41.1316 100.335L41.2115 100.448C41.2457 100.494 41.2859 100.535 41.3312 100.571C41.3631 100.609 41.397 100.645 41.4328 100.68C41.5779 100.821 41.7593 100.988 41.9516 101.195C41.9922 101.244 42.0241 101.299 42.046 101.358C42.1391 101.58 42.2611 101.789 42.4088 101.979C42.4306 102.011 42.4451 102.055 42.4995 102.07C42.6003 102.17 42.6729 102.295 42.7099 102.432C42.7651 102.577 42.7958 102.731 42.8006 102.886C42.7911 103.13 42.7583 103.373 42.7027 103.612C42.6987 103.647 42.6863 103.68 42.6664 103.709C42.6254 103.768 42.6016 103.837 42.5975 103.909L42.514 104.17C42.4953 104.21 42.4807 104.251 42.4705 104.294C42.4705 104.312 42.4705 104.33 42.4705 104.294C42.4638 104.266 42.4553 104.24 42.4451 104.214L42.3725 104.047C42.3282 103.953 42.2708 103.867 42.202 103.789C42.202 103.789 42.1657 103.746 42.133 103.691C42.0929 103.62 42.0441 103.555 41.9879 103.495C41.9085 103.393 41.8185 103.299 41.7194 103.216C41.7063 103.204 41.6956 103.189 41.6881 103.173C41.6807 103.157 41.6765 103.14 41.6759 103.122C41.6759 103.104 41.284 102.759 41.2731 102.759C41.2223 102.672 41.1135 102.614 41.128 102.472C41.1267 102.449 41.1163 102.427 41.099 102.411C40.968 102.25 40.8628 102.07 40.7869 101.877C40.7398 101.772 40.6708 101.678 40.6237 101.572C40.6199 101.547 40.6199 101.521 40.6237 101.496C40.6233 101.466 40.6171 101.437 40.6055 101.409C40.4897 101.112 40.4522 100.789 40.4967 100.473C40.5221 100.39 40.5549 100.31 40.5946 100.234C40.6491 100.169 40.7 100.101 40.747 100.03C40.7398 100.005 40.8668 99.9216 40.8849 99.8925Z" fill="#221F1F"/>
<path d="M60.1431 65.1302C61.6234 62.1513 63.4339 58.7299 63.7714 55.3338C63.8403 54.6662 63.8294 54.082 63.0276 54.0675C61.7867 54.0494 60.6438 56.0558 60.1249 56.9157C59.8311 57.4055 60.8978 57.4055 61.13 57.0246C61.1626 56.9701 62.5813 54.7424 62.8607 54.9165C62.6466 54.7823 62.6974 55.4825 62.6611 55.7365C62.505 56.5981 62.2855 57.447 62.0044 58.2763C61.2328 60.5991 60.2755 62.8559 59.1417 65.0249C58.8841 65.551 59.9435 65.5402 60.1431 65.1338V65.1302Z" fill="#221F1F"/>
<path d="M31.4111 78.4033C31.6107 78.4867 31.0483 78.8822 31.0483 78.7008C31.0483 78.5194 30.504 78.5303 30.6855 78.4214C30.8669 78.3126 30.827 78.0586 31.0483 78.0586C31.2696 78.0586 31.1317 78.2872 31.4111 78.4033Z" fill="#060606"/>
<path d="M31.7746 81.8311C31.5641 81.7875 32.0358 81.2941 32.0721 81.4682C32.1084 81.6424 32.6381 81.5299 32.4748 81.675C32.3115 81.8202 32.4059 82.0705 32.1954 82.1104C31.985 82.1503 32.0503 81.8891 31.7746 81.8311Z" fill="#060606"/>
<path d="M32.6904 76.9689C32.89 77.0487 32.3276 77.4442 32.3276 77.2628C32.3276 77.0814 31.7833 77.0959 31.9648 76.9834C32.1462 76.871 32.1063 76.6206 32.3276 76.6206C32.5489 76.6206 32.4147 76.8528 32.6904 76.9689Z" fill="#060606"/>
<path d="M32.5036 80.0568C32.5435 80.2237 32.0355 80.0568 32.1407 79.9661C32.246 79.8754 31.9992 79.5416 32.1407 79.6033C32.2823 79.6649 32.4455 79.5198 32.5435 79.6577C32.6415 79.7956 32.4419 79.8282 32.5036 80.0568Z" fill="#060606"/>
<path d="M29.9294 80.5108C30.0455 80.3838 30.187 80.9027 30.0528 80.8555C29.9185 80.8083 29.7806 81.2183 29.7516 81.0478C29.7226 80.8773 29.5085 80.841 29.5666 80.685C29.6246 80.5289 29.7698 80.6922 29.9294 80.5108Z" fill="#060606"/>
<path d="M28.8764 79.7775C28.9127 79.9444 28.4084 79.7557 28.5136 79.6759C28.6188 79.5961 28.383 79.2442 28.5354 79.3131C28.6878 79.382 28.8438 79.2405 28.9381 79.382C29.0324 79.5235 28.8329 79.5453 28.8764 79.7775Z" fill="#060606"/>
<path d="M34.0078 81.6351C34.1675 81.7004 33.7248 81.9979 33.7248 81.8673C33.7248 81.7366 33.2967 81.7367 33.4455 81.6496C33.5942 81.5625 33.5543 81.3521 33.7248 81.3521C33.8954 81.3521 33.7901 81.5443 34.0078 81.6351Z" fill="#060606"/>
<path d="M31.5394 83.9039C31.6954 83.9692 31.2564 84.2667 31.2564 84.1397C31.2564 84.0127 30.8283 84.0055 30.9734 83.9184C31.1185 83.8313 31.0859 83.6245 31.2564 83.6245C31.4269 83.6245 31.3217 83.8132 31.5394 83.9039Z" fill="#060606"/>
<path d="M29.2782 83.2933C29.2565 83.4639 28.8392 83.1228 28.9771 83.0829C29.115 83.043 28.9771 82.6366 29.115 82.7527C29.2528 82.8688 29.4306 82.7854 29.4778 82.9486C29.525 83.1119 29.3073 83.0611 29.2782 83.2933Z" fill="#060606"/>
<path d="M25.3145 77.6048C25.4233 77.7935 25.7426 77.1875 25.5612 77.2093C25.3798 77.2311 25.3217 76.6941 25.2383 76.8937C25.1294 77.1476 24.8754 77.0823 24.9117 77.2964C24.948 77.5105 25.1657 77.3436 25.3145 77.6048Z" fill="#060606"/>
<path d="M25.8352 78.8788C26.0057 78.8969 25.7663 78.4143 25.6973 78.5413C25.6284 78.6683 25.2583 78.4506 25.3345 78.5994C25.4107 78.7482 25.291 78.9114 25.4433 78.9912C25.5957 79.0711 25.6066 78.8352 25.8352 78.8788Z" fill="#060606"/>
<path d="M27.212 75.8592C27.1031 75.9898 27.6365 76.0624 27.5748 75.9354C27.5131 75.8084 27.8941 75.6198 27.7272 75.6125C27.5603 75.6052 27.4913 75.3984 27.339 75.4783C27.1866 75.5581 27.3644 75.6778 27.212 75.8592Z" fill="#060606"/>
<path d="M33.6901 84.5743C33.8497 84.6396 33.4107 84.9371 33.4107 84.8101C33.4107 84.6832 32.9826 84.6759 33.1277 84.5888C33.2728 84.5017 33.2402 84.2949 33.4107 84.2949C33.5812 84.2949 33.4724 84.4872 33.6901 84.5743Z" fill="#060606"/>
<path d="M39.1779 82.6038C39.3448 82.5748 39.1344 83.0719 39.0618 82.9667C38.9893 82.8614 38.6264 83.0791 38.699 82.9268C38.7716 82.7744 38.6409 82.6183 38.7824 82.5276C38.9239 82.4369 38.9421 82.6437 39.1779 82.6038Z" fill="#060606"/>
<path d="M41.3823 82.3646C41.5528 82.3355 41.3424 82.8326 41.2662 82.7274C41.19 82.6222 40.8344 82.8399 40.9033 82.6875C40.9723 82.5351 40.8453 82.3791 40.9868 82.2884C41.1283 82.1977 41.1501 82.4045 41.3823 82.3646Z" fill="#060606"/>
<path d="M34.5119 80.6447C34.6352 80.6955 34.2906 80.9422 34.2906 80.8297C34.2906 80.7172 33.9531 80.7245 34.0692 80.6555C34.1853 80.5866 34.1563 80.4233 34.2906 80.4233C34.4248 80.4233 34.3414 80.5757 34.5119 80.6447Z" fill="#060606"/>
<path d="M37.7072 85.3688C37.8306 85.4196 37.4859 85.6627 37.4859 85.5538C37.4859 85.445 37.1484 85.4486 37.2645 85.3797C37.3807 85.3107 37.3516 85.1475 37.4859 85.1475C37.6201 85.1475 37.5367 85.2999 37.7072 85.3688Z" fill="#060606"/>
<path d="M35.8068 83.4098C35.9302 83.4606 35.5855 83.7037 35.5855 83.5948C35.5855 83.486 35.2481 83.4896 35.3642 83.4207C35.4803 83.3517 35.4512 83.1885 35.5855 83.1885C35.7197 83.1885 35.6363 83.3409 35.8068 83.4098Z" fill="#060606"/>
<path d="M35.2303 86.4978C35.2739 86.6247 34.8675 86.5232 34.9473 86.4506C35.0272 86.378 34.8095 86.1277 34.9473 86.1676C35.0852 86.2075 35.1795 86.0841 35.2666 86.1857C35.3537 86.2873 35.1723 86.3091 35.2303 86.4978Z" fill="#060606"/>
<path d="M31.4139 86.4978C31.4538 86.6247 31.0511 86.5232 31.1309 86.4506C31.2108 86.378 30.9931 86.1277 31.1309 86.1676C31.2688 86.2075 31.3631 86.0841 31.4502 86.1857C31.5373 86.2873 31.345 86.3091 31.4139 86.4978Z" fill="#060606"/>
<path d="M26.9139 82.0491C26.9575 82.1761 26.5511 82.0745 26.6309 82.0019C26.7108 81.9293 26.4931 81.679 26.6309 81.7225C26.7688 81.7661 26.8631 81.6391 26.9502 81.7407C27.0373 81.8423 26.8559 81.8749 26.9139 82.0491Z" fill="#060606"/>
<path d="M34.5898 79.523C34.51 79.6282 34.3612 79.2363 34.4701 79.2654C34.5789 79.2944 34.6551 78.9642 34.6914 79.0912C34.7277 79.2182 34.8946 79.2363 34.8583 79.3633C34.822 79.4903 34.7023 79.3742 34.5898 79.523Z" fill="#060606"/>
<path d="M36.4648 79.523C36.385 79.6282 36.2362 79.2363 36.3451 79.2654C36.4539 79.2944 36.5301 78.9642 36.5664 79.0912C36.6027 79.2182 36.7696 79.2363 36.7333 79.3633C36.697 79.4903 36.5773 79.3742 36.4648 79.523Z" fill="#060606"/>
<path d="M33.7033 77.9381C33.8267 77.9889 33.482 78.232 33.482 78.1232C33.482 78.0143 33.1445 78.018 33.2606 77.949C33.3767 77.8801 33.3477 77.7168 33.482 77.7168C33.6162 77.7168 33.5291 77.8692 33.7033 77.9381Z" fill="#060606"/>
<path d="M36.6857 81.3454C36.6857 81.4796 36.3228 81.2402 36.4389 81.2003C36.555 81.1604 36.4208 80.8374 36.526 80.9354C36.6312 81.0334 36.7727 80.9354 36.8163 81.0624C36.8598 81.1894 36.6929 81.1604 36.6857 81.3454Z" fill="#060606"/>
<path d="M39.1564 80.9245C39.2798 80.9753 38.9351 81.222 38.9351 81.1095C38.9351 80.997 38.5977 81.0043 38.7138 80.9353C38.8299 80.8664 38.8008 80.7031 38.9351 80.7031C39.0693 80.7031 38.9859 80.8555 39.1564 80.9245Z" fill="#060606"/>
<path d="M62.479 81.0002C62.2649 81.0329 62.7185 81.5481 62.7584 81.3631C62.7983 81.178 63.328 81.3232 63.172 81.1744C63.016 81.0256 63.1212 80.7753 62.9108 80.7281C62.7003 80.681 62.7765 80.9531 62.479 81.0002Z" fill="#060606"/>
<path d="M61.3472 84.2549C61.5649 84.2549 61.2166 83.6707 61.144 83.8376C61.0714 84.0045 60.578 83.765 60.7013 83.9428C60.8247 84.1206 60.6759 84.3419 60.8719 84.4326C61.0678 84.5233 61.046 84.244 61.3472 84.2549Z" fill="#060606"/>
<path d="M61.5692 79.3058C61.3551 79.3421 61.805 79.8537 61.8486 79.6686C61.8921 79.4836 62.4182 79.6287 62.2622 79.48C62.1062 79.3312 62.2114 79.0809 62.0009 79.0301C61.7905 78.9793 61.8631 79.2586 61.5692 79.3058Z" fill="#060606"/>
<path d="M61.0418 82.3569C60.9656 82.5093 61.499 82.4585 61.4046 82.3569C61.3103 82.2553 61.6441 81.976 61.4736 81.9941C61.303 82.0122 61.1978 81.8417 61.0672 81.9542C60.9366 82.0667 61.1652 82.1429 61.0418 82.3569Z" fill="#060606"/>
<path d="M63.4326 83.3948C63.3492 83.246 63.0916 83.7177 63.2331 83.6996C63.3746 83.6814 63.4145 84.1132 63.4834 83.9572C63.5524 83.8011 63.7628 83.812 63.7446 83.6415C63.7265 83.471 63.5451 83.5943 63.4326 83.3948Z" fill="#060606"/>
<path d="M64.6228 82.9229C64.5502 83.0789 65.0872 83.01 64.9856 82.9229C64.884 82.8358 65.2106 82.5347 65.0437 82.5601C64.8768 82.5855 64.7643 82.4186 64.6373 82.5311C64.5103 82.6435 64.7244 82.7088 64.6228 82.9229Z" fill="#060606"/>
<path d="M59.2026 83.544C59.0357 83.5694 59.3912 83.9721 59.4239 83.8342C59.4565 83.6964 59.8738 83.8052 59.7504 83.6855C59.6271 83.5658 59.7105 83.3735 59.5436 83.3227C59.3767 83.2719 59.4384 83.5041 59.2026 83.544Z" fill="#060606"/>
<path d="M61.0795 86.3233C60.9126 86.3487 61.2682 86.7514 61.3008 86.6135C61.3335 86.4757 61.7507 86.5845 61.6274 86.4648C61.504 86.345 61.5875 86.1528 61.4206 86.102C61.2537 86.0512 61.3153 86.2834 61.0795 86.3233Z" fill="#060606"/>
<path d="M63.4185 86.2541C63.4185 86.421 63.8829 86.1852 63.7596 86.1163C63.6362 86.0473 63.8503 85.6772 63.7015 85.7534C63.5527 85.8296 63.3895 85.7099 63.306 85.8587C63.2226 86.0074 63.4439 86.0183 63.4185 86.2541Z" fill="#060606"/>
<path d="M68.5969 81.6357C68.4481 81.7953 68.2776 81.1313 68.4481 81.1966C68.6187 81.2619 68.811 80.7503 68.8364 80.9608C68.8835 81.2365 69.1339 81.2293 69.0577 81.4288C68.9815 81.6284 68.7856 81.418 68.5969 81.6357Z" fill="#060606"/>
<path d="M67.7957 82.7382C67.6288 82.7164 67.9698 82.2992 68.0098 82.4371C68.0497 82.5749 68.456 82.4552 68.3399 82.5786C68.2238 82.7019 68.3073 82.8906 68.144 82.9414C67.9807 82.9922 68.0315 82.7672 67.7957 82.7382Z" fill="#060606"/>
<path d="M67.1546 79.498C67.2308 79.6504 66.6938 79.5996 66.7917 79.498C66.8897 79.3964 66.5523 79.117 66.7228 79.1351C66.8933 79.1533 66.9985 78.9864 67.1292 79.0952C67.2598 79.2041 67.0493 79.2875 67.1546 79.498Z" fill="#060606"/>
<path d="M68.2182 78.7803C68.0513 78.7512 68.4069 78.3485 68.4395 78.49C68.4722 78.6315 68.8894 78.5227 68.7661 78.6388C68.6427 78.7549 68.7225 78.9508 68.5556 79.0016C68.3887 79.0524 68.4504 78.8166 68.2182 78.7803Z" fill="#060606"/>
<path d="M64.7929 77.8985C64.6441 77.8186 65.1122 77.5356 65.0977 77.6917C65.0832 77.8477 65.5113 77.8658 65.3553 77.9384C65.1993 78.011 65.2174 78.2214 65.0469 78.2069C64.8764 78.1924 64.9961 78.0073 64.7929 77.8985Z" fill="#060606"/>
<path d="M58.8312 86.4746C58.6607 86.5 59.0162 86.9063 59.0525 86.7685C59.0888 86.6306 59.4988 86.7358 59.3754 86.6197C59.2521 86.5036 59.3355 86.304 59.1686 86.2569C59.0017 86.2097 59.0634 86.4383 58.8312 86.4746Z" fill="#060606"/>
<path d="M58.9465 82.4629C58.8122 82.4847 59.0916 82.8003 59.117 82.6915C59.1424 82.5826 59.4798 82.6697 59.371 82.5754C59.2621 82.481 59.3419 82.3323 59.2113 82.2996C59.0807 82.267 59.1279 82.4339 58.9465 82.4629Z" fill="#060606"/>
<path d="M57.0461 84.8532C56.9118 84.8532 57.1912 85.1907 57.2166 85.0818C57.242 84.973 57.5794 85.0564 57.4706 84.9657C57.3617 84.875 57.4416 84.719 57.3109 84.69C57.1803 84.6609 57.2275 84.8242 57.0461 84.8532Z" fill="#060606"/>
<path d="M56.9418 87.6655C56.8365 87.7417 56.9926 87.8179 56.8946 87.9739C56.7966 88.13 57.2574 88.0828 57.1812 87.9921" fill="#060606"/>
<path d="M60.613 88.8624C60.544 88.9749 60.9758 88.9713 60.8996 88.8806C60.8234 88.7899 61.11 88.5976 60.9794 88.6121C60.8488 88.6266 60.7726 88.4742 60.6637 88.554C60.5549 88.6338 60.7109 88.7028 60.613 88.8624Z" fill="#060606"/>
<path d="M66.0082 85.5899C65.9356 85.7024 66.371 85.6987 66.2948 85.608C66.2186 85.5173 66.5053 85.3287 66.371 85.3395C66.2368 85.3504 66.1642 85.2053 66.0554 85.2815C65.9465 85.3577 66.1025 85.4339 66.0082 85.5899Z" fill="#060606"/>
<path d="M59.1332 81.353C59.184 81.4764 59.4235 81.128 59.311 81.1317C59.1985 81.1353 59.1985 80.7979 59.1332 80.914C59.0679 81.0301 58.9046 81.0047 58.9083 81.1389C58.9119 81.2732 59.057 81.1861 59.1332 81.353Z" fill="#060606"/>
<path d="M57.3051 80.9165C57.3559 81.0398 57.5954 80.6915 57.4829 80.6951C57.3704 80.6988 57.3704 80.3613 57.3051 80.4774C57.2398 80.5936 57.0765 80.5682 57.0801 80.7024C57.0838 80.8366 57.2289 80.7496 57.3051 80.9165Z" fill="#060606"/>
<path d="M60.3592 80.0171C60.2285 80.0389 60.5043 80.3545 60.5297 80.2457C60.5551 80.1368 60.8925 80.2239 60.7873 80.1296C60.6821 80.0352 60.7547 79.8865 60.624 79.8538C60.4934 79.8212 60.5406 79.9881 60.3592 80.0171Z" fill="#060606"/>
<path d="M56.6599 82.6364C56.6345 82.767 57.0228 82.6147 56.9357 82.553C56.8486 82.4913 57.0337 82.2155 56.9139 82.2736C56.7942 82.3317 56.6708 82.2192 56.5983 82.3317C56.5257 82.4441 56.6962 82.455 56.6599 82.6364Z" fill="#060606"/>
</g>
<defs>
<clipPath id="clip0_248_14355">
<rect x="0.605469" y="0.80957" width="102.736" height="102.736" rx="51.3679" fill="white"/>
</clipPath>
</defs>
</svg>
