<svg width="44" height="44" viewBox="0 0 44 44" fill="none" xmlns="http://www.w3.org/2000/svg">
<g filter="url(#filter0_d_248_14345)">
<rect x="8" y="6.61035" width="28.1468" height="28.1468" rx="7.0367" fill="black"/>
<path d="M17.9906 15.2114C17.9904 15.6261 17.8346 16.0237 17.5576 16.3168C17.2805 16.6099 16.9048 16.7744 16.5131 16.7742C16.1215 16.774 15.7459 16.6091 15.4691 16.3157C15.1923 16.0223 15.0369 15.6245 15.0371 15.2098C15.0373 14.7951 15.1931 14.3975 15.4702 14.1044C15.7472 13.8113 16.1229 13.6468 16.5146 13.647C16.9063 13.6472 17.2818 13.8121 17.5586 14.1055C17.8354 14.3989 17.9908 14.7967 17.9906 15.2114ZM18.0349 17.9321H15.0814V27.7204H18.0349V17.9321ZM22.7014 17.9321H19.7627V27.7204H22.6719V22.5839C22.6719 19.7224 26.1939 19.4566 26.1939 22.5839V27.7204H29.1105V21.5206C29.1105 16.6968 23.8976 16.8766 22.6719 19.2455L22.7014 17.9321Z" fill="white"/>
</g>
<defs>
<filter id="filter0_d_248_14345" x="0.681296" y="0.462641" width="42.7839" height="42.7844" filterUnits="userSpaceOnUse" color-interpolation-filters="sRGB">
<feFlood flood-opacity="0" result="BackgroundImageFix"/>
<feColorMatrix in="SourceAlpha" type="matrix" values="0 0 0 0 0 0 0 0 0 0 0 0 0 0 0 0 0 0 127 0" result="hardAlpha"/>
<feOffset dy="1.17099"/>
<feGaussianBlur stdDeviation="3.65935"/>
<feComposite in2="hardAlpha" operator="out"/>
<feColorMatrix type="matrix" values="0 0 0 0 0.0862745 0 0 0 0 0.0901961 0 0 0 0 0.0980392 0 0 0 0.1 0"/>
<feBlend mode="normal" in2="BackgroundImageFix" result="effect1_dropShadow_248_14345"/>
<feBlend mode="normal" in="SourceGraphic" in2="effect1_dropShadow_248_14345" result="shape"/>
</filter>
</defs>
</svg>
