<svg width="104" height="104" viewBox="0 0 104 104" fill="none" xmlns="http://www.w3.org/2000/svg">
<g clip-path="url(#clip0_248_14340)">
<rect x="0.587891" y="0.80957" width="102.736" height="102.736" rx="51.3679" fill="#F7F6F3"/>
<path d="M52.3727 52.1996C53.8892 52.0732 54.6423 53.4431 53.1663 53.8272C51.5387 54.2468 51.2657 51.8255 52.3727 52.1996Z" fill="#221F1F"/>
<path d="M52.6481 53.2616C52.8365 53.3359 53.046 53.3359 53.2344 53.2616C53.2883 53.236 53.3406 53.2073 53.3911 53.1756C53.5125 53.1403 53.6287 52.9734 53.3911 52.7561C53.2861 52.6576 53.1541 52.5925 53.012 52.5691C52.8124 52.5703 52.6135 52.5448 52.4206 52.4932C52.36 52.4629 52.3398 52.2405 52.3954 52.0181C52.451 51.7957 52.5824 51.5632 52.7593 51.5783C53.0838 51.5797 53.4025 51.665 53.6843 51.826C53.8397 51.9139 53.9783 52.0286 54.0937 52.1647C54.2373 52.3219 54.3337 52.5163 54.3717 52.7258C54.4286 52.9653 54.4072 53.2167 54.3108 53.4432C54.2144 53.6697 54.048 53.8593 53.8359 53.9844C53.7399 54.0349 53.6388 54.0754 53.5428 54.1158L53.2547 54.1866C53.0487 54.2196 52.8389 54.2196 52.6329 54.1866C52.5023 54.1662 52.3748 54.1288 52.2538 54.0754C52.1369 54.0148 52.0267 53.942 51.9253 53.858C51.6439 53.5904 51.4651 53.2327 51.4198 52.8471C51.3991 52.6928 51.3991 52.5364 51.4198 52.382C51.4321 52.2918 51.4559 52.2034 51.4906 52.1192C51.5378 52.0192 51.6049 51.9297 51.6877 51.8563C51.7632 51.8163 51.8455 51.7906 51.9303 51.7805C52.0074 51.7692 52.0857 51.7692 52.1628 51.7805C52.2099 51.7882 52.2538 51.8092 52.2892 51.8412C52.3199 51.8788 52.3418 51.9229 52.3532 51.9702C52.3646 52.0174 52.3652 52.0666 52.3549 52.1141C52.3549 52.1697 52.3549 52.2253 52.3549 52.281C52.3164 52.4207 52.2473 52.5502 52.1527 52.6601C52.1579 52.635 52.1579 52.6092 52.1527 52.5842C52.1527 52.5842 52.365 52.7056 52.3296 52.7005C52.3453 52.7884 52.369 52.8747 52.4004 52.9583C52.4218 53.0232 52.4561 53.0831 52.5013 53.1343C52.5465 53.1856 52.6016 53.2271 52.6633 53.2565L52.6481 53.2616Z" fill="#221F1F"/>
<path d="M63.9882 53.3538C65.5047 53.2325 66.2629 54.5973 64.7818 54.9815C63.1593 55.4061 62.8863 52.9849 63.9882 53.3538Z" fill="#221F1F"/>
<path d="M64.2724 54.415C64.459 54.4895 64.6671 54.4895 64.8537 54.415C64.9091 54.3912 64.9631 54.3642 65.0154 54.3341C65.1367 54.2987 65.2479 54.1269 65.0154 53.9146C64.9091 53.815 64.7752 53.7498 64.6313 53.7276C64.4332 53.7245 64.2363 53.6973 64.0449 53.6467C63.9792 53.6164 63.964 53.3939 64.0146 53.1715C64.0651 52.9491 64.2016 52.7217 64.3836 52.7318C64.7061 52.7364 65.0223 52.8215 65.3035 52.9794C65.4603 53.0675 65.5991 53.1841 65.713 53.3232C65.8573 53.4778 65.9539 53.6709 65.991 53.8792C66.049 54.1194 66.0282 54.372 65.9317 54.5995C65.8352 54.827 65.6682 55.0175 65.4552 55.1429C65.3597 55.1901 65.2619 55.2323 65.162 55.2692L64.8789 55.3451C64.673 55.378 64.4631 55.378 64.2572 55.3451C64.1255 55.3245 63.9966 55.2889 63.873 55.2389C63.7549 55.1784 63.6446 55.1037 63.5445 55.0165C63.2631 54.7489 63.0843 54.3912 63.039 54.0056C63.0182 53.8512 63.0182 53.6948 63.039 53.5405C63.052 53.4504 63.0757 53.3622 63.1098 53.2777C63.1583 53.1784 63.2252 53.0892 63.3069 53.0148C63.3847 52.9463 63.476 52.8946 63.5748 52.8632C63.6524 52.8435 63.7324 52.835 63.8124 52.8379C63.8581 52.8481 63.9001 52.8709 63.9337 52.9036C63.9658 52.9395 63.9886 52.9826 64 53.0294C64.0115 53.0761 64.0113 53.1249 63.9994 53.1715C64.0043 53.2287 64.0043 53.2862 63.9994 53.3434C63.9589 53.4798 63.892 53.6069 63.8023 53.7174C63.8023 53.7629 63.8023 53.7174 63.8023 53.7174C63.8068 53.6924 63.8068 53.6667 63.8023 53.6416C63.8023 53.6416 64.0146 53.7629 63.9792 53.7629C63.9981 53.8484 64.0217 53.9328 64.05 54.0157C64.0707 54.0815 64.1048 54.1424 64.15 54.1945C64.1952 54.2467 64.2506 54.289 64.3128 54.319L64.2724 54.415Z" fill="#221F1F"/>
<path d="M61.9521 78.4694C61.3388 78.9088 60.6774 79.2769 59.9807 79.5662C59.6376 79.7136 59.2866 79.8419 58.9293 79.9504C58.5704 80.0565 58.2014 80.1324 57.8375 80.2183C56.3503 80.513 54.8125 80.4243 53.3691 79.9605C52.3386 79.6172 51.3631 79.1269 50.4727 78.5047C48.9776 77.3825 47.6618 76.0394 46.5705 74.5216C45.4919 73.0375 44.5206 71.4784 43.664 69.8561C42.9007 68.4256 42.1779 66.9698 41.4904 65.5241C41.0507 64.5941 40.6109 63.6589 40.1914 62.7238C39.7718 61.7887 39.3775 60.8283 38.9479 59.969C38.8114 59.7112 38.8013 59.5899 38.8872 59.514C38.9732 59.4382 39.1804 59.4787 39.4433 59.6505C40.1878 60.2446 40.7659 61.0213 41.1214 61.9049C42.8249 65.7263 44.4727 69.5275 46.7423 73.0254C48.0765 75.1519 49.8865 76.9395 52.0296 78.2469C53.1968 78.9227 54.513 79.2995 55.8611 79.3438C57.2193 79.3621 58.5645 79.0771 59.7987 78.5098C61.3318 77.7994 62.6449 76.6888 63.5999 75.295C65.086 73.1821 65.915 70.6294 66.5519 68.1122C67.0573 66.1408 67.3657 64.1644 67.76 62.183C67.8459 61.7432 67.9217 61.3135 68.0228 60.8738C68.3867 59.2461 68.6092 58.7457 68.9781 58.4778C69.0567 58.4111 69.1413 58.3519 69.2309 58.3009C69.4887 58.2099 69.4786 58.9075 69.2309 60.0903C68.5434 63.6286 67.9824 67.3792 66.7692 71.1096C66.3244 72.5205 65.7225 73.877 64.9748 75.1534C64.1985 76.4653 63.1673 77.6082 61.9419 78.5148L61.9521 78.4694Z" fill="#221F1F"/>
<path d="M30.9128 54.4299C30.754 54.1494 30.6171 53.857 30.5034 53.5554C30.4427 53.4037 30.382 53.2572 30.3315 53.1055L30.2001 52.6354C30.1203 52.3212 30.0612 52.0021 30.0232 51.6801C30.0232 51.5183 30.0232 51.3515 30.0232 51.1746C30.0053 51.0066 30.0053 50.8371 30.0232 50.6691C30.0326 50.4204 30.0665 50.1732 30.1243 49.9311C30.1243 49.8098 30.1748 49.6835 30.2102 49.5621L30.3669 49.2134C30.5593 48.7959 30.8396 48.4249 31.1885 48.1257C31.5375 47.8265 31.9469 47.6061 32.3888 47.4796C33.2236 47.2616 34.1049 47.3021 34.9162 47.5958C35.6054 47.8157 36.2492 48.1582 36.8167 48.6068L37.0897 48.8292C37.1756 48.905 37.2565 48.996 37.3374 49.0769L37.5851 49.3397L37.7923 49.6329C37.8605 49.732 37.923 49.8349 37.9793 49.9412L38.1158 50.285C38.1994 50.5154 38.2455 50.7577 38.2523 51.0027C38.2523 51.3111 37.9642 51.2706 37.6255 51.119C37.4487 51.0403 37.2795 50.9456 37.12 50.8359C36.954 50.7431 36.8148 50.609 36.7156 50.4467C36.3191 49.8508 35.7831 49.3606 35.1542 49.0188C34.5252 48.677 33.8223 48.494 33.1066 48.4855C32.6811 48.5226 32.279 48.6962 31.9602 48.9804C31.6414 49.2645 31.4229 49.6441 31.3374 50.0626C31.1018 51.1 31.2173 52.1863 31.666 53.151C31.9242 53.7904 32.2806 54.3856 32.7224 54.9151C33.3935 55.7178 34.2342 56.3618 35.1841 56.8005C35.5513 56.9595 35.9342 57.0798 36.3264 57.1594L36.9128 57.2757L37.5092 57.3313L38.0147 57.3768C38.6718 57.3768 38.869 57.493 39.0257 57.8165C39.0631 57.8865 39.0952 57.9592 39.1217 58.0339C39.1925 58.2664 38.9044 58.4838 38.3685 58.5394C36.6731 58.6514 34.9873 58.2078 33.5665 57.2757C32.4709 56.5607 31.5626 55.5935 30.9178 54.4551L30.9128 54.4299Z" fill="#221F1F"/>
<path d="M32.6738 26.5579C34.7412 25.1931 36.8844 24.1771 39.245 25.274C45.5786 28.1906 39.5988 48.45 35.4691 47.8384C31.8701 47.3329 30.3183 46.691 29.9089 50.669C22.2914 45.1391 28.2509 29.4694 32.6738 26.5579Z" fill="#221F1F"/>
<path d="M29.3361 48.9915C29.3361 48.9915 29.3866 49.0572 29.4018 49.0471C29.4091 49.0093 29.4192 48.9722 29.4321 48.9359C29.4321 48.9359 29.4321 48.9359 29.4321 48.8753C29.4321 48.8146 29.4928 48.663 29.5433 48.5467C29.6325 48.3105 29.7478 48.085 29.8871 47.8744C30.1906 47.384 30.658 47.0169 31.2064 46.8382C31.6774 46.7037 32.1686 46.654 32.6571 46.6916C33.5315 46.7523 34.2999 46.909 35.0732 47.0353L35.3614 47.0808L35.5029 47.1061H35.5737H35.609C35.7049 47.1174 35.802 47.1052 35.8921 47.0707C36.1659 46.968 36.4155 46.8096 36.6251 46.6057C37.4248 45.7539 38.0773 44.7751 38.556 43.7093C39.501 41.7739 40.2282 39.7395 40.7245 37.6436C41.2601 35.5464 41.52 33.3884 41.4978 31.2241C41.4852 30.2833 41.3475 29.3484 41.0884 28.444C40.8636 27.5826 40.3992 26.8026 39.7489 26.1946C39.5441 26.0207 39.3162 25.8761 39.0716 25.7649C38.8176 25.6557 38.5557 25.5662 38.2881 25.497C37.7478 25.3617 37.1861 25.3342 36.6352 25.4162C35.484 25.6419 34.3818 26.0697 33.3799 26.6799C32.7177 27.0539 32.5964 26.7152 32.9755 26.0682C33.2481 25.6481 33.5899 25.2772 33.9865 24.9714C34.5575 24.5157 35.2247 24.1959 35.9376 24.0362C36.6766 23.871 37.4407 23.8521 38.187 23.9806C38.9497 24.1137 39.6763 24.4047 40.3201 24.8349C40.9562 25.2925 41.4756 25.8933 41.8365 26.5889C42.1715 27.2259 42.4165 27.9064 42.5644 28.6108C42.8383 29.9401 42.9284 31.3007 42.8323 32.6546C42.75 33.9723 42.5675 35.2819 42.2864 36.572C41.9501 38.1297 41.5317 39.6685 41.0328 41.1819C40.5333 42.728 39.8725 44.2172 39.0614 45.6251C38.5978 46.4393 38.0016 47.1704 37.2973 47.7885C36.8723 48.1589 36.3421 48.3869 35.7809 48.4405C35.6322 48.4483 35.483 48.4399 35.3361 48.4153L35.0126 48.3597L34.3706 48.2535C33.5773 48.081 32.7661 48.0046 31.9545 48.0261C31.2569 48.1069 30.9182 48.5315 30.6655 49.406C30.5037 50.1137 30.4128 50.8668 30.3167 51.5745C30.251 51.5745 30.1145 51.4633 29.9983 51.3672L29.6343 51.069C29.3898 50.8773 29.1553 50.6731 28.9317 50.4574C28.7144 50.24 28.4768 50.0277 28.2746 49.8154L27.8551 49.31C27.3362 48.6009 26.9177 47.8235 26.6116 46.9999C26.0568 45.4231 25.7963 43.7577 25.8433 42.0867C25.875 40.4485 26.0817 38.8183 26.46 37.2241C26.988 34.7644 27.8377 32.3851 28.9873 30.1474C29.1137 29.8997 29.2451 29.6419 29.3867 29.4195C29.5282 29.1971 29.6697 28.9141 29.8264 28.7068C31.0143 26.968 31.727 26.599 32.283 26.604C32.4099 26.5959 32.5374 26.6044 32.6621 26.6293C32.9654 26.781 32.4144 27.3117 31.6006 28.444C30.3654 30.2272 29.3838 32.1733 28.684 34.2266C27.9226 36.3239 27.4333 38.5102 27.2283 40.7321C27.1626 41.5493 27.1525 42.3701 27.1979 43.1887C27.2489 43.9934 27.3724 44.7919 27.5669 45.5745C27.7711 46.3343 28.0682 47.0661 28.4515 47.7531C28.6471 48.0867 28.8685 48.4044 29.1137 48.7034L29.2856 48.9258V48.9561L29.3361 48.9915Z" fill="#221F1F"/>
<path d="M42.5312 24.1417C43.5877 19.3346 75.1799 6.11139 84.9456 23.4239C88.6306 29.9597 85.1832 39.1442 74.9676 41.9142C61.7191 45.503 44.265 32.1231 42.5312 24.1417Z" fill="#221F1F"/>
<path d="M78.1433 39.8155C79.3551 39.2128 80.4834 38.4549 81.4997 37.5611C82.0064 37.1184 82.4795 36.6386 82.915 36.1256C83.1273 35.8678 83.3143 35.5898 83.5165 35.3219L83.8147 34.9124L84.0624 34.4727C84.7535 33.324 85.2264 32.0576 85.4575 30.7372C85.5282 30.4039 85.5755 30.0661 85.5991 29.7263L85.6496 28.7153C85.6361 28.0477 85.5617 27.3828 85.4272 26.7288C85.3716 26.4912 85.3463 26.2486 85.2705 26.0161L85.038 25.3236C84.8752 24.8643 84.6775 24.4182 84.4466 23.9891C83.3834 21.98 81.8936 20.2278 80.0818 18.8552C78.27 17.4825 76.1799 16.5227 73.958 16.0431C70.4412 15.2249 66.8049 15.0536 63.2268 15.5376C60.0276 15.928 56.8813 16.6705 53.8452 17.7516C51.9072 18.4294 50.0203 19.2453 48.199 20.193C47.2941 20.65 46.415 21.1562 45.5655 21.7094C44.7304 22.2224 43.9744 22.8542 43.3212 23.5847C42.9673 24.0245 42.8966 24.1863 42.75 24.1559C42.6843 24.1559 42.6337 24.0447 42.6034 23.8729C42.5863 23.6349 42.6244 23.3962 42.7146 23.1753C43.1139 21.9976 44.6809 20.3901 46.8342 19.2225C50.6626 17.1995 54.7617 15.7373 59.006 14.8805C63.2641 13.921 67.6618 13.7497 71.9816 14.375C74.6361 14.7785 77.193 15.6696 79.5233 17.0035C81.8914 18.3908 83.8621 20.365 85.2453 22.7355C86.0238 24.0371 86.5486 25.4744 86.792 26.9714C87.0191 28.4667 86.9745 29.9907 86.6606 31.4702C86.3054 32.9316 85.7202 34.3273 84.9268 35.6049C84.7145 35.9133 84.4921 36.2115 84.2697 36.5148C84.1585 36.6664 84.0574 36.8231 83.9361 36.9647L83.557 37.3792C83.2992 37.6471 83.0515 37.9402 82.7886 38.1879L81.9496 38.9259C80.5328 40.0743 78.9449 40.9936 77.2436 41.6504C76.8233 41.8172 76.3948 41.9623 75.9597 42.0851C75.5309 42.2351 75.0938 42.36 74.6505 42.4592C74.2104 42.5691 73.765 42.6568 73.316 42.722C72.8662 42.7877 72.4163 42.8636 71.9664 42.8838C70.6008 42.9958 69.2272 42.9687 67.867 42.8029C66.5133 42.6499 65.1743 42.3862 63.8637 42.0144C61.2594 41.2869 58.7449 40.2696 56.3675 38.9815C54.5422 37.9982 52.7859 36.892 51.1105 35.6707C49.4335 34.4622 47.8656 33.1091 46.4248 31.6269C45.783 30.971 45.1772 30.2809 44.6101 29.5595C43.8299 28.6047 43.1977 27.538 42.7348 26.3952C42.6064 26.0841 42.5181 25.758 42.472 25.4247C42.4286 25.1959 42.4286 24.961 42.472 24.7322C42.4932 24.5606 42.5305 24.3914 42.5832 24.2267C42.6792 24.0447 42.8713 24.2722 43.119 24.7979C43.3667 25.3236 43.8064 26.1323 44.4534 27.1231C46.4096 30.0599 49.1493 32.5974 52.1417 34.7962C55.1734 37.0087 58.5063 38.7756 62.0389 40.043C63.3599 40.5081 64.7109 40.883 66.0827 41.1652C67.4405 41.4303 68.819 41.5758 70.2023 41.5999C71.5732 41.6253 72.9418 41.4793 74.2764 41.1652L74.7819 41.054L75.2874 40.8973L76.268 40.5839C76.5937 40.4747 76.9127 40.3464 77.2234 40.1997L78.1686 39.7903L78.1433 39.8155Z" fill="#221F1F"/>
<path d="M45.5098 71.8887C45.1914 73.0108 43.3261 76.0487 45.8636 79.1928C50.0237 84.3537 56.145 80.7092 56.3168 80.0875C48.7347 80.3453 45.3834 72.0605 45.5098 71.8887Z" fill="#221F1F"/>
<path d="M56.1123 79.4262L56.7644 79.4767L57.0879 79.502C57.1334 79.502 57.2143 79.502 57.2295 79.502V79.5475L57.1738 79.7244V79.8103V79.8558L57.1486 79.9063C57.0524 80.1038 56.9461 80.2961 56.8301 80.4826C56.658 80.7065 56.4475 80.8982 56.2084 81.0487C55.909 81.2493 55.5947 81.4268 55.2682 81.5795C55.0964 81.6603 54.9093 81.7311 54.7324 81.8069C54.6602 81.8404 54.5859 81.8691 54.51 81.8929L54.3482 81.9485C53.9083 82.0932 53.4591 82.208 53.0037 82.2922C52.338 82.422 51.6592 82.4713 50.9818 82.4388C49.7772 82.3523 48.6148 81.9591 47.6052 81.2964C47.1105 80.9719 46.6558 80.5902 46.2505 80.1591C45.8442 79.7356 45.4802 79.2734 45.1638 78.7791C44.6036 77.8741 44.2771 76.8441 44.2135 75.7817C44.1557 74.4567 44.4878 73.1438 45.1688 72.0058C45.371 71.6974 45.5176 71.7581 45.649 72.1675C45.7305 72.4224 45.7714 72.6885 45.7703 72.9561C45.7614 73.2724 45.7139 73.5864 45.6288 73.8912C45.2777 74.9738 45.2777 76.1397 45.6288 77.2223C45.8283 77.7621 46.1004 78.2723 46.4376 78.7387C46.7933 79.2224 47.2 79.6664 47.6507 80.063C48.7889 81.0138 50.2503 81.4883 51.7299 81.3874C52.5539 81.3531 53.3682 81.1963 54.1461 80.9224L54.3129 80.8617L54.4392 80.8111C54.6167 80.74 54.7862 80.6502 54.9447 80.5432L55.066 80.4472C55.0869 80.4307 55.1041 80.4101 55.1166 80.3865C55.1418 80.3562 55.0862 80.3865 55.0761 80.3865C54.8403 80.3835 54.6052 80.3598 54.3735 80.3158L54.1865 80.2804L53.7771 80.1844C53.5041 80.1237 53.2413 80.0378 52.9734 79.9518C51.3904 79.3867 49.95 78.4828 48.7526 77.3032C47.8172 76.4326 46.983 75.4593 46.2657 74.4017C46.109 74.1692 45.9523 73.9417 45.8158 73.689C45.3104 72.769 45.2598 72.3849 45.4569 72.0765C45.5075 72.0159 45.553 71.8946 45.6187 71.9047C45.6399 71.9207 45.6639 71.9327 45.6895 71.9401C45.7127 71.9455 45.7369 71.9455 45.7602 71.9401C45.7956 71.9401 45.8108 71.9401 45.8108 71.9097C45.8108 71.8794 45.9119 71.9401 45.9776 72.0007C46.1613 72.204 46.3207 72.4279 46.4527 72.668C47.5495 74.5726 49.0113 76.2422 50.7543 77.5812C51.4098 78.0597 52.121 78.4569 52.8723 78.764C53.2504 78.9114 53.6369 79.0363 54.0298 79.138L54.323 79.2037L54.5403 79.2492L54.8739 79.2846L56.2438 79.3958L56.1123 79.4262Z" fill="#221F1F"/>
<path d="M102.476 12.6976C102.451 12.6959 102.428 12.6851 102.41 12.6673L100.576 10.0641L99.6354 8.77004C99.3018 8.33533 99.0137 7.93095 98.5891 7.46592C98.5571 7.42798 98.5283 7.38739 98.5032 7.3446C98.392 7.26372 98.2049 7.48108 98.0937 7.80458L98.0634 7.88041V7.9259C98.0634 7.96128 98.0331 8.01688 98.0027 8.07754C97.9679 8.153 97.9274 8.22567 97.8814 8.29489C97.8702 8.3178 97.8548 8.33838 97.8359 8.35555C97.8359 8.35555 97.8359 8.28984 97.8359 8.31511L97.9775 8.47181C99.2007 9.98823 100.368 11.7069 101.516 13.3547C101.521 13.3658 101.523 13.3779 101.523 13.3901C101.523 13.4023 101.521 13.4143 101.516 13.4255C101.719 13.3726 101.907 13.274 102.067 13.1373C102.309 12.9149 102.517 12.733 102.476 12.6976Z" fill="#232020"/>
<path d="M101.569 8.11875C101.574 8.12977 101.577 8.14187 101.577 8.15413C101.577 8.16639 101.574 8.17849 101.569 8.18951C100.785 8.8719 100.012 9.5644 99.2488 10.2771C98.8697 10.636 98.4906 11 98.1216 11.3791C97.9346 11.5661 97.7526 11.7632 97.5706 11.9654C97.3586 12.1963 97.1737 12.4507 97.0197 12.7236C97.0002 12.7613 96.9726 12.7941 96.9388 12.8197C96.9034 12.9157 97.1612 13.0269 97.4948 13.0775L97.7374 13.1128H97.8385C97.9319 13.1263 98.0234 13.1501 98.1115 13.1836H98.0761C98.0761 13.1836 98.0761 13.1836 98.1064 13.1331L98.157 13.0572C98.4449 12.7005 98.7555 12.3628 99.0871 12.0463C99.4308 11.7026 99.7846 11.3639 100.144 11.0353C100.861 10.3631 101.599 9.70594 102.342 9.05893C102.342 9.05893 102.378 9.05893 102.408 9.05893C102.438 9.05893 102.282 8.80114 102.059 8.55346C101.837 8.30577 101.599 8.09347 101.569 8.11875Z" fill="#232020"/>
<path d="M104.97 8.07261C104.955 8.07762 104.939 8.07762 104.924 8.07261H104.141L104.207 8.03723C104.676 7.86137 105.082 7.54994 105.374 7.14254C105.481 6.97465 105.521 6.77239 105.485 6.57641C105.455 6.47903 105.404 6.38933 105.336 6.31342C105.268 6.23752 105.185 6.17722 105.091 6.13664C104.956 6.07918 104.813 6.04172 104.667 6.02544C104.544 6.00714 104.421 5.99869 104.298 6.00016C104.28 6.00633 104.26 6.00633 104.242 6.00016C104.242 6.00016 104.171 6.16697 104.186 6.36916C104.181 6.49598 104.205 6.62231 104.257 6.73816C104.27 6.73353 104.284 6.73353 104.298 6.73816H104.5C104.582 6.74298 104.663 6.75654 104.742 6.7786H104.793V6.80892L104.732 6.89485C104.624 7.0186 104.494 7.1214 104.348 7.19814L103.772 7.50142C103.462 7.65072 103.215 7.90502 103.074 8.2192C103.024 8.34557 102.978 8.4871 102.928 8.63874C103.034 8.68424 103.155 8.71962 103.266 8.76006C103.431 8.80181 103.602 8.81548 103.772 8.8005H104.889C104.904 8.79549 104.92 8.79549 104.934 8.8005C104.97 8.8005 105 8.63369 105 8.4315C105 8.22931 105.005 8.07767 104.97 8.07261Z" fill="#232020"/>
<path d="M74.2417 105.675C74.2352 105.685 74.2263 105.694 74.2157 105.7C74.2051 105.706 74.1932 105.71 74.181 105.71H73.7817L74.1457 103.997L75.2526 104.381C75.2526 104.381 75.283 104.406 75.2931 104.437C75.3285 104.437 75.4498 104.199 75.561 103.881C75.6493 103.691 75.6959 103.484 75.6974 103.274C75.6872 103.279 75.676 103.282 75.6646 103.282C75.6532 103.282 75.642 103.279 75.6318 103.274L75.3992 103.193L73.3066 102.465L72.3613 106.878H74.1709C74.1709 106.878 74.2063 106.878 74.2265 106.914C74.3208 106.508 74.3208 106.086 74.2265 105.68L74.2417 105.675Z" fill="#232020"/>
<path d="M70.8354 54.9957C71.4836 53.7515 71.9922 52.4394 72.3518 51.0833C72.4616 50.6086 72.5259 50.1246 72.5439 49.6377C72.5807 49.2756 72.5304 48.9099 72.3973 48.5711C72.3418 48.4521 72.2565 48.3493 72.1496 48.2729C71.9727 48.1617 71.7654 48.0454 71.5734 47.9393C70.7836 47.5091 69.9476 47.17 69.0814 46.9283C68.307 46.7207 67.5118 46.6004 66.7107 46.5695C65.6998 46.5189 64.6585 46.6402 63.6172 46.6048C63.2937 46.6048 63.2988 46.2813 63.5464 45.9528C63.7158 45.7437 63.9278 45.5733 64.1685 45.453C64.4091 45.3326 64.6727 45.2652 64.9415 45.2552C67.2284 45.1202 69.5096 45.6002 71.5481 46.6453L72.4428 47.1507L72.6652 47.2771C72.7562 47.3327 72.8674 47.4085 72.9634 47.4793C73.1409 47.638 73.2896 47.8261 73.4032 48.0353C73.7295 48.7517 73.8299 49.5503 73.6913 50.3251C73.4426 51.8191 72.9938 53.2728 72.3569 54.6469C72.1698 55.0665 71.9727 55.481 71.7553 55.8955C71.6997 55.9966 71.6391 56.1027 71.5734 56.2089C71.5305 56.2776 71.4833 56.3434 71.4318 56.406L71.2853 56.5425C71.1046 56.7201 70.9025 56.8746 70.6837 57.0025C70.0553 57.3889 69.3495 57.6323 68.6164 57.7152C67.9129 57.8135 67.2004 57.8287 66.4934 57.7607C65.3965 57.6978 64.319 57.4446 63.3089 57.0126C63.0766 56.9183 62.8533 56.8032 62.6416 56.6688C62.3458 56.4957 62.0921 56.2592 61.8986 55.9763C61.8502 55.8927 61.8219 55.7989 61.8157 55.7025C61.8096 55.606 61.8258 55.5095 61.8632 55.4203C61.8872 55.3413 61.923 55.2663 61.9693 55.1979C62.0174 55.1498 62.0794 55.118 62.1466 55.1071C62.2137 55.0962 62.2826 55.1067 62.3434 55.1373C62.4311 55.1662 62.5145 55.207 62.5911 55.2586C62.7018 55.3128 62.8082 55.3753 62.9095 55.4456C63.6334 55.8916 64.4311 56.2048 65.2651 56.3706C66.1293 56.5713 67.0182 56.6445 67.9036 56.588C68.5285 56.5603 69.1426 56.4145 69.7132 56.1583C69.97 56.0411 70.2057 55.8823 70.4108 55.6882L70.5119 55.6073L70.6029 55.4506C70.6787 55.3142 70.7596 55.1575 70.8354 55.0008V54.9957Z" fill="#221F1F"/>
<path d="M48.9685 56.796C47.7806 56.4767 46.672 55.9138 45.7132 55.1431C44.7769 54.346 44.041 53.34 43.565 52.2063C43.385 51.8019 43.2412 51.3824 43.1353 50.9527C43.0114 50.5325 42.9318 50.1005 42.8977 49.6637L42.8573 49.0875L42.832 48.8044V48.5163L42.8927 47.384L43.0797 46.272C43.1046 46.0794 43.1417 45.8886 43.1909 45.7008C43.252 45.4745 43.3457 45.2583 43.4689 45.0589C43.9699 44.3786 44.6802 43.8814 45.4908 43.6435C46.2087 43.411 46.9491 43.2551 47.6998 43.1785C49.0011 43.044 50.3112 43.0153 51.6172 43.0926C52.4508 43.1318 53.2813 43.2213 54.1041 43.3605C54.9515 43.4944 55.7722 43.7622 56.5354 44.1541C57.0409 44.4573 56.7579 44.6595 56.2625 44.7556C55.5558 44.8792 54.8323 44.8689 54.1294 44.7252C52.5593 44.4201 50.9621 44.2762 49.3628 44.2956C48.5705 44.3005 47.7798 44.3648 46.9971 44.4877C46.2648 44.5845 45.5588 44.825 44.9196 45.1953C44.6045 45.3819 44.373 45.6822 44.2726 46.0344C44.1968 46.5399 44.1109 47.0049 44.0452 47.4902C43.9795 47.9754 43.9896 48.4708 44.0452 48.9561C44.0693 49.4377 44.1353 49.9163 44.2423 50.3866C44.4343 51.4218 44.8749 52.395 45.5262 53.2223C46.1677 54.0626 47.0085 54.7297 47.9727 55.1633C49.1778 55.7175 50.5 55.9691 51.8244 55.8962C52.0752 55.8905 52.3252 55.8668 52.5725 55.8255C52.8242 55.8007 53.074 55.7601 53.3206 55.7042L54.0586 55.5222C54.1709 55.4895 54.2807 55.449 54.3872 55.4009L54.5439 55.3352L54.6854 55.2391C55.0887 54.9857 55.425 54.639 55.666 54.2282C55.9296 53.8083 56.1386 53.3564 56.2878 52.8836C56.5237 52.1263 56.7028 51.3525 56.8236 50.5685C56.8523 50.286 56.971 50.0202 57.1622 49.8103C57.3793 49.6217 57.6428 49.4943 57.9255 49.4413C58.3673 49.3482 58.8209 49.3243 59.2701 49.3706C59.6523 49.3958 60.0314 49.4567 60.4023 49.5525C60.9061 49.6715 61.3784 49.8973 61.7873 50.2147C61.8918 50.2911 61.9782 50.3896 62.0402 50.5032C62.1022 50.6167 62.1384 50.7426 62.1462 50.8718C62.1617 50.9672 62.1617 51.0645 62.1462 51.1599C62.0401 51.4278 61.6054 51.1599 60.7966 50.9021C60.183 50.691 59.5398 50.5784 58.891 50.5685C58.6093 50.5569 58.3277 50.5911 58.0569 50.6696C58.0569 50.6696 58.0317 50.6949 58.0266 50.705V50.7707V50.8465L58.0013 50.9729C57.7132 52.4085 57.415 54.0917 56.2271 55.5222C55.7581 56.0702 55.1454 56.4764 54.458 56.6949L53.5683 56.9173C53.2681 56.9838 52.9643 57.0327 52.6585 57.0639C51.4362 57.226 50.1942 57.1539 48.9988 56.8516L48.9685 56.796Z" fill="#221F1F"/>
<path d="M59.6966 50.6338C59.7702 49.1134 60.1429 47.6225 60.7935 46.2463C61.0413 45.7317 61.3465 45.2467 61.7033 44.8006C62.3755 44.0357 63.2263 43.4488 64.1802 43.0921C65.0835 42.7813 66.017 42.5661 66.9653 42.4502C67.7917 42.3351 68.6235 42.2626 69.4573 42.2328C69.9986 42.2102 70.5407 42.2254 71.0799 42.2783C71.6386 42.324 72.1829 42.4785 72.6822 42.7333C73.0057 42.9051 72.7985 43.1629 72.4447 43.3499C72.0261 43.5773 71.5485 43.6725 71.0748 43.6229C70.0906 43.4994 69.0964 43.4773 68.1077 43.5572C67.0995 43.6155 66.0983 43.7609 65.1153 43.9919C63.9561 44.2704 62.9493 44.9856 62.3048 45.9885C61.5715 47.1324 61.1178 48.4328 60.9805 49.7846C60.8742 50.6362 60.8438 51.4955 60.8895 52.3524C60.9495 53.6627 61.1667 54.9609 61.5365 56.2193C61.833 57.1703 62.2437 58.0817 62.7598 58.9337C62.8659 59.1207 62.9923 59.2926 63.1035 59.4746C63.5331 60.1418 63.609 60.3541 63.4927 60.7029C63.4685 60.7843 63.4381 60.8637 63.4017 60.9405C63.2753 61.1629 62.8609 61.0416 62.4262 60.531C61.2051 58.9465 60.3833 57.0914 60.0302 55.1224C59.7215 53.6474 59.5992 52.1394 59.6662 50.6338H59.6966Z" fill="#221F1F"/>
<path d="M55.277 41.52C51.9813 38.4063 46.4969 39.4172 43.2012 41.2521" stroke="#221F1F" stroke-width="3.5" stroke-linecap="round" stroke-linejoin="round"/>
<path d="M54.3324 66.9096C55.3686 68.2946 56.7334 69.437 58.5531 69.351C59.9778 69.2394 61.3006 68.5689 62.2329 67.4858C62.6323 67.0612 61.1866 67.1623 60.8783 67.4858C59.003 69.4724 57.067 68.1783 55.6972 66.3536C55.4192 65.9846 54.0038 66.4749 54.3324 66.9096Z" fill="#221F1F"/>
<path d="M59.7352 149.98H106.128L135.84 104.103C136.481 103.148 134.374 101.788 133.762 102.759L104.798 147.508H59.7352C58.8304 147.503 58.8304 149.99 59.7352 149.98Z" fill="#232020"/>
<path d="M43.0327 47.8838L34.0605 46.1904" stroke="#221F1F" stroke-width="3.5" stroke-linecap="round" stroke-linejoin="round"/>
<path d="M55.9125 131.767C55.1998 127.217 59.2284 119.484 60.4618 107.468C60.9672 102.313 59.0767 83.7515 57.2318 88.2148C56.0793 91.0101 58.6977 96.7321 56.0439 98.016C47.8148 101.994 42.9016 79.0354 34.0861 80.3244C33.5222 80.4599 32.9669 80.6287 32.4231 80.8298C17.2285 84.9444 2.60004 134.233 6.92691 148.745C8.8831 155.286 25.4728 154.735 43.5334 147.163C41.7592 143.266 42.4517 137.691 44.9133 134.304C44.8931 134.304 54.7954 131.893 55.9125 131.767Z" fill="#221F1F"/>
<path d="M7.6416 124.023C8.98499 118.331 10.6954 112.732 12.7621 107.262C14.7894 101.764 17.3279 96.4687 20.3442 91.4452C21.4685 89.6069 22.7165 87.8472 24.0796 86.1782C25.4475 84.4682 27.0586 82.9678 28.8614 81.7249C29.6871 81.1763 30.5744 80.7267 31.5051 80.3854L32.2228 80.163C32.42 80.1125 32.6222 80.0417 32.8446 79.9659C33.067 79.8901 33.3046 79.8092 33.5725 79.7384C33.709 79.7049 33.8474 79.6796 33.9869 79.6626H34.3812C35.4298 79.5994 36.4764 79.8157 37.4141 80.2894C38.2994 80.7539 39.116 81.3391 39.8403 82.0282C41.195 83.3761 42.4093 84.858 43.4646 86.4511C44.5413 88.0029 45.537 89.5851 46.5632 91.1318C47.5507 92.6819 48.6559 94.1538 49.869 95.5345C50.4635 96.1991 51.1434 96.7821 51.8909 97.2683C52.5847 97.7325 53.4014 97.979 54.2363 97.976C54.4408 97.976 54.6446 97.9505 54.8428 97.9001C54.9439 97.9001 55.045 97.8698 55.1461 97.8395L55.4393 97.7283C55.6257 97.6679 55.8052 97.5883 55.9751 97.4907C56.1166 97.3955 56.2399 97.2756 56.339 97.1369C56.7485 96.5505 56.799 95.6205 56.7687 94.7359C56.7384 93.8513 56.6171 92.9162 56.5311 91.976C56.4173 91.0105 56.4173 90.035 56.5311 89.0695C56.5998 88.4928 56.8176 87.9441 57.163 87.4772C57.2333 87.3751 57.3247 87.2893 57.4311 87.2256C57.5375 87.1619 57.6564 87.1219 57.7796 87.1083C57.9029 87.1127 58.0238 87.1439 58.1338 87.1998C58.2438 87.2556 58.3402 87.3348 58.4165 87.4318C58.6047 87.642 58.7552 87.8831 58.8614 88.1445C58.9722 88.4068 59.0684 88.6751 59.1495 88.9482C59.2759 89.3677 59.377 89.7721 59.473 90.1866C59.8369 91.8344 60.0745 93.4873 60.2817 95.1402C60.698 98.4359 60.936 101.752 60.9945 105.073C60.9945 105.609 60.9945 106.139 60.9692 106.68C60.9439 107.221 60.8883 107.767 60.8277 108.288L60.6406 109.875L60.4132 111.452C60.0846 113.555 59.6701 115.647 59.1849 117.715C58.6996 119.782 58.1335 121.829 57.5825 123.866C56.9841 125.863 56.548 127.905 56.2784 129.973C56.2784 130.291 56.2531 130.559 56.2329 130.791C56.2127 131.024 56.2329 131.196 56.2329 131.342C56.2329 131.636 56.1823 131.772 56.1217 131.762C56.061 131.752 55.9852 131.595 55.8892 131.297C55.7579 130.872 55.6798 130.432 55.6566 129.988C55.6102 128.421 55.7544 126.854 56.0863 125.322C56.4401 123.422 56.981 121.243 57.5623 118.898C58.0813 116.818 58.5278 114.729 58.9018 112.63C59.0989 111.578 59.2405 110.522 59.4073 109.47L59.5943 107.883C59.6651 107.342 59.6954 106.872 59.7156 106.331C59.7712 104.234 59.655 102.085 59.5033 99.9574C59.3517 97.8294 59.1242 95.6862 58.8209 93.5783C58.6642 92.5219 58.4873 91.4705 58.2598 90.4494C58.2042 90.1967 58.1436 89.944 58.0779 89.6963L57.9768 89.3323L57.9212 89.1605C57.9212 89.1605 57.9212 89.0745 57.8605 89.0745C57.846 89.0874 57.834 89.1028 57.8251 89.12C57.8127 89.1491 57.8042 89.1797 57.7999 89.211C57.7746 89.3778 57.7392 89.6559 57.7291 89.8884C57.719 90.1209 57.7291 90.3938 57.7291 90.6365C57.7594 91.6474 57.9111 92.7241 57.997 93.8311C58.0523 94.4022 58.0692 94.9763 58.0476 95.5497C58.039 96.1955 57.9015 96.8331 57.6432 97.425C57.4832 97.7609 57.2601 98.063 56.986 98.3146C56.7132 98.5384 56.4013 98.7098 56.0661 98.8201C55.7777 98.9467 55.4759 99.04 55.1663 99.0981L54.6962 99.184C54.5281 99.1981 54.359 99.1981 54.1908 99.184C52.9435 99.1594 51.7383 98.7281 50.7586 97.9557C49.8515 97.258 49.0318 96.4536 48.3172 95.5598C46.6903 93.4671 45.1719 91.2924 43.7679 89.0442C42.3071 86.8656 40.8311 84.6466 38.9608 82.8926C38.0841 82.0251 37.0054 81.3894 35.8218 81.0425C35.5368 80.9713 35.2457 80.9273 34.9524 80.9111C34.6643 80.9111 34.361 80.9415 34.088 80.9617C33.7955 81.0256 33.5082 81.1118 33.2287 81.2195C32.9204 81.3357 32.5211 81.4419 32.2532 81.5329C31.0504 81.9325 29.9253 82.5361 28.9271 83.3172C27.8991 84.1013 26.9463 84.9796 26.0813 85.9406C24.1646 88.0923 22.471 90.4328 21.0266 92.9263C19.5512 95.427 18.2115 98.0053 17.0131 100.65C14.6101 105.96 12.5832 111.433 10.9474 117.027C9.93645 120.465 9.05187 123.947 8.3341 127.46C7.59792 130.964 7.07631 134.508 6.77218 138.075C6.52246 140.767 6.54447 143.476 6.83789 146.163C6.92232 146.822 7.04554 147.475 7.20689 148.119C7.32957 148.732 7.58302 149.311 7.94994 149.817C8.32419 150.321 8.79289 150.747 9.32988 151.071C9.88092 151.413 10.4673 151.694 11.0788 151.91C13.5759 152.754 16.3105 152.896 18.9845 152.815C21.6734 152.697 24.3489 152.367 26.9861 151.829C31.0553 151.001 35.0514 149.846 38.9355 148.377C39.9061 148.023 40.8614 147.639 41.8168 147.25L42.7468 146.855C42.7197 146.747 42.6808 146.642 42.6306 146.542L42.6002 146.466L42.5446 146.294L42.4183 145.905C41.8343 143.805 41.7289 141.601 42.1099 139.455C42.2695 138.518 42.5166 137.597 42.8479 136.705C43.0097 136.256 43.2119 135.821 43.4191 135.386L43.7729 134.749C43.8291 134.64 43.8933 134.535 43.965 134.436L44.2178 134.052L44.4553 133.698L46.9473 133.096L48.8125 132.662C49.9397 132.409 50.8597 132.212 51.623 132.08C52.6717 131.862 53.7414 131.76 54.8125 131.777C55.1509 131.772 55.4891 131.796 55.8235 131.848C56.147 131.944 55.6769 132.126 54.4941 132.51C53.3113 132.894 51.4612 133.445 49.0147 134.062L45.3803 135.007L45.345 135.073L45.2995 135.149L45.2186 135.27C45.1074 135.432 45.0265 135.614 44.9254 135.775C44.7377 136.127 44.5689 136.488 44.4199 136.857C44.1216 137.605 43.8899 138.378 43.7274 139.167C43.3969 140.757 43.3456 142.392 43.5758 143.999L43.6819 144.596L43.8235 145.182C43.8639 145.379 43.9347 145.561 43.9903 145.753L44.1217 146.148L44.3542 146.724L44.5918 147.305L44.7081 147.598L44.7333 147.669C44.7333 147.7 44.698 147.694 44.6878 147.71L44.5413 147.77L43.3787 148.251L41.9431 148.832C40.2953 149.494 38.6272 150.101 36.9339 150.672C33.5226 151.824 30.0347 152.737 26.4958 153.401C22.8971 154.11 19.2263 154.383 15.5624 154.215C14.0197 154.123 12.493 153.851 11.0131 153.406C10.2405 153.171 9.49759 152.847 8.79913 152.441C8.04912 152.015 7.38972 151.447 6.85811 150.768C6.58112 150.414 6.35013 150.027 6.17066 149.615C6.08979 149.403 6.00386 149.186 5.93309 148.983L5.78145 148.412C5.59858 147.661 5.46184 146.9 5.37201 146.133C5.19245 144.632 5.11813 143.12 5.1496 141.609C5.21538 138.638 5.47711 135.674 5.93309 132.737C6.3678 129.806 6.94404 126.904 7.60621 124.028L7.6416 124.023Z" fill="#221F1F"/>
</g>
<defs>
<clipPath id="clip0_248_14340">
<rect x="0.587891" y="0.80957" width="102.736" height="102.736" rx="51.3679" fill="white"/>
</clipPath>
</defs>
</svg>
